<svg width="90" height="73" viewBox="0 0 90 73" fill="none" xmlns="http://www.w3.org/2000/svg">
<circle cx="52.7726" cy="36.5" r="36.5" fill="#D8E3FF"/>
<path d="M2.7091 12.0425C4.9049 12.2316 7.15088 12.7788 9.19993 14.1728C9.68348 14.576 10.2251 14.8862 10.669 15.3781C11.1131 15.8591 11.6024 16.332 11.979 16.8622C12.3332 17.3289 12.6773 17.7933 13.0112 18.2771C18.4846 18.6508 23.9462 19.3881 29.3559 20.6322C33.1234 21.4791 36.8467 22.6347 40.532 24.0012C43.7709 25.2983 46.9911 26.8565 49.9961 29.0196C40.8756 19.039 31.061 15.4665 26.4042 13.8558C16.2717 10.3487 7.21685 10.7712 0.666322 12.0144C1.34105 11.9888 2.02689 12.0048 2.7091 12.0425Z" fill="#231F20"/>
<path d="M28.9063 23.8305C25.2246 22.9304 21.4957 22.3062 17.7606 21.7691C16.8561 21.6347 15.9515 21.5003 15.0515 21.4008C16.1358 23.1541 17.1536 25.0089 18.0838 26.9191C18.2722 27.3051 18.4587 27.7041 18.6468 28.101C23.5278 28.4621 28.4044 29.1347 33.2472 30.2077L36.0167 30.9255L37.3987 31.2952L38.7681 31.7388L41.505 32.6369C42.415 32.9849 43.313 33.3501 44.2176 33.7285C47.8041 35.2352 51.3403 37.1267 54.5829 39.7375C57.2397 41.8501 59.7512 44.453 61.7085 47.6648C60.5738 44.9632 59.2131 42.1865 57.5886 39.415C55.4646 36.434 52.9353 34.0269 50.2006 32.1159C46.9529 29.8819 43.4519 28.2239 39.8569 26.9698C36.2617 25.7288 32.608 24.6134 28.9063 23.8305Z" fill="#231F20"/>
<path d="M53.5995 41.9417C50.4083 39.7237 47.0105 37.9604 43.4894 36.6725L40.8624 35.6714L38.1897 34.8352L36.8483 34.4224L35.4942 34.0836L32.7943 33.406C29.1666 32.5894 25.5152 31.9097 21.8424 31.4562C21.2378 31.3629 20.6313 31.2783 20.023 31.2068C20.4503 32.1843 20.8761 33.0267 21.4081 33.7899C22.7129 35.6508 24.3744 37.0657 26.245 37.9627C27.1768 38.4265 28.1439 38.7448 29.1648 39.0354L32.3209 39.9197L44.9279 43.6285L51.2062 45.5534C53.3968 46.3634 55.4539 47.6595 57.2957 49.3143C60.8573 52.5155 63.631 56.8168 65.8846 61.4247C65.0549 57.5422 63.7346 53.8882 61.9063 50.7675C59.736 47.0169 56.7583 44.2049 53.5995 41.9417Z" fill="#231F20"/>
</svg>
