<svg width="365" height="90" viewBox="0 0 365 90" fill="none" xmlns="http://www.w3.org/2000/svg">
<path d="M137.94 54.42C137.94 56.58 137.4 58.58 136.32 60.42C135.24 62.22 133.64 63.68 131.52 64.8C129.4 65.88 126.82 66.42 123.78 66.42C120.78 66.42 118.1 65.92 115.74 64.92C113.38 63.88 111.48 62.4 110.04 60.48C108.64 58.56 107.84 56.32 107.64 53.76H116.64C116.84 55.48 117.52 56.92 118.68 58.08C119.88 59.2 121.46 59.76 123.42 59.76C125.18 59.76 126.52 59.3 127.44 58.38C128.4 57.42 128.88 56.2 128.88 54.72C128.88 53.4 128.5 52.32 127.74 51.48C126.98 50.6 126.02 49.9 124.86 49.38C123.7 48.86 122.1 48.26 120.06 47.58C117.42 46.7 115.26 45.84 113.58 45C111.9 44.12 110.46 42.86 109.26 41.22C108.1 39.58 107.52 37.44 107.52 34.8C107.52 31.16 108.82 28.3 111.42 26.22C114.06 24.1 117.54 23.04 121.86 23.04C126.34 23.04 129.9 24.12 132.54 26.28C135.22 28.44 136.74 31.32 137.1 34.92H127.98C127.74 33.4 127.1 32.16 126.06 31.2C125.02 30.2 123.6 29.7 121.8 29.7C120.24 29.7 118.98 30.12 118.02 30.96C117.06 31.76 116.58 32.94 116.58 34.5C116.58 35.74 116.94 36.78 117.66 37.62C118.42 38.42 119.36 39.08 120.48 39.6C121.64 40.12 123.2 40.7 125.16 41.34C127.88 42.3 130.08 43.2 131.76 44.04C133.48 44.88 134.94 46.14 136.14 47.82C137.34 49.5 137.94 51.7 137.94 54.42ZM163.612 66L152.632 51.48V66H144.172V21.6H152.632V46.56L163.552 32.76H173.572L159.592 49.32L173.932 66H163.612ZM183.739 32.76L192.799 55.32L201.199 32.76H210.499L190.159 81.84H180.799L188.299 65.04L174.319 32.76H183.739ZM227.505 32.34C230.305 32.34 232.685 33 234.645 34.32C236.645 35.64 238.085 37.42 238.965 39.66V21.6H247.365V66H238.965V59.04C238.085 61.28 236.645 63.08 234.645 64.44C232.685 65.76 230.305 66.42 227.505 66.42C224.705 66.42 222.185 65.74 219.945 64.38C217.705 63.02 215.945 61.06 214.665 58.5C213.425 55.9 212.805 52.86 212.805 49.38C212.805 45.9 213.425 42.88 214.665 40.32C215.945 37.72 217.705 35.74 219.945 34.38C222.185 33.02 224.705 32.34 227.505 32.34ZM230.145 39.72C227.505 39.72 225.385 40.58 223.785 42.3C222.185 44.02 221.385 46.38 221.385 49.38C221.385 52.38 222.185 54.74 223.785 56.46C225.385 58.14 227.505 58.98 230.145 58.98C232.705 58.98 234.805 58.12 236.445 56.4C238.125 54.64 238.965 52.3 238.965 49.38C238.965 46.42 238.125 44.08 236.445 42.36C234.805 40.6 232.705 39.72 230.145 39.72ZM268.051 32.34C270.851 32.34 273.251 33 275.251 34.32C277.251 35.64 278.671 37.42 279.511 39.66V32.76H287.911V66H279.511V59.04C278.671 61.28 277.251 63.08 275.251 64.44C273.251 65.76 270.851 66.42 268.051 66.42C265.251 66.42 262.731 65.74 260.491 64.38C258.251 63.02 256.491 61.06 255.211 58.5C253.971 55.9 253.351 52.86 253.351 49.38C253.351 45.9 253.971 42.88 255.211 40.32C256.491 37.72 258.251 35.74 260.491 34.38C262.731 33.02 265.251 32.34 268.051 32.34ZM270.691 39.72C268.051 39.72 265.931 40.58 264.331 42.3C262.731 44.02 261.931 46.38 261.931 49.38C261.931 52.38 262.731 54.74 264.331 56.46C265.931 58.14 268.051 58.98 270.691 58.98C273.251 58.98 275.351 58.12 276.991 56.4C278.671 54.64 279.511 52.3 279.511 49.38C279.511 46.42 278.671 44.08 276.991 42.36C275.351 40.6 273.251 39.72 270.691 39.72ZM307.038 32.34C311.078 32.34 314.318 33.36 316.758 35.4C319.198 37.44 320.718 40.16 321.318 43.56H313.398C313.078 41.96 312.358 40.68 311.238 39.72C310.118 38.76 308.658 38.28 306.858 38.28C305.418 38.28 304.298 38.62 303.498 39.3C302.698 39.98 302.298 40.9 302.298 42.06C302.298 42.98 302.618 43.72 303.258 44.28C303.898 44.84 304.698 45.28 305.658 45.6C306.618 45.92 307.998 46.3 309.798 46.74C312.318 47.3 314.358 47.9 315.918 48.54C317.518 49.14 318.878 50.12 319.998 51.48C321.158 52.8 321.738 54.6 321.738 56.88C321.738 59.72 320.618 62.02 318.378 63.78C316.178 65.54 313.198 66.42 309.438 66.42C305.118 66.42 301.658 65.46 299.058 63.54C296.458 61.58 294.878 58.8 294.318 55.2H302.418C302.618 56.84 303.338 58.14 304.578 59.1C305.818 60.02 307.438 60.48 309.438 60.48C310.878 60.48 311.978 60.14 312.738 59.46C313.498 58.74 313.878 57.82 313.878 56.7C313.878 55.74 313.538 54.96 312.858 54.36C312.218 53.76 311.398 53.3 310.398 52.98C309.438 52.66 308.058 52.28 306.258 51.84C303.778 51.28 301.758 50.72 300.198 50.16C298.678 49.56 297.358 48.62 296.238 47.34C295.158 46.06 294.618 44.3 294.618 42.06C294.618 39.18 295.718 36.84 297.918 35.04C300.118 33.24 303.158 32.34 307.038 32.34ZM347.839 32.28C351.679 32.28 354.739 33.54 357.019 36.06C359.299 38.58 360.439 42.12 360.439 46.68V66H352.039V47.64C352.039 45 351.359 42.96 349.999 41.52C348.639 40.04 346.779 39.3 344.419 39.3C342.019 39.3 340.099 40.08 338.659 41.64C337.219 43.2 336.499 45.44 336.499 48.36V66H328.039V21.6H336.499V39.42C337.379 37.18 338.819 35.44 340.819 34.2C342.859 32.92 345.199 32.28 347.839 32.28Z" fill="#504B8E"/>
<circle cx="53.5" cy="36.5" r="36.5" fill="#D8E3FF"/>
<path d="M3.43652 12.0425C5.63232 12.2316 7.87829 12.7788 9.92735 14.1728C10.4109 14.576 10.9525 14.8862 11.3964 15.3781C11.8405 15.8591 12.3298 16.332 12.7064 16.8622C13.0606 17.3289 13.4047 17.7933 13.7386 18.2771C19.212 18.6508 24.6736 19.3881 30.0833 20.6322C33.8508 21.4791 37.5741 22.6347 41.2594 24.0012C44.4983 25.2983 47.7186 26.8565 50.7235 29.0196C41.603 19.039 31.7885 15.4665 27.1317 13.8558C16.9991 10.3487 7.94427 10.7712 1.39374 12.0144C2.06847 11.9888 2.75431 12.0048 3.43652 12.0425Z" fill="#231F20"/>
<path d="M29.6337 23.8305C25.952 22.9304 22.2232 22.3062 18.4881 21.7691C17.5835 21.6347 16.679 21.5003 15.7789 21.4008C16.8632 23.1541 17.881 25.0089 18.8113 26.9191C18.9996 27.3051 19.1861 27.7041 19.3743 28.101C24.2552 28.4621 29.1319 29.1347 33.9746 30.2077L36.7441 30.9255L38.1262 31.2952L39.4955 31.7388L42.2324 32.6369C43.1424 32.9849 44.0405 33.3501 44.945 33.7285C48.5316 35.2352 52.0678 37.1267 55.3103 39.7375C57.9671 41.8501 60.4786 44.453 62.4359 47.6648C61.3012 44.9632 59.9406 42.1865 58.3161 39.415C56.192 36.434 53.6627 34.0269 50.9281 32.1159C47.6803 29.8819 44.1793 28.2239 40.5843 26.9698C36.9891 25.7288 33.3354 24.6134 29.6337 23.8305Z" fill="#231F20"/>
<path d="M54.3269 41.9417C51.1357 39.7237 47.7379 37.9604 44.2168 36.6725L41.5898 35.6714L38.9171 34.8352L37.5757 34.4224L36.2216 34.0836L33.5217 33.406C29.894 32.5894 26.2426 31.9097 22.5698 31.4562C21.9652 31.3629 21.3587 31.2783 20.7504 31.2068C21.1777 32.1843 21.6035 33.0267 22.1355 33.7899C23.4403 35.6508 25.1018 37.0657 26.9724 37.9627C27.9042 38.4265 28.8713 38.7448 29.8922 39.0354L33.0483 39.9197L45.6553 43.6285L51.9336 45.5534C54.1242 46.3634 56.1813 47.6595 58.0231 49.3143C61.5847 52.5155 64.3584 56.8168 66.612 61.4247C65.7823 57.5422 64.462 53.8882 62.6337 50.7675C60.4634 47.0169 57.4857 44.2049 54.3269 41.9417Z" fill="#231F20"/>
</svg>
