<svg xmlns="http://www.w3.org/2000/svg" width="101" height="33" viewBox="0 0 101 33">
    <g fill="none" fill-rule="evenodd">
        <path fill="#FFF" d="M40 22.479h2.148c.03 1.171.88 1.972 2.1 1.972 1.436 0 2.217-.86 2.217-2.47V12h2.187v9.99c0 2.793-1.64 4.414-4.384 4.414-2.54 0-4.268-1.582-4.268-3.925zm19.834-6.66v10.273h-2.022v-1.738h-.048c-.567 1.23-1.612 1.923-3.184 1.923-2.236 0-3.603-1.455-3.603-3.808v-6.65h2.109v6.24c0 1.562.742 2.402 2.197 2.402 1.524 0 2.442-1.055 2.442-2.656v-5.987h2.109zm1.895 2.91c0-1.836 1.601-3.096 3.964-3.096 2.393 0 3.946 1.328 4.014 3.222h-1.982c-.118-.996-.85-1.62-2.032-1.62-1.142 0-1.904.556-1.904 1.376 0 .645.469 1.084 1.582 1.338l1.67.381c2.1.488 2.9 1.309 2.9 2.793 0 1.875-1.748 3.164-4.17 3.164-2.568 0-4.11-1.26-4.306-3.213h2.09c.195 1.074.927 1.602 2.216 1.602 1.27 0 2.051-.528 2.051-1.367 0-.664-.38-1.055-1.504-1.309l-1.67-.39c-1.953-.45-2.92-1.387-2.92-2.881zm10.459-5.342h2.119v2.431h1.953v1.67h-1.953v5.664c0 .889.39 1.29 1.25 1.29.214 0 .556-.02.693-.05v1.67c-.234.06-.703.098-1.172.098-2.08 0-2.89-.79-2.89-2.773v-5.899h-1.495v-1.67h1.495v-2.431zM78.242 12h4.97c4.19 0 6.67 2.578 6.67 7.021 0 4.454-2.47 7.07-6.67 7.07h-4.97V12zm2.188 1.885v10.312h2.578c2.988 0 4.638-1.826 4.638-5.156 0-3.32-1.66-5.156-4.638-5.156H80.43zm15.703 12.402c-2.94 0-4.873-2.021-4.873-5.332 0-3.3 1.943-5.322 4.873-5.322s4.873 2.021 4.873 5.322c0 3.31-1.934 5.332-4.873 5.332zm0-1.738c1.66 0 2.724-1.309 2.724-3.594 0-2.275-1.074-3.584-2.724-3.584-1.65 0-2.725 1.309-2.725 3.584 0 2.285 1.074 3.594 2.725 3.594z"/>
        <g fill-rule="nonzero">
            <path fill="#FC7242" d="M2.459 11.704a6.306 6.306 0 0 1 8.917 0l11.84 11.839-8.918 8.917-11.84-11.838a6.306 6.306 0 0 1 0-8.918z"/>
            <path fill="#FF906A" d="M5.287 14.533a6.306 6.306 0 0 1 8.918 0l9.01 9.01-8.917 8.917-9.01-9.01a6.306 6.306 0 0 1 0-8.917z"/>
            <path fill="#F5A623" d="M36.002 1.839a6.306 6.306 0 0 1 0 8.917L14.298 32.46 5.38 23.543 27.084 1.839a6.306 6.306 0 0 1 8.918 0z"/>
            <path fill="#FFC100" d="M23.308 14.533a6.306 6.306 0 0 1 0 8.917l-9.01 9.01-8.918-8.917 9.01-9.01a6.306 6.306 0 0 1 8.918 0z"/>
        </g>
    </g>
</svg>
