<svg width="822" height="443" viewBox="0 0 822 443" fill="none" xmlns="http://www.w3.org/2000/svg">
<rect width="822" height="434" fill="#DAE7FF"/>
<path d="M138.665 412.112C138.665 412.112 243.646 243.118 283.65 235.575C323.65 228.033 357.919 297.143 357.919 297.143C357.919 297.143 376.03 281.349 403.874 287.518C431.718 293.687 581.069 433.843 581.069 433.843L131 428.231L138.665 412.112Z" fill="#9BC1F9"/>
<path d="M189.01 276.361C282.216 291.869 422.068 431.242 528.59 431.242C635.111 431.242 658.046 397.909 697.992 404.957C737.936 412.005 791.562 431.242 791.562 431.242L0 433.581C0 433.581 95.8036 260.853 189.01 276.361Z" fill="#86B1F2"/>
<path d="M250.267 217.398L232.054 364.59H268.48L250.267 217.398Z" fill="#4B49AC"/>
<path d="M284.343 250.27L266.13 397.459H302.556L284.343 250.27Z" fill="#4B49AC"/>
<path d="M33.8401 357.935H28.2606V419.783H33.8401V357.935Z" fill="#355389"/>
<path d="M31.0519 237.952L12.839 385.144H49.2647L31.0519 237.952Z" fill="#4B49AC"/>
<path d="M74.6627 333.827H70.6501V404.155H74.6627V333.827Z" fill="#355389"/>
<path d="M73.7064 208.44L53.9296 350.396H93.4831L73.7064 208.44Z" fill="#4B49AC"/>
<path d="M0 434.285C0 434.285 102.19 345.517 233.952 340.066C278.197 338.234 459.373 374.946 611.939 403.79C618.352 405.002 632.219 416.873 638.713 418.092C712.5 420.5 798.73 432.124 820.5 433L0 434.285Z" fill="#74A67E"/>
<path d="M806.876 335.945L807.022 328.301C807.022 322.632 802.697 318.036 797.359 318.036C783.909 318.036 773.006 329.618 773.006 343.905V354.349C773.006 358.924 770.576 362.898 767.013 364.891C763.778 366.702 761.797 370.318 761.797 374.206V379.714C761.797 385.674 764.43 391.239 768.809 394.971C771.368 397.155 773.006 400.506 773.006 404.263V412.058C773.006 420.679 779.584 427.665 787.698 427.665H792.327C800.442 427.665 807.019 420.676 807.019 412.058C805.688 401.17 808.917 394.888 812.64 391.296C818.115 386.014 821.321 378.588 821.321 370.729V369.627C821.321 361.334 817.719 353.571 811.699 348.292C809.045 345.963 806.876 342.156 806.876 335.945Z" fill="#4B49AC"/>
<path d="M821 433.569C821 433.569 784.201 384.858 760.593 377.218C736.985 369.574 759.235 399.928 759.235 399.928C759.235 399.928 717.358 354.137 701.989 358.263C687.902 362.046 701.989 390.432 701.989 390.432C701.989 390.432 686.124 374.715 666.883 374.715C647.643 374.715 681.754 433.569 681.754 433.569H751H821Z" fill="#74A67E"/>
<path d="M701.939 434.283C701.939 434.283 676.296 365.706 644.539 373.639C618.804 380.064 637.1 414.568 635.531 413.002C633.961 411.432 620.16 388.012 597.824 388.012C575.491 388.012 604.678 419.621 604.678 419.621C604.678 419.621 557.094 404.759 553.37 420.365C550.278 433.315 567.573 434.286 567.573 434.286H701.939V434.283Z" fill="#4B49AC"/>
<path d="M377.623 332.615C379.506 333.747 381.228 335.275 382.947 336.636C392.288 344.057 401.764 351.236 414.651 366.333C431.878 386.515 444.746 409.434 452.596 434.465C452.876 435.362 454.294 434.978 454.008 434.075C448.902 417.974 441.66 402.571 432.554 388.347C407.948 349.913 377.293 332.415 377.623 332.615Z" fill="#466EB6"/>
<path d="M423.003 332.289C425.062 345.849 432.136 358.041 437.013 370.696C450.057 404.545 452.199 430.324 453.373 433.18C453.492 433.466 453.864 433.419 453.903 433.109C454.228 430.458 451.353 411.893 445.684 392.584C436.262 360.481 426.396 347.943 423.447 332.167C423.393 331.872 422.959 332.003 423.003 332.289Z" fill="#466EB6"/>
<path d="M393.123 333.309C392.771 334.012 391.317 335.918 391.121 338.191C390.739 340.375 391.615 342.927 391.657 342.829C391.791 342.865 389.488 341.393 388.47 338.7C387.275 336.145 387.364 332.367 388.24 331.003C389.664 327.991 392.765 327.291 393.554 328.551C394.386 329.797 393.808 331.724 393.123 333.309Z" fill="#466EB6"/>
<path d="M414.502 354.775C414.237 355.51 413.027 357.569 413.102 359.842C412.983 362.046 414.151 364.468 414.18 364.364C414.317 364.381 411.866 363.199 410.54 360.655C409.057 358.269 408.699 354.521 409.402 353.068C410.457 349.922 413.439 348.859 414.371 350.014C415.333 351.152 414.991 353.124 414.502 354.775Z" fill="#466EB6"/>
<path d="M441.714 365.343C441.166 365.531 439.42 365.784 438.142 366.878C436.814 367.828 435.956 369.621 436.03 369.591C436.081 369.678 435.631 367.718 436.486 365.778C437.177 363.821 439.173 361.882 440.338 361.617C442.64 360.771 444.63 362.001 444.395 363.074C444.189 364.152 442.891 364.864 441.714 365.343Z" fill="#466EB6"/>
<path d="M444.419 371.96C443.871 372.147 442.125 372.4 440.847 373.494C439.518 374.444 438.661 376.237 438.735 376.207C438.786 376.294 438.336 374.334 439.191 372.394C439.882 370.437 441.878 368.498 443.042 368.233C445.345 367.387 447.335 368.617 447.1 369.69C446.891 370.768 445.595 371.48 444.419 371.96Z" fill="#466EB6"/>
<path d="M384.064 347.351C384.52 346.788 385.559 344.843 387.388 343.806C389.071 342.65 391.544 342.409 391.478 342.484C391.559 342.582 389.447 341.218 386.801 341.393C384.204 341.37 381.076 342.889 380.266 344.146C378.288 346.49 378.886 349.356 380.245 349.535C381.606 349.752 383 348.531 384.064 347.351Z" fill="#466EB6"/>
<path d="M397.15 359.433C397.606 358.87 398.645 356.925 400.474 355.889C402.157 354.733 404.63 354.492 404.564 354.566C404.645 354.664 402.533 353.3 399.888 353.476C397.29 353.452 394.162 354.971 393.352 356.228C391.374 358.573 391.973 361.438 393.331 361.62C394.692 361.834 396.083 360.613 397.15 359.433Z" fill="#466EB6"/>
<path d="M420.367 348.602C421.091 348.638 423.278 348.34 425.19 349.213C427.111 349.898 428.762 351.757 428.663 351.748C428.631 351.87 428.497 349.359 426.802 347.321C425.297 345.206 422.229 343.565 420.737 343.645C417.677 343.422 415.708 345.588 416.361 346.794C416.983 348.021 418.788 348.432 420.367 348.602Z" fill="#466EB6"/>
<path d="M424.201 357.875C424.925 357.911 427.112 357.613 429.021 358.486C430.942 359.171 432.593 361.03 432.494 361.021C432.462 361.143 432.328 358.632 430.633 356.595C429.125 354.48 426.06 352.838 424.568 352.919C421.508 352.695 419.539 354.861 420.192 356.067C420.817 357.295 422.622 357.706 424.201 357.875Z" fill="#466EB6"/>
<path d="M413.808 378.052C414.264 377.489 415.303 375.543 417.132 374.507C418.815 373.351 421.288 373.11 421.222 373.184C421.303 373.282 419.191 371.918 416.542 372.094C413.945 372.07 410.817 373.589 410.007 374.846C408.029 377.191 408.628 380.056 409.986 380.238C411.35 380.453 412.744 379.231 413.808 378.052Z" fill="#466EB6"/>
<path d="M376.357 337.321C376.718 337.026 377.629 335.942 378.913 335.534C380.123 335.03 381.707 335.206 381.657 335.242C381.695 335.313 380.549 334.179 378.863 333.94C377.236 333.583 375.067 334.125 374.394 334.804C372.842 336.016 372.839 337.893 373.67 338.185C374.499 338.501 375.532 337.92 376.357 337.321Z" fill="#466EB6"/>
<path d="M379.834 329.71C379.816 330.175 379.497 331.554 379.944 332.826C380.269 334.095 381.362 335.257 381.362 335.194C381.442 335.179 379.846 334.947 378.642 333.744C377.379 332.659 376.509 330.601 376.649 329.654C376.685 327.685 378.183 326.553 378.916 327.041C379.661 327.512 379.816 328.688 379.834 329.71Z" fill="#466EB6"/>
<path d="M791.316 339.963C800.922 370.205 805.295 402.112 804.026 434.423H805.242C806.371 402.758 802.063 370.926 792.477 340.717C790.249 333.696 788.015 325.477 781.461 321.214C781.336 321.131 781.226 321.327 781.345 321.414C787.238 325.644 789.23 333.398 791.316 339.963Z" fill="#466EB6"/>
<path d="M799.755 434.424C788.021 404.358 771.789 375.126 750.505 347.783C750.293 347.509 749.808 347.878 750.022 348.155C770.124 374.405 786.365 403.396 798.25 434.421H799.755V434.424Z" fill="#466EB6"/>
<path d="M794.095 323.553C793.502 324.065 791.435 325.26 790.383 327.276C789.195 329.138 789.019 331.819 789.099 331.745C789.209 331.828 787.657 329.594 787.753 326.725C787.637 323.919 789.168 320.479 790.496 319.561C792.963 317.339 796.082 317.884 796.323 319.347C796.6 320.809 795.331 322.358 794.095 323.553Z" fill="#466EB6"/>
<path d="M783.964 345.531C784.697 345.26 786.743 344.027 789.016 344.077C791.22 343.937 793.654 345.078 793.55 345.111C793.571 345.248 792.364 342.808 789.805 341.506C787.404 340.047 783.654 339.728 782.209 340.446C779.072 341.53 778.042 344.527 779.206 345.444C780.353 346.401 782.322 346.037 783.964 345.531Z" fill="#466EB6"/>
<path d="M787.226 357.229C787.961 356.958 790.005 355.725 792.278 355.775C794.482 355.635 796.916 356.776 796.812 356.809C796.833 356.946 795.626 354.506 793.067 353.204C790.666 351.745 786.916 351.426 785.471 352.144C782.334 353.228 781.304 356.225 782.468 357.142C783.612 358.099 785.581 357.735 787.226 357.229Z" fill="#466EB6"/>
<path d="M759.662 374.944C760.398 374.67 762.441 373.44 764.714 373.491C766.918 373.351 769.349 374.492 769.248 374.524C769.269 374.661 768.062 372.222 765.504 370.92C763.103 369.46 759.352 369.141 757.907 369.859C754.771 370.944 753.74 373.94 754.905 374.858C756.049 375.814 758.018 375.451 759.662 374.944Z" fill="#466EB6"/>
<path d="M751.357 362.451C752.093 362.18 754.136 360.947 756.409 360.997C758.613 360.857 761.047 361.998 760.943 362.031C760.964 362.168 759.757 359.728 757.199 358.426C754.798 356.967 751.047 356.648 749.602 357.366C746.466 358.45 745.435 361.444 746.6 362.365C747.744 363.321 749.716 362.957 751.357 362.451Z" fill="#466EB6"/>
<path d="M799.379 337.217C798.712 337.628 796.484 338.483 795.125 340.309C793.66 341.959 793.064 344.581 793.153 344.518C793.249 344.616 792.069 342.165 792.614 339.35C792.939 336.559 794.994 333.407 796.451 332.707C799.236 330.902 802.23 331.929 802.239 333.413C802.287 334.902 800.791 336.234 799.379 337.217Z" fill="#466EB6"/>
<path d="M805.084 351.021C804.241 351.215 801.471 351.233 799.656 352.814C797.726 354.14 796.752 357.026 796.865 356.994C796.969 357.158 795.787 353.666 796.722 350.521C797.389 347.306 800.172 344.438 801.998 344.256C805.531 343.344 809.04 345.942 808.906 347.732C808.814 349.552 806.88 350.473 805.084 351.021Z" fill="#466EB6"/>
<path d="M809.668 370.839C808.804 370.89 806.07 370.44 804.014 371.694C801.89 372.674 800.443 375.358 800.562 375.343C800.636 375.522 800.058 371.882 801.509 368.939C802.707 365.883 805.933 363.523 807.762 363.651C811.399 363.347 814.42 366.499 813.985 368.242C813.591 370.02 811.53 370.604 809.668 370.839Z" fill="#466EB6"/>
<path d="M779.105 375.597C778.429 375.802 776.177 375.975 774.792 377.366C773.299 378.552 772.671 380.959 772.76 380.923C772.855 381.051 771.694 378.278 772.274 375.665C772.632 373.014 774.735 370.521 776.21 370.27C779.031 369.326 782.033 371.242 782.027 372.707C782.054 374.188 780.532 375.049 779.105 375.597Z" fill="#466EB6"/>
<path d="M777.812 323.538C778.235 323.344 779.391 322.528 780.738 322.457C782.036 322.278 783.523 322.847 783.463 322.871C783.481 322.951 782.662 321.56 781.092 320.902C779.608 320.145 777.374 320.118 776.552 320.607C774.744 321.387 774.264 323.201 774.994 323.696C775.712 324.211 776.862 323.91 777.812 323.538Z" fill="#466EB6"/>
<path d="M783.1 317.056C782.963 317.5 782.307 318.754 782.418 320.097C782.412 321.408 783.174 322.808 783.189 322.745C783.269 322.751 781.783 322.123 780.925 320.654C779.978 319.284 779.656 317.074 780.031 316.192C780.565 314.297 782.301 313.582 782.885 314.238C783.49 314.887 783.344 316.067 783.1 317.056Z" fill="#466EB6"/>
<path d="M746.144 350.592C746.567 350.398 747.723 349.582 749.069 349.511C750.368 349.332 751.857 349.901 751.795 349.925C751.813 350.005 750.993 348.614 749.424 347.956C747.94 347.199 745.706 347.172 744.884 347.661C743.076 348.441 742.599 350.255 743.326 350.75C744.044 351.265 745.194 350.964 746.144 350.592Z" fill="#466EB6"/>
<path d="M752.134 344.232C751.962 344.664 751.205 345.859 751.205 347.208C751.092 348.513 751.735 349.972 751.756 349.91C751.837 349.925 750.407 349.174 749.671 347.64C748.84 346.198 748.7 343.967 749.147 343.121C749.832 341.277 751.622 340.705 752.152 341.408C752.698 342.102 752.456 343.264 752.134 344.232Z" fill="#466EB6"/>
<path d="M489.727 421.349C490.472 421.814 492.364 423.399 493.335 424.382C495.992 427.078 498.399 430.917 499.713 435.252C499.796 435.526 499.823 435.779 500.079 435.94C500.141 435.978 500.234 435.955 500.267 435.889C500.421 435.6 500.293 435.332 500.207 435.028C499.59 432.854 498.321 430.125 496.412 427.468C493.18 422.976 490.782 421.936 489.745 421.322C489.724 421.313 489.709 421.34 489.727 421.349Z" fill="#466EB6"/>
<path d="M487.097 424.027C487.52 423.834 488.676 423.017 490.022 422.946C491.321 422.767 492.807 423.336 492.748 423.36C492.766 423.44 491.944 422.049 490.377 421.391C488.893 420.634 486.659 420.607 485.837 421.096C484.029 421.876 483.549 423.691 484.279 424.185C484.997 424.7 486.147 424.4 487.097 424.027Z" fill="#466EB6"/>
<path d="M492.385 417.545C492.248 417.989 491.592 419.243 491.702 420.587C491.696 421.897 492.459 423.297 492.474 423.235C492.554 423.241 491.068 422.612 490.21 421.144C489.263 419.773 488.941 417.563 489.316 416.681C489.849 414.787 491.586 414.072 492.17 414.727C492.772 415.377 492.626 416.556 492.385 417.545Z" fill="#466EB6"/>
<path d="M312.976 395.787C331.121 401.336 346.825 412.793 361.922 423.922C372.104 431.426 371.249 432.853 373.379 434.086C373.725 434.286 374.172 433.955 374.058 433.565C373.51 431.658 371.431 430.047 370.022 428.742C368.378 427.223 366.626 425.826 364.833 424.491C360.993 421.634 357.007 418.965 353.051 416.272C345.005 410.797 336.775 405.522 327.972 401.336C323.146 399.043 318.16 397.103 313.021 395.638C312.92 395.611 312.881 395.757 312.976 395.787Z" fill="#466EB6"/>
<path d="M330.766 393.213C330.501 393.949 329.292 396.007 329.366 398.28C329.247 400.484 330.415 402.906 330.445 402.802C330.582 402.82 328.13 401.637 326.805 399.093C325.321 396.707 324.964 392.96 325.667 391.506C326.721 388.36 329.703 387.3 330.635 388.453C331.601 389.591 331.255 391.566 330.766 393.213Z" fill="#466EB6"/>
<path d="M345.979 402.156C345.714 402.894 344.505 404.95 344.579 407.223C344.46 409.427 345.628 411.849 345.658 411.744C345.795 411.762 343.343 410.58 342.018 408.036C340.534 405.65 340.177 401.902 340.88 400.449C341.934 397.303 344.916 396.242 345.848 397.395C346.814 398.536 346.471 400.508 345.979 402.156Z" fill="#466EB6"/>
<path d="M361.163 412.698C360.898 413.434 359.688 415.492 359.763 417.765C359.644 419.969 360.811 422.391 360.841 422.287C360.978 422.305 358.527 421.122 357.201 418.578C355.718 416.192 355.36 412.445 356.063 410.991C357.118 407.845 360.099 406.785 361.032 407.937C361.997 409.078 361.651 411.05 361.163 412.698Z" fill="#466EB6"/>
<path d="M322.997 407.538C323.453 406.975 324.493 405.03 326.322 403.993C328.005 402.841 330.477 402.596 330.412 402.671C330.492 402.769 328.38 401.405 325.732 401.58C323.134 401.557 320.007 403.076 319.196 404.333C317.218 406.677 317.817 409.546 319.176 409.722C320.54 409.939 321.931 408.718 322.997 407.538Z" fill="#466EB6"/>
<path d="M338.836 416.773C339.292 416.21 340.332 414.265 342.161 413.228C343.844 412.072 346.316 411.831 346.251 411.905C346.331 412.004 344.219 410.636 341.574 410.815C338.976 410.791 335.848 412.313 335.038 413.567C333.06 415.912 333.659 418.778 335.017 418.956C336.379 419.171 337.77 417.952 338.836 416.773Z" fill="#466EB6"/>
<path d="M311.24 398.897C311.6 398.602 312.512 397.517 313.796 397.109C315.005 396.606 316.59 396.779 316.539 396.817C316.578 396.889 315.431 395.754 313.745 395.516C312.119 395.158 309.95 395.7 309.277 396.379C307.725 397.592 307.722 399.468 308.553 399.76C309.381 400.079 310.418 399.498 311.24 398.897Z" fill="#466EB6"/>
<path d="M314.716 391.286C314.698 391.75 314.38 393.129 314.826 394.401C315.151 395.67 316.244 396.832 316.241 396.77C316.322 396.755 314.725 396.522 313.522 395.319C312.259 394.235 311.389 392.176 311.529 391.229C311.565 389.26 313.063 388.128 313.796 388.616C314.543 389.09 314.701 390.267 314.716 391.286Z" fill="#466EB6"/>
<path d="M113.281 138.854C106.227 140.742 105.05 167.936 105.05 167.936L82.6877 165.372C82.6877 165.372 86.7628 137.013 98.574 125.163C110.385 113.313 140.231 120.557 151.58 127.936C162.927 135.315 158.006 144.713 158.006 144.713C158.006 144.713 120.338 136.968 113.281 138.854Z" fill="#13375B"/>
<path d="M90.8051 161.496C89.6344 187.323 82.3957 189.611 82.2527 189.971C82.1008 189.998 76.3188 194.445 69.9202 188.565L72.0471 186.408C72.9616 187.341 74.3557 188.181 75.6873 188.559C78.6602 189.334 80.5845 187.85 80.8199 187.782C80.9778 187.657 82.497 186.739 83.2566 185.485C86.9712 180.519 88.7407 167.615 89.2441 161.445L90.8051 161.496Z" fill="#355389"/>
<path d="M165.98 142.616C165.98 142.616 162.843 154.925 162.483 164.925C162.125 174.928 155.229 183.272 154.333 208.303C153.436 233.338 149.858 256.349 149.858 256.349C149.858 256.349 122.08 258.283 116.611 252.387C111.142 246.492 113.513 192.902 118.92 166.852C124.326 140.799 100.552 133.694 112.905 125.16C125.259 116.625 141.324 122.407 148.125 124.725C154.928 127.045 166.177 137.096 165.98 142.616Z" fill="#184655"/>
<path d="M120.111 163.322C120.111 163.322 116.832 183.31 119.298 203.555C121.765 223.799 117.838 263.74 117.838 263.74C117.838 263.74 97.1441 278.188 91.0642 266.716C89.9233 264.562 87.1917 238.977 86.9445 228.279C86.6823 216.918 88.2462 177.236 88.7735 164.377C88.8837 161.681 89.682 159.059 91.0911 156.76C95.613 149.375 105.991 133.03 109.602 132.464C114.311 131.731 122.584 141.916 120.111 163.322Z" fill="#F7CC7F"/>
<path d="M88.2313 178.184C91.1417 181.02 109.638 198.809 118.923 200.093C118.815 198.961 118.72 197.832 118.64 196.715C111.38 195.55 95.0232 180.477 88.3922 174.049C88.3386 175.369 88.2849 176.751 88.2313 178.184Z" fill="#13375B"/>
<path d="M120.061 225.992C120.081 224.881 120.096 223.772 120.102 222.673C114.493 225.077 94.755 223.543 86.9295 222.673C86.9206 223.829 86.9146 224.895 86.9176 225.858C94.0907 226.656 113.37 228.765 120.061 225.992Z" fill="#13375B"/>
<path d="M88.7914 251.836C88.9076 252.882 89.0237 253.907 89.1399 254.899C96.9386 256.463 111.964 249.802 119.173 246.671C119.247 245.488 119.322 244.27 119.393 243.022C112.691 245.932 95.6488 253.126 88.7914 251.836Z" fill="#13375B"/>
<path d="M88.3385 247.499C91.8059 248.953 113.376 258.208 118.303 258.524C118.38 257.612 118.461 256.597 118.547 255.491C115.077 255.17 98.6544 248.303 87.99 243.856C88.1002 245.071 88.2164 246.29 88.3385 247.499Z" fill="#13375B"/>
<path d="M109.436 256.534H116.359C118.855 256.534 120.88 254.508 120.88 252.012V211.41C120.88 208.914 118.855 206.888 116.359 206.888H109.436C106.939 206.888 104.914 208.914 104.914 211.41V252.012C104.914 254.508 106.936 256.534 109.436 256.534Z" fill="#50BFA5"/>
<path d="M120.88 221.669H104.913V225.012H120.88V221.669Z" fill="#13375B"/>
<path d="M108.1 396.291C108.1 396.291 100.707 403.08 100.689 403.092C99.6524 403.858 96.8731 405.538 96.0658 406.366C93.0363 409.482 112.456 417.251 110.701 412.836C110.543 412.437 110.245 408.922 111.184 407.772C112.631 405.999 115.235 403.473 115.235 403.473L108.1 396.291Z" fill="#F7A491"/>
<path d="M110.695 412.776C110.695 412.776 106.525 410.554 104.63 409.166C102.736 407.778 102.497 403.625 100.796 403.017C98.9225 402.347 91.0494 410.399 91.0494 410.399C91.0494 410.399 106.438 427.122 114.49 432.696C116.224 433.896 118.327 433.515 119.069 433.527C121.916 433.575 115.169 421.489 110.695 412.776Z" fill="#184655"/>
<path d="M201.226 409.458C201.226 409.458 203.523 420.575 203.526 420.599C203.669 422.049 203.69 425.725 204.023 426.988C205.286 431.737 224.006 417.316 218.727 416.476C218.25 416.399 215.873 415.445 215.057 413.98C213.636 411.43 212.29 406.658 212.29 406.658L201.226 409.458Z" fill="#F7A491"/>
<path d="M218.664 416.443C218.664 416.443 214.107 419.22 211.673 420.262C209.239 421.305 204.783 418.412 203.213 419.72C201.485 421.156 204.3 433.891 204.3 433.891C204.3 433.891 236.32 425.401 243.133 420.995C245.829 419.246 229.668 417.119 218.664 416.443Z" fill="#184655"/>
<path d="M223.654 249.176C218.545 246.924 218.331 247.86 217.684 247.553C216.919 247.192 211.277 237.58 211.277 237.58C211.277 237.58 194.449 209.364 193.597 207.809L190.246 173.808L172.423 171.234C172.423 171.234 177.082 208.092 177.672 209.965C178.262 211.839 205.656 247.234 207.961 250.428C207.961 250.428 209.233 255.28 210.136 258.298C211.039 261.315 213.288 263.737 213.675 264.544C213.731 264.664 215.194 267.27 217.884 269.984C220.205 272.322 219.138 269.028 219.138 269.028C219.138 269.028 215.665 263.916 216.135 263.701C216.499 263.538 218.221 266.445 220.759 269.057C221.411 269.731 222.057 270.389 222.656 270.994C224.229 272.576 225.706 272.048 224.339 270.13C223.857 269.451 223.026 268.346 222.317 267.642C221.551 266.883 221.107 265.936 220.565 265.197C219.493 263.731 218.691 262.677 218.778 262.665C218.891 262.647 218.894 262.203 219.609 262.894C220.47 263.725 221.885 265.9 223.252 267.026C224.026 267.663 225.561 269.093 225.561 269.093C225.561 269.093 228.307 270.818 228.471 270.69C229.353 270.005 227.836 268.298 226.663 267.571C226.174 266.725 224.515 265.265 224.515 265.265C224.515 265.265 221.867 261.557 222.412 261.163C222.644 260.997 224.554 263.07 226.764 264.807C228.816 266.418 231.17 267.708 231.575 267.351C232.257 266.74 230.184 264.708 230.184 264.708C230.184 264.708 228.65 263.362 228.176 262.876C227.622 262.307 226.1 260.469 226.1 260.469C226.1 260.469 221.113 253.826 221.661 253.499C222.209 253.168 223.94 252.858 224.399 253.162C224.858 253.463 225.385 254.458 225.844 254.762C226.302 255.063 227.181 255.063 227.625 254.529C228.069 253.993 226.454 251.685 226.454 251.685C226.454 251.685 225.129 249.826 223.654 249.176Z" fill="#F8A492"/>
<path d="M173.889 142.699C187.687 145.985 191.163 176.778 191.997 180.755C187.425 182.36 181.997 183.984 177.303 185.351L171.685 142.077C171.688 142.08 172.465 142.363 173.889 142.699Z" fill="#3C8F7C"/>
<path d="M183.993 256.945L203.836 336.264L216.383 413.077L200.761 415.183C200.761 415.183 178.756 356.44 178.146 349.681C177.532 342.922 166.489 311.316 166.489 311.316L183.993 256.945Z" fill="#355389"/>
<path d="M137.681 247.764C137.681 247.764 139.167 323.818 137.943 330.884C136.719 337.953 103.474 398.251 103.474 398.251L114.666 410.417C114.666 410.417 162.233 355.266 164.327 350.401C167.612 342.776 183.838 256.79 183.838 256.79L137.681 247.764Z" fill="#13375B"/>
<path d="M155.909 142.518C155.909 142.518 147.481 141.746 144.112 149.736C140.743 157.725 137.374 196.137 138.905 214.577C140.436 233.013 133.975 258.533 133.975 258.533C163.353 273.74 184.232 257.291 184.232 257.291C184.232 257.291 191.989 186.736 189.132 173.707C183.162 146.471 171.685 142.083 171.685 142.083L155.909 142.518Z" fill="#74A67E"/>
<path d="M132.569 269.582C129.388 264.392 128.673 265.131 128.282 264.455C127.821 263.654 128.333 251.306 128.333 251.306C128.333 251.306 129.608 214.898 129.745 212.935L146.042 179.325L131.955 166.131C131.955 166.131 115.181 203.191 114.639 205.289C114.094 207.386 117.972 256.865 118.178 261.232C118.178 261.232 116.546 266.51 115.625 269.862C114.708 273.213 115.297 276.826 115.181 277.809C115.163 277.955 114.964 281.262 115.777 285.411C116.477 288.989 117.409 285.283 117.409 285.283C117.409 285.283 117.272 278.429 117.8 278.518C118.208 278.587 118.068 282.331 118.804 286.296C118.991 287.315 119.182 288.322 119.364 289.245C119.84 291.667 121.428 292.075 121.321 289.463C121.282 288.539 121.184 287.011 120.963 285.927C120.725 284.756 120.874 283.609 120.82 282.596C120.713 280.586 120.609 279.12 120.692 279.162C120.799 279.215 121.056 278.804 121.288 279.88C121.568 281.172 121.571 284.053 122.128 285.924C122.444 286.984 122.971 289.242 122.971 289.242C122.971 289.242 124.392 292.51 124.603 292.489C125.759 292.388 125.402 289.883 124.791 288.498C124.842 287.416 124.222 285.054 124.222 285.054C124.222 285.054 124.011 280.005 124.708 279.972C125.006 279.957 125.497 283.043 126.444 285.995C127.323 288.736 128.646 291.363 129.2 291.274C130.141 291.122 129.48 287.976 129.48 287.976C129.48 287.976 128.902 285.796 128.765 285.057C128.604 284.19 128.315 281.563 128.315 281.563C128.315 281.563 127.722 272.373 128.387 272.397C129.051 272.423 130.734 273.183 130.963 273.743C131.193 274.3 131.091 275.545 131.321 276.102C131.55 276.659 132.316 277.193 133.004 276.966C133.692 276.737 133.591 273.615 133.591 273.615C133.591 273.615 133.486 271.08 132.569 269.582Z" fill="#F8A492"/>
<path d="M125.014 175.971L143.481 190.296C143.481 190.296 151.634 182.521 155.73 173.921C159.876 165.217 154.827 142.276 150.415 143.456C140.546 146.095 125.014 175.971 125.014 175.971Z" fill="#3C8F7C"/>
<path d="M159.435 125.458L156.671 143.671C156.671 143.671 166.763 165.357 172.787 163.474C177.842 161.895 174.732 142.708 174.732 142.708C174.732 142.708 171.977 132.404 172.802 127.248C173.63 122.095 159.435 125.458 159.435 125.458Z" fill="#F7A491"/>
<path d="M172.805 127.251C173.63 122.095 159.435 125.461 159.435 125.461L159.206 126.971C159.62 127.981 160.13 128.848 160.746 129.509C163.916 132.92 168.873 134.969 173.156 135.124C172.727 132.345 172.465 129.363 172.805 127.251Z" fill="#F47458"/>
<path d="M157.106 99.6934C156.704 99.5475 153.892 120.435 159.23 126.185C164.571 131.931 174.976 133.813 178.709 129.286C182.837 124.278 182.629 101.829 174.327 95.9162C166.025 90.0031 157.106 99.6934 157.106 99.6934Z" fill="#F7A491"/>
<path d="M171.169 84.7424C164.75 86.0501 160.594 89.9733 159.066 91.6444C156.153 91.99 152.191 93.5986 148.101 100.373C143.072 108.701 146.784 117.927 152.641 122.452C158.494 126.98 158.414 132.208 158.414 132.208L159.34 129.503C160.022 127.454 160.302 125.282 160.073 123.131C159.936 121.841 159.659 120.447 159.126 119.3C157.717 116.277 162.149 114.269 163.394 111.755C164.351 109.819 164.398 105.389 165.906 102.187L167.708 99.744C167.708 99.744 171.863 96.5119 175.927 97.4235C179.99 98.335 179.403 83.0623 171.169 84.7424Z" fill="#184655"/>
<path d="M163.117 115.473C163.159 118.022 162 120.108 160.529 120.131C159.057 120.155 157.83 118.112 157.788 115.562C157.746 113.012 158.905 110.927 160.377 110.903C161.848 110.879 163.076 112.926 163.117 115.473Z" fill="#F7A491"/>
<path d="M166.448 181.133C166.832 165.264 165.849 143.453 150.713 137.266C145.307 134.996 138.702 137.549 133.692 139.411C139.837 138.553 145.634 140.921 148.628 142.598C161.086 148.895 160.99 166.941 160.538 180.993C159.403 216.328 132.325 212.584 132.325 212.584L131.693 214.937C131.693 214.937 141.866 218.276 154.842 211.872C165.191 206.769 166.448 181.133 166.448 181.133Z" fill="#184655"/>
<path d="M664.566 297.425C664.566 297.425 656.205 338.525 660.018 342.341C663.831 346.154 684.933 353.937 689.723 352.156C694.513 350.378 704.37 303.422 701.633 298.766C698.895 294.11 666.786 290.884 664.566 297.425Z" fill="#466EB6"/>
<path d="M667.959 419.452C667.959 419.452 668.507 424.17 668.507 424.972C668.507 425.773 668.507 425.773 668.507 425.773L668.114 426.589L667.959 426.911L670.783 430.873C670.783 430.873 682.118 431.043 682.371 431.043C682.624 431.043 680.855 428.302 680.855 428.302C680.855 428.302 677.104 425.478 676.431 423.497C675.758 421.516 677.003 417.388 677.003 417.388L667.959 419.452Z" fill="#F7A491"/>
<path d="M613.318 391.212C613.318 391.212 609.281 393.717 608.653 394.215C608.027 394.712 608.027 394.712 608.027 394.712L607.634 395.526L607.479 395.847L602.621 396.098C602.621 396.098 595.441 387.325 595.284 387.125C595.126 386.926 597.348 387.423 597.348 387.423C597.348 387.423 601.879 388.037 603.851 387.334C605.823 386.631 609.809 382.704 609.809 382.704L613.318 391.212Z" fill="#F7A491"/>
<path d="M650.009 346.931L606.52 383.97L613.22 393.452C613.22 393.452 655.895 366.636 658.233 366.318C660.572 366.002 664.245 366.827 664.686 368.534C665.129 370.241 666.491 420.766 666.491 420.766H678.102L684.155 356.297L650.009 346.931Z" fill="#B75742"/>
<path d="M712.66 294.104C715.877 291.995 723.435 283.883 725.997 281.122C726.023 280.797 726.268 278.92 728.326 276.537C729.78 274.854 730.882 271.011 731.835 272.102C732.789 273.192 730.423 276.242 731.505 276.263C732.589 276.284 737.966 270.24 738.83 271.226C739.694 272.212 734.233 277.586 735.201 277.604C736.17 277.622 740.602 272.179 741.826 273.576C743.048 274.97 736.018 279.495 736.673 280.243C737.328 280.991 741.686 278.027 742.67 279.15C743.653 280.273 736.524 282.918 737.093 282.93C737.665 282.942 741.776 282.829 741.809 283.621C741.844 284.515 731.4 285.909 730.122 287.461C727.394 291.804 722.538 299.74 717.62 303.222C711.603 307.482 697.694 316.517 697.694 316.517L690.786 307.592C690.786 307.586 708.844 296.603 712.66 294.104Z" fill="#F7A491"/>
<path d="M731.505 278.182C731.773 278.709 731.886 279.281 731.925 279.859C731.904 279.951 732.157 281.819 730.566 283.237C731.189 282.084 731.871 280.8 731.505 278.182Z" fill="#F48C7F"/>
<path d="M648.906 284.339C646.353 281.461 641.179 271.658 639.431 268.322C639.49 268 639.743 266.126 638.379 263.287C637.417 261.282 637.357 257.285 636.154 258.086C634.947 258.887 636.434 262.453 635.382 262.188C634.331 261.923 630.72 254.684 629.63 255.411C628.537 256.138 632.403 262.751 631.462 262.516C630.521 262.28 627.667 255.867 626.121 256.895C624.578 257.922 630.181 264.127 629.353 264.678C628.525 265.229 625.093 261.226 623.851 262.054C622.609 262.882 628.799 267.3 628.245 267.16C627.691 267.02 623.75 265.837 623.514 266.594C623.246 267.449 632.96 271.524 633.789 273.356C635.287 278.262 637.899 287.19 641.736 291.837C646.431 297.521 657.491 309.88 657.491 309.88L666.494 303.073C666.494 303.073 651.936 287.75 648.906 284.339Z" fill="#F7A491"/>
<path d="M634.879 264.044C634.483 264.485 634.22 265.006 634.036 265.554C634.033 265.65 633.297 267.383 634.465 269.168C634.167 267.893 633.842 266.478 634.879 264.044Z" fill="#F48C7F"/>
<path d="M656.202 290.928L648.084 301.518L658.162 316.511C658.162 316.511 657.215 327.652 655.761 331.128C654.307 334.605 645.901 348.888 645.901 348.888C645.901 348.888 666.318 361.402 686.291 359.57C686.291 359.57 691.916 330.622 693.497 327.839C695.076 325.057 710.31 311.28 710.31 311.28L702.913 299.332L690.146 306.412C690.146 306.412 666.81 302.641 665.684 301.518C664.56 300.395 656.202 290.928 656.202 290.928Z" fill="#F7CC7F"/>
<path d="M682.538 269.269C682.538 269.269 674.659 265.098 671.96 272.006C671.96 272.006 664.879 271.292 666.103 278.623C666.103 278.623 658.981 282.203 663.491 291.432C663.491 291.432 661.51 300.112 671.665 300.66C671.665 300.66 673.181 303.737 677.816 303.02C682.451 302.302 683.631 301.08 683.631 301.08C683.631 301.08 691.847 303.481 694.334 296.067C694.334 296.067 699.982 294.717 696.187 287.47C696.187 287.47 701.117 278.074 692.437 275.25C692.44 275.253 691.43 265.644 682.538 269.269Z" fill="#F47458"/>
<path d="M685.722 289.626C685.082 291.414 685.541 293.213 686.75 293.645C687.956 294.077 689.455 292.981 690.095 291.193C690.736 289.406 690.277 287.607 689.068 287.175C687.861 286.743 686.363 287.839 685.722 289.626Z" fill="#F7A491"/>
<path d="M664.468 285.239C664.379 287.133 665.344 288.721 666.625 288.781C667.906 288.84 669.017 287.354 669.106 285.456C669.195 283.562 668.23 281.974 666.949 281.914C665.668 281.855 664.557 283.344 664.468 285.239Z" fill="#F7A491"/>
<path d="M673.479 297.798C673.479 297.923 672.454 302.322 671.912 304.646C671.71 305.513 672.148 306.401 672.958 306.77C675.124 307.759 679.386 309.141 682.329 306.472C682.598 306.228 682.74 305.876 682.729 305.516L682.368 295.015L673.479 297.798Z" fill="#F7A491"/>
<path d="M672.931 300.261C675.225 301.417 678.108 301.441 681.343 299.543C681.751 299.302 682.139 299.049 682.502 298.778L682.374 295.015L673.482 297.798C673.479 297.857 673.238 298.918 672.931 300.261Z" fill="#F48C7F"/>
<path d="M679.782 273.552C679.782 273.552 683.664 274.577 685.943 278.354C688.225 282.129 689.482 293.043 681.34 297.818C673.199 302.593 667.274 295.2 667.426 288.206C667.581 281.211 670.691 272.271 679.782 273.552Z" fill="#F7A491"/>
<path d="M665.895 433.771C664.164 433.551 667.155 427.548 668.114 426.589L680.852 428.302C680.852 428.302 686.982 431.147 688.436 432.601C688.782 432.946 688.826 433.548 687.331 433.771C682.523 434.486 669.735 434.257 665.895 433.771Z" fill="#466EB6"/>
<path d="M603.264 401.826C604.759 402.726 607.479 396.878 607.634 395.526L597.348 387.426C597.348 387.426 589.412 385.15 587.81 386.753C586.356 388.207 599.868 399.785 603.264 401.826Z" fill="#466EB6"/>
<path d="M689.526 347.872C681.314 339.66 682.943 314.426 684.447 303.764L687.971 304.259C686.702 313.288 684.963 338.271 692.044 345.352L689.526 347.872Z" fill="#466EB6"/>
<path d="M654.48 333.735L654.081 330.535C660.465 312.483 666.309 300.833 666.369 300.717L669.547 302.319C669.491 302.433 662.755 318.343 654.48 333.735Z" fill="#466EB6"/>
<path d="M532.048 303.192C532.048 303.192 518.038 301.333 512.93 303.979C507.818 306.624 505.021 338.099 505.021 338.099L509.561 339.478C509.561 339.478 508.914 361.274 512.382 362.788C515.849 364.301 540.216 359.603 545.772 354.048C551.327 348.492 540.869 302.033 540.869 302.033L532.048 303.192Z" fill="#3C8F7C"/>
<path d="M559.704 280.967C561.337 277.303 563.389 265.927 564.077 262.063C563.919 261.762 563.073 259.981 563.535 256.728C563.86 254.431 562.659 250.442 564.11 250.859C565.561 251.276 565.206 255.286 566.168 254.693C567.13 254.1 568.435 245.766 569.752 246.144C571.066 246.522 569.308 254.312 570.169 253.782C571.03 253.251 571.846 245.98 573.705 246.513C575.564 247.046 571.947 254.979 572.945 255.268C573.943 255.554 576.091 250.496 577.586 250.925C579.082 251.354 574.321 257.696 574.828 257.383C575.334 257.07 578.879 254.654 579.353 255.331C579.889 256.096 571.518 263.207 571.271 265.289C571.328 270.636 571.545 280.332 569.198 286.159C566.323 293.288 559.224 309.055 559.224 309.055L548.134 305.126C548.128 305.126 557.768 285.31 559.704 280.967Z" fill="#F7A491"/>
<path d="M567.25 256.376C567.783 256.689 568.206 257.124 568.563 257.609C568.599 257.702 569.874 259.197 569.278 261.336C569.171 259.978 569.046 258.467 567.25 256.376Z" fill="#F48C7F"/>
<path d="M488.697 306.019C488.697 306.019 489.185 304.22 487.967 301.226C487.186 299.308 487.288 295.578 486.182 296.263C485.074 296.949 486.263 300.347 485.333 300.047C484.404 299.746 481.464 292.811 480.46 293.433C479.456 294.053 482.649 300.419 481.818 300.151C480.987 299.883 478.691 293.758 477.27 294.637C475.852 295.516 480.612 301.587 479.852 302.057C479.09 302.528 476.185 298.623 475.041 299.329C473.9 300.035 479.254 304.473 478.765 304.315C478.276 304.157 474.803 302.853 474.562 303.544C474.291 304.327 481.497 307.482 482.167 309.23C482.837 310.979 493.883 328.897 497.547 329.299C501.211 329.701 518.864 320.336 520.448 316.841C522.033 313.347 520.955 309.347 518.613 308.59C516.269 307.83 499.739 317.226 499 316.987C498.265 316.752 488.697 306.019 488.697 306.019Z" fill="#F7A491"/>
<path d="M485.488 301.307C485.074 301.762 484.8 302.308 484.601 302.876C484.595 302.975 483.823 304.78 485.03 306.648C484.726 305.316 484.395 303.839 485.488 301.307Z" fill="#F48C7F"/>
<path d="M503.689 389.586C501.792 388.927 498.36 385.457 498.36 385.457C493.957 388.859 484.833 399.473 484.833 399.473C484.833 399.473 486.537 400.646 487.994 399.985C489.45 399.324 496.147 396.327 499.26 397.408C500.07 397.691 509.153 400.771 517.204 402.845C518.196 399.958 515.474 394.185 516.817 391.474C512.519 390.08 504.318 389.803 503.689 389.586Z" fill="#F7A491"/>
<path d="M501.494 388.245C501.494 388.245 493.597 396.318 492.825 397.751C492.197 398.918 482.396 402.925 481.905 401.427C481.413 399.928 493.564 383.887 495.483 383.3C497.398 382.71 501.494 388.245 501.494 388.245Z" fill="#07345A"/>
<path d="M552.647 413.05C551.986 414.888 548.426 418.236 548.426 418.236C552.001 422.443 563.109 431.129 563.109 431.129C563.109 431.129 564.306 429.473 563.606 428.076C562.906 426.679 559.355 417.992 560.44 414.978C560.723 414.191 562.796 408.344 564.744 405.04C561.739 404.117 558.792 402.696 555.968 401.43C554.565 405.585 552.864 412.442 552.647 413.05Z" fill="#F7A491"/>
<path d="M551.405 350.473C551.405 350.473 571.956 370.765 574.05 374.679C575.614 377.605 566.13 407.679 566.13 407.679C566.13 407.679 557.214 407 553.484 403.405C553.484 403.405 558.203 382.421 557.223 381.477C556.243 380.533 532.76 366.91 532.76 366.91L535.676 354.474L551.405 350.473Z" fill="#B75742"/>
<path d="M546.874 349.94C546.874 349.94 541.509 362.394 541.509 367.253C541.509 370.974 543.153 400.783 535.298 403.658C530.842 405.29 509.85 402.883 509.85 402.883L511.75 389.386C511.75 389.386 521.744 390.87 522.623 390.024C523.502 389.178 514.619 366.699 516.472 358.987C518.325 351.274 533.731 346.571 533.731 346.571L546.874 349.94Z" fill="#F47458"/>
<path d="M553.532 292.06C553.532 292.06 556.037 292.811 563.749 303.294L551.366 322.868L543.821 304.676L553.532 292.06Z" fill="#9BC1F9"/>
<path d="M535.483 304.857C535.483 304.857 542.319 304.086 544.78 303.192C547.243 302.299 563.398 355.612 557.747 356.824C545.945 359.359 515.289 366.112 515.289 366.112C515.289 366.112 514.756 363.065 516.409 357.804C519.272 348.692 520.892 327.842 520.892 324.167C520.892 322.007 509.707 329.493 509.707 329.493L505.021 312.555C505.021 312.555 519.301 306.821 524.303 305.787C525.7 305.501 535.483 304.857 535.483 304.857Z" fill="#9BC1F9"/>
<path d="M556.776 339.082C554.98 330.38 539.686 304.268 539.555 304.02L542.695 302.34C543.243 303.365 555.62 325.441 557.521 334.646L556.776 339.082Z" fill="#3C8F7C"/>
<path d="M551.42 415.007C551.42 415.007 560.327 423.134 561.941 423.92C563.255 424.561 566.293 434.176 564.622 434.707C562.951 435.237 546.415 423.318 545.736 421.328C545.057 419.339 551.42 415.007 551.42 415.007Z" fill="#07345A"/>
<path d="M516.287 350.518L514.684 347.968C514.821 347.881 528.348 339.246 529.874 328.227C531.414 317.092 523.567 305.397 523.487 305.278L525.974 303.583C526.326 304.098 534.556 316.341 532.855 328.641C531.137 341.057 516.892 350.136 516.287 350.518Z" fill="#3C8F7C"/>
<path d="M535.674 269.212C535.674 269.212 541.08 267.252 544.577 272.73C548.072 278.209 546.183 277.69 547.884 280.428C549.585 283.168 554.023 282.599 554.023 286.85C554.023 291.101 552.039 291.762 552.039 291.762C552.039 291.762 553.836 295.069 551.852 298.468C549.868 301.87 544.923 304.798 540.782 304.324C540.782 304.324 534.565 307.732 528.331 306.124C522.096 304.515 524.267 304.515 521.717 304.515C519.168 304.515 512.271 301.021 513.403 295.918C513.403 295.918 509.2 290.925 513.278 286.85C517.356 282.772 518.125 278.631 520.487 273.153C522.849 267.678 532.838 267.89 535.674 269.212Z" fill="#184655"/>
<path d="M539.287 298.375C539.287 298.375 539.061 305.897 539.767 306.603C540.473 307.309 541.459 308.48 540.422 310.276C539.382 312.072 534.872 310.925 532.769 309.898C530.752 308.912 529.451 307.077 529.451 307.077L530.502 295.161L539.287 298.375Z" fill="#F7A491"/>
<path d="M536.287 301.494C534.839 300.988 532.307 300.008 530.353 296.835L530.499 295.167L539.284 298.378C539.284 298.378 539.227 300.213 539.257 302.156C538.03 302.105 536.978 301.736 536.287 301.494Z" fill="#B75742"/>
<path d="M528.953 286.657C528.953 286.657 528.739 282.233 526.025 283.094C523.308 283.952 525.378 290.627 527.63 290.407C529.882 290.189 528.953 286.657 528.953 286.657Z" fill="#F7A491"/>
<path d="M537.491 272.212C537.491 272.212 541.741 272.117 543.913 275.423C546.085 278.73 548.447 288.176 544.857 294.694C541.268 301.211 536.686 299.606 534.798 298.944C532.909 298.283 529.176 296.82 527.288 290.726C525.399 284.634 526.77 270.937 537.491 272.212Z" fill="#F7A491"/>
<path d="M405.699 273.106C403.915 271.566 402.556 266.731 402.902 266.382C403.352 265.927 405.017 266.251 405.544 266.454C406.071 266.653 406.709 266.838 407.236 267.041C407.763 267.24 408.347 267.017 408.645 266.376C408.943 265.739 407.013 264.482 406.262 264.178C403.915 263.237 397.135 261.985 396.423 261.822C395.58 261.628 385.925 249.864 382.297 246.099C382.297 246.099 382.297 246.099 382.3 246.099C376.545 239.754 370.945 232.944 370.34 232.271L354.573 199.146L340.185 200.201C340.185 200.201 357.164 237.207 358.225 238.962C358.728 239.796 373.209 253.466 373.214 253.46C380.769 259.742 387.442 265.256 388.693 266.356C388.693 266.356 390.027 271.25 391.686 274.086C392.75 275.9 405.374 273.347 405.699 273.106Z" fill="#F48C7F"/>
<path d="M347.668 173.51C347.668 173.51 358.761 171.556 364.275 211.902L345.419 217.159L337.572 195.84L347.668 173.51Z" fill="#F47458"/>
<path d="M369.717 305.117V326.04C369.717 330.089 373 333.371 377.048 333.371H422.893C426.942 333.371 430.224 330.089 430.224 326.04V305.117H369.717Z" fill="#B75742"/>
<path d="M427.716 328.06L430.218 326.088C430.218 326.073 430.218 326.055 430.218 326.04V324.73L426.849 327.387L423.248 324.578L426.834 321.751L430.218 324.39V323.038L427.698 321.072L430.218 319.085V317.726L426.831 320.395L423.23 317.586L426.816 314.759L430.218 317.413V316.061L427.68 314.08L430.218 312.078V310.72L426.813 313.404L423.212 310.595L426.798 307.768L430.215 310.434V309.082L427.659 307.089L430.156 305.12H428.434L426.793 306.412L425.136 305.12H423.403L425.932 307.092L422.345 309.919L418.744 307.11L421.27 305.12H419.548L417.88 306.433L416.194 305.12H414.46L417.016 307.115L413.429 309.942L409.828 307.133L412.381 305.123H410.659L408.964 306.46L407.251 305.123H405.517L408.1 307.139L404.514 309.966L400.912 307.157L403.492 305.123H401.77L400.048 306.481L398.309 305.123H396.575L399.187 307.16L395.601 309.987L391.999 307.178L394.606 305.123H392.884L391.132 306.502L389.363 305.123H387.629L390.269 307.184L386.682 310.011L383.081 307.202L385.717 305.126H383.995L382.217 306.529L380.42 305.126H378.687L381.353 307.208L377.766 310.035L374.165 307.226L376.828 305.126H375.106L373.301 306.549L371.478 305.126H369.744L372.44 307.229L369.711 309.379V312.078L372.458 314.22L369.711 316.383V319.055L372.473 321.212L369.711 323.389V326.034L372.491 328.203L370.659 329.648C370.834 329.96 371.034 330.255 371.251 330.538L373.357 328.879L376.959 331.688L375.136 333.124C375.595 333.246 376.071 333.327 376.56 333.359L377.823 332.364L379.122 333.377H380.855L378.687 331.685L382.273 328.858L385.875 331.667L383.706 333.377H385.428L386.742 332.344L388.067 333.377H389.801L387.602 331.661L391.189 328.834L394.79 331.644L392.592 333.374H394.314L395.654 332.317L397.01 333.374H398.743L396.518 331.638L400.105 328.811L403.706 331.62L401.481 333.374H403.203L404.57 332.296L405.952 333.374H407.686L405.434 331.617L409.021 328.79L412.622 331.599L410.37 333.374H412.092L413.489 332.275L414.898 333.374H416.632L414.35 331.596L417.936 328.769L421.538 331.578L419.256 333.374H420.978L422.402 332.251L423.769 333.318C424.237 333.261 424.689 333.163 425.124 333.023L423.263 331.569L426.849 328.742L428.848 330.303C429.056 330.014 429.241 329.707 429.408 329.386L427.716 328.06ZM425.97 321.072L422.384 323.898L418.782 321.089L422.369 318.262L425.97 321.072ZM378.657 317.693L382.243 314.867L385.845 317.676L382.258 320.503L378.657 317.693ZM381.394 321.182L377.808 324.009L374.206 321.2L377.793 318.373L381.394 321.182ZM386.709 318.349L390.31 321.158L386.724 323.985L383.122 321.176L386.709 318.349ZM387.573 317.67L391.159 314.843L394.761 317.652L391.174 320.479L387.573 317.67ZM395.625 318.328L399.226 321.137L395.639 323.964L392.038 321.155L395.625 318.328ZM396.488 317.649L400.075 314.822L403.676 317.631L400.09 320.458L396.488 317.649ZM404.54 318.307L408.142 321.116L404.555 323.943L400.954 321.134L404.54 318.307ZM405.401 317.628L408.988 314.801L412.589 317.61L409.003 320.437L405.401 317.628ZM413.456 318.286L417.058 321.095L413.471 323.922L409.87 321.113L413.456 318.286ZM414.317 317.604L417.904 314.777L421.505 317.586L417.918 320.413L414.317 317.604ZM422.354 311.271L425.955 314.08L422.369 316.907L418.767 314.098L422.354 311.271ZM417.889 307.786L421.49 310.595L417.904 313.422L414.302 310.613L417.889 307.786ZM413.438 311.292L417.04 314.101L413.453 316.928L409.852 314.119L413.438 311.292ZM408.973 307.807L412.574 310.616L408.988 313.443L405.386 310.634L408.973 307.807ZM404.522 311.316L408.124 314.125L404.537 316.952L400.936 314.143L404.522 311.316ZM400.057 307.83L403.659 310.639L400.072 313.466L396.471 310.657L400.057 307.83ZM395.607 311.337L399.208 314.146L395.622 316.973L392.02 314.163L395.607 311.337ZM391.141 307.851L394.743 310.66L391.156 313.487L387.555 310.678L391.141 307.851ZM386.694 311.357L390.295 314.166L386.709 316.993L383.107 314.184L386.694 311.357ZM382.226 307.872L385.827 310.681L382.24 313.508L378.639 310.699L382.226 307.872ZM377.778 311.381L381.38 314.19L377.793 317.017L374.192 314.208L377.778 311.381ZM369.723 310.723L373.31 307.896L376.911 310.705L373.325 313.532L369.723 310.723ZM369.741 317.714L373.328 314.887L376.929 317.696L373.343 320.523L369.741 317.714ZM373.357 327.515L369.756 324.706L373.343 321.879L376.944 324.688L373.357 327.515ZM377.826 331L374.224 328.191L377.811 325.364L381.412 328.173L377.826 331ZM382.273 327.494L378.672 324.685L382.258 321.858L385.86 324.667L382.273 327.494ZM386.742 330.979L383.14 328.17L386.727 325.343L390.328 328.152L386.742 330.979ZM391.189 327.473L387.588 324.664L391.174 321.837L394.776 324.646L391.189 327.473ZM395.654 330.958L392.053 328.149L395.639 325.322L399.241 328.131L395.654 330.958ZM400.105 327.449L396.503 324.64L400.09 321.813L403.691 324.622L400.105 327.449ZM404.57 330.935L400.969 328.125L404.555 325.299L408.157 328.108L404.57 330.935ZM409.021 327.428L405.419 324.619L409.006 321.792L412.607 324.601L409.021 327.428ZM413.486 330.914L409.884 328.105L413.471 325.278L417.072 328.087L413.486 330.914ZM417.936 327.408L414.335 324.599L417.921 321.772L421.523 324.581L417.936 327.408ZM422.402 330.893L418.8 328.084L422.387 325.257L425.988 328.066L422.402 330.893Z" fill="#F48C7F"/>
<path d="M431.3 305.117H366.861C366.035 305.117 365.365 304.446 365.365 303.621V297.64C365.365 296.812 366.035 296.144 366.861 296.144H431.3C432.128 296.144 432.795 296.815 432.795 297.64V303.621C432.798 304.446 432.128 305.117 431.3 305.117Z" fill="#F47458"/>
<path d="M386.855 296.144L400.724 310.625L411.991 296.144H386.855Z" fill="#FAE0B2"/>
<path d="M416.435 302.835C415.184 302.835 414.171 301.822 414.171 300.571V290.395C414.171 281.515 407.755 272.575 399.423 272.575L396.271 272.507C387.939 272.507 382.348 281.515 382.348 290.395V300.571C382.348 301.822 381.335 302.835 380.084 302.835C378.833 302.835 377.82 301.822 377.82 300.571V290.395C377.82 279.019 386.628 269.763 397.457 269.763H399.059C409.888 269.763 418.696 279.019 418.696 290.395V300.571C418.699 301.822 417.683 302.835 416.435 302.835Z" fill="#B75742"/>
<path d="M417.802 300.631C417.802 301.342 417.224 301.92 416.512 301.92C415.8 301.92 415.226 301.342 415.226 300.631C415.226 299.919 415.803 299.344 416.512 299.344C417.224 299.341 417.802 299.919 417.802 300.631Z" fill="#FAE0B2"/>
<path d="M381.499 299.564C381.499 300.276 380.921 300.851 380.212 300.851C379.5 300.851 378.925 300.273 378.925 299.564C378.925 298.852 379.503 298.274 380.212 298.274C380.921 298.274 381.499 298.852 381.499 299.564Z" fill="#FAE0B2"/>
<path d="M391.031 268.768C391.031 268.768 389.866 276.162 393.358 276.981C396.849 277.803 404.844 274.756 404.091 273.457C403.337 272.155 395.958 266.51 394.865 267.604C393.769 268.697 392.535 267.809 391.031 268.768Z" fill="#F7A491"/>
<path d="M359.589 138.877C357.45 124.939 344.841 114.918 331.653 121.68C328.686 123.203 324.671 126.289 322.624 128.916C316.991 136.146 315.627 145.106 309.654 152.059C304.507 158.052 290.762 156.923 284.346 161.532C277.929 166.143 273.431 174.409 273.431 184.296C273.431 195.354 275.927 207.094 284.498 214.085C293.065 221.077 305.242 222.819 315.898 219.855C326.553 216.891 335.693 209.632 342.273 200.743C348.853 191.854 353.506 182.11 356.783 171.55C360.438 159.768 360.971 147.886 359.589 138.877Z" fill="#184655"/>
<path d="M354.808 179.14C347.933 163.82 324.978 162.095 310.387 170.406C306.05 172.875 305.278 172.694 302.556 175.416C295.421 182.551 284.998 255.593 306.768 260.195C328.534 264.797 347.033 262.7 354.209 251.428C359.017 243.88 365.389 202.718 354.808 179.14Z" fill="#F7CC7F"/>
<path d="M355.982 406.246C355.982 406.246 357.09 418.356 356.36 422.306C356.262 422.836 356.047 423.503 355.797 424.242C355.046 426.455 357.105 433.217 357.105 433.217L384.698 433.318C386.202 433.324 385.196 432.371 383.974 431.495C381.972 430.066 380.361 429.121 373.986 426.142C373.569 425.949 372.053 425.013 371.508 424.689C370.122 423.867 368.725 422.565 367.519 421.257C365.511 419.079 365.204 408.409 365.204 408.409L355.982 406.246Z" fill="#F7A491"/>
<path d="M371.508 424.686C364.233 426.646 358.827 425.442 355.794 424.266C355.043 426.476 353.631 433.95 354.474 433.95C361.394 433.95 367.251 435.261 387.078 434.948C387.787 434.936 387.701 432.499 387.239 431.96C385.955 430.474 372.053 425.01 371.508 424.686Z" fill="#355389"/>
<path d="M321.373 262.498C321.373 262.498 321.766 279.784 326.72 290.854C331.546 301.634 354.635 328.224 360.775 343.744C358.877 352.499 353.661 364.801 354.04 374.504C354.468 385.499 353.828 414.59 353.828 414.59L366.22 414.983L382.476 339.907L357.978 258.902L346.86 239.233L321.373 262.498Z" fill="#184655"/>
<path d="M268.433 389.031C268.433 389.031 260.819 399.481 257.464 402.121C255.668 403.536 250.792 405.436 250.276 407.775C249.761 410.113 272.365 430.804 272.365 430.804C273.562 431.865 273.428 430.396 273.065 428.841C272.472 426.294 271.843 424.409 268.847 417.557C268.65 417.11 268.096 415.299 267.887 414.656C267.357 413.026 267.155 411.007 267.11 409.115C267.035 405.966 274.28 397.229 274.28 397.229L268.433 389.031Z" fill="#F7A491"/>
<path d="M267.887 414.65C260.705 411.108 257.229 406.351 255.632 403.282C253.482 404.522 247.697 407.161 248.203 407.9C252.201 413.703 256.35 420.914 272.403 434.582C272.978 435.07 275.335 432.252 275.341 431.495C275.364 429.413 268.096 415.293 267.887 414.65Z" fill="#355389"/>
<path d="M311.334 157.781C311.334 157.781 295.144 128.886 291.206 122.744C287.268 116.601 277.006 92.1955 276.639 91.2333C276.273 90.2711 283.705 78.722 282.046 78.3259C280.387 77.9297 278.552 84.4147 276.782 83.6402C275.013 82.8657 269.842 67.2534 268.832 68.0279C266.943 69.4756 271.62 77.7122 270.613 78.2305C269.606 78.7489 266.559 69.1688 264.584 69.4518C262.609 69.7348 268.34 78.2335 267.789 78.9842C267.238 79.7349 261.283 71.7276 260.208 73.4345C259.624 74.361 265.68 80.426 264.518 80.9919C263.357 81.5609 257.965 77.6467 257.396 78.7757C256.824 79.9047 262.38 81.4507 264.042 84.4921C265.704 87.5336 268.531 88.8502 269.705 94.4833C270.878 100.116 272.636 120.507 278.653 130.68C284.67 140.852 297.903 163.367 297.903 163.367L311.334 157.781Z" fill="#F79C8D"/>
<path d="M322.249 251.428C322.249 251.428 312.669 265.819 310.387 277.732C308.165 289.332 311.859 324.354 307.998 340.592C301.427 346.681 290.104 353.777 284.855 361.945C278.906 371.203 261.715 394.68 261.715 394.68L271.647 402.1L327.98 349.88L350.787 280.21L358.612 259.838L322.249 251.428Z" fill="#13375B"/>
<path d="M330.003 169.542C330.003 169.542 317.319 168.735 312.3 174.195C307.28 179.655 323.432 222.84 324.346 229.787C325.258 236.734 316.86 250.588 316.86 250.588C316.86 250.588 351.773 266.913 360.289 261.288C360.289 261.288 358.925 205.607 358.01 200.642C357.099 195.679 349.494 175.494 347.668 173.51C345.842 171.526 330.003 169.542 330.003 169.542Z" fill="#F47458"/>
<path d="M334.227 152.625C334.227 152.625 334.161 152.997 334.042 153.632C333.476 156.676 331.299 166.772 329.827 169.548C328.049 172.902 335.916 183.602 343.485 182.295C345.74 181.904 341.579 172.464 341.781 171.463C342.163 169.548 342.684 166.939 343.214 164.261C343.512 162.75 343.816 161.219 344.102 159.777C344.912 155.687 345.574 152.339 345.574 152.339L334.227 152.625Z" fill="#F7A491"/>
<path d="M334.042 153.632C334.161 152.997 334.227 152.625 334.227 152.625L345.571 152.342C345.571 152.342 344.909 155.687 344.099 159.78C343.816 161.213 343.515 162.735 343.217 164.237C341.466 163.98 339.637 163.128 337.802 161.526C335.8 159.777 334.489 157.677 333.7 155.437C333.84 154.719 333.956 154.102 334.042 153.632Z" fill="#F47458"/>
<path d="M341.862 126.89C341.862 126.89 336.515 126.274 333.164 130.599C329.812 134.924 326.199 148.306 334.525 155.577C342.851 162.851 351.078 154.618 352.297 145.887C353.518 137.159 353.992 126.575 341.862 126.89Z" fill="#F7A491"/>
<path d="M354.76 145.759C353.765 147.686 352.097 148.755 351.034 148.145C349.97 147.534 349.914 145.476 350.906 143.548C351.901 141.621 353.569 140.552 354.632 141.165C355.699 141.773 355.755 143.831 354.76 145.759Z" fill="#F7A491"/>
<path d="M342.461 125.458C342.461 125.458 335.317 138.18 330.206 138.767C325.094 139.354 324.424 146.116 324.424 146.116C324.424 146.116 326.25 130.54 331.311 127.534C336.372 124.531 342.461 125.458 342.461 125.458Z" fill="#184655"/>
<path d="M331.546 141.967C331.963 144.225 331.126 146.298 329.678 146.596C328.23 146.894 326.723 145.3 326.306 143.042C325.889 140.784 326.726 138.711 328.174 138.413C329.622 138.115 331.132 139.709 331.546 141.967Z" fill="#F7A491"/>
<path d="M306.854 148.419C306.854 148.419 324.763 167.639 327.423 175.384C330.086 183.129 324.829 194.207 317.566 194.693C310.304 195.175 294.146 160.582 294.146 160.582L306.854 148.419Z" fill="#B75742"/>
<path d="M327.724 166.212C335.621 176.781 339.226 193.552 333.899 209.712C331.704 216.099 329.225 222.289 324.501 228.679C318.546 236.614 313.869 238.694 314.28 238.455L312.526 235.048C312.556 235.024 314.864 233.799 317.73 230.892C317.894 230.683 324.313 224.756 328.695 213.007C338.975 186.888 324.558 170.302 324.313 169.682C324.212 169.545 324.117 169.095 324.048 169.015L327.724 166.212Z" fill="#F7CC7F"/>
<path d="M359.425 230.725C357.051 199.101 343.929 172.023 343.786 171.848L347.361 171.559C347.522 171.755 351.367 173.858 355.019 182.613C358.034 189.843 361.436 201.199 361.49 215.706C361.499 218.711 359.425 230.725 359.425 230.725Z" fill="#F7CC7F"/>
</svg>
