<svg width="555" height="289" viewBox="0 0 555 289" fill="none" xmlns="http://www.w3.org/2000/svg">
<rect width="555" height="289" rx="20" fill="#98BDFF"/>
<rect width="555" height="289" fill="#DAE7FF"/>
<g clip-path="url(#clip0)">
<path d="M95.2462 275.686C95.2462 275.686 165.489 162.971 192.256 157.94C219.02 152.909 241.949 199.004 241.949 199.004C241.949 199.004 254.068 188.47 272.698 192.584C291.328 196.699 391.259 290.18 391.259 290.18L90.1178 286.437L95.2462 275.686Z" fill="#74A67E"/>
<path d="M128.466 183.973C190.83 194.317 284.406 287.275 355.679 287.275C426.953 287.275 442.298 265.043 469.027 269.743C495.753 274.444 531.634 287.275 531.634 287.275L2 288.835C2 288.835 66.1022 173.63 128.466 183.973Z" fill="#74A67E"/>
<path d="M169.454 144.646L157.268 242.82H181.64L169.454 144.646Z" fill="#4B49AC"/>
<path d="M192.254 166.571L180.067 264.742H204.44L192.254 166.571Z" fill="#4B49AC"/>
<path d="M24.6424 238.381H20.9092V279.632H24.6424V238.381Z" fill="#355389"/>
<path d="M22.7768 158.355L10.5906 256.529H34.963L22.7768 158.355Z" fill="#4B49AC"/>
<path d="M15.0094 220.921L32.3858 235.774L31.7181 230.392L15.5495 216.571L15.0094 220.921Z" fill="#4B49AC"/>
<path d="M17.6802 199.403L28.3217 203.029L27.8214 198.998L18.1406 195.7L17.6802 199.403Z" fill="#4B49AC"/>
<path d="M51.9566 222.302H49.2719V269.209H51.9566V222.302Z" fill="#355389"/>
<path d="M51.3169 138.672L38.0842 233.352H64.5495L51.3169 138.672Z" fill="#4B49AC"/>
<path d="M38.9233 227.344L62.6679 219.884L62.3091 217.317L39.316 224.541L38.9233 227.344Z" fill="#4B49AC"/>
<path d="M43.105 197.434L58.839 192.489L58.4803 189.922L43.4956 194.631L43.105 197.434Z" fill="#4B49AC"/>
<path d="M2 288.835C2 288.835 70.3755 229.629 158.537 225.993C188.142 224.771 309.366 249.257 411.448 268.496C415.739 269.304 425.017 277.222 429.363 278.034C477.689 287.09 522.726 289.004 537.292 289.588L2 288.835Z" fill="#74A67E"/>
<path d="M541.881 223.714L541.978 218.616C541.978 214.835 539.084 211.769 535.513 211.769C526.513 211.769 519.219 219.494 519.219 229.023V235.989C519.219 239.041 517.592 241.691 515.208 243.02C513.044 244.228 511.718 246.64 511.718 249.233V252.907C511.718 256.883 513.48 260.594 516.41 263.084C518.122 264.54 519.219 266.775 519.219 269.28V274.48C519.219 280.23 523.619 284.889 529.049 284.889H532.146C537.576 284.889 541.976 280.228 541.976 274.48C541.085 267.218 543.246 263.028 545.738 260.632C549.401 257.109 551.546 252.156 551.546 246.915V246.179C551.546 240.648 549.136 235.47 545.108 231.95C543.332 230.396 541.881 227.857 541.881 223.714Z" fill="#4B49AC"/>
<path d="M552 290.927C552 290.927 526.9 257.691 511.104 252.595C495.308 247.497 510.195 267.743 510.195 267.743C510.195 267.743 482.175 237.201 471.893 239.953C462.467 242.476 471.893 261.408 471.893 261.408C471.893 261.408 461.277 250.926 448.403 250.926C435.529 250.926 458.353 290.18 458.353 290.18L552 290.927Z" fill="#74A67E"/>
<path d="M471.893 290.18C471.893 290.18 454.736 244.441 433.486 249.732C416.267 254.018 428.509 277.031 427.459 275.986C426.409 274.939 417.174 259.318 402.23 259.318C387.287 259.318 406.816 280.401 406.816 280.401C406.816 280.401 374.977 270.488 372.486 280.898C370.417 289.534 381.989 290.182 381.989 290.182H471.893V290.18Z" fill="#4B49AC"/>
<path d="M254.668 221.493C255.927 222.248 257.079 223.267 258.229 224.175C264.48 229.125 270.82 233.913 279.443 243.982C290.969 257.443 299.58 272.73 304.832 289.425C305.019 290.023 305.968 289.767 305.776 289.165C302.36 278.426 297.515 268.152 291.422 258.665C274.958 233.031 254.446 221.36 254.668 221.493Z" fill="#6C7DAC"/>
<path d="M285.793 224.581C287.17 233.625 291.904 241.757 295.167 250.197C303.895 272.773 305.328 289.968 306.113 291.873C306.193 292.064 306.442 292.032 306.468 291.825C306.685 290.057 304.762 277.675 300.969 264.796C294.664 243.384 288.063 235.021 286.09 224.499C286.054 224.302 285.763 224.39 285.793 224.581Z" fill="#6C7DAC"/>
<path d="M265.038 221.956C264.803 222.425 263.83 223.696 263.699 225.212C263.444 226.669 264.03 228.371 264.057 228.306C264.147 228.33 262.606 227.348 261.925 225.552C261.126 223.847 261.185 221.328 261.771 220.418C262.724 218.409 264.799 217.943 265.327 218.783C265.883 219.613 265.497 220.899 265.038 221.956Z" fill="#6C7DAC"/>
<path d="M279.343 236.273C279.166 236.764 278.356 238.137 278.406 239.653C278.327 241.123 279.108 242.738 279.128 242.669C279.22 242.681 277.579 241.892 276.692 240.195C275.7 238.604 275.46 236.104 275.931 235.135C276.636 233.036 278.632 232.327 279.255 233.098C279.899 233.857 279.67 235.172 279.343 236.273Z" fill="#6C7DAC"/>
<path d="M297.551 243.322C297.184 243.448 296.016 243.616 295.161 244.346C294.272 244.979 293.698 246.176 293.748 246.156C293.782 246.213 293.481 244.906 294.053 243.613C294.515 242.307 295.85 241.014 296.63 240.837C298.17 240.273 299.502 241.093 299.344 241.808C299.207 242.528 298.338 243.003 297.551 243.322Z" fill="#6C7DAC"/>
<path d="M299.36 247.735C298.994 247.86 297.826 248.029 296.971 248.759C296.082 249.392 295.508 250.588 295.557 250.569C295.591 250.626 295.29 249.319 295.862 248.025C296.325 246.72 297.66 245.427 298.44 245.25C299.98 244.685 301.312 245.506 301.154 246.221C301.015 246.941 300.148 247.415 299.36 247.735Z" fill="#6C7DAC"/>
<path d="M258.977 231.322C259.282 230.946 259.977 229.649 261.201 228.958C262.327 228.187 263.982 228.026 263.938 228.075C263.992 228.141 262.579 227.231 260.809 227.348C259.071 227.332 256.978 228.346 256.436 229.184C255.112 230.748 255.513 232.659 256.422 232.778C257.333 232.923 258.265 232.109 258.977 231.322Z" fill="#6C7DAC"/>
<path d="M267.733 239.38C268.038 239.005 268.733 237.708 269.957 237.016C271.083 236.245 272.738 236.084 272.694 236.134C272.748 236.2 271.335 235.29 269.565 235.407C267.827 235.391 265.734 236.404 265.192 237.243C263.868 238.806 264.269 240.718 265.178 240.839C266.089 240.982 267.019 240.167 267.733 239.38Z" fill="#6C7DAC"/>
<path d="M283.268 232.156C283.752 232.18 285.215 231.982 286.495 232.564C287.78 233.021 288.884 234.26 288.819 234.255C288.797 234.336 288.707 232.661 287.573 231.302C286.566 229.891 284.513 228.797 283.515 228.85C281.468 228.701 280.15 230.146 280.587 230.95C281.003 231.769 282.211 232.043 283.268 232.156Z" fill="#6C7DAC"/>
<path d="M285.833 238.341C286.317 238.365 287.78 238.166 289.058 238.749C290.343 239.206 291.448 240.445 291.382 240.439C291.36 240.521 291.27 238.846 290.136 237.487C289.128 236.076 287.077 234.982 286.078 235.035C284.031 234.886 282.713 236.331 283.15 237.135C283.569 237.954 284.776 238.228 285.833 238.341Z" fill="#6C7DAC"/>
<path d="M278.879 251.798C279.184 251.423 279.879 250.125 281.103 249.434C282.229 248.663 283.884 248.502 283.84 248.552C283.894 248.617 282.48 247.707 280.708 247.825C278.97 247.809 276.878 248.822 276.335 249.66C275.012 251.224 275.413 253.135 276.321 253.257C277.234 253.4 278.167 252.585 278.879 251.798Z" fill="#6C7DAC"/>
<path d="M253.821 224.632C254.062 224.436 254.672 223.712 255.531 223.44C256.34 223.104 257.4 223.222 257.366 223.245C257.392 223.293 256.625 222.536 255.497 222.377C254.409 222.139 252.958 222.5 252.507 222.953C251.469 223.762 251.467 225.014 252.023 225.208C252.577 225.419 253.268 225.032 253.821 224.632Z" fill="#6C7DAC"/>
<path d="M256.147 219.556C256.135 219.866 255.921 220.786 256.22 221.634C256.438 222.48 257.169 223.255 257.169 223.214C257.223 223.204 256.155 223.049 255.349 222.246C254.504 221.523 253.922 220.15 254.016 219.518C254.04 218.205 255.042 217.45 255.533 217.776C256.031 218.09 256.135 218.874 256.147 219.556Z" fill="#6C7DAC"/>
<path d="M531.648 227.924C538.076 248.095 541.002 269.376 540.153 290.927H540.966C541.721 269.807 538.839 248.576 532.425 228.427C530.934 223.744 529.439 218.262 525.054 215.419C524.971 215.364 524.897 215.495 524.977 215.552C528.919 218.374 530.253 223.545 531.648 227.924Z" fill="#6C7DAC"/>
<path d="M537.294 290.927C529.443 270.874 518.583 251.377 504.342 233.14C504.2 232.957 503.875 233.203 504.019 233.388C517.468 250.896 528.335 270.232 536.288 290.925H537.294V290.927Z" fill="#6C7DAC"/>
<path d="M533.507 216.979C533.111 217.321 531.728 218.117 531.024 219.462C530.229 220.704 530.111 222.492 530.165 222.443C530.239 222.498 529.2 221.008 529.264 219.095C529.186 217.223 530.211 214.928 531.1 214.317C532.75 212.834 534.837 213.198 534.998 214.173C535.184 215.149 534.335 216.182 533.507 216.979Z" fill="#6C7DAC"/>
<path d="M526.729 231.638C527.219 231.457 528.588 230.635 530.109 230.668C531.584 230.575 533.212 231.336 533.143 231.358C533.157 231.449 532.349 229.822 530.637 228.954C529.031 227.98 526.521 227.768 525.555 228.246C523.456 228.97 522.766 230.968 523.546 231.58C524.313 232.218 525.63 231.976 526.729 231.638Z" fill="#6C7DAC"/>
<path d="M528.911 239.44C529.403 239.259 530.771 238.437 532.292 238.471C533.767 238.377 535.395 239.138 535.325 239.16C535.339 239.251 534.532 237.624 532.82 236.756C531.213 235.782 528.704 235.57 527.737 236.049C525.638 236.772 524.949 238.771 525.728 239.382C526.493 240.02 527.811 239.778 528.911 239.44Z" fill="#6C7DAC"/>
<path d="M510.468 251.256C510.961 251.073 512.328 250.252 513.849 250.286C515.324 250.193 516.95 250.954 516.882 250.976C516.896 251.067 516.089 249.44 514.377 248.572C512.771 247.598 510.261 247.385 509.294 247.864C507.196 248.588 506.506 250.586 507.285 251.198C508.051 251.836 509.368 251.594 510.468 251.256Z" fill="#6C7DAC"/>
<path d="M504.912 242.923C505.404 242.742 506.771 241.92 508.292 241.954C509.767 241.86 511.395 242.621 511.326 242.643C511.34 242.734 510.532 241.107 508.82 240.239C507.214 239.265 504.704 239.053 503.738 239.532C501.639 240.255 500.949 242.252 501.728 242.866C502.494 243.503 503.813 243.261 504.912 242.923Z" fill="#6C7DAC"/>
<path d="M537.043 226.093C536.597 226.367 535.106 226.937 534.197 228.155C533.216 229.256 532.818 231.004 532.878 230.962C532.941 231.028 532.152 229.393 532.517 227.515C532.734 225.654 534.109 223.551 535.084 223.085C536.948 221.881 538.951 222.566 538.957 223.555C538.989 224.549 537.988 225.437 537.043 226.093Z" fill="#6C7DAC"/>
<path d="M540.86 235.3C540.296 235.429 538.443 235.441 537.229 236.496C535.937 237.38 535.285 239.305 535.361 239.283C535.431 239.393 534.64 237.064 535.265 234.966C535.712 232.822 537.574 230.909 538.795 230.788C541.159 230.18 543.507 231.912 543.418 233.106C543.356 234.32 542.062 234.934 540.86 235.3Z" fill="#6C7DAC"/>
<path d="M543.928 248.518C543.35 248.552 541.52 248.252 540.145 249.088C538.724 249.742 537.755 251.532 537.835 251.522C537.884 251.641 537.498 249.213 538.468 247.25C539.27 245.212 541.428 243.638 542.652 243.724C545.086 243.521 547.107 245.623 546.816 246.785C546.553 247.972 545.173 248.361 543.928 248.518Z" fill="#6C7DAC"/>
<path d="M523.478 251.691C523.025 251.828 521.519 251.943 520.592 252.871C519.593 253.662 519.173 255.267 519.232 255.244C519.296 255.329 518.519 253.479 518.907 251.737C519.147 249.969 520.554 248.306 521.54 248.139C523.428 247.509 525.437 248.786 525.433 249.764C525.451 250.751 524.433 251.326 523.478 251.691Z" fill="#6C7DAC"/>
<path d="M522.613 216.969C522.896 216.84 523.669 216.295 524.57 216.248C525.439 216.129 526.434 216.508 526.394 216.524C526.406 216.578 525.858 215.65 524.807 215.211C523.815 214.706 522.32 214.688 521.77 215.014C520.56 215.535 520.239 216.745 520.727 217.074C521.208 217.418 521.977 217.217 522.613 216.969Z" fill="#6C7DAC"/>
<path d="M526.151 212.646C526.059 212.942 525.62 213.778 525.694 214.674C525.69 215.548 526.201 216.482 526.21 216.441C526.264 216.444 525.27 216.025 524.696 215.046C524.062 214.132 523.847 212.658 524.098 212.069C524.455 210.806 525.617 210.329 526.007 210.766C526.412 211.199 526.314 211.986 526.151 212.646Z" fill="#6C7DAC"/>
<path d="M501.423 235.014C501.706 234.884 502.48 234.34 503.381 234.292C504.25 234.173 505.246 234.553 505.205 234.569C505.216 234.622 504.668 233.694 503.618 233.255C502.625 232.751 501.13 232.733 500.58 233.059C499.371 233.579 499.052 234.789 499.538 235.119C500.018 235.463 500.788 235.262 501.423 235.014Z" fill="#6C7DAC"/>
<path d="M505.432 230.772C505.316 231.06 504.81 231.856 504.81 232.756C504.734 233.627 505.165 234.6 505.179 234.558C505.232 234.568 504.276 234.068 503.783 233.045C503.227 232.083 503.134 230.595 503.433 230.03C503.891 228.801 505.089 228.419 505.444 228.888C505.808 229.351 505.647 230.126 505.432 230.772Z" fill="#6C7DAC"/>
<path d="M329.676 280.677C330.175 280.987 331.44 282.044 332.09 282.7C333.868 284.498 335.479 287.059 336.358 289.95C336.413 290.132 336.431 290.301 336.603 290.409C336.645 290.434 336.706 290.419 336.728 290.375C336.832 290.182 336.746 290.003 336.688 289.801C336.276 288.35 335.427 286.53 334.149 284.758C331.987 281.762 330.382 281.068 329.688 280.659C329.674 280.653 329.665 280.671 329.676 280.677Z" fill="#6C7DAC"/>
<path d="M327.916 282.463C328.199 282.334 328.973 281.79 329.874 281.742C330.743 281.623 331.737 282.002 331.697 282.018C331.709 282.072 331.159 281.144 330.111 280.705C329.118 280.2 327.623 280.182 327.073 280.508C325.863 281.029 325.543 282.239 326.031 282.569C326.511 282.912 327.281 282.712 327.916 282.463Z" fill="#6C7DAC"/>
<path d="M331.454 278.14C331.363 278.436 330.924 279.272 330.998 280.168C330.994 281.043 331.504 281.976 331.514 281.935C331.568 281.939 330.573 281.52 329.999 280.54C329.365 279.626 329.15 278.152 329.401 277.564C329.758 276.3 330.92 275.823 331.311 276.26C331.713 276.694 331.616 277.48 331.454 278.14Z" fill="#6C7DAC"/>
<path d="M213.226 266.235C225.366 269.936 235.874 277.577 245.975 285C252.788 290.005 252.216 290.957 253.641 291.779C253.872 291.912 254.171 291.692 254.096 291.432C253.729 290.16 252.338 289.085 251.395 288.215C250.295 287.202 249.123 286.27 247.923 285.38C245.354 283.474 242.687 281.694 240.04 279.898C234.656 276.246 229.149 272.728 223.259 269.936C220.03 268.406 216.694 267.113 213.256 266.135C213.188 266.117 213.162 266.215 213.226 266.235Z" fill="#6C7DAC"/>
<path d="M225.129 264.518C224.952 265.009 224.142 266.382 224.192 267.898C224.112 269.368 224.894 270.983 224.914 270.914C225.005 270.926 223.365 270.137 222.478 268.44C221.485 266.849 221.246 264.349 221.717 263.38C222.422 261.281 224.417 260.574 225.041 261.343C225.687 262.102 225.456 263.419 225.129 264.518Z" fill="#6C7DAC"/>
<path d="M235.308 270.482C235.131 270.975 234.321 272.346 234.371 273.862C234.292 275.332 235.073 276.948 235.093 276.878C235.184 276.89 233.544 276.101 232.657 274.404C231.665 272.813 231.425 270.314 231.896 269.344C232.601 267.246 234.596 266.539 235.22 267.308C235.866 268.068 235.637 269.384 235.308 270.482Z" fill="#6C7DAC"/>
<path d="M245.467 277.514C245.29 278.005 244.481 279.378 244.53 280.893C244.451 282.364 245.232 283.979 245.252 283.909C245.344 283.921 243.703 283.133 242.816 281.436C241.824 279.844 241.585 277.345 242.055 276.375C242.761 274.277 244.756 273.57 245.379 274.339C246.025 275.1 245.794 276.415 245.467 277.514Z" fill="#6C7DAC"/>
<path d="M219.931 274.073C220.236 273.697 220.931 272.4 222.155 271.709C223.281 270.94 224.936 270.777 224.892 270.826C224.946 270.892 223.532 269.982 221.76 270.099C220.022 270.083 217.93 271.097 217.388 271.935C216.064 273.499 216.465 275.412 217.374 275.529C218.286 275.674 219.217 274.86 219.931 274.073Z" fill="#6C7DAC"/>
<path d="M230.528 280.232C230.833 279.856 231.529 278.559 232.753 277.868C233.879 277.097 235.533 276.936 235.489 276.985C235.543 277.051 234.13 276.139 232.36 276.258C230.622 276.242 228.529 277.258 227.987 278.094C226.664 279.658 227.064 281.569 227.973 281.688C228.884 281.831 229.815 281.019 230.528 280.232Z" fill="#6C7DAC"/>
<path d="M212.064 268.309C212.305 268.112 212.915 267.389 213.774 267.117C214.583 266.781 215.643 266.896 215.61 266.922C215.635 266.97 214.868 266.213 213.74 266.054C212.652 265.815 211.201 266.177 210.75 266.63C209.712 267.439 209.71 268.69 210.266 268.885C210.82 269.098 211.514 268.71 212.064 268.309Z" fill="#6C7DAC"/>
<path d="M214.39 263.233C214.378 263.543 214.165 264.462 214.464 265.311C214.681 266.157 215.412 266.932 215.41 266.89C215.464 266.88 214.396 266.725 213.59 265.923C212.745 265.2 212.163 263.827 212.257 263.195C212.281 261.882 213.284 261.127 213.774 261.452C214.274 261.768 214.38 262.553 214.39 263.233Z" fill="#6C7DAC"/>
<path d="M77.7961 92.2589C73.0763 93.5186 72.289 111.656 72.289 111.656L57.3263 109.946C57.3263 109.946 60.0529 91.0311 67.9558 83.1274C75.8588 75.2238 95.8283 80.0558 103.422 84.9772C111.014 89.8986 107.721 96.1671 107.721 96.1671C107.721 96.1671 82.5179 91.0013 77.7961 92.2589Z" fill="#13375B"/>
<path d="M62.7577 107.361C61.9743 124.587 57.1309 126.113 57.0353 126.353C56.9336 126.371 53.0649 129.337 48.7836 125.415L50.2067 123.977C50.8186 124.599 51.7514 125.159 52.6423 125.411C54.6315 125.928 55.9191 124.939 56.0766 124.893C56.1822 124.809 57.1987 124.198 57.707 123.361C60.1924 120.049 61.3764 111.442 61.7132 107.327L62.7577 107.361Z" fill="#355389"/>
<path d="M113.057 94.7683C113.057 94.7683 110.958 102.978 110.717 109.648C110.478 116.32 105.864 121.885 105.264 138.58C104.664 155.277 102.27 170.626 102.27 170.626C102.27 170.626 83.6838 171.915 80.0244 167.983C76.3649 164.051 77.9515 128.308 81.5691 110.933C85.1867 93.5563 69.2792 88.8177 77.5449 83.1254C85.8105 77.4331 96.5597 81.2895 101.11 82.8353C105.662 84.3831 113.189 91.0867 113.057 94.7683Z" fill="#184655"/>
<path d="M82.3665 108.579C82.3665 108.579 80.172 121.91 81.8223 135.413C83.4727 148.916 80.8457 175.555 80.8457 175.555C80.8457 175.555 66.9992 185.191 62.9311 177.54C62.1677 176.104 60.34 159.039 60.1746 151.904C59.9992 144.326 61.0456 117.859 61.3984 109.282C61.4721 107.484 62.0063 105.736 62.9491 104.202C65.9747 99.2764 72.9189 88.3746 75.3346 87.9971C78.4858 87.5084 84.0208 94.3014 82.3665 108.579Z" fill="#F7CC7F"/>
<path d="M61.0355 118.491C62.9828 120.383 75.3584 132.248 81.5711 133.104C81.4993 132.349 81.4356 131.596 81.3817 130.851C76.5244 130.075 65.5799 120.021 61.1432 115.734C61.1073 116.614 61.0714 117.536 61.0355 118.491Z" fill="#13375B"/>
<path d="M82.3326 150.378C82.3466 149.637 82.3565 148.898 82.3605 148.165C78.6074 149.768 65.4007 148.745 60.1646 148.165C60.1586 148.936 60.1547 149.647 60.1566 150.289C64.9562 150.821 77.856 152.228 82.3326 150.378Z" fill="#13375B"/>
<path d="M61.4103 167.616C61.488 168.313 61.5657 168.997 61.6435 169.658C66.8616 170.701 76.9151 166.259 81.7386 164.171C81.7884 163.382 81.8382 162.569 81.8861 161.737C77.4014 163.678 65.9985 168.476 61.4103 167.616Z" fill="#13375B"/>
<path d="M61.1073 164.723C63.4274 165.693 77.8599 171.866 81.1566 172.076C81.2084 171.468 81.2622 170.791 81.32 170.054C78.998 169.839 68.0097 165.259 60.8741 162.293C60.9479 163.104 61.0256 163.916 61.1073 164.723Z" fill="#13375B"/>
<path d="M75.2229 170.749H79.855C81.5253 170.749 82.8806 169.398 82.8806 167.733V140.652C82.8806 138.987 81.5253 137.636 79.855 137.636H75.2229C73.5526 137.636 72.1973 138.987 72.1973 140.652V167.733C72.1973 169.398 73.5506 170.749 75.2229 170.749Z" fill="#4B49AC"/>
<path d="M82.8806 147.495H72.1973V149.724H82.8806V147.495Z" fill="#13375B"/>
<path d="M74.3301 263.964C74.3301 263.964 69.383 268.492 69.3711 268.5C68.6774 269.01 66.8178 270.131 66.2777 270.683C64.2506 272.761 77.2441 277.943 76.0701 274.999C75.9645 274.732 75.7651 272.388 76.393 271.621C77.3617 270.439 79.1037 268.754 79.1037 268.754L74.3301 263.964Z" fill="#F79191"/>
<path d="M76.0661 274.959C76.0661 274.959 73.2756 273.477 72.008 272.551C70.7403 271.625 70.5809 268.855 69.4428 268.45C68.1891 268.003 62.9211 273.373 62.9211 273.373C62.9211 273.373 73.2178 284.527 78.6054 288.245C79.7654 289.045 81.1726 288.791 81.6689 288.799C83.5743 288.831 79.0598 280.77 76.0661 274.959Z" fill="#184655"/>
<path d="M136.64 272.746C136.64 272.746 138.177 280.16 138.179 280.176C138.275 281.144 138.289 283.596 138.512 284.438C139.357 287.605 151.882 277.987 148.35 277.427C148.031 277.375 146.441 276.739 145.895 275.762C144.944 274.061 144.043 270.878 144.043 270.878L136.64 272.746Z" fill="#F79191"/>
<path d="M148.308 277.405C148.308 277.405 145.259 279.256 143.63 279.952C142.002 280.647 139.02 278.718 137.97 279.59C136.814 280.548 138.697 289.042 138.697 289.042C138.697 289.042 160.122 283.379 164.68 280.441C166.484 279.274 155.671 277.856 148.308 277.405Z" fill="#184655"/>
<path d="M151.647 165.842C148.229 164.339 148.085 164.963 147.653 164.759C147.14 164.518 143.365 158.107 143.365 158.107C143.365 158.107 132.106 139.287 131.536 138.25L129.294 115.572L117.368 113.856C117.368 113.856 120.486 138.439 120.88 139.689C121.275 140.938 139.604 164.546 141.147 166.676C141.147 166.676 141.998 169.913 142.602 171.925C143.206 173.938 144.711 175.553 144.97 176.092C145.008 176.171 145.986 177.91 147.786 179.72C149.339 181.279 148.625 179.082 148.625 179.082C148.625 179.082 146.301 175.672 146.616 175.529C146.859 175.42 148.011 177.359 149.71 179.102C150.146 179.551 150.579 179.99 150.979 180.393C152.032 181.448 153.02 181.096 152.105 179.817C151.782 179.364 151.226 178.627 150.752 178.158C150.24 177.651 149.943 177.019 149.58 176.527C148.862 175.549 148.326 174.846 148.384 174.838C148.46 174.826 148.462 174.53 148.94 174.991C149.516 175.545 150.463 176.996 151.378 177.747C151.896 178.172 152.922 179.126 152.922 179.126C152.922 179.126 154.76 180.276 154.87 180.19C155.46 179.734 154.445 178.595 153.66 178.11C153.333 177.546 152.223 176.572 152.223 176.572C152.223 176.572 150.451 174.099 150.816 173.837C150.971 173.725 152.249 175.108 153.728 176.266C155.101 177.341 156.676 178.202 156.947 177.963C157.403 177.556 156.016 176.201 156.016 176.201C156.016 176.201 154.989 175.303 154.672 174.979C154.302 174.6 153.283 173.374 153.283 173.374C153.283 173.374 149.947 168.943 150.313 168.724C150.68 168.504 151.838 168.297 152.145 168.5C152.452 168.701 152.805 169.364 153.112 169.567C153.419 169.768 154.007 169.768 154.304 169.412C154.601 169.054 153.52 167.514 153.52 167.514C153.52 167.514 152.633 166.275 151.647 165.842Z" fill="#F8A492"/>
<path d="M118.349 94.8238C127.581 97.0153 129.907 117.553 130.466 120.206C127.406 121.277 123.774 122.359 120.633 123.271L116.874 94.4086C116.876 94.4106 117.396 94.5993 118.349 94.8238Z" fill="#4B49AC"/>
<path d="M125.11 171.023L138.386 223.927L146.782 275.16L136.329 276.564C136.329 276.564 121.606 237.384 121.197 232.876C120.787 228.367 113.398 207.287 113.398 207.287L125.11 171.023Z" fill="#355389"/>
<path d="M94.1221 164.9C94.1221 164.9 95.1167 215.626 94.2975 220.339C93.4784 225.053 71.2346 265.271 71.2346 265.271L78.7229 273.385C78.7229 273.385 110.55 236.601 111.951 233.356C114.149 228.27 125.006 170.92 125.006 170.92L94.1221 164.9Z" fill="#13375B"/>
<path d="M106.318 94.7027C106.318 94.7027 100.68 94.1881 98.4253 99.5168C96.171 104.845 93.9168 130.466 94.9413 142.764C95.9658 155.061 91.6426 172.082 91.6426 172.082C111.299 182.225 125.269 171.254 125.269 171.254C125.269 171.254 130.459 124.195 128.548 115.505C124.554 97.3392 116.874 94.4126 116.874 94.4126L106.318 94.7027Z" fill="#74A67E"/>
<path d="M90.7019 179.451C88.5732 175.99 88.0948 176.483 87.8337 176.032C87.5248 175.498 87.8676 167.262 87.8676 167.262C87.8676 167.262 88.7207 142.979 88.8124 141.67L99.717 119.252L90.2913 110.452C90.2913 110.452 79.0678 135.171 78.705 136.569C78.3403 137.968 80.9354 170.97 81.0729 173.882C81.0729 173.882 79.9806 177.403 79.3648 179.638C78.7509 181.873 79.1455 184.283 79.0678 184.939C79.0558 185.036 78.9223 187.242 79.4664 190.009C79.9348 192.396 80.5587 189.924 80.5587 189.924C80.5587 189.924 80.467 185.352 80.8198 185.412C81.0928 185.458 80.9992 187.955 81.4915 190.6C81.617 191.279 81.7446 191.951 81.8662 192.566C82.1851 194.182 83.2474 194.454 83.1757 192.712C83.1498 192.096 83.084 191.076 82.9365 190.353C82.7771 189.572 82.8767 188.807 82.8408 188.132C82.7691 186.791 82.6993 185.813 82.7551 185.841C82.8269 185.877 82.9983 185.603 83.1538 186.32C83.3411 187.182 83.3431 189.103 83.7158 190.351C83.9271 191.058 84.2799 192.565 84.2799 192.565C84.2799 192.565 85.2306 194.744 85.3722 194.73C86.1455 194.663 85.9063 192.992 85.4977 192.068C85.5316 191.347 85.117 189.771 85.117 189.771C85.117 189.771 84.9755 186.403 85.4419 186.381C85.6412 186.372 85.9701 188.43 86.6039 190.399C87.1919 192.227 88.0769 193.979 88.4476 193.92C89.0775 193.818 88.635 191.72 88.635 191.72C88.635 191.72 88.2483 190.266 88.1566 189.773C88.049 189.195 87.8556 187.442 87.8556 187.442C87.8556 187.442 87.459 181.313 87.9035 181.329C88.348 181.347 89.4741 181.853 89.6276 182.227C89.781 182.599 89.7133 183.429 89.8667 183.801C90.0202 184.172 90.5325 184.528 90.9929 184.377C91.4533 184.224 91.3855 182.142 91.3855 182.142C91.3855 182.142 91.3158 180.451 90.7019 179.451Z" fill="#F8A492"/>
<path d="M85.6472 117.015L98.0028 126.57C98.0028 126.57 103.458 121.384 106.199 115.648C108.973 109.842 105.595 94.5418 102.643 95.3286C96.0396 97.0889 85.6472 117.015 85.6472 117.015Z" fill="#4B49AC"/>
<path d="M108.678 83.3242L106.829 95.4718C106.829 95.4718 113.581 109.936 117.612 108.68C120.994 107.627 118.913 94.83 118.913 94.83C118.913 94.83 117.07 87.9575 117.622 84.5183C118.176 81.0811 108.678 83.3242 108.678 83.3242Z" fill="#F79191"/>
<path d="M117.624 84.5202C118.176 81.081 108.678 83.3261 108.678 83.3261L108.525 84.3335C108.802 85.007 109.143 85.5852 109.555 86.0263C111.676 88.3012 114.993 89.6681 117.859 89.7715C117.572 87.9177 117.396 85.9289 117.624 84.5202Z" fill="#F47458"/>
<path d="M107.12 66.14C106.85 66.0426 104.969 79.9744 108.541 83.809C112.114 87.6416 119.076 88.8973 121.574 85.8773C124.336 82.5374 124.197 67.5646 118.642 63.6207C113.087 59.6768 107.12 66.14 107.12 66.14Z" fill="#F79191"/>
<path d="M116.529 56.168C112.234 57.0402 109.454 59.6569 108.431 60.7715C106.482 61.002 103.831 62.0749 101.094 66.5929C97.7297 72.1481 100.213 78.3014 104.132 81.3194C108.048 84.3394 107.995 87.8263 107.995 87.8263L108.614 86.0222C109.071 84.6553 109.258 83.2069 109.105 81.7724C109.013 80.9121 108.828 79.9822 108.471 79.2173C107.528 77.2007 110.494 75.8615 111.327 74.1846C111.967 72.8932 111.999 69.9388 113.007 67.8029L114.213 66.1737C114.213 66.1737 116.994 64.018 119.712 64.626C122.431 65.2339 122.038 55.0474 116.529 56.168Z" fill="#184655"/>
<path d="M111.142 76.6643C111.17 78.365 110.394 79.7558 109.41 79.7717C108.425 79.7876 107.604 78.4246 107.576 76.7239C107.548 75.0232 108.323 73.6324 109.308 73.6165C110.293 73.6006 111.114 74.9655 111.142 76.6643Z" fill="#F79191"/>
<path d="M113.37 120.458C113.627 109.874 112.969 95.3267 102.842 91.2C99.2246 89.6861 94.8058 91.3888 91.4533 92.6306C95.5652 92.0583 99.4439 93.6379 101.447 94.7565C109.782 98.9567 109.719 110.993 109.416 120.365C108.656 143.933 90.5384 141.435 90.5384 141.435L90.1158 143.005C90.1158 143.005 96.9225 145.232 105.605 140.96C112.529 137.557 113.37 120.458 113.37 120.458Z" fill="#184655"/>
<path d="M446.661 198.022C446.661 198.022 441.066 225.435 443.618 227.98C446.169 230.523 460.289 235.715 463.494 234.527C466.699 233.34 473.294 202.022 471.462 198.916C469.631 195.811 448.146 193.659 446.661 198.022Z" fill="#6C7DAC"/>
<path d="M448.932 279.411C448.932 279.411 449.298 282.559 449.298 283.093C449.298 283.628 449.298 283.628 449.298 283.628L449.035 284.172L448.932 284.386L450.821 287.029C450.821 287.029 458.405 287.142 458.574 287.142C458.744 287.142 457.56 285.314 457.56 285.314C457.56 285.314 455.051 283.431 454.6 282.11C454.15 280.788 454.983 278.035 454.983 278.035L448.932 279.411Z" fill="#F79191"/>
<path d="M412.371 260.576C412.371 260.576 409.67 262.247 409.25 262.579C408.831 262.911 408.831 262.911 408.831 262.911L408.568 263.453L408.464 263.668L405.213 263.835C405.213 263.835 400.41 257.983 400.304 257.85C400.199 257.717 401.685 258.049 401.685 258.049C401.685 258.049 404.717 258.458 406.037 257.989C407.356 257.52 410.023 254.902 410.023 254.902L412.371 260.576Z" fill="#F79191"/>
<path d="M436.921 231.042L407.823 255.746L412.305 262.07C412.305 262.07 440.859 244.185 442.424 243.972C443.989 243.762 446.446 244.312 446.741 245.45C447.038 246.589 447.949 280.288 447.949 280.288H455.718L459.768 237.288L436.921 231.042Z" fill="#B75742"/>
<path d="M478.841 195.807C480.993 194.4 486.05 188.99 487.764 187.149C487.782 186.932 487.946 185.68 489.323 184.091C490.296 182.968 491.033 180.405 491.671 181.132C492.309 181.86 490.726 183.894 491.45 183.908C492.175 183.922 495.773 179.891 496.351 180.548C496.929 181.206 493.275 184.79 493.923 184.802C494.571 184.814 497.537 181.184 498.356 182.116C499.173 183.046 494.469 186.064 494.908 186.562C495.346 187.061 498.262 185.084 498.92 185.833C499.578 186.582 494.808 188.347 495.189 188.355C495.571 188.362 498.322 188.287 498.344 188.815C498.368 189.412 491.38 190.341 490.525 191.377C488.699 194.273 485.45 199.566 482.16 201.889C478.133 204.73 468.827 210.756 468.827 210.756L464.205 204.804C464.205 204.8 476.288 197.474 478.841 195.807Z" fill="#F79191"/>
<path d="M491.45 185.188C491.629 185.539 491.705 185.921 491.731 186.306C491.717 186.368 491.886 187.613 490.822 188.559C491.238 187.79 491.695 186.934 491.45 185.188Z" fill="#F48C7F"/>
<path d="M436.183 189.294C434.475 187.375 431.013 180.836 429.843 178.611C429.883 178.397 430.052 177.147 429.139 175.253C428.496 173.916 428.456 171.25 427.65 171.784C426.843 172.319 427.838 174.697 427.134 174.52C426.431 174.343 424.015 169.515 423.285 170C422.554 170.485 425.141 174.896 424.511 174.739C423.881 174.582 421.972 170.304 420.937 170.99C419.905 171.675 423.654 175.814 423.1 176.181C422.546 176.549 420.25 173.878 419.419 174.431C418.588 174.983 422.729 177.93 422.359 177.836C421.988 177.743 419.351 176.954 419.193 177.459C419.014 178.029 425.514 180.747 426.068 181.969C427.07 185.241 428.818 191.196 431.386 194.295C434.527 198.086 441.927 206.33 441.927 206.33L447.951 201.79C447.951 201.79 438.21 191.569 436.183 189.294Z" fill="#F79191"/>
<path d="M426.797 175.758C426.532 176.052 426.357 176.4 426.233 176.765C426.231 176.829 425.739 177.985 426.52 179.175C426.321 178.325 426.104 177.381 426.797 175.758Z" fill="#F48C7F"/>
<path d="M441.064 193.689L435.633 200.752L442.376 210.752C442.376 210.752 441.742 218.183 440.77 220.502C439.797 222.82 434.172 232.347 434.172 232.347C434.172 232.347 447.833 240.694 461.197 239.472C461.197 239.472 464.961 220.164 466.019 218.308C467.075 216.452 477.268 207.263 477.268 207.263L472.319 199.294L463.777 204.017C463.777 204.017 448.162 201.501 447.409 200.752C446.657 200.003 441.064 193.689 441.064 193.689Z" fill="#F7CC7F"/>
<path d="M458.686 179.243C458.686 179.243 453.414 176.461 451.608 181.069C451.608 181.069 446.87 180.592 447.69 185.482C447.69 185.482 442.924 187.87 445.942 194.025C445.942 194.025 444.616 199.815 451.411 200.18C451.411 200.18 452.425 202.233 455.527 201.754C458.628 201.275 459.417 200.46 459.417 200.46C459.417 200.46 464.915 202.062 466.579 197.117C466.579 197.117 470.358 196.217 467.819 191.383C467.819 191.383 471.117 185.116 465.309 183.233C465.311 183.235 464.636 176.825 458.686 179.243Z" fill="#F47458"/>
<path d="M460.817 192.821C460.388 194.013 460.695 195.213 461.504 195.501C462.312 195.789 463.314 195.058 463.743 193.866C464.171 192.674 463.864 191.474 463.055 191.186C462.248 190.898 461.245 191.629 460.817 192.821Z" fill="#F79191"/>
<path d="M446.596 189.894C446.536 191.158 447.182 192.217 448.039 192.257C448.896 192.296 449.639 191.305 449.699 190.039C449.759 188.776 449.113 187.717 448.256 187.677C447.399 187.637 446.655 188.631 446.596 189.894Z" fill="#F79191"/>
<path d="M452.625 198.271C452.625 198.354 451.939 201.289 451.576 202.839C451.441 203.417 451.734 204.009 452.276 204.255C453.725 204.915 456.577 205.837 458.547 204.057C458.726 203.894 458.822 203.659 458.814 203.419L458.572 196.415L452.625 198.271Z" fill="#F79191"/>
<path d="M452.258 199.914C453.793 200.685 455.722 200.701 457.887 199.435C458.16 199.274 458.419 199.105 458.662 198.925L458.576 196.415L452.627 198.271C452.625 198.311 452.463 199.018 452.258 199.914Z" fill="#F48C7F"/>
<path d="M456.842 182.1C456.842 182.1 459.439 182.783 460.964 185.303C462.491 187.82 463.332 195.1 457.885 198.285C452.437 201.47 448.473 196.538 448.575 191.873C448.678 187.208 450.759 181.246 456.842 182.1Z" fill="#F79191"/>
<path d="M447.55 288.962C446.392 288.815 448.393 284.812 449.035 284.172L457.558 285.314C457.558 285.314 461.66 287.212 462.633 288.181C462.864 288.412 462.894 288.813 461.893 288.962C458.676 289.439 450.119 289.286 447.55 288.962Z" fill="#6C7DAC"/>
<path d="M405.644 267.655C406.644 268.255 408.464 264.355 408.568 263.453L401.685 258.051C401.685 258.051 396.376 256.533 395.303 257.602C394.331 258.571 403.372 266.294 405.644 267.655Z" fill="#6C7DAC"/>
<path d="M463.362 231.67C457.867 226.192 458.957 209.361 459.964 202.25L462.322 202.58C461.473 208.602 460.309 225.266 465.046 229.989L463.362 231.67Z" fill="#6C7DAC"/>
<path d="M439.912 222.24L439.645 220.106C443.917 208.066 447.827 200.295 447.867 200.218L449.994 201.287C449.956 201.362 445.449 211.974 439.912 222.24Z" fill="#6C7DAC"/>
<path d="M357.993 201.869C357.993 201.869 348.619 200.629 345.201 202.393C341.781 204.158 339.909 225.151 339.909 225.151L342.947 226.071C342.947 226.071 342.514 240.608 344.834 241.618C347.154 242.627 363.458 239.494 367.176 235.788C370.893 232.083 363.895 201.096 363.895 201.096L357.993 201.869Z" fill="#4B49AC"/>
<path d="M376.498 187.045C377.59 184.601 378.963 177.014 379.424 174.437C379.318 174.236 378.752 173.048 379.061 170.878C379.278 169.346 378.475 166.686 379.446 166.964C380.416 167.242 380.179 169.917 380.823 169.521C381.467 169.126 382.34 163.567 383.221 163.819C384.1 164.071 382.924 169.267 383.5 168.913C384.076 168.56 384.622 163.71 385.866 164.065C387.109 164.421 384.69 169.712 385.357 169.905C386.025 170.095 387.462 166.722 388.463 167.008C389.463 167.294 386.278 171.524 386.617 171.315C386.956 171.107 389.328 169.495 389.645 169.946C390.003 170.457 384.403 175.2 384.237 176.588C384.275 180.155 384.421 186.622 382.85 190.508C380.927 195.263 376.177 205.779 376.177 205.779L368.756 203.158C368.752 203.158 375.202 189.942 376.498 187.045Z" fill="#F79191"/>
<path d="M381.547 170.644C381.903 170.852 382.186 171.142 382.425 171.466C382.449 171.528 383.302 172.525 382.904 173.952C382.832 173.046 382.748 172.039 381.547 170.644Z" fill="#F48C7F"/>
<path d="M328.987 203.754C328.987 203.754 329.314 202.554 328.498 200.558C327.976 199.278 328.044 196.791 327.304 197.248C326.563 197.705 327.358 199.972 326.736 199.771C326.115 199.57 324.147 194.945 323.476 195.36C322.804 195.773 324.941 200.019 324.385 199.84C323.828 199.662 322.292 195.577 321.341 196.163C320.392 196.749 323.577 200.798 323.069 201.112C322.559 201.426 320.615 198.821 319.85 199.292C319.087 199.763 322.668 202.723 322.342 202.618C322.015 202.513 319.691 201.642 319.529 202.103C319.348 202.626 324.169 204.73 324.618 205.896C325.066 207.063 332.457 219.013 334.908 219.282C337.36 219.55 349.172 213.303 350.232 210.973C351.292 208.642 350.571 205.974 349.004 205.469C347.435 204.962 336.375 211.229 335.881 211.07C335.389 210.913 328.987 203.754 328.987 203.754Z" fill="#F79191"/>
<path d="M326.84 200.611C326.563 200.915 326.38 201.279 326.246 201.658C326.242 201.724 325.726 202.928 326.533 204.174C326.33 203.286 326.109 202.3 326.84 200.611Z" fill="#F48C7F"/>
<path d="M339.018 259.491C337.749 259.052 335.453 256.737 335.453 256.737C332.507 259.006 326.402 266.086 326.402 266.086C326.402 266.086 327.542 266.868 328.516 266.427C329.491 265.986 333.972 263.987 336.055 264.709C336.597 264.897 342.674 266.952 348.061 268.335C348.725 266.409 346.903 262.559 347.802 260.751C344.926 259.821 339.439 259.636 339.018 259.491Z" fill="#F79191"/>
<path d="M337.549 258.597C337.549 258.597 332.266 263.981 331.749 264.937C331.329 265.716 324.771 268.388 324.442 267.389C324.113 266.39 332.244 255.69 333.527 255.299C334.809 254.906 337.549 258.597 337.549 258.597Z" fill="#07345A"/>
<path d="M371.776 275.142C371.333 276.368 368.952 278.601 368.952 278.601C371.343 281.406 378.776 287.2 378.776 287.2C378.776 287.2 379.577 286.095 379.109 285.163C378.64 284.231 376.265 278.438 376.99 276.427C377.179 275.903 378.567 272.002 379.87 269.799C377.859 269.183 375.888 268.235 373.998 267.391C373.06 270.163 371.921 274.736 371.776 275.142Z" fill="#F79191"/>
<path d="M370.945 233.404C370.945 233.404 384.696 246.939 386.097 249.549C387.143 251.5 380.797 271.559 380.797 271.559C380.797 271.559 374.832 271.106 372.336 268.708C372.336 268.708 375.493 254.713 374.837 254.083C374.182 253.453 358.47 244.368 358.47 244.368L360.421 236.073L370.945 233.404Z" fill="#B75742"/>
<path d="M367.913 233.048C367.913 233.048 364.323 241.355 364.323 244.596C364.323 247.077 365.424 266.96 360.168 268.877C357.186 269.966 343.14 268.36 343.14 268.36L344.412 259.358C344.412 259.358 351.099 260.348 351.687 259.783C352.275 259.219 346.331 244.226 347.571 239.082C348.811 233.938 359.119 230.801 359.119 230.801L367.913 233.048Z" fill="#F47458"/>
<path d="M372.368 194.444C372.368 194.444 374.044 194.945 379.204 201.936L370.919 214.992L365.87 202.858L372.368 194.444Z" fill="#74A67E"/>
<path d="M360.291 202.98C360.291 202.98 364.866 202.465 366.512 201.869C368.16 201.273 378.969 236.831 375.188 237.64C367.291 239.331 346.78 243.835 346.78 243.835C346.78 243.835 346.423 241.802 347.529 238.294C349.444 232.216 350.529 218.31 350.529 215.858C350.529 214.418 343.044 219.411 343.044 219.411L339.909 208.114C339.909 208.114 349.464 204.289 352.811 203.6C353.746 203.409 360.291 202.98 360.291 202.98Z" fill="#74A67E"/>
<path d="M374.538 225.806C373.337 220.003 363.104 202.586 363.016 202.421L365.117 201.301C365.484 201.984 373.765 216.709 375.037 222.848L374.538 225.806Z" fill="#4B49AC"/>
<path d="M370.955 276.447C370.955 276.447 376.914 281.867 377.995 282.392C378.874 282.819 380.907 289.232 379.789 289.586C378.67 289.94 367.606 281.99 367.152 280.663C366.697 279.336 370.955 276.447 370.955 276.447Z" fill="#07345A"/>
<path d="M347.447 233.434L346.375 231.733C346.467 231.676 355.518 225.916 356.538 218.566C357.569 211.14 352.319 203.339 352.265 203.26L353.929 202.129C354.164 202.473 359.672 210.639 358.533 218.843C357.383 227.124 347.852 233.18 347.447 233.434Z" fill="#4B49AC"/>
<path d="M360.419 179.205C360.419 179.205 364.036 177.898 366.376 181.552C368.714 185.205 367.451 184.86 368.589 186.686C369.727 188.513 372.697 188.134 372.697 190.969C372.697 193.804 371.369 194.245 371.369 194.245C371.369 194.245 372.571 196.451 371.244 198.718C369.916 200.987 366.608 202.94 363.837 202.624C363.837 202.624 359.677 204.897 355.506 203.824C351.334 202.751 352.787 202.751 351.081 202.751C349.375 202.751 344.761 200.421 345.518 197.017C345.518 197.017 342.706 193.687 345.434 190.969C348.163 188.249 348.677 185.488 350.258 181.834C351.838 178.182 358.521 178.323 360.419 179.205Z" fill="#184655"/>
<path d="M362.837 198.656C362.837 198.656 362.685 203.673 363.158 204.144C363.63 204.615 364.29 205.396 363.596 206.594C362.9 207.792 359.883 207.027 358.476 206.341C357.126 205.684 356.255 204.46 356.255 204.46L356.959 196.512L362.837 198.656Z" fill="#F79191"/>
<path d="M360.83 200.736C359.861 200.399 358.167 199.745 356.859 197.629L356.957 196.516L362.835 198.658C362.835 198.658 362.797 199.882 362.817 201.177C361.996 201.144 361.292 200.897 360.83 200.736Z" fill="#B75742"/>
<path d="M355.922 190.84C355.922 190.84 355.779 187.89 353.963 188.464C352.145 189.036 353.531 193.489 355.037 193.342C356.544 193.196 355.922 190.84 355.922 190.84Z" fill="#F79191"/>
<path d="M361.635 181.206C361.635 181.206 364.479 181.142 365.932 183.348C367.385 185.553 368.966 191.853 366.564 196.201C364.162 200.548 361.097 199.477 359.833 199.036C358.569 198.595 356.072 197.619 354.808 193.554C353.544 189.491 354.461 180.356 361.635 181.206Z" fill="#F79191"/>
<path d="M273.453 181.802C272.259 180.775 271.35 177.55 271.582 177.318C271.883 177.014 272.997 177.23 273.35 177.365C273.702 177.498 274.129 177.622 274.482 177.757C274.834 177.89 275.225 177.741 275.424 177.314C275.624 176.888 274.332 176.05 273.83 175.847C272.259 175.22 267.723 174.385 267.246 174.276C266.682 174.147 260.223 166.301 257.795 163.789C257.795 163.789 257.795 163.789 257.797 163.789C253.946 159.557 250.199 155.015 249.794 154.566L239.245 132.473L229.618 133.176C229.618 133.176 240.979 157.859 241.688 159.029C242.025 159.585 251.714 168.703 251.718 168.699C256.772 172.889 261.237 176.567 262.074 177.3C262.074 177.3 262.967 180.564 264.077 182.456C264.789 183.666 273.236 181.963 273.453 181.802Z" fill="#F48C7F"/>
<path d="M234.624 115.374C234.624 115.374 242.047 114.071 245.736 140.98L233.12 144.487L227.87 130.267L234.624 115.374Z" fill="#F47458"/>
<path d="M249.378 203.153V217.108C249.378 219.808 251.574 221.998 254.283 221.998H284.958C287.666 221.998 289.863 219.808 289.863 217.108V203.153H249.378Z" fill="#B75742"/>
<path d="M288.185 218.455L289.859 217.14C289.859 217.13 289.859 217.118 289.859 217.108V216.234L287.605 218.006L285.195 216.133L287.595 214.247L289.859 216.007V215.105L288.173 213.794L289.859 212.469V211.563L287.593 213.343L285.183 211.469L287.583 209.584L289.859 211.354V210.452L288.161 209.131L289.859 207.796V206.89L287.581 208.68L285.171 206.806L287.571 204.921L289.857 206.699V205.797L288.147 204.468L289.817 203.155H288.665L287.567 204.017L286.459 203.155H285.299L286.991 204.47L284.591 206.355L282.181 204.482L283.871 203.155H282.719L281.603 204.031L280.475 203.155H279.315L281.025 204.486L278.625 206.371L276.216 204.498L277.924 203.157H276.772L275.638 204.049L274.492 203.157H273.332L275.06 204.502L272.66 206.387L270.25 204.514L271.976 203.157H270.824L269.672 204.063L268.508 203.157H267.348L269.096 204.516L266.696 206.401L264.287 204.527L266.031 203.157H264.879L263.707 204.076L262.523 203.157H261.363L263.129 204.531L260.729 206.417L258.319 204.543L260.083 203.159H258.931L257.741 204.094L256.539 203.159H255.379L257.163 204.547L254.763 206.433L252.354 204.559L254.135 203.159H252.983L251.776 204.108L250.556 203.159H249.396L251.2 204.561L249.374 205.996V207.796L251.211 209.224L249.374 210.667V212.449L251.221 213.887L249.374 215.34V217.104L251.233 218.551L250.008 219.514C250.125 219.723 250.259 219.92 250.404 220.108L251.813 219.002L254.223 220.875L253.003 221.833C253.31 221.914 253.629 221.968 253.956 221.99L254.801 221.326L255.67 222.002H256.83L255.379 220.873L257.779 218.988L260.189 220.861L258.738 222.002H259.89L260.769 221.312L261.656 222.002H262.816L261.345 220.857L263.744 218.972L266.154 220.845L264.683 222H265.835L266.732 221.294L267.639 222H268.799L267.31 220.841L269.71 218.956L272.12 220.829L270.631 222H271.783L272.698 221.28L273.623 222H274.783L273.276 220.827L275.676 218.942L278.085 220.816L276.578 222H277.731L278.665 221.267L279.608 222H280.768L279.241 220.814L281.641 218.928L284.051 220.802L282.524 222H283.676L284.629 221.251L285.544 221.962C285.857 221.924 286.16 221.859 286.451 221.765L285.205 220.796L287.605 218.91L288.942 219.951C289.082 219.759 289.205 219.554 289.317 219.339L288.185 218.455ZM287.017 213.794L284.617 215.68L282.207 213.806L284.607 211.92L287.017 213.794ZM255.359 211.541L257.759 209.655L260.169 211.529L257.769 213.415L255.359 211.541ZM257.191 213.868L254.791 215.753L252.381 213.88L254.781 211.994L257.191 213.868ZM260.747 211.978L263.157 213.852L260.757 215.737L258.347 213.864L260.747 211.978ZM261.325 211.525L263.725 209.64L266.134 211.513L263.735 213.399L261.325 211.525ZM266.712 211.964L269.122 213.838L266.722 215.723L264.313 213.85L266.712 211.964ZM267.29 211.511L269.69 209.626L272.1 211.499L269.7 213.385L267.29 211.511ZM272.678 211.95L275.088 213.824L272.688 215.709L270.278 213.836L272.678 211.95ZM273.254 211.497L275.654 209.612L278.063 211.485L275.664 213.371L273.254 211.497ZM278.643 211.936L281.053 213.81L278.653 215.695L276.244 213.822L278.643 211.936ZM279.219 211.481L281.619 209.596L284.029 211.469L281.629 213.355L279.219 211.481ZM284.597 207.257L287.007 209.131L284.607 211.016L282.197 209.143L284.597 207.257ZM281.609 204.933L284.019 206.806L281.619 208.692L279.209 206.818L281.609 204.933ZM278.631 207.271L281.041 209.145L278.641 211.03L276.232 209.157L278.631 207.271ZM275.644 204.947L278.053 206.82L275.654 208.706L273.244 206.832L275.644 204.947ZM272.666 207.287L275.076 209.161L272.676 211.046L270.266 209.173L272.666 207.287ZM269.678 204.963L272.088 206.836L269.688 208.722L267.278 206.848L269.678 204.963ZM266.7 207.301L269.11 209.175L266.71 211.06L264.301 209.187L266.7 207.301ZM263.713 204.976L266.122 206.85L263.723 208.736L261.313 206.862L263.713 204.976ZM260.737 207.315L263.147 209.189L260.747 211.074L258.337 209.2L260.737 207.315ZM257.747 204.99L260.157 206.864L257.757 208.749L255.347 206.876L257.747 204.99ZM254.771 207.331L257.181 209.204L254.781 211.09L252.372 209.216L254.771 207.331ZM249.382 206.892L251.782 205.006L254.191 206.88L251.791 208.765L249.382 206.892ZM249.394 211.555L251.793 209.669L254.203 211.543L251.803 213.428L249.394 211.555ZM251.813 218.092L249.404 216.218L251.803 214.333L254.213 216.206L251.813 218.092ZM254.803 220.416L252.393 218.543L254.793 216.657L257.203 218.531L254.803 220.416ZM257.779 218.078L255.369 216.204L257.769 214.319L260.179 216.192L257.779 218.078ZM260.769 220.402L258.359 218.529L260.759 216.643L263.168 218.517L260.769 220.402ZM263.744 218.064L261.335 216.19L263.735 214.305L266.144 216.178L263.744 218.064ZM266.732 220.388L264.323 218.515L266.722 216.629L269.132 218.503L266.732 220.388ZM269.71 218.048L267.3 216.174L269.7 214.289L272.11 216.162L269.71 218.048ZM272.698 220.372L270.288 218.499L272.688 216.613L275.098 218.487L272.698 220.372ZM275.676 218.034L273.266 216.16L275.666 214.275L278.075 216.148L275.676 218.034ZM278.663 220.359L276.254 218.485L278.653 216.599L281.063 218.473L278.663 220.359ZM281.641 218.02L279.231 216.146L281.631 214.261L284.041 216.135L281.641 218.02ZM284.629 220.345L282.219 218.471L284.619 216.586L287.029 218.459L284.629 220.345Z" fill="#F48C7F"/>
<path d="M290.582 203.153H247.466C246.914 203.153 246.466 202.706 246.466 202.155V198.166C246.466 197.613 246.914 197.168 247.466 197.168H290.582C291.137 197.168 291.583 197.615 291.583 198.166V202.155C291.585 202.706 291.137 203.153 290.582 203.153Z" fill="#F47458"/>
<path d="M260.844 197.168L270.125 206.826L277.663 197.168H260.844Z" fill="#FAE0B2"/>
<path d="M280.637 201.631C279.799 201.631 279.122 200.955 279.122 200.121V193.334C279.122 187.411 274.829 181.448 269.254 181.448L267.145 181.403C261.57 181.403 257.829 187.411 257.829 193.334V200.121C257.829 200.955 257.151 201.631 256.314 201.631C255.477 201.631 254.799 200.955 254.799 200.121V193.334C254.799 185.746 260.693 179.573 267.938 179.573H269.01C276.256 179.573 282.149 185.746 282.149 193.334V200.121C282.151 200.955 281.472 201.631 280.637 201.631Z" fill="#B75742"/>
<path d="M281.551 200.16C281.551 200.635 281.165 201.021 280.688 201.021C280.212 201.021 279.827 200.635 279.827 200.16C279.827 199.685 280.214 199.302 280.688 199.302C281.165 199.3 281.551 199.685 281.551 200.16Z" fill="#FAE0B2"/>
<path d="M257.261 199.449C257.261 199.924 256.874 200.307 256.4 200.307C255.923 200.307 255.539 199.922 255.539 199.449C255.539 198.974 255.925 198.589 256.4 198.589C256.874 198.589 257.261 198.974 257.261 199.449Z" fill="#FAE0B2"/>
<path d="M263.639 178.909C263.639 178.909 262.86 183.84 265.196 184.387C267.532 184.935 272.881 182.903 272.377 182.036C271.873 181.168 266.936 177.403 266.204 178.132C265.471 178.861 264.645 178.269 263.639 178.909Z" fill="#F79191"/>
<path d="M242.601 92.2748C241.17 82.9784 232.733 76.2946 223.909 80.8048C221.924 81.82 219.237 83.8784 217.868 85.6308C214.099 90.4529 213.186 96.4293 209.19 101.067C205.745 105.064 196.549 104.311 192.256 107.385C187.962 110.46 184.953 115.974 184.953 122.568C184.953 129.943 186.623 137.773 192.357 142.437C198.09 147.1 206.238 148.262 213.367 146.285C220.497 144.308 226.612 139.466 231.015 133.537C235.418 127.609 238.531 121.11 240.723 114.066C243.169 106.209 243.526 98.283 242.601 92.2748Z" fill="#184655"/>
<path d="M239.402 119.129C234.802 108.911 219.442 107.76 209.68 113.303C206.778 114.951 206.262 114.829 204.44 116.645C199.666 121.404 192.692 170.121 207.258 173.191C221.822 176.26 234.2 174.862 239.001 167.344C242.218 162.309 246.482 134.855 239.402 119.129Z" fill="#F7CC7F"/>
<path d="M240.187 270.604C240.187 270.604 240.929 278.68 240.44 281.315C240.375 281.668 240.231 282.114 240.064 282.606C239.561 284.082 240.939 288.593 240.939 288.593L259.401 288.66C260.408 288.664 259.734 288.028 258.917 287.444C257.578 286.491 256.499 285.861 252.234 283.874C251.955 283.745 250.94 283.121 250.576 282.904C249.649 282.356 248.714 281.488 247.907 280.615C246.563 279.163 246.358 272.046 246.358 272.046L240.187 270.604Z" fill="#F79191"/>
<path d="M250.576 282.902C245.708 284.21 242.091 283.407 240.062 282.622C239.559 284.096 238.615 289.081 239.179 289.081C243.809 289.081 247.727 289.955 260.994 289.747C261.468 289.739 261.41 288.114 261.102 287.754C260.242 286.763 250.94 283.119 250.576 282.902Z" fill="#355389"/>
<path d="M217.031 174.727C217.031 174.727 217.294 186.256 220.608 193.639C223.837 200.83 239.286 218.564 243.394 228.916C242.125 234.755 238.635 242.961 238.888 249.432C239.175 256.765 238.746 276.169 238.746 276.169L247.038 276.431L257.914 226.357L241.523 172.329L234.084 159.209L217.031 174.727Z" fill="#184655"/>
<path d="M181.608 259.122C181.608 259.122 176.514 266.092 174.269 267.852C173.067 268.796 169.805 270.063 169.46 271.623C169.115 273.183 184.239 286.983 184.239 286.983C185.04 287.691 184.951 286.711 184.707 285.674C184.311 283.975 183.89 282.717 181.885 278.148C181.754 277.85 181.383 276.642 181.243 276.213C180.889 275.126 180.753 273.779 180.723 272.517C180.673 270.417 185.521 264.589 185.521 264.589L181.608 259.122Z" fill="#F79191"/>
<path d="M181.243 276.208C176.438 273.846 174.112 270.673 173.044 268.627C171.604 269.453 167.734 271.214 168.073 271.706C170.747 275.577 173.524 280.387 184.265 289.502C184.65 289.828 186.226 287.949 186.23 287.444C186.246 286.055 181.383 276.638 181.243 276.208Z" fill="#355389"/>
<path d="M210.314 104.883C210.314 104.883 199.481 85.611 196.846 81.5141C194.211 77.4172 187.344 61.1391 187.099 60.4973C186.854 59.8556 191.827 52.1526 190.717 51.8883C189.607 51.6241 188.379 55.9494 187.195 55.4328C186.011 54.9163 182.551 44.5032 181.875 45.0198C180.612 45.9854 183.741 51.479 183.067 51.8247C182.393 52.1705 180.354 45.7808 179.033 45.9695C177.711 46.1583 181.546 51.8267 181.178 52.3274C180.809 52.8281 176.825 47.4875 176.105 48.6259C175.714 49.2438 179.766 53.289 178.989 53.6665C178.212 54.046 174.604 51.4353 174.223 52.1883C173.841 52.9413 177.558 53.9725 178.67 56.0011C179.782 58.0296 181.674 58.9078 182.459 62.6649C183.245 66.4221 184.42 80.022 188.447 86.807C192.473 93.5921 201.327 108.609 201.327 108.609L210.314 104.883Z" fill="#F79C8D"/>
<path d="M217.617 167.344C217.617 167.344 211.207 176.942 209.68 184.887C208.193 192.624 210.664 215.983 208.081 226.814C203.684 230.875 196.108 235.607 192.596 241.055C188.616 247.23 177.114 262.889 177.114 262.889L183.759 267.838L221.451 233.009L236.711 186.54L241.947 172.952L217.617 167.344Z" fill="#13375B"/>
<path d="M222.805 112.727C222.805 112.727 214.318 112.189 210.96 115.831C207.601 119.473 218.408 148.276 219.02 152.909C219.63 157.542 214.011 166.783 214.011 166.783C214.011 166.783 237.371 177.671 243.069 173.92C243.069 173.92 242.157 136.782 241.545 133.47C240.935 130.16 235.846 116.697 234.624 115.374C233.403 114.05 222.805 112.727 222.805 112.727Z" fill="#4B49AC"/>
<path d="M225.631 101.444C225.631 101.444 225.587 101.692 225.508 102.116C225.129 104.146 223.672 110.88 222.687 112.731C221.497 114.968 226.761 122.105 231.826 121.233C233.335 120.973 230.55 114.676 230.686 114.009C230.941 112.731 231.29 110.991 231.645 109.205C231.844 108.197 232.047 107.176 232.239 106.214C232.781 103.487 233.223 101.253 233.223 101.253L225.631 101.444Z" fill="#F79191"/>
<path d="M225.508 102.116C225.587 101.692 225.631 101.444 225.631 101.444L233.221 101.255C233.221 101.255 232.779 103.486 232.236 106.216C232.047 107.172 231.846 108.187 231.647 109.189C230.475 109.018 229.251 108.45 228.023 107.381C226.684 106.214 225.807 104.814 225.278 103.32C225.372 102.841 225.45 102.429 225.508 102.116Z" fill="#F47458"/>
<path d="M230.74 84.2796C230.74 84.2796 227.162 83.8684 224.92 86.7533C222.677 89.6382 220.26 98.563 225.83 103.413C231.401 108.265 236.907 102.773 237.722 96.9497C238.539 91.1283 238.856 84.069 230.74 84.2796Z" fill="#F79191"/>
<path d="M239.37 96.8644C238.704 98.1499 237.588 98.8631 236.877 98.4558C236.165 98.0485 236.127 96.6756 236.791 95.3902C237.457 94.1047 238.573 93.3914 239.284 93.8007C239.998 94.206 240.036 95.5789 239.37 96.8644Z" fill="#F79191"/>
<path d="M231.14 83.3241C231.14 83.3241 226.361 91.8099 222.94 92.2013C219.52 92.5927 219.072 97.1028 219.072 97.1028C219.072 97.1028 220.293 86.7137 223.68 84.7089C227.066 82.7062 231.14 83.3241 231.14 83.3241Z" fill="#184655"/>
<path d="M223.837 94.3352C224.116 95.8412 223.556 97.2241 222.588 97.4228C221.619 97.6215 220.61 96.5585 220.331 95.0525C220.052 93.5464 220.612 92.1636 221.581 91.9649C222.55 91.7662 223.56 92.8292 223.837 94.3352Z" fill="#F79191"/>
<path d="M207.316 98.6387C207.316 98.6387 219.299 111.458 221.079 116.624C222.861 121.789 219.343 129.178 214.483 129.502C209.624 129.824 198.813 106.751 198.813 106.751L207.316 98.6387Z" fill="#4B49AC"/>
<path d="M221.28 110.506C226.564 117.555 228.976 128.741 225.412 139.52C223.943 143.78 222.285 147.908 219.123 152.17C215.139 157.463 212.01 158.85 212.285 158.691L211.111 156.418C211.131 156.402 212.676 155.586 214.593 153.646C214.703 153.507 218.998 149.553 221.93 141.717C228.808 124.297 219.161 113.234 218.998 112.821C218.93 112.729 218.866 112.429 218.82 112.376L221.28 110.506Z" fill="#F7CC7F"/>
<path d="M242.491 153.535C240.903 132.443 232.123 114.382 232.027 114.265L234.419 114.072C234.527 114.204 237.1 115.606 239.543 121.446C241.561 126.268 243.837 133.841 243.873 143.517C243.879 145.522 242.491 153.535 242.491 153.535Z" fill="#F7CC7F"/>
</g>
<defs>
<clipPath id="clip0">
<rect width="555" height="289" fill="white"/>
</clipPath>
</defs>
</svg>
