<svg xmlns="http://www.w3.org/2000/svg" width="56" height="39" viewBox="0 0 56 39">
    <path fill="#7EBBFF" fill-rule="nonzero" d="M6.18 19.87A15.62 15.62 0 0 1 6 17.5C6 8.94 12.94 2 21.5 2 30.06 2 37 8.94 37 17.5c0 1.582-.237 3.108-.677 4.545a5 5 0 1 1-4.047 6.596A15.449 15.449 0 0 1 21.5 33c-.867 0-1.717-.071-2.544-.208A7.001 7.001 0 1 1 6.17 28.123 4.995 4.995 0 0 1 4 24c0-1.715.864-3.229 2.18-4.13zM39 7a2 2 0 1 1 0-4 2 2 0 0 1 0 4zM2 20a2 2 0 1 1 0-4 2 2 0 0 1 0 4zm53 4a1 1 0 1 1 0-2 1 1 0 0 1 0 2zM34 4a1 1 0 1 1 0-2 1 1 0 0 1 0 2zM21 37a1 1 0 1 1 0-2 1 1 0 0 1 0 2zM36.5 1a.5.5 0 1 1 0-1 .5.5 0 0 1 0 1z"/>
</svg>
