<svg xmlns="http://www.w3.org/2000/svg" width="48" height="51" viewBox="0 0 48 51">
    <path fill="#7EBBFF" fill-rule="nonzero" d="M14.41 7.005a15.62 15.62 0 0 1 1.89-1.442c7.179-4.662 16.778-2.622 21.44 4.558 4.663 7.18 2.622 16.779-4.557 21.441a15.498 15.498 0 0 1-4.18 1.908 5 5 0 1 1-7.736.198 15.449 15.449 0 0 1-9.525-6.663 15.608 15.608 0 0 1-1.212-2.248 7.001 7.001 0 1 1-3.047-13.265 4.995 4.995 0 0 1 2.276-4.066 4.995 4.995 0 0 1 4.65-.42zm28.668 20.516a2 2 0 1 1 3.355-2.179 2 2 0 0 1-3.355 2.179zM12.024 3.57a2 2 0 1 1 3.355-2.18 2 2 0 0 1-3.355 2.18zm25.511 46.627a1 1 0 1 1 1.678-1.09 1 1 0 0 1-1.678 1.09zm5.336-28.505a1 1 0 1 1 1.678-1.089 1 1 0 0 1-1.678 1.09zm-34.756 7.07a1 1 0 1 1 1.677-1.089 1 1 0 0 1-1.677 1.09zm38.634-6.607a.5.5 0 1 1 .838-.545.5.5 0 0 1-.838.545z"/>
</svg>
