<svg xmlns="http://www.w3.org/2000/svg" width="93" height="99" viewBox="0 0 93 99">
    <path fill="#7EBBFF" fill-rule="nonzero" d="M27.66 13.596a30.44 30.44 0 0 1 3.684-2.81c13.991-9.086 32.699-5.11 41.785 8.882 9.086 13.991 5.11 32.7-8.882 41.785a30.203 30.203 0 0 1-8.148 3.718c.284.33.55.683.793 1.059 2.931 4.513 1.649 10.548-2.865 13.479-4.513 2.93-10.548 1.648-13.479-2.865-2.32-3.574-2-8.101.475-11.286A30.107 30.107 0 0 1 22.462 52.57a30.417 30.417 0 0 1-2.361-4.379c-6.127 3.065-13.71 1.102-17.53-4.78-4.103-6.318-2.307-14.767 4.012-18.87a13.578 13.578 0 0 1 7.579-2.202 9.734 9.734 0 0 1 4.435-7.924 9.734 9.734 0 0 1 9.063-.82zm55.872 39.981a3.898 3.898 0 1 1 6.537-4.245 3.898 3.898 0 0 1-6.537 4.245zM23.012 6.902a3.898 3.898 0 1 1 6.538-4.246 3.898 3.898 0 0 1-6.538 4.246zm49.717 90.87a1.949 1.949 0 1 1 3.269-2.123 1.949 1.949 0 0 1-3.269 2.123zm10.399-55.551a1.949 1.949 0 1 1 3.269-2.123 1.949 1.949 0 0 1-3.269 2.123zM15.393 56a1.949 1.949 0 1 1 3.27-2.123A1.949 1.949 0 0 1 15.392 56zm75.292-12.877a.974.974 0 1 1 1.634-1.062.974.974 0 0 1-1.634 1.062z"/>
</svg>
