<svg xmlns="http://www.w3.org/2000/svg" width="56" height="39" viewBox="0 0 56 39">
    <path fill="#7EBBFF" fill-rule="nonzero" d="M49.82 19.13c.118.772.18 1.564.18 2.37C50 30.06 43.06 37 34.5 37 25.94 37 19 30.06 19 21.5c0-1.582.237-3.108.677-4.545a5 5 0 1 1 4.047-6.596A15.449 15.449 0 0 1 34.5 6c.867 0 1.717.071 2.544.208a7.001 7.001 0 1 1 12.785 4.669A4.995 4.995 0 0 1 52 15a4.995 4.995 0 0 1-2.18 4.13zM17 32a2 2 0 1 1 0 4 2 2 0 0 1 0-4zm37-13a2 2 0 1 1 0 4 2 2 0 0 1 0-4zM1 15a1 1 0 1 1 0 2 1 1 0 0 1 0-2zm21 20a1 1 0 1 1 0 2 1 1 0 0 1 0-2zM35 2a1 1 0 1 1 0 2 1 1 0 0 1 0-2zM19.5 38a.5.5 0 1 1 0 1 .5.5 0 0 1 0-1z"/>
</svg>
