<?xml version="1.0" encoding="utf-8"?>
<!-- Generator: Adobe Illustrator 21.1.0, SVG Export Plug-In . SVG Version: 6.00 Build 0)  -->
<svg version="1.1" id="Layer_1" xmlns="http://www.w3.org/2000/svg" xmlns:xlink="http://www.w3.org/1999/xlink" x="0px" y="0px"
	 viewBox="0 0 128 128" style="enable-background:new 0 0 128 128;" xml:space="preserve">
<style type="text/css">
	.st0{fill:none;stroke:#FFFFFF;stroke-width:4;stroke-linecap:round;stroke-linejoin:round;stroke-miterlimit:10;}
	.st1{fill:#D7BE6B;}
</style>
<path class="st0" d="M104,101.1"/>
<g>
	<path class="st1" d="M33.6,52.7C33.6,52.7,33.6,52.7,33.6,52.7C33.6,52.7,33.6,52.7,33.6,52.7L33.6,52.7L33.6,52.7
		C33.6,52.7,33.6,52.7,33.6,52.7z"/>
	<path class="st1" d="M6.5,96.2c-0.2,0-0.4,0-0.5,0C6.1,96.3,6.3,96.3,6.5,96.2z"/>
	<path class="st1" d="M127.1,63.2c-0.3-1.2-2.6-9.1-8-13.6c-10.6-9-26.6-6-31.2-4.5c-1.9,0.6-3.7,0.5-5.5-0.4
		c-0.4-0.2-0.8-0.4-1.2-0.6c0.8,0.8,1.4,1.7,1.7,2.7c0.5,1.3,0.6,2.7,0.7,4.1c0.1,2-0.3,3.9-0.5,5.9c-0.2,0.9-0.4,1.8-0.7,2.8
		c-0.8,3.3-1.9,6.4-3.5,9.4c-0.6,1.1-1.2,2.2-1.9,3.3h0c-1.7,2.5-3.6,4.8-6.4,6.4c2,1,3.1,2.6,4.2,4.3c1.2,1.8,2.4,3.6,3.9,5.2l0,0
		v0c1.9,2.2,4.1,4,6.7,5.5h0c1.7,1.2,3.5,2,5.4,2.7c1.4,0.5,2.9,1,4.4,1.1l0,0l0,0c3.2,0.8,6.4,0.6,9.6,0.1
		c4.4-0.8,8.2-2.7,11.7-5.3c0.3-0.3,2.1-1.8,2.4-2c1.5-1.3,2.8-2.8,3.9-4.4c0.4-0.6,2-3,2.3-3.7C126.5,80,129.5,72.5,127.1,63.2z
		 M82.9,45.5c0,0,0-0.1,0-0.1C82.9,45.4,83,45.4,82.9,45.5C83,45.4,83,45.4,82.9,45.5z M86.5,63c-1.6,3.8-2.2,7.9-1.9,12
		c0.2,2.2,0.6,4.4,1.5,6.5c0.1,0.1,0.1,0.2,0.2,0.3c0,0,0,0-0.1,0c-1.7-2.7-2.4-5.8-2.8-9c-0.4-3.6,0.6-7.1,0.6-7.3
		c0.6-2.1,2.3-7.1,7.6-11.5c1.1-0.9,2.1-1.8,3.4-2.4c-1.9,1.8-6,6.4-6.2,6.7C87.9,59.8,87.1,61.4,86.5,63z M91.1,56.5
		C91.1,56.5,91.1,56.5,91.1,56.5C91.1,56.5,91.1,56.5,91.1,56.5C91.1,56.5,91.1,56.5,91.1,56.5z M97.1,89.7l-6.4-8.9l8.3-5l-4.7-8.3
		l8.8-4l-3.6-8.9l10.5-2.4l0.9,1.3l-8.8,2.3l4,8.8l-9,3.6l4.5,8.8l-8.1,4.1l5.2,7.6L97.1,89.7z M99.5,82.1l7.2-4.3l-4-7.1l7.6-3.4
		l-3.1-7.7l9-2l0.8,1.1l-7.5,2l3.4,7.6l-7.7,3.1l3.8,7.5l-7,3.5l4.5,6.5l-1.4,0.8L99.5,82.1z M114.9,93C114.9,93,114.9,93,114.9,93
		C114.9,93,114.9,93,114.9,93C114.9,93,114.9,93,114.9,93C114.9,93,114.9,93,114.9,93C114.9,93,114.9,93,114.9,93z M124.7,76.1
		c-1,5.5-4,9.8-8.1,13.4c-0.7,0.6-1.7,1.1-2.2,2c0,0,0,0,0,0c-0.2,0.1-0.4,0.2-0.5,0.3c-3.6,2.3-7.5,3.6-11.8,3.7c0,0,0,0,0,0
		c0-0.1-0.1-0.3-0.2-0.2c-0.4,0.1-0.2-0.1-0.2-0.3c0,0,0,0,0,0c0.3,0.3,0.6,0.2,1,0.1c4-1,7.7-2.6,11-5.1c0.3-0.2,0.6-0.4,0.6-0.7
		c0.4,0,0.6-0.2,0.9-0.4c3.8-3.4,6.5-7.4,7.9-12.3c0.9-3.2,1.3-6.4,0.7-9.5C124.7,69.8,125.3,72.9,124.7,76.1z"/>
	<path class="st1" d="M80.2,43.4c-0.8-0.9-1.7-1.7-2.5-2.6c-0.5-0.1-0.7-0.5-1.2-0.7c-0.2-0.1-0.3-0.2-0.5,0c-0.1,0.1,0,0.3,0,0.5
		c0.1,0.3,0.5,0.5,0.4,0.9c0.4,0.8,0.9,1.6,1.1,2.6c0.9,3.2,0.7,6.5-0.1,9.7c-0.3,1.4-0.1,2.7,0.4,3.9c0.5,2,1.3,3.9,2.7,5.6
		c0.3-0.2,0.4-0.5,0.5-0.7c0.9-2.2,1.5-4.5,1.8-6.8c0.2-1.8,0.4-3.6,0.1-5.4v0C82.7,47.6,82,45.3,80.2,43.4z"/>
	<path class="st1" d="M84,44.9c0.3-0.1,0.5-0.1,0.8-0.1c1.9,0,3.7-0.6,5.3-1.6c1-0.6,2.1-1.3,2.3-2.6c0-0.1,0-0.2,0-0.3
		c0-0.3-0.1-0.6-0.4-0.6c-0.4,0-0.3,0.3-0.3,0.6c-0.1,0.4-0.3,0.7-0.7,0.8c-1.3,0.7-2.6,0.8-4,0c-1.6-0.7-2.7-2-3.3-3.6
		c-0.1-0.5-0.3-1.1-0.3-1.6c-0.1-0.5-0.2-0.6-0.6-0.3c-1.2,0.6-2.3,1.4-3.2,2.3c-1.2,1.2-1.2,1.2,0.4,1.9c0.2,0.1,0.4,0.2,0.6,0.4
		c1.6,1.1,2.9,2.3,3,4.4C83.6,44.8,83.8,44.9,84,44.9z"/>
	<path class="st1" d="M59.3,78c0,0.1,0,0.1,0,0.2l0,0c-0.3,0.1-0.6,0.1-0.9,0.3c1,0.2,2,0.2,2.9,0.3c2.4,0.2,4.7,0.1,7.1,0
		c1.9,0,3.3-1,4.5-2.3c0.4-0.4,0.9-0.9,1.3-1.3c1.3-1.5,2.5-2.9,3.4-4.7l0,0c0.8-1.4,1.7-2.7,2.1-4.3c0.3-1.1,0.8-1.8-0.5-3
		c-0.3-0.2-0.5-0.6-0.6-1c-0.6-1-0.9-2.1-1.3-3.1c-0.1-0.8-0.3-1.6-0.7-2.4c-0.4,1.3-0.8,2.4-1.1,3.6l0,0c-0.1,0.1-0.1,0.3-0.2,0.4
		c-1.7,4.2-3.9,8.1-6.9,11.5c-1.8,2-3.7,3.8-6.2,4.9c0.3-0.5,0.8-0.6,1.3-0.9c3.5-2.4,6-5.7,8.2-9.3c0.7-1.2,1.5-2.4,1.9-3.8l0,0
		c0.4-0.9,0.8-1.7,1.2-2.6c1.3-3.1,2.2-6.2,2.5-9.5c0.4-3.7,0.5-7.4-2-10.6c-0.3-0.7-1-0.7-1.6-0.9c-2.3-1.2-4.6-0.9-6.7,0.6
		c-0.2,0.2-0.6,0.3-0.4,0.6c0.1,0.3,0.5,0.2,0.8,0.1c0.2-0.1,0.5-0.2,0.7-0.2c1.4-0.3,3.3,0.4,4,1.4c0.8,1,1.3,2.1,1.6,3.3
		c0.6,3.2,0.1,6.2-0.6,9.3c-0.8,3.2-2.2,6.2-3.7,9.2c-0.1,0.2-0.3,0.4-0.4,0.5c-1.4,2.2-3,4.3-4.9,6.1c-6.7,6.2-10.7,2.1-10.7-1.2
		c0-0.9,0-1.8,0-2.7l0,0c0-0.3,0.1-0.6,0.1-0.9c0-0.3,0-0.6,0.1-0.8c-1.2,2.2-1.9,4.4-1.7,6.9v0c0.1,2.2,1.2,3.9,3.1,5.2
		C56.2,77.9,57.7,78.1,59.3,78z"/>
	<path class="st1" d="M74.6,94c-2.1-0.3-4-1.1-5.8-2.1c-2.4-1.6-4.2-3.7-5-6.5v0c-0.2-1.3-0.5-2.5-0.6-3.8c-0.1-0.4-0.3-0.4-0.5-0.3
		c-1.6,0-3.2,0.1-4.8-0.5c0.1,1.4,0.3,2.6,0.8,3.8c0.3,1.2,0.8,2.3,1.6,3.2c1.4,2.4,3.3,4.4,5.7,5.9h0c1.6,1.2,3.5,1.8,5.5,2.1
		c0.1,0,0.2,0.1,0.4,0.1c3,0.5,5.9,0,8.7-1.2c1-0.4,2-0.9,2.8-2c-0.6,0.2-1.1,0.4-1.5,0.6C79.4,94,77,94.1,74.6,94z"/>
	<path class="st1" d="M49.7,63.8c3.1-1.9,5.8-3.8,9.5-3.7h0l0,0c1.1,0.1,2.1,0.3,3.1,0.7c0.7,0.3,1.4,0.7,2,1.1
		c0.3,0.2,0.4,0.1,0.6-0.2c0.7-1.3,1.4-2.5,2.2-3.8c1-1.6,2.1-3.1,3.1-4.7c0.2-0.3,0.3-0.6-0.2-0.7c-3.3-1-6.6-1.1-10-0.1
		c-0.2,0-0.4,0-0.7,0.1c-2.6,0.8-5.1,2-7.3,3.6c-1.4,1-2.7,2-3.5,3.5c-1.1,1.3-2.1,2.8-2.9,4.3c-0.7,0.9-1.1,2-1.7,3
		c-1.9,3.4-2.3,7.6-2.3,8.9C42.4,74,44.2,67.2,49.7,63.8z"/>
	<path class="st1" d="M74.4,35.9c0.6,0.2,1.2,0.6,1.8,0.8c0.7,0.5,1.3,1,1.8,1.6c0.3,0.4,0.4,0.3,0.7,0c0.8-1,1.8-2,2.9-2.8
		c1.6-1.2,3.4-1.7,5.3-2c1.4,0,2.9,0,4.2,0.5c4.6,1.4,7.8,4.6,8.2,5c0.2,0.1,0.3,0.4,0.6,0.2c0.2-0.2,0-0.4-0.1-0.6
		c-0.3-0.8-3.9-11.1-17.9-8.1c-3,0.7-5.5,2.4-7.7,4.5C73.9,35.5,73.7,35.7,74.4,35.9z"/>
	<path class="st1" d="M44.3,64.4L44.3,64.4L44.3,64.4c0.8-1.2,1.6-2.3,2.5-3.5c-0.9,0-1.9,0.1-2,0.1c-3.4,0.7-6.4,2-9.1,4.1
		c-2.2,1.7-4.1,3.8-5.1,6.5v0c-1.1,2.3-1.2,4.7-1.4,7.2c-0.1,1.9-0.3,3.8-1.3,5.5c-1,1.6-2.4,1.9-3.8,0.9c-0.4-0.5-0.7-1.1-0.5-1.8
		c0.1-0.7,0.7-1.1,1.4-1.1c0.5,0,0.8,0.3,0.9,0.8c0.1,0.7-0.4,0.9-0.9,1c0,0-0.1,0.1-0.1,0.1c0.8,0.8,1.8,0.7,2.4-0.3
		c0.5-0.8,0.2-1.9-0.6-2.6c-1.3-1.2-3.5-0.9-4.8,0.6c-1.5,1.8-1.4,4.4,0.4,6.3l0,0v0c1.1,1.2,2.6,1.5,4.1,1.5
		c4.7-0.2,7.7-3.2,8.7-7.3c0.2-0.5,0.4-1,0.7-1.4c1.2-2,2.5-3.9,5.2-3.9c0.2,0,0.3-0.1,0.3-0.4c-0.1-1.1-0.1-2.2-0.1-3.2
		c0.1-0.5,0.2-1,0.3-1.5C41.9,69.1,43,66.7,44.3,64.4z"/>
	<path class="st1" d="M74.6,88.4c-0.4,0.2-0.6-0.1-0.8-0.4c-0.2-0.2-0.3-0.5-0.6-0.8c0,0.3,0,0.5,0,0.6c0.1,1.1,0.5,1.6,1.3,1.7
		c0.8,0,1.4-0.5,1.6-1.5c0.1-0.8,0-1.6-0.3-2.4c-0.7-2.2-2-4-3.8-5.5c-0.5-0.4-0.7-0.4-1,0.2c-0.3,0.5-0.9,0.8-1.4,1
		c-1,0.4-2.1,0.5-3.2,0.5c-0.6-0.1-1.2-0.2-1.8-0.4c-0.5-0.2-0.8,0-0.7,0.5c0,0.6,0.4,4,1.5,5.1c2-2,4.2-3,7-2h0l0,0
		c0.9,0.5,1.7,1,2.2,1.9c0.1,0.2,0.2,0.4,0.2,0.6C74.9,87.9,74.9,88.3,74.6,88.4z"/>
	<path class="st1" d="M48.6,72.1c-1.1,0.4-1.5,1.5-1.6,2.7c0.8-0.8,1.4-1.8,2.6-0.9h0v0c0.4,0.6,0.1,1.1-0.4,1.5
		c-0.7,0.6-1.4,0.3-2,0c-0.8-0.8-1-1.8-0.8-2.9c0.2-1,0.7-1.8,1.1-2.8l0,0c0,0,0.1-0.1,0.1-0.1c2.5-3.7,6-6.1,10.2-7.5
		c1.2-0.4,2.5-0.5,3.7-0.7c-1.7-0.4-3.4-0.5-5.1,0c-0.1,0-0.2,0-0.3,0c-3.9,1.2-7,3.4-9.6,6.5h0c-1,1.1-1.8,2.3-2.4,3.6
		c-0.4,0.6-0.6,1.3-0.8,2c-0.4,1.6-0.3,3,0.9,4.2c0.6,0.7,1.3,1.2,2.3,1.2c2.2,0.7,4.9-1,5.5-3.4c0.3-1,0.1-1.9-0.7-2.7
		C50.5,71.9,49.6,71.7,48.6,72.1z"/>
	<path class="st1" d="M68.8,50.8C68.8,50.8,68.8,50.9,68.8,50.8C68.8,50.9,68.8,50.9,68.8,50.8C68.8,50.9,68.8,50.8,68.8,50.8z"/>
	<path class="st1" d="M70.9,52c0,0-1.5-2-5.2-3.9c0.4,0.2,0.7,0.4,1,0.7C68.4,49.5,69.6,50.8,70.9,52z"/>
	<path class="st1" d="M66.2,47.2L66.2,47.2c0.8,0.4,2.3,1.4,2.8,1.8c-0.3-0.6-0.7-1.3-1.3-1.8c-2.9-2.9-6.2-3.6-7.8-4
		c-5.8-1.7-3.4-4.6-1.4-3.4c0.6,0.3,1.3,1.9,1.3,2.4c0.8-1.8,0.6-3.5-1.6-4.2c-2.7-0.8-6.3,1.6-5.9,5c0.1,0.2,0.1,0.4,0.2,0.6
		C57.9,44.1,62.4,45.3,66.2,47.2L66.2,47.2z"/>
	<path class="st1" d="M66.7,48.8c-0.3-0.2-0.7-0.5-1-0.7c-2.9-1.5-7.2-3-13.3-3.5c-1.7,0-3.6,0.1-5.6,0.5c-2.2,0.5-4.5,1.2-6.9,2.5
		c-2.5,1.3-4.7,3-6.8,4.8c-3.2,2.8-6.2,5.8-9.5,8.5c-1.9,1.6-3.9,3-6.4,3.4c-1.9,0.3-3.2-0.2-3.8-1.5l0,0v0c0-0.2-0.1-0.3-0.1-0.5
		c-0.2-1.1,0.2-2,1.2-2.1c1-0.2,1.6,0.5,1.8,1.7c0,0.2-0.1,0.5,0.2,0.7c0.9-1.1,1.1-2.4,0.5-3.3c-0.6-1.1-1.7-1.6-2.9-1.6
		c-3.1,0-5.1,3.3-3.9,6.3l0,0h0c0.6,1.6,1.6,2.8,3.1,3.6c0.2,0.2,0.5,0.3,0.7,0.4c2.2,0.8,4.4,0.4,6.5-0.4c1.7-0.6,3.2-1.7,4.8-2.6
		l0,0l0,0c-0.1,0.3-0.3,0.4-0.6,0.6c-2,1.7-3.9,3.6-5.5,5.8v0h0c-1.1,1.5-1.9,3.1-2.5,4.8c-0.4,0.4-0.4,1-0.6,1.5
		c-1.1,3.1-2.3,6.2-3.4,9.4c-0.6,0.9-1,1.8-1.7,2.6c-1.5,1.8-3.2,3.4-5.9,2.8c0,0.1-1.5-0.4-2-1.7c-0.3-0.8-0.2-1.4,0.3-1.9
		c0.6-0.5,1.2-0.6,1.8-0.2c0.7,0.4,0.8,1,0.5,1.7c-0.1,0.1-0.1,0.3,0,0.4c0.1,0.1,0.3,0,0.4,0c0.2-0.1,0.4-0.3,0.5-0.5
		c0.6-0.9,0.4-2-0.7-2.8c-1-0.8-2.2-0.9-3.3-0.4c-1.5,0.6-2.5,1.7-2.7,3.4c-0.2,2,0.7,3.5,2.2,4.6c1.8,1.5,4.6,1.6,5.5,1.5
		c4.1-0.6,7.5-2.7,10.4-5.6l0,0c1-0.7,1.7-1.6,2.5-2.4c0.2-0.1,0.3-0.3,0.1-0.5C20.2,87,20.1,86,19.8,85l0,0l0,0
		c0-1.4,0.3-2.8,0.8-4.1c1.6-3.8,4-7.2,6.7-10.3c4.2-4.8,9.3-8.2,15.6-9.6c1.4-0.3,2.9-0.4,4.5-0.6c-0.5-0.3-1.1-0.4-1.4-0.6
		c-1.2-0.5-2.1-0.6-3.2-0.9h0v0c-2-0.3-5-0.2-6.6,0.3c-3,0.8-5.6,2.2-8.2,3.8c-0.2,0.1-0.4,0.5-0.7,0.2l0,0c0,0,0,0,0,0
		c0.3-0.2,0.6-0.5,0.9-0.7c4.4-3.9,9.4-5.6,15.3-4.3h0l0,0c2,0.4,3.1,1.5,3.7,1.1c0.5-0.3,1-0.6,1.4-1.1c1.3-1.5,2.7-2.8,4.4-4
		c3.4-2.3,7-3.6,11.1-3.6c2.3,0.2,4.6,0.6,6.8,1.4C69.6,50.8,68.4,49.5,66.7,48.8z M33.6,52.7L33.6,52.7L33.6,52.7
		C33.6,52.7,33.6,52.7,33.6,52.7C33.6,52.7,33.6,52.7,33.6,52.7C33.6,52.7,33.6,52.7,33.6,52.7z M68.8,50.8
		C68.8,50.8,68.8,50.9,68.8,50.8C68.8,50.9,68.8,50.9,68.8,50.8C68.8,50.9,68.8,50.8,68.8,50.8z"/>
</g>
</svg>
