<?xml version="1.0" encoding="utf-8"?>
<!-- Generator: Adobe Illustrator 21.1.0, SVG Export Plug-In . SVG Version: 6.00 Build 0)  -->
<svg version="1.1" id="Layer_1" xmlns="http://www.w3.org/2000/svg" xmlns:xlink="http://www.w3.org/1999/xlink" x="0px" y="0px"
	 viewBox="0 0 128 128" style="enable-background:new 0 0 128 128;" xml:space="preserve">
<style type="text/css">
	.st0{fill:none;stroke:#FFFFFF;stroke-width:4;stroke-linecap:round;stroke-linejoin:round;stroke-miterlimit:10;}
	.st1{fill:#b82f95;}
</style>
<path class="st0" d="M104,101.1"/>
<g>
	<path class="st1" d="M64,128c-1.2-0.5-2.3-0.9-3.3-1.5c-15.9-9.5-31.7-18.9-47.6-28.4C9.5,95.9,8.9,93.8,11,90
		C27.1,61.1,43.2,32.3,59.2,3.4c1.1-2,2.4-3.5,4.8-3.4c2.4,0,3.7,1.6,4.8,3.6c16,28.8,32.1,57.5,48.1,86.3c2.2,3.9,1.6,6.1-2.2,8.3
		c-15.7,9.4-31.4,18.8-47.1,28.1C66.5,127,65.3,127.4,64,128z M58.3,98.3c-3.7-2.2-7.3-4.4-11-6.6c-2.7-1.7-5.2-3.5-8-5.1
		c-1.1-0.6-2.7-1.1-3.8-0.8C28.9,87.6,23,91,16.8,94.9c15.2,9.1,29.8,17.8,44.9,26.8c0-6.1,0.1-11.6,0-17c-0.1-3.3,1.1-6,3.5-8.1
		c1.6-1.4,3.4-2.9,5.4-3.8c5.4-2.5,9.7-6.1,12.1-12c1.1,1.7,2,3.1,3,4.5c-2.5,4.7-6.3,8-10.9,10.5c-2.1,1.1-4.2,2.4-6,3.9
		c-1,0.8-2.1,2.1-2.2,3.2c-0.2,6.1-0.1,12.2-0.1,18.8c15-9,29.6-17.7,44.6-26.7c-5.9-3-11.2-5.8-16.7-8.3c-3.9-1.8-6.6-4.6-8.2-8.5
		c-1.1-2.7-2-5.6-2.8-8.4c-2-7.8-6.8-12.9-14.5-15.2c-0.9-0.2-1.7-0.5-2.7-0.7c3.2-4.6,3.2-4.6,7.9-2.4c7.1,3.4,12,8.8,13.6,16.5
		c1.6,8.1,5.2,14,13.3,16.8c2.2,0.7,4.1,2,6.2,3c1.1,0.6,2.3,1.1,3.5,1.6c0.1-0.2,0.2-0.3,0.4-0.5C96.4,62.6,81.8,36.3,67.1,10
		c-0.3,0.1-0.5,0.1-0.8,0.2c0,1,0,2,0,3c0,9.4-0.2,18.8,0.1,28.2c0.2,5.5-2.1,9.2-6.4,12c-1.6,1-3.3,2-5,2.8
		c-5.4,2.7-8.9,7-10.2,12.8c-0.7,3.2-0.5,6.5-0.7,9.7c-5-1.5-5-1.5-4.6-6.8c0.7-9.2,5.5-15.7,13.4-20.1c2.2-1.2,4.5-2.3,6.2-4
		c1.2-1.2,2.2-3.2,2.3-4.9c0.2-10.4,0.1-20.7,0.1-31.1c0-0.6-0.2-1.2-0.4-2.3C46.4,36.1,31.9,62.2,17,88.8c5.2-2.4,9.7-4.5,14.2-6.6
		c3.8-1.8,7.5-1.4,11,0.5c2.3,1.2,4.6,2.5,6.5,4.1c3.8,3.3,7.8,6,13.1,6.7C60.8,95,59.9,96.2,58.3,98.3z"/>
</g>
</svg>
