<?xml version="1.0" encoding="utf-8"?>
<!-- Generator: Adobe Illustrator 21.1.0, SVG Export Plug-In . SVG Version: 6.00 Build 0)  -->
<svg version="1.1" id="Layer_1" xmlns="http://www.w3.org/2000/svg" xmlns:xlink="http://www.w3.org/1999/xlink" x="0px" y="0px"
	 viewBox="0 0 128 128" style="enable-background:new 0 0 128 128;" xml:space="preserve">
<style type="text/css">
	.st0{fill:none;stroke:#FFFFFF;stroke-width:4;stroke-linecap:round;stroke-linejoin:round;stroke-miterlimit:10;}
	.st1{fill:#F68929;}
</style>
<path class="st0" d="M104,101.1"/>
<path class="st0" d="M93.8,35.3"/>
<path class="st0" d="M59.6,124"/>
<path class="st0" d="M108.2,101.1"/>
<path class="st0" d="M93.8,35.3"/>
<path class="st0" d="M34.2,35.3"/>
<path class="st0" d="M19.8,101.1"/>
<path class="st0" d="M59.5,124"/>
<path class="st0" d="M34.2,35.3"/>
<path class="st0" d="M82.6,40.3"/>
<path class="st0" d="M56,124"/>
<path class="st0" d="M95.5,99.2"/>
<path class="st0" d="M82.6,40.3"/>
<path class="st0" d="M29.3,40.3"/>
<path class="st0" d="M55.9,124"/>
<path class="st0" d="M29.3,40.3"/>
<g>
	<path class="st1" d="M39.2,44.6c0-5.3,0-10.5,0-15.6c0-0.4-0.6-1-1.1-1.3c-3.4-2.4-5.2-5.7-4.7-9.9c0.5-4.3,2.8-7.3,6.9-8.8
		c5-1.8,10.7,0.6,12.9,5.4c2.3,4.9,0.5,10.7-4.1,13.4c-0.9,0.5-1.2,1-1.1,2c0,4.4,0,8.8-0.1,13.3c0,0.7,0,1.7,0,1.7s1,0.2,1.6,0.3
		c1.8,0.3,3.6,0.9,5.3,1.6c0.6,0.2,1,0.5,1,0.5s0.8-0.7,1-0.8c8.1-6.9,16.2-13.8,24.3-20.7c3.4-2.9,6.9-5.9,10.3-8.8
		c0.6-0.5,0.9-0.9,0.7-1.8c-1.1-4.9,0.2-9.2,4.2-12.3c3.9-3.1,8.2-3.6,12.7-1.5c4.5,2.1,6.8,5.9,6.9,10.8
		c0.2,8.6-8.8,14.7-16.7,11.3c-0.9-0.4-1.4-0.2-2.1,0.3c-10.9,8.9-21.8,17.7-32.8,26.5c-0.4,0.4-0.8,0.7-1.3,1.1
		c13.1,10.9,15,30.3,4.2,43.9c3.1,3.7,6.3,7.5,9.5,11.1c0.3,0.3,1,0.3,1.5,0.3c5.6-1,11,2.5,12.4,8c1.4,5.6-1.9,11.3-7.4,12.8
		c-4.1,1.2-7.8,0.2-10.7-2.8c-3-3-3.7-6.7-2.5-10.8c0.2-0.8,0.2-1.3-0.3-2c-2.6-3.1-5.2-6.3-7.7-9.5c-0.4-0.4-0.7-0.8-1.1-1.3
		c-17.5,11.5-39.6,3.2-46.3-14.2c-3.7-9.4-3.1-18.6,2.1-27.4C21.7,50.9,29.5,46.1,39.2,44.6z"/>
</g>
</svg>
