<?xml version="1.0" encoding="utf-8"?>
<!-- Generator: Adobe Illustrator 21.1.0, SVG Export Plug-In . SVG Version: 6.00 Build 0)  -->
<svg version="1.1" id="Layer_1" xmlns="http://www.w3.org/2000/svg" xmlns:xlink="http://www.w3.org/1999/xlink" x="0px" y="0px"
	 viewBox="0 0 128 128" style="enable-background:new 0 0 128 128;" xml:space="preserve">
<style type="text/css">
	.st0{fill:#F89F36;}
</style>
<path class="st0" d="M109.8,75.7c-0.8-5.7-3.6-10.1-8.6-13c-2.3-1.3-4.8-2.2-7.4-3.3c0.3-0.2,0.5-0.4,0.7-0.5
	c12.5-6.4,11.4-25.7,2.3-32.3c-3.7-2.7-7.8-4.4-12.1-5.4c-3.1-0.7-6.2-1.2-9.4-1.7c0-5.6,0.1-13.3,0.1-19.5H63.7
	c-0.1,6.1-0.1,13.6-0.2,19.1c-3.3,0-6.3,0-9.4,0c0-5.5,0.1-13,0.1-19.1H42.6c-0.1,6.2-0.1,13.9-0.2,19.4c-8-0.1-15.7-0.1-23.7-0.2
	c0,4.3-0.1,8.3-0.1,12.5c1.7,0,3.2,0,4.6,0.1c1.5,0,3,0,4.4,0.1c4.1,0.3,6.2,2.6,6.2,6.6c-0.2,16.7-0.4,33.5-0.5,50.2
	c0,3.7-1.6,5.1-5.2,5.1c-2.6,0-5.2,0-7.8,0c-0.8,4.7-1.6,9.2-2.4,13.9c7.9,0.1,15.7,0.2,23.7,0.3c0,6-0.1,13.6-0.1,19.9h11.7
	c0.1-6.3,0.1-13.7,0.2-19.6c3.3,0.1,6.3,0.2,9.4,0.3c0,6-0.1,13.3-0.1,19.4h11.7c0.1-6.3,0.1-13.7,0.2-19.5c0.4-0.1,0.7-0.1,1-0.2
	c5.6-0.9,11.3-1.4,16.7-2.7c7.1-1.8,12.7-5.9,15.7-12.9C110.1,87.3,110.6,81.6,109.8,75.7z M54.3,32.9c7.3,0,14.4-0.6,21,2.4
	c4.4,1.9,6.6,5.5,6.3,9.8c-0.3,4.6-2.9,7.9-7.6,9.4c-6.4,2.1-13.1,2-20,1.7C54.1,48.6,54.2,41,54.3,32.9z M79.8,91.3
	c-6.5,2.9-13.3,2.9-20.2,3c-1.9,0-3.8-0.1-5.9-0.1c0.1-8.7,0.2-17.2,0.3-25.9c8.9,0,17.7-0.7,26,3c4.3,1.9,6.8,5.2,6.8,10.1
	C86.7,86.3,84.1,89.4,79.8,91.3z"/>
</svg>
