<?xml version="1.0" encoding="utf-8"?>
<!-- Generator: Adobe Illustrator 21.1.0, SVG Export Plug-In . SVG Version: 6.00 Build 0)  -->
<svg version="1.1" id="Layer_1" xmlns="http://www.w3.org/2000/svg" xmlns:xlink="http://www.w3.org/1999/xlink" x="0px" y="0px"
	 viewBox="0 0 128 128" style="enable-background:new 0 0 128 128;" xml:space="preserve">
<style type="text/css">
	.st0{fill:none;stroke:#FFFFFF;stroke-width:4;stroke-linecap:round;stroke-linejoin:round;stroke-miterlimit:10;}
	.st1{fill:#39BAEB;}
</style>
<path class="st0" d="M104,101.1"/>
<g>
	<path class="st1" d="M24.4,0c2.1,1.9,4,3.6,6,5.3c10.1,9,20.2,17.9,30.3,26.9c0.4,0.4,0.6,0.8,0.6,1.4c0,13.3,0,26.6,0,39.8
		c0,0.6-0.1,0.9-0.8,1.1c-1.4,0.4-2.8,1-4.3,1.6c-0.1-0.1-0.3-0.2-0.5-0.4C45.4,65.4,35.1,55.1,24.8,44.8c-0.2-0.2-0.4-0.6-0.4-0.9
		c0-14.4,0-28.8,0-43.2C24.3,0.5,24.4,0.3,24.4,0z"/>
	<path class="st1" d="M51.7,80.5c-0.6,1.4-1.2,3.1-1.8,4.8c-0.1,0.2-0.4,0.4-0.7,0.4c-0.8,0.1-1.7,0-2.5,0c-7.1,0-14.1,0-21.2,0
		c-0.3,0-0.7,0-1,0c0-11,0-21.9,0-32.8C33.5,62.2,42.6,71.4,51.7,80.5z"/>
	<path class="st1" d="M38.1,118.5c6-6,11.9-12,17.7-17.9c1.8,0.8,3.6,1.5,5.4,2.3c0,8.3,0,16.6,0,25.1
		C52.4,127.3,44.7,124.2,38.1,118.5z"/>
	<path class="st1" d="M90.1,118.4c-6.7,5.7-14.4,8.9-23.2,9.6c0-0.4,0-0.7,0-0.9c0-7.8,0-15.7,0-23.5c0-0.6,0.2-0.9,0.8-1.1
		c1.4-0.5,2.7-1.2,4.1-1.7c0.2-0.1,0.7-0.1,0.8,0C78.4,106.6,84.2,112.5,90.1,118.4z"/>
	<path class="st1" d="M24.4,91.2c0.3,0,0.6,0,0.9,0c7.9,0,15.7,0,23.6,0c0.7,0,0.9,0.2,1.2,0.9c0.5,1.5,1.2,3,1.7,4.4
		c-5.8,5.9-11.8,11.8-17.8,17.9C28.3,107.8,25.2,100.1,24.4,91.2z"/>
	<path class="st1" d="M90,58.5c-6,6-11.9,12-17.7,17.8c-1.8-0.7-3.4-1.3-5.1-1.9c-0.2-0.1-0.3-0.4-0.4-0.6c-0.1-0.1,0-0.3,0-0.4
		c0-7.8,0-15.6,0-23.4c0-0.3,0-0.6,0-1C75.7,49.6,83.4,52.9,90,58.5z"/>
	<path class="st1" d="M94,62.5c5.7,6.7,8.9,14.4,9.6,23.2c-8.5,0-16.9,0-25.2,0c-0.8-1.8-1.5-3.6-2.2-5.2C82.1,74.5,88,68.5,94,62.5
		z"/>
	<path class="st1" d="M103.7,91.2c-0.7,8.7-3.8,16.3-9.3,22.8c-6-6-11.9-12-17.9-18c0.5-1.4,1.1-2.9,1.7-4.4
		c0.1-0.2,0.5-0.4,0.7-0.4c2.1,0,4.1,0,6.2,0c5.8,0,11.6,0,17.4,0C102.9,91.2,103.2,91.2,103.7,91.2z"/>
</g>
</svg>
