<?xml version="1.0" encoding="utf-8"?>
<!-- Generator: Adobe Illustrator 21.1.0, SVG Export Plug-In . SVG Version: 6.00 Build 0)  -->
<svg version="1.1" id="Layer_1" xmlns="http://www.w3.org/2000/svg" xmlns:xlink="http://www.w3.org/1999/xlink" x="0px" y="0px"
	 viewBox="0 0 128 128" style="enable-background:new 0 0 128 128;" xml:space="preserve">
<style type="text/css">
	.st0{fill:none;stroke:#FFFFFF;stroke-width:4;stroke-linecap:round;stroke-linejoin:round;stroke-miterlimit:10;}
	.st1{fill:#1D1D1D;}
</style>
<path class="st0" d="M104,101.1"/>
<g>
	<path class="st1" d="M31.2,121.6c0-9.6,0-18.9,0-28.6C20.8,93,10.5,93,0,93c0-5.7,0-11,0-16.7c10.3,0,20.5,0,31,0
		c0-9,0-17.7,0-26.8c-10.2,0-20.4,0-30.9,0c0-5.7,0-11.1,0-16.9c10.3,0,20.5,0,31.1,0c0-8.9,0-17.5,0-26.3c0.9-0.1,1.5-0.2,2.1-0.2
		c17.1,0,34.3-0.2,51.4,0.1c8,0.1,15.7,1.8,22.3,6.7c13.3,9.8,15.1,27.3,4,39.6c-1,1.1-2,2.2-3.2,3.4c6,2.8,11,6.5,14.6,11.9
		c10.4,15.2,5.8,34.8-10.6,45.3c-9.3,5.9-19.8,8.2-30.5,8.5c-16.2,0.5-32.3,0.2-48.5,0.2C32.4,121.9,32,121.8,31.2,121.6z
		 M53.2,69.2c0,11.4,0,22.5,0,33.2c11.3,0,22.5,0.4,33.5-0.2c4.6-0.3,9.4-2.1,13.6-4.3c8.8-4.8,9.5-16.7,1.3-22.3
		c-3.9-2.6-8.5-4.5-13-5.7C77,67,65.2,68.7,53.2,69.2z M53.1,55.2c6.8-0.5,13.2-0.6,19.5-1.4c4.8-0.6,9.7-1.7,14.2-3.5
		c6.2-2.5,9.2-8.3,8.5-14.4c-0.6-5.5-4.7-10.1-10.9-11.6c-10.3-2.6-20.8-1-31.3-1.5C53.1,33.7,53.1,44.2,53.1,55.2z"/>
</g>
</svg>
