<?xml version="1.0" encoding="utf-8"?>
<!-- Generator: Adobe Illustrator 21.1.0, SVG Export Plug-In . SVG Version: 6.00 Build 0)  -->
<svg version="1.1" id="Layer_1" xmlns="http://www.w3.org/2000/svg" xmlns:xlink="http://www.w3.org/1999/xlink" x="0px" y="0px"
	 viewBox="0 0 128 128" style="enable-background:new 0 0 128 128;" xml:space="preserve">
<style type="text/css">
	.st0{fill:#1E75BC;}
</style>
<g>
	<g>
		<path class="st0" d="M3,99.8C5,94,6.8,88.6,8.8,83.1c0.2-0.5,1.2-1,1.8-1c3.3-0.1,6.6,0,9.9,0c21.5,0,43.1,0,64.6,0
			c1.7,0,2.5-0.5,3-2.2c3.6-10.6,7.3-21.2,11-31.8c0.2-0.6,0.3-1.1,0.6-2c-26.1,0-52.1,0-78.3,0c2-5.9,3.9-11.4,5.9-16.9
			c0.2-0.4,1-0.8,1.5-0.8c2-0.1,3.9,0,5.9,0c26.5,0,53,0.2,79.6-0.1c7.9-0.1,16.3,6,12.9,17.6c-2.5,8.7-5.8,17.1-8.7,25.6
			c-1,2.9-2,5.9-3,8.7c-3.7,10.2-11.2,16.3-21.5,19.2c-0.9,0.3-1.9,0.3-2.9,0.3c-28.6,0-57.3,0-85.9,0C4.6,99.8,3.9,99.8,3,99.8z"/>
		<path class="st0" d="M52.6,55.6c-2,5.6-3.9,10.9-5.9,16c-0.1,0.4-0.9,0.7-1.4,0.7c-14.8,0-29.7,0-44.5,0c-0.2,0-0.4-0.1-0.8-0.3
			c1.9-5.2,3.7-10.3,5.7-15.4c0.2-0.5,1-1,1.5-1C22.1,55.6,37.1,55.6,52.6,55.6z"/>
	</g>
</g>
</svg>
