<?xml version="1.0" encoding="utf-8"?>
<!-- Generator: Adobe Illustrator 21.1.0, SVG Export Plug-In . SVG Version: 6.00 Build 0)  -->
<svg version="1.1" id="Layer_1" xmlns="http://www.w3.org/2000/svg" xmlns:xlink="http://www.w3.org/1999/xlink" x="0px" y="0px"
	 viewBox="0 0 128 128" style="enable-background:new 0 0 128 128;" xml:space="preserve">
<style type="text/css">
	.st0{fill:none;stroke:#FFFFFF;stroke-width:4;stroke-linecap:round;stroke-linejoin:round;stroke-miterlimit:10;}
	.st1{fill:#486EB5;}
	.st2{fill:#57C09A;}
</style>
<path class="st0" d="M104,101.1"/>
<g>
	<path class="st1" d="M71.1,113.3c-1,0.1-1.8,0.1-2.5,0.1c-9.4,0-18.7,0-28.1,0c-19.2,0-35.3-12.7-39.5-31.3
		c-4.1-18,5-36.9,21.7-44.8c0.6-0.3,1.1-0.6,2-1.1c-4.1-3.6-8.1-7.1-12-10.6c-4-3.5-8-7-12.3-10.7c0.8-0.1,1.2-0.3,1.7-0.3
		c8.3,0,16.5-0.1,24.8,0c1.1,0,2.5,0.5,3.3,1.2c13.2,11.3,26.2,22.8,39.4,34.2c0.5,0.4,1.1,0.8,1.7,1.1c-0.1,0.3-0.2,0.5-0.4,0.8
		c-0.8,0-1.7,0-2.5,0c-9.2,0-18.5-0.1-27.7,0c-8.6,0.1-15.2,3.9-19.5,11.6c-6.5,11.8,0.8,27.8,14,30.3c4.4,0.8,9.1,0.6,13.6,0.9
		c0.7,0,1.6,0.1,2.1,0.6c6.5,5.5,12.9,11.1,19.3,16.7C70.5,112.3,70.7,112.7,71.1,113.3z"/>
	<path class="st2" d="M127.7,113.2c-2,0-3.5,0-5,0c-7.1,0-14.3,0.1-21.4,0c-1.2,0-2.6-0.5-3.5-1.2C84.4,100.5,71,88.9,57.7,77.3
		c-0.2-0.2-0.4-0.5-0.8-1.2c1.1-0.1,1.8-0.2,2.6-0.2c9.2,0,18.4,0.1,27.7,0c8.7-0.1,15.4-3.7,19.6-11.5c6-11.1,0.3-25.5-11.5-29.7
		c-4.4-1.6-8.9-1.6-13.5-1.4c-2.8,0.1-4.9-0.5-7-2.5c-5.4-5-11-9.6-16.5-14.4c-0.4-0.4-0.9-0.6-1.6-1.1c0.7-0.4,0.9-0.6,1.2-0.6
		c11.1,0,22.2,0,33.3,0.2c7.5,0.1,14.2,2.9,20.2,7.3c8.2,6,13.5,14,15.7,23.8c1.9,8.3,1.1,16.5-2.3,24.3c-3.7,8.6-9.7,15.1-18,19.6
		c-0.5,0.3-1.1,0.5-1.7,0.8c-0.5,0.3-0.9,0.6-1.8,1.1C111.4,99,119.3,105.9,127.7,113.2z"/>
</g>
</svg>
