<?xml version="1.0" encoding="utf-8"?>
<!-- Generator: Adobe Illustrator 21.1.0, SVG Export Plug-In . SVG Version: 6.00 Build 0)  -->
<svg version="1.1" id="Layer_1" xmlns="http://www.w3.org/2000/svg" xmlns:xlink="http://www.w3.org/1999/xlink" x="0px" y="0px"
	 viewBox="0 0 128 128" style="enable-background:new 0 0 128 128;" xml:space="preserve">
<style type="text/css">
	.st0{fill:none;stroke:#FFFFFF;stroke-width:4;stroke-linecap:round;stroke-linejoin:round;stroke-miterlimit:10;}
	.st1{fill:#2D2C2C;}
	.st2{fill:#FFFFFF;}
</style>
<path class="st0" d="M104,101.1"/>
<path class="st1" d="M108.4,96.7c0-0.2-0.1-0.4-0.1-0.5L96,40.1c-0.2-1-0.6-1.9-1.2-2.7L69.4,2.7c-1.2-1.7-3.2-2.7-5.3-2.7h-0.2
	c-2.1,0-4.1,1-5.3,2.7L33.2,37.4c-0.6,0.8-1,1.7-1.2,2.6L19.7,96.2c0,0.1,0,0.2-0.1,0.3c-0.2,0.9-0.1,1.9,0.1,2.8
	c0.1,0.4,0.3,0.9,0.5,1.3c0.6,1.1,1.4,2,2.4,2.7L60.4,127c1.1,0.7,2.3,1,3.5,1l0.1,0c1.2,0,2.5-0.4,3.5-1l36.7-23l2-1.4
	c0.6-0.5,1.1-1.2,1.5-1.9c0.2-0.4,0.4-0.9,0.5-1.4C108.5,98.4,108.5,97.6,108.4,96.7z"/>
<path class="st2" d="M103.7,97.3C103.7,97.3,103.7,97.3,103.7,97.3c0,0,0-0.1,0-0.1L91.4,41.1c0-0.2-0.1-0.3-0.2-0.5
	c0,0,0-0.1-0.1-0.1c0-0.1-0.1-0.2-0.1-0.2L65.6,5.5c-0.4-0.5-1-0.8-1.6-0.8c-0.6,0-1.2,0.3-1.6,0.8L37,40.2
	c-0.2,0.2-0.3,0.5-0.4,0.8L24.3,97.2c0,0.2-0.1,0.4,0,0.6c0,0.3,0.1,0.5,0.3,0.8c0.2,0.3,0.4,0.5,0.7,0.7L62.9,123
	c0.3,0.2,0.7,0.3,1.1,0.3c0,0,0,0,0,0c0.4,0,0.7-0.1,1.1-0.3l37.7-23.6c0.3-0.2,0.6-0.5,0.7-0.8c0.1-0.1,0.1-0.2,0.1-0.4
	c0,0,0,0,0,0c0,0,0,0,0,0C103.8,97.9,103.8,97.6,103.7,97.3z M97,85.2L84.6,63.3l4.5-14.1L97,85.2z M66,12.8l21.2,29l-5.3,16.8
	L66,30.5V12.8z M64,35.1l16.2,28.7L70.1,95.7H57.9L47.8,63.8L64,35.1z M62,12.8v17.7l-15.9,28l-5.3-16.8L62,12.8z M38.9,49.2
	l4.5,14.1L31,85.2L38.9,49.2z M45.1,68.5l8.6,27.2h-24L45.1,68.5z M33.2,99.7H55l5.4,17L33.2,99.7z M64,114.8l-4.8-15.1h9.6
	L64,114.8z M67.6,116.7l5.4-17h21.8L67.6,116.7z M74.3,95.7l8.6-27.2l15.4,27.2H74.3z"/>
<path class="st0" d="M93.8,35.3"/>
<path class="st0" d="M59.6,124"/>
<path class="st0" d="M108.2,101.1"/>
<path class="st0" d="M93.8,35.3"/>
<path class="st0" d="M34.2,35.3"/>
<path class="st0" d="M19.8,101.1"/>
<path class="st0" d="M59.5,124"/>
<path class="st0" d="M34.2,35.3"/>
<path class="st0" d="M82.6,40.3"/>
<path class="st0" d="M56,124"/>
<path class="st0" d="M95.5,99.2"/>
<path class="st0" d="M82.6,40.3"/>
<path class="st0" d="M29.3,40.3"/>
<path class="st0" d="M55.9,124"/>
<path class="st0" d="M29.3,40.3"/>
</svg>
