<?xml version="1.0" encoding="utf-8"?>
<!-- Generator: Adobe Illustrator 21.1.0, SVG Export Plug-In . SVG Version: 6.00 Build 0)  -->
<svg version="1.1" id="Layer_1" xmlns="http://www.w3.org/2000/svg" xmlns:xlink="http://www.w3.org/1999/xlink" x="0px" y="0px"
	 viewBox="0 0 128 128" style="enable-background:new 0 0 128 128;" xml:space="preserve">
<style type="text/css">
	.st0{fill:none;stroke:#FFFFFF;stroke-width:4;stroke-linecap:round;stroke-linejoin:round;stroke-miterlimit:10;}
	.st1{fill:#026990;}
</style>
<path class="st0" d="M104,101.1"/>
<g>
	<path class="st1" d="M59.5,8.5c5-0.1,9.6,0.8,13.7,3.6c1.8,1.2,3.3,1,4.8-0.6c3.3-3.5,6.7-6.7,10.1-10.1C89.3,0,90.4-0.7,92,1
		c1.4,1.5,1,2.6-0.3,3.9c-3.4,3.4-6.7,7-10.2,10.4c-1.5,1.5-1.7,2.6-0.6,4.5c7.7,13.9,3.9,30.2-11.5,37.6c-1.5,0.7-3.1,1-4.7,1.4
		c-1.8,0.4-2.6,1.4-2.5,3.3c0.1,4,0.1,8,0,11.9c-0.1,2.1,0.6,3.1,2.8,3.6c8.3,2,14.1,7,17.8,14.6c3.5,7.4,2.6,20.6-5,28.5
		c-6.4,6.5-17.7,9.3-26.1,5.9c-10-4-16.2-12.8-16.3-23.4c-0.1-12.8,6.8-22,19.2-25.4c1.8-0.5,2.9-1.4,2.9-3.4
		c-0.1-4.5,0-9.1-0.2-13.6c0-0.8-1.5-1.9-2.5-2.2c-8-2.1-13.9-6.9-17.2-14.5C29.6,26.7,42.9,7.5,59.5,8.5z M79.8,102.4
		c0-10.5-9.2-20.2-19.4-20.2C49.7,82,40,91.5,39.8,102.2c-0.1,10.6,9.8,20.8,20,20.7C70.6,122.8,79.9,113.3,79.8,102.4z M40.1,33.2
		C40.1,44.7,49,54,60.1,54c10.3,0,19.8-9.6,19.7-20.2c0-10-7.4-20.3-19.7-20.1C49,14,40.2,22.3,40.1,33.2z"/>
</g>
</svg>
