<?xml version="1.0" encoding="utf-8"?>
<!-- Generator: Adobe Illustrator 21.1.0, SVG Export Plug-In . SVG Version: 6.00 Build 0)  -->
<svg version="1.1" id="Layer_1" xmlns="http://www.w3.org/2000/svg" xmlns:xlink="http://www.w3.org/1999/xlink" x="0px" y="0px"
	 viewBox="0 0 128 128" style="enable-background:new 0 0 128 128;" xml:space="preserve">
<style type="text/css">
	.st0{fill:none;stroke:#FFFFFF;stroke-width:4;stroke-linecap:round;stroke-linejoin:round;stroke-miterlimit:10;}
	.st1{fill:#4C6F8C;}
	.st2{fill:#829AAF;}
</style>
<path class="st0" d="M104,101.1"/>
<g>
	<path class="st1" d="M106.7,63.8c0-18.3,0-36.7,0-55c0-0.7,0-1.4,0-2.1c0.1-3.9,2.5-6.4,6.4-6.6c2.6-0.1,5.3-0.1,7.9,0
		c3.2,0.1,5.7,2.2,6.4,5.3c0.3,1.4,0.5,3,0.5,4.4c0,35.3,0,70.5,0,105.8c0,2.4-0.2,4.7-0.5,7.1c-0.3,2.5-3.2,5.1-6.2,5.2
		c-2.8,0.1-5.6,0.2-8.4,0c-3.7-0.2-6.2-3.3-6.2-7.2c0-16,0-31.9,0-47.9C106.7,69.8,106.7,66.8,106.7,63.8z"/>
	<path class="st2" d="M56.7,89.9c0,9.6,0,19.2,0,28.8c0,0.8,0,1.6,0,2.4c-0.4,4.3-3,6.7-7.3,6.8c-2.4,0.1-4.7,0.1-7.1,0
		c-3.7-0.2-5.9-2.2-6.4-6c-0.2-1.6-0.4-3.3-0.4-5c0-18.7,0-37.4,0-56c0-1.6,0.3-3.3,0.7-4.9c0.5-2.1,1.9-3.6,4-4.2
		c3.6-1,7.3-1.1,10.9-0.2c3.6,0.8,5.3,3,5.6,6.7c0.1,1.8,0.1,3.5,0.1,5.3C56.7,72.3,56.7,81.1,56.7,89.9z"/>
	<path class="st2" d="M92.2,98.6c0,7,0.1,13.9,0,20.9c0,1.4-0.4,2.9-0.9,4.3c-0.9,2.7-3,3.8-5.6,4c-2.6,0.2-5.3,0.2-7.9,0
		c-4-0.3-6.4-2.8-6.8-6.8c-0.1-0.5,0-1.1,0-1.6c0-14.1,0-28.2,0-42.3c0-1.2,0.1-2.5,0.5-3.6c0.9-2.3,2.4-4.2,5.1-4.4
		c3-0.2,5.9-0.4,8.9-0.2c4.2,0.3,6.6,2.9,6.7,7.7C92.3,84,92.2,91.3,92.2,98.6z"/>
	<path class="st2" d="M21.3,107.5c0,4,0,7.9,0,11.9c0,2.6-0.5,5.2-2.8,6.8c-1.2,0.8-2.6,1.5-4,1.7c-2.5,0.3-5.1,0.2-7.6,0.1
		c-4.3-0.2-6.8-2.7-6.9-7.1c-0.1-9.1-0.1-18.1,0-27.2c0-4.3,2.8-7,7.2-7.1c2.3-0.1,4.5-0.1,6.8,0c3.5,0.1,6.4,2.1,6.8,6
		c0.2,1.6,0.4,3.1,0.4,4.7C21.3,100.6,21.3,104,21.3,107.5z"/>
</g>
</svg>
