<?xml version="1.0" encoding="utf-8"?>
<!-- Generator: Adobe Illustrator 21.1.0, SVG Export Plug-In . SVG Version: 6.00 Build 0)  -->
<svg version="1.1" id="Layer_1" xmlns="http://www.w3.org/2000/svg" xmlns:xlink="http://www.w3.org/1999/xlink" x="0px" y="0px"
	 viewBox="0 0 128 128" style="enable-background:new 0 0 128 128;" xml:space="preserve">
<style type="text/css">
	.st0{fill:#01A996;}
</style>
<g>
	<path class="st0" d="M85.7,10c-0.1-3.8,3.3-7.4,7.7-7.2c3.8,0.2,7,3.5,7,7.5c0,4.1-3.4,7.3-7.6,7.2C88.8,17.4,85.6,14.1,85.7,10z"
		/>
	<path class="st0" d="M101.3,106.5c4.1,0,7.3,3.2,7.3,7.3c0,4.1-3.3,7.4-7.4,7.4c-4,0-7.3-3.3-7.3-7.3
		C93.9,109.7,97.2,106.5,101.3,106.5z"/>
	<path class="st0" d="M7.3,76.5C3.1,76.5,0,73.2,0,69c0-4,3.3-7.2,7.4-7.1c4.1,0,7.3,3.3,7.3,7.5C14.6,73.3,11.3,76.5,7.3,76.5z"/>
	<path class="st0" d="M88.8,29.6c0-3.5,2.8-6.3,6.3-6.3c3.4,0,6.2,2.8,6.3,6.2c0,3.4-2.8,6.3-6.3,6.4C91.6,35.9,88.8,33.1,88.8,29.6
		z"/>
	<path class="st0" d="M23.1,51.4c3.5,0,6.4,2.8,6.4,6.2c0,3.4-2.9,6.3-6.3,6.3c-3.5,0-6.3-2.8-6.3-6.3
		C16.9,54.2,19.6,51.4,23.1,51.4z"/>
	<path class="st0" d="M111.4,38.1c-3.4,0-6.3-2.8-6.2-6.2c0-3.5,2.9-6.3,6.3-6.3c3.4,0.1,6.2,2.9,6.2,6.3
		C117.8,35.4,114.9,38.1,111.4,38.1z"/>
	<path class="st0" d="M83.4,112.2c-3.5,0-6.3-2.9-6.3-6.3c0-3.4,2.8-6.2,6.3-6.3c3.4-0.1,6.3,2.9,6.3,6.3
		C89.7,109.3,86.8,112.2,83.4,112.2z"/>
	<path class="st0" d="M23.2,42.3c0,3.5-2.8,6.3-6.3,6.2c-3.4,0-6.2-2.8-6.2-6.3c0-3.4,2.8-6.3,6.2-6.3
		C20.3,35.9,23.2,38.8,23.2,42.3z"/>
	<path class="st0" d="M73.1,125.2c-3.5,0-6.2-2.8-6.2-6.3c0-3.5,2.8-6.2,6.2-6.2c3.5,0,6.3,2.8,6.3,6.3
		C79.4,122.5,76.6,125.2,73.1,125.2z"/>
	<path class="st0" d="M54.6,108.9c0-3,2.4-5.3,5.3-5.3c3,0,5.4,2.5,5.3,5.5c0,3-2.4,5.3-5.4,5.3C56.9,114.4,54.5,112,54.6,108.9z"/>
	<path class="st0" d="M114.8,48.4c0,3-2.4,5.4-5.4,5.4c-2.9,0-5.3-2.4-5.3-5.4c0-3,2.4-5.4,5.4-5.4C112.4,43,114.8,45.4,114.8,48.4z
		"/>
	<path class="st0" d="M37.5,35.8c0,3-2.4,5.3-5.3,5.3c-3,0-5.4-2.4-5.3-5.4c0-3,2.3-5.3,5.3-5.3C35.3,30.4,37.6,32.7,37.5,35.8z"/>
	<path class="st0" d="M43.8,51.1c0,3-2.3,5.4-5.3,5.4c-3,0-5.4-2.3-5.4-5.3c0-3.1,2.3-5.4,5.4-5.4C41.5,45.8,43.8,48.1,43.8,51.1z"
		/>
	<path class="st0" d="M24.7,21.8c0-3,2.4-5.3,5.4-5.3c3,0,5.3,2.4,5.3,5.4c0,3-2.3,5.3-5.3,5.4C27,27.2,24.6,24.8,24.7,21.8z"/>
	<path class="st0" d="M87.7,46.1c0-3,2.4-5.4,5.3-5.4c3,0,5.4,2.4,5.4,5.4c0,3-2.4,5.3-5.4,5.3C90,51.5,87.7,49.1,87.7,46.1z"/>
	<path class="st0" d="M70.1,90.5c2.9,0,5.3,2.4,5.3,5.4c0,3-2.4,5.4-5.4,5.3c-3,0-5.3-2.4-5.3-5.4C64.7,92.9,67.1,90.5,70.1,90.5z"
		/>
	<path class="st0" d="M54.3,117.9c0,3-2.3,5.3-5.3,5.3c-3,0-5.4-2.4-5.4-5.3c0-3,2.4-5.4,5.4-5.4C52,112.5,54.3,114.9,54.3,117.9z"
		/>
	<path class="st0" d="M122.5,58.8c-2.9,0-5.3-2.5-5.3-5.3c0-3,2.5-5.4,5.5-5.4c2.9,0,5.4,2.5,5.3,5.4
		C128,56.4,125.5,58.8,122.5,58.8z"/>
	<path class="st0" d="M55.4,98.2c0,2.5-2.1,4.6-4.6,4.6c-2.6,0-4.6-2.1-4.6-4.6c0-2.6,2.1-4.6,4.7-4.6
		C53.4,93.6,55.4,95.6,55.4,98.2z"/>
	<path class="st0" d="M46.2,28.7c2.6,0,4.6,2,4.6,4.6c0,2.5-2.1,4.6-4.6,4.6c-2.5,0-4.7-2.1-4.6-4.7C41.6,30.8,43.7,28.7,46.2,28.7z
		"/>
	<path class="st0" d="M56.4,85.1c0-2.6,2-4.6,4.5-4.6c2.6,0,4.7,2,4.7,4.6c0,2.5-2,4.6-4.6,4.6C58.4,89.6,56.4,87.7,56.4,85.1z"/>
	<path class="st0" d="M39.9,111.6c-2.6,0-4.7-2-4.7-4.5c0-2.5,2-4.6,4.6-4.6c2.6,0,4.7,2,4.6,4.6C44.4,109.6,42.5,111.6,39.9,111.6z
		"/>
	<path class="st0" d="M92.7,59.5c0,2.5-2,4.5-4.5,4.5c-2.6,0-4.6-2-4.6-4.6c0-2.6,2-4.6,4.6-4.6C90.8,54.8,92.7,56.8,92.7,59.5z"/>
	<path class="st0" d="M43.9,23.9c-2.6,0-4.6-1.9-4.6-4.5c0-2.6,2.1-4.7,4.6-4.7c2.5,0,4.6,2.1,4.6,4.6
		C48.5,21.9,46.5,23.9,43.9,23.9z"/>
	<path class="st0" d="M104.6,66.2c-2.6,0-4.5-2-4.5-4.6c0-2.5,2-4.5,4.6-4.6c2.6,0,4.6,2,4.5,4.7C109.2,64.4,107.2,66.3,104.6,66.2z
		"/>
	<path class="st0" d="M52.3,53.2c-2.5,0-4.5-2.1-4.5-4.6c0-2.5,2.2-4.5,4.7-4.5c2.5,0,4.5,2.1,4.5,4.6C57,51.2,54.9,53.2,52.3,53.2z
		"/>
	<path class="st0" d="M117.7,71.3c-2.6-0.1-4.6-2.2-4.5-4.8c0.1-2.5,2.2-4.5,4.7-4.4c2.6,0.1,4.6,2.2,4.5,4.9
		C122.3,69.5,120.2,71.4,117.7,71.3z"/>
	<path class="st0" d="M64.4,53.2c-2.2,0-3.9-1.7-3.9-3.9c0-2.2,1.8-3.9,4-3.9c2.2,0,3.9,1.7,3.9,3.9C68.3,51.5,66.6,53.2,64.4,53.2z
		"/>
	<path class="st0" d="M107.3,76.8c0-2.2,1.7-3.9,3.9-4c2.2,0,3.9,1.7,3.9,3.9c0,2.2-1.9,4.2-3.9,4.1C109.1,80.8,107.4,79,107.3,76.8
		z"/>
	<path class="st0" d="M59.8,20c0,2.2-1.7,3.9-3.9,3.9c-2.2,0-3.9-1.8-3.9-4c0-2.2,1.8-3.9,4.1-3.9C58.2,16.1,59.8,17.8,59.8,20z"/>
	<path class="st0" d="M59.4,74.4c0,2.2-1.7,3.9-3.8,3.9c-2.3,0-4-1.7-4-3.9c0-2.2,1.7-3.9,3.9-3.9C57.7,70.4,59.4,72.1,59.4,74.4z"
		/>
	<path class="st0" d="M45.4,91.3c-2.2,0-4-1.7-4-3.9c0-2.2,1.8-4,4-4c2.1,0,3.9,1.8,3.9,3.9C49.3,89.6,47.6,91.3,45.4,91.3z"/>
	<path class="st0" d="M102,71.8c0,2.3-1.7,3.9-3.9,3.9c-2.1,0-3.9-1.9-3.9-4c0-2.2,1.8-3.9,4-3.9C100.3,67.8,102,69.6,102,71.8z"/>
	<path class="st0" d="M81.7,65.6c2.3,0,3.9,1.6,3.9,3.9c0,2.2-1.7,4-3.9,3.9c-2.2,0-4-1.8-4-3.9C77.7,67.3,79.4,65.6,81.7,65.6z"/>
	<path class="st0" d="M38.3,96.3c0,2.2-1.8,3.9-3.9,3.9c-2.2,0-3.9-1.7-3.9-3.9c0-2.2,1.8-4,3.9-4C36.5,92.4,38.3,94.2,38.3,96.3z"
		/>
	<path class="st0" d="M58.2,37.8c-2.2,0-3.9-1.7-3.9-3.9c0-2.1,1.8-3.9,4-4c2.1-0.1,3.9,1.8,3.9,4C62.1,36.1,60.4,37.8,58.2,37.8z"
		/>
	<path class="st0" d="M94.1,78.8c0,1.9-1.5,3.5-3.4,3.5c-1.9,0-3.3-1.5-3.3-3.4c0-1.9,1.5-3.4,3.3-3.4C92.6,75.5,94.1,77,94.1,78.8z
		"/>
	<path class="st0" d="M56.4,64.5c0,1.9-1.5,3.4-3.4,3.4c-1.7,0-3.4-1.7-3.4-3.4c0-1.8,1.6-3.5,3.5-3.4
		C54.9,61.1,56.4,62.6,56.4,64.5z"/>
	<path class="st0" d="M32,83.1c1.9,0,3.4,1.5,3.3,3.4c0,1.8-1.6,3.4-3.4,3.4c-1.9-0.1-3.4-1.7-3.4-3.5C28.5,84.4,30,83,32,83.1z"/>
	<path class="st0" d="M74.2,55.4c-1.9,0-3.4-1.4-3.4-3.3c0-1.9,1.4-3.4,3.4-3.4c1.9,0,3.4,1.5,3.4,3.3
		C77.6,53.9,76.1,55.4,74.2,55.4z"/>
	<path class="st0" d="M68,33.3c1.9,0,3.3,1.5,3.3,3.4c0,1.9-1.5,3.4-3.4,3.4c-1.9,0-3.4-1.5-3.4-3.5C64.6,34.8,66.1,33.3,68,33.3z"
		/>
	<path class="st0" d="M46.2,77.5c0,1.9-1.5,3.4-3.3,3.5c-1.8,0-3.4-1.7-3.4-3.5c0-1.9,1.5-3.3,3.4-3.3
		C44.8,74.2,46.2,75.6,46.2,77.5z"/>
	<path class="st0" d="M74.4,73.3c1.9,0,3.3,1.5,3.3,3.4c0,1.9-1.5,3.3-3.4,3.3c-2,0-3.4-1.5-3.4-3.4C71,74.7,72.5,73.2,74.4,73.3z"
		/>
	<path class="st0" d="M107.3,83.8c0,2-1.4,3.5-3.4,3.4c-1.9,0-3.3-1.5-3.4-3.4c0-1.8,1.5-3.4,3.3-3.4
		C105.7,80.5,107.3,82,107.3,83.8z"/>
	<path class="st0" d="M65.8,19.4c1.9,0,3.3,1.4,3.3,3.3c0,1.9-1.5,3.4-3.3,3.4c-1.9,0-3.4-1.5-3.4-3.4
		C62.4,20.8,63.9,19.4,65.8,19.4z"/>
	<path class="st0" d="M76.2,27c0,1.6-1.3,2.9-3,2.8c-1.6,0-2.8-1.3-2.8-2.9c0-1.6,1.3-2.9,2.9-2.9C75,24.1,76.3,25.4,76.2,27z"/>
	<path class="st0" d="M28.9,77.6c0-1.6,1.3-2.8,2.9-2.8c1.6,0,3,1.4,2.9,3c-0.1,1.6-1.4,2.9-2.9,2.9C30.1,80.6,28.8,79.3,28.9,77.6z
		"/>
	<path class="st0" d="M99.4,88.3c0,1.7-1.3,3-2.9,3c-1.6,0-3-1.3-3-2.9c0-1.6,1.3-2.9,3-2.9C98.1,85.5,99.3,86.7,99.4,88.3z"/>
	<path class="st0" d="M45.6,68.9c0,1.6-1.3,2.9-2.9,2.9c-1.6,0-2.9-1.4-2.9-3c0-1.6,1.4-2.8,2.9-2.8C44.3,66,45.6,67.2,45.6,68.9z"
		/>
	<path class="st0" d="M75.5,43.8c-1.7,0-2.9-1.3-2.9-2.9c0-1.6,1.3-2.8,2.9-2.8c1.7,0,2.9,1.2,2.9,2.9
		C78.5,42.6,77.3,43.8,75.5,43.8z"/>
	<path class="st0" d="M83.3,80.5c1.6,0,2.8,1.2,2.8,2.9c0,1.7-1.3,3-3,3c-1.6,0-2.8-1.3-2.8-2.9C80.4,81.7,81.7,80.5,83.3,80.5z"/>
	<path class="st0" d="M35.7,70.5c0,1.4-1.1,2.5-2.5,2.5c-1.3,0-2.6-1.2-2.5-2.6c0-1.4,1.2-2.5,2.6-2.5C34.7,68,35.8,69.1,35.7,70.5z
		"/>
	<path class="st0" d="M91.9,90.7c0,1.4-1.1,2.5-2.5,2.5c-1.3,0-2.5-1.2-2.5-2.5c0-1.4,1.2-2.5,2.6-2.5
		C90.9,88.2,91.9,89.3,91.9,90.7z"/>
	<path class="st0" d="M78.8,29.5c1.5,0,2.6,1,2.6,2.5c0,1.4-1.1,2.5-2.5,2.5c-1.4,0-2.5-1-2.5-2.4C76.3,30.5,77.3,29.5,78.8,29.5z"
		/>
</g>
</svg>
