<?xml version="1.0" encoding="utf-8"?>
<!-- Generator: Adobe Illustrator 21.1.0, SVG Export Plug-In . SVG Version: 6.00 Build 0)  -->
<svg version="1.1" id="Layer_1" xmlns="http://www.w3.org/2000/svg" xmlns:xlink="http://www.w3.org/1999/xlink" x="0px" y="0px"
	 viewBox="0 0 128 128" style="enable-background:new 0 0 128 128;" xml:space="preserve">
<style type="text/css">
	.st0{fill:none;stroke:#FFFFFF;stroke-width:4;stroke-linecap:round;stroke-linejoin:round;stroke-miterlimit:10;}
	.st1{fill:#E5D420;}
	.st2{fill:#F18121;}
</style>
<path class="st0" d="M104,101.1"/>
<g>
	<path class="st1" d="M94.4,81.1C79,93.6,69.2,109.2,63.9,128c-5.4-18.8-15.1-34.4-30.5-46.8c2.9-2.2,5.6-4.6,8.6-6.6
		c9.9-6.8,20.9-10.8,32.5-13.5c7.4-1.7,14.9-3.2,21.8-6.5c4.3-2,8.1-4.8,10.9-8.6c4.8-6.4,4.4-12.7-1.2-18.5
		c-3.1-3.2-6.9-5.5-10.8-7.6c-0.3-0.2-0.6-0.3-0.9-0.6c6.4,0.7,12.5,2.3,17.8,6.3c3.6,2.7,6,6.1,7.1,10.4c1.5,6.1,0.4,11.5-4,16.1
		c-4.3,4.6-9.8,7.5-15.5,9.9c-7.7,3.3-15.9,5.1-24.1,7c-8.7,2-17.1,4.7-24.8,9.4c-1.4,0.9-2.7,1.9-4.1,2.9
		c7.8,7.6,12.6,17,17.1,26.6c4.6-9.6,9.3-19,17.3-26.7c-3-1.9-5.9-3.8-9.1-5.7c3.1-0.7,6.2-1.4,9.2-2.2c1.5-0.4,2.8-0.1,4,0.8
		C88.2,76.4,91.2,78.7,94.4,81.1z"/>
	<path class="st1" d="M33.5,19.2c-3.1,2.1-6.4,4.1-9.5,6.5c-1.7,1.3-3.2,3.1-4.4,4.9c-3,4.5-2.7,9,0,13.6c3.5,5.7,8.6,9.4,14.7,11.4
		c6.3,2.1,12.8,3.6,19.2,5.4c0.4,0.1,0.7,0.2,1.1,0.4c-3.6,1.8-7.1,3.6-10.6,5.4c-0.3,0.2-0.8,0.2-1.1,0.1
		c-9.2-2.5-18.2-5.4-26-11.1c-4-2.9-7.5-6.4-8.4-11.5C7.2,37,9.5,30.8,15.2,26.1c5.2-4.3,11.5-6,18-6.9
		C33.4,19.2,33.6,19.2,33.5,19.2z"/>
	<path class="st1" d="M74.9,29c0,5.9-4.8,10.8-10.7,10.8c-5.8,0-10.6-4.8-10.7-10.6c-0.1-5.9,4.6-10.6,10.6-10.7
		C70.2,18.4,74.9,23,74.9,29z"/>
	<path class="st1" d="M56.4,82.8c2.6-1.1,5-2.2,7.5-3.2c0.3-0.1,0.9-0.1,1.2,0c2.3,1,4.5,2,6.7,3c-2.5,4.1-4.9,8.1-7.4,12.1
		C61.8,90.9,59.1,86.9,56.4,82.8z"/>
	<path class="st2" d="M61.3,16.8c0.8-1.8,1.4-3.5,2.3-4.9c2.4-3.6,3.9-7.4,2.5-11.9c1.6,1.2,2,3,2.4,4.7c1,4-0.1,7.7-1.9,11.3
		c-0.2,0.4-0.7,0.8-1,0.8C64.4,16.9,63.1,16.8,61.3,16.8z"/>
	<path class="st2" d="M71.1,18.2c1.5-0.5,3.1-1.2,4.7-1.6c4.2-0.9,7.9-2.5,10.4-6.4c-0.1,0.6-0.1,1.1-0.3,1.7c-1.8,5.4-6,8.1-11,9.8
		c-0.3,0.1-0.9-0.1-1.1-0.3C72.9,20.4,72.1,19.4,71.1,18.2z"/>
	<path class="st2" d="M83.1,51.1c-2.4-0.4-4.2-1.4-5.8-2.7c-2.8-2.2-4.5-5.1-5.6-8.4c-0.1-0.4,0.1-1.1,0.4-1.5
		c0.7-0.9,1.6-1.8,2.8-3c0.7,2,1.5,3.7,1.9,5.6c0.8,3.8,2.3,7,5.7,9.1C82.7,50.3,82.8,50.6,83.1,51.1z"/>
	<path class="st2" d="M51.9,31.9c-1.8-0.9-3.5-1.6-5-2.5c-2.6-1.6-5.3-2.9-8.5-2.8c-1.1,0-2.2,0.3-3.8,0.6c3-2.1,5.9-3.1,9-2.8
		c2.5,0.3,4.9,1.2,7.3,1.9c0.9,0.3,1.3,0.7,1.1,1.8C51.7,29.1,51.9,30.2,51.9,31.9z"/>
	<path class="st2" d="M53.5,22.2c-0.7-2-1.5-3.8-1.9-5.8c-0.8-3.9-2.5-7-6.1-9.3c0.5,0,1.1,0,1.5,0.1c5.4,1.8,8.2,5.9,9.9,11
		c0.1,0.3-0.1,0.9-0.4,1.1C55.7,20.2,54.7,21.1,53.5,22.2z"/>
	<path class="st2" d="M53.9,36.2c1.1,1.2,2.1,2.3,3.2,3.5c-1.2,0.5-2.6,1.3-4.1,1.6c-4.4,0.8-8.4,2.4-10.5,6.9
		C41.4,44.1,47.1,38.3,53.9,36.2z"/>
	<path class="st2" d="M76.5,26.2c1.3,0.5,2.6,0.9,3.7,1.6c3.9,2.4,7.8,4.7,12.7,3.3c0,0.2,0.1,0.5,0.1,0.7c-1.7,0.6-3.3,1.4-5.1,1.7
		c-3.7,0.6-7.2-0.1-10.6-1.8c-0.7-0.4-1-0.7-0.9-1.6C76.6,28.8,76.5,27.7,76.5,26.2z"/>
	<path class="st2" d="M67,41.4c-0.7,1.5-1.2,3-2,4.4c-3.3,5.6-3.5,6.2-2.6,12.3c-1.7-1.7-2.7-4.5-2.8-7.7c0-2.9,0.7-5.6,2-8.1
		c0.2-0.4,0.9-0.8,1.5-0.8C64.2,41.3,65.4,41.4,67,41.4z"/>
	<path class="st2" d="M59,17.3c-4.5-2.5-6.7-11.4-4.1-16.8c0,0.8,0.1,1.3,0.1,1.8c-0.3,3.6,1.3,6.4,3.8,8.7c1.2,1.1,1.7,2,0.9,3.5
		C59.3,15.3,59.3,16.3,59,17.3z"/>
	<path class="st2" d="M36.3,38.4c4.7,0.1,8.1-1.6,10.8-4.9c0.3-0.3,1-0.5,1.4-0.4c1.3,0.3,2.6,0.7,4,1.1
		C50.8,38.3,41.4,41,36.3,38.4z"/>
	<path class="st2" d="M69.5,40.5c4,3.1,7.2,11.9,4.2,16.1c-0.1-1.1-0.1-2-0.2-2.8c-0.5-2.8-1.9-5.1-3.9-6.9c-1.2-1-1.5-2-0.9-3.4
		C69,42.6,69.2,41.6,69.5,40.5z"/>
	<path class="st2" d="M68.7,17c-0.4-6.3,3.3-12.7,8.3-14.3c-0.8,1.1-1.9,2-2.3,3.1c-0.7,1.9-1.4,3.9-1.4,5.8c0,2.3-0.6,3.7-2.7,4.5
		C70,16.3,69.4,16.7,68.7,17z"/>
	<path class="st2" d="M51.7,54.7c2.7-2.7,3.8-5.7,3.6-9.2c-0.1-1.7,0.3-2.7,2-3.3c0.9-0.3,1.6-0.9,2.4-1.4
		C60.6,46.4,56,54.4,51.7,54.7z"/>
	<path class="st2" d="M52.2,24.4c-4.2,1.5-11.9-2.7-14.1-7.6c0.5,0.2,0.8,0.2,1.1,0.4c2.4,2.2,5.2,3.1,8.4,2.9
		c1.8-0.1,2.9,0.4,3.5,2.2C51.3,23,51.8,23.6,52.2,24.4z"/>
	<path class="st2" d="M75.9,23.7c3.3-4.6,11.8-6.7,15.9-4.3c-1.3,0.2-2.7,0.2-3.9,0.5c-2.4,0.6-4.4,2.1-6,4
		c-0.8,0.9-1.6,1.2-2.8,0.7C78.1,24.3,77,24,75.9,23.7z"/>
	<path class="st2" d="M90.2,41.6c-2.9-3-6.2-4-10-3.8c-1,0.1-1.8-0.3-2.2-1.3c-0.4-1-1-1.9-1.6-2.9C80.4,32,90.1,37.3,90.2,41.6z"/>
	<path class="st2" d="M35.5,33.5c3.3,0.3,6.4,0,9.2-1.8c0.3-0.2,0.9,0.1,1.5,0.1C43.6,36,40.2,36.5,35.5,33.5z"/>
	<path class="st2" d="M81.6,5.6C78.7,7.5,77,9.9,76.2,13c-0.1,0.4-0.8,0.7-1.4,1.2C74.1,9.2,77.1,5.4,81.6,5.6z"/>
	<path class="st2" d="M49.3,18c-5,1.1-8-1.3-8.8-6.3c0.1-0.1,0.3-0.3,0.4-0.4c0.1,0.3,0.2,0.7,0.4,1c1.5,2.4,3.8,3.8,6.5,4.6
		C48.4,17.1,48.8,17.6,49.3,18z"/>
	<path class="st2" d="M46.9,52.5c2.7-1.8,4.5-4.3,5.4-7.5c0.1-0.5,0.7-0.8,1.3-1.4C54.3,49,53.4,50.7,46.9,52.5z"/>
	<path class="st2" d="M59.7,0.3c0.1,1.8,0.2,3.7,0.3,5.6c0.1,1.7,2.1,3,1.4,5.1C57.4,8.5,56.8,3.6,59.7,0.3z"/>
	<path class="st2" d="M82.2,26.1c2.8-4.1,7.5-4.7,10.6-1.6c-3.3-0.6-6.2,0.1-9,1.6C83.5,26.4,82.9,26.2,82.2,26.1z"/>
	<path class="st2" d="M67,47.2c4.3,2.2,4.8,6.4,1.6,10.1C70,53.7,67.6,50.6,67,47.2z"/>
	<path class="st2" d="M79,39.6c5.2-0.6,7.9,1.6,8.7,6.4c-1.3-1.2-2.7-2.4-4-3.6C82.5,41.2,80.1,41.7,79,39.6z"/>
</g>
</svg>
