<?xml version="1.0" encoding="utf-8"?>
<!-- Generator: Adobe Illustrator 21.1.0, SVG Export Plug-In . SVG Version: 6.00 Build 0)  -->
<svg version="1.1" id="Layer_1" xmlns="http://www.w3.org/2000/svg" xmlns:xlink="http://www.w3.org/1999/xlink" x="0px" y="0px"
	 viewBox="0 0 128 128" style="enable-background:new 0 0 128 128;" xml:space="preserve">
<style type="text/css">
	.st0{fill:#F26722;}
	.st1{fill:#4C4C4D;}
</style>
<g>
	<path class="st0" d="M64.1,72.2c-14-14-27.8-27.7-41.7-41.7c0,18,0,35.8,0,53.7c-0.5,0-0.9,0.1-1.2,0.1c-5.6,0-11.2,0-16.9,0
		c-0.8,0-1.2-0.2-1.4-1c-2.3-7.7-3.3-15.5-2.7-23.6c1-13.6,5.7-25.8,14.5-36.3c9.7-11.7,22-19.2,37-22.1C71.5-2.5,89.5,2.1,105.1,15
		c11.9,9.8,19.1,22.5,21.9,37.7c1.9,10.3,1.1,20.4-1.9,30.4c-0.3,0.8-0.6,1.1-1.5,1.1c-5.6,0-11.2,0-16.9,0c-0.3,0-0.7,0-1.1,0
		c0-17.9,0-35.7,0-53.6C91.8,44.6,78,58.3,64.1,72.2z"/>
	<path class="st1" d="M9.4,97.2c8.9,0,17.8,0,26.8,0c0-11.2,0-22.4,0-33.8c9.3,9.3,18.5,18.5,27.7,27.7c9.3-9.3,18.5-18.4,27.8-27.7
		c0,11.3,0,22.5,0,33.7c9,0,17.8,0,27,0c-5.3,8.5-11.9,15.4-20.2,20.7c-8.2,5.3-17.2,8.6-26.9,9.7C42.1,131,19.2,114.3,9.4,97.2z"/>
</g>
</svg>
