<?xml version="1.0" encoding="utf-8"?>
<!-- Generator: Adobe Illustrator 21.1.0, SVG Export Plug-In . SVG Version: 6.00 Build 0)  -->
<svg version="1.1" id="Layer_1" xmlns="http://www.w3.org/2000/svg" xmlns:xlink="http://www.w3.org/1999/xlink" x="0px" y="0px"
	 viewBox="0 0 128 128" style="enable-background:new 0 0 128 128;" xml:space="preserve">
<style type="text/css">
	.st0{fill:none;stroke:#FFFFFF;stroke-width:4;stroke-linecap:round;stroke-linejoin:round;stroke-miterlimit:10;}
	.st1{fill:#2DBCAF;}
	.st2{fill:#6CB2E2;}
	.st3{fill:#F5A81C;}
	.st4{fill:#040607;}
</style>
<path class="st0" d="M104,101.1"/>
<path class="st0" d="M93.8,35.3"/>
<path class="st0" d="M59.6,124"/>
<path class="st0" d="M108.2,101.1"/>
<path class="st0" d="M93.8,35.3"/>
<path class="st0" d="M34.2,35.3"/>
<path class="st0" d="M19.8,101.1"/>
<path class="st0" d="M59.5,124"/>
<path class="st0" d="M34.2,35.3"/>
<path class="st0" d="M82.6,40.3"/>
<path class="st0" d="M56,124"/>
<path class="st0" d="M95.5,99.2"/>
<path class="st0" d="M82.6,40.3"/>
<path class="st0" d="M29.3,40.3"/>
<path class="st0" d="M55.9,124"/>
<path class="st0" d="M29.3,40.3"/>
<path class="st1" d="M92,88.1c-0.2-4.8-1.5-9.5-3.8-13.7c-3.9-6.8-10.8-11.9-18.5-13c-7.7-1.1-15.4,1.7-22.8,4
	c-7.4,2.3-15.6,4.2-22.9,1.3c-1.5-0.6-13.3-7.2-11.8-2.1c0.2,0.8,0.8,1.5,1.3,2.3c1.6,2.8,8.2,16.3,14.1,25.7
	c9.3,14.9,37.2,32.9,37.2,32.9l12.3-9.8c0,0,5.1-4.2,8-7c3.3-3,5.2-7.3,6.2-11.7C91.9,94.2,92.2,91.1,92,88.1z"/>
<path class="st2" d="M125,22.3l-4.9-4.8l-9.9-4.7c0,0-10.9-3.1-17.5-3.4c-6.9-0.3-15,2.8-20,7.6C66,23.4,65,33,64.7,42.2
	c-0.2,4.8,0.9,9.8,3.8,13.7c2.8,3.7,6.9,5.9,10.7,8.6c8.7,6.2,15.8,16,14.9,26.6c-0.1,1.2-0.3,2.5,0.1,3.7s1.7,2.1,2.9,1.7
	c0.6-0.2,0.9-0.7,1.3-1.2c14.2-19,22.9-41.9,25.1-65.5C123.6,27.6,125,22.3,125,22.3z"/>
<path class="st3" d="M84.4,6.9c-3.4-5-13-3-18.2-2.8c-7.7,0.3-15.3,1.1-22.8,2.5c-8.4,1.6-16.9,3.5-25.1,6c-4.6,1.4-12.6,4-14.5,9
	c-0.8,2.2,0.1,5.1,0.4,7.3c0.6,4.2,1.1,8.3,1.8,12.5c1.1,6.4,3,12.8,7.4,17.7c8.9,10,26,9,36.8,3c0.5-0.3,0.8-0.6,1-1
	c8.7-2.5,11.9-15.7,13.6-23.4c1.3-5.7,1.5-11.6,3.7-17c1.1-2.7,2.7-5.2,5.1-6.9c2.7-1.9,6.1-2.3,9.2-3.3
	C84.3,10.1,85.3,8.3,84.4,6.9z"/>
<g>
	<path class="st4" d="M63.9,0c22.4,0.4,43.3,5.9,62.9,16.7c1,0.6,1.2,1.3,1.2,2.3c-0.2,18.5-4.2,36.2-12.1,52.9
		c-7.3,15.6-17.5,29.1-30.3,40.7c-6.2,5.6-13.1,10.5-20.3,14.9c-1,0.6-1.7,0.6-2.7,0c-25-15.1-43-36.2-53.9-63.4
		c-3.8-9.6-6.5-19.5-7.6-29.8C0.5,29.2,0.3,24,0,18.8c0-0.6,0.5-1.6,1.1-1.9C14.6,9.2,29,4.1,44.4,2C50.9,1.1,57.4,0.6,63.9,0z
		 M83.5,7.5c-1-0.3-1.6-0.5-2.1-0.6c-3.1-0.4-6.3-0.8-9.5-1.1c-10.5-0.7-21,0-31.3,2.1c-11.9,2.4-23.1,6.6-33.7,12.5
		c-1.1,0.6-1.5,1.3-1.4,2.6C6,28.5,6.3,34,6.9,39.4c0.4,3.4,0.9,7,2.3,10.1c6.1,13.8,23,20,36.5,13.3C56,57.8,61,49.2,61.5,37.8
		c0.6-13.3,6.9-22.9,18.8-28.8C81.2,8.5,82.1,8.1,83.5,7.5z M96,94.5c0.1,0.1,0.3,0.1,0.4,0.2c1.1-1.4,2.1-2.8,3.2-4.2
		c14.8-20.1,22.4-42.7,22.7-67.7c0-1-0.2-1.7-1.2-2.1c-5.9-2.7-11.7-5.6-17.7-8c-7.7-3-15.4-2.4-22.7,1.5C70.2,19.7,64.3,32.4,67,44
		c1.9,8,6.5,13.8,13.4,18.1c10.5,6.5,15.7,16,15.8,28.3C96.2,91.8,96.1,93.2,96,94.5z M13.6,63.7c0.2,0.6,0.4,1.4,0.8,2.2
		c2.3,4.6,4.3,9.4,6.9,13.8c10,17.3,23.7,31,40.7,41.5c1.3,0.8,2.4,1,3.7,0c5.2-3.8,10.6-7.5,15.7-11.4c2-1.5,4.2-3.3,5.5-5.4
		c4.1-6.6,5.3-13.8,3.5-21.4c-2.9-11.8-13.9-20.5-26-20.6c-5.2,0-9.9,1.2-14.5,3.7c-8.5,4.6-17.4,5.6-26.5,2.4
		C20.1,67.3,17,65.4,13.6,63.7z"/>
</g>
</svg>
