<?xml version="1.0" encoding="utf-8"?>
<!-- Generator: Adobe Illustrator 21.1.0, SVG Export Plug-In . SVG Version: 6.00 Build 0)  -->
<svg version="1.1" id="Layer_1" xmlns="http://www.w3.org/2000/svg" xmlns:xlink="http://www.w3.org/1999/xlink" x="0px" y="0px"
	 viewBox="0 0 128 128" style="enable-background:new 0 0 128 128;" xml:space="preserve">
<style type="text/css">
	.st0{fill:none;stroke:#FFFFFF;stroke-width:4;stroke-linecap:round;stroke-linejoin:round;stroke-miterlimit:10;}
	.st1{fill:#EA0A86;}
	.st2{fill:#CDDC29;}
</style>
<path class="st0" d="M104,101.1"/>
<g>
	<path class="st1" d="M62.8,80.9c-0.1,7.9-6.3,14.2-14.3,14.5c-7.6,0.3-15-6.2-15.8-13.9c-0.1-1.3,0-2.7,0-4.1
		c0-11-3.5-14.5-14.5-14.6c-9.4-0.1-14.3-3.1-17-10.1c-2.4-6.2-0.8-11.6,3.5-16c4.2-4.2,9.7-5.4,15.5-3.4c6.1,2.1,9.2,6.7,10,12.9
		c0.2,1.1,0,2.3,0.1,3.5c0.1,11.3,4,15.3,15.3,15.4C56.6,65.3,62.8,71,62.8,80.9z"/>
	<path class="st2" d="M66.1,48.9c0.3-9.7,6.1-15.6,14-16c7.6-0.4,14.2,5.3,15.2,13.1c2.2,17.4,2.2,17.4,19.5,19.7
		c8.4,1.1,13.9,7.8,13.2,16.2c-0.6,7.6-7.3,13.6-15,13.3c-8-0.3-13.9-6.5-14.2-14.8c-0.1-1.6,0-3.1,0-4.7c-0.3-8.5-5-13.1-13.6-13.2
		c-6.8-0.1-13.4-0.7-17-7.6C66.9,52.6,66.4,49.9,66.1,48.9z"/>
	<path class="st2" d="M95.3,80.6c0,6.7-4.9,12.9-11.6,14.1c-3,0.6-6.2,0.4-9.2,0.6c-7,0.5-11.4,4.9-11.8,11.9
		c-0.2,2.9-0.1,5.8-0.6,8.7c-1.2,7.5-8,12.7-15.3,12.1c-7.7-0.7-13.7-7.2-13.6-14.8c0.1-7.5,5.8-13.7,13.3-14.4c0.8-0.1,1.5,0,2.3,0
		c13.6-0.3,17.2-4,17.2-17.5c0-10.9,9-17.8,19.2-14.7C91.4,68.3,95.4,74,95.3,80.6z"/>
	<path class="st2" d="M47.9,62.1C40,62,33.8,56.3,33.2,48.5c-0.6-7.8,5.2-14.6,13.4-15.6c2.3-0.3,4.6-0.1,7-0.2
		c7-0.3,11.5-4.5,12.3-11.5c0.3-2.7,0.1-5.4,0.4-8.1C67.1,4.9,73.6-0.4,81.9,0c7.2,0.4,13.3,6.8,13.4,14.3c0.2,8.1-5.7,14.5-13.8,15
		c-1.3,0.1-2.7,0-4.1,0c-10.3,0.2-14.7,4.7-14.6,15.1C62.8,55.3,56.9,62.3,47.9,62.1z"/>
</g>
</svg>
