<?xml version="1.0" encoding="utf-8"?>
<!-- Generator: Adobe Illustrator 21.1.0, SVG Export Plug-In . SVG Version: 6.00 Build 0)  -->
<svg version="1.1" id="Layer_1" xmlns="http://www.w3.org/2000/svg" xmlns:xlink="http://www.w3.org/1999/xlink" x="0px" y="0px"
	 viewBox="0 0 128 128" style="enable-background:new 0 0 128 128;" xml:space="preserve">
<style type="text/css">
	.st0{fill:none;stroke:#FFFFFF;stroke-width:4;stroke-linecap:round;stroke-linejoin:round;stroke-miterlimit:10;}
	.st1{fill:#0D8040;}
</style>
<path class="st0" d="M104,101.1"/>
<g>
	<path class="st1" d="M43.7,26.6c-1.3,4.3-2.4,7.6-3.3,10.9C34.7,58.2,29,79,23.3,99.7c-1.7,6.1-5.7,9.9-12.4,12
		c0.3-1.6,0.3-2.7,0.6-3.8C20.2,76.4,28.9,45,37.8,13.7c0.5-1.8,2.4-4.5,3.7-4.4c3.1,0,6.7-0.8,8.5,4c10.7,28.4,21.8,56.6,32.8,84.9
		c0.3,0.8,0.7,1.6,1.5,3.5c1.1-3.9,2-6.7,2.8-9.5c5.9-21.2,11.9-42.5,17.7-63.7c1.7-6.2,5.5-10,12.6-12c-0.7,2.7-1.1,4.7-1.6,6.6
		c-8.3,30.1-16.5,60.2-24.8,90.3c-0.6,2.2-0.1,5.7-4.3,5.5c-3.8-0.2-6.6-0.3-8.5-5.1C67.7,86.5,56.9,59.5,46.2,32.5
		C45.5,30.9,44.8,29.3,43.7,26.6z"/>
	<path class="st1" d="M36.8,9.2c-1.4,5.1-2.6,9.4-3.8,13.7c-7.6,27.4-15.3,54.9-22.9,82.3c-2,7.3-2.1,7.3-10.1,5.2
		C5.5,90.6,10.9,70.8,16.4,51c2.7-9.8,5.5-19.6,8.1-29.5C26.1,15.5,29.6,11.3,36.8,9.2z"/>
	<path class="st1" d="M128,17.2c-5,18.2-9.9,36-14.8,53.9c-3.3,12.1-6.7,24.1-10.1,36.2c-1.5,5.4-4.9,9.1-11.4,11
		c2.6-9.7,5-18.5,7.4-27.2c6.2-22.4,12.4-44.9,18.6-67.3C119.7,16.4,119.7,16.4,128,17.2z"/>
</g>
</svg>
