<?xml version="1.0" encoding="utf-8"?>
<!-- Generator: Adobe Illustrator 21.1.0, SVG Export Plug-In . SVG Version: 6.00 Build 0)  -->
<svg version="1.1" id="Layer_1" xmlns="http://www.w3.org/2000/svg" xmlns:xlink="http://www.w3.org/1999/xlink" x="0px" y="0px"
	 viewBox="0 0 128 128" style="enable-background:new 0 0 128 128;" xml:space="preserve">
<style type="text/css">
	.st0{fill:#03A1DC;}
</style>
<g>
	<g>
		<path class="st0" d="M123,26.8c0,12.5-9.3,24.6-22.9,26.2c-2.4,0.3-4.9,0.3-7.3,0.8c-7.8,1.6-11.2,11.1-6,17.1
			c2.1,2.5,5.1,3.4,8.3,3.7c3.3,0.4,6.8,0.5,9.9,1.6c10.1,3.4,15.9,10.7,17.6,21.2c2.3,14.2-7.3,27-20.6,30
			c-14.5,3.3-29.5-6.5-32.1-21.1c-1.2-6.4,0.1-12.3,3-17.9c1.2-2.4,2.2-4.7,2.1-7.5c-0.2-4.4-3-8-7.4-9.5c-3.8-1.3-8.1-0.1-10.8,3.2
			c-1.7,2.1-3.1,4.5-4.8,6.6c-6.9,8.3-15.9,11.2-26.3,8.9C15.2,87.6,8.4,80.8,5.8,70.4C2,55.6,11.4,40.6,26.4,37.8
			c11-2.1,20,1.5,26.8,10.5c1.4,1.9,2.7,4.1,4.4,5.7c5.5,5.5,15.4,2.8,17.3-4.7c0.7-2.9,0.1-5.7-1.3-8.4c-2.5-4.8-4.3-9.9-4.1-15.4
			C69.9,12.8,80,1.9,92.6,0.2c14.2-1.8,27.3,7.5,30,21.7C122.8,23.5,122.9,25.2,123,26.8z"/>
	</g>
</g>
</svg>
