<?xml version="1.0" encoding="utf-8"?>
<!-- Generator: Adobe Illustrator 21.1.0, SVG Export Plug-In . SVG Version: 6.00 Build 0)  -->
<svg version="1.1" id="Layer_1" xmlns="http://www.w3.org/2000/svg" xmlns:xlink="http://www.w3.org/1999/xlink" x="0px" y="0px"
	 viewBox="0 0 128 128" style="enable-background:new 0 0 128 128;" xml:space="preserve">
<style type="text/css">
	.st0{fill:none;stroke:#FFFFFF;stroke-width:4;stroke-linecap:round;stroke-linejoin:round;stroke-miterlimit:10;}
	.st1{fill:#3EBB9A;}
</style>
<path class="st0" d="M104,101.1"/>
<g>
	<path class="st1" d="M127.9,119.2c0,5-3.5,8.6-8.6,8.7c-11.7,0.1-23.4,0.2-35-0.1c-20.9-0.5-38.4-16.9-40.8-37.8
		c-0.8-7.4,0.3-14.5,3.2-21.3c4.1-9.6,2.7-16.8-4.6-24.2C34.4,36.8,26.5,29,18.8,21.2c-2.4-2.5-5.2-3.6-8.7-3.2
		C4.8,18.5,0.3,14.5,0,9.3C-0.2,4.4,4,0,9,0c5.3,0,9.4,4.2,9,9.6c-0.3,3.8,0.9,6.7,3.6,9.3c7.8,7.6,15.4,15.3,23,23
		c7.4,7.4,14.6,8.8,24.2,4.7c25-10.6,53.9,4.6,58.2,31.2C128.3,85.6,128,113.4,127.9,119.2z M111,93.7C111,93.7,111,93.7,111,93.7
		c0-2.4,0-4.8,0-7.2c0.1-19.1-16.2-27.8-28.4-26.3C70.1,61.9,60.3,72.4,60.2,85c-0.1,13.1,9.3,24.2,22.1,25.4
		c7.1,0.7,14.4,0.5,21.6,0.4c4.2,0,6.9-2.9,7.1-7.2C111.1,100.3,111,97,111,93.7z"/>
</g>
</svg>
