<?xml version="1.0" encoding="utf-8"?>
<!-- Generator: Adobe Illustrator 21.1.0, SVG Export Plug-In . SVG Version: 6.00 Build 0)  -->
<svg version="1.1" id="Layer_1" xmlns="http://www.w3.org/2000/svg" xmlns:xlink="http://www.w3.org/1999/xlink" x="0px" y="0px"
	 viewBox="0 0 128 128" style="enable-background:new 0 0 128 128;" xml:space="preserve">
<style type="text/css">
	.st0{fill:none;stroke:#FFFFFF;stroke-width:4;stroke-linecap:round;stroke-linejoin:round;stroke-miterlimit:10;}
	.st1{fill:#5C9DD5;}
	.st2{fill:#195199;}
</style>
<path class="st0" d="M104,101.1"/>
<g>
	<path class="st1" d="M61.5,0c-0.4,3.3-0.6,6.1-1,8.8c-1.3,9.3-0.4,18.2,3.8,26.8C70,47.1,75.4,58.7,80.8,70.3
		c3.3,7.1,6.3,14.4,7.9,22.1c0.7,3.7,0.4,7.1-1.4,10.4c-5.4,9.4-12.4,17.3-20.8,24.1c-0.8,0.6-1.9,0.8-2.8,1.2c0-1-0.1-2.1,0.1-3
		c1.1-4.4,2.5-8.8,3.5-13.3c1.3-5.7,0.7-11.4-1.7-16.8c-4.4-9.7-9-19.4-13.5-29.1c-4.3-9.2-8.7-18.3-11.4-28.1
		c-1.4-5.1-2.4-10.3,0-15.3c4.3-8.9,10.9-15.8,18.9-21.5C59.9,0.6,60.4,0.5,61.5,0z"/>
	<path class="st2" d="M21,13.8c0,1,0.1,1.7,0,2.3c-0.8,5.7-1.5,11.4-0.4,17.1c0.5,2.4,1.3,4.8,2.3,7.1c4.5,9.7,9.2,19.2,13.5,28.9
		c2.4,5.5,4.2,11.3,6.1,17.1c0.9,2.7,0.4,5.5-1,8.1c-4.2,7.4-9.8,13.6-16.4,19c-0.6,0.5-1.4,0.8-2.1,1.2c-0.2-0.1-0.3-0.2-0.5-0.3
		c0.1-0.9,0.2-1.8,0.4-2.6c0.9-3.5,1.9-7,2.7-10.5c0.9-4.4,0.5-8.7-1.3-12.8c-4.1-8.9-8.2-17.7-12.3-26.5C8.8,55,5.7,48.2,4,40.9
		C3,36.6,3.7,32.7,5.9,29c3.4-5.6,7.8-10.2,13-14.1C19.4,14.6,20.1,14.3,21,13.8z"/>
	<path class="st2" d="M102.9,14.2c-0.2,1.7-0.4,3.5-0.6,5.2c-0.7,5-1.1,10.2,0.3,15.1c1.1,3.8,2.8,7.5,4.4,11.1
		c4.7,10.4,9.7,20.7,14.2,31.1c1.5,3.5,2.4,7.3,3.1,11.1c0.3,1.8,0,4-0.9,5.7c-4,8-10,14.4-17,20c-0.5,0.4-1.2,0.6-2.3,1.2
		c0.2-1.3,0.2-2.1,0.4-2.9c1-4.2,2.1-8.3,3-12.5c0.8-3.9,0-7.7-1.7-11.3c-4.1-8.9-8.3-17.8-12.4-26.7c-3.1-6.7-6.2-13.5-7.8-20.8
		c-0.9-4.3-0.2-8.1,2.1-11.8c3.3-5.5,7.7-10,12.8-13.8c0.6-0.4,1.2-0.7,1.8-1C102.6,14.1,102.7,14.2,102.9,14.2z"/>
</g>
</svg>
