<?xml version="1.0" encoding="utf-8"?>
<!-- Generator: Adobe Illustrator 21.1.0, SVG Export Plug-In . SVG Version: 6.00 Build 0)  -->
<svg version="1.1" id="Layer_1" xmlns="http://www.w3.org/2000/svg" xmlns:xlink="http://www.w3.org/1999/xlink" x="0px" y="0px"
	 viewBox="0 0 128 128" style="enable-background:new 0 0 128 128;" xml:space="preserve">
<style type="text/css">
	.st0{fill:none;stroke:#FFFFFF;stroke-width:4;stroke-linecap:round;stroke-linejoin:round;stroke-miterlimit:10;}
	.st1{fill:#2A8AC7;}
</style>
<path class="st0" d="M104,101.1"/>
<g>
	<path class="st1" d="M2.6,84c0.9-1.4,1.7-2.6,2.6-4c0.5,0.3,1,0.6,1.5,0.9c18.8,12.1,37.7,24.2,56.5,36.4c1.1,0.7,1.8,0.8,2.9,0
		C84,105.7,102,94.2,120,82.7c2.1-1.3,3.2-3,3.1-5.5c-0.1-2.5,0-5,0-7.9c-0.7,0.4-1.3,0.7-1.8,1c-18,11.5-36,22.9-54,34.4
		c-2.2,1.4-4.1,1.5-6.3,0.1c-18.3-11.7-36.6-23.4-55-34.9c-4-2.5-6-5.8-5.8-10.6c0.2-3.5,0-7,0-10.5c0-1.6,0.6-2.8,2-3.7
		C22,32,42,19,61.9,6c0.8-0.5,1.6-1.2,2.5-1.3c1.1-0.1,2.4,0.1,3.2,0.7c19.4,12.3,38.8,24.6,58.2,37c3,1.9,2.8,5.1-0.3,7
		c-14.9,9.4-29.8,18.8-44.7,28.2c-4.4,2.8-8.8,5.4-13.1,8.3c-2.1,1.4-3.9,1.4-6.1,0C43.4,74.4,25,62.9,6.7,51.4
		c-0.5-0.3-1-0.6-1.7-1c0,3.8-0.1,7.4,0,11c0.1,1.8,1.4,3,2.9,3.9c14.5,9.2,29,18.4,43.5,27.6c3.8,2.4,7.5,4.7,11.2,7.2
		c0.9,0.6,1.6,0.6,2.6,0c18.4-11.8,36.9-23.6,55.4-35.3c0.5-0.3,1-0.7,1.5-0.9c2.7-1.3,5.6,0.3,5.7,3.3c0.1,3.9,0.1,7.8,0,11.7
		c-0.1,3.4-1.9,5.8-4.8,7.6c-12.2,7.8-24.4,15.6-36.6,23.5c-6.4,4.1-12.9,8.2-19.3,12.4c-1.8,1.2-3.4,1.2-5.2,0
		C42.5,109.8,22.9,97.2,3.4,84.6C3.1,84.5,2.9,84.3,2.6,84z M8.6,46.6C9,47,9.4,47.2,9.7,47.5c18,11.3,36,22.6,53.9,33.9
		c0.9,0.6,1.5,0.4,2.3-0.1c18.2-11.5,36.4-23,54.6-34.4c0.4-0.3,0.9-0.6,1.4-1c-0.4-0.3-0.6-0.5-0.9-0.7
		C102.8,33.6,84.6,22,66.3,10.4c-1-0.7-1.7-0.3-2.5,0.2C51.4,18.7,38.9,26.9,26.5,35C20.5,38.8,14.6,42.7,8.6,46.6z"/>
</g>
</svg>
