<?xml version="1.0" encoding="utf-8"?>
<!-- Generator: Adobe Illustrator 21.1.0, SVG Export Plug-In . SVG Version: 6.00 Build 0)  -->
<svg version="1.1" id="Layer_1" xmlns="http://www.w3.org/2000/svg" xmlns:xlink="http://www.w3.org/1999/xlink" x="0px" y="0px"
	 viewBox="0 0 128 128" style="enable-background:new 0 0 128 128;" xml:space="preserve">
<style type="text/css">
	.st0{fill:none;stroke:#FFFFFF;stroke-width:4;stroke-linecap:round;stroke-linejoin:round;stroke-miterlimit:10;}
	.st1{fill:#1D97D4;}
</style>
<path class="st0" d="M104,101.1"/>
<g>
	<path class="st1" d="M0,110.2c1.1-4.5,2.1-8.7,3.2-13.1c5.1,0.5,7.6-2.4,8.9-6.6c2.3-7.3,4.4-14.7,6.7-22.5
		c-5.8,2.9-11.3,0.8-17,1.8c0.9-3.7,1.6-7,2.6-10.2c0.1-0.5,1.4-0.9,2.1-0.9c4.7-0.1,9.3,0,14.1,0c1.7-6.3,3.3-12.5,5-18.7
		c1.5-5.4,3.8-10.4,6.9-15c7-10.4,20.6-8.8,26.5,0.3c4,6.2,6.1,13,8,20c3.8,14.5,7.3,29,11,43.5c0.5,2,1.3,3.9,2.2,5.7
		c1.4,2.7,3.7,2.8,4.8-0.1c1.9-4.8,3.5-9.8,4.8-14.9c3.6-13.8,6.9-27.8,10.6-41.6c1.5-5.6,4.2-10.6,8.1-14.9c2.7-3.1,6-4.9,10.1-5
		c3.1-0.1,6.1,0,9.5,0c-1.1,4.5-2.1,8.7-3.2,13c-5.4-0.7-7.8,2.6-9.1,6.9c-2.2,7.2-4.2,14.5-6.4,22.2c5.8-2.6,11.3-0.9,17-1.6
		c-1,3.9-1.8,7.4-2.7,11c-5.4,0-10.6,0-16.1,0c-1,3.9-1.9,7.8-3,11.7c-2.1,8-4.3,15.9-9.4,22.6c-6.5,8.5-18.2,8.7-24.9,0.3
		c-4.2-5.3-6.3-11.5-8-17.9c-3.9-15-7.6-30-11.5-45C50,38.6,49,36,47.9,33.6c-0.4-0.9-1.7-1.9-2.6-2c-0.7-0.1-2,1.2-2.2,2.1
		c-1.9,5.6-3.7,11.3-5.2,17c-3.4,13.1-6.4,26.3-10.2,39.3c-1.3,4.7-4,9.1-6.6,13.3c-2.7,4.5-7,6.8-12.3,7C6,110.3,3.2,110.2,0,110.2
		z"/>
</g>
</svg>
