<?xml version="1.0" encoding="utf-8"?>
<!-- Generator: Adobe Illustrator 21.1.0, SVG Export Plug-In . SVG Version: 6.00 Build 0)  -->
<svg version="1.1" id="Layer_1" xmlns="http://www.w3.org/2000/svg" xmlns:xlink="http://www.w3.org/1999/xlink" x="0px" y="0px"
	 viewBox="0 0 128 128" style="enable-background:new 0 0 128 128;" xml:space="preserve">
<style type="text/css">
	.st0{fill:none;stroke:#FFFFFF;stroke-width:4;stroke-linecap:round;stroke-linejoin:round;stroke-miterlimit:10;}
	.st1{fill:#6DC4AE;}
	.st2{fill:#450B3D;}
	.st3{fill:#0E889C;}
	.st4{fill:#68174D;}
	.st5{fill:#828282;}
	.st6{fill:#0A4E5C;}
	.st7{fill:#202328;}
</style>
<path class="st0" d="M104,101.1"/>
<g>
	<g>
		<path class="st1" d="M23.6,29c3.3-1.8,6.9-2.8,10.9-3.1c4.2-0.3,8.4-0.2,12.5-0.1c1.5,0,2.9,0.1,4.4,0.1c1.7,0,3.3,0.1,5,0.2
			c2.7,0.1,5.6,0.2,8.3,0.2c3.5-0.1,5.6-2,6.4-5.6c0.5-2.3,0-4.1-1.6-5.7c-1.6-1.6-3.6-2.5-6.4-3c-1.7-0.3-3.3-0.4-5.1-0.4
			c-4.2,0-8.8,0.9-14.1,2.7c-4.7,1.6-9.2,4.2-13.8,8.1C27.9,24.3,25.7,26.6,23.6,29z"/>
		<path class="st2" d="M33.4,49c-4.4,0-8.2,0.8-11.4,2.6c-3,1.6-4.6,3.2-5.5,5.4c-2.7,7.2-3.5,14.5-2.4,21.8
			c2,13.1,8.6,23.2,19.7,29.9c13,7.9,26.8,8.6,41,2.1c1-0.5,2.1-1.1,3.1-1.7c-5.4-2.2-8.9-4.6-13-8.4c-0.1,0-0.2,0-0.3,0
			c-5.2,1.4-9.9,1.6-14.3,0.6C38.4,98.5,30.6,91,27.7,79.7c-2.9-11.4,0.4-21.7,9.7-29.8c0.3-0.2,0.6-0.5,0.8-0.7c-1-0.1-2-0.1-3-0.2
			C34.6,49,34,49,33.4,49z"/>
		<path class="st3" d="M108.6,76.9c-2.8,3.7-5.4,7.1-7.8,10.6c-1.2,1.8-1.6,3.5-1.3,5.2c0.4,1.9,1.5,3.4,2.9,4
			c1.4,0.6,3,0.3,4.5-0.7c1.7-1.1,3.2-2.5,4.2-3.8c5.2-7,7.8-14.9,7.9-23.5c0-3.3-0.1-6.9-0.6-11c-0.2,0.8-0.4,1.6-0.6,2.4
			C116,66.6,112.3,72,108.6,76.9z"/>
		<path class="st2" d="M128,64c0.2,35-28.2,63.1-62.3,64c-36.5,0.9-65-28-65.7-62.3C-0.8,28.9,28.5,0.7,62.7,0
			C98.9-0.7,128.2,28.6,128,64z M63.9,122.2c31.1,0.3,58.6-25.2,58.3-58.7C122,31.1,95.6,6.2,64.6,5.8C32.7,5.5,5.7,31.5,5.8,64.2
			C5.9,96.3,32.4,122.3,63.9,122.2z"/>
		<path class="st4" d="M61.1,51.2c1.8,0.8,3.7,1.7,5.5,2.5c1.5,0.6,3,1,4.6,1.2c-0.2-0.6-0.4-1.2-0.5-1.8c-0.2-1.9,0.3-3.7,1.5-5.2
			c1.3-1.6,3.3-2.5,5.5-2.5c1.9,0,3.6,0.7,4.9,2c1.3,1.3,2,2.7,2.2,4.3c3.8-2.8,6.4-7.1,7.1-11.9c0.7-5.3-1-10.3-4.8-13.9
			c-2.7-2.6-6.1-4.6-10.5-6.3c-0.1,5.5-3.9,11.4-11.1,12.2c-4.5,0.5-9,0.1-13.3-0.3c-0.7-0.1-1.4-0.1-2.1-0.2
			c-2.8-0.2-5.6-0.4-8.3-0.4c-2.8,0-5.6,0.2-8.4,0.8c-8.1,1.7-14,5.4-18,11.3c-2.6,3.8-4.1,8.4-4.5,13.9c1.6-3.5,4-6.3,7.4-8.5
			c4.5-2.9,9.9-4.2,16.5-4.1c7.3,0.1,14.4,1.8,21.9,5C58.1,49.8,59.6,50.5,61.1,51.2z"/>
		<path class="st5" d="M49.5,75.4c-2.4-0.9-3.6-2.8-3.5-5.5c0-3.3,2.3-5.6,5.4-5.7l0.2,0c0.6,0,1.1,0.1,1.7,0.2
			c1.3-3.1,3.5-6,6.5-8.5c-4.5-2.2-8.5-3.8-12.4-4.8c-0.1,0-0.3,0-0.4,0c-0.3,0-0.7,0.1-0.9,0.2C35.9,55.9,30.3,68,33.4,78.8
			c1.8,6.3,6,11.5,11.8,14.5c3.9,2.1,8.2,2.9,12.6,2.6L49.5,75.4z"/>
		<g>
			<path class="st6" d="M112.7,38.1c-1.2-3-2.9-5.9-5.2-8.7c2.7,6.6,2.4,14-1,21.4c-1.7,3.8-4.1,7.3-7.2,10.8c0.2,0.9,0.2,1.7,0,2.3
				c-0.3,1.3-1,2.3-1.9,3.1l-0.2,3.3l1.7-1.4c0.9-4.1,3.7-4.8,5.5-4.8c2.2,0,4.1,1.2,5.1,3.1c0.5-0.8,1-1.7,1.5-2.5
				C115.6,55.8,116.2,46.9,112.7,38.1z"/>
			<path class="st6" d="M95.6,95.3c-0.3,0-0.5,0-0.8,0c-0.5,0-0.9,0-1.3-0.1C92,95,90.5,94.9,89,94.8c-1-0.1-2.1-0.2-3.1-0.3
				c-1.4-0.1-2.9-0.2-5-0.2c-0.9,0-1.7,0-2.6,0c-0.7,0-1.4,0-2.2,0c-0.5,0-1.1,0-1.7,0.1c1.5,3.5,4.6,6.1,6.3,7.3
				c5,3.4,11.5,2.5,17.7-2.2C97.2,98.2,96.2,96.8,95.6,95.3C95.6,95.3,95.6,95.3,95.6,95.3z"/>
		</g>
	</g>
	<g>
		<g>
			<path class="st7" d="M60.5,92.1c-2.7-6.8-5.4-13.4-8.1-20.1c-0.5-0.1-0.8-0.1-1.2-0.2c-1-0.3-1.3-0.7-1.3-1.9
				c0-1.1,0.6-1.8,1.5-1.8c1.2,0,1.9,0.6,1.9,1.8c0,0.3,0,0.7,0,1.1c3.2,2.6,6.5,5.1,9.9,7.8c0.2-1.4,0.1-2.8,0-4.1
				c0-0.7-0.2-1.3-0.2-2c-0.2-2.6-0.3-5.2-0.4-7.8c-0.5-0.6-1.6-0.3-1.6-1.3c0-0.6,0-1.3,0.2-1.8c0.4-0.8,1.7-1,2.5-0.5
				c0.9,0.6,0.9,1.7,0,3.2c2.2,4,4.5,8.1,6.9,12.4c2-7.2,4-14.3,5.9-21.3c-2-1.5-2.4-3.7-1.2-5.2c1-1.2,3.2-1.4,4.5-0.2
				c1.6,1.6,1.4,3.1-0.9,5.4c2,7.2,4,14.5,6.1,22c2.8-4.4,4.9-8.9,7.4-13.1c-0.8-1.4-0.7-2.7,0.2-3.3c0.8-0.5,2-0.1,2.5,0.7
				c0.7,1.1,0.3,1.8-1.5,3c-0.3,4.6-0.6,9.2-0.9,14c3.5-2.7,6.8-5.4,10.1-8c0.1-2.2,0.5-2.9,1.8-2.9c0.9,0,1.7,0.7,1.7,1.7
				c0.1,1.2-0.5,1.8-2.5,2.2c-2.5,6.3-5.1,12.7-7.7,19.2c-0.6,0-1.3,0.1-2,0c-2.6-0.4-5.2-0.5-7.8-0.7c-3.4-0.4-6.8-0.2-10.2-0.2
				c-2.1,0-4.2,0.5-6.3,0.6c-2.1,0.1-4.2,0.5-6.3,0.7C62.6,91.8,61.6,91.9,60.5,92.1z"/>
		</g>
	</g>
</g>
</svg>
