<?xml version="1.0" encoding="utf-8"?>
<!-- Generator: Adobe Illustrator 21.1.0, SVG Export Plug-In . SVG Version: 6.00 Build 0)  -->
<svg version="1.1" id="Layer_1" xmlns="http://www.w3.org/2000/svg" xmlns:xlink="http://www.w3.org/1999/xlink" x="0px" y="0px"
	 viewBox="0 0 128 128" style="enable-background:new 0 0 128 128;" xml:space="preserve">
<style type="text/css">
	.st0{fill:none;stroke:#FFFFFF;stroke-width:4;stroke-linecap:round;stroke-linejoin:round;stroke-miterlimit:10;}
	.st1{fill:#41BAD3;}
	.st2{fill:#CECECE;}
</style>
<path class="st0" d="M104,101.1"/>
<g id="Layer_x0020_1_5_">
	<g id="_921457168_5_">
		<path class="st1" d="M105.7,36L74,4.1c-5.5-5.5-14.4-5.5-19.9,0L22.4,35.9c-1.9,1.9-1.9,4.8,0,6.7l9.6,9.6l6.4,6
			c1.9,1.7,4.8,1.7,6.7,0l12.8-11.8c3.5-3.3,8.9-3.3,12.4,0l12.8,11.8c1.9,1.7,4.8,1.7,6.7,0l6.4-6l9.6-9.6
			C107.5,40.8,107.5,37.8,105.7,36z"/>
		<path class="st2" d="M4.3,74L54,123.9c5.5,5.5,14.4,5.5,19.9,0L123.7,74c8.6-8.6,2.6-11.2-3.8-17.2l-7.8-7.4
			c-1.9-1.8-4.8-1.7-6.7,0L92.7,61.2c-3.5,3.3-8.9,3.3-12.4,0L67.4,49.4c-1.9-1.7-4.8-1.7-6.7,0L47.9,61.2c-3.5,3.3-8.9,3.3-12.4,0
			L22.7,49.4c-1.9-1.7-4.8-1.7-6.7,0l-7.2,6.7C2.2,62.2-4.7,65,4.3,74z"/>
	</g>
</g>
</svg>
