<?xml version="1.0" encoding="utf-8"?>
<!-- Generator: Adobe Illustrator 21.1.0, SVG Export Plug-In . SVG Version: 6.00 Build 0)  -->
<svg version="1.1" id="Layer_1" xmlns="http://www.w3.org/2000/svg" xmlns:xlink="http://www.w3.org/1999/xlink" x="0px" y="0px"
	 viewBox="0 0 128 128" style="enable-background:new 0 0 128 128;" xml:space="preserve">
<style type="text/css">
	.st0{fill:none;stroke:#FFFFFF;stroke-width:4;stroke-linecap:round;stroke-linejoin:round;stroke-miterlimit:10;}
	.st1{fill:#EBB242;}
</style>
<path class="st0" d="M104,101.1"/>
<g>
	<path class="st1" d="M53,17.1c0-6,0-11.4,0-17.1c7.1,0,14,0,21.4,0c0,5.5,0,11,0,16.9c8.8,0,17,0,26,0c-0.9,8.2,2,16.1-4.2,23.7
		C84,55.6,72.7,71.4,61,86.9c-0.1,0.2-0.1,0.5-0.2,1.3c13.6,0,27.2,0,40.9,0c0,8,0,15.4,0,23.3c-9,0-17.8,0-27.1,0
		c0,5.8,0,11.1,0,16.6c-7.3,0-14,0-21.3,0c0-5.3,0-10.6,0-16.3c-9.1,0-17.7,0-26.9,0c0.5-8.4-1.6-16.1,4.7-23.6
		c12.5-15,23.9-30.9,35.7-46.4c0.2-0.3,0.3-0.7,0.6-1.5c-12.6,0-25,0-37.6,0c0-7.8,0-15.2,0-23C37.4,17.1,44.9,17.1,53,17.1z"/>
</g>
</svg>
