<?xml version="1.0" encoding="utf-8"?>
<!-- Generator: Adobe Illustrator 21.1.0, SVG Export Plug-In . SVG Version: 6.00 Build 0)  -->
<svg version="1.1" id="Layer_1" xmlns="http://www.w3.org/2000/svg" xmlns:xlink="http://www.w3.org/1999/xlink" x="0px" y="0px"
	 viewBox="0 0 128 128" style="enable-background:new 0 0 128 128;" xml:space="preserve">
<style type="text/css">
	.st0{fill:#C64A27;}
	.st1{fill:#D35127;}
	.st2{fill:#F16924;}
	.st3{fill:#AD8F44;}
	.st4{fill:#C5A857;}
	.st5{fill:#E1C87E;}
</style>
<g>
	<path class="st0" d="M64,128C28.7,128,0,99.3,0,64S28.7,0,64,0s64,28.7,64,64S99.3,128,64,128z"/>
</g>
<g>
	<path class="st1" d="M64,120.1c-32,0-58.1-26-58.1-58.1S32,4,64,4s58.1,26,58.1,58.1S96,120.1,64,120.1z"/>
	<path class="st2" d="M64,8c29.8,0,54.1,24.3,54.1,54.1c0,29.8-24.3,54.1-54.1,54.1c-29.8,0-54.1-24.3-54.1-54.1
		C9.9,32.3,34.2,8,64,8 M64,0L64,0C29.7,0,1.9,27.8,1.9,62.1v0c0,34.3,27.8,62.1,62.1,62.1h0c34.3,0,62.1-27.8,62.1-62.1v0
		C126.1,27.8,98.3,0,64,0L64,0z"/>
</g>
<g>
	<path class="st3" d="M64,128C28.7,128,0,99.3,0,64S28.7,0,64,0s64,28.7,64,64S99.3,128,64,128z"/>
</g>
<g>
	<path class="st4" d="M64,120.1c-32,0-58.1-26-58.1-58.1S32,4,64,4s58.1,26,58.1,58.1S96,120.1,64,120.1z"/>
	<path class="st5" d="M64,8c29.8,0,54.1,24.3,54.1,54.1c0,29.8-24.3,54.1-54.1,54.1c-29.8,0-54.1-24.3-54.1-54.1
		C9.9,32.3,34.2,8,64,8 M64,0L64,0C29.7,0,1.9,27.8,1.9,62.1v0c0,34.3,27.8,62.1,62.1,62.1h0c34.3,0,62.1-27.8,62.1-62.1v0
		C126.1,27.8,98.3,0,64,0L64,0z"/>
</g>
<g>
	<path class="st3" d="M13.6,65.6c0-29.8,24.2-54,54-54c13.9,0,26.6,5.3,36.2,13.9c-9.9-10.9-24.2-17.8-40-17.8
		c-29.8,0-54,24.2-54,54c0,15.9,6.9,30.1,17.8,40C18.8,92.2,13.6,79.5,13.6,65.6z"/>
</g>
<g>
	<polygon class="st3" points="46.7,59.5 46.7,59.5 46.7,59.5 46.7,59.5 46.7,59.5 	"/>
	<path class="st3" d="M29.4,87.3c-0.1,0-0.2,0-0.3,0C29.1,87.3,29.2,87.3,29.4,87.3z"/>
	<path class="st3" d="M106.6,66.2c-0.2-0.7-1.7-5.8-5.1-8.7c-6.8-5.7-17-3.8-19.9-2.9c-1.2,0.4-2.4,0.3-3.5-0.2
		c-0.2-0.1-0.5-0.2-0.7-0.4c0.5,0.5,0.9,1.1,1.1,1.7c0.3,0.9,0.4,1.7,0.5,2.6c0.1,1.3-0.2,2.5-0.3,3.8c-0.1,0.6-0.3,1.2-0.4,1.8
		c-0.5,2.1-1.2,4.1-2.2,6c-0.4,0.7-0.8,1.4-1.2,2.1h0c-1.1,1.6-2.3,3-4.1,4.1c1.3,0.6,2,1.7,2.7,2.7c0.8,1.2,1.5,2.3,2.5,3.3l0,0v0
		c1.2,1.4,2.7,2.6,4.3,3.5h0c1.1,0.8,2.3,1.2,3.5,1.7c0.9,0.3,1.8,0.6,2.8,0.7l0,0l0,0c2,0.5,4.1,0.4,6.1,0.1
		c2.8-0.5,5.3-1.7,7.5-3.4c0.2-0.2,1.4-1.1,1.5-1.3c1-0.8,1.8-1.8,2.5-2.8c0.3-0.4,1.3-1.9,1.5-2.4
		C106.2,76.9,108.1,72.1,106.6,66.2z M78.3,54.8C78.3,54.8,78.3,54.8,78.3,54.8C78.3,54.8,78.3,54.8,78.3,54.8
		C78.3,54.8,78.3,54.8,78.3,54.8z M80.6,66.1c-1,2.5-1.4,5-1.2,7.7c0.1,1.4,0.4,2.8,1,4.2c0,0.1,0.1,0.1,0.1,0.2c0,0,0,0,0,0
		c-1.1-1.8-1.5-3.7-1.8-5.7c-0.3-2.3,0.4-4.5,0.4-4.7c0.4-1.4,1.4-4.6,4.9-7.4c0.7-0.6,1.3-1.2,2.2-1.5c-1.2,1.1-3.8,4.1-3.9,4.3
		C81.5,64,81,65,80.6,66.1z M83.6,61.9C83.6,61.9,83.6,61.9,83.6,61.9C83.5,61.9,83.5,61.9,83.6,61.9C83.5,61.9,83.6,61.9,83.6,61.9
		z M87.4,83.2l-4.1-5.7l5.3-3.2l-3-5.3l5.6-2.6l-2.3-5.7l6.7-1.5l0.6,0.8l-5.6,1.5l2.5,5.7l-5.8,2.3l2.9,5.6L85,77.7l3.3,4.9
		L87.4,83.2z M88.9,78.3l4.6-2.7L90.9,71l4.8-2.2l-2-4.9l5.7-1.3l0.5,0.7l-4.8,1.3l2.2,4.8l-5,2l2.5,4.8l-4.5,2.3l2.9,4.2l-0.9,0.5
		L88.9,78.3z M98.7,85.2C98.7,85.2,98.7,85.2,98.7,85.2C98.7,85.2,98.7,85.2,98.7,85.2C98.7,85.2,98.7,85.2,98.7,85.2
		C98.7,85.2,98.7,85.2,98.7,85.2C98.7,85.2,98.7,85.2,98.7,85.2z M105,74.5c-0.7,3.5-2.5,6.3-5.2,8.6c-0.5,0.4-1.1,0.7-1.4,1.3
		c0,0,0,0,0,0c-0.1,0.1-0.2,0.1-0.4,0.2c-2.3,1.5-4.8,2.3-7.5,2.3c0,0,0,0,0,0c0-0.1,0-0.2-0.1-0.2c-0.3,0-0.1-0.1-0.1-0.2
		c0,0,0,0,0,0c0.2,0.2,0.4,0.1,0.6,0.1c2.6-0.6,4.9-1.7,7-3.3c0.2-0.1,0.4-0.2,0.4-0.5c0.2,0,0.4-0.1,0.6-0.3
		c2.4-2.2,4.2-4.7,5.1-7.9c0.6-2.1,0.8-4.1,0.5-6.1C105.1,70.4,105.4,72.4,105,74.5z"/>
	<path class="st3" d="M76.6,53.5c-0.5-0.6-1.1-1.1-1.6-1.7c-0.3-0.1-0.5-0.3-0.7-0.4c-0.1,0-0.2-0.1-0.3,0c-0.1,0.1,0,0.2,0,0.3
		c0.1,0.2,0.3,0.3,0.2,0.6c0.2,0.5,0.6,1.1,0.7,1.6c0.6,2.1,0.4,4.1-0.1,6.2c-0.2,0.9-0.1,1.7,0.3,2.5c0.3,1.3,0.8,2.5,1.7,3.6
		c0.2-0.1,0.2-0.3,0.3-0.5c0.6-1.4,1-2.9,1.2-4.4c0.2-1.2,0.2-2.3,0-3.5v0C78.2,56.2,77.7,54.7,76.6,53.5z"/>
	<path class="st3" d="M79,54.4c0.2-0.1,0.4-0.1,0.5-0.1c1.2,0,2.4-0.4,3.4-1c0.6-0.4,1.3-0.8,1.5-1.6c0-0.1,0-0.1,0-0.2
		c0-0.2-0.1-0.4-0.2-0.4c-0.2,0-0.2,0.2-0.2,0.4c0,0.3-0.2,0.4-0.4,0.5c-0.8,0.4-1.7,0.5-2.5,0c-1-0.5-1.7-1.3-2.1-2.3
		c-0.1-0.4-0.2-0.7-0.2-1.1c0-0.3-0.1-0.4-0.4-0.2c-0.8,0.4-1.5,0.9-2.1,1.5c-0.7,0.8-0.7,0.8,0.3,1.2c0.1,0.1,0.3,0.1,0.4,0.2
		c1,0.7,1.9,1.5,1.9,2.8C78.7,54.4,78.8,54.5,79,54.4z"/>
	<path class="st3" d="M63.2,75.6c0,0,0,0.1,0,0.1l0,0c-0.2,0-0.4,0-0.6,0.2c0.6,0.2,1.3,0.1,1.9,0.2c1.5,0.1,3,0.1,4.5,0
		c1.2,0,2.1-0.7,2.9-1.5c0.3-0.3,0.6-0.6,0.8-0.9c0.8-0.9,1.6-1.9,2.2-3l0,0c0.5-0.9,1.1-1.7,1.4-2.7c0.2-0.7,0.5-1.2-0.3-1.9
		c-0.2-0.2-0.3-0.4-0.4-0.6c-0.4-0.6-0.6-1.3-0.8-2c-0.1-0.5-0.2-1-0.5-1.5c-0.3,0.8-0.5,1.6-0.7,2.3l0,0c0,0.1-0.1,0.2-0.1,0.2
		c-1.1,2.7-2.5,5.2-4.4,7.4c-1.1,1.3-2.4,2.4-4,3.1c0.2-0.3,0.5-0.4,0.8-0.6c2.2-1.6,3.9-3.6,5.2-6c0.5-0.8,1-1.5,1.2-2.4l0,0
		c0.3-0.6,0.5-1.1,0.8-1.7c0.8-2,1.4-4,1.6-6.1c0.3-2.4,0.3-4.8-1.3-6.8c-0.2-0.4-0.7-0.4-1-0.6c-1.5-0.8-2.9-0.6-4.3,0.4
		c-0.1,0.1-0.4,0.2-0.3,0.4c0.1,0.2,0.3,0.1,0.5,0c0.2-0.1,0.3-0.1,0.5-0.1c0.9-0.2,2.1,0.2,2.5,0.9c0.5,0.6,0.9,1.3,1,2.1
		c0.4,2,0.1,4-0.4,6c-0.5,2.1-1.4,4-2.4,5.9c-0.1,0.1-0.2,0.2-0.3,0.3c-0.9,1.4-1.9,2.8-3.2,3.9c-4.3,4-6.8,1.3-6.8-0.7
		c0-0.6,0-1.2,0-1.7l0,0c0-0.2,0.1-0.4,0.1-0.6c0-0.2,0-0.4,0-0.5c-0.7,1.4-1.2,2.8-1.1,4.4v0c0.1,1.4,0.8,2.5,2,3.3
		C61.2,75.6,62.2,75.7,63.2,75.6z"/>
	<path class="st3" d="M73,85.9c-1.3-0.2-2.6-0.7-3.7-1.3c-1.5-1-2.7-2.4-3.2-4.2v0c-0.1-0.8-0.3-1.6-0.4-2.4c0-0.3-0.2-0.2-0.3-0.2
		c-1,0-2,0.1-3.1-0.3c0,0.9,0.2,1.7,0.5,2.4c0.2,0.7,0.5,1.4,1,2.1c0.9,1.6,2.1,2.8,3.6,3.7h0c1.1,0.7,2.2,1.2,3.5,1.3
		c0.1,0,0.2,0,0.2,0c1.9,0.3,3.8,0,5.6-0.8c0.7-0.3,1.3-0.6,1.8-1.3c-0.4,0.1-0.7,0.2-1,0.4C76.1,85.9,74.5,85.9,73,85.9z"/>
	<path class="st3" d="M57,66.6c2-1.2,3.7-2.4,6.1-2.4h0l0,0c0.7,0.1,1.3,0.2,2,0.4c0.4,0.2,0.9,0.4,1.3,0.7c0.2,0.1,0.3,0.1,0.4-0.1
		c0.5-0.8,0.9-1.6,1.4-2.4c0.7-1,1.3-2,2-3c0.2-0.2,0.2-0.4-0.1-0.5c-2.1-0.7-4.3-0.7-6.4-0.1c-0.1,0-0.3,0-0.4,0.1
		c-1.7,0.5-3.3,1.3-4.7,2.3c-0.9,0.6-1.7,1.3-2.3,2.3c-0.7,0.9-1.4,1.8-1.9,2.7c-0.4,0.6-0.7,1.3-1.1,1.9c-1.2,2.2-1.4,4.9-1.5,5.7
		C52.3,73.1,53.5,68.7,57,66.6z"/>
	<path class="st3" d="M72.8,48.7c0.4,0.1,0.8,0.4,1.1,0.5c0.4,0.3,0.8,0.7,1.2,1.1c0.2,0.2,0.3,0.2,0.4,0c0.5-0.7,1.2-1.3,1.9-1.8
		c1-0.7,2.2-1.1,3.4-1.3c0.9,0,1.8,0,2.7,0.3c2.9,0.9,5,2.9,5.3,3.2c0.1,0.1,0.2,0.3,0.4,0.1c0.2-0.1,0-0.3-0.1-0.4
		c-0.2-0.5-2.5-7.1-11.4-5.2c-1.9,0.4-3.5,1.5-4.9,2.9C72.6,48.4,72.4,48.6,72.8,48.7z"/>
	<path class="st3" d="M53.6,67L53.6,67L53.6,67c0.5-0.7,1-1.5,1.6-2.3c-0.6,0-1.2,0.1-1.3,0.1c-2.1,0.4-4.1,1.3-5.8,2.6
		c-1.4,1.1-2.6,2.4-3.3,4.2v0c-0.7,1.5-0.8,3-0.9,4.6c-0.1,1.2-0.2,2.4-0.8,3.5c-0.6,1-1.5,1.2-2.4,0.5c-0.3-0.3-0.4-0.7-0.3-1.2
		c0.1-0.5,0.4-0.7,0.9-0.7c0.3,0,0.5,0.2,0.6,0.5c0.1,0.4-0.3,0.5-0.6,0.6c0,0,0,0-0.1,0.1c0.5,0.5,1.2,0.4,1.5-0.2
		c0.3-0.5,0.1-1.2-0.4-1.7c-0.8-0.8-2.3-0.6-3.1,0.4c-1,1.1-0.9,2.8,0.3,4l0,0v0c0.7,0.8,1.7,1,2.6,0.9c3-0.1,4.9-2.1,5.6-4.7
		c0.1-0.3,0.3-0.6,0.4-0.9c0.8-1.3,1.6-2.5,3.3-2.5c0.2,0,0.2,0,0.2-0.2c0-0.7,0-1.4,0-2.1c0.1-0.3,0.1-0.6,0.2-1
		C52,69.9,52.8,68.4,53.6,67z"/>
	<path class="st3" d="M73,82.3c-0.2,0.1-0.4-0.1-0.5-0.2c-0.1-0.1-0.2-0.3-0.4-0.5c0,0.2,0,0.3,0,0.4c0,0.7,0.3,1,0.9,1.1
		c0.5,0,0.9-0.3,1-1c0.1-0.5,0-1-0.2-1.5c-0.4-1.4-1.3-2.5-2.4-3.5c-0.3-0.3-0.5-0.3-0.7,0.1c-0.2,0.3-0.6,0.5-0.9,0.7
		c-0.7,0.3-1.3,0.3-2,0.3C67.4,78,67,78,66.6,77.8c-0.4-0.1-0.5,0-0.5,0.3c0,0.4,0.3,2.6,0.9,3.3c1.3-1.3,2.7-1.9,4.5-1.3h0l0,0
		c0.6,0.3,1.1,0.7,1.4,1.2c0,0.1,0.1,0.3,0.1,0.4C73.2,82,73.2,82.2,73,82.3z"/>
	<path class="st3" d="M56.4,71.8c-0.7,0.3-0.9,0.9-1,1.7c0.5-0.5,0.9-1.1,1.6-0.6h0v0c0.3,0.4,0.1,0.7-0.2,1c-0.4,0.4-0.9,0.2-1.3,0
		c-0.5-0.5-0.7-1.1-0.5-1.8c0.1-0.6,0.5-1.2,0.7-1.8l0,0c0,0,0.1,0,0.1-0.1c1.6-2.4,3.8-3.9,6.5-4.8c0.8-0.3,1.6-0.3,2.4-0.5
		c-1.1-0.3-2.2-0.3-3.3,0c-0.1,0-0.1,0-0.2,0c-2.5,0.7-4.5,2.2-6.1,4.1h0c-0.6,0.7-1.1,1.5-1.5,2.3c-0.2,0.4-0.4,0.8-0.5,1.3
		c-0.3,1-0.2,1.9,0.6,2.7c0.4,0.4,0.8,0.7,1.4,0.8c1.4,0.4,3.2-0.7,3.5-2.2c0.2-0.7,0.1-1.2-0.4-1.7C57.6,71.7,57,71.6,56.4,71.8z"
		/>
	<path class="st3" d="M69.2,58.3C69.2,58.3,69.2,58.3,69.2,58.3C69.2,58.3,69.3,58.3,69.2,58.3C69.3,58.3,69.3,58.3,69.2,58.3z"/>
	<path class="st3" d="M70.6,59c0,0-1-1.3-3.4-2.5c0.2,0.1,0.4,0.3,0.7,0.4C69,57.4,69.8,58.2,70.6,59z"/>
	<path class="st3" d="M67.6,56L67.6,56c0.5,0.3,1.5,0.9,1.8,1.2c-0.2-0.4-0.5-0.8-0.8-1.1c-1.8-1.9-4-2.3-5-2.6
		c-3.7-1.1-2.1-2.9-0.9-2.1c0.4,0.2,0.8,1.2,0.9,1.5c0.5-1.2,0.4-2.3-1-2.7c-1.7-0.5-4,1-3.7,3.2c0,0.1,0.1,0.3,0.1,0.4
		C62.3,54,65.2,54.7,67.6,56L67.6,56z"/>
	<path class="st3" d="M67.9,57c-0.2-0.2-0.4-0.3-0.7-0.4c-1.9-1-4.6-1.9-8.5-2.2c-1.1,0-2.3,0.1-3.6,0.3c-1.4,0.3-2.9,0.8-4.4,1.6
		c-1.6,0.8-3,1.9-4.4,3.1c-2.1,1.8-4,3.7-6.1,5.4c-1.2,1-2.5,1.9-4.1,2.2c-1.2,0.2-2-0.1-2.5-1l0,0v0c0-0.1-0.1-0.2-0.1-0.3
		c-0.1-0.7,0.2-1.3,0.8-1.3c0.6-0.1,1.1,0.3,1.1,1.1c0,0.1-0.1,0.3,0.1,0.4c0.6-0.7,0.7-1.5,0.4-2.1c-0.4-0.7-1.1-1-1.9-1
		c-2,0-3.3,2.1-2.5,4l0,0h0c0.4,1,1,1.8,2,2.3c0.1,0.1,0.3,0.2,0.5,0.2c1.4,0.5,2.8,0.2,4.2-0.3c1.1-0.4,2.1-1.1,3.1-1.7l0,0l0,0
		c-0.1,0.2-0.2,0.3-0.4,0.4c-1.3,1.1-2.5,2.3-3.5,3.7v0h0c-0.7,0.9-1.2,2-1.6,3.1c-0.2,0.3-0.3,0.6-0.4,0.9c-0.7,2-1.4,4-2.2,6
		c-0.4,0.5-0.7,1.1-1.1,1.6c-1,1.2-2.1,2.2-3.8,1.8c0,0-1-0.2-1.3-1.1c-0.2-0.5-0.1-0.9,0.2-1.2c0.4-0.3,0.8-0.4,1.2-0.1
		c0.4,0.3,0.5,0.6,0.3,1.1c0,0.1-0.1,0.2,0,0.2c0.1,0.1,0.2,0,0.3,0c0.1-0.1,0.2-0.2,0.3-0.3c0.4-0.6,0.2-1.3-0.4-1.8
		c-0.7-0.5-1.4-0.6-2.1-0.3c-0.9,0.4-1.6,1.1-1.7,2.2c-0.2,1.3,0.4,2.2,1.4,3c1.2,1,2.9,1,3.5,0.9c2.6-0.4,4.8-1.7,6.6-3.6l0,0
		c0.6-0.4,1.1-1,1.6-1.6c0.1-0.1,0.2-0.2,0.1-0.3c-0.3-0.6-0.5-1.2-0.6-1.8l0,0l0,0c0-0.9,0.2-1.8,0.5-2.6c1-2.5,2.5-4.6,4.3-6.6
		c2.7-3.1,6-5.2,10-6.2c0.9-0.2,1.8-0.3,2.9-0.4c-0.3-0.2-0.7-0.3-0.9-0.4c-0.8-0.3-1.3-0.4-2-0.6h0v0c-1.3-0.2-3.2-0.1-4.2,0.2
		c-1.9,0.5-3.6,1.4-5.2,2.5c-0.1,0.1-0.2,0.3-0.4,0.2l0,0c0,0,0,0,0,0c0.2-0.1,0.4-0.3,0.6-0.4c2.8-2.5,6-3.6,9.8-2.8h0l0,0
		c1.3,0.3,2,1,2.4,0.7c0.3-0.2,0.7-0.4,0.9-0.7c0.8-1,1.8-1.8,2.8-2.5c2.1-1.5,4.5-2.3,7.1-2.3c1.5,0.1,2.9,0.4,4.3,0.9
		C69.8,58.2,69,57.4,67.9,57z M46.7,59.5L46.7,59.5L46.7,59.5C46.7,59.5,46.7,59.5,46.7,59.5C46.7,59.5,46.7,59.5,46.7,59.5
		C46.7,59.5,46.7,59.5,46.7,59.5z M69.2,58.3C69.3,58.3,69.3,58.3,69.2,58.3C69.3,58.3,69.2,58.3,69.2,58.3
		C69.2,58.3,69.2,58.3,69.2,58.3z"/>
</g>
<g>
	<polygon class="st5" points="43.8,56.6 43.8,56.6 43.8,56.6 43.8,56.6 43.8,56.6 	"/>
	<path class="st5" d="M26.5,84.4c-0.1,0-0.2,0-0.3,0C26.2,84.4,26.3,84.4,26.5,84.4z"/>
	<path class="st5" d="M103.6,63.3c-0.2-0.7-1.7-5.8-5.1-8.7c-6.8-5.7-17-3.8-19.9-2.9c-1.2,0.4-2.4,0.3-3.5-0.2
		c-0.2-0.1-0.5-0.2-0.7-0.4c0.5,0.5,0.9,1.1,1.1,1.7c0.3,0.9,0.4,1.7,0.5,2.6c0.1,1.3-0.2,2.5-0.3,3.8c-0.1,0.6-0.3,1.2-0.4,1.8
		c-0.5,2.1-1.2,4.1-2.2,6c-0.4,0.7-0.8,1.4-1.2,2.1h0c-1.1,1.6-2.3,3-4.1,4.1c1.3,0.6,2,1.7,2.7,2.7c0.8,1.2,1.5,2.3,2.5,3.3l0,0v0
		c1.2,1.4,2.7,2.6,4.3,3.5h0c1.1,0.8,2.3,1.2,3.5,1.7c0.9,0.3,1.8,0.6,2.8,0.7l0,0l0,0c2,0.5,4.1,0.4,6.1,0.1
		c2.8-0.5,5.3-1.7,7.5-3.4c0.2-0.2,1.4-1.1,1.5-1.3c1-0.8,1.8-1.8,2.5-2.8c0.3-0.4,1.3-1.9,1.5-2.4C103.3,74,105.2,69.2,103.6,63.3z
		 M75.4,51.9C75.4,51.9,75.4,51.9,75.4,51.9C75.4,51.9,75.4,51.9,75.4,51.9C75.4,51.9,75.4,51.9,75.4,51.9z M77.7,63.2
		c-1,2.5-1.4,5-1.2,7.7c0.1,1.4,0.4,2.8,1,4.2c0,0.1,0.1,0.1,0.1,0.2c0,0,0,0,0,0c-1.1-1.8-1.5-3.7-1.8-5.7
		c-0.3-2.3,0.4-4.5,0.4-4.7c0.4-1.4,1.4-4.6,4.9-7.4c0.7-0.6,1.3-1.2,2.2-1.5c-1.2,1.1-3.8,4.1-3.9,4.3
		C78.6,61.1,78.1,62.1,77.7,63.2z M80.6,59C80.6,59,80.6,59,80.6,59C80.6,59,80.6,59,80.6,59C80.6,59,80.6,59,80.6,59z M84.4,80.2
		l-4.1-5.7l5.3-3.2l-3-5.3l5.6-2.6L86,57.8l6.7-1.5l0.6,0.8l-5.6,1.5l2.5,5.7l-5.8,2.3l2.9,5.6l-5.2,2.6l3.3,4.9L84.4,80.2z
		 M86,75.4l4.6-2.7L88,68.1l4.8-2.2l-2-4.9l5.7-1.3l0.5,0.7l-4.8,1.3l2.2,4.8l-5,2l2.5,4.8l-4.5,2.3l2.9,4.2l-0.9,0.5L86,75.4z
		 M95.8,82.3C95.8,82.3,95.8,82.3,95.8,82.3C95.8,82.3,95.8,82.3,95.8,82.3C95.8,82.3,95.8,82.3,95.8,82.3
		C95.8,82.3,95.8,82.3,95.8,82.3C95.8,82.3,95.8,82.3,95.8,82.3z M102.1,71.5c-0.7,3.5-2.5,6.3-5.2,8.6c-0.5,0.4-1.1,0.7-1.4,1.3
		c0,0,0,0,0,0c-0.1,0.1-0.2,0.1-0.4,0.2c-2.3,1.5-4.8,2.3-7.5,2.3c0,0,0,0,0,0c0-0.1,0-0.2-0.1-0.2c-0.3,0-0.1-0.1-0.1-0.2
		c0,0,0,0,0,0c0.2,0.2,0.4,0.1,0.6,0.1c2.6-0.6,4.9-1.7,7-3.3c0.2-0.1,0.4-0.2,0.4-0.5c0.2,0,0.4-0.1,0.6-0.3
		c2.4-2.2,4.2-4.7,5.1-7.9c0.6-2.1,0.8-4.1,0.5-6.1C102.1,67.5,102.5,69.5,102.1,71.5z"/>
	<path class="st5" d="M73.7,50.6c-0.5-0.6-1.1-1.1-1.6-1.7c-0.3-0.1-0.5-0.3-0.7-0.4c-0.1,0-0.2-0.1-0.3,0c-0.1,0.1,0,0.2,0,0.3
		c0.1,0.2,0.3,0.3,0.2,0.6c0.2,0.5,0.6,1.1,0.7,1.6c0.6,2.1,0.4,4.1-0.1,6.2c-0.2,0.9-0.1,1.7,0.3,2.5c0.3,1.3,0.8,2.5,1.7,3.6
		c0.2-0.1,0.2-0.3,0.3-0.5c0.6-1.4,1-2.9,1.2-4.4c0.2-1.2,0.2-2.3,0-3.5v0C75.3,53.3,74.8,51.8,73.7,50.6z"/>
	<path class="st5" d="M76.1,51.5c0.2-0.1,0.4-0.1,0.5-0.1c1.2,0,2.4-0.4,3.4-1c0.6-0.4,1.3-0.8,1.5-1.6c0-0.1,0-0.1,0-0.2
		c0-0.2-0.1-0.4-0.2-0.4c-0.2,0-0.2,0.2-0.2,0.4c0,0.3-0.2,0.4-0.4,0.5c-0.8,0.4-1.7,0.5-2.5,0c-1-0.5-1.7-1.3-2.1-2.3
		c-0.1-0.4-0.2-0.7-0.2-1.1c0-0.3-0.1-0.4-0.4-0.2c-0.8,0.4-1.5,0.9-2.1,1.5c-0.7,0.8-0.7,0.8,0.3,1.2c0.1,0.1,0.3,0.1,0.4,0.2
		c1,0.7,1.9,1.5,1.9,2.8C75.8,51.5,75.9,51.6,76.1,51.5z"/>
	<path class="st5" d="M60.3,72.7c0,0,0,0.1,0,0.1l0,0c-0.2,0-0.4,0-0.6,0.2c0.6,0.2,1.3,0.1,1.9,0.2c1.5,0.1,3,0.1,4.5,0
		c1.2,0,2.1-0.7,2.9-1.5c0.3-0.3,0.6-0.6,0.8-0.9c0.8-0.9,1.6-1.9,2.2-3l0,0c0.5-0.9,1.1-1.7,1.4-2.7c0.2-0.7,0.5-1.2-0.3-1.9
		c-0.2-0.2-0.3-0.4-0.4-0.6c-0.4-0.6-0.6-1.3-0.8-2c-0.1-0.5-0.2-1-0.5-1.5c-0.3,0.8-0.5,1.6-0.7,2.3l0,0c0,0.1-0.1,0.2-0.1,0.2
		c-1.1,2.7-2.5,5.2-4.4,7.4c-1.1,1.3-2.4,2.4-4,3.1c0.2-0.3,0.5-0.4,0.8-0.6c2.2-1.6,3.9-3.6,5.2-6c0.5-0.8,1-1.5,1.2-2.4l0,0
		c0.3-0.6,0.5-1.1,0.8-1.7c0.8-2,1.4-4,1.6-6.1c0.3-2.4,0.3-4.8-1.3-6.8c-0.2-0.4-0.7-0.4-1-0.6c-1.5-0.8-2.9-0.6-4.3,0.4
		c-0.1,0.1-0.4,0.2-0.3,0.4c0.1,0.2,0.3,0.1,0.5,0c0.2-0.1,0.3-0.1,0.5-0.1c0.9-0.2,2.1,0.2,2.5,0.9c0.5,0.6,0.9,1.3,1,2.1
		c0.4,2,0.1,4-0.4,6c-0.5,2.1-1.4,4-2.4,5.9c-0.1,0.1-0.2,0.2-0.3,0.3c-0.9,1.4-1.9,2.8-3.2,3.9c-4.3,4-6.8,1.3-6.8-0.7
		c0-0.6,0-1.2,0-1.7l0,0c0-0.2,0.1-0.4,0.1-0.6c0-0.2,0-0.4,0-0.5c-0.7,1.4-1.2,2.8-1.1,4.4v0c0.1,1.4,0.8,2.5,2,3.3
		C58.3,72.7,59.3,72.8,60.3,72.7z"/>
	<path class="st5" d="M70.1,83c-1.3-0.2-2.6-0.7-3.7-1.3c-1.5-1-2.7-2.4-3.2-4.2v0c-0.1-0.8-0.3-1.6-0.4-2.4c0-0.3-0.2-0.2-0.3-0.2
		c-1,0-2,0.1-3.1-0.3c0,0.9,0.2,1.7,0.5,2.4c0.2,0.7,0.5,1.4,1,2.1c0.9,1.6,2.1,2.8,3.6,3.7h0c1.1,0.7,2.2,1.2,3.5,1.3
		c0.1,0,0.2,0,0.2,0c1.9,0.3,3.8,0,5.6-0.8c0.7-0.3,1.3-0.6,1.8-1.3c-0.4,0.1-0.7,0.2-1,0.4C73.2,83,71.6,83,70.1,83z"/>
	<path class="st5" d="M54.1,63.7c2-1.2,3.7-2.4,6.1-2.4h0l0,0c0.7,0.1,1.3,0.2,2,0.4c0.4,0.2,0.9,0.4,1.3,0.7
		c0.2,0.1,0.3,0.1,0.4-0.1c0.5-0.8,0.9-1.6,1.4-2.4c0.7-1,1.3-2,2-3c0.2-0.2,0.2-0.4-0.1-0.5c-2.1-0.7-4.3-0.7-6.4-0.1
		c-0.1,0-0.3,0-0.4,0.1c-1.7,0.5-3.3,1.3-4.7,2.3c-0.9,0.6-1.7,1.3-2.3,2.3c-0.7,0.9-1.4,1.8-1.9,2.7c-0.4,0.6-0.7,1.3-1.1,1.9
		c-1.2,2.2-1.4,4.9-1.5,5.7C49.4,70.2,50.6,65.8,54.1,63.7z"/>
	<path class="st5" d="M69.9,45.8c0.4,0.1,0.8,0.4,1.1,0.5c0.4,0.3,0.8,0.7,1.2,1.1c0.2,0.2,0.3,0.2,0.4,0c0.5-0.7,1.2-1.3,1.9-1.8
		c1-0.7,2.2-1.1,3.4-1.3c0.9,0,1.8,0,2.7,0.3c2.9,0.9,5,2.9,5.3,3.2c0.1,0.1,0.2,0.3,0.4,0.1c0.2-0.1,0-0.3-0.1-0.4
		c-0.2-0.5-2.5-7.1-11.4-5.2c-1.9,0.4-3.5,1.5-4.9,2.9C69.7,45.5,69.5,45.7,69.9,45.8z"/>
	<path class="st5" d="M50.6,64.1L50.6,64.1L50.6,64.1c0.5-0.7,1-1.5,1.6-2.3c-0.6,0-1.2,0.1-1.3,0.1c-2.1,0.4-4.1,1.3-5.8,2.6
		c-1.4,1.1-2.6,2.4-3.3,4.2v0c-0.7,1.5-0.8,3-0.9,4.6c-0.1,1.2-0.2,2.4-0.8,3.5c-0.6,1-1.5,1.2-2.4,0.5c-0.3-0.3-0.4-0.7-0.3-1.2
		c0.1-0.5,0.4-0.7,0.9-0.7c0.3,0,0.5,0.2,0.6,0.5c0.1,0.4-0.3,0.5-0.6,0.6c0,0,0,0-0.1,0.1c0.5,0.5,1.2,0.4,1.5-0.2
		c0.3-0.5,0.1-1.2-0.4-1.7c-0.8-0.8-2.3-0.6-3.1,0.4c-1,1.1-0.9,2.8,0.3,4l0,0v0c0.7,0.8,1.7,1,2.6,0.9c3-0.1,4.9-2.1,5.6-4.7
		c0.1-0.3,0.3-0.6,0.4-0.9c0.8-1.3,1.6-2.5,3.3-2.5c0.2,0,0.2,0,0.2-0.2c0-0.7,0-1.4,0-2.1c0.1-0.3,0.1-0.6,0.2-1
		C49.1,67,49.9,65.5,50.6,64.1z"/>
	<path class="st5" d="M70.1,79.4c-0.2,0.1-0.4-0.1-0.5-0.2c-0.1-0.1-0.2-0.3-0.4-0.5c0,0.2,0,0.3,0,0.4c0,0.7,0.3,1,0.9,1.1
		c0.5,0,0.9-0.3,1-1c0.1-0.5,0-1-0.2-1.5c-0.4-1.4-1.3-2.5-2.4-3.5c-0.3-0.3-0.5-0.3-0.7,0.1c-0.2,0.3-0.6,0.5-0.9,0.7
		c-0.7,0.3-1.3,0.3-2,0.3c-0.4-0.1-0.8-0.1-1.1-0.2c-0.4-0.1-0.5,0-0.5,0.3c0,0.4,0.3,2.6,0.9,3.3c1.3-1.3,2.7-1.9,4.5-1.3h0l0,0
		c0.6,0.3,1.1,0.7,1.4,1.2c0,0.1,0.1,0.3,0.1,0.4C70.2,79.1,70.3,79.3,70.1,79.4z"/>
	<path class="st5" d="M53.5,68.9c-0.7,0.3-0.9,0.9-1,1.7c0.5-0.5,0.9-1.1,1.6-0.6h0v0c0.3,0.4,0.1,0.7-0.2,1c-0.4,0.4-0.9,0.2-1.3,0
		c-0.5-0.5-0.7-1.1-0.5-1.8c0.1-0.6,0.5-1.2,0.7-1.8l0,0c0,0,0.1,0,0.1-0.1c1.6-2.4,3.8-3.9,6.5-4.8c0.8-0.3,1.6-0.3,2.4-0.5
		c-1.1-0.3-2.2-0.3-3.3,0c-0.1,0-0.1,0-0.2,0c-2.5,0.7-4.5,2.2-6.1,4.1h0c-0.6,0.7-1.1,1.5-1.5,2.3c-0.2,0.4-0.4,0.8-0.5,1.3
		c-0.3,1-0.2,1.9,0.6,2.7c0.4,0.4,0.8,0.7,1.4,0.8c1.4,0.4,3.2-0.7,3.5-2.2c0.2-0.7,0.1-1.2-0.4-1.7C54.7,68.8,54.1,68.7,53.5,68.9z
		"/>
	<path class="st5" d="M66.3,55.4C66.3,55.4,66.3,55.4,66.3,55.4C66.3,55.4,66.3,55.4,66.3,55.4C66.4,55.4,66.3,55.4,66.3,55.4z"/>
	<path class="st5" d="M67.7,56.1c0,0-1-1.3-3.4-2.5c0.2,0.1,0.4,0.3,0.7,0.4C66.1,54.5,66.9,55.3,67.7,56.1z"/>
	<path class="st5" d="M64.7,53L64.7,53c0.5,0.3,1.5,0.9,1.8,1.2c-0.2-0.4-0.5-0.8-0.8-1.1c-1.8-1.9-4-2.3-5-2.6
		c-3.7-1.1-2.1-2.9-0.9-2.1c0.4,0.2,0.8,1.2,0.9,1.5c0.5-1.2,0.4-2.3-1-2.7c-1.7-0.5-4,1-3.7,3.2c0,0.1,0.1,0.3,0.1,0.4
		C59.4,51,62.3,51.8,64.7,53L64.7,53z"/>
	<path class="st5" d="M65,54.1c-0.2-0.2-0.4-0.3-0.7-0.4c-1.9-1-4.6-1.9-8.5-2.2c-1.1,0-2.3,0.1-3.6,0.3c-1.4,0.3-2.9,0.8-4.4,1.6
		c-1.6,0.8-3,1.9-4.4,3.1c-2.1,1.8-4,3.7-6.1,5.4c-1.2,1-2.5,1.9-4.1,2.2c-1.2,0.2-2-0.1-2.5-1l0,0v0c0-0.1-0.1-0.2-0.1-0.3
		c-0.1-0.7,0.2-1.3,0.8-1.3c0.6-0.1,1.1,0.3,1.1,1.1c0,0.1-0.1,0.3,0.1,0.4c0.6-0.7,0.7-1.5,0.4-2.1c-0.4-0.7-1.1-1-1.9-1
		c-2,0-3.3,2.1-2.5,4l0,0h0c0.4,1,1,1.8,2,2.3c0.1,0.1,0.3,0.2,0.5,0.2c1.4,0.5,2.8,0.2,4.2-0.3c1.1-0.4,2.1-1.1,3.1-1.7l0,0l0,0
		c-0.1,0.2-0.2,0.3-0.4,0.4c-1.3,1.1-2.5,2.3-3.5,3.7v0h0c-0.7,0.9-1.2,2-1.6,3.1c-0.2,0.3-0.3,0.6-0.4,0.9c-0.7,2-1.4,4-2.2,6
		c-0.4,0.5-0.7,1.1-1.1,1.6c-1,1.2-2.1,2.2-3.8,1.8c0,0-1-0.2-1.3-1.1c-0.2-0.5-0.1-0.9,0.2-1.2c0.4-0.3,0.8-0.4,1.2-0.1
		c0.4,0.3,0.5,0.6,0.3,1.1c0,0.1-0.1,0.2,0,0.2c0.1,0.1,0.2,0,0.3,0c0.1-0.1,0.2-0.2,0.3-0.3c0.4-0.6,0.2-1.3-0.4-1.8
		c-0.7-0.5-1.4-0.6-2.1-0.3c-0.9,0.4-1.6,1.1-1.7,2.2c-0.2,1.3,0.4,2.2,1.4,3c1.2,1,2.9,1,3.5,0.9c2.6-0.4,4.8-1.7,6.6-3.6l0,0
		c0.6-0.4,1.1-1,1.6-1.6c0.1-0.1,0.2-0.2,0.1-0.3c-0.3-0.6-0.5-1.2-0.6-1.8l0,0l0,0c0-0.9,0.2-1.8,0.5-2.6c1-2.5,2.5-4.6,4.3-6.6
		c2.7-3.1,6-5.2,10-6.2c0.9-0.2,1.8-0.3,2.9-0.4c-0.3-0.2-0.7-0.3-0.9-0.4c-0.8-0.3-1.3-0.4-2-0.6h0v0c-1.3-0.2-3.2-0.1-4.2,0.2
		c-1.9,0.5-3.6,1.4-5.2,2.5c-0.1,0.1-0.2,0.3-0.4,0.2l0,0c0,0,0,0,0,0c0.2-0.1,0.4-0.3,0.6-0.4c2.8-2.5,6-3.6,9.8-2.8h0l0,0
		c1.3,0.3,2,1,2.4,0.7c0.3-0.2,0.7-0.4,0.9-0.7c0.8-1,1.8-1.8,2.8-2.5c2.1-1.5,4.5-2.3,7.1-2.3c1.5,0.1,2.9,0.4,4.3,0.9
		C66.9,55.3,66.1,54.5,65,54.1z M43.8,56.6L43.8,56.6L43.8,56.6C43.8,56.6,43.8,56.6,43.8,56.6C43.8,56.6,43.8,56.6,43.8,56.6
		C43.8,56.6,43.8,56.6,43.8,56.6z M66.3,55.4C66.3,55.4,66.4,55.4,66.3,55.4C66.3,55.4,66.3,55.4,66.3,55.4
		C66.3,55.4,66.3,55.4,66.3,55.4z"/>
</g>
</svg>
