<?xml version="1.0" encoding="utf-8"?>
<!-- Generator: Adobe Illustrator 21.1.0, SVG Export Plug-In . SVG Version: 6.00 Build 0)  -->
<svg version="1.1" id="Layer_1" xmlns="http://www.w3.org/2000/svg" xmlns:xlink="http://www.w3.org/1999/xlink" x="0px" y="0px"
	 viewBox="0 0 128 128" style="enable-background:new 0 0 128 128;" xml:space="preserve">
<style type="text/css">
	.st0{fill:#C64A27;}
	.st1{fill:#D35127;}
	.st2{fill:#F16924;}
	.st3{fill:#541E48;}
	.st4{fill:#612953;}
	.st5{fill:#8E4882;}
</style>
<g>
	<path class="st0" d="M64,128C28.7,128,0,99.3,0,64S28.7,0,64,0s64,28.7,64,64S99.3,128,64,128z"/>
</g>
<g>
	<path class="st1" d="M64,120.1c-32,0-58.1-26-58.1-58.1S32,4,64,4s58.1,26,58.1,58.1S96,120.1,64,120.1z"/>
	<path class="st2" d="M64,8c29.8,0,54.1,24.3,54.1,54.1S93.8,116.2,64,116.2S9.9,91.9,9.9,62.1C9.9,32.3,34.2,8,64,8 M64,0L64,0
		C29.7,0,1.9,27.8,1.9,62.1l0,0c0,34.3,27.8,62.1,62.1,62.1l0,0c34.3,0,62.1-27.8,62.1-62.1l0,0C126.1,27.8,98.3,0,64,0L64,0z"/>
</g>
<g>
	<path class="st3" d="M64,128C28.7,128,0,99.3,0,64S28.7,0,64,0s64,28.7,64,64S99.3,128,64,128z"/>
</g>
<g>
	<path class="st4" d="M64,120.1c-32,0-58.1-26-58.1-58.1S32,4,64,4s58.1,26,58.1,58.1S96,120.1,64,120.1z"/>
	<path class="st5" d="M64,8c29.8,0,54.1,24.3,54.1,54.1S93.8,116.2,64,116.2S9.9,91.9,9.9,62.1C9.9,32.3,34.2,8,64,8 M64,0L64,0
		C29.7,0,1.9,27.8,1.9,62.1l0,0c0,34.3,27.8,62.1,62.1,62.1l0,0c34.3,0,62.1-27.8,62.1-62.1l0,0C126.1,27.8,98.3,0,64,0L64,0z"/>
</g>
<g>
	<path class="st3" d="M13.6,65.6c0-29.7,24.2-54,54-54c13.9,0,26.6,5.3,36.2,13.9c-9.8-10.8-24.1-17.8-40-17.8
		c-29.7,0-54,24.2-54,54c0,15.9,6.9,30.1,17.8,40C18.8,92.3,13.6,79.5,13.6,65.6z"/>
</g>
<g>
	<path class="st3" d="M66.8,105.1c-0.8-0.3-1.4-0.6-2-0.9c-10-5.9-19.9-11.8-29.8-17.8c-2.3-1.4-2.7-2.7-1.3-5.1
		c10.1-18.1,20.1-36.1,30.2-54.2c0.7-1.2,1.5-2.2,3-2.2s2.3,1,3,2.2c10,18,20.1,36,30.1,54c1.4,2.5,1,3.8-1.4,5.2
		c-9.8,5.9-19.6,11.8-29.5,17.6C68.4,104.5,67.6,104.8,66.8,105.1z M63.3,86.5c-2.3-1.4-4.6-2.7-6.9-4.1c-1.7-1-3.3-2.2-5-3.2
		c-0.7-0.4-1.7-0.7-2.4-0.5c-4.1,1.2-7.9,3.3-11.8,5.7c9.5,5.7,18.7,11.1,28.1,16.8c0-3.8,0.1-7.2,0-10.7c0-2.1,0.7-3.8,2.2-5.1
		c1-0.9,2.1-1.8,3.4-2.4c3.4-1.6,6.1-3.8,7.6-7.5c0.7,1.1,1.3,2,1.9,2.8c-1.6,3-3.9,5-6.8,6.6c-1.3,0.7-2.6,1.5-3.8,2.4
		c-0.6,0.5-1.3,1.3-1.4,2c-0.1,3.8-0.1,7.6-0.1,11.8c9.4-5.6,18.5-11.1,27.9-16.7c-3.7-1.9-7-3.6-10.4-5.2c-2.4-1.1-4.1-2.9-5.1-5.3
		c-0.7-1.7-1.3-3.5-1.7-5.3c-1.2-4.9-4.2-8.1-9.1-9.5c-0.5-0.2-1.1-0.3-1.7-0.4c2-2.9,2-2.9,4.9-1.5c4.4,2.1,7.5,5.5,8.5,10.3
		c1,5,3.2,8.8,8.3,10.5c1.3,0.5,2.6,1.3,3.9,1.9c0.7,0.4,1.4,0.7,2.2,1c0.1-0.1,0.1-0.2,0.2-0.3C87,64.1,77.8,47.7,68.7,31.2
		c-0.2,0-0.3,0.1-0.5,0.1c0,0.6,0,1.2,0,1.9c0,5.9-0.1,11.8,0.1,17.7c0.1,3.4-1.3,5.7-4,7.5c-1,0.7-2.1,1.2-3.1,1.8
		c-3.4,1.7-5.6,4.4-6.4,8c-0.4,2-0.3,4.1-0.4,6.1c-3.1-1-3.1-1-2.9-4.3c0.5-5.7,3.4-9.8,8.4-12.6c1.4-0.7,2.8-1.5,3.9-2.5
		c0.8-0.7,1.4-2,1.4-3.1c0.1-6.5,0.1-13,0.1-19.5c0-0.4-0.1-0.7-0.2-1.5c-9.3,16.7-18.4,33-27.7,49.6c3.2-1.5,6.1-2.8,8.9-4.1
		c2.4-1.1,4.7-0.9,6.9,0.3c1.4,0.8,2.9,1.5,4.1,2.6c2.4,2.1,4.9,3.8,8.2,4.2C64.8,84.4,64.2,85.2,63.3,86.5z"/>
</g>
<g>
	<path class="st5" d="M63.9,102.2c-0.8-0.3-1.4-0.6-2-0.9c-10-5.9-19.9-11.8-29.8-17.8c-2.3-1.4-2.7-2.7-1.3-5.1
		C40.9,60.3,50.9,42.3,61,24.2c0.7-1.2,1.5-2.2,3-2.2s2.3,1,3,2.2c10,18,20.1,36,30.1,54c1.4,2.5,1,3.8-1.4,5.2
		c-9.8,5.9-19.6,11.8-29.5,17.6C65.5,101.6,64.7,101.9,63.9,102.2z M60.3,83.6c-2.3-1.4-4.6-2.7-6.9-4.1c-1.7-1-3.3-2.2-5-3.2
		c-0.7-0.4-1.7-0.7-2.4-0.5c-4.1,1.2-7.9,3.3-11.8,5.7c9.5,5.7,18.7,11.1,28.1,16.8c0-3.8,0.1-7.2,0-10.7c0-2.1,0.7-3.8,2.2-5.1
		c1-0.9,2.1-1.8,3.4-2.4c3.4-1.6,6.1-3.8,7.6-7.5c0.7,1.1,1.3,2,1.9,2.8c-1.6,3-3.9,5-6.8,6.6c-1.3,0.7-2.6,1.5-3.8,2.4
		c-0.6,0.5-1.3,1.3-1.4,2c-0.1,3.8-0.1,7.6-0.1,11.8c9.4-5.6,18.5-11.1,27.9-16.7c-3.7-1.9-7-3.6-10.4-5.2c-2.4-1.1-4.1-2.9-5.1-5.3
		c-0.7-1.7-1.3-3.5-1.7-5.3c-1.2-4.9-4.2-8.1-9.1-9.5c-0.5-0.2-1.1-0.3-1.7-0.4c2-2.9,2-2.9,4.9-1.5c4.4,2.1,7.5,5.5,8.5,10.3
		c1,5,3.2,8.8,8.3,10.5c1.3,0.5,2.6,1.3,3.9,1.9c0.7,0.4,1.4,0.7,2.2,1c0.1-0.1,0.1-0.2,0.2-0.3c-9-16.4-18.2-32.9-27.4-49.3
		c-0.2,0-0.3,0.1-0.5,0.1c0,0.6,0,1.2,0,1.9c0,5.9-0.1,11.8,0.1,17.7c0.1,3.4-1.3,5.7-4,7.5c-1,0.7-2.1,1.2-3.1,1.8
		c-3.4,1.7-5.6,4.4-6.4,8c-0.4,2-0.3,4.1-0.4,6.1c-3.1-1-3.1-1-2.9-4.3c0.5-5.7,3.4-9.8,8.4-12.6c1.4-0.7,2.8-1.5,3.9-2.5
		c0.8-0.7,1.4-2,1.4-3.1c0.1-6.5,0.1-13,0.1-19.5c0-0.4-0.1-0.7-0.2-1.5c-9.3,16.7-18.4,33-27.7,49.6c3.2-1.5,6.1-2.8,8.9-4.1
		c2.4-1.1,4.7-0.9,6.9,0.3c1.4,0.8,2.9,1.5,4.1,2.6c2.4,2.1,4.9,3.8,8.2,4.2C61.9,81.5,61.3,82.3,60.3,83.6z"/>
</g>
</svg>
