<?xml version="1.0" encoding="utf-8"?>
<!-- Generator: Adobe Illustrator 21.1.0, SVG Export Plug-In . SVG Version: 6.00 Build 0)  -->
<svg version="1.1" id="Layer_1" xmlns="http://www.w3.org/2000/svg" xmlns:xlink="http://www.w3.org/1999/xlink" x="0px" y="0px"
	 viewBox="0 0 128 128" style="enable-background:new 0 0 128 128;" xml:space="preserve">
<style type="text/css">
	.st0{fill:#C46D29;}
	.st1{fill:#DC8127;}
	.st2{fill:#F9A036;}
</style>
<g>
	<path class="st0" d="M64,128C28.7,128,0,99.3,0,64S28.7,0,64,0s64,28.7,64,64S99.3,128,64,128z"/>
</g>
<g>
	<path class="st1" d="M64,120.1c-32,0-58.1-26-58.1-58.1S32,4,64,4s58.1,26,58.1,58.1S96,120.1,64,120.1z"/>
	<path class="st2" d="M64,8c29.8,0,54.1,24.3,54.1,54.1S93.8,116.2,64,116.2S9.9,91.9,9.9,62.1C9.9,32.3,34.2,8,64,8 M64,0L64,0
		C29.7,0,1.9,27.8,1.9,62.1l0,0c0,34.3,27.8,62.1,62.1,62.1l0,0c34.3,0,62.1-27.8,62.1-62.1l0,0C126.1,27.8,98.3,0,64,0L64,0z"/>
</g>
<g>
	<g>
		<path class="st0" d="M95.3,71.2c-0.5-3.5-2.2-6.2-5.3-8c-1.4-0.8-3-1.3-4.5-2c0.2-0.1,0.3-0.3,0.4-0.3c7.7-3.9,7-15.9,1.4-19.9
			c-2.3-1.6-4.8-2.7-7.5-3.3C77.9,37.3,76,37,74,36.6c0-3.4,0.1-8.2,0.1-12h-7.2c0,3.7-0.1,8.4-0.1,11.8c-2,0-3.9,0-5.8,0
			c0-3.4,0-8,0.1-11.8h-7.2c0,3.8-0.1,8.6-0.1,12c-4.9,0-9.7-0.1-14.6-0.1c0,2.6,0,5.1-0.1,7.7c1.1,0,2,0,2.9,0s1.8,0,2.7,0.1
			c2.5,0.2,3.8,1.6,3.8,4.1c-0.1,10.3-0.2,20.6-0.3,30.9c0,2.3-1,3.2-3.2,3.2c-1.6,0-3.2,0-4.8,0c-0.5,2.9-1,5.7-1.5,8.6
			c4.9,0.1,9.7,0.1,14.6,0.2c0,3.7,0,8.4-0.1,12.3h7.2c0-3.9,0.1-8.5,0.1-12.1c2,0.1,3.9,0.1,5.8,0.2c0,3.7,0,8.2-0.1,11.9h7.2
			c0-3.9,0.1-8.4,0.1-12c0.3,0,0.4-0.1,0.6-0.1c3.4-0.5,6.9-0.9,10.3-1.7c4.4-1.1,7.8-3.6,9.6-7.9C95.5,78.4,95.8,74.8,95.3,71.2z
			 M61.1,44.9c4.5,0,8.8-0.3,13,1.5c2.7,1.2,4,3.4,3.9,6.1c-0.2,2.8-1.8,4.9-4.7,5.8c-4,1.3-8.1,1.2-12.3,1.1
			C61,54.5,61.1,49.8,61.1,44.9z M76.8,80.8c-4,1.8-8.2,1.8-12.4,1.8c-1.2,0-2.3-0.1-3.6-0.1c0.1-5.4,0.1-10.6,0.2-15.9
			c5.5,0,10.9-0.4,16,1.9c2.7,1.2,4.2,3.2,4.2,6.2C81.1,77.7,79.5,79.7,76.8,80.8z"/>
	</g>
</g>
<g>
	<g>
		<path class="st2" d="M93.4,69.3c-0.5-3.5-2.2-6.2-5.3-8c-1.4-0.8-3-1.3-4.5-2c0.2-0.1,0.3-0.3,0.4-0.3c7.7-3.9,7-15.9,1.4-19.9
			c-2.3-1.6-4.8-2.7-7.5-3.3c-1.9-0.4-3.8-0.7-5.8-1.1c0-3.4,0.1-8.2,0.1-12H65c0,3.7-0.1,8.4-0.1,11.8c-2,0-3.9,0-5.8,0
			c0-3.4,0-8,0.1-11.8H52c0,3.8-0.1,8.6-0.1,12c-4.9,0-9.7-0.1-14.6-0.1c0,2.6,0,5.1-0.1,7.7c1.1,0,2,0,2.9,0s1.8,0,2.7,0.1
			c2.5,0.2,3.8,1.6,3.8,4.1c-0.1,10.3-0.2,20.6-0.3,30.9c0,2.3-1,3.2-3.2,3.2c-1.6,0-3.2,0-4.8,0c-0.5,2.9-1,5.7-1.5,8.6
			c4.9,0.1,9.7,0.1,14.6,0.2c0,3.7,0,8.4-0.1,12.3h7.2c0-3.9,0.1-8.5,0.1-12.1c2,0.1,3.9,0.1,5.8,0.2c0,3.7,0,8.2-0.1,11.9h7.2
			c0-3.9,0.1-8.4,0.1-12c0.3,0,0.4-0.1,0.6-0.1c3.4-0.5,6.9-0.9,10.3-1.7c4.4-1.1,7.8-3.6,9.6-7.9C93.6,76.4,93.9,72.9,93.4,69.3z
			 M59.2,42.9c4.5,0,8.8-0.3,13,1.5c2.7,1.2,4,3.4,3.9,6.1c-0.2,2.8-1.8,4.9-4.7,5.8c-4,1.3-8.1,1.2-12.3,1.1
			C59.1,52.6,59.1,47.9,59.2,42.9z M74.9,78.9c-4,1.8-8.2,1.8-12.4,1.8c-1.2,0-2.3-0.1-3.6-0.1C59,75.2,59,70,59.1,64.7
			c5.5,0,10.9-0.4,16,1.9c2.7,1.2,4.2,3.2,4.2,6.2C79.2,75.8,77.5,77.7,74.9,78.9z"/>
	</g>
</g>
<g>
	<path class="st0" d="M13.6,65.5c0-29.7,24.2-54,54-54c13.9,0,26.6,5.3,36.2,13.9c-9.9-10.8-24.1-17.7-40-17.7
		c-29.7,0-54,24.1-54,54c0,15.9,6.9,30.1,17.8,40C18.8,92.2,13.6,79.4,13.6,65.5z"/>
</g>
</svg>
