<?xml version="1.0" encoding="utf-8"?>
<!-- Generator: Adobe Illustrator 21.1.0, SVG Export Plug-In . SVG Version: 6.00 Build 0)  -->
<svg version="1.1" id="Layer_1" xmlns="http://www.w3.org/2000/svg" xmlns:xlink="http://www.w3.org/1999/xlink" x="0px" y="0px"
	 viewBox="0 0 128 128" style="enable-background:new 0 0 128 128;" xml:space="preserve">
<style type="text/css">
	.st0{fill:#C64A27;}
	.st1{fill:#D35127;}
	.st2{fill:#F16924;}
	.st3{fill:#CC6028;}
	.st4{fill:#D86C27;}
	.st5{fill:#F68926;}
</style>
<g>
	<path class="st0" d="M64,128C28.7,128,0,99.3,0,64S28.7,0,64,0s64,28.7,64,64S99.3,128,64,128z"/>
</g>
<g>
	<path class="st1" d="M64,120.1c-32,0-58.1-26-58.1-58.1S32,4,64,4s58.1,26,58.1,58.1S96,120.1,64,120.1z"/>
	<path class="st2" d="M64,8c29.8,0,54.1,24.3,54.1,54.1S93.8,116.2,64,116.2S9.9,91.9,9.9,62.1C9.9,32.3,34.2,8,64,8 M64,0L64,0
		C29.7,0,1.9,27.8,1.9,62.1l0,0c0,34.3,27.8,62.1,62.1,62.1l0,0c34.3,0,62.1-27.8,62.1-62.1l0,0C126.1,27.8,98.3,0,64,0L64,0z"/>
</g>
<g>
	<path class="st3" d="M64,128C28.7,128,0,99.3,0,64S28.7,0,64,0s64,28.7,64,64S99.3,128,64,128z"/>
</g>
<g>
	<path class="st4" d="M64,120.1c-32,0-58.1-26-58.1-58.1S32,4,64,4s58.1,26,58.1,58.1S96,120.1,64,120.1z"/>
	<path class="st5" d="M64,8c29.8,0,54.1,24.3,54.1,54.1S93.8,116.2,64,116.2S9.9,91.9,9.9,62.1C9.9,32.3,34.2,8,64,8 M64,0L64,0
		C29.7,0,1.9,27.8,1.9,62.1l0,0c0,34.3,27.8,62.1,62.1,62.1l0,0c34.3,0,62.1-27.8,62.1-62.1l0,0C126.1,27.8,98.3,0,64,0L64,0z"/>
</g>
<g>
	<path class="st3" d="M13.6,65.6c0-29.7,24.2-54,54-54c13.9,0,26.6,5.3,36.2,13.9c-9.8-10.8-24.1-17.8-40-17.8
		c-29.7,0-54,24.2-54,54c0,15.9,6.9,30.1,17.8,40C18.8,92.3,13.6,79.5,13.6,65.6z"/>
</g>
<g>
	<path class="st3" d="M46.2,55.2c0-3.2,0-6.3,0-9.5c0-0.3-0.4-0.6-0.6-0.8c-2.1-1.5-3.1-3.5-2.8-6c0.3-2.6,1.7-4.4,4.2-5.3
		c3.1-1.1,6.5,0.3,7.8,3.3c1.4,3,0.3,6.5-2.5,8.1c-0.5,0.3-0.7,0.6-0.7,1.2c0,2.7,0,5.3,0,8c0,0.4,0,1.1,0,1.1s0.6,0.1,1,0.2
		c1.1,0.2,2.2,0.6,3.2,1c0.3,0.1,0.6,0.3,0.6,0.3s0.5-0.4,0.6-0.5c4.9-4.2,9.8-8.3,14.7-12.5c2.1-1.8,4.2-3.5,6.2-5.3
		c0.4-0.3,0.5-0.5,0.4-1.1c-0.7-3,0.1-5.6,2.5-7.5c2.3-1.9,5-2.2,7.7-0.9c2.7,1.3,4.1,3.6,4.2,6.5c0.1,5.2-5.3,8.9-10.1,6.8
		c-0.5-0.2-0.9-0.1-1.3,0.2C74.6,47.9,68,53.2,61.4,58.6c-0.3,0.2-0.5,0.5-0.8,0.7c7.9,6.6,9.1,18.3,2.6,26.6
		c1.9,2.2,3.8,4.5,5.7,6.7c0.2,0.2,0.6,0.2,0.9,0.2c3.4-0.6,6.7,1.5,7.5,4.8c0.8,3.4-1.1,6.8-4.5,7.8c-2.5,0.7-4.7,0.1-6.5-1.7
		c-1.8-1.8-2.3-4.1-1.5-6.5c0.1-0.5,0.1-0.8-0.2-1.2c-1.6-1.9-3.1-3.8-4.7-5.7c-0.2-0.3-0.4-0.5-0.7-0.8c-10.6,7-23.9,1.9-28.1-8.6
		c-2.2-5.7-1.9-11.3,1.3-16.6C35.6,59,40.3,56.1,46.2,55.2z"/>
</g>
<g>
	<path class="st5" d="M43.3,52.2c0-3.2,0-6.3,0-9.5c0-0.3-0.4-0.6-0.6-0.8c-2.1-1.5-3.1-3.5-2.8-6c0.3-2.6,1.7-4.4,4.2-5.3
		c3.1-1.1,6.5,0.3,7.8,3.3c1.4,3,0.3,6.5-2.5,8.1c-0.5,0.3-0.7,0.6-0.7,1.2c0,2.7,0,5.3,0,8c0,0.4,0,1.1,0,1.1s0.6,0.1,1,0.2
		c1.1,0.2,2.2,0.6,3.2,1c0.3,0.1,0.6,0.3,0.6,0.3s0.5-0.4,0.6-0.5c4.9-4.2,9.8-8.3,14.7-12.5c2.1-1.8,4.2-3.5,6.2-5.3
		c0.4-0.3,0.5-0.5,0.4-1.1c-0.7-3,0.1-5.6,2.5-7.5c2.3-1.9,5-2.2,7.7-0.9c2.7,1.3,4.1,3.6,4.2,6.5c0.1,5.2-5.3,8.9-10.1,6.8
		c-0.5-0.2-0.9-0.1-1.3,0.2C71.7,45,65.1,50.3,58.5,55.7c-0.3,0.2-0.5,0.5-0.8,0.7c7.9,6.6,9.1,18.3,2.6,26.6
		c1.9,2.2,3.8,4.5,5.7,6.7c0.2,0.2,0.6,0.2,0.9,0.2c3.4-0.6,6.7,1.5,7.5,4.8c0.8,3.4-1.1,6.8-4.5,7.8c-2.5,0.7-4.7,0.1-6.5-1.7
		c-1.8-1.8-2.3-4.1-1.5-6.5c0.1-0.5,0.1-0.8-0.2-1.2c-1.6-1.9-3.1-3.8-4.7-5.7c-0.2-0.3-0.4-0.5-0.7-0.8c-10.6,7-23.9,1.9-28.1-8.6
		c-2.2-5.7-1.9-11.3,1.3-16.6C32.7,56.1,37.4,53.2,43.3,52.2z"/>
</g>
</svg>
