<?xml version="1.0" encoding="utf-8"?>
<!-- Generator: Adobe Illustrator 21.1.0, SVG Export Plug-In . SVG Version: 6.00 Build 0)  -->
<svg version="1.1" id="Layer_1" xmlns="http://www.w3.org/2000/svg" xmlns:xlink="http://www.w3.org/1999/xlink" x="0px" y="0px"
	 viewBox="0 0 128 128" style="enable-background:new 0 0 128 128;" xml:space="preserve">
<style type="text/css">
	.st0{fill:#C64A27;}
	.st1{fill:#D35127;}
	.st2{fill:#F16924;}
	.st3{fill:#232323;}
	.st4{fill:#383838;}
	.st5{fill:#595A5A;}
</style>
<g>
	<path class="st0" d="M64,128C28.7,128,0,99.3,0,64S28.7,0,64,0s64,28.7,64,64S99.3,128,64,128z"/>
</g>
<g>
	<path class="st1" d="M64,120.1c-32,0-58.1-26-58.1-58.1S32,4,64,4s58.1,26,58.1,58.1S96,120.1,64,120.1z"/>
	<path class="st2" d="M64,8c29.8,0,54.1,24.3,54.1,54.1S93.8,116.2,64,116.2S9.9,91.9,9.9,62.1C9.9,32.3,34.2,8,64,8 M64,0L64,0
		C29.7,0,1.9,27.8,1.9,62.1l0,0c0,34.3,27.8,62.1,62.1,62.1l0,0c34.3,0,62.1-27.8,62.1-62.1l0,0C126.1,27.8,98.3,0,64,0L64,0z"/>
</g>
<g>
	<path class="st3" d="M64,128C28.7,128,0,99.3,0,64S28.7,0,64,0s64,28.7,64,64S99.3,128,64,128z"/>
</g>
<g>
	<path class="st4" d="M64,120.1c-32,0-58.1-26-58.1-58.1S32,4,64,4s58.1,26,58.1,58.1S96,120.1,64,120.1z"/>
	<path class="st5" d="M64,8c29.8,0,54.1,24.3,54.1,54.1S93.8,116.2,64,116.2S9.9,91.9,9.9,62.1C9.9,32.3,34.2,8,64,8 M64,0L64,0
		C29.7,0,1.9,27.8,1.9,62.1l0,0c0,34.3,27.8,62.1,62.1,62.1l0,0c34.3,0,62.1-27.8,62.1-62.1l0,0C126.1,27.8,98.3,0,64,0L64,0z"/>
</g>
<g>
	<path class="st3" d="M13.6,65.6c0-29.7,24.2-54,54-54c13.9,0,26.6,5.3,36.2,13.9c-9.8-10.8-24.1-17.8-40-17.8
		c-29.7,0-54,24.2-54,54c0,15.9,6.9,30.1,17.8,40C18.8,92.3,13.6,79.5,13.6,65.6z"/>
</g>
<g>
	<g>
		<path class="st3" d="M48.2,96.4c0-5.3,0-10.4,0-15.8c-5.8,0-11.4,0-17.2,0c0-3.2,0-6.1,0-9.2c5.7,0,11.3,0,17.1,0
			c0-5,0-9.8,0-14.8c-5.6,0-11.3,0-17,0c0-3.2,0-6.1,0-9.3c5.7,0,11.3,0,17.1,0c0-4.9,0-9.7,0-14.5c0.5-0.1,0.8-0.1,1.2-0.1
			c9.5,0,18.9-0.1,28.4,0.1c4.4,0.1,8.6,1,12.3,3.7c7.3,5.4,8.3,15,2.2,21.8c-0.5,0.6-1.1,1.2-1.8,1.9c3.3,1.6,6,3.6,8.1,6.5
			c5.7,8.4,3.2,19.2-5.9,25c-5.1,3.3-10.9,4.5-16.8,4.7c-8.9,0.3-17.8,0.1-26.8,0.1C48.8,96.5,48.6,96.5,48.2,96.4z M60.4,67.5
			c0,6.3,0,12.4,0,18.3c6.3,0,12.4,0.2,18.5-0.1c2.5-0.1,5.2-1.1,7.5-2.4c4.9-2.6,5.2-9.2,0.7-12.3c-2.1-1.5-4.7-2.5-7.2-3.1
			C73.4,66.3,66.9,67.2,60.4,67.5z M60.3,59.8c3.7-0.2,7.3-0.3,10.8-0.8c2.7-0.4,5.4-0.9,7.8-1.9c3.4-1.4,5.1-4.6,4.7-7.9
			c-0.3-3-2.6-5.6-6-6.4c-5.7-1.4-11.5-0.6-17.3-0.8C60.3,47.9,60.3,53.7,60.3,59.8z"/>
	</g>
</g>
<g>
	<g>
		<path class="st5" d="M45.6,93.8c0-5.3,0-10.4,0-15.8c-5.8,0-11.4,0-17.2,0c0-3.2,0-6.1,0-9.2c5.7,0,11.3,0,17.1,0
			c0-5,0-9.8,0-14.8c-5.6,0-11.3,0-17,0c0-3.2,0-6.1,0-9.3c5.7,0,11.3,0,17.1,0c0-4.9,0-9.7,0-14.5c0.5-0.1,0.8-0.1,1.2-0.1
			c9.5,0,18.9-0.1,28.4,0.1c4.4,0.1,8.6,1,12.3,3.7c7.3,5.4,8.3,15,2.2,21.8c-0.5,0.6-1.1,1.2-1.8,1.9c3.3,1.6,6,3.6,8.1,6.5
			c5.7,8.4,3.2,19.2-5.9,25c-5.1,3.3-10.9,4.5-16.8,4.7c-8.9,0.3-17.8,0.1-26.8,0.1C46.2,93.9,46,93.9,45.6,93.8z M57.7,64.9
			c0,6.3,0,12.4,0,18.3c6.3,0,12.4,0.2,18.5-0.1c2.5-0.1,5.2-1.1,7.5-2.4c4.9-2.6,5.2-9.2,0.7-12.3c-2.1-1.5-4.7-2.5-7.2-3.1
			C70.8,63.6,64.3,64.6,57.7,64.9z M57.7,57.2c3.7-0.2,7.3-0.3,10.8-0.8c2.7-0.4,5.4-0.9,7.8-1.9c3.4-1.4,5.1-4.6,4.7-7.9
			c-0.3-3-2.6-5.6-6-6.4c-5.7-1.4-11.5-0.6-17.3-0.8C57.7,45.3,57.7,51.1,57.7,57.2z"/>
	</g>
</g>
</svg>
