<?xml version="1.0" encoding="utf-8"?>
<!-- Generator: Adobe Illustrator 21.1.0, SVG Export Plug-In . SVG Version: 6.00 Build 0)  -->
<svg version="1.1" id="Layer_1" xmlns="http://www.w3.org/2000/svg" xmlns:xlink="http://www.w3.org/1999/xlink" x="0px" y="0px"
	 viewBox="0 0 128 128" style="enable-background:new 0 0 128 128;" xml:space="preserve">
<style type="text/css">
	.st0{fill:#0D5F93;}
	.st1{fill:#0D69A6;}
	.st2{fill:#2888C9;}
</style>
<g>
	<path class="st0" d="M64,128C28.7,128,0,99.3,0,64S28.7,0,64,0s64,28.7,64,64S99.3,128,64,128z"/>
</g>
<g>
	<path class="st1" d="M64,120.1c-32,0-58.1-26-58.1-58.1S32,4,64,4s58.1,26,58.1,58.1S96,120.1,64,120.1z"/>
	<path class="st2" d="M64,8c29.8,0,54.1,24.3,54.1,54.1S93.8,116.2,64,116.2S9.9,91.9,9.9,62.1C9.9,32.3,34.2,8,64,8 M64,0L64,0
		C29.7,0,1.9,27.8,1.9,62.1l0,0c0,34.3,27.8,62.1,62.1,62.1l0,0c34.3,0,62.1-27.8,62.1-62.1l0,0C126.1,27.8,98.3,0,64,0L64,0z"/>
</g>
<g>
	<path class="st0" d="M13.3,65.6c0-29.7,24.2-54,54-54c13.9,0,26.6,5.3,36.2,13.9c-9.8-10.8-24.1-17.8-40-17.8
		c-29.7,0-54,24.2-54,54c0,15.9,6.9,30.1,17.8,40C18.5,92.3,13.3,79.5,13.3,65.6z"/>
</g>
<g>
	<g>
		<path class="st0" d="M29.6,85.8c1.2-3.5,2.3-6.9,3.5-10.2c0.1-0.3,0.7-0.6,1.1-0.6c2-0.1,4.1,0,6.1,0c13.2,0,26.4,0,39.6,0
			c1.1,0,1.5-0.3,1.9-1.3c2.2-6.5,4.5-13,6.7-19.5c0.1-0.3,0.2-0.7,0.4-1.2c-16,0-31.9,0-48,0c1.2-3.6,2.4-7,3.6-10.4
			c0.1-0.3,0.6-0.5,0.9-0.5c1.2-0.1,2.4,0,3.6,0c16.2,0,32.5,0.1,48.7-0.1c4.8-0.1,10,3.7,7.9,10.8c-1.6,5.3-3.5,10.5-5.3,15.7
			c-0.6,1.8-1.2,3.6-1.8,5.4c-2.3,6.3-6.8,10-13.1,11.7c-0.6,0.2-1.2,0.2-1.8,0.2c-17.5,0-35.1,0-52.6,0
			C30.6,85.8,30.2,85.8,29.6,85.8z"/>
	</g>
	<g>
		<path class="st0" d="M60,58.8c-1.3,3.5-2.4,6.6-3.6,9.8c-0.1,0.2-0.6,0.4-0.9,0.4c-9.1,0-18.2,0-27.3,0c-0.1,0-0.2-0.1-0.5-0.2
			c1.2-3.2,2.3-6.3,3.5-9.5c0.1-0.3,0.6-0.6,0.9-0.6C41.3,58.8,50.5,58.8,60,58.8z"/>
	</g>
</g>
<g>
	<path class="st2" d="M27.9,84.1c1.2-3.5,2.3-6.9,3.5-10.2c0.1-0.3,0.7-0.6,1.1-0.6c2-0.1,4.1,0,6.1,0c13.2,0,26.4,0,39.6,0
		c1.1,0,1.5-0.3,1.9-1.3c2.2-6.5,4.5-13,6.7-19.5c0.1-0.3,0.2-0.7,0.4-1.2c-16,0-31.9,0-48,0c1.2-3.6,2.4-7,3.6-10.4
		c0.1-0.3,0.6-0.5,0.9-0.5c1.2-0.1,2.4,0,3.6,0c16.2,0,32.5,0.1,48.7-0.1c4.8-0.1,10,3.7,7.9,10.8c-1.6,5.3-3.5,10.5-5.3,15.7
		c-0.6,1.8-1.2,3.6-1.8,5.4c-2.3,6.3-6.8,10-13.1,11.7c-0.6,0.2-1.2,0.2-1.8,0.2c-17.5,0-35.1,0-52.6,0
		C28.9,84.1,28.5,84.1,27.9,84.1z"/>
	<path class="st2" d="M58.3,57.1c-1.3,3.5-2.4,6.6-3.6,9.8c-0.1,0.2-0.6,0.4-0.9,0.4c-9.1,0-18.2,0-27.3,0c-0.1,0-0.2-0.1-0.5-0.2
		c1.2-3.2,2.3-6.3,3.5-9.5c0.1-0.3,0.6-0.6,0.9-0.6C39.6,57,48.8,57.1,58.3,57.1z"/>
</g>
</svg>
