<?xml version="1.0" encoding="utf-8"?>
<!-- Generator: Adobe Illustrator 21.1.0, SVG Export Plug-In . SVG Version: 6.00 Build 0)  -->
<svg version="1.1" id="Layer_1" xmlns="http://www.w3.org/2000/svg" xmlns:xlink="http://www.w3.org/1999/xlink" x="0px" y="0px"
	 viewBox="0 0 128 128" style="enable-background:new 0 0 128 128;" xml:space="preserve">
<style type="text/css">
	.st0{fill:#C64A27;}
	.st1{fill:#D35127;}
	.st2{fill:#F16924;}
	.st3{fill:#186D7A;}
	.st4{fill:#237E93;}
	.st5{fill:#4C95AC;}
</style>
<g>
	<path class="st0" d="M64,128C28.7,128,0,99.3,0,64S28.7,0,64,0s64,28.7,64,64S99.3,128,64,128z"/>
</g>
<g>
	<path class="st1" d="M64,120.1c-32,0-58.1-26-58.1-58.1S32,4,64,4s58.1,26,58.1,58.1S96,120.1,64,120.1z"/>
	<path class="st2" d="M64,8c29.8,0,54.1,24.3,54.1,54.1S93.8,116.2,64,116.2S9.9,91.9,9.9,62.1C9.9,32.3,34.2,8,64,8 M64,0L64,0
		C29.7,0,1.9,27.8,1.9,62.1l0,0c0,34.3,27.8,62.1,62.1,62.1l0,0c34.3,0,62.1-27.8,62.1-62.1l0,0C126.1,27.8,98.3,0,64,0L64,0z"/>
</g>
<g>
	<path class="st3" d="M64,128C28.7,128,0,99.3,0,64S28.7,0,64,0s64,28.7,64,64S99.3,128,64,128z"/>
</g>
<g>
	<path class="st4" d="M64,120.1c-32,0-58.1-26-58.1-58.1S32,4,64,4s58.1,26,58.1,58.1S96,120.1,64,120.1z"/>
	<path class="st5" d="M64,8c29.8,0,54.1,24.3,54.1,54.1S93.8,116.2,64,116.2S9.9,91.9,9.9,62.1C9.9,32.3,34.2,8,64,8 M64,0L64,0
		C29.7,0,1.9,27.8,1.9,62.1l0,0c0,34.3,27.8,62.1,62.1,62.1l0,0c34.3,0,62.1-27.8,62.1-62.1l0,0C126.1,27.8,98.3,0,64,0L64,0z"/>
</g>
<g>
	<path class="st3" d="M13.6,65.6c0-29.7,24.2-54,54-54c13.9,0,26.6,5.3,36.2,13.9c-9.8-10.8-24.1-17.8-40-17.8
		c-29.7,0-54,24.2-54,54c0,15.9,6.9,30.1,17.8,40C18.8,92.3,13.6,79.5,13.6,65.6z"/>
</g>
<g>
	<path class="st3" d="M70.9,92.5c-0.6,0-1,0.1-1.4,0.1c-5.2,0-10.5,0-15.7,0c-10.8,0-19.7-7.1-22.1-17.5C29.4,65,34.5,54.5,43.8,50
		c0.3-0.1,0.6-0.3,1.1-0.6c-2.3-2-4.5-4-6.7-5.9c-2.2-2-4.5-3.9-6.9-6c0.4-0.1,0.7-0.2,0.9-0.2c4.6,0,9.2,0,13.8,0
		c0.6,0,1.4,0.3,1.9,0.7c7.4,6.3,14.7,12.7,22,19.1c0.3,0.2,0.6,0.4,0.9,0.6c-0.1,0.1-0.1,0.3-0.2,0.4c-0.5,0-0.9,0-1.4,0
		c-5.2,0-10.3-0.1-15.5,0c-4.8,0.1-8.5,2.2-10.9,6.5c-3.6,6.6,0.4,15.6,7.8,17c2.5,0.5,5.1,0.3,7.6,0.5c0.4,0,0.9,0.1,1.2,0.3
		c3.6,3.1,7.2,6.2,10.8,9.4C70.5,92,70.6,92.2,70.9,92.5z"/>
	<path class="st3" d="M102.5,92.5c-1.1,0-2,0-2.8,0c-4,0-8,0.1-12,0c-0.7,0-1.5-0.3-2-0.7c-7.5-6.4-15-12.9-22.4-19.4
		c-0.1-0.1-0.2-0.3-0.4-0.6c0.6,0,1-0.1,1.5-0.1c5.2,0,10.3,0,15.5,0c4.9,0,8.6-2.1,11-6.4C94.2,59,91,51,84.4,48.6
		c-2.5-0.9-5-0.9-7.5-0.8c-1.6,0.1-2.7-0.3-3.9-1.4c-3-2.8-6.1-5.4-9.2-8.1c-0.2-0.2-0.5-0.4-0.9-0.6c0.4-0.2,0.5-0.3,0.6-0.3
		c6.2,0,12.4,0,18.6,0.1c4.2,0.1,7.9,1.6,11.3,4.1c4.6,3.3,7.5,7.8,8.8,13.3c1,4.7,0.6,9.2-1.3,13.6c-2.1,4.8-5.4,8.4-10,10.9
		c-0.3,0.2-0.6,0.3-0.9,0.4s-0.5,0.3-1,0.6C93.4,84.5,97.8,88.4,102.5,92.5z"/>
</g>
<g>
	<path class="st5" d="M68,89.6c-0.6,0-1,0.1-1.4,0.1c-5.2,0-10.5,0-15.7,0c-10.8,0-19.7-7.1-22.1-17.5c-2.3-10.1,2.8-20.6,12.1-25
		c0.3-0.1,0.6-0.3,1.1-0.6c-2.3-2-4.5-4-6.7-5.9c-2.2-2-4.5-3.9-6.9-6c0.4-0.1,0.7-0.2,0.9-0.2c4.6,0,9.2,0,13.8,0
		c0.6,0,1.4,0.3,1.9,0.7c7.4,6.3,14.7,12.7,22,19.1c0.3,0.2,0.6,0.4,0.9,0.6c-0.1,0.1-0.1,0.3-0.2,0.4c-0.5,0-0.9,0-1.4,0
		c-5.2,0-10.3-0.1-15.5,0c-4.8,0.1-8.5,2.2-10.9,6.5c-3.6,6.6,0.4,15.6,7.8,17c2.5,0.5,5.1,0.3,7.6,0.5c0.4,0,0.9,0.1,1.2,0.3
		c3.6,3.1,7.2,6.2,10.8,9.4C67.6,89.1,67.7,89.3,68,89.6z"/>
	<path class="st5" d="M99.6,89.6c-1.1,0-2,0-2.8,0c-4,0-8,0.1-12,0c-0.7,0-1.5-0.3-2-0.7c-7.5-6.4-15-12.9-22.4-19.4
		c-0.1-0.1-0.2-0.3-0.4-0.6c0.6,0,1-0.1,1.5-0.1c5.2,0,10.3,0,15.5,0c4.9,0,8.6-2.1,11-6.4c3.4-6.2,0.2-14.2-6.4-16.6
		c-2.5-0.9-5-0.9-7.5-0.8c-1.6,0.1-2.7-0.3-3.9-1.4c-3-2.8-6.1-5.4-9.2-8.1c-0.2-0.2-0.5-0.4-0.9-0.6c0.4-0.2,0.5-0.3,0.6-0.3
		c6.2,0,12.4,0,18.6,0.1c4.2,0.1,7.9,1.6,11.3,4.1C95.1,42,98,46.5,99.2,52c1,4.7,0.6,9.2-1.3,13.6c-2.1,4.8-5.4,8.4-10,10.9
		c-0.3,0.2-0.6,0.3-0.9,0.4s-0.5,0.3-1,0.6C90.5,81.6,94.9,85.5,99.6,89.6z"/>
</g>
</svg>
