<?xml version="1.0" encoding="utf-8"?>
<!-- Generator: Adobe Illustrator 21.1.0, SVG Export Plug-In . SVG Version: 6.00 Build 0)  -->
<svg version="1.1" id="Layer_1" xmlns="http://www.w3.org/2000/svg" xmlns:xlink="http://www.w3.org/1999/xlink" x="0px" y="0px"
	 viewBox="0 0 128 128" style="enable-background:new 0 0 128 128;" xml:space="preserve">
<style type="text/css">
	.st0{fill:#C64A27;}
	.st1{fill:#D35127;}
	.st2{fill:#F16924;}
	.st3{fill:#232323;}
	.st4{fill:#383838;}
	.st5{fill:#595A5A;}
</style>
<g>
	<path class="st0" d="M64,128C28.7,128,0,99.3,0,64S28.7,0,64,0s64,28.7,64,64S99.3,128,64,128z"/>
</g>
<g>
	<path class="st1" d="M64,120.1c-32,0-58.1-26-58.1-58.1S32,4,64,4s58.1,26,58.1,58.1S96,120.1,64,120.1z"/>
	<path class="st2" d="M64,8c29.8,0,54.1,24.3,54.1,54.1S93.8,116.2,64,116.2S9.9,91.9,9.9,62.1C9.9,32.3,34.2,8,64,8 M64,0L64,0
		C29.7,0,1.9,27.8,1.9,62.1l0,0c0,34.3,27.8,62.1,62.1,62.1l0,0c34.3,0,62.1-27.8,62.1-62.1l0,0C126.1,27.8,98.3,0,64,0L64,0z"/>
</g>
<g>
	<path class="st3" d="M64,128C28.7,128,0,99.3,0,64S28.7,0,64,0s64,28.7,64,64S99.3,128,64,128z"/>
</g>
<g>
	<path class="st4" d="M64,120.1c-32,0-58.1-26-58.1-58.1S32,4,64,4s58.1,26,58.1,58.1S96,120.1,64,120.1z"/>
	<path class="st5" d="M64,8c29.8,0,54.1,24.3,54.1,54.1S93.8,116.2,64,116.2S9.9,91.9,9.9,62.1C9.9,32.3,34.2,8,64,8 M64,0L64,0
		C29.7,0,1.9,27.8,1.9,62.1l0,0c0,34.3,27.8,62.1,62.1,62.1l0,0c34.3,0,62.1-27.8,62.1-62.1l0,0C126.1,27.8,98.3,0,64,0L64,0z"/>
</g>
<g>
	<path class="st3" d="M13.6,65.6c0-29.7,24.2-54,54-54c13.9,0,26.6,5.3,36.2,13.9c-9.8-10.8-24.1-17.8-40-17.8
		c-29.7,0-54,24.2-54,54c0,15.9,6.9,30.1,17.8,40C18.8,92.3,13.6,79.5,13.6,65.6z"/>
</g>
<g>
	<path class="st3" d="M95.4,88.4L95.4,88.4l-8.6-39.6c-0.1-0.3-0.2-0.6-0.4-0.8L68.5,23.6c-0.4-0.5-1-0.8-1.6-0.8l0,0
		c-0.6,0-1.2,0.3-1.6,0.8L47.5,48c-0.2,0.2-0.3,0.5-0.4,0.8l-8.6,39.5v0.1c0,0.3,0,0.5,0,0.8l0,0c0,0.1,0.1,0.3,0.1,0.4l0,0l0,0
		c0.1,0.3,0.4,0.5,0.6,0.7l0,0l0,0c0,0,0,0,0.1,0l26.5,16.6c0.3,0.2,0.7,0.3,1,0.3l0,0c0.4,0,0.7-0.1,1-0.3l26.5-16.6
		c0.3-0.2,0.5-0.5,0.7-0.8l0,0l0,0c0.1-0.1,0.1-0.3,0.1-0.4l0,0C95.4,88.9,95.4,88.6,95.4,88.4z M88.8,76.5l-6.8-12l2.5-7.8
		L88.8,76.5z M68.9,30.7l13.8,18.8l-3.3,10.4L68.9,41.3V30.7z M66.9,45.8l10.8,19.1l-7,21.8H63l-7-21.8L66.9,45.8z M65,30.7v10.7
		L54.5,59.9l-3.3-10.4L65,30.7z M49.4,56.6l2.5,7.8L45,76.5L49.4,56.6z M53.5,69.5L59,86.7H43.7L53.5,69.5z M47.1,90.6h13.1
		l3.3,10.2L47.1,90.6z M66.9,98.9l-2.7-8.3h5.3L66.9,98.9z M70.4,100.8l3.3-10.2h13.1L70.4,100.8z M74.9,86.7l5.5-17.2l9.8,17.2
		H74.9z"/>
</g>
<path class="st5" d="M64,104.4c-0.4,0-0.7-0.1-1.1-0.3L36.4,87.4c-0.3-0.2-0.6-0.5-0.7-0.8l0,0l0,0l0,0c-0.1-0.1-0.1-0.3-0.2-0.4
	l0,0l0,0c-0.1-0.3-0.1-0.5,0-0.8v-0.1l8.6-39.5c0.1-0.3,0.2-0.6,0.4-0.8l17.9-24.4c0.4-0.5,1-0.8,1.6-0.8l0,0c0.6,0,1.2,0.3,1.6,0.8
	L83.5,45c0.2,0.2,0.3,0.5,0.4,0.8l8.6,39.5v0.1c0,0.3,0,0.5,0,0.8l0,0l0,0c0,0.1-0.1,0.3-0.1,0.4l0,0l0,0c-0.2,0.3-0.4,0.6-0.7,0.8
	l0,0l0,0l0,0c0,0,0,0-0.1,0L65.1,104C64.7,104.3,64.4,104.4,64,104.4L64,104.4z M44.4,87.8l16,10l-3.2-10H44.4z M70.8,87.8l-3.2,10
	l16-10H70.8z M61.4,87.8l2.6,8.1l2.6-8.1H61.4z M72,83.8h15.1l-9.6-17L72,83.8z M60.2,83.8h7.7L74.8,62L64,43L53.2,62L60.2,83.8z
	 M40.9,83.8H56l-5.4-17L40.9,83.8z M46.5,54l-4.2,19.3l6.6-11.7L46.5,54z M79.1,61.5l6.6,11.7L81.5,54L79.1,61.5z M48.3,46.6
	l3.2,10.2L62,38.4V27.9L48.3,46.6z M66,38.4l10.4,18.4l3.2-10.2L66,27.9V38.4z"/>
</svg>
