<?xml version="1.0" encoding="utf-8"?>
<!-- Generator: Adobe Illustrator 21.1.0, SVG Export Plug-In . SVG Version: 6.00 Build 0)  -->
<svg version="1.1" id="Layer_1" xmlns="http://www.w3.org/2000/svg" xmlns:xlink="http://www.w3.org/1999/xlink" x="0px" y="0px"
	 viewBox="0 0 128 128" style="enable-background:new 0 0 128 128;" xml:space="preserve">
<style type="text/css">
	.st0{fill:#5762A0;}
	.st1{fill:#636DAA;}
	.st2{fill:#8A92C8;}
</style>
<g>
	<path class="st0" d="M64,128C28.7,128,0,99.3,0,64S28.7,0,64,0s64,28.7,64,64S99.3,128,64,128z"/>
</g>
<g>
	<path class="st1" d="M64,120.1c-32,0-58.1-26-58.1-58.1S32,4,64,4s58.1,26,58.1,58.1S96,120.1,64,120.1z"/>
	<path class="st2" d="M64,8c29.8,0,54.1,24.3,54.1,54.1S93.8,116.2,64,116.2S9.9,91.9,9.9,62.1C9.9,32.3,34.2,8,64,8 M64,0L64,0
		C29.7,0,1.9,27.8,1.9,62.1l0,0c0,34.3,27.8,62.1,62.1,62.1l0,0c34.3,0,62.1-27.8,62.1-62.1l0,0C126.1,27.8,98.3,0,64,0L64,0z"/>
</g>
<g>
	<g>
		<g>
			<polygon class="st0" points="68.1,85.6 68.1,107.6 95.3,69.2 			"/>
		</g>
	</g>
	<g>
		<g>
			<polygon class="st0" points="94.3,62.1 68.1,18.5 68.1,50.2 			"/>
		</g>
		<g>
			<polygon class="st0" points="68.1,52.7 68.1,79.8 94.1,64.5 			"/>
		</g>
	</g>
	<g>
		<g>
			<polygon class="st0" points="39.5,62.1 65.8,18.5 65.8,50.2 			"/>
		</g>
		<g>
			<polygon class="st0" points="65.8,52.7 65.8,79.8 39.7,64.5 			"/>
		</g>
	</g>
	<g>
		<g>
			<polygon class="st0" points="65.8,85.6 65.8,107.6 38.5,69.2 			"/>
		</g>
	</g>
</g>
<g>
	<path class="st0" d="M13.6,65.6c0-29.7,24.2-54,54-54c13.9,0,26.6,5.3,36.2,13.9c-9.8-10.8-24.1-17.8-40-17.8
		c-29.7,0-54,24.2-54,54c0,15.9,6.9,30.1,17.8,40C18.8,92.3,13.6,79.5,13.6,65.6z"/>
</g>
<g>
	<g>
		<g>
			<polygon class="st2" points="65.2,84.6 65.2,106.6 92.4,68.2 			"/>
		</g>
	</g>
	<g>
		<g>
			<polygon class="st2" points="91.4,61.2 65.2,17.5 65.2,49.2 			"/>
		</g>
		<g>
			<polygon class="st2" points="65.2,51.7 65.2,78.8 91.2,63.6 			"/>
		</g>
	</g>
	<g>
		<g>
			<polygon class="st2" points="36.6,61.2 62.9,17.5 62.9,49.2 			"/>
		</g>
		<g>
			<polygon class="st2" points="62.9,51.7 62.9,78.8 36.8,63.6 			"/>
		</g>
	</g>
	<g>
		<g>
			<polygon class="st2" points="62.8,84.6 62.8,106.6 35.6,68.2 			"/>
		</g>
	</g>
</g>
</svg>
