<?xml version="1.0" encoding="utf-8"?>
<!-- Generator: Adobe Illustrator 21.1.0, SVG Export Plug-In . SVG Version: 6.00 Build 0)  -->
<svg version="1.1" id="Layer_1" xmlns="http://www.w3.org/2000/svg" xmlns:xlink="http://www.w3.org/1999/xlink" x="0px" y="0px"
	 viewBox="0 0 128 128" style="enable-background:new 0 0 128 128;" xml:space="preserve">
<style type="text/css">
	.st0{fill:#C64A27;}
	.st1{fill:#D35127;}
	.st2{fill:#F16924;}
	.st3{fill:#055F7D;}
	.st4{fill:#026990;}
	.st5{fill:#008AAF;}
	.st6{fill:#045F7D;}
</style>
<g>
	<path class="st0" d="M64,128C28.7,128,0,99.3,0,64S28.7,0,64,0s64,28.7,64,64S99.3,128,64,128z"/>
</g>
<g>
	<path class="st1" d="M64,120.1c-32,0-58.1-26-58.1-58.1S32,4,64,4s58.1,26,58.1,58.1S96,120.1,64,120.1z"/>
	<path class="st2" d="M64,8c29.8,0,54.1,24.3,54.1,54.1S93.8,116.2,64,116.2S9.9,91.9,9.9,62.1C9.9,32.3,34.2,8,64,8 M64,0L64,0
		C29.7,0,1.9,27.8,1.9,62.1l0,0c0,34.3,27.8,62.1,62.1,62.1l0,0c34.3,0,62.1-27.8,62.1-62.1l0,0C126.1,27.8,98.3,0,64,0L64,0z"/>
</g>
<g>
	<path class="st3" d="M64,128C28.7,128,0,99.3,0,64S28.7,0,64,0s64,28.7,64,64S99.3,128,64,128z"/>
</g>
<g>
	<path class="st4" d="M64,120.1c-32,0-58.1-26-58.1-58.1S32,4,64,4s58.1,26,58.1,58.1S96,120.1,64,120.1z"/>
	<path class="st5" d="M64,8c29.8,0,54.1,24.3,54.1,54.1S93.8,116.2,64,116.2S9.9,91.9,9.9,62.1C9.9,32.3,34.2,8,64,8 M64,0L64,0
		C29.7,0,1.9,27.8,1.9,62.1l0,0c0,34.3,27.8,62.1,62.1,62.1l0,0c34.3,0,62.1-27.8,62.1-62.1l0,0C126.1,27.8,98.3,0,64,0L64,0z"/>
</g>
<g>
	<path class="st6" d="M13.6,65.6c0-29.7,24.2-54,54-54c13.9,0,26.6,5.3,36.2,13.9c-9.8-10.8-24.1-17.8-40-17.8
		c-29.7,0-54,24.2-54,54c0,15.9,6.9,30.1,17.8,40C18.8,92.3,13.6,79.5,13.6,65.6z"/>
</g>
<path class="st6" d="M87.2,27.5c-0.6-0.7-1.4-1-2.1-1c-1,0-1.8,0.6-2.3,1.2c-0.7,0.7-1.4,1.4-2.1,2.1c-1.2,1.2-2.5,2.5-3.8,3.8
	c-0.3,0.3-0.4,0.3-0.4,0.3s-0.1,0-0.4-0.2c-2.3-1.6-5.1-2.3-8.3-2.3c-0.2,0-0.3,0-0.5,0s-0.5,0-0.7,0c-4.8,0-9.4,2.6-12.2,7
	c-3.1,4.7-3.5,10.7-1.2,15.8c2.1,4.8,5.8,7.9,11,9.2c0.1,0,0.2,0.1,0.3,0.2c0.1,1.7,0.1,3.4,0.1,5c0,0.8,0,1.7,0,2.5
	c0,0.2,0,0.2,0,0.2s-0.1,0.1-0.5,0.2c-7.8,2.2-12.3,8.1-12.2,16.2c0,6.7,4,12.4,10.4,14.9c1.6,0.6,3.3,0.9,5.1,0.9
	c4.3,0,8.8-1.8,11.7-4.7c4.9-5.1,5.5-13.4,3.2-18.2c-2.4-4.9-6.2-8.1-11.3-9.3c-0.2-0.1-0.4-0.1-0.4-0.1l0,0c0,0,0-0.2,0-0.4
	c0.1-2.2,0.1-4.4,0-7c0-0.1,0-0.2,0-0.3c0,0,0.1,0,0.2-0.1l0.3-0.1c0.9-0.2,1.9-0.4,2.8-0.9c4.5-2.2,7.7-5.7,9-10
	c1.4-4.5,0.8-9.4-1.7-13.9c-0.1-0.3-0.2-0.4-0.2-0.4s0.1-0.1,0.3-0.3c1.2-1.1,2.3-2.3,3.4-3.5c0.8-0.9,1.6-1.7,2.5-2.5
	C89,30,88,28.4,87.2,27.5z M77.5,47.6c0,2.6-1.1,5.2-3.1,7.2c-1.9,1.9-4.4,3-6.8,3l0,0c-5.5,0-10-4.7-10-10.5c0-5.4,4.3-9.6,10-9.7
	h0.2C73.9,37.5,77.5,42.7,77.5,47.6z M67.8,77.1c5,0,9.7,4.9,9.7,10.2c0,5.5-4.7,10.3-10,10.3h-0.1c-2.3,0-4.8-1.1-6.7-3.1
	c-2.1-2.1-3.2-4.8-3.2-7.3C57.5,81.9,62.4,77.1,67.8,77.1L67.8,77.1z"/>
<path class="st5" d="M84.3,24.6c-0.6-0.7-1.4-1-2.1-1c-1,0-1.8,0.6-2.3,1.2c-0.7,0.7-1.4,1.4-2.1,2.1c-1.2,1.2-2.5,2.5-3.8,3.8
	C73.7,31,73.6,31,73.6,31s-0.1,0-0.4-0.2c-2.3-1.6-5.1-2.3-8.3-2.3c-0.2,0-0.3,0-0.5,0s-0.5,0-0.7,0c-4.8,0-9.4,2.6-12.2,7
	c-3.1,4.7-3.5,10.7-1.2,15.8c2.1,4.8,5.8,7.9,11,9.2c0.1,0,0.2,0.1,0.3,0.2c0.1,1.7,0.1,3.4,0.1,5c0,0.8,0,1.7,0,2.5
	c0,0.2,0,0.2,0,0.2s-0.1,0.1-0.5,0.2c-7.8,2.2-12.3,8.1-12.2,16.2c0,6.7,4,12.4,10.4,14.9c1.6,0.6,3.3,0.9,5.1,0.9
	c4.3,0,8.8-1.8,11.7-4.7c4.9-5.1,5.5-13.4,3.2-18.2c-2.4-4.9-6.2-8.1-11.3-9.3c-0.2-0.1-0.4-0.1-0.4-0.1l0,0c0,0,0-0.2,0-0.4
	c0.1-2.2,0.1-4.4,0-7c0-0.1,0-0.2,0-0.3c0,0,0.1,0,0.2-0.1l0.3-0.1c0.9-0.2,1.9-0.4,2.8-0.9c4.5-2.2,7.7-5.7,9-10
	c1.4-4.5,0.8-9.4-1.7-13.9c-0.1-0.3-0.2-0.4-0.2-0.4s0.1-0.1,0.3-0.3c1.2-1.1,2.3-2.3,3.4-3.5c0.8-0.9,1.6-1.7,2.5-2.5
	C86.1,27.1,85.1,25.4,84.3,24.6z M74.6,44.7c0,2.6-1.1,5.2-3.1,7.2c-1.9,1.9-4.4,3-6.8,3l0,0c-5.5,0-10-4.7-10-10.5
	c0-5.4,4.3-9.6,10-9.7h0.2C71,34.6,74.6,39.8,74.6,44.7z M64.9,74.2c5,0,9.7,4.9,9.7,10.2c0,5.5-4.7,10.3-10,10.3h-0.1
	c-2.3,0-4.8-1.1-6.7-3.1c-2.1-2.1-3.2-4.8-3.2-7.3C54.6,79,59.5,74.2,64.9,74.2L64.9,74.2z"/>
</svg>
