<?xml version="1.0" encoding="utf-8"?>
<!-- Generator: Adobe Illustrator 21.1.0, SVG Export Plug-In . SVG Version: 6.00 Build 0)  -->
<svg version="1.1" id="Layer_1" xmlns="http://www.w3.org/2000/svg" xmlns:xlink="http://www.w3.org/1999/xlink" x="0px" y="0px"
	 viewBox="0 0 128 128" style="enable-background:new 0 0 128 128;" xml:space="preserve">
<style type="text/css">
	.st0{fill:#C64A27;}
	.st1{fill:#D35127;}
	.st2{fill:#F16924;}
	.st3{fill:#3C5F76;}
	.st4{fill:#4C6F8C;}
	.st5{fill:#638DAA;}
</style>
<g>
	<path class="st0" d="M64,128C28.7,128,0,99.3,0,64S28.7,0,64,0s64,28.7,64,64S99.3,128,64,128z"/>
</g>
<g>
	<path class="st1" d="M64,120.1c-32,0-58.1-26-58.1-58.1S32,4,64,4s58.1,26,58.1,58.1S96,120.1,64,120.1z"/>
	<path class="st2" d="M64,8c29.8,0,54.1,24.3,54.1,54.1S93.8,116.2,64,116.2S9.9,91.9,9.9,62.1C9.9,32.3,34.2,8,64,8 M64,0L64,0
		C29.7,0,1.9,27.8,1.9,62.1l0,0c0,34.3,27.8,62.1,62.1,62.1l0,0c34.3,0,62.1-27.8,62.1-62.1l0,0C126.1,27.8,98.3,0,64,0L64,0z"/>
</g>
<g>
	<path class="st3" d="M64,128C28.7,128,0,99.3,0,64S28.7,0,64,0s64,28.7,64,64S99.3,128,64,128z"/>
</g>
<g>
	<path class="st4" d="M64,120.1c-32,0-58.1-26-58.1-58.1S32,4,64,4s58.1,26,58.1,58.1S96,120.1,64,120.1z"/>
	<path class="st5" d="M64,8c29.8,0,54.1,24.3,54.1,54.1S93.8,116.2,64,116.2S9.9,91.9,9.9,62.1C9.9,32.3,34.2,8,64,8 M64,0L64,0
		C29.7,0,1.9,27.8,1.9,62.1l0,0c0,34.3,27.8,62.1,62.1,62.1l0,0c34.3,0,62.1-27.8,62.1-62.1l0,0C126.1,27.8,98.3,0,64,0L64,0z"/>
</g>
<g>
	<path class="st3" d="M13.6,65.6c0-29.7,24.2-54,54-54c13.9,0,26.6,5.3,36.2,13.9c-9.8-10.8-24.1-17.8-40-17.8
		c-29.7,0-54,24.2-54,54c0,15.9,6.9,30.1,17.8,40C18.8,92.3,13.6,79.5,13.6,65.6z"/>
</g>
<g>
	<path class="st3" d="M87,64.6c0-8.7,0-17.5,0-26.2c0-0.3,0-0.7,0-1c0.1-1.8,1.2-3.1,3.1-3.2c1.2-0.1,2.5-0.1,3.8,0
		c1.5,0.1,2.7,1,3.1,2.5c0.2,0.7,0.3,1.4,0.3,2.1c0,16.8,0,33.6,0,50.4c0,1.1-0.1,2.3-0.2,3.4c-0.1,1.2-1.5,2.4-2.9,2.5
		c-1.3,0.1-2.7,0.1-4,0c-1.7-0.1-3-1.5-3-3.4c0-7.6,0-15.2,0-22.8C87,67.5,87,66.1,87,64.6z"/>
	<path class="st3" d="M63.1,77.1c0,4.6,0,9.1,0,13.7c0,0.4,0,0.8,0,1.1c-0.2,2-1.4,3.2-3.5,3.2c-1.1,0-2.3,0-3.4,0
		c-1.8-0.1-2.8-1.1-3.1-2.8c-0.1-0.8-0.2-1.6-0.2-2.4c0-8.9,0-17.8,0-26.7c0-0.8,0.1-1.6,0.3-2.4c0.2-1,0.9-1.7,1.9-2
		c1.7-0.5,3.5-0.5,5.2-0.1s2.5,1.4,2.7,3.2c0.1,0.8,0,1.7,0,2.5C63.2,68.7,63.1,72.9,63.1,77.1z"/>
	<path class="st3" d="M80.1,81.2c0,3.3,0,6.6,0,9.9c0,0.7-0.2,1.4-0.4,2.1c-0.4,1.3-1.4,1.8-2.7,1.9c-1.2,0.1-2.5,0.1-3.7,0
		c-1.9-0.1-3-1.3-3.2-3.2c0-0.2,0-0.5,0-0.8c0-6.7,0-13.4,0-20.1c0-0.6,0.1-1.2,0.3-1.7c0.4-1.1,1.2-2,2.4-2.1
		c1.4-0.1,2.8-0.2,4.2-0.1c2,0.1,3.1,1.4,3.2,3.7C80.1,74.2,80.1,77.7,80.1,81.2z"/>
	<path class="st3" d="M46.3,85.4c0,1.9,0,3.8,0,5.7c0,1.2-0.2,2.5-1.3,3.2c-0.6,0.4-1.2,0.7-1.9,0.8c-1.2,0.1-2.4,0.1-3.6,0
		c-2-0.1-3.3-1.3-3.3-3.4c0-4.3,0-8.6,0-12.9c0-2.1,1.4-3.3,3.4-3.4c1.1,0,2.2,0,3.2,0c1.6,0.1,3.1,1,3.3,2.8
		c0.1,0.7,0.2,1.5,0.2,2.2C46.3,82.1,46.3,83.8,46.3,85.4z"/>
</g>
<g>
	<path class="st5" d="M84.6,62.2c0-8.7,0-17.5,0-26.2c0-0.3,0-0.7,0-1c0.1-1.8,1.2-3.1,3.1-3.2c1.2-0.1,2.5-0.1,3.8,0
		c1.5,0.1,2.7,1,3.1,2.5c0.2,0.7,0.3,1.4,0.3,2.1c0,16.8,0,33.6,0,50.4c0,1.1-0.1,2.3-0.2,3.4c-0.1,1.2-1.5,2.4-2.9,2.5
		c-1.3,0.1-2.7,0.1-4,0c-1.7-0.1-3-1.5-3-3.4c0-7.6,0-15.2,0-22.8C84.6,65.1,84.6,63.7,84.6,62.2z"/>
	<path class="st5" d="M60.8,74.7c0,4.6,0,9.1,0,13.7c0,0.4,0,0.8,0,1.1c-0.2,2-1.4,3.2-3.5,3.2c-1.1,0-2.3,0-3.4,0
		c-1.8-0.1-2.8-1.1-3.1-2.8c-0.1-0.8-0.2-1.6-0.2-2.4c0-8.9,0-17.8,0-26.7c0-0.8,0.1-1.6,0.3-2.4c0.2-1,0.9-1.7,1.9-2
		c1.7-0.5,3.5-0.5,5.2-0.1s2.5,1.4,2.7,3.2c0.1,0.8,0,1.7,0,2.5C60.8,66.3,60.8,70.5,60.8,74.7z"/>
	<path class="st5" d="M77.7,78.8c0,3.3,0,6.6,0,9.9c0,0.7-0.2,1.4-0.4,2.1c-0.4,1.3-1.4,1.8-2.7,1.9c-1.2,0.1-2.5,0.1-3.7,0
		c-1.9-0.1-3-1.3-3.2-3.2c0-0.2,0-0.5,0-0.8c0-6.7,0-13.4,0-20.1c0-0.6,0.1-1.2,0.3-1.7c0.4-1.1,1.2-2,2.4-2.1
		c1.4-0.1,2.8-0.2,4.2-0.1c2,0.1,3.1,1.4,3.2,3.7C77.7,71.9,77.7,75.3,77.7,78.8z"/>
	<path class="st5" d="M43.9,83c0,1.9,0,3.8,0,5.7c0,1.2-0.2,2.5-1.3,3.2c-0.6,0.4-1.2,0.7-1.9,0.8c-1.2,0.1-2.4,0.1-3.6,0
		c-2-0.1-3.3-1.3-3.3-3.4c0-4.3,0-8.6,0-12.9c0-2.1,1.4-3.3,3.4-3.4c1.1,0,2.2,0,3.2,0c1.6,0.1,3.1,1,3.3,2.8
		c0.1,0.7,0.2,1.5,0.2,2.2C43.9,79.8,43.9,81.4,43.9,83z"/>
</g>
</svg>
