<?xml version="1.0" encoding="utf-8"?>
<!-- Generator: Adobe Illustrator 21.1.0, SVG Export Plug-In . SVG Version: 6.00 Build 0)  -->
<svg version="1.1" id="Layer_1" xmlns="http://www.w3.org/2000/svg" xmlns:xlink="http://www.w3.org/1999/xlink" x="0px" y="0px"
	 viewBox="0 0 128 128" style="enable-background:new 0 0 128 128;" xml:space="preserve">
<style type="text/css">
	.st0{fill:#007766;}
	.st1{fill:#048975;}
	.st2{fill:#00A996;}
</style>
<g>
	<path class="st0" d="M64,128C28.7,128,0,99.3,0,64S28.7,0,64,0s64,28.7,64,64S99.3,128,64,128z"/>
</g>
<g>
	<path class="st1" d="M64,120.1c-32,0-58.1-26-58.1-58.1S32,4,64,4s58.1,26,58.1,58.1S96,120.1,64,120.1z"/>
	<path class="st2" d="M64,8c29.8,0,54.1,24.3,54.1,54.1S93.8,116.2,64,116.2S9.9,91.9,9.9,62.1C9.9,32.3,34.2,8,64,8 M64,0L64,0
		C29.7,0,1.9,27.8,1.9,62.1l0,0c0,34.3,27.8,62.1,62.1,62.1l0,0c34.3,0,62.1-27.8,62.1-62.1l0,0C126.1,27.8,98.3,0,64,0L64,0z"/>
</g>
<g>
	<path class="st0" d="M13.6,65.6c0-29.7,24.2-54,54-54c13.9,0,26.6,5.3,36.2,13.9c-9.8-10.8-24.1-17.8-40-17.8
		c-29.7,0-54,24.2-54,54c0,15.9,6.9,30.1,17.8,40C18.8,92.3,13.6,79.5,13.6,65.6z"/>
</g>
<g>
	<g>
		<path class="st0" d="M80.3,27.8c-0.1-2.6,2.3-5,5.2-4.9c2.6,0.1,4.7,2.3,4.7,5c0,2.8-2.3,4.9-5.2,4.9
			C82.5,32.8,80.3,30.6,80.3,27.8z"/>
	</g>
	<g>
		<path class="st0" d="M90.9,93.2c2.8,0,4.9,2.1,4.9,4.9s-2.2,5-5,5c-2.7,0-4.9-2.2-4.9-5C85.9,95.3,88.1,93.2,90.9,93.2z"/>
	</g>
	<g>
		<path class="st0" d="M27.3,72.8c-2.8,0-5-2.2-4.9-5.1c0-2.7,2.2-4.8,5-4.8s4.9,2.3,4.9,5.1C32.3,70.7,30,72.8,27.3,72.8z"/>
	</g>
	<g>
		<path class="st0" d="M82.5,41.1c0-2.4,1.9-4.3,4.2-4.3c2.3,0,4.2,1.9,4.2,4.2s-1.9,4.3-4.2,4.3C84.4,45.4,82.5,43.5,82.5,41.1z"/>
	</g>
	<g>
		<path class="st0" d="M38,55.8c2.4,0,4.3,1.9,4.3,4.2s-1.9,4.3-4.3,4.3c-2.4,0-4.3-1.9-4.3-4.3C33.8,57.7,35.7,55.8,38,55.8z"/>
	</g>
	<g>
		<path class="st0" d="M97.8,46.9c-2.3,0-4.2-1.9-4.2-4.2c0-2.4,2-4.3,4.3-4.2c2.3,0,4.2,1.9,4.2,4.3C102.1,45,100.2,46.9,97.8,46.9
			z"/>
	</g>
	<g>
		<path class="st0" d="M78.8,97c-2.3,0-4.3-1.9-4.3-4.3c0-2.3,1.9-4.2,4.2-4.2c2.3,0,4.3,1.9,4.3,4.3C83.1,95,81.1,97,78.8,97z"/>
	</g>
	<g>
		<path class="st0" d="M38,49.7c0,2.4-1.9,4.2-4.3,4.2c-2.3,0-4.2-1.9-4.2-4.3c0-2.3,1.9-4.2,4.2-4.3C36.1,45.4,38.1,47.3,38,49.7z"
			/>
	</g>
	<g>
		<path class="st0" d="M71.8,105.8c-2.3,0-4.2-1.9-4.2-4.3c0-2.3,1.9-4.2,4.2-4.2c2.3,0,4.3,1.9,4.3,4.3
			C76.1,104,74.2,105.8,71.8,105.8z"/>
	</g>
	<g>
		<path class="st0" d="M59.3,94.8c0-2,1.6-3.6,3.6-3.6c2,0,3.6,1.7,3.6,3.7s-1.6,3.6-3.6,3.6S59.3,96.8,59.3,94.8z"/>
	</g>
	<g>
		<path class="st0" d="M100.1,53.8c0,2-1.6,3.6-3.7,3.6c-2,0-3.6-1.6-3.6-3.6s1.6-3.7,3.6-3.6C98.5,50.2,100.1,51.8,100.1,53.8z"/>
	</g>
	<g>
		<path class="st0" d="M47.8,45.3c0,2-1.6,3.6-3.6,3.6s-3.6-1.6-3.6-3.7c0-2,1.6-3.6,3.6-3.6S47.8,43.2,47.8,45.3z"/>
	</g>
	<g>
		<path class="st0" d="M52,55.6c0,2-1.6,3.6-3.6,3.6s-3.6-1.6-3.6-3.6c0-2.1,1.6-3.7,3.6-3.7C50.4,52,52,53.6,52,55.6z"/>
	</g>
	<g>
		<path class="st0" d="M39.1,35.8c0-2,1.6-3.6,3.6-3.6s3.6,1.6,3.6,3.6s-1.6,3.6-3.6,3.6C40.6,39.5,39,37.9,39.1,35.8z"/>
	</g>
	<g>
		<path class="st0" d="M81.7,52.3c0-2,1.6-3.6,3.6-3.6s3.7,1.7,3.6,3.7c0,2-1.6,3.6-3.7,3.6C83.3,55.9,81.7,54.3,81.7,52.3z"/>
	</g>
	<g>
		<path class="st0" d="M69.8,82.3c2,0,3.6,1.7,3.6,3.6c0,2-1.6,3.6-3.7,3.6c-2,0-3.6-1.6-3.6-3.6C66.2,83.9,67.8,82.3,69.8,82.3z"/>
	</g>
	<g>
		<path class="st0" d="M59.1,100.8c0,2-1.6,3.6-3.6,3.6s-3.6-1.6-3.6-3.6s1.6-3.7,3.7-3.7C57.5,97.2,59.1,98.8,59.1,100.8z"/>
	</g>
	<g>
		<path class="st0" d="M105.3,60.8c-1.9,0-3.6-1.7-3.6-3.6c0-2,1.7-3.7,3.7-3.6c2,0,3.6,1.7,3.6,3.7C109,59.3,107.3,60.9,105.3,60.8
			z"/>
	</g>
	<g>
		<path class="st0" d="M59.8,87.5c0,1.7-1.4,3.1-3.1,3.1c-1.7,0-3.1-1.4-3.1-3.1s1.4-3.1,3.2-3.1C58.5,84.4,59.9,85.8,59.8,87.5z"/>
	</g>
	<g>
		<path class="st0" d="M53.6,40.5c1.7,0,3.1,1.4,3.1,3.1c0,1.7-1.4,3.1-3.1,3.1c-1.7,0-3.2-1.4-3.1-3.2
			C50.5,41.9,51.9,40.5,53.6,40.5z"/>
	</g>
	<g>
		<path class="st0" d="M60.5,78.7c0-1.7,1.3-3.1,3-3.1c1.8,0,3.2,1.4,3.2,3.1s-1.4,3.1-3.1,3.1C61.9,81.7,60.5,80.4,60.5,78.7z"/>
	</g>
	<g>
		<path class="st0" d="M49.4,96.6c-1.8,0-3.2-1.3-3.2-3.1c0-1.7,1.4-3.1,3.1-3.1c1.8,0,3.2,1.4,3.1,3.1
			C52.4,95.2,51.1,96.6,49.4,96.6z"/>
	</g>
	<g>
		<path class="st0" d="M85.1,61.3c0,1.7-1.3,3-3,3c-1.8,0-3.1-1.4-3.1-3.1c0-1.7,1.4-3.1,3.1-3.1C83.8,58.2,85.1,59.5,85.1,61.3z"/>
	</g>
	<g>
		<path class="st0" d="M52.1,37.2c-1.8,0-3.1-1.3-3.1-3s1.4-3.2,3.1-3.2c1.7,0,3.1,1.4,3.1,3.1C55.2,35.9,53.8,37.2,52.1,37.2z"/>
	</g>
	<g>
		<path class="st0" d="M93.1,65.9c-1.7,0-3.1-1.4-3.1-3.1c0-1.7,1.4-3.1,3.1-3.1c1.8,0,3.1,1.4,3.1,3.2
			C96.3,64.6,94.9,65.9,93.1,65.9z"/>
	</g>
	<g>
		<path class="st0" d="M57.8,57.1c-1.7,0-3.1-1.4-3-3.1c0-1.7,1.5-3.1,3.2-3.1s3.1,1.4,3.1,3.1C60.9,55.7,59.5,57.1,57.8,57.1z"/>
	</g>
	<g>
		<path class="st0" d="M102,69.3c-1.8-0.1-3.1-1.5-3-3.2s1.5-3,3.2-3c1.8,0,3.1,1.5,3,3.3C105.1,68.1,103.7,69.4,102,69.3z"/>
	</g>
	<g>
		<path class="st0" d="M65.9,57.1c-1.5,0-2.7-1.2-2.7-2.7s1.2-2.6,2.7-2.6s2.7,1.2,2.6,2.7C68.6,55.9,67.4,57.1,65.9,57.1z"/>
	</g>
	<g>
		<path class="st0" d="M95,73.1c0-1.5,1.1-2.7,2.6-2.7s2.7,1.1,2.7,2.6s-1.3,2.8-2.6,2.8C96.2,75.8,95,74.5,95,73.1z"/>
	</g>
	<g>
		<path class="st0" d="M62.9,34.6c0,1.5-1.1,2.6-2.7,2.6c-1.5,0-2.7-1.2-2.6-2.7c0-1.5,1.2-2.6,2.8-2.6
			C61.7,31.9,62.9,33.1,62.9,34.6z"/>
	</g>
	<g>
		<path class="st0" d="M62.6,71.4c0,1.5-1.1,2.6-2.6,2.6s-2.7-1.2-2.7-2.7s1.2-2.7,2.7-2.6C61.4,68.7,62.6,69.9,62.6,71.4z"/>
	</g>
	<g>
		<path class="st0" d="M53.1,82.9c-1.5,0-2.7-1.1-2.7-2.6s1.2-2.7,2.7-2.7c1.4,0,2.6,1.2,2.6,2.6C55.7,81.7,54.6,82.9,53.1,82.9z"/>
	</g>
	<g>
		<path class="st0" d="M91.4,69.7c0,1.5-1.1,2.7-2.6,2.7c-1.4,0-2.7-1.3-2.7-2.7c0-1.5,1.2-2.7,2.7-2.7S91.4,68.1,91.4,69.7z"/>
	</g>
	<g>
		<path class="st0" d="M77.6,65.5c1.5,0,2.6,1.1,2.7,2.6c0,1.5-1.2,2.7-2.6,2.7c-1.5,0-2.7-1.2-2.7-2.7S76.1,65.5,77.6,65.5z"/>
	</g>
	<g>
		<path class="st0" d="M48.3,86.2c0,1.5-1.2,2.7-2.7,2.7S43,87.7,43,86.2s1.2-2.7,2.6-2.7C47.1,83.6,48.3,84.8,48.3,86.2z"/>
	</g>
	<g>
		<path class="st0" d="M61.7,46.7c-1.5,0-2.7-1.2-2.7-2.7c0-1.4,1.2-2.7,2.7-2.7c1.4,0,2.7,1.2,2.7,2.7S63.2,46.7,61.7,46.7z"/>
	</g>
	<g>
		<path class="st0" d="M86.1,74.4c0,1.3-1,2.3-2.3,2.3s-2.3-1-2.3-2.3s1-2.3,2.2-2.3C85,72.1,86.1,73.1,86.1,74.4z"/>
	</g>
	<g>
		<path class="st0" d="M60.5,64.7c0,1.3-1,2.3-2.3,2.3c-1.2,0-2.3-1.1-2.3-2.3c0-1.2,1.1-2.3,2.3-2.3C59.5,62.4,60.5,63.4,60.5,64.7
			z"/>
	</g>
	<g>
		<path class="st0" d="M44,77.3c1.3,0,2.3,1,2.3,2.3c0,1.2-1.1,2.3-2.3,2.3c-1.3,0-2.3-1.1-2.3-2.4C41.7,78.2,42.7,77.3,44,77.3z"/>
	</g>
	<g>
		<path class="st0" d="M72.6,58.6c-1.3,0-2.3-1-2.3-2.2c0-1.3,1-2.3,2.3-2.3s2.3,1,2.3,2.3C74.9,57.6,73.9,58.6,72.6,58.6z"/>
	</g>
	<g>
		<path class="st0" d="M68.4,43.6c1.3,0,2.3,1,2.2,2.3c0,1.3-1,2.3-2.3,2.3s-2.3-1-2.3-2.3C66.1,44.6,67.1,43.6,68.4,43.6z"/>
	</g>
	<g>
		<path class="st0" d="M53.6,73.5c0,1.3-1,2.3-2.2,2.3s-2.3-1.1-2.3-2.4s1-2.3,2.3-2.2C52.7,71.3,53.6,72.2,53.6,73.5z"/>
	</g>
	<g>
		<path class="st0" d="M72.7,70.6c1.3,0,2.3,1,2.2,2.3c0,1.3-1,2.3-2.3,2.3s-2.3-1-2.3-2.3C70.4,71.6,71.4,70.6,72.7,70.6z"/>
	</g>
	<g>
		<path class="st0" d="M95,77.8c0,1.3-1,2.3-2.3,2.3s-2.3-1-2.3-2.3c0-1.2,1-2.3,2.3-2.3C93.9,75.5,95,76.5,95,77.8z"/>
	</g>
	<g>
		<path class="st0" d="M66.9,34.2c1.3,0,2.2,1,2.2,2.2c0,1.3-1,2.3-2.3,2.3s-2.3-1-2.3-2.3C64.6,35.2,65.6,34.2,66.9,34.2z"/>
	</g>
	<g>
		<path class="st0" d="M74,39.4c0,1.1-0.9,2-2,1.9c-1.1,0-1.9-0.9-1.9-2s0.9-2,2-2C73.1,37.4,74,38.2,74,39.4z"/>
	</g>
	<g>
		<path class="st0" d="M41.9,73.6c0-1.1,0.9-1.9,2-1.9s2,0.9,2,2s-0.9,1.9-2,1.9C42.7,75.6,41.9,74.7,41.9,73.6z"/>
	</g>
	<g>
		<path class="st0" d="M89.6,80.8c0,1.1-0.8,2-1.9,2s-2-0.9-2-2s0.9-2,2-2C88.8,78.9,89.6,79.8,89.6,80.8z"/>
	</g>
	<g>
		<path class="st0" d="M53.2,67.7c0,1.1-0.9,2-2,1.9c-1.1,0-2-0.9-1.9-2c0-1.1,0.9-1.9,2-1.9C52.4,65.7,53.2,66.5,53.2,67.7z"/>
	</g>
	<g>
		<path class="st0" d="M73.5,50.7c-1.1,0-2-0.9-2-2s0.9-1.9,2-1.9s2,0.8,2,1.9C75.5,49.9,74.7,50.7,73.5,50.7z"/>
	</g>
	<g>
		<path class="st0" d="M78.8,75.5c1.1,0,1.9,0.8,1.9,1.9s-0.9,2-2,2s-1.9-0.9-1.9-2S77.6,75.5,78.8,75.5z"/>
	</g>
	<g>
		<path class="st0" d="M46.6,68.8c0,0.9-0.7,1.7-1.7,1.7c-0.9,0-1.7-0.8-1.7-1.7c0-0.9,0.8-1.7,1.8-1.7
			C45.9,67.1,46.6,67.8,46.6,68.8z"/>
	</g>
	<g>
		<path class="st0" d="M84.6,82.4c0,1-0.7,1.7-1.7,1.7c-0.9,0-1.7-0.8-1.7-1.7c0-0.9,0.8-1.7,1.7-1.7C83.9,80.8,84.6,81.5,84.6,82.4
			z"/>
	</g>
	<g>
		<path class="st0" d="M75.7,41c1,0,1.7,0.7,1.7,1.7c0,0.9-0.7,1.7-1.7,1.7S74,43.7,74,42.8C74,41.7,74.7,41,75.7,41z"/>
	</g>
</g>
<g>
	<path class="st2" d="M78.4,25.9c-0.1-2.6,2.3-5,5.2-4.9c2.6,0.1,4.7,2.3,4.7,5c0,2.8-2.3,4.9-5.2,4.9
		C80.5,30.9,78.4,28.6,78.4,25.9z"/>
	<path class="st2" d="M89,91.2c2.8,0,4.9,2.1,4.9,4.9s-2.2,5-5,5c-2.7,0-4.9-2.2-4.9-5C84,93.4,86.2,91.2,89,91.2z"/>
	<path class="st2" d="M25.4,70.9c-2.8,0-5-2.2-4.9-5.1c0-2.7,2.2-4.8,5-4.8s4.9,2.3,4.9,5.1C30.3,68.7,28.1,70.9,25.4,70.9z"/>
	<path class="st2" d="M80.5,39.1c0-2.4,1.9-4.3,4.2-4.3c2.3,0,4.2,1.9,4.2,4.2s-1.9,4.3-4.2,4.3C82.4,43.4,80.5,41.5,80.5,39.1z"/>
	<path class="st2" d="M36,53.9c2.4,0,4.3,1.9,4.3,4.2s-1.9,4.3-4.3,4.3c-2.4,0-4.3-1.9-4.3-4.3C31.8,55.8,33.7,53.9,36,53.9z"/>
	<path class="st2" d="M95.8,44.9c-2.3,0-4.2-1.9-4.2-4.2c0-2.4,2-4.3,4.3-4.2c2.3,0,4.2,1.9,4.2,4.3C100.1,43,98.2,44.9,95.8,44.9z"
		/>
	<path class="st2" d="M76.9,95c-2.3,0-4.3-1.9-4.3-4.3c0-2.3,1.9-4.2,4.2-4.2c2.3,0,4.3,1.9,4.3,4.3C81.1,93.1,79.2,95,76.9,95z"/>
	<path class="st2" d="M36.1,47.7c0,2.4-1.9,4.2-4.3,4.2c-2.3,0-4.2-1.9-4.2-4.3c0-2.3,1.9-4.2,4.2-4.3
		C34.2,43.4,36.1,45.4,36.1,47.7z"/>
	<path class="st2" d="M69.9,103.9c-2.3,0-4.2-1.9-4.2-4.3c0-2.3,1.9-4.2,4.2-4.2c2.3,0,4.3,1.9,4.3,4.3
		C74.2,102,72.3,103.9,69.9,103.9z"/>
	<path class="st2" d="M57.4,92.8c0-2,1.6-3.6,3.6-3.6s3.6,1.7,3.6,3.7S63,96.5,61,96.5C58.9,96.5,57.3,94.9,57.4,92.8z"/>
	<path class="st2" d="M98.1,51.9c0,2-1.6,3.6-3.7,3.6c-2,0-3.6-1.6-3.6-3.6s1.6-3.7,3.6-3.6C96.5,48.2,98.1,49.9,98.1,51.9z"/>
	<path class="st2" d="M45.8,43.3c0,2-1.6,3.6-3.6,3.6s-3.6-1.6-3.6-3.7c0-2,1.6-3.6,3.6-3.6C44.3,39.7,45.9,41.3,45.8,43.3z"/>
	<path class="st2" d="M50.1,53.7c0,2-1.6,3.6-3.6,3.6s-3.6-1.6-3.6-3.6c0-2.1,1.6-3.7,3.6-3.7C48.5,50.1,50.1,51.7,50.1,53.7z"/>
	<path class="st2" d="M37.1,33.9c0-2,1.6-3.6,3.6-3.6s3.6,1.6,3.6,3.6s-1.6,3.6-3.6,3.6C38.7,37.5,37.1,35.9,37.1,33.9z"/>
	<path class="st2" d="M79.8,50.3c0-2,1.6-3.6,3.6-3.6s3.7,1.7,3.6,3.7c0,2-1.6,3.6-3.7,3.6C81.3,53.9,79.8,52.4,79.8,50.3z"/>
	<path class="st2" d="M67.9,80.4c2,0,3.6,1.7,3.6,3.6c0,2-1.6,3.6-3.7,3.6c-2,0-3.6-1.6-3.6-3.6C64.2,82,65.9,80.4,67.9,80.4z"/>
	<path class="st2" d="M57.2,98.9c0,2-1.6,3.6-3.6,3.6s-3.6-1.6-3.6-3.6s1.6-3.7,3.7-3.7C55.6,95.3,57.2,96.8,57.2,98.9z"/>
	<path class="st2" d="M103.3,58.9c-1.9,0-3.6-1.7-3.6-3.6c0-2,1.7-3.7,3.7-3.6c2,0,3.6,1.7,3.6,3.7C107,57.3,105.4,58.9,103.3,58.9z
		"/>
	<path class="st2" d="M57.9,85.6c0,1.7-1.4,3.1-3.1,3.1c-1.7,0-3.1-1.4-3.1-3.1s1.4-3.1,3.2-3.1C56.5,82.4,57.9,83.8,57.9,85.6z"/>
	<path class="st2" d="M51.7,38.5c1.7,0,3.1,1.4,3.1,3.1c0,1.7-1.4,3.1-3.1,3.1c-1.7,0-3.2-1.4-3.1-3.2C48.6,39.9,50,38.5,51.7,38.5z
		"/>
	<path class="st2" d="M58.6,76.7c0-1.7,1.3-3.1,3-3.1c1.8,0,3.2,1.4,3.2,3.1s-1.4,3.1-3.1,3.1C59.9,79.7,58.6,78.4,58.6,76.7z"/>
	<path class="st2" d="M47.5,94.6c-1.8,0-3.2-1.3-3.2-3.1c0-1.7,1.4-3.1,3.1-3.1c1.8,0,3.2,1.4,3.1,3.1
		C50.5,93.3,49.2,94.6,47.5,94.6z"/>
	<path class="st2" d="M83.2,59.4c0,1.7-1.3,3-3,3c-1.8,0-3.1-1.4-3.1-3.1c0-1.7,1.4-3.1,3.1-3.1C81.9,56.2,83.2,57.6,83.2,59.4z"/>
	<path class="st2" d="M50.2,35.3c-1.8,0-3.1-1.3-3.1-3s1.4-3.2,3.1-3.2c1.7,0,3.1,1.4,3.1,3.1C53.3,33.9,51.9,35.3,50.2,35.3z"/>
	<path class="st2" d="M91.2,64c-1.7,0-3.1-1.4-3.1-3.1c0-1.7,1.4-3.1,3.1-3.1c1.8,0,3.1,1.4,3.1,3.2C94.3,62.7,93,64,91.2,64z"/>
	<path class="st2" d="M55.8,55.1c-1.7,0-3.1-1.4-3-3.1c0-1.7,1.5-3.1,3.2-3.1s3.1,1.4,3.1,3.1C59,53.8,57.6,55.1,55.8,55.1z"/>
	<path class="st2" d="M100.1,67.4c-1.8-0.1-3.1-1.5-3-3.2c0.1-1.7,1.5-3,3.2-3c1.8,0,3.1,1.5,3,3.3
		C103.2,66.1,101.7,67.4,100.1,67.4z"/>
	<path class="st2" d="M64,55.1c-1.5,0-2.7-1.2-2.7-2.7s1.2-2.6,2.7-2.6s2.7,1.2,2.6,2.7C66.7,54,65.5,55.1,64,55.1z"/>
	<path class="st2" d="M93.1,71.1c0-1.5,1.1-2.7,2.6-2.7s2.7,1.1,2.7,2.6s-1.3,2.8-2.6,2.8C94.3,73.8,93.1,72.6,93.1,71.1z"/>
	<path class="st2" d="M60.9,32.7c0,1.5-1.1,2.6-2.7,2.6c-1.5,0-2.7-1.2-2.6-2.7c0-1.5,1.2-2.6,2.8-2.6C59.8,30,60.9,31.2,60.9,32.7z
		"/>
	<path class="st2" d="M60.6,69.4c0,1.5-1.1,2.6-2.6,2.6s-2.7-1.2-2.7-2.7s1.2-2.7,2.7-2.6S60.6,67.9,60.6,69.4z"/>
	<path class="st2" d="M51.1,80.9c-1.5,0-2.7-1.1-2.7-2.6s1.2-2.7,2.7-2.7c1.4,0,2.6,1.2,2.6,2.6C53.8,79.8,52.6,80.9,51.1,80.9z"/>
	<path class="st2" d="M89.4,67.7c0,1.5-1.1,2.7-2.6,2.7c-1.4,0-2.7-1.3-2.7-2.7c0-1.5,1.2-2.7,2.7-2.7S89.4,66.2,89.4,67.7z"/>
	<path class="st2" d="M75.7,63.5c1.5,0,2.6,1.1,2.7,2.6c0,1.5-1.2,2.7-2.6,2.7c-1.5,0-2.7-1.2-2.7-2.7C73,64.7,74.2,63.5,75.7,63.5z
		"/>
	<path class="st2" d="M46.4,84.3c0,1.5-1.2,2.7-2.7,2.7s-2.6-1.2-2.6-2.7s1.2-2.7,2.6-2.7C45.2,81.6,46.4,82.9,46.4,84.3z"/>
	<path class="st2" d="M59.8,44.7c-1.5,0-2.7-1.2-2.7-2.7c0-1.4,1.2-2.7,2.7-2.7c1.4,0,2.7,1.2,2.7,2.7S61.3,44.7,59.8,44.7z"/>
	<path class="st2" d="M84.1,72.5c0,1.3-1,2.3-2.3,2.3s-2.3-1-2.3-2.3s1-2.3,2.2-2.3C83.1,70.2,84.1,71.2,84.1,72.5z"/>
	<path class="st2" d="M58.6,62.7c0,1.3-1,2.3-2.3,2.3c-1.2,0-2.3-1.1-2.3-2.3s1.1-2.3,2.3-2.3C57.6,60.4,58.6,61.5,58.6,62.7z"/>
	<path class="st2" d="M42.1,75.3c1.3,0,2.3,1,2.3,2.3c0,1.2-1.1,2.3-2.3,2.3c-1.3,0-2.3-1.1-2.3-2.4C39.7,76.3,40.7,75.3,42.1,75.3z
		"/>
	<path class="st2" d="M70.7,56.6c-1.3,0-2.3-1-2.3-2.2c0-1.3,1-2.3,2.3-2.3s2.3,1,2.3,2.3C73,55.6,71.9,56.6,70.7,56.6z"/>
	<path class="st2" d="M66.5,41.7c1.3,0,2.3,1,2.2,2.3c0,1.3-1,2.3-2.3,2.3s-2.3-1-2.3-2.3C64.2,42.7,65.2,41.7,66.5,41.7z"/>
	<path class="st2" d="M51.7,71.6c0,1.3-1,2.3-2.2,2.3s-2.3-1.1-2.3-2.4s1-2.3,2.3-2.2C50.7,69.3,51.7,70.3,51.7,71.6z"/>
	<path class="st2" d="M70.8,68.7c1.3,0,2.3,1,2.2,2.3c0,1.3-1,2.3-2.3,2.3s-2.3-1-2.3-2.3C68.5,69.6,69.5,68.7,70.8,68.7z"/>
	<path class="st2" d="M93,75.9c0,1.3-1,2.3-2.3,2.3s-2.3-1-2.3-2.3c0-1.2,1-2.3,2.3-2.3S93,74.6,93,75.9z"/>
	<path class="st2" d="M65,32.3c1.3,0,2.2,1,2.2,2.2c0,1.3-1,2.3-2.3,2.3c-1.3,0-2.3-1-2.3-2.3C62.7,33.2,63.6,32.3,65,32.3z"/>
	<path class="st2" d="M72,37.4c0,1.1-0.9,2-2,1.9c-1.1,0-1.9-0.9-1.9-2s0.9-2,2-2C71.2,35.4,72,36.3,72,37.4z"/>
	<path class="st2" d="M40,71.6c0-1.1,0.9-1.9,2-1.9s2,0.9,2,2s-0.9,1.9-2,1.9C40.8,73.7,40,72.8,40,71.6z"/>
	<path class="st2" d="M87.7,78.9c0,1.1-0.8,2-1.9,2s-2-0.9-2-2s0.9-2,2-2C86.8,77,87.7,77.8,87.7,78.9z"/>
	<path class="st2" d="M51.3,65.7c0,1.1-0.9,2-2,1.9c-1.1,0-2-0.9-1.9-2c0-1.1,0.9-1.9,2-1.9C50.4,63.8,51.3,64.6,51.3,65.7z"/>
	<path class="st2" d="M71.6,48.7c-1.1,0-2-0.9-2-2s0.9-1.9,2-1.9s2,0.8,2,1.9C73.5,47.9,72.7,48.7,71.6,48.7z"/>
	<path class="st2" d="M76.8,73.6c1.1,0,1.9,0.8,1.9,1.9s-0.9,2-2,2s-1.9-0.9-1.9-2C74.9,74.4,75.7,73.6,76.8,73.6z"/>
	<path class="st2" d="M44.6,66.9c0,0.9-0.7,1.7-1.7,1.7c-0.9,0-1.7-0.8-1.7-1.7c0-0.9,0.8-1.7,1.8-1.7
		C43.9,65.2,44.6,65.9,44.6,66.9z"/>
	<path class="st2" d="M82.6,80.5c0,1-0.7,1.7-1.7,1.7c-0.9,0-1.7-0.8-1.7-1.7c0-0.9,0.8-1.7,1.7-1.7C82,78.8,82.6,79.5,82.6,80.5z"
		/>
	<path class="st2" d="M73.7,39.1c1,0,1.7,0.7,1.7,1.7c0,0.9-0.7,1.7-1.7,1.7S72,41.8,72,40.9C72.1,39.8,72.8,39.1,73.7,39.1z"/>
</g>
</svg>
