<?xml version="1.0" encoding="utf-8"?>
<!-- Generator: Adobe Illustrator 21.1.0, SVG Export Plug-In . SVG Version: 6.00 Build 0)  -->
<svg version="1.1" id="Layer_1" xmlns="http://www.w3.org/2000/svg" xmlns:xlink="http://www.w3.org/1999/xlink" x="0px" y="0px"
	 viewBox="0 0 128 128" style="enable-background:new 0 0 128 128;" xml:space="preserve">
<style type="text/css">
	.st0{fill:#C64A27;}
	.st1{fill:#D35127;}
	.st2{fill:#F16924;}
	.st3{fill:#A57F30;}
	.st4{fill:#C39930;}
	.st5{fill:#E2BE26;}
</style>
<g>
	<path class="st0" d="M64,128C28.7,128,0,99.3,0,64S28.7,0,64,0s64,28.7,64,64S99.3,128,64,128z"/>
</g>
<g>
	<path class="st1" d="M64,120.1c-32,0-58.1-26-58.1-58.1S32,4,64,4s58.1,26,58.1,58.1S96,120.1,64,120.1z"/>
	<path class="st2" d="M64,8c29.8,0,54.1,24.3,54.1,54.1S93.8,116.2,64,116.2S9.9,91.9,9.9,62.1C9.9,32.3,34.2,8,64,8 M64,0L64,0
		C29.7,0,1.9,27.8,1.9,62.1l0,0c0,34.3,27.8,62.1,62.1,62.1l0,0c34.3,0,62.1-27.8,62.1-62.1l0,0C126.1,27.8,98.3,0,64,0L64,0z"/>
</g>
<g>
	<path class="st3" d="M64,128C28.7,128,0,99.3,0,64S28.7,0,64,0s64,28.7,64,64S99.3,128,64,128z"/>
</g>
<g>
	<path class="st4" d="M64,120.1c-32,0-58.1-26-58.1-58.1S32,4,64,4s58.1,26,58.1,58.1S96,120.1,64,120.1z"/>
	<path class="st5" d="M64,8c29.8,0,54.1,24.3,54.1,54.1S93.8,116.2,64,116.2S9.9,91.9,9.9,62.1C9.9,32.3,34.2,8,64,8 M64,0L64,0
		C29.7,0,1.9,27.8,1.9,62.1l0,0c0,34.3,27.8,62.1,62.1,62.1l0,0c34.3,0,62.1-27.8,62.1-62.1l0,0C126.1,27.8,98.3,0,64,0L64,0z"/>
</g>
<g>
	<path class="st3" d="M13.6,65.6c0-29.7,24.2-54,54-54c13.9,0,26.6,5.3,36.2,13.9c-9.8-10.8-24.1-17.8-40-17.8
		c-29.7,0-54,24.2-54,54c0,15.9,6.9,30.1,17.8,40C18.8,92.3,13.6,79.5,13.6,65.6z"/>
</g>
<g>
	<path class="st3" d="M87.6,76.3c-10.5,8.5-17.1,19.1-20.8,31.9c-3.7-12.8-10.3-23.4-20.7-31.8c2-1.5,3.8-3.1,5.8-4.5
		c6.7-4.6,14.2-7.4,22.1-9.2c5-1.2,10.1-2.2,14.8-4.4c2.9-1.4,5.5-3.2,7.4-5.9c3.2-4.4,3-8.7-0.8-12.6c-2.1-2.2-4.7-3.8-7.3-5.1
		c-0.2-0.1-0.4-0.2-0.6-0.4c4.4,0.5,8.5,1.6,12.1,4.2c2.4,1.8,4.1,4.1,4.9,7.1c1,4.1,0.2,7.8-2.7,10.9c-2.9,3.1-6.7,5.1-10.5,6.7
		C86,65.5,80.5,66.7,74.9,68c-5.9,1.3-11.6,3.2-16.8,6.4c-0.9,0.6-1.8,1.3-2.8,2c5.3,5.2,8.5,11.5,11.7,18.1
		c3.1-6.5,6.3-12.9,11.7-18.2c-2.1-1.3-4-2.5-6.2-3.9c2.1-0.5,4.2-0.9,6.2-1.5c1.1-0.3,1.9-0.1,2.7,0.6
		C83.3,73.1,85.4,74.6,87.6,76.3z"/>
	<path class="st3" d="M46.2,34.2c-2.1,1.4-4.4,2.8-6.5,4.4c-1.2,0.9-2.2,2.1-3,3.3c-2,3-1.8,6.1,0,9.2c2.3,3.9,5.8,6.4,10,7.8
		c4.3,1.4,8.7,2.5,13.1,3.7c0.2,0.1,0.5,0.2,0.8,0.2c-2.4,1.2-4.8,2.5-7.2,3.6c-0.2,0.1-0.5,0.1-0.7,0.1C46.5,64.8,40.3,62.8,35,59
		c-2.7-2-5.1-4.3-5.7-7.8c-0.9-4.9,0.6-9.2,4.5-12.3c3.5-2.9,7.8-4.1,12.2-4.7C46.1,34.2,46.2,34.2,46.2,34.2z"/>
	<path class="st3" d="M74.3,40.9c0,4-3.3,7.3-7.3,7.3S59.8,45,59.7,41c0-4,3.1-7.2,7.2-7.2C71.1,33.7,74.3,36.8,74.3,40.9z"/>
	<path class="st3" d="M61.7,77.4c1.7-0.8,3.4-1.5,5.1-2.2c0.2-0.1,0.6-0.1,0.8,0c1.5,0.7,3.1,1.4,4.6,2c-1.7,2.8-3.4,5.5-5,8.3
		C65.4,82.9,63.6,80.2,61.7,77.4z"/>
	<path class="st3" d="M65.1,32.6c0.6-1.2,1-2.4,1.6-3.4c1.6-2.5,2.7-5,1.7-8.1c1.1,0.8,1.3,2,1.6,3.2c0.7,2.7,0,5.3-1.3,7.7
		c-0.1,0.2-0.5,0.5-0.7,0.6C67.2,32.6,66.3,32.6,65.1,32.6z"/>
	<path class="st3" d="M71.7,33.5c1-0.3,2.1-0.8,3.2-1.1c2.8-0.6,5.4-1.7,7.1-4.3c-0.1,0.4-0.1,0.8-0.2,1.1c-1.2,3.7-4.1,5.5-7.5,6.7
		c-0.2,0.1-0.6-0.1-0.7-0.2C73,35,72.4,34.4,71.7,33.5z"/>
	<path class="st3" d="M79.9,55.9c-1.6-0.3-2.9-0.9-4-1.8c-1.9-1.5-3.1-3.5-3.8-5.7c-0.1-0.3,0.1-0.8,0.3-1c0.5-0.6,1.1-1.2,1.9-2
		c0.5,1.3,1,2.5,1.3,3.8c0.5,2.6,1.6,4.7,3.9,6.2C79.6,55.4,79.7,55.6,79.9,55.9z"/>
	<path class="st3" d="M58.7,42.8c-1.2-0.6-2.3-1.1-3.4-1.7c-1.8-1.1-3.6-2-5.8-1.9c-0.8,0-1.5,0.2-2.6,0.4c2-1.4,4-2.1,6.1-1.9
		c1.7,0.2,3.3,0.8,4.9,1.3c0.6,0.2,0.9,0.5,0.7,1.2C58.5,40.9,58.7,41.7,58.7,42.8z"/>
	<path class="st3" d="M59.7,36.2c-0.4-1.3-1-2.6-1.3-3.9c-0.5-2.6-1.7-4.8-4.1-6.3c0.3,0,0.7,0,1,0.1c3.6,1.2,5.6,4,6.7,7.5
		c0.1,0.2-0.1,0.6-0.2,0.8C61.2,34.9,60.6,35.5,59.7,36.2z"/>
	<path class="st3" d="M60,45.7c0.7,0.8,1.4,1.6,2.2,2.4c-0.8,0.3-1.8,0.9-2.8,1.1c-3,0.6-5.7,1.6-7.2,4.7
		C51.6,51.1,55.4,47.2,60,45.7z"/>
	<path class="st3" d="M75.4,38.9c0.9,0.4,1.7,0.6,2.5,1.1c2.6,1.6,5.3,3.2,8.6,2.2c0,0.2,0,0.3,0.1,0.5c-1.1,0.4-2.3,1-3.5,1.1
		c-2.5,0.4-4.9,0-7.2-1.2c-0.5-0.3-0.7-0.5-0.6-1.1C75.5,40.7,75.4,40,75.4,38.9z"/>
	<path class="st3" d="M68.9,49.3c-0.5,1-0.8,2.1-1.4,3c-2.3,3.8-2.4,4.2-1.8,8.3c-1.2-1.2-1.8-3-1.9-5.3c0-2,0.4-3.8,1.4-5.5
		c0.2-0.3,0.6-0.5,1-0.6C67,49.2,67.8,49.3,68.9,49.3z"/>
	<path class="st3" d="M63.5,32.9c-3.1-1.7-4.6-7.8-2.8-11.4c0,0.5,0.1,0.9,0.1,1.2c-0.2,2.5,0.9,4.4,2.6,5.9
		c0.8,0.7,1.2,1.3,0.6,2.4C63.7,31.5,63.7,32.2,63.5,32.9z"/>
	<path class="st3" d="M48,47.2c3.2,0.1,5.5-1.1,7.4-3.3c0.2-0.2,0.7-0.3,1-0.2c0.9,0.2,1.8,0.5,2.7,0.7C57.9,47.2,51.6,49,48,47.2z"
		/>
	<path class="st3" d="M70.7,48.7c2.7,2.1,4.9,8.1,2.8,10.9c0-0.7,0-1.3-0.1-1.9c-0.3-1.9-1.3-3.4-2.7-4.7c-0.8-0.7-1-1.4-0.6-2.3
		C70.3,50.1,70.5,49.4,70.7,48.7z"/>
	<path class="st3" d="M70.1,32.7c-0.3-4.3,2.3-8.6,5.7-9.7c-0.6,0.7-1.3,1.3-1.6,2.1c-0.5,1.3-1,2.6-1,4c0,1.5-0.4,2.5-1.9,3
		C71,32.2,70.6,32.5,70.1,32.7z"/>
	<path class="st3" d="M58.5,58.4c1.9-1.8,2.6-3.9,2.5-6.2c-0.1-1.1,0.2-1.9,1.3-2.2c0.6-0.2,1.1-0.6,1.7-0.9
		C64.6,52.7,61.5,58.1,58.5,58.4z"/>
	<path class="st3" d="M58.9,37.7c-2.8,1-8.1-1.8-9.6-5.2c0.3,0.1,0.6,0.1,0.7,0.3c1.6,1.5,3.6,2.1,5.7,2c1.2-0.1,2,0.3,2.4,1.5
		C58.3,36.8,58.6,37.2,58.9,37.7z"/>
	<path class="st3" d="M75,37.3c2.2-3.1,8-4.6,10.8-2.9c-0.9,0.1-1.8,0.1-2.6,0.4c-1.7,0.4-3,1.4-4.1,2.7c-0.5,0.6-1.1,0.8-1.9,0.5
		C76.5,37.6,75.7,37.5,75,37.3z"/>
	<path class="st3" d="M84.7,49.4c-1.9-2-4.2-2.7-6.8-2.6c-0.7,0-1.2-0.2-1.5-0.9s-0.7-1.3-1.1-2C78.1,42.9,84.7,46.5,84.7,49.4z"/>
	<path class="st3" d="M47.5,43.9c2.2,0.2,4.3,0,6.3-1.2c0.2-0.1,0.6,0,1,0.1C53.1,45.6,50.7,46,47.5,43.9z"/>
	<path class="st3" d="M78.9,25c-2,1.3-3.1,2.9-3.6,5c-0.1,0.3-0.5,0.5-0.9,0.8C73.8,27.4,75.8,24.8,78.9,25z"/>
	<path class="st3" d="M56.9,33.4c-3.4,0.7-5.4-0.9-6-4.3c0.1-0.1,0.2-0.2,0.3-0.3c0.1,0.2,0.2,0.5,0.3,0.7c1,1.6,2.6,2.6,4.4,3.1
		C56.3,32.8,56.6,33.1,56.9,33.4z"/>
	<path class="st3" d="M55.3,56.9c1.8-1.2,3.1-2.9,3.6-5.1c0.1-0.3,0.5-0.5,0.9-1C60.3,54.4,59.7,55.6,55.3,56.9z"/>
	<path class="st3" d="M64,21.3c0.1,1.2,0.1,2.5,0.2,3.8c0.1,1.2,1.4,2.1,0.9,3.5C62.4,26.9,62,23.6,64,21.3z"/>
	<path class="st3" d="M79.3,38.9c1.9-2.8,5.1-3.2,7.2-1.1c-2.3-0.4-4.2,0-6.1,1.1C80.2,39.1,79.8,38.9,79.3,38.9z"/>
	<path class="st3" d="M69,53.3c2.9,1.5,3.3,4.3,1.1,6.9C71,57.7,69.4,55.6,69,53.3z"/>
	<path class="st3" d="M77.1,48.1c3.5-0.4,5.4,1.1,5.9,4.3c-0.9-0.8-1.8-1.6-2.7-2.4C79.5,49.1,77.9,49.5,77.1,48.1z"/>
</g>
<g>
	<path class="st5" d="M84.7,73.4c-10.5,8.5-17.1,19.1-20.8,31.9c-3.7-12.8-10.3-23.4-20.7-31.8c2-1.5,3.8-3.1,5.8-4.5
		c6.7-4.6,14.2-7.4,22.1-9.2c5-1.2,10.1-2.2,14.8-4.4c2.9-1.4,5.5-3.2,7.4-5.9c3.2-4.4,3-8.7-0.8-12.6c-2.1-2.2-4.7-3.8-7.3-5.1
		c-0.2-0.1-0.4-0.2-0.6-0.4c4.4,0.5,8.5,1.6,12.1,4.2c2.4,1.8,4.1,4.1,4.9,7.1c1,4.1,0.2,7.8-2.7,10.9c-2.9,3.1-6.7,5.1-10.5,6.7
		c-5.3,2.3-10.8,3.5-16.4,4.8c-5.9,1.3-11.6,3.2-16.8,6.4c-0.9,0.6-1.8,1.3-2.8,2c5.3,5.2,8.5,11.5,11.7,18.1
		c3.1-6.5,6.3-12.9,11.7-18.2c-2.1-1.3-4-2.5-6.2-3.9c2.1-0.5,4.2-0.9,6.2-1.5c1.1-0.3,1.9-0.1,2.7,0.6
		C80.4,70.2,82.5,71.7,84.7,73.4z"/>
	<path class="st5" d="M43.3,31.3c-2.1,1.4-4.4,2.8-6.5,4.4c-1.2,0.9-2.2,2.1-3,3.3c-2,3-1.8,6.1,0,9.2c2.3,3.9,5.8,6.4,10,7.8
		c4.3,1.4,8.7,2.5,13.1,3.7c0.2,0.1,0.5,0.2,0.8,0.2c-2.4,1.2-4.8,2.5-7.2,3.6c-0.2,0.1-0.5,0.1-0.7,0.1C43.5,62,37.3,60,32,56.1
		c-2.7-2-5.1-4.3-5.7-7.8c-0.9-4.9,0.6-9.2,4.5-12.3c3.5-2.9,7.8-4.1,12.2-4.7C43.2,31.3,43.3,31.3,43.3,31.3z"/>
	<path class="st5" d="M71.4,37.9c0,4-3.3,7.3-7.3,7.3S56.9,42,56.8,38c0-4,3.1-7.2,7.2-7.2C68.2,30.8,71.4,33.9,71.4,37.9z"/>
	<path class="st5" d="M58.8,74.5c1.7-0.8,3.4-1.5,5.1-2.2c0.2-0.1,0.6-0.1,0.8,0c1.5,0.7,3.1,1.4,4.6,2c-1.7,2.8-3.4,5.5-5,8.3
		C62.5,80,60.7,77.3,58.8,74.5z"/>
	<path class="st5" d="M62.2,29.7c0.6-1.2,1-2.4,1.6-3.4c1.6-2.5,2.7-5,1.7-8.1c1.1,0.8,1.3,2,1.6,3.2c0.7,2.7,0,5.3-1.3,7.7
		c-0.1,0.2-0.5,0.5-0.7,0.6C64.3,29.7,63.4,29.7,62.2,29.7z"/>
	<path class="st5" d="M68.8,30.6c1-0.3,2.1-0.8,3.2-1.1c2.8-0.6,5.4-1.7,7.1-4.3C79,25.6,79,26,78.9,26.3c-1.2,3.7-4.1,5.5-7.5,6.7
		c-0.2,0.1-0.6-0.1-0.7-0.2C70.1,32.1,69.5,31.4,68.8,30.6z"/>
	<path class="st5" d="M77,53c-1.6-0.3-2.9-0.9-4-1.8c-1.9-1.5-3.1-3.5-3.8-5.7c-0.1-0.3,0.1-0.8,0.3-1c0.5-0.6,1.1-1.2,1.9-2
		c0.5,1.3,1,2.5,1.3,3.8c0.5,2.6,1.6,4.7,3.9,6.2C76.7,52.5,76.8,52.7,77,53z"/>
	<path class="st5" d="M55.7,39.9c-1.2-0.6-2.3-1.1-3.4-1.7c-1.8-1.1-3.6-2-5.8-1.9c-0.8,0-1.5,0.2-2.6,0.4c2-1.4,4-2.1,6.1-1.9
		c1.7,0.2,3.3,0.8,4.9,1.3c0.6,0.2,0.9,0.5,0.7,1.2C55.6,38,55.7,38.8,55.7,39.9z"/>
	<path class="st5" d="M56.8,33.3c-0.4-1.3-1-2.6-1.3-3.9c-0.5-2.6-1.7-4.8-4.1-6.3c0.3,0,0.7,0,1,0.1c3.6,1.2,5.6,4,6.7,7.5
		c0.1,0.2-0.1,0.6-0.2,0.8C58.3,32,57.7,32.6,56.8,33.3z"/>
	<path class="st5" d="M57.1,42.8c0.7,0.8,1.4,1.6,2.2,2.4c-0.8,0.3-1.8,0.9-2.8,1.1c-3,0.6-5.7,1.6-7.2,4.7
		C48.7,48.2,52.5,44.3,57.1,42.8z"/>
	<path class="st5" d="M72.5,36c0.9,0.4,1.7,0.6,2.5,1.1c2.6,1.6,5.3,3.2,8.6,2.2c0,0.2,0,0.3,0.1,0.5c-1.1,0.4-2.3,1-3.5,1.1
		c-2.5,0.4-4.9,0-7.2-1.2c-0.5-0.3-0.7-0.5-0.6-1.1C72.6,37.8,72.5,37,72.5,36z"/>
	<path class="st5" d="M66,46.4c-0.5,1-0.8,2.1-1.4,3c-2.3,3.8-2.4,4.2-1.8,8.3c-1.2-1.2-1.8-3-1.9-5.3c0-2,0.4-3.8,1.4-5.5
		c0.2-0.3,0.6-0.5,1-0.6C64.1,46.3,64.9,46.4,66,46.4z"/>
	<path class="st5" d="M60.6,30c-3.1-1.7-4.6-7.8-2.8-11.4c0,0.5,0.1,0.9,0.1,1.2c-0.2,2.5,0.9,4.4,2.6,5.9c0.8,0.7,1.2,1.3,0.6,2.4
		C60.8,28.6,60.8,29.3,60.6,30z"/>
	<path class="st5" d="M45.1,44.3c3.2,0.1,5.5-1.1,7.4-3.3c0.2-0.2,0.7-0.3,1-0.2c0.9,0.2,1.8,0.5,2.7,0.7
		C55,44.3,48.7,46.1,45.1,44.3z"/>
	<path class="st5" d="M67.8,45.8c2.7,2.1,4.9,8.1,2.8,10.9c0-0.7,0-1.3-0.1-1.9c-0.3-1.9-1.3-3.4-2.7-4.7c-0.8-0.7-1-1.4-0.6-2.3
		C67.4,47.2,67.6,46.5,67.8,45.8z"/>
	<path class="st5" d="M67.2,29.8c-0.3-4.3,2.3-8.6,5.7-9.7c-0.6,0.7-1.3,1.3-1.6,2.1c-0.5,1.3-1,2.6-1,4c0,1.5-0.4,2.5-1.9,3
		C68.1,29.3,67.7,29.6,67.2,29.8z"/>
	<path class="st5" d="M55.6,55.4c1.9-1.8,2.6-3.9,2.5-6.2c-0.1-1.1,0.2-1.9,1.3-2.2c0.6-0.2,1.1-0.6,1.7-0.9
		C61.7,49.8,58.6,55.2,55.6,55.4z"/>
	<path class="st5" d="M56,34.8c-2.8,1-8.1-1.8-9.6-5.2c0.3,0.1,0.6,0.1,0.7,0.3c1.6,1.5,3.6,2.1,5.7,2c1.2-0.1,2,0.3,2.4,1.5
		C55.4,33.9,55.7,34.3,56,34.8z"/>
	<path class="st5" d="M72.1,34.3c2.2-3.1,8-4.6,10.8-2.9c-0.9,0.1-1.8,0.1-2.6,0.4c-1.7,0.4-3,1.4-4.1,2.7c-0.5,0.6-1.1,0.8-1.9,0.5
		C73.6,34.7,72.8,34.6,72.1,34.3z"/>
	<path class="st5" d="M81.8,46.5c-1.9-2-4.2-2.7-6.8-2.6c-0.7,0-1.2-0.2-1.5-0.9s-0.7-1.3-1.1-2C75.1,40,81.7,43.6,81.8,46.5z"/>
	<path class="st5" d="M44.6,41c2.2,0.2,4.3,0,6.3-1.2c0.2-0.1,0.6,0,1,0.1C50.1,42.7,47.8,43.1,44.6,41z"/>
	<path class="st5" d="M76,22.1c-2,1.3-3.1,2.9-3.6,5c-0.1,0.3-0.5,0.5-0.9,0.8C70.9,24.5,72.9,21.9,76,22.1z"/>
	<path class="st5" d="M54,30.5c-3.4,0.7-5.4-0.9-6-4.3c0.1-0.1,0.2-0.2,0.3-0.3c0.1,0.2,0.2,0.5,0.3,0.7c1,1.6,2.6,2.6,4.4,3.1
		C53.4,29.8,53.7,30.2,54,30.5z"/>
	<path class="st5" d="M52.4,54c1.8-1.2,3.1-2.9,3.6-5.1c0.1-0.3,0.5-0.5,0.9-1C57.4,51.5,56.8,52.7,52.4,54z"/>
	<path class="st5" d="M61.1,18.4c0.1,1.2,0.1,2.5,0.2,3.8c0.1,1.2,1.4,2.1,0.9,3.5C59.5,24,59.1,20.7,61.1,18.4z"/>
	<path class="st5" d="M76.4,36c1.9-2.8,5.1-3.2,7.2-1.1c-2.3-0.4-4.2,0-6.1,1.1C77.3,36.2,76.9,36,76.4,36z"/>
	<path class="st5" d="M66.1,50.4c2.9,1.5,3.3,4.3,1.1,6.9C68.1,54.7,66.5,52.6,66.1,50.4z"/>
	<path class="st5" d="M74.2,45.1c3.5-0.4,5.4,1.1,5.9,4.3c-0.9-0.8-1.8-1.6-2.7-2.4C76.6,46.2,75,46.6,74.2,45.1z"/>
</g>
</svg>
