<?xml version="1.0" encoding="utf-8"?>
<!-- Generator: Adobe Illustrator 21.1.0, SVG Export Plug-In . SVG Version: 6.00 Build 0)  -->
<svg version="1.1" id="Layer_1" xmlns="http://www.w3.org/2000/svg" xmlns:xlink="http://www.w3.org/1999/xlink" x="0px" y="0px"
	 viewBox="0 0 128 128" style="enable-background:new 0 0 128 128;" xml:space="preserve">
<style type="text/css">
	.st0{fill:#818182;}
	.st1{fill:#939393;}
	.st2{fill:#BCBCBC;}
</style>
<g>
	<path class="st0" d="M64,128C28.7,128,0,99.3,0,64S28.7,0,64,0s64,28.7,64,64S99.3,128,64,128z"/>
</g>
<g>
	<path class="st1" d="M64,120.1c-32,0-58.1-26-58.1-58.1S32,4,64,4s58.1,26,58.1,58.1S96,120.1,64,120.1z"/>
	<path class="st2" d="M64,8c29.8,0,54.1,24.3,54.1,54.1c0,29.8-24.3,54.1-54.1,54.1c-29.8,0-54.1-24.3-54.1-54.1
		C9.9,32.3,34.2,8,64,8 M64,0L64,0C29.7,0,1.9,27.8,1.9,62.1v0c0,34.3,27.8,62.1,62.1,62.1h0c34.3,0,62.1-27.8,62.1-62.1v0
		C126.1,27.8,98.3,0,64,0L64,0z"/>
</g>
<g>
	<path class="st0" d="M13.6,65.6c0-29.8,24.2-54,54-54c13.9,0,26.6,5.3,36.2,13.9c-9.9-10.9-24.2-17.8-40-17.8
		c-29.8,0-54,24.2-54,54c0,15.9,6.9,30.1,17.8,40C18.8,92.2,13.6,79.5,13.6,65.6z"/>
</g>
<polygon class="st0" points="65.8,82 70.3,65 81,61.2 83.6,51.2 83.5,51 73.1,54.8 80.6,26.4 59.2,26.4 49.3,63.5 41.1,66.5 
	38.4,76.7 46.6,73.7 40.8,95.6 97.7,95.6 101.4,82 "/>
<polygon class="st2" points="63.2,79.3 67.7,62.4 78.3,58.5 80.9,48.5 80.8,48.3 70.4,52.1 77.9,23.7 56.5,23.7 46.7,60.8 
	38.4,63.8 35.7,74 43.9,71 38.1,92.9 95.1,92.9 98.7,79.3 "/>
</svg>
