<?xml version="1.0" encoding="utf-8"?>
<!-- Generator: Adobe Illustrator 21.1.0, SVG Export Plug-In . SVG Version: 6.00 Build 0)  -->
<svg version="1.1" id="Layer_1" xmlns="http://www.w3.org/2000/svg" xmlns:xlink="http://www.w3.org/1999/xlink" x="0px" y="0px"
	 viewBox="0 0 128 128" style="enable-background:new 0 0 128 128;" xml:space="preserve">
<style type="text/css">
	.st0{fill:#C64A27;}
	.st1{fill:#D35127;}
	.st2{fill:#F16924;}
</style>
<g>
	<path class="st0" d="M64,128C28.7,128,0,99.3,0,64S28.7,0,64,0s64,28.7,64,64S99.3,128,64,128z"/>
</g>
<g>
	<path class="st1" d="M64,120.1c-32,0-58.1-26-58.1-58.1S32,4,64,4s58.1,26,58.1,58.1S96,120.1,64,120.1z"/>
	<path class="st2" d="M64,8c29.8,0,54.1,24.3,54.1,54.1S93.8,116.2,64,116.2S9.9,91.9,9.9,62.1C9.9,32.3,34.2,8,64,8 M64,0L64,0
		C29.7,0,1.9,27.8,1.9,62.1l0,0c0,34.3,27.8,62.1,62.1,62.1l0,0c34.3,0,62.1-27.8,62.1-62.1l0,0C126.1,27.8,98.3,0,64,0L64,0z"/>
</g>
<g>
	<path class="st0" d="M13.2,66c0-29.9,24.4-54.3,54.3-54.3c14,0,26.8,5.3,36.4,14C94,14.8,79.6,7.8,63.6,7.8
		C33.7,7.8,9.3,32.2,9.3,62.1c0,16,6.9,30.3,17.9,40.3C18.5,92.8,13.2,80,13.2,66z"/>
</g>
<g>
	<path class="st0" d="M64,128C28.7,128,0,99.3,0,64S28.7,0,64,0s64,28.7,64,64S99.3,128,64,128z"/>
</g>
<g>
	<path class="st1" d="M64,120.1c-32,0-58.1-26-58.1-58.1S32,4,64,4s58.1,26,58.1,58.1S96,120.1,64,120.1z"/>
	<path class="st2" d="M64,8c29.8,0,54.1,24.3,54.1,54.1S93.8,116.2,64,116.2S9.9,91.9,9.9,62.1C9.9,32.3,34.2,8,64,8 M64,0L64,0
		C29.7,0,1.9,27.8,1.9,62.1l0,0c0,34.3,27.8,62.1,62.1,62.1l0,0c34.3,0,62.1-27.8,62.1-62.1l0,0C126.1,27.8,98.3,0,64,0L64,0z"/>
</g>
<g>
	<path class="st0" d="M13.6,65.6c0-29.7,24.2-54,54-54c13.9,0,26.6,5.3,36.2,13.9c-9.8-10.8-24.1-17.8-40-17.8
		c-29.7,0-54,24.2-54,54c0,15.9,6.9,30.1,17.8,40C18.8,92.3,13.6,79.5,13.6,65.6z"/>
</g>
<g>
	<g>
		<path class="st0" d="M67,70c-8.6-8.5-17-17-25.5-25.5c0,11,0,21.9,0,32.8c-0.3,0-0.5,0-0.7,0c-3.4,0-6.9,0-10.3,0
			c-0.5,0-0.7-0.1-0.9-0.6c-1.4-4.7-2-9.5-1.7-14.4c0.6-8.3,3.5-15.8,8.8-22.2c5.9-7.2,13.5-11.8,22.6-13.5
			C71.5,24.3,82.5,27.1,92,35c7.3,6,11.7,13.8,13.4,23.1c1.1,6.3,0.7,12.5-1.2,18.6c-0.2,0.5-0.4,0.7-0.9,0.7c-3.4,0-6.9,0-10.3,0
			c-0.2,0-0.4,0-0.7,0c0-10.9,0-21.8,0-32.7C83.9,53.1,75.5,61.5,67,70z"/>
	</g>
	<g>
		<path class="st0" d="M33.6,85.3c5.4,0,10.9,0,16.4,0c0-6.9,0-13.7,0-20.6c5.7,5.7,11.3,11.3,16.9,16.9c5.7-5.7,11.3-11.3,17-16.9
			c0,6.9,0,13.7,0,20.6c5.5,0,10.9,0,16.5,0c-3.2,5.2-7.3,9.4-12.3,12.6s-10.5,5.2-16.4,5.9C53.5,105.9,39.5,95.7,33.6,85.3z"/>
	</g>
</g>
<g>
	<path class="st2" d="M64.1,67.1c-8.6-8.5-17-17-25.5-25.5c0,11,0,21.9,0,32.8c-0.3,0-0.5,0-0.7,0c-3.4,0-6.9,0-10.3,0
		c-0.5,0-0.7-0.1-0.9-0.6c-1.4-4.7-2-9.5-1.7-14.4c0.6-8.3,3.5-15.8,8.8-22.2c5.9-7.2,13.5-11.8,22.6-13.5
		c12.2-2.3,23.2,0.5,32.7,8.4c7.3,6,11.7,13.8,13.4,23.1c1.1,6.3,0.7,12.5-1.2,18.6c-0.2,0.5-0.4,0.7-0.9,0.7c-3.4,0-6.9,0-10.3,0
		c-0.2,0-0.4,0-0.7,0c0-10.9,0-21.8,0-32.7C81,50.2,72.5,58.6,64.1,67.1z"/>
	<path class="st2" d="M30.6,82.4c5.4,0,10.9,0,16.4,0c0-6.9,0-13.7,0-20.6c5.7,5.6,11.3,11.2,17,16.9c5.7-5.7,11.3-11.3,17-16.9
		c0,6.9,0,13.7,0,20.6c5.5,0,10.9,0,16.5,0c-3.2,5.2-7.3,9.4-12.3,12.6s-10.5,5.2-16.4,5.9C50.6,103,36.6,92.8,30.6,82.4z"/>
</g>
</svg>
