<?xml version="1.0" encoding="utf-8"?>
<!-- Generator: Adobe Illustrator 21.1.0, SVG Export Plug-In . SVG Version: 6.00 Build 0)  -->
<svg version="1.1" id="Layer_1" xmlns="http://www.w3.org/2000/svg" xmlns:xlink="http://www.w3.org/1999/xlink" x="0px" y="0px"
	 viewBox="0 0 128 128" style="enable-background:new 0 0 128 128;" xml:space="preserve">
<style type="text/css">
	.st0{fill:#C64A27;}
	.st1{fill:#D35127;}
	.st2{fill:#F16924;}
	.st3{fill:#222323;}
	.st4{fill:#302F2F;}
	.st5{fill:#434543;}
	.st6{fill:#2DBCAF;}
	.st7{fill:#6CB2E2;}
	.st8{fill:#F5A81C;}
	.st9{fill:#444545;}
</style>
<g>
	<path class="st0" d="M64,128C28.7,128,0,99.3,0,64S28.7,0,64,0s64,28.7,64,64S99.3,128,64,128z"/>
</g>
<g>
	<path class="st1" d="M64,120.1c-32,0-58.1-26-58.1-58.1S32,4,64,4s58.1,26,58.1,58.1S96,120.1,64,120.1z"/>
	<path class="st2" d="M64,8c29.8,0,54.1,24.3,54.1,54.1S93.8,116.2,64,116.2S9.9,91.9,9.9,62.1S34.2,8,64,8 M64,0L64,0
		C29.7,0,1.9,27.8,1.9,62.1l0,0c0,34.3,27.8,62.1,62.1,62.1l0,0c34.3,0,62.1-27.8,62.1-62.1l0,0C126.1,27.8,98.3,0,64,0L64,0z"/>
</g>
<g>
	<path class="st3" d="M64,128C28.7,128,0,99.3,0,64S28.7,0,64,0s64,28.7,64,64S99.3,128,64,128z"/>
</g>
<g>
	<path class="st4" d="M64,120.1c-32,0-58.1-26-58.1-58.1S32,4,64,4s58.1,26,58.1,58.1S96,120.1,64,120.1z"/>
	<path class="st5" d="M64,8c29.8,0,54.1,24.3,54.1,54.1S93.8,116.2,64,116.2S9.9,91.9,9.9,62.1S34.2,8,64,8 M64,0L64,0
		C29.7,0,1.9,27.8,1.9,62.1l0,0c0,34.3,27.8,62.1,62.1,62.1l0,0c34.3,0,62.1-27.8,62.1-62.1l0,0C126.1,27.8,98.3,0,64,0L64,0z"/>
</g>
<g>
	<path class="st3" d="M13.6,65.6c0-29.7,24.2-54,54-54c13.9,0,26.6,5.3,36.2,13.9C94,14.7,79.7,7.7,63.8,7.7c-29.7,0-54,24.2-54,54
		c0,15.9,6.9,30.1,17.8,40C18.8,92.3,13.6,79.5,13.6,65.6z"/>
</g>
<path class="st6" d="M79,81c-0.3-4.8-2.2-9.1-6.3-11.9c-4.4-3-9.4-2.7-14.2-0.9c-5.4,2-12.7,3.5-18,0.6c-0.4-0.4-0.7-0.9-1.1-1.3
	c-1.1-1.2-3,0.6-1.8,1.8c0.3,0.4,0.6,0.7,0.9,1.1c0.1,0.1,0.1,0.2,0.2,0.3c-0.2,0.2-0.4,0.5-0.3,0.9c0.6,4.8,4.5,7.3,7.2,10.7
	c-0.2,0.4-0.2,0.8,0,1.2c1.8,3.1,4.1,5.9,6.6,8.4c2.3,2.4,4.9,5.4,7.9,6.9c2.8,1.5,5.2,0.6,7.4-1.3c1.2-1.1,2.4-2.3,3.6-3.5
	c0.2,0,0.5,0,0.8-0.1c2.3-1,4.4-2.3,5.2-4.9c0.1-0.2,0.1-0.4,0-0.6c0.1-0.2,0.3-0.3,0.4-0.5C79,85.8,79.2,83.5,79,81z"/>
<path class="st7" d="M95.4,47.2c-0.3-2.2-1.7-3.4-3.8-4c-1.6-0.4-3.3-0.6-4.9-1.2c-1.6-0.6-3.2-1.3-4.8-1.7
	c-2.6-0.7-5.3-0.6-7.6,0.8c-0.5,0.3-0.9,0.7-1.4,1h-0.1c-1.8,0.4-2.7,1.7-3.8,3.1l-0.1,0.1c-0.3,0.3-0.7,0.6-1,0.8
	c-0.4,0.3-0.6,0.8-0.6,1.2c-0.6,0.8-1.1,1.7-1.4,2.6c-0.6,2-0.7,4.4-0.9,6.5c-0.2,1.8-0.3,3.6,0.4,5.3c1.5,4,5.7,5.4,8.7,7.9
	c3.3,2.8,7.2,8.7,5.9,13.2c-0.1,0.4-0.1,0.7,0.1,0.9c-0.2,1.2,1.7,2.1,2.4,0.8c3.5-5.7,7.3-11.1,9.3-17.5c1-3.3,2-6.7,2.6-10.1
	C95,54,95.8,50.4,95.4,47.2z"/>
<path class="st8" d="M75,38.6c-1.8-2.6-6.8-1.6-9.5-1.5c-4,0.2-8,0.6-11.9,1.3c-4.4,0.8-8.8,1.8-13.1,3.2c-2.4,0.8-6.6,2.1-7.6,4.7
	c-0.4,1.1,0,2.6,0.2,3.8c0.3,2.2,0.6,4.4,1,6.5c0.6,3.3,1.6,6.7,3.9,9.2c4.7,5.2,13.5,4.7,19.2,1.6c0.2-0.1,0.4-0.3,0.5-0.5
	c4.6-1.3,6.2-8.2,7.1-12.2c0.7-3,0.8-6.1,1.9-8.9c0.6-1.4,1.4-2.7,2.7-3.6c1.4-1,3.2-1.2,4.8-1.7C75,40.3,75.5,39.3,75,38.6z"/>
<g>
	<g>
		<path class="st3" d="M99.5,44.6C89.2,39,78,36,66.1,35.8H66h-0.1c-1,0.1-2.1,0.2-3.1,0.3c-2.3,0.2-4.7,0.4-7,0.7
			c-7.9,1.1-15.7,3.8-23.1,7.9c-0.9,0.5-1.6,1.7-1.5,2.8v0.4c0.1,2.5,0.3,5.2,0.5,7.8c0.6,5.2,1.9,10.6,4.1,15.9
			c5.7,14.3,15.4,25.7,28.7,33.7c0.6,0.4,1.2,0.5,1.7,0.5c0.6,0,1.1-0.2,1.7-0.5c4.1-2.5,7.6-5.1,10.8-7.9
			c6.9-6.2,12.3-13.5,16.1-21.7c4.2-8.9,6.4-18.4,6.4-28.2C101.1,47.1,101.1,45.6,99.5,44.6z M74,92.9c-1.6,1.2-3.3,2.5-5,3.6
			c-1,0.8-2,1.5-3,2.2C57.4,93.4,50.6,86.4,45.7,78c-0.6-1-1.1-2.1-1.7-3.2c0.2,0.1,0.3,0.1,0.5,0.2c2,0.7,4.1,1.1,6.2,1.1
			c3.1,0,6.1-0.8,9.1-2.4c2.1-1.1,4.2-1.7,6.5-1.7l0,0c5.4,0,10.3,3.9,11.6,9.1c0.8,3.4,0.3,6.6-1.6,9.6
			C75.8,91.5,74.8,92.3,74,92.9z M70,42.7L70,42.7c-4.5,3.4-6.9,8.3-7.2,14.4c-0.2,5.4-2.5,9.1-7.1,11.3c-1.6,0.8-3.3,1.2-5.2,1.2
			l0,0c-4.8,0-9.2-2.8-11.1-7.1c-0.6-1.4-0.8-3.1-1-4.7c-0.2-1.8-0.4-3.6-0.5-5.4c-0.1-0.9-0.1-1.7-0.2-2.6
			c5.3-2.9,10.8-4.9,16.5-6.1c3.9-0.8,7.8-1.2,11.8-1.2C67.4,42.6,68.7,42.6,70,42.7z M75.6,68.2c-3.3-2-5.3-4.7-6.1-8.1
			c-1.2-5.1,1.4-10.8,6.1-13.3c1.9-1,3.9-1.5,5.8-1.5c1.4,0,2.9,0.3,4.3,0.8c2,0.8,4,1.7,6,2.7c0.8,0.4,1.7,0.8,2.5,1.2
			c-0.2,11.4-3.6,21.9-9.9,31.3C83.6,75.6,80.6,71.2,75.6,68.2z"/>
	</g>
</g>
<g>
	<path class="st9" d="M96.6,41.7C86.3,36,75.1,33,63.2,32.8h-0.1H63c-1,0.1-2.1,0.2-3.1,0.3c-2.3,0.2-4.7,0.4-7,0.7
		c-7.9,1.1-15.7,3.8-23.1,7.9c-0.9,0.5-1.6,1.7-1.5,2.8v0.4c0.1,2.5,0.3,5.2,0.5,7.8c0.6,5.2,1.9,10.6,4.1,15.9
		c5.7,14.3,15.4,25.7,28.7,33.7c0.6,0.4,1.2,0.5,1.7,0.5c0.6,0,1.1-0.2,1.7-0.5c4.1-2.5,7.6-5.1,10.8-7.9
		c6.9-6.2,12.3-13.5,16.1-21.7c4.2-8.9,6.4-18.4,6.4-28.2C98.2,44.1,98.2,42.7,96.6,41.7z M71.1,90c-1.6,1.2-3.3,2.5-5,3.6
		c-1,0.7-1.9,1.4-2.9,2.1C54.5,90.5,47.7,83.5,42.8,75c-0.6-1-1.1-2.1-1.7-3.2c0.2,0.1,0.3,0.1,0.5,0.2c2,0.7,4.1,1.1,6.2,1.1
		c3.1,0,6.1-0.8,9.1-2.4c2.1-1.1,4.2-1.7,6.5-1.7l0,0c5.4,0,10.3,3.9,11.6,9.1c0.8,3.4,0.3,6.6-1.6,9.6C72.9,88.6,71.9,89.4,71.1,90
		z M67.1,39.8L67.1,39.8c-4.5,3.4-6.9,8.3-7.2,14.4c-0.2,5.4-2.5,9.1-7.1,11.3c-1.6,0.8-3.3,1.2-5.2,1.2l0,0
		c-4.8,0-9.2-2.8-11.1-7.1c-0.6-1.4-0.8-3.1-1-4.7c-0.2-1.8-0.4-3.6-0.5-5.4c-0.1-0.9-0.1-1.7-0.2-2.6c5.3-2.9,10.8-4.9,16.5-6.1
		c3.9-0.8,7.8-1.2,11.8-1.2C64.5,39.7,65.8,39.7,67.1,39.8z M72.7,65.2c-3.3-2-5.3-4.7-6.1-8.1C65.4,52,68,46.3,72.7,43.8
		c1.9-1,3.9-1.5,5.8-1.5c1.4,0,2.9,0.3,4.3,0.8c2,0.8,4,1.7,6,2.7c0.8,0.4,1.7,0.8,2.5,1.2c-0.2,11.4-3.6,21.9-9.9,31.3
		C80.7,72.7,77.7,68.3,72.7,65.2z"/>
</g>
</svg>
