<?xml version="1.0" encoding="utf-8"?>
<!-- Generator: Adobe Illustrator 21.1.0, SVG Export Plug-In . SVG Version: 6.00 Build 0)  -->
<svg version="1.1" id="Layer_1" xmlns="http://www.w3.org/2000/svg" xmlns:xlink="http://www.w3.org/1999/xlink" x="0px" y="0px"
	 viewBox="0 0 128 128" style="enable-background:new 0 0 128 128;" xml:space="preserve">
<style type="text/css">
	.st0{fill:#C64A27;}
	.st1{fill:#D35127;}
	.st2{fill:#F16924;}
	.st3{fill:#9EA037;}
	.st4{fill:#B0B736;}
	.st5{fill:#CDDC2A;}
</style>
<g>
	<path class="st0" d="M64,128C28.7,128,0,99.3,0,64S28.7,0,64,0s64,28.7,64,64S99.3,128,64,128z"/>
</g>
<g>
	<path class="st1" d="M64,120.1c-32,0-58.1-26-58.1-58.1S32,4,64,4s58.1,26,58.1,58.1S96,120.1,64,120.1z"/>
	<path class="st2" d="M64,8c29.8,0,54.1,24.3,54.1,54.1S93.8,116.2,64,116.2S9.9,91.9,9.9,62.1C9.9,32.3,34.2,8,64,8 M64,0L64,0
		C29.7,0,1.9,27.8,1.9,62.1l0,0c0,34.3,27.8,62.1,62.1,62.1l0,0c34.3,0,62.1-27.8,62.1-62.1l0,0C126.1,27.8,98.3,0,64,0L64,0z"/>
</g>
<g>
	<path class="st3" d="M64,128C28.7,128,0,99.3,0,64S28.7,0,64,0s64,28.7,64,64S99.3,128,64,128z"/>
</g>
<g>
	<path class="st4" d="M64,120.1c-32,0-58.1-26-58.1-58.1S32,4,64,4s58.1,26,58.1,58.1S96,120.1,64,120.1z"/>
	<path class="st5" d="M64,8c29.8,0,54.1,24.3,54.1,54.1S93.8,116.2,64,116.2S9.9,91.9,9.9,62.1C9.9,32.3,34.2,8,64,8 M64,0L64,0
		C29.7,0,1.9,27.8,1.9,62.1l0,0c0,34.3,27.8,62.1,62.1,62.1l0,0c34.3,0,62.1-27.8,62.1-62.1l0,0C126.1,27.8,98.3,0,64,0L64,0z"/>
</g>
<g>
	<path class="st3" d="M13.6,65.6c0-29.7,24.2-54,54-54c13.9,0,26.6,5.3,36.2,13.9c-9.8-10.8-24.1-17.8-40-17.8
		c-29.7,0-54,24.2-54,54c0,15.9,6.9,30.1,17.8,40C18.8,92.3,13.6,79.5,13.6,65.6z"/>
</g>
<g>
	<g>
		<path class="st3" d="M66,74.8c0,4.6-3.7,8.3-8.4,8.5c-4.5,0.2-8.8-3.6-9.2-8.1c-0.1-0.8,0-1.6,0-2.4c0-6.4-2-8.5-8.4-8.5
			c-5.5-0.1-8.3-1.8-9.9-5.9c-1.4-3.6-0.5-6.8,2-9.3c2.4-2.5,5.6-3.1,9.1-2c3.6,1.2,5.4,3.9,5.8,7.5c0.1,0.7,0,1.4,0,2
			c0,6.6,2.3,8.9,8.9,9C62.4,65.7,66,69.1,66,74.8z"/>
	</g>
	<g>
		<path class="st3" d="M67.9,56.2c0.2-5.7,3.5-9.1,8.1-9.4c4.4-0.2,8.3,3.1,8.9,7.6c1.3,10.2,1.3,10.2,11.4,11.5
			c4.9,0.7,8.1,4.5,7.7,9.5c-0.3,4.4-4.3,7.9-8.7,7.8c-4.7-0.2-8.1-3.8-8.3-8.6c0-0.9,0-1.8,0-2.7c-0.2-4.9-2.9-7.6-7.9-7.7
			c-4,0-7.8-0.4-9.9-4.4C68.4,58.3,68.1,56.7,67.9,56.2z"/>
	</g>
	<g>
		<path class="st3" d="M85,74.6c0,3.9-2.9,7.5-6.7,8.2c-1.8,0.3-3.6,0.2-5.4,0.3C68.8,83.4,66.3,86,66,90c-0.1,1.7-0.1,3.4-0.3,5.1
			c-0.7,4.4-4.7,7.4-9,7c-4.5-0.4-8-4.2-7.9-8.6c0-4.4,3.4-8,7.8-8.4c0.4,0,0.9,0,1.4,0c7.9-0.2,10-2.3,10.1-10.2
			c0-6.4,5.3-10.4,11.2-8.5C82.7,67.5,85,70.8,85,74.6z"/>
	</g>
	<g>
		<path class="st3" d="M57.3,63.9c-4.6-0.1-8.2-3.4-8.6-8c-0.3-4.6,3-8.5,7.8-9.1c1.3-0.2,2.7,0,4.1-0.1c4.1-0.2,6.7-2.6,7.2-6.7
			c0.2-1.6,0-3.2,0.2-4.7c0.5-4.8,4.3-7.9,9.1-7.6c4.2,0.2,7.7,4,7.8,8.3c0.1,4.7-3.3,8.4-8.1,8.8c-0.8,0.1-1.6,0-2.4,0
			c-6,0.1-8.6,2.7-8.5,8.8C66,59.9,62.6,64,57.3,63.9z"/>
	</g>
</g>
<g>
	<path class="st5" d="M63.1,71.9c0,4.6-3.7,8.3-8.4,8.5c-4.5,0.2-8.8-3.6-9.2-8.1c-0.1-0.8,0-1.6,0-2.4c0-6.4-2-8.5-8.4-8.5
		c-5.5-0.1-8.3-1.8-9.9-5.9c-1.4-3.6-0.5-6.8,2-9.3c2.4-2.5,5.6-3.1,9.1-2c3.6,1.2,5.4,3.9,5.8,7.5c0.1,0.7,0,1.4,0,2
		c0,6.6,2.3,8.9,8.9,9C59.5,62.8,63.1,66.2,63.1,71.9z"/>
	<path class="st5" d="M65,53.2c0.2-5.7,3.5-9.1,8.1-9.4c4.4-0.2,8.3,3.1,8.9,7.6c1.3,10.2,1.3,10.2,11.4,11.5
		c4.9,0.7,8.1,4.5,7.7,9.5c-0.3,4.4-4.3,7.9-8.7,7.8c-4.7-0.2-8.1-3.8-8.3-8.6c0-0.9,0-1.8,0-2.7c-0.2-4.9-2.9-7.6-7.9-7.7
		c-4,0-7.8-0.4-9.9-4.4C65.5,55.4,65.2,53.8,65,53.2z"/>
	<path class="st5" d="M82.1,71.7c0,3.9-2.9,7.5-6.7,8.2c-1.8,0.3-3.6,0.2-5.4,0.3c-4.1,0.3-6.6,2.9-6.9,6.9
		c-0.1,1.7-0.1,3.4-0.3,5.1c-0.7,4.4-4.7,7.4-9,7c-4.5-0.4-8-4.2-7.9-8.6c0-4.4,3.4-8,7.8-8.4c0.4,0,0.9,0,1.4,0
		C62.9,82.1,65,79.9,65,72c0-6.4,5.3-10.4,11.2-8.5C79.8,64.6,82.1,67.9,82.1,71.7z"/>
	<path class="st5" d="M54.4,61c-4.6-0.1-8.2-3.4-8.6-8c-0.3-4.6,3-8.5,7.8-9.1c1.3-0.2,2.7,0,4.1-0.1c4.1-0.2,6.7-2.6,7.2-6.7
		c0.2-1.6,0-3.2,0.2-4.7c0.5-4.8,4.3-7.9,9.1-7.6c4.2,0.2,7.7,4,7.8,8.3c0.1,4.7-3.3,8.4-8.1,8.8c-0.8,0.1-1.6,0-2.4,0
		c-6,0.1-8.6,2.7-8.5,8.8C63.1,57,59.7,61.1,54.4,61z"/>
</g>
</svg>
