<?xml version="1.0" encoding="utf-8"?>
<!-- Generator: Adobe Illustrator 21.1.0, SVG Export Plug-In . SVG Version: 6.00 Build 0)  -->
<svg version="1.1" id="Layer_1" xmlns="http://www.w3.org/2000/svg" xmlns:xlink="http://www.w3.org/1999/xlink" x="0px" y="0px"
	 viewBox="0 0 128 128" style="enable-background:new 0 0 128 128;" xml:space="preserve">
<style type="text/css">
	.st0{fill:#C64A27;}
	.st1{fill:#D35127;}
	.st2{fill:#F16924;}
	.st3{fill:#13572E;}
	.st4{fill:#0B6936;}
	.st5{fill:#128442;}
</style>
<g>
	<path class="st0" d="M64,128C28.7,128,0,99.3,0,64S28.7,0,64,0s64,28.7,64,64S99.3,128,64,128z"/>
</g>
<g>
	<path class="st1" d="M64,120.1c-32,0-58.1-26-58.1-58.1S32,4,64,4s58.1,26,58.1,58.1S96,120.1,64,120.1z"/>
	<path class="st2" d="M64,8c29.8,0,54.1,24.3,54.1,54.1S93.8,116.2,64,116.2S9.9,91.9,9.9,62.1C9.9,32.3,34.2,8,64,8 M64,0L64,0
		C29.7,0,1.9,27.8,1.9,62.1l0,0c0,34.3,27.8,62.1,62.1,62.1l0,0c34.3,0,62.1-27.8,62.1-62.1l0,0C126.1,27.8,98.3,0,64,0L64,0z"/>
</g>
<g>
	<path class="st3" d="M64,128C28.7,128,0,99.3,0,64S28.7,0,64,0s64,28.7,64,64S99.3,128,64,128z"/>
</g>
<g>
	<path class="st4" d="M64,120.1c-32,0-58.1-26-58.1-58.1S32,4,64,4s58.1,26,58.1,58.1S96,120.1,64,120.1z"/>
	<path class="st5" d="M64,8c29.8,0,54.1,24.3,54.1,54.1S93.8,116.2,64,116.2S9.9,91.9,9.9,62.1C9.9,32.3,34.2,8,64,8 M64,0L64,0
		C29.7,0,1.9,27.8,1.9,62.1l0,0c0,34.3,27.8,62.1,62.1,62.1l0,0c34.3,0,62.1-27.8,62.1-62.1l0,0C126.1,27.8,98.3,0,64,0L64,0z"/>
</g>
<g>
	<path class="st3" d="M13.6,65.6c0-29.7,24.2-54,54-54c13.9,0,26.6,5.3,36.2,13.9c-9.8-10.8-24.1-17.8-40-17.8
		c-29.7,0-54,24.2-54,54c0,15.9,6.9,30.1,17.8,40C18.8,92.3,13.6,79.5,13.6,65.6z"/>
</g>
<g>
	<path class="st3" d="M55.1,43c-0.7,2.5-1.4,4.4-1.9,6.3c-3.3,11.9-6.5,23.9-9.8,35.8c-1,3.5-3.3,5.7-7.1,6.9
		c0.1-0.9,0.2-1.6,0.4-2.2c5-18.1,10-36.2,15.1-54.2c0.3-1,1.4-2.6,2.1-2.6c1.8,0,3.9-0.5,4.9,2.3C65,51.6,71.3,67.9,77.7,84.2
		c0.2,0.5,0.4,0.9,0.9,2c0.7-2.2,1.1-3.9,1.6-5.5C83.6,68.5,87,56.3,90.4,44c1-3.6,3.2-5.7,7.3-6.9c-0.4,1.6-0.6,2.7-0.9,3.8
		c-4.8,17.3-9.5,34.7-14.3,52c-0.4,1.3-0.1,3.3-2.5,3.1c-2.2-0.1-3.8-0.2-4.9-2.9c-6-15.7-12.2-31.2-18.4-46.8
		C56.2,45.4,55.8,44.5,55.1,43z"/>
	<path class="st3" d="M51.1,32.9c-0.8,2.9-1.5,5.4-2.2,7.9c-4.4,15.8-8.8,31.6-13.2,47.4c-1.2,4.2-1.2,4.2-5.8,3
		C33,79.8,36.2,68.4,39.3,57c1.6-5.7,3.1-11.3,4.7-17C45,36.6,47,34.2,51.1,32.9z"/>
	<path class="st3" d="M103.7,37.6c-2.9,10.5-5.7,20.7-8.5,31c-1.9,7-3.9,13.9-5.8,20.8c-0.9,3.1-2.8,5.2-6.6,6.4
		c1.5-5.6,2.9-10.6,4.2-15.7c3.6-12.9,7.1-25.8,10.7-38.8C98.9,37.1,98.9,37.1,103.7,37.6z"/>
</g>
<g>
	<path class="st5" d="M52.2,40.1c-0.7,2.5-1.4,4.4-1.9,6.3c-3.3,11.9-6.5,23.9-9.8,35.8c-1,3.5-3.3,5.7-7.1,6.9
		c0.1-0.9,0.2-1.6,0.4-2.2c5-18.1,10-36.2,15.1-54.2c0.3-1,1.4-2.6,2.1-2.6c1.8,0,3.9-0.5,4.9,2.3C62,48.7,68.4,64.9,74.7,81.2
		c0.2,0.5,0.4,0.9,0.9,2c0.7-2.2,1.1-3.9,1.6-5.5C80.6,65.5,84,53.3,87.4,41c1-3.6,3.2-5.7,7.3-6.9c-0.4,1.6-0.6,2.7-0.9,3.8
		c-4.8,17.3-9.5,34.7-14.3,52c-0.4,1.3-0.1,3.3-2.5,3.1c-2.2-0.1-3.8-0.2-4.9-2.9c-6-15.7-12.2-31.2-18.4-46.8
		C53.3,42.5,52.9,41.6,52.2,40.1z"/>
	<path class="st5" d="M48.2,30c-0.8,2.9-1.5,5.4-2.2,7.9c-4.4,15.8-8.8,31.6-13.2,47.4c-1.2,4.2-1.2,4.2-5.8,3
		c3.1-11.4,6.3-22.8,9.4-34.2c1.6-5.7,3.1-11.3,4.7-17C42.1,33.7,44.1,31.3,48.2,30z"/>
	<path class="st5" d="M100.8,34.7c-2.9,10.5-5.7,20.7-8.5,31c-1.9,7-3.9,13.9-5.8,20.8c-0.9,3.1-2.8,5.2-6.6,6.4
		c1.5-5.6,2.9-10.6,4.2-15.7c3.6-12.9,7.1-25.8,10.7-38.8C96,34.2,96,34.2,100.8,34.7z"/>
</g>
</svg>
