<?xml version="1.0" encoding="utf-8"?>
<!-- Generator: Adobe Illustrator 21.1.0, SVG Export Plug-In . SVG Version: 6.00 Build 0)  -->
<svg version="1.1" id="Layer_1" xmlns="http://www.w3.org/2000/svg" xmlns:xlink="http://www.w3.org/1999/xlink" x="0px" y="0px"
	 viewBox="0 0 128 128" style="enable-background:new 0 0 128 128;" xml:space="preserve">
<style type="text/css">
	.st0{fill:#C64A27;}
	.st1{fill:#D35127;}
	.st2{fill:#F16924;}
	.st3{fill:#208C6B;}
	.st4{fill:#2AA07F;}
	.st5{fill:#4EBE9D;}
</style>
<g>
	<path class="st0" d="M64,128C28.7,128,0,99.3,0,64S28.7,0,64,0s64,28.7,64,64S99.3,128,64,128z"/>
</g>
<g>
	<path class="st1" d="M64,120.1c-32,0-58.1-26-58.1-58.1S32,4,64,4s58.1,26,58.1,58.1S96,120.1,64,120.1z"/>
	<path class="st2" d="M64,8c29.8,0,54.1,24.3,54.1,54.1S93.8,116.2,64,116.2S9.9,91.9,9.9,62.1C9.9,32.3,34.2,8,64,8 M64,0L64,0
		C29.7,0,1.9,27.8,1.9,62.1l0,0c0,34.3,27.8,62.1,62.1,62.1l0,0c34.3,0,62.1-27.8,62.1-62.1l0,0C126.1,27.8,98.3,0,64,0L64,0z"/>
</g>
<g>
	<path class="st3" d="M64,128C28.7,128,0,99.3,0,64S28.7,0,64,0s64,28.7,64,64S99.3,128,64,128z"/>
</g>
<g>
	<path class="st4" d="M64,120.1c-32,0-58.1-26-58.1-58.1S32,4,64,4s58.1,26,58.1,58.1S96,120.1,64,120.1z"/>
	<path class="st5" d="M64,8c29.8,0,54.1,24.3,54.1,54.1S93.8,116.2,64,116.2S9.9,91.9,9.9,62.1C9.9,32.3,34.2,8,64,8 M64,0L64,0
		C29.7,0,1.9,27.8,1.9,62.1l0,0c0,34.3,27.8,62.1,62.1,62.1l0,0c34.3,0,62.1-27.8,62.1-62.1l0,0C126.1,27.8,98.3,0,64,0L64,0z"/>
</g>
<g>
	<path class="st3" d="M13.6,65.6c0-29.7,24.2-54,54-54c13.9,0,26.6,5.3,36.2,13.9c-9.8-10.8-24.1-17.8-40-17.8
		c-29.7,0-54,24.2-54,54c0,15.9,6.9,30.1,17.8,40C18.8,92.3,13.6,79.5,13.6,65.6z"/>
</g>
<g>
	<g>
		<path class="st3" d="M99.1,92.8c0,2.5-1.8,4.4-4.3,4.4c-5.9,0-11.8,0.1-17.7,0C66.6,97,57.7,88.7,56.5,78.1
			c-0.4-3.8,0.1-7.3,1.6-10.8c2.1-4.9,1.4-8.5-2.3-12.2c-3.9-3.9-7.9-7.9-11.8-11.8c-1.2-1.3-2.6-1.8-4.4-1.6
			c-2.7,0.3-5-1.7-5.1-4.4c-0.1-2.5,2-4.7,4.5-4.7c2.7,0,4.7,2.1,4.5,4.9c-0.1,1.9,0.5,3.4,1.8,4.7c3.9,3.8,7.8,7.7,11.6,11.6
			c3.7,3.7,7.4,4.4,12.2,2.4c12.6-5.4,27.2,2.3,29.4,15.8C99.3,75.8,99.1,89.8,99.1,92.8z M90.5,79.9L90.5,79.9c0-1.2,0-2.4,0-3.6
			c0.1-9.6-8.2-14.1-14.3-13.3c-6.3,0.8-11.3,6.1-11.3,12.5c0,6.6,4.7,12.2,11.1,12.8c3.6,0.3,7.3,0.2,10.9,0.2
			c2.1,0,3.5-1.5,3.6-3.6C90.6,83.3,90.5,81.6,90.5,79.9z"/>
	</g>
</g>
<g>
	<path class="st5" d="M96.2,89.9c0,2.5-1.8,4.4-4.3,4.4c-5.9,0-11.8,0.1-17.7,0C63.6,94,54.8,85.7,53.6,75.2
		c-0.4-3.8,0.1-7.3,1.6-10.8c2.1-4.9,1.4-8.5-2.3-12.2C49,48.3,45,44.3,41.1,40.4c-1.2-1.3-2.6-1.8-4.4-1.6c-2.7,0.3-5-1.7-5.1-4.4
		c-0.1-2.5,2-4.7,4.5-4.7c2.7,0,4.7,2.1,4.5,4.9c-0.1,1.9,0.5,3.4,1.8,4.7c3.9,3.8,7.8,7.7,11.6,11.6c3.7,3.7,7.4,4.4,12.2,2.4
		C79,47.8,93.6,55.6,95.7,69C96.4,72.9,96.2,86.9,96.2,89.9z M87.6,77L87.6,77c0-1.2,0-2.4,0-3.6c0.1-9.6-8.2-14.1-14.3-13.3
		C67,60.9,62,66.2,62,72.6c0,6.6,4.7,12.2,11.1,12.8c3.6,0.3,7.3,0.2,10.9,0.2c2.1,0,3.5-1.5,3.6-3.6C87.7,80.3,87.6,78.7,87.6,77z"
		/>
</g>
</svg>
