<?xml version="1.0" encoding="utf-8"?>
<!-- Generator: Adobe Illustrator 21.1.0, SVG Export Plug-In . SVG Version: 6.00 Build 0)  -->
<svg version="1.1" id="Layer_1" xmlns="http://www.w3.org/2000/svg" xmlns:xlink="http://www.w3.org/1999/xlink" x="0px" y="0px"
	 viewBox="0 0 128 128" style="enable-background:new 0 0 128 128;" xml:space="preserve">
<style type="text/css">
	.st0{fill:#C64A27;}
	.st1{fill:#D35127;}
	.st2{fill:#F16924;}
	.st3{fill:#124A84;}
	.st4{fill:#175399;}
	.st5{fill:#2469AD;}
</style>
<g>
	<path class="st0" d="M64,128C28.7,128,0,99.3,0,64S28.7,0,64,0s64,28.7,64,64S99.3,128,64,128z"/>
</g>
<g>
	<path class="st1" d="M64,120.1c-32,0-58.1-26-58.1-58.1S32,4,64,4s58.1,26,58.1,58.1S96,120.1,64,120.1z"/>
	<path class="st2" d="M64,8c29.8,0,54.1,24.3,54.1,54.1S93.8,116.2,64,116.2S9.9,91.9,9.9,62.1C9.9,32.3,34.2,8,64,8 M64,0L64,0
		C29.7,0,1.9,27.8,1.9,62.1l0,0c0,34.3,27.8,62.1,62.1,62.1l0,0c34.3,0,62.1-27.8,62.1-62.1l0,0C126.1,27.8,98.3,0,64,0L64,0z"/>
</g>
<g>
	<path class="st3" d="M64,128C28.7,128,0,99.3,0,64S28.7,0,64,0s64,28.7,64,64S99.3,128,64,128z"/>
</g>
<g>
	<path class="st4" d="M64,120.1c-32,0-58.1-26-58.1-58.1S32,4,64,4s58.1,26,58.1,58.1S96,120.1,64,120.1z"/>
	<path class="st5" d="M64,8c29.8,0,54.1,24.3,54.1,54.1S93.8,116.2,64,116.2S9.9,91.9,9.9,62.1C9.9,32.3,34.2,8,64,8 M64,0L64,0
		C29.7,0,1.9,27.8,1.9,62.1l0,0c0,34.3,27.8,62.1,62.1,62.1l0,0c34.3,0,62.1-27.8,62.1-62.1l0,0C126.1,27.8,98.3,0,64,0L64,0z"/>
</g>
<g>
	<path class="st3" d="M13.6,65.6c0-29.7,24.2-54,54-54c13.9,0,26.6,5.3,36.2,13.9c-9.8-10.8-24.1-17.8-40-17.8
		c-29.7,0-54,24.2-54,54c0,15.9,6.9,30.1,17.8,40C18.8,92.3,13.6,79.5,13.6,65.6z"/>
</g>
<g>
	<g>
		<path class="st3" d="M65,29.6c-0.2,1.9-0.4,3.4-0.6,5c-0.7,5.2-0.2,10.3,2.2,15.1c3.2,6.5,6.2,13,9.3,19.5c1.9,4,3.6,8.1,4.4,12.5
			c0.4,2.1,0.3,4-0.8,5.8c-3,5.3-7,9.7-11.7,13.6c-0.4,0.3-1.1,0.4-1.6,0.7c0-0.6-0.1-1.2,0.1-1.7c0.6-2.5,1.4-5,2-7.5
			c0.7-3.2,0.4-6.4-1-9.4c-2.5-5.5-5.1-10.9-7.6-16.4c-2.4-5.2-4.9-10.3-6.4-15.8c-0.8-2.9-1.4-5.8,0-8.6c2.4-5,6.2-8.9,10.7-12.1
			C64.1,30,64.4,29.9,65,29.6z"/>
	</g>
	<g>
		<path class="st3" d="M42.2,37.4c0,0.6,0,0.9,0,1.3c-0.4,3.2-0.9,6.4-0.2,9.6c0.3,1.4,0.7,2.7,1.3,4c2.5,5.4,5.2,10.8,7.6,16.3
			c1.4,3.1,2.4,6.4,3.4,9.6c0.5,1.5,0.3,3.1-0.6,4.6c-2.4,4.2-5.5,7.7-9.2,10.7c-0.3,0.3-0.8,0.4-1.2,0.7c-0.1,0-0.2-0.1-0.3-0.1
			c0.1-0.5,0.1-1,0.2-1.5c0.5-2,1.1-3.9,1.5-5.9c0.5-2.5,0.3-4.9-0.8-7.2c-2.3-5-4.6-10-6.9-14.9c-1.8-3.8-3.5-7.7-4.5-11.8
			c-0.6-2.4-0.2-4.6,1-6.7c1.9-3.2,4.4-5.8,7.3-7.9C41.3,37.8,41.7,37.7,42.2,37.4z"/>
	</g>
	<g>
		<path class="st3" d="M88.4,37.6c-0.1,1-0.2,2-0.3,2.9c-0.4,2.8-0.6,5.7,0.1,8.5c0.6,2.1,1.6,4.2,2.5,6.2c2.7,5.9,5.4,11.7,8,17.5
			c0.9,2,1.4,4.1,1.7,6.3c0.2,1,0,2.3-0.5,3.2c-2.3,4.5-5.6,8.1-9.6,11.3c-0.3,0.2-0.7,0.4-1.3,0.7c0.1-0.7,0.1-1.2,0.2-1.6
			c0.5-2.3,1.2-4.7,1.7-7c0.4-2.2,0-4.4-0.9-6.4c-2.3-5-4.7-10-7-15c-1.8-3.8-3.5-7.6-4.4-11.7c-0.5-2.4-0.1-4.6,1.2-6.7
			c1.9-3.1,4.3-5.6,7.2-7.8c0.3-0.2,0.7-0.4,1-0.6C88.2,37.5,88.3,37.6,88.4,37.6z"/>
	</g>
</g>
<g>
	<path class="st5" d="M62.1,26.7c-0.2,1.9-0.4,3.4-0.6,5c-0.7,5.2-0.2,10.3,2.2,15.1c3.2,6.5,6.2,13,9.3,19.5
		c1.9,4,3.6,8.1,4.4,12.5c0.4,2.1,0.3,4-0.8,5.8c-3,5.3-7,9.7-11.7,13.6c-0.4,0.3-1.1,0.4-1.6,0.7c0-0.6-0.1-1.2,0.1-1.7
		c0.6-2.5,1.4-5,2-7.5c0.7-3.2,0.4-6.4-1-9.4c-2.5-5.5-5.1-10.9-7.6-16.4c-2.4-5.2-4.9-10.3-6.4-15.8c-0.8-2.9-1.4-5.8,0-8.6
		c2.4-5,6.2-8.9,10.7-12.1C61.2,27,61.5,27,62.1,26.7z"/>
	<path class="st5" d="M39.3,34.5c0,0.6,0,0.9,0,1.3c-0.4,3.2-0.9,6.4-0.2,9.6c0.3,1.4,0.7,2.7,1.3,4c2.5,5.4,5.2,10.8,7.6,16.3
		c1.4,3.1,2.4,6.4,3.4,9.6c0.5,1.5,0.3,3.1-0.6,4.6c-2.4,4.2-5.5,7.7-9.2,10.7c-0.3,0.3-0.8,0.4-1.2,0.7c-0.1,0-0.2-0.1-0.3-0.1
		c0.1-0.5,0.1-1,0.2-1.5c0.5-2,1.1-3.9,1.5-5.9c0.5-2.5,0.3-4.9-0.8-7.2c-2.3-5-4.6-10-6.9-14.9c-1.8-3.8-3.5-7.7-4.5-11.8
		c-0.6-2.4-0.2-4.6,1-6.7c1.9-3.2,4.4-5.8,7.3-7.9C38.4,34.9,38.8,34.8,39.3,34.5z"/>
	<path class="st5" d="M85.4,34.7c-0.1,1-0.2,2-0.3,2.9c-0.4,2.8-0.6,5.7,0.1,8.5c0.6,2.1,1.6,4.2,2.5,6.2c2.7,5.9,5.4,11.7,8,17.5
		c0.9,2,1.4,4.1,1.7,6.3c0.2,1,0,2.3-0.5,3.2c-2.3,4.5-5.6,8.1-9.6,11.3C87,90.8,86.6,91,86,91.3c0.1-0.7,0.1-1.2,0.2-1.6
		c0.5-2.3,1.2-4.7,1.7-7c0.4-2.2,0-4.4-0.9-6.4c-2.3-5-4.7-10-7-15c-1.8-3.8-3.5-7.6-4.4-11.7c-0.5-2.4-0.1-4.6,1.2-6.7
		c1.9-3.1,4.3-5.6,7.2-7.8c0.3-0.2,0.7-0.4,1-0.6C85.2,34.6,85.3,34.7,85.4,34.7z"/>
</g>
</svg>
