<?xml version="1.0" encoding="utf-8"?>
<!-- Generator: Adobe Illustrator 21.1.0, SVG Export Plug-In . SVG Version: 6.00 Build 0)  -->
<svg version="1.1" id="Layer_1" xmlns="http://www.w3.org/2000/svg" xmlns:xlink="http://www.w3.org/1999/xlink" x="0px" y="0px"
	 viewBox="0 0 128 128" style="enable-background:new 0 0 128 128;" xml:space="preserve">
<style type="text/css">
	.st0{fill:#C64A27;}
	.st1{fill:#D35127;}
	.st2{fill:#F16924;}
	.st3{fill:#075D8D;}
	.st4{fill:#1269A4;}
	.st5{fill:#2A8AC7;}
	.st6{fill:none;stroke:#2A8AC7;stroke-width:4;stroke-linecap:round;stroke-linejoin:round;stroke-miterlimit:10;}
</style>
<g>
	<path class="st0" d="M64,128C28.7,128,0,99.3,0,64S28.7,0,64,0s64,28.7,64,64S99.3,128,64,128z"/>
</g>
<g>
	<path class="st1" d="M64,120.1c-32,0-58.1-26-58.1-58.1S32,4,64,4s58.1,26,58.1,58.1S96,120.1,64,120.1z"/>
	<path class="st2" d="M64,8c29.8,0,54.1,24.3,54.1,54.1S93.8,116.2,64,116.2S9.9,91.9,9.9,62.1C9.9,32.3,34.2,8,64,8 M64,0L64,0
		C29.7,0,1.9,27.8,1.9,62.1l0,0c0,34.3,27.8,62.1,62.1,62.1l0,0c34.3,0,62.1-27.8,62.1-62.1l0,0C126.1,27.8,98.3,0,64,0L64,0z"/>
</g>
<g>
	<path class="st3" d="M64,128C28.7,128,0,99.3,0,64S28.7,0,64,0s64,28.7,64,64S99.3,128,64,128z"/>
</g>
<g>
	<path class="st4" d="M64,120.1c-32,0-58.1-26-58.1-58.1S32,4,64,4s58.1,26,58.1,58.1S96,120.1,64,120.1z"/>
	<path class="st5" d="M64,8c29.8,0,54.1,24.3,54.1,54.1S93.8,116.2,64,116.2S9.9,91.9,9.9,62.1C9.9,32.3,34.2,8,64,8 M64,0L64,0
		C29.7,0,1.9,27.8,1.9,62.1l0,0c0,34.3,27.8,62.1,62.1,62.1l0,0c34.3,0,62.1-27.8,62.1-62.1l0,0C126.1,27.8,98.3,0,64,0L64,0z"/>
</g>
<g>
	<path class="st3" d="M13.6,65.6c0-29.7,24.2-54,54-54c13.9,0,26.6,5.3,36.2,13.9c-9.8-10.8-24.1-17.8-40-17.8
		c-29.7,0-54,24.2-54,54c0,15.9,6.9,30.1,17.8,40C18.8,92.3,13.6,79.5,13.6,65.6z"/>
</g>
<g>
	<g>
		<path class="st3" d="M103.4,62.7c-0.5-0.3-1.2-0.3-1.7,0.1L66.3,85.1L32.8,63.3v-6.2l33.1,21c0.6,0.4,1.3,0.4,1.8,0l35.6-22.6
			c0.5-0.3,0.8-0.9,0.8-1.4c0-0.6-0.3-1.1-0.8-1.5L67.8,29c-0.6-0.4-1.3-0.4-1.9,0L30.2,52.5c0,0,0,0-0.1,0l0,0l0,0
			c-0.3,0.2-0.5,0.5-0.6,0.9c0,0.1,0,0.2-0.1,0.3c0,0.1,0,0.2,0,0.2v10.2c0,0.6,0.3,1.1,0.8,1.4l35.2,22.9c0.6,0.4,1.3,0.4,1.9,0
			L101,67.2v6.2l-34.2,22L32,73.5c-0.8-0.5-1.9-0.3-2.4,0.5s-0.3,1.9,0.5,2.4l35.7,22.5c0.3,0.2,0.6,0.3,0.9,0.3s0.6-0.1,0.9-0.3
			l35.8-23c0.5-0.3,0.8-0.9,0.8-1.4V64.2C104.3,63.6,104,63,103.4,62.7z M66.9,32.5L99.4,54L66.9,74.5L34.3,53.9L66.9,32.5z"/>
	</g>
</g>
<polyline class="st6" points="28.5,72.3 64.2,94.9 100,71.9 100,61.6 63.7,84.5 28.5,61.6 28.5,51.4 64.3,74 99.9,51.4 64.3,27.8 
	28.5,51.4 "/>
</svg>
