<?xml version="1.0" encoding="utf-8"?>
<!-- Generator: Adobe Illustrator 21.1.0, SVG Export Plug-In . SVG Version: 6.00 Build 0)  -->
<svg version="1.1" id="Layer_1" xmlns="http://www.w3.org/2000/svg" xmlns:xlink="http://www.w3.org/1999/xlink" x="0px" y="0px"
	 viewBox="0 0 128 128" style="enable-background:new 0 0 128 128;" xml:space="preserve">
<style type="text/css">
	.st0{fill:#C64A27;}
	.st1{fill:#D35127;}
	.st2{fill:#F16924;}
	.st3{fill:#036B92;}
	.st4{fill:#0378AD;}
	.st5{fill:#1E97D4;}
</style>
<g>
	<path class="st0" d="M64,128C28.7,128,0,99.3,0,64S28.7,0,64,0s64,28.7,64,64S99.3,128,64,128z"/>
</g>
<g>
	<path class="st1" d="M64,120.1c-32,0-58.1-26-58.1-58.1S32,4,64,4s58.1,26,58.1,58.1S96,120.1,64,120.1z"/>
	<path class="st2" d="M64,8c29.8,0,54.1,24.3,54.1,54.1S93.8,116.2,64,116.2S9.9,91.9,9.9,62.1C9.9,32.3,34.2,8,64,8 M64,0L64,0
		C29.7,0,1.9,27.8,1.9,62.1l0,0c0,34.3,27.8,62.1,62.1,62.1l0,0c34.3,0,62.1-27.8,62.1-62.1l0,0C126.1,27.8,98.3,0,64,0L64,0z"/>
</g>
<g>
	<path class="st3" d="M64,128C28.7,128,0,99.3,0,64S28.7,0,64,0s64,28.7,64,64S99.3,128,64,128z"/>
</g>
<g>
	<path class="st4" d="M64,120.1c-32,0-58.1-26-58.1-58.1S32,4,64,4s58.1,26,58.1,58.1S96,120.1,64,120.1z"/>
	<path class="st5" d="M64,8c29.8,0,54.1,24.3,54.1,54.1S93.8,116.2,64,116.2S9.9,91.9,9.9,62.1C9.9,32.3,34.2,8,64,8 M64,0L64,0
		C29.7,0,1.9,27.8,1.9,62.1l0,0c0,34.3,27.8,62.1,62.1,62.1l0,0c34.3,0,62.1-27.8,62.1-62.1l0,0C126.1,27.8,98.3,0,64,0L64,0z"/>
</g>
<g>
	<path class="st3" d="M13.6,65.6c0-29.7,24.2-54,54-54c13.9,0,26.6,5.3,36.2,13.9c-9.8-10.8-24.1-17.8-40-17.8
		c-29.7,0-54,24.2-54,54c0,15.9,6.9,30.1,17.8,40C18.8,92.3,13.6,79.5,13.6,65.6z"/>
</g>
<g>
	<path class="st3" d="M29.4,91.7c0.6-2.6,1.2-5.1,1.9-7.6c2.9,0.3,4.4-1.4,5.2-3.9c1.3-4.3,2.5-8.5,3.9-13.2c-3.4,1.7-6.6,0.5-9.9,1
		c0.5-2.2,0.9-4.1,1.5-6c0.1-0.3,0.8-0.5,1.2-0.5c2.7,0,5.5,0,8.2,0c1-3.7,1.9-7.3,2.9-10.9c0.9-3.1,2.2-6,4-8.8
		c4.1-6.1,12-5.1,15.5,0.2c2.3,3.6,3.6,7.6,4.6,11.7c2.2,8.4,4.3,16.9,6.4,25.4c0.3,1.2,0.7,2.3,1.3,3.3c0.8,1.6,2.2,1.6,2.8,0
		c1.1-2.8,2-5.7,2.8-8.7c2.1-8.1,4-16.2,6.2-24.3c0.9-3.2,2.5-6.2,4.7-8.7c1.6-1.8,3.5-2.9,5.9-2.9c1.8-0.1,3.6,0,5.6,0
		c-0.6,2.6-1.2,5.1-1.9,7.6c-3.1-0.4-4.5,1.5-5.3,4c-1.3,4.2-2.5,8.5-3.7,13c3.4-1.5,6.6-0.5,9.9-0.9c-0.6,2.3-1.1,4.3-1.6,6.4
		c-3.2,0-6.2,0-9.4,0c-0.6,2.3-1.1,4.6-1.7,6.8c-1.2,4.6-2.5,9.3-5.5,13.2c-3.8,5-10.6,5.1-14.5,0.2c-2.4-3.1-3.7-6.7-4.7-10.4
		C63.4,69,61.2,60.2,59,51.4c-0.4-1.5-0.9-3-1.6-4.4c-0.2-0.5-1-1.1-1.5-1.2c-0.4,0-1.1,0.7-1.3,1.2c-1.1,3.3-2.2,6.6-3,9.9
		c-2,7.6-3.7,15.3-5.9,22.9c-0.8,2.7-2.4,5.3-3.8,7.8c-1.6,2.6-4.1,4-7.2,4.1C32.9,91.7,31.2,91.7,29.4,91.7z"/>
</g>
<g>
	<path class="st5" d="M26.5,88.8c0.6-2.6,1.2-5.1,1.9-7.6c2.9,0.3,4.4-1.4,5.2-3.9c1.3-4.3,2.5-8.5,3.9-13.2c-3.4,1.7-6.6,0.5-9.9,1
		c0.5-2.2,0.9-4.1,1.5-6c0.1-0.3,0.8-0.5,1.2-0.5c2.7,0,5.5,0,8.2,0c1-3.7,1.9-7.3,2.9-10.9c0.9-3.1,2.2-6,4-8.8
		c4.1-6.1,12-5.1,15.5,0.2c2.3,3.6,3.6,7.6,4.6,11.7c2.2,8.4,4.3,16.9,6.4,25.4c0.3,1.2,0.7,2.3,1.3,3.3c0.8,1.6,2.2,1.6,2.8,0
		c1.1-2.8,2-5.7,2.8-8.7c2.1-8.1,4-16.2,6.2-24.3c0.9-3.2,2.5-6.2,4.7-8.7c1.6-1.8,3.5-2.9,5.9-2.9c1.8-0.1,3.6,0,5.6,0
		c-0.6,2.6-1.2,5.1-1.9,7.6c-3.1-0.4-4.5,1.5-5.3,4c-1.3,4.2-2.5,8.5-3.7,13c3.4-1.5,6.6-0.5,9.9-0.9c-0.6,2.3-1.1,4.3-1.6,6.4
		c-3.2,0-6.2,0-9.4,0c-0.6,2.3-1.1,4.6-1.7,6.8C86.3,76.4,85,81.1,82,85c-3.8,5-10.6,5.1-14.5,0.2c-2.4-3.1-3.7-6.7-4.7-10.4
		C60.4,66,58.3,57.3,56,48.5c-0.4-1.5-0.9-3-1.6-4.4c-0.2-0.5-1-1.1-1.5-1.2c-0.4,0-1.1,0.7-1.3,1.2c-1.1,3.3-2.2,6.6-3,9.9
		c-2,7.6-3.7,15.3-5.9,22.9c-0.8,2.7-2.4,5.3-3.8,7.8c-1.6,2.6-4.1,4-7.2,4.1C30,88.8,28.3,88.8,26.5,88.8z"/>
</g>
</svg>
