<?xml version="1.0" encoding="utf-8"?>
<!-- Generator: Adobe Illustrator 21.1.0, SVG Export Plug-In . SVG Version: 6.00 Build 0)  -->
<svg version="1.1" id="Layer_1" xmlns="http://www.w3.org/2000/svg" xmlns:xlink="http://www.w3.org/1999/xlink" x="0px" y="0px"
	 viewBox="0 0 128 128" style="enable-background:new 0 0 128 128;" xml:space="preserve">
<style type="text/css">
	.st0{fill:#C64A27;}
	.st1{fill:#D35127;}
	.st2{fill:#F16924;}
	.st3{fill:#60184F;}
	.st4{fill:#7A2566;}
	.st5{fill:#9A3080;}
	.st6{fill:#9B2F80;}
</style>
<g>
	<path class="st0" d="M64,128C28.7,128,0,99.3,0,64S28.7,0,64,0s64,28.7,64,64S99.3,128,64,128z"/>
</g>
<g>
	<path class="st1" d="M64,120.1c-32,0-58.1-26-58.1-58.1S32,4,64,4s58.1,26,58.1,58.1S96,120.1,64,120.1z"/>
	<path class="st2" d="M64,8c29.8,0,54.1,24.3,54.1,54.1S93.8,116.2,64,116.2S9.9,91.9,9.9,62.1C9.9,32.3,34.2,8,64,8 M64,0L64,0
		C29.7,0,1.9,27.8,1.9,62.1l0,0c0,34.3,27.8,62.1,62.1,62.1l0,0c34.3,0,62.1-27.8,62.1-62.1l0,0C126.1,27.8,98.3,0,64,0L64,0z"/>
</g>
<g>
	<path class="st3" d="M64,128C28.7,128,0,99.3,0,64S28.7,0,64,0s64,28.7,64,64S99.3,128,64,128z"/>
</g>
<g>
	<path class="st4" d="M64,120.1c-32,0-58.1-26-58.1-58.1S32,4,64,4s58.1,26,58.1,58.1S96,120.1,64,120.1z"/>
	<path class="st5" d="M64,8c29.8,0,54.1,24.3,54.1,54.1S93.8,116.2,64,116.2S9.9,91.9,9.9,62.1C9.9,32.3,34.2,8,64,8 M64,0L64,0
		C29.7,0,1.9,27.8,1.9,62.1l0,0c0,34.3,27.8,62.1,62.1,62.1l0,0c34.3,0,62.1-27.8,62.1-62.1l0,0C126.1,27.8,98.3,0,64,0L64,0z"/>
</g>
<g>
	<path class="st3" d="M13.6,65.6c0-29.7,24.2-54,54-54c13.9,0,26.6,5.3,36.2,13.9c-9.8-10.8-24.1-17.8-40-17.8
		c-29.7,0-54,24.2-54,54c0,15.9,6.9,30.1,17.8,40C18.8,92.3,13.6,79.5,13.6,65.6z"/>
</g>
<g>
	<g>
		<g>
			<path class="st3" d="M35.7,39.3c2.5-1.4,5.3-2.1,8.3-2.4c3.1-0.2,6.3-0.1,9.4,0c1.1,0,2.2,0.1,3.3,0.1c1.3,0,2.5,0.1,3.8,0.1
				c2.1,0.1,4.2,0.2,6.3,0.1c2.6-0.1,4.2-1.5,4.8-4.2c0.4-1.7,0-3.1-1.2-4.3c-1.2-1.2-2.7-1.9-4.8-2.3c-1.2-0.2-2.5-0.3-3.8-0.3
				c-3.2,0-6.6,0.7-10.6,2c-3.6,1.2-6.9,3.2-10.3,6.1C39,35.7,37.3,37.4,35.7,39.3z"/>
		</g>
		<g>
			<path class="st3" d="M43.2,54.2c-3.3,0-6.1,0.6-8.6,1.9c-2.3,1.2-3.5,2.4-4.1,4.1c-2,5.4-2.6,10.9-1.8,16.3
				c1.5,9.8,6.5,17.4,14.8,22.5c9.8,6,20.1,6.5,30.8,1.6c0.8-0.4,1.6-0.8,2.4-1.3c-4.1-1.7-6.7-3.4-9.8-6.3c-0.1,0-0.2,0-0.2,0
				c-3.9,1.1-7.4,1.2-10.7,0.4c-9-2-14.9-7.6-17-16.1C36.8,68.7,39.3,61,46.3,55c0.2-0.2,0.4-0.4,0.7-0.6c-0.8-0.1-1.5-0.1-2.3-0.2
				C44.1,54.2,43.6,54.2,43.2,54.2z"/>
		</g>
		<g>
			<path class="st3" d="M99.6,75.1c-2.1,2.8-4,5.3-5.8,7.9c-0.9,1.3-1.2,2.6-1,3.9c0.3,1.5,1.1,2.6,2.2,3s2.3,0.3,3.4-0.5
				c1.3-0.9,2.4-1.9,3.1-2.9c3.9-5.2,5.9-11.2,6-17.7c0-2.5-0.1-5.3-0.5-8.4c-0.1,0.7-0.3,1.3-0.5,2
				C105.2,67.4,102.4,71.5,99.6,75.1z"/>
		</g>
		<g>
			<path class="st3" d="M64,55.9c1.4,0.6,2.7,1.3,4.1,1.9c1.1,0.5,2.3,0.7,3.5,0.9c-0.2-0.4-0.3-0.9-0.4-1.4
				c-0.2-1.4,0.2-2.8,1.1-3.8c0.9-1.2,2.4-1.9,4-1.9c1.4,0,2.7,0.5,3.7,1.5s1.5,2,1.6,3.2c2.9-2.1,4.9-5.4,5.4-9
				c0.6-4-0.7-7.8-3.6-10.5c-2.1-2-4.6-3.5-7.9-4.8c-0.1,4.1-2.9,8.6-8.3,9.2c-3.4,0.4-6.7,0.1-9.9-0.2c-0.5,0-1.1-0.1-1.6-0.1
				c-2.1-0.2-4.2-0.3-6.3-0.3s-4.2,0.2-6.3,0.6c-6.1,1.3-10.6,4-13.5,8.5c-1.9,2.9-3.1,6.4-3.4,10.6c1.2-2.7,3-4.9,5.6-6.5
				c3.4-2.1,7.4-3.1,12.4-3c5.4,0.1,10.8,1.3,16.5,3.7C61.8,54.9,62.9,55.4,64,55.9z"/>
		</g>
		<g>
			<path class="st3" d="M55.3,74c-1.8-0.7-2.7-2.1-2.6-4.1c0-2.4,1.7-4.2,4-4.2h0.2c0.4,0,0.9,0.1,1.3,0.2c1-2.4,2.6-4.5,4.9-6.4
				c-3.4-1.7-6.4-2.9-9.3-3.6c-0.1,0-0.2,0-0.3,0c-0.2,0-0.5,0-0.7,0.1c-7.6,3.5-11.8,12.6-9.5,20.8c1.4,4.8,4.5,8.6,8.9,10.9
				c3,1.6,6.2,2.2,9.5,2L55.3,74z"/>
		</g>
		<g>
			<g>
				<path class="st3" d="M102.7,46c-0.9-2.3-2.3-4.5-4-6.6c2.1,5,1.9,10.6-0.7,16.2c-1.3,2.8-3.1,5.5-5.5,8.1c0.2,0.7,0.1,1.3,0,1.7
					c-0.2,1-0.8,1.7-1.4,2.3l-0.2,2.6l1.4-1.1c0.6-3,2.8-3.5,4.1-3.5c1.7,0,3.1,0.9,3.8,2.3c0.4-0.7,0.8-1.3,1.1-2
					C104.9,59.4,105.4,52.6,102.7,46z"/>
			</g>
			<g>
				<path class="st3" d="M89.9,88.9c-0.2,0-0.4,0-0.6,0c-0.4,0-0.7,0-1-0.1c-1.1-0.2-2.2-0.2-3.4-0.3c-0.8-0.1-1.6-0.1-2.3-0.2
					c-1.1-0.1-2.2-0.2-3.7-0.2c-0.7,0-1.3,0-2,0c-0.5,0-1.1,0-1.6,0c-0.4,0-0.9,0-1.3,0.1c1.1,2.7,3.5,4.6,4.8,5.5
					c3.7,2.5,8.7,1.9,13.4-1.7C91.1,91.2,90.3,90.1,89.9,88.9L89.9,88.9z"/>
			</g>
		</g>
	</g>
	<g>
		<path class="st3" d="M56.8,68.6c-0.7,0-1.1,0.5-1.2,1.3c0,0.9,0.2,1.1,1,1.4c0.3,0.1,0.6,0.1,0.9,0.2c2,5,4,9.9,6.1,15.1
			c0.8-0.1,1.6-0.2,2.3-0.3c1.6-0.2,3.1-0.5,4.7-0.6s3.1-0.4,4.7-0.4c1.2,0,2.4,0,3.6,0c1.3,0,2.7,0,4,0.2c1.9,0.2,3.9,0.3,5.8,0.5
			c0.2,0,0.4,0,0.5,0c0.3,0,0.6,0,0.9,0c2-4.9,3.9-9.7,5.8-14.4c1.5-0.3,2-0.7,1.9-1.7c-0.1-0.7-0.6-1.3-1.3-1.3l0,0
			c-0.9,0-1.2,0.5-1.3,2.2c-2.5,1.9-5,3.9-7.6,6c0.2-3.6,0.5-7.1,0.7-10.5c1.4-0.9,1.7-1.5,1.2-2.3c-0.3-0.4-0.8-0.7-1.3-0.7
			c-0.2,0-0.4,0-0.6,0.2c-0.7,0.4-0.8,1.4-0.2,2.4c-1.9,3.2-3.5,6.6-5.6,9.8c-1.6-5.6-3.1-11.1-4.6-16.5c1.7-1.7,1.9-2.9,0.7-4.1
			c-0.4-0.4-1-0.6-1.6-0.6c-0.7,0-1.4,0.3-1.8,0.8c-0.9,1.1-0.6,2.7,0.9,3.9c-1.4,5.3-2.9,10.6-4.4,16c-1.8-3.2-3.5-6.3-5.2-9.3
			c0.7-1.1,0.7-1.9,0-2.4c-0.2-0.1-0.5-0.2-0.8-0.2c-0.5,0-0.9,0.2-1.1,0.6c-0.2,0.4-0.2,0.9-0.2,1.3c0,0.7,0.8,0.6,1.2,1
			c0.1,1.9,0.2,3.9,0.3,5.8c0,0.5,0.1,1,0.2,1.5c0.1,1,0.1,2,0,3.1c-2.5-2-5-3.9-7.4-5.9c0-0.3,0-0.6,0-0.8
			C58.2,69.1,57.7,68.6,56.8,68.6L56.8,68.6z"/>
	</g>
</g>
<g>
	<g>
		<path class="st6" d="M32.8,36.3c2.5-1.4,5.3-2.1,8.3-2.4c3.1-0.2,6.3-0.1,9.4,0c1.1,0,2.2,0.1,3.3,0.1c1.3,0,2.5,0.1,3.8,0.1
			c2.1,0.1,4.2,0.2,6.3,0.1c2.6-0.1,4.2-1.5,4.8-4.2c0.4-1.7,0-3.1-1.2-4.3c-1.2-1.2-2.7-1.9-4.8-2.3c-1.2-0.2-2.5-0.3-3.8-0.3
			c-3.2,0-6.6,0.7-10.6,2c-3.6,1.2-6.9,3.2-10.3,6.1C36.1,32.8,34.4,34.5,32.8,36.3z"/>
		<path class="st6" d="M40.3,51.3c-3.3,0-6.1,0.6-8.6,1.9c-2.3,1.2-3.5,2.4-4.1,4.1c-2,5.4-2.6,10.9-1.8,16.3
			c1.5,9.8,6.5,17.4,14.8,22.5c9.8,6,20.1,6.5,30.8,1.6c0.8-0.4,1.6-0.8,2.4-1.3c-4.1-1.7-6.7-3.4-9.8-6.3c-0.1,0-0.2,0-0.2,0
			c-3.9,1.1-7.4,1.2-10.7,0.4c-8.9-2.1-14.8-7.7-16.9-16.2C34,65.7,36.5,58,43.5,52c0.2-0.2,0.4-0.4,0.7-0.6
			c-0.8-0.1-1.5-0.1-2.3-0.2C41.2,51.3,40.7,51.3,40.3,51.3z"/>
		<path class="st6" d="M96.7,72.2c-2.1,2.8-4,5.3-5.8,7.9c-0.9,1.3-1.2,2.6-1,3.9c0.3,1.5,1.1,2.6,2.2,3s2.3,0.3,3.4-0.5
			c1.3-0.9,2.4-1.9,3.1-2.9c3.9-5.2,5.9-11.2,6-17.7c0-2.5-0.1-5.3-0.5-8.4c-0.1,0.7-0.3,1.3-0.5,2C102.3,64.5,99.5,68.5,96.7,72.2z
			"/>
		<path class="st6" d="M61,53c1.4,0.6,2.7,1.3,4.1,1.9c1.1,0.5,2.3,0.7,3.5,0.9c-0.2-0.4-0.3-0.9-0.4-1.4c-0.2-1.4,0.2-2.8,1.1-3.8
			c0.9-1.2,2.4-1.9,4-1.9c1.4,0,2.7,0.5,3.7,1.5s1.5,2,1.6,3.2c2.9-2.1,4.9-5.4,5.4-9c0.6-4-0.7-7.8-3.6-10.5
			c-2.1-2-4.6-3.5-7.9-4.8c-0.1,4.1-2.9,8.6-8.3,9.2c-3.4,0.4-6.7,0.1-9.9-0.2c-0.5,0-1.1-0.1-1.6-0.1c-2.1-0.2-4.2-0.3-6.3-0.3
			s-4.2,0.2-6.3,0.6c-6.1,1.3-10.6,4-13.5,8.5c-1.9,2.9-3.1,6.4-3.4,10.6c1.2-2.7,3-4.9,5.6-6.5c3.4-2.1,7.4-3.1,12.4-3
			c5.4,0.1,10.8,1.3,16.5,3.7C58.8,52,60,52.5,61,53z"/>
		<path class="st6" d="M52.4,71.1c-1.8-0.7-2.7-2.1-2.6-4.1c0-2.4,1.7-4.2,4-4.2H54c0.4,0,0.9,0.1,1.3,0.2c1-2.4,2.6-4.5,4.9-6.4
			c-3.4-1.7-6.4-2.9-9.3-3.6c-0.1,0-0.2,0-0.3,0c-0.2,0-0.5,0-0.7,0.1c-7.6,3.5-11.8,12.6-9.5,20.8c1.4,4.8,4.5,8.6,8.9,10.9
			c3,1.6,6.2,2.2,9.5,2L52.4,71.1z"/>
		<g>
			<path class="st6" d="M99.8,43.1c-0.9-2.3-2.3-4.5-4-6.6c2.1,5,1.9,10.6-0.7,16.2c-1.3,2.8-3.1,5.5-5.5,8.1c0.2,0.7,0.1,1.3,0,1.7
				c-0.2,1-0.8,1.7-1.4,2.3L88,67.4l1.4-1.1c0.6-3,2.8-3.5,4.1-3.5c1.7,0,3.1,0.9,3.8,2.3c0.4-0.7,0.8-1.3,1.1-2
				C102,56.5,102.4,49.7,99.8,43.1z"/>
			<path class="st6" d="M86.9,86c-0.2,0-0.4,0-0.6,0c-0.4,0-0.7,0-1-0.1c-1.1-0.2-2.2-0.2-3.4-0.3c-0.8-0.1-1.6-0.1-2.3-0.2
				c-1.1-0.1-2.2-0.2-3.7-0.2c-0.7,0-1.3,0-2,0c-0.5,0-1.1,0-1.6,0c-0.4,0-0.9,0-1.3,0.1c1.1,2.7,3.5,4.6,4.8,5.5
				c3.7,2.5,8.7,1.9,13.4-1.7C88.2,88.3,87.4,87.2,86.9,86C87,86,86.9,86,86.9,86z"/>
		</g>
	</g>
	<path class="st6" d="M53.9,65.7c-0.7,0-1.1,0.5-1.2,1.3c0,0.9,0.2,1.1,1,1.4c0.3,0.1,0.6,0.1,0.9,0.2c2,5,4,9.9,6.1,15.1
		c0.8-0.1,1.6-0.2,2.3-0.3c1.6-0.2,3.1-0.5,4.7-0.6s3.1-0.4,4.7-0.4c1.2,0,2.4,0,3.6,0c1.3,0,2.7,0,4,0.2c1.9,0.2,3.9,0.3,5.8,0.5
		c0.2,0,0.4,0,0.5,0c0.3,0,0.6,0,0.9,0c2-4.9,3.9-9.7,5.8-14.4c1.5-0.3,2-0.7,1.9-1.7c-0.1-0.7-0.6-1.3-1.3-1.3l0,0
		c-0.9,0-1.2,0.5-1.3,2.2c-2.5,1.9-5,3.9-7.6,6c0.2-3.6,0.5-7.1,0.7-10.5c1.4-0.9,1.7-1.5,1.2-2.3c-0.3-0.4-0.8-0.7-1.3-0.7
		c-0.2,0-0.4,0-0.6,0.2C84,61,83.9,62,84.5,63c-1.9,3.2-3.5,6.6-5.6,9.8c-1.6-5.6-3.1-11.1-4.6-16.5c1.7-1.7,1.9-2.9,0.7-4.1
		c-0.4-0.4-1-0.6-1.6-0.6c-0.7,0-1.4,0.3-1.8,0.8c-0.9,1.1-0.6,2.7,0.9,3.9c-1.4,5.3-2.9,10.6-4.4,16c-1.6-3.3-3.3-6.3-5-9.3
		c0.7-1.1,0.7-1.9,0-2.4c-0.2-0.1-0.5-0.2-0.8-0.2c-0.5,0-0.9,0.2-1.1,0.6C61,61.4,61,61.9,61,62.3c0,0.7,0.8,0.6,1.2,1
		c0.1,1.9,0.2,3.9,0.3,5.8c0,0.5,0.1,1,0.2,1.5c0.1,1,0.1,2,0,3.1c-2.5-2-5-3.9-7.4-5.9c0-0.3,0-0.6,0-0.8
		C55.3,66.2,54.8,65.7,53.9,65.7L53.9,65.7z"/>
</g>
</svg>
