<?xml version="1.0" encoding="utf-8"?>
<!-- Generator: Adobe Illustrator 21.1.0, SVG Export Plug-In . SVG Version: 6.00 Build 0)  -->
<svg version="1.1" id="Layer_1" xmlns="http://www.w3.org/2000/svg" xmlns:xlink="http://www.w3.org/1999/xlink" x="0px" y="0px"
	 viewBox="0 0 128 128" style="enable-background:new 0 0 128 128;" xml:space="preserve">
<style type="text/css">
	.st0{fill:#C64A27;}
	.st1{fill:#D35127;}
	.st2{fill:#F16924;}
	.st3{fill:#008CA3;}
	.st4{fill:#00A0BA;}
	.st5{fill:#40BBD3;}
</style>
<g>
	<path class="st0" d="M64,128C28.7,128,0,99.3,0,64S28.7,0,64,0s64,28.7,64,64S99.3,128,64,128z"/>
</g>
<g>
	<path class="st1" d="M64,120.1c-32,0-58.1-26-58.1-58.1S32,4,64,4s58.1,26,58.1,58.1S96,120.1,64,120.1z"/>
	<path class="st2" d="M64,8c29.8,0,54.1,24.3,54.1,54.1S93.8,116.2,64,116.2S9.9,91.9,9.9,62.1C9.9,32.3,34.2,8,64,8 M64,0L64,0
		C29.7,0,1.9,27.8,1.9,62.1l0,0c0,34.3,27.8,62.1,62.1,62.1l0,0c34.3,0,62.1-27.8,62.1-62.1l0,0C126.1,27.8,98.3,0,64,0L64,0z"/>
</g>
<g>
	<path class="st3" d="M64,128C28.7,128,0,99.3,0,64S28.7,0,64,0s64,28.7,64,64S99.3,128,64,128z"/>
</g>
<g>
	<path class="st4" d="M64,120.1c-32,0-58.1-26-58.1-58.1S32,4,64,4s58.1,26,58.1,58.1S96,120.1,64,120.1z"/>
	<path class="st5" d="M64,8c29.8,0,54.1,24.3,54.1,54.1S93.8,116.2,64,116.2S9.9,91.9,9.9,62.1C9.9,32.3,34.2,8,64,8 M64,0L64,0
		C29.7,0,1.9,27.8,1.9,62.1l0,0c0,34.3,27.8,62.1,62.1,62.1l0,0c34.3,0,62.1-27.8,62.1-62.1l0,0C126.1,27.8,98.3,0,64,0L64,0z"/>
</g>
<g>
	<path class="st3" d="M13.6,65.6c0-29.7,24.2-54,54-54c13.9,0,26.6,5.3,36.2,13.9c-9.8-10.8-24.1-17.8-40-17.8
		c-29.7,0-54,24.2-54,54c0,15.9,6.9,30.1,17.8,40C18.8,92.3,13.6,79.5,13.6,65.6z"/>
</g>
<g>
	<path class="st3" d="M46.5,57.8l4.1,3.8c1.2,1.1,3.1,1.1,4.3,0L63,54c2.3-2.1,5.7-2.1,7.9,0l8.2,7.6c1.2,1.1,3.1,1.1,4.3,0l4.1-3.8
		l6.1-6.1c1.2-1.2,1.2-3.1,0-4.3L73.3,27c-3.5-3.5-9.2-3.5-12.8,0L40.3,47.3c-1.2,1.2-1.2,3.1,0,4.3L46.5,57.8z"/>
	<path class="st3" d="M102.7,60.7l-5-4.7c-1.2-1.2-3.1-1.1-4.3,0l-8.2,7.6c-2.3,2.1-5.7,2.1-7.9,0L69.1,56c-1.2-1.1-3.1-1.1-4.3,0
		l-8.2,7.6c-2.3,2.1-5.7,2.1-7.9,0L40.5,56c-1.2-1.1-3.1-1.1-4.3,0l-4.6,4.3c-4.2,3.9-8.6,5.7-2.9,11.5l31.8,31.9
		c3.5,3.5,9.2,3.5,12.8,0l31.8-31.9C110.7,66.2,106.8,64.6,102.7,60.7z"/>
</g>
<g>
	<path class="st5" d="M43.5,54.8l4.1,3.8c1.2,1.1,3.1,1.1,4.3,0l8.2-7.6c2.3-2.1,5.7-2.1,7.9,0l8.2,7.6c1.2,1.1,3.1,1.1,4.3,0
		l4.1-3.8l6.1-6.1c1.2-1.2,1.2-3.1,0-4.3L70.4,24.1c-3.5-3.5-9.2-3.5-12.8,0L37.4,44.4c-1.2,1.2-1.2,3.1,0,4.3L43.5,54.8z"/>
	<path class="st5" d="M99.8,57.8l-5-4.7c-1.2-1.2-3.1-1.1-4.3,0l-8.2,7.6c-2.3,2.1-5.7,2.1-7.9,0l-8.2-7.6c-1.2-1.1-3.1-1.1-4.3,0
		l-8.2,7.6c-2.3,2.1-5.7,2.1-7.9,0l-8.2-7.6c-1.2-1.1-3.1-1.1-4.3,0l-4.6,4.3c-4.2,3.9-8.6,5.7-2.9,11.5l31.8,31.9
		c3.5,3.5,9.2,3.5,12.8,0l31.8-31.9C107.7,63.3,103.9,61.7,99.8,57.8z"/>
</g>
</svg>
