<?xml version="1.0" encoding="utf-8"?>
<!-- Generator: Adobe Illustrator 21.1.0, SVG Export Plug-In . SVG Version: 6.00 Build 0)  -->
<svg version="1.1" id="Layer_1" xmlns="http://www.w3.org/2000/svg" xmlns:xlink="http://www.w3.org/1999/xlink" x="0px" y="0px"
	 viewBox="0 0 128 128" style="enable-background:new 0 0 128 128;" xml:space="preserve">
<style type="text/css">
	.st0{fill:#C64A27;}
	.st1{fill:#D35127;}
	.st2{fill:#F16924;}
	.st3{fill:#7D6035;}
	.st4{fill:#896C3C;}
	.st5{fill:#A07F53;}
</style>
<g>
	<path class="st0" d="M64,128C28.7,128,0,99.3,0,64S28.7,0,64,0s64,28.7,64,64S99.3,128,64,128z"/>
</g>
<g>
	<path class="st1" d="M64,120.1c-32,0-58.1-26-58.1-58.1S32,4,64,4s58.1,26,58.1,58.1S96,120.1,64,120.1z"/>
	<path class="st2" d="M64,8c29.8,0,54.1,24.3,54.1,54.1S93.8,116.2,64,116.2S9.9,91.9,9.9,62.1C9.9,32.3,34.2,8,64,8 M64,0L64,0
		C29.7,0,1.9,27.8,1.9,62.1l0,0c0,34.3,27.8,62.1,62.1,62.1l0,0c34.3,0,62.1-27.8,62.1-62.1l0,0C126.1,27.8,98.3,0,64,0L64,0z"/>
</g>
<g>
	<path class="st3" d="M64,128C28.7,128,0,99.3,0,64S28.7,0,64,0s64,28.7,64,64S99.3,128,64,128z"/>
</g>
<g>
	<path class="st4" d="M64,120.1c-32,0-58.1-26-58.1-58.1S32,4,64,4s58.1,26,58.1,58.1S96,120.1,64,120.1z"/>
	<path class="st5" d="M64,8c29.8,0,54.1,24.3,54.1,54.1S93.8,116.2,64,116.2S9.9,91.9,9.9,62.1C9.9,32.3,34.2,8,64,8 M64,0L64,0
		C29.7,0,1.9,27.8,1.9,62.1l0,0c0,34.3,27.8,62.1,62.1,62.1l0,0c34.3,0,62.1-27.8,62.1-62.1l0,0C126.1,27.8,98.3,0,64,0L64,0z"/>
</g>
<g>
	<path class="st3" d="M13.6,65.6c0-29.7,24.2-54,54-54c13.9,0,26.6,5.3,36.2,13.9c-9.8-10.8-24.1-17.8-40-17.8
		c-29.7,0-54,24.2-54,54c0,15.9,6.9,30.1,17.8,40C18.8,92.3,13.6,79.5,13.6,65.6z"/>
</g>
<g>
	<path class="st3" d="M33.6,92.2c1.7,0,3.3,0,5,0c0-5,0-10,0-15.1c1.6,0,3.1,0,4.7,0c0-1.3,0-2.6,0-4c2.2,0,4.4,0,6.6,0
		c0.3-1.2-0.1-2.4,0.1-3.6c2.1,0,4.2,0,6.3,0c0-0.5,0-1,0-1.6c-1.5-0.6-3-1.2-4.5-1.8V66c0.6-0.2,1.2-0.5,1.7-0.7
		c0.9-0.3,1.7-0.7,2.6-1c0.1,0,0.2-0.2,0.2-0.3c0-0.5,0-1,0-1.5c-2.1,0-4.2,0-6.4,0c0-1.2,0-2.4,0-3.6c-2.2,0-4.4,0-6.6,0
		c0-1.3,0-2.6,0-3.9c-1.6,0-3.1,0-4.7,0c0-0.2,0-0.3,0-0.5c0-4.7,0-9.4,0-14.2c0-0.5,0-0.5-0.5-0.5c-1.4,0-2.8,0-4.2,0
		c-0.1,0-0.2,0-0.3,0c0-0.6,0-1.1,0-1.7c6.7,0,13.4,0,20.1,0c0,0.6,0,1.1,0,1.7c-2.9,0-5.7,0-8.6,0c0,4.1,0,8.2,0,12.3
		c1.5,0,3.1,0,4.7,0c0,0.2,0,0.3,0,0.5c0,0.9,0,1.8,0,2.7c0,0.5,0,0.5,0.5,0.5c1.9,0,3.8,0,5.7,0c0.1,0,0.3,0,0.4,0
		c0,0.6,0,1.2,0,1.8c2.4,0,4.7,0,7.1,0c-0.3-0.9-1.3-2.1-2.3-2c0.1,0.1,0.1,0.1,0.1,0.2c0.3,0.4,0.3,0.8,0,1.2
		c-0.4,0.4-1.3,0.4-1.6,0c-0.7-1-0.2-1.7,0.6-2c1.1-0.4,1.9,0,2.7,0.7c0.5,0.5,0.8,1.1,1.1,1.7c0,0,0.1,0.1,0.1,0.2
		c0.8-2.2,1.7-4.3,2.5-6.4h0.1c0.9,2.1,1.7,4.3,2.6,6.5c0.3-0.5,0.6-1,0.9-1.5c0.5-0.8,1.3-1.2,2.2-1.3c0.7,0,1.4,0.2,1.8,0.9
		c0,0.1,0.1,0.1,0.1,0.2c0.1,0.5-0.3,1.1-0.8,1.3s-1.1,0-1.3-0.5c-0.2-0.3-0.1-0.6,0.1-0.9c0,0,0.1-0.1,0.1-0.2
		c-0.9-0.1-1.9,0.8-2.2,2c2.3,0,4.6,0,6.9,0c0-0.6,0-1.2,0-1.8c2.2,0,4.4,0,6.6,0c0-1.2,0-2.4,0-3.6c1.6,0,3.2,0,4.8,0
		c0-0.2,0-0.3,0-0.4c0-3.8,0-7.7,0-11.5c0-0.4,0-0.4-0.4-0.4c-2.5,0-5,0-7.5,0c-0.2,0-0.4,0-0.6,0c0-0.6,0-1.2,0-1.7
		c6.7,0,13.4,0,20.1,0c0,0.6,0,1.1,0,1.7c-1.7,0-3.3,0-5,0c0,5.1,0,10.1,0,15.1c-1.6,0-3.1,0-4.7,0c0,1.3,0,2.6,0,3.9
		c-2.2,0-4.4,0-6.6,0c0,1.2,0,2.4,0,3.6c-2.2,0-4.3,0-6.5,0c0,0.6,0,1.1,0,1.6c0,0.1,0.1,0.2,0.2,0.2c1.3,0.5,2.7,1,4,1.6
		c0.1,0.1,0.2,0.1,0.4,0.3c-1.5,0.6-3.1,1.2-4.6,1.8c0,0.4,0,0.7,0,1.1c0,0.3,0.1,0.4,0.4,0.4c1.9,0,3.7,0,5.6,0c0.2,0,0.3,0,0.5,0
		c0,1.2,0,2.4,0,3.6c2.2,0,4.4,0,6.6,0c0,1.3,0,2.6,0,3.9c1.6,0,3.1,0,4.7,0c0,5.1,0,10.1,0,15.1c1.7,0,3.4,0,5.1,0
		c0,0.6,0,1.1,0,1.7c0,0.1-0.1,0.2-0.2,0.2s-0.2,0-0.3,0c-2.1,0-4.3,0-6.4,0c-4.2,0-8.4,0-12.6-0.1c-0.6,0-0.7-0.1-0.7-0.7
		c0-0.3,0-0.7,0-1.1c2.9,0,5.7,0,8.5,0c0-4.1,0-8.2,0-12.3c-0.2,0-0.4,0-0.5,0c-1.3,0-2.5,0-3.8,0c-0.5,0-0.5,0-0.5-0.5
		c0-1,0-2.1,0-3.1c-2.2,0-4.4,0-6.6,0c0-0.4,0-0.8,0-1.2c0-0.5,0-0.5-0.5-0.5c-2,0-3.9,0-5.9,0c-0.2,0-0.3,0-0.5,0
		c0.1,0.9,1.3,2.2,2.3,2.1c0-0.1,0-0.1-0.1-0.1c-0.4-0.4-0.4-0.7-0.2-1.1c0.3-0.4,0.8-0.6,1.2-0.4c0.4,0.1,0.6,0.4,0.8,0.7
		c0.2,0.4,0,1-0.5,1.3c-0.8,0.5-1.9,0.4-2.7-0.3c-0.6-0.5-1.1-1.2-1.5-2c-0.9,2.2-1.8,4.4-2.6,6.7h-0.1c-0.9-2.2-1.7-4.4-2.6-6.6
		c-0.2,0-0.3,0.1-0.3,0.2c-0.4,1-1.1,1.7-2,2s-1.9,0.3-2.5-0.8c-0.1-0.1-0.1-0.4,0-0.6c0.2-0.6,0.9-1,1.5-0.8
		c0.6,0.1,0.8,0.9,0.4,1.4c-0.1,0.1-0.1,0.1-0.2,0.2c0.6,0.4,2-0.9,2.3-2.1c-0.1,0-0.3,0-0.4,0c-2.1,0-4.1,0-6.2,0
		c-0.4,0-0.4,0-0.4,0.4s0,0.8,0,1.3c-2.2,0-4.4,0-6.7,0c0,0.2,0,0.3,0,0.4c0,0.9,0,1.8,0,2.7c0,0.5,0,0.5-0.5,0.5
		c-1.3,0-2.5,0-3.8,0c-0.2,0-0.3,0-0.5,0c0,0.2,0,0.4,0,0.5c0,3.6,0,7.1,0,10.7c0,0.2-0.1,0.4-0.1,0.7c0,0.2,0.1,0.3,0.1,0.5
		c0.2,0,0.4,0,0.6,0c2.5,0,5,0,7.6,0c0.5,0,0.5,0,0.5,0.5c0,0.4,0,0.9,0,1.3c-0.3,0-0.4,0-0.6,0c-6.3,0-12.5,0-18.8,0
		c-0.2,0-0.5,0.1-0.7,0c-0.1-0.1-0.1-0.4-0.1-0.6s0-0.4,0-0.6C33.5,92.6,33.5,92.4,33.6,92.2z M69.8,67.9c0.5-0.5,1-1,1.5-1.5
		c0.4,0.3,0.9,0.6,1.3,1s0.6,0.8,0.9,1.3c0.4-0.3,0.8-0.7,1.2-1c-0.3-0.3-0.6-0.6-0.9-0.8c-0.3-0.2-0.7-0.4-1-0.6
		c0.9-0.2,1.6-0.1,2.2,0.5c0.6-0.3,1.2-0.5,1.7-0.7c-0.5-0.2-1-0.5-1.5-0.7c-0.1,0-0.3,0-0.4,0.1c-0.6,0.6-1.3,0.5-2.1,0.4
		c0.8-0.4,1.5-0.7,2-1.5c-0.4-0.3-0.8-0.7-1.2-1c-0.6,1.5-1.5,2-2.3,2.3c-0.5-0.4-0.9-0.9-1.3-1.3c0.3-0.7,0.6-1.3,0.8-2
		c0,0,0,0-0.1-0.1c-0.2,0.1-0.5,0.2-0.7,0.3c-0.3,0.1-0.7,0.3-1,0.4c-0.2,0.1-0.3,0-0.4-0.1c-0.5-0.5-1-1-1.5-1.5
		c-0.1,0.1-0.2,0.1-0.3,0.2c-0.4,0.4-0.9,0.9-1.3,1.3c-0.2,0.2-0.3,0.3-0.6,0.1c-0.6-0.3-1.1-0.5-1.8-0.8c0.3,0.8,0.6,1.4,0.9,2
		c-0.5,0.5-0.9,1-1.4,1.5c-0.4-0.3-0.9-0.6-1.2-1c-0.4-0.4-0.6-0.9-0.9-1.3c-0.4,0.3-0.8,0.7-1.2,1c0.3,0.3,0.6,0.6,0.9,0.8
		c0.3,0.2,0.7,0.4,1,0.6c-1,0.1-1.2,0.1-2.3-0.5c-0.2,0.1-0.4,0.2-0.6,0.3c-0.2,0.1-0.4,0.2-0.6,0.2c-0.2,0.1-0.4,0-0.5,0.2
		c0.6,0.3,1.2,0.5,1.7,0.8c0.3-0.2,0.7-0.4,1-0.5c0.4-0.1,0.8-0.1,1.2-0.1v0.1c-0.7,0.4-1.5,0.7-1.9,1.5c0.4,0.3,0.8,0.7,1.3,1
		c0.4-1.1,1.2-1.8,2.2-2.3c0.4,0.4,0.8,0.7,1.1,1.1c0.1,0.1,0.1,0.3,0.1,0.4c-0.2,0.4-0.4,0.9-0.6,1.3c-0.1,0.2-0.1,0.3-0.2,0.5
		c0,0,0.1,0,0.1,0.1c0.4-0.2,0.8-0.3,1.2-0.5c0.9-0.4,0.9-0.4,1.5,0.3c0.3,0.4,0.7,0.7,1.1,1.1c0.6-0.6,1.1-1.3,1.7-1.9
		c0.7,0.3,1.4,0.6,2,0.9c0,0,0,0,0.1-0.1C70.4,69.2,70.1,68.6,69.8,67.9z"/>
</g>
<g>
	<path class="st5" d="M30.6,89.3c1.7,0,3.3,0,5,0c0-5,0-10,0-15.1c1.6,0,3.1,0,4.7,0c0-1.3,0-2.6,0-4c2.2,0,4.4,0,6.6,0
		c0.3-1.2-0.1-2.4,0.1-3.6c2.1,0,4.2,0,6.3,0c0-0.5,0-1,0-1.6c-1.5-0.6-3-1.2-4.5-1.8v-0.1c0.6-0.2,1.2-0.5,1.7-0.7
		c0.9-0.3,1.7-0.7,2.6-1c0.1,0,0.2-0.2,0.2-0.3c0-0.5,0-1,0-1.5c-2.1,0-4.2,0-6.4,0c0-1.2,0-2.4,0-3.6c-2.2,0-4.4,0-6.6,0
		c0-1.3,0-2.6,0-3.9c-1.6,0-3.1,0-4.7,0c0-0.2,0-0.3,0-0.5c0-4.7,0-9.4,0-14.2c0-0.5,0-0.5-0.5-0.5c-1.4,0-2.8,0-4.2,0
		c-0.1,0-0.2,0-0.3,0c0-0.6,0-1.1,0-1.7c6.7,0,13.4,0,20.1,0c0,0.6,0,1.1,0,1.7c-2.9,0-5.7,0-8.6,0c0,4.1,0,8.2,0,12.3
		c1.5,0,3.1,0,4.7,0c0,0.2,0,0.3,0,0.5c0,0.9,0,1.8,0,2.7c0,0.5,0,0.5,0.5,0.5c1.9,0,3.8,0,5.7,0c0.1,0,0.3,0,0.4,0
		c0,0.6,0,1.2,0,1.8c2.4,0,4.7,0,7.1,0c-0.3-0.9-1.3-2.1-2.3-2c0.1,0.1,0.1,0.1,0.1,0.2c0.3,0.4,0.3,0.8,0,1.2
		c-0.4,0.4-1.3,0.4-1.6,0c-0.7-0.8-0.2-1.5,0.6-1.9c1.1-0.4,1.9,0,2.7,0.7c0.5,0.5,0.8,1.1,1.1,1.7c0,0,0.1,0.1,0.1,0.2
		c0.8-2.2,1.7-4.3,2.5-6.4h0.1c0.9,2.1,1.7,4.3,2.6,6.5c0.3-0.5,0.6-1,0.9-1.5c0.5-0.8,1.3-1.2,2.2-1.3c0.7,0,1.4,0.2,1.8,0.9
		c0,0.1,0.1,0.1,0.1,0.2c0.1,0.5-0.3,1.1-0.8,1.3s-1.1,0-1.3-0.5c-0.2-0.3-0.1-0.6,0.1-0.9c0,0,0.1-0.1,0.1-0.2
		c-0.9-0.1-1.9,0.8-2.2,2c2.3,0,4.6,0,6.9,0c0-0.6,0-1.2,0-1.8c2.2,0,4.4,0,6.6,0c0-1.2,0-2.4,0-3.6c1.6,0,3.2,0,4.8,0
		c0-0.2,0-0.3,0-0.4c0-3.8,0-7.7,0-11.5c0-0.4,0-0.4-0.4-0.4c-2.5,0-5,0-7.5,0c-0.2,0-0.4,0-0.6,0c0-0.6,0-1.2,0-1.7
		c6.7,0,13.4,0,20.1,0c0,0.6,0,1.1,0,1.7c-1.7,0-3.3,0-5,0c0,5.1,0,10.1,0,15.1c-1.6,0-3.1,0-4.7,0c0,1.3,0,2.6,0,3.9
		c-2.2,0-4.4,0-6.6,0c0,1.2,0,2.4,0,3.6c-2.2,0-4.3,0-6.5,0c0,0.6,0,1.1,0,1.6c0,0.1,0.1,0.2,0.2,0.2c1.3,0.5,2.7,1,4,1.6
		c0.1,0.1,0.2,0.1,0.4,0.3c-1.5,0.6-3.1,1.2-4.6,1.8c0,0.4,0,0.7,0,1.1c0,0.3,0.1,0.4,0.4,0.4c1.9,0,3.7,0,5.6,0c0.2,0,0.3,0,0.5,0
		c0,1.2,0,2.4,0,3.6c2.2,0,4.4,0,6.6,0c0,1.3,0,2.6,0,3.9c1.6,0,3.1,0,4.7,0c0,5.1,0,10.1,0,15.1c1.7,0,3.4,0,5.1,0
		c0,0.6,0,1.1,0,1.7c0,0.1-0.1,0.2-0.2,0.2s-0.2,0-0.3,0c-2.1,0-4.3,0-6.4,0c-4.2,0-8.4,0-12.6-0.1c-0.6,0-0.7-0.1-0.7-0.7
		c0-0.3,0-0.7,0-1.1c2.9,0,5.7,0,8.5,0c0-4.1,0-8.2,0-12.3c-0.2,0-0.4,0-0.5,0c-1.3,0-2.5,0-3.8,0c-0.5,0-0.5,0-0.5-0.5
		c0-1,0-2.1,0-3.1c-2.2,0-4.4,0-6.6,0c0-0.4,0-0.8,0-1.2c0-0.5,0-0.5-0.5-0.5c-2,0-3.9,0-5.9,0c-0.2,0-0.3,0-0.5,0
		c0.1,0.9,1.3,2.2,2.3,2.1c0-0.1,0-0.1-0.1-0.1c-0.4-0.4-0.4-0.7-0.2-1.1c0.3-0.4,0.8-0.6,1.2-0.4c0.4,0.1,0.6,0.4,0.8,0.7
		c0.2,0.4,0,1-0.5,1.3c-0.8,0.5-1.9,0.4-2.7-0.3c-0.6-0.5-1.1-1.2-1.5-2c-0.9,2.2-1.8,4.4-2.6,6.7h-0.1c-0.9-2.2-1.7-4.4-2.6-6.6
		c-0.1,0.2-0.2,0.3-0.3,0.4c-0.4,1-1.1,1.7-2,2s-1.9,0.3-2.5-0.8c-0.1-0.1-0.1-0.4,0-0.6c0.2-0.6,0.9-1,1.5-0.8
		c0.6,0.1,0.8,0.9,0.4,1.4c-0.1,0.1-0.1,0.1-0.2,0.2c0.6,0.4,2-0.9,2.3-2.1c-0.1,0-0.3,0-0.4,0c-2.1,0-4.1,0-6.2,0
		c-0.4,0-0.4,0-0.4,0.4s0,0.8,0,1.3c-2.2,0-4.4,0-6.7,0c0,0.2,0,0.3,0,0.4c0,0.9,0,1.8,0,2.7c0,0.5,0,0.5-0.5,0.5
		c-1.3,0-2.5,0-3.8,0c-0.2,0-0.3,0-0.5,0c0,0.2,0,0.4,0,0.5c0,3.6,0,7.1,0,10.7c0,0.2-0.1,0.4-0.1,0.7c0,0.2,0.1,0.3,0.1,0.5
		c0.2,0,0.4,0,0.6,0c2.5,0,5,0,7.6,0c0.5,0,0.5,0,0.5,0.5c0,0.4,0,0.9,0,1.3c-0.3,0-0.4,0-0.6,0c-6.3,0-12.5,0-18.8,0
		c-0.2,0-0.5,0.1-0.7,0c-0.1-0.1-0.1-0.4-0.1-0.6s0-0.4,0-0.6C30.6,89.7,30.6,89.5,30.6,89.3z M66.9,65c0.5-0.5,1-1,1.5-1.5
		c0.4,0.3,0.9,0.6,1.3,1s0.6,0.8,0.9,1.3c0.4-0.3,0.8-0.7,1.2-1c-0.3-0.3-0.6-0.6-0.9-0.8c-0.3-0.2-0.7-0.4-1-0.6
		c0.9-0.2,1.6-0.1,2.2,0.5c0.6-0.3,1.2-0.5,1.7-0.7c-0.5-0.2-1-0.5-1.5-0.7c-0.1,0-0.3,0-0.4,0.1c-0.6,0.6-1.3,0.5-2.1,0.4
		c0.8-0.4,1.5-0.7,2-1.5c-0.4-0.3-0.8-0.7-1.2-1c-0.6,1.5-1.5,2-2.3,2.3c-0.5-0.4-0.9-0.9-1.3-1.3c0.3-0.7,0.6-1.3,0.8-2
		c0,0,0,0-0.1-0.1c-0.2,0.1-0.5,0.2-0.7,0.3c-0.3,0.1-0.7,0.3-1,0.4c-0.2,0.1-0.3,0-0.4-0.1c-0.5-0.5-1-1-1.5-1.5
		c-0.1,0.1-0.2,0.1-0.3,0.2c-0.4,0.4-0.9,0.9-1.3,1.3c-0.2,0.2-0.3,0.3-0.6,0.1c-0.6-0.3-1.1-0.5-1.8-0.8c0.3,0.8,0.6,1.4,0.9,2
		c-0.5,0.5-0.9,1-1.4,1.5c-0.4-0.3-0.9-0.6-1.2-1c-0.4-0.4-0.6-0.9-0.9-1.3c-0.4,0.3-0.8,0.7-1.2,1c0.3,0.3,0.6,0.6,0.9,0.8
		c0.3,0.2,0.7,0.4,1,0.6c-1,0.1-1.2,0.1-2.3-0.5c-0.2,0.1-0.4,0.2-0.6,0.3c-0.2,0.1-0.4,0.2-0.6,0.2c-0.2,0.1-0.4,0-0.5,0.2
		c0.6,0.3,1.2,0.5,1.7,0.8c0.3-0.2,0.7-0.4,1-0.5c0.4-0.1,0.8-0.1,1.2-0.1v0.1c-0.7,0.4-1.5,0.7-1.9,1.5c0.4,0.3,0.8,0.7,1.3,1
		c0.4-1.1,1.2-1.8,2.2-2.3c0.4,0.4,0.8,0.7,1.1,1.1c0.1,0.1,0.1,0.3,0.1,0.4c-0.2,0.4-0.4,0.9-0.6,1.3c-0.1,0.2-0.1,0.3-0.2,0.5
		c0,0,0.1,0,0.1,0.1c0.4-0.2,0.8-0.3,1.2-0.5c0.9-0.4,0.9-0.4,1.5,0.3c0.3,0.4,0.7,0.7,1.1,1.1c0.6-0.6,1.1-1.3,1.7-1.9
		c0.7,0.3,1.4,0.6,2,0.9c0,0,0,0,0.1-0.1C67.5,66.3,67.2,65.7,66.9,65z"/>
</g>
</svg>
