<?xml version="1.0" encoding="utf-8"?>
<!-- Generator: Adobe Illustrator 21.1.0, SVG Export Plug-In . SVG Version: 6.00 Build 0)  -->
<svg version="1.1" id="Layer_1" xmlns="http://www.w3.org/2000/svg" xmlns:xlink="http://www.w3.org/1999/xlink" x="0px" y="0px"
	 viewBox="0 0 128 128" style="enable-background:new 0 0 128 128;" xml:space="preserve">
<style type="text/css">
	.st0{fill:#C64A27;}
	.st1{fill:#D35127;}
	.st2{fill:#F16924;}
	.st3{fill:#AD722A;}
	.st4{fill:#C98B2B;}
	.st5{fill:#EBB240;}
</style>
<g>
	<path class="st0" d="M64,128C28.7,128,0,99.3,0,64S28.7,0,64,0s64,28.7,64,64S99.3,128,64,128z"/>
</g>
<g>
	<path class="st1" d="M64,120.1c-32,0-58.1-26-58.1-58.1S32,4,64,4s58.1,26,58.1,58.1S96,120.1,64,120.1z"/>
	<path class="st2" d="M64,8c29.8,0,54.1,24.3,54.1,54.1S93.8,116.2,64,116.2S9.9,91.9,9.9,62.1C9.9,32.3,34.2,8,64,8 M64,0L64,0
		C29.7,0,1.9,27.8,1.9,62.1l0,0c0,34.3,27.8,62.1,62.1,62.1l0,0c34.3,0,62.1-27.8,62.1-62.1l0,0C126.1,27.8,98.3,0,64,0L64,0z"/>
</g>
<g>
	<path class="st3" d="M64,128C28.7,128,0,99.3,0,64S28.7,0,64,0s64,28.7,64,64S99.3,128,64,128z"/>
</g>
<g>
	<path class="st4" d="M64,120.1c-32,0-58.1-26-58.1-58.1S32,4,64,4s58.1,26,58.1,58.1S96,120.1,64,120.1z"/>
	<path class="st5" d="M64,8c29.8,0,54.1,24.3,54.1,54.1S93.8,116.2,64,116.2S9.9,91.9,9.9,62.1C9.9,32.3,34.2,8,64,8 M64,0L64,0
		C29.7,0,1.9,27.8,1.9,62.1l0,0c0,34.3,27.8,62.1,62.1,62.1l0,0c34.3,0,62.1-27.8,62.1-62.1l0,0C126.1,27.8,98.3,0,64,0L64,0z"/>
</g>
<g>
	<path class="st3" d="M13.6,65.6c0-29.7,24.2-54,54-54c13.9,0,26.6,5.3,36.2,13.9c-9.8-10.8-24.1-17.8-40-17.8
		c-29.7,0-54,24.2-54,54c0,15.9,6.9,30.1,17.8,40C18.8,92.3,13.6,79.5,13.6,65.6z"/>
</g>
<g>
	<g>
		<path class="st3" d="M59.7,34.4c0-3.9,0-7.4,0-11.1c4.6,0,9.1,0,13.9,0c0,3.6,0,7.2,0,11c5.7,0,11.1,0,16.9,0
			C90,39.6,92,44.7,87.9,49.7c-8,9.8-15.4,20.1-23,30.2c-0.1,0.1-0.1,0.3-0.2,0.8c8.9,0,17.7,0,26.7,0c0,5.2,0,10,0,15.2
			c-5.8,0-11.6,0-17.7,0c0,3.8,0,7.2,0,10.8c-4.7,0-9.2,0-13.9,0c0-3.5,0-6.9,0-10.7c-5.9,0-11.5,0-17.5,0c0.3-5.5-1-10.5,3-15.4
			c8.1-9.8,15.6-20.2,23.3-30.3c0.1-0.2,0.2-0.4,0.4-1c-8.2,0-16.3,0-24.5,0c0-5.1,0-9.9,0-15C49.5,34.4,54.5,34.4,59.7,34.4z"/>
	</g>
</g>
<g>
	<path class="st5" d="M56.8,31.4c0-3.9,0-7.4,0-11.1c4.6,0,9.1,0,13.9,0c0,3.6,0,7.2,0,11c5.7,0,11.1,0,16.9,0
		C87.1,36.7,89,41.8,85,46.8C77,56.6,69.6,66.9,62,77c-0.1,0.1-0.1,0.3-0.2,0.8c8.9,0,17.7,0,26.7,0c0,5.2,0,10,0,15.2
		c-5.8,0-11.6,0-17.7,0c0,3.8,0,7.2,0,10.8c-4.7,0-9.2,0-13.9,0c0-3.5,0-6.9,0-10.7c-5.9,0-11.5,0-17.5,0c0.3-5.5-1-10.5,3-15.4
		C50.6,68,58,57.6,65.8,47.5c0.1-0.2,0.2-0.4,0.4-1c-8.2,0-16.3,0-24.5,0c0-5.1,0-9.9,0-15C46.6,31.4,51.6,31.4,56.8,31.4z"/>
</g>
</svg>
