<?xml version="1.0" encoding="utf-8"?>
<!-- Generator: Adobe Illustrator 21.1.0, SVG Export Plug-In . SVG Version: 6.00 Build 0)  -->
<svg version="1.1" id="Layer_1" xmlns="http://www.w3.org/2000/svg" xmlns:xlink="http://www.w3.org/1999/xlink" x="0px" y="0px"
	 viewBox="0 0 128 128" style="enable-background:new 0 0 128 128;" xml:space="preserve">
<style type="text/css">
	.st0{fill:none;}
	.st1{fill:#D7BE6B;}
</style>
<g>
	<path class="st0" d="M25.8,64c-0.1-0.2-0.2-0.5-0.2-0.7C25.6,63.5,25.7,63.7,25.8,64z"/>
	<path class="st0" d="M25.6,63c0-0.2,0-0.4,0-0.5C25.6,62.6,25.6,62.8,25.6,63z"/>
	<path class="st0" d="M32.4,66.7c-0.1,0-0.1,0-0.2,0.1C32.3,66.8,32.4,66.8,32.4,66.7z"/>
	<path class="st0" d="M25.6,62.2c0-0.2,0.1-0.3,0.1-0.5C25.7,61.9,25.7,62,25.6,62.2z"/>
	<path class="st0" d="M30.3,67.1L30.3,67.1L30.3,67.1L30.3,67.1z"/>
	<path class="st0" d="M31.1,67c-0.1,0-0.1,0-0.2,0C31,67.1,31.1,67,31.1,67z"/>
	<path class="st0" d="M55.5,46.6L55.5,46.6C55.5,46.5,55.5,46.5,55.5,46.6z"/>
	<path class="st0" d="M29.5,67c-0.1,0-0.1,0-0.2,0C29.4,67,29.4,67,29.5,67z"/>
	<path class="st0" d="M51.6,50.8c0.3-0.1,0.7-0.1,1-0.2C52.2,50.7,51.9,50.8,51.6,50.8z"/>
	<path class="st0" d="M28.4,66.8c-0.1-0.1-0.3-0.1-0.4-0.2C28.1,66.6,28.3,66.7,28.4,66.8z"/>
	<path class="st0" d="M28.9,64.1c0.1,0.1,0.3,0.1,0.4,0.2C29.2,64.2,29.1,64.1,28.9,64.1z"/>
	<path class="st0" d="M30,62c0-0.1-0.1-0.1-0.1-0.1C29.9,62,29.9,62,30,62z"/>
	<path class="st0" d="M29.4,61.4c-0.1,0-0.1,0-0.2,0C29.3,61.4,29.3,61.4,29.4,61.4z"/>
	<path class="st0" d="M47.4,52.3c1.3-0.7,2.7-1.1,3.9-1.4C50,51.2,48.7,51.6,47.4,52.3z"/>
	<path class="st0" d="M26.7,60.3c0.1-0.1,0.2-0.2,0.4-0.3C26.9,60.1,26.8,60.2,26.7,60.3z"/>
	<path class="st0" d="M26.2,60.8c0.1-0.1,0.2-0.3,0.3-0.4C26.4,60.6,26.3,60.7,26.2,60.8z"/>
	<path class="st0" d="M27.3,59.9c0.1-0.1,0.3-0.1,0.4-0.2C27.6,59.8,27.5,59.8,27.3,59.9z"/>
	<path class="st0" d="M28.5,59.6c-0.1,0-0.3,0-0.4,0.1C28.2,59.7,28.4,59.6,28.5,59.6L28.5,59.6z"/>
	<path class="st0" d="M25.8,61.5c0.1-0.2,0.1-0.3,0.2-0.4C26,61.2,25.9,61.3,25.8,61.5z"/>
	<path class="st0" d="M23.3,80.6c0.2,0.2,0.3,0.5,0.4,0.7C23.6,81.1,23.5,80.8,23.3,80.6z"/>
	<path class="st0" d="M23.7,81.3c0,0.1,0,0.2,0,0.3C23.7,81.5,23.7,81.4,23.7,81.3z"/>
	<path class="st0" d="M23,82.7L23,82.7h-0.1H23z"/>
	<path class="st0" d="M21.9,79.9c0.2,0,0.3,0.1,0.5,0.1C22.3,79.9,22.1,79.9,21.9,79.9z"/>
	<path class="st0" d="M18.8,83.1C18.8,83,18.8,83,18.8,83.1C18.8,83,18.8,83,18.8,83.1z"/>
	<path class="st0" d="M22.2,81.1C22.1,81.1,22.1,81.1,22.2,81.1C22.1,81.1,22.1,81.1,22.2,81.1z"/>
	<path class="st0" d="M34,67c0.6-0.7,1.3-1.3,2.1-1.9C35.3,65.7,34.6,66.4,34,67z"/>
	<path class="st0" d="M18.9,82.1c0.1-0.4,0.3-0.8,0.5-1.1C19.2,81.3,19,81.7,18.9,82.1z"/>
	<path class="st0" d="M21.7,79.9c-0.1,0-0.2,0-0.2,0c0.1,0,0.3,0,0.4,0C21.8,79.9,21.7,79.9,21.7,79.9z"/>
	<path class="st0" d="M19.1,84.3c-0.1-0.2-0.2-0.4-0.2-0.6C19,83.9,19.1,84.1,19.1,84.3z"/>
	<path class="st0" d="M25.1,83.3c0.1,0,0.1-0.1,0.2-0.1C25.2,83.2,25.2,83.3,25.1,83.3z"/>
	<path class="st0" d="M26,82.5l0.1-0.1L26,82.5z"/>
	<path class="st0" d="M21.5,81.2c-0.1,0-0.2,0.1-0.3,0.2C21.3,81.3,21.4,81.2,21.5,81.2z"/>
	<path class="st0" d="M31.2,70.8c0.3-0.5,0.6-1,0.9-1.4C31.7,69.9,31.5,70.3,31.2,70.8z"/>
	<path class="st0" d="M24.7,83.6c0.1,0,0.1-0.1,0.2-0.1C24.8,83.5,24.7,83.6,24.7,83.6z"/>
	<path class="st0" d="M21.1,83C21.2,83,21.2,83.1,21.1,83C21.2,83.1,21.2,83,21.1,83z"/>
	<path class="st0" d="M21.8,83.7L21.8,83.7L21.8,83.7z"/>
	<path class="st0" d="M21.5,83.5C21.6,83.5,21.6,83.5,21.5,83.5C21.6,83.5,21.6,83.5,21.5,83.5z"/>
	<path class="st0" d="M31.8,66.9c-0.1,0-0.2,0-0.2,0C31.7,66.9,31.7,66.9,31.8,66.9z"/>
	<path class="st0" d="M29.4,75.4c-0.6,1.6-1.1,3.2-1.7,4.7c-0.1,0.2-0.2,0.3-0.3,0.5c0.1-0.2,0.2-0.3,0.3-0.5
		C28.2,78.6,28.8,77,29.4,75.4z"/>
	<path class="st0" d="M30.8,71.7c-0.1,0.3-0.2,0.6-0.3,0.9c-0.1,0.1-0.2,0.3-0.3,0.5c0.1-0.2,0.1-0.3,0.3-0.5
		C30.5,72.3,30.7,72,30.8,71.7z"/>
	<path class="st0" d="M36.4,64.7c-0.3,0.2-0.5,0.3-0.8,0.5C35.9,65,36.2,64.9,36.4,64.7L36.4,64.7L36.4,64.7L36.4,64.7z"/>
	<path class="st0" d="M25.7,82.8c-0.1,0-0.1,0.1-0.2,0.1C25.6,82.9,25.7,82.8,25.7,82.8z"/>
	<path class="st0" d="M30.6,60.7c0.4,0.6,0.2,1.4-0.3,2.2C30.8,62.1,30.9,61.4,30.6,60.7c-0.4-0.8-1.2-1.1-2.1-1.1
		C29.4,59.6,30.1,59.9,30.6,60.7z"/>
	<path class="st0" d="M21.4,83.4C21.4,83.3,21.4,83.3,21.4,83.4C21.4,83.3,21.4,83.3,21.4,83.4z"/>
	<path class="st0" d="M30.1,62.6L30.1,62.6c0,0.2-0.1,0.4,0.1,0.5l0,0C30,62.9,30.1,62.7,30.1,62.6z"/>
	<path class="st0" d="M25.9,64.2c0.4,1,1.1,1.8,2.1,2.3C27,66.1,26.3,65.2,25.9,64.2z"/>
	<path class="st0" d="M33.1,66.5L33.1,66.5c0.1,0,0.2-0.1,0.3-0.1C33.2,66.5,33.2,66.5,33.1,66.5L33.1,66.5z"/>
	<path class="st0" d="M21.3,79.9c-0.2,0-0.4,0.1-0.5,0.2c-0.5,0.2-0.9,0.5-1.3,0.9c0.3-0.4,0.7-0.7,1.3-0.9
		C20.9,80,21.1,79.9,21.3,79.9z"/>
	<path class="st0" d="M36.9,81.8c0.1,0,0.2,0,0.3,0C37.1,81.8,37,81.8,36.9,81.8L36.9,81.8z"/>
	<path class="st0" d="M37,75.7c0.1,0.1,0.2,0.1,0.3,0.2C37.3,75.9,37.1,75.8,37,75.7z"/>
	<path class="st0" d="M52.9,50.6c0.2,0,0.4-0.1,0.6-0.1C53.3,50.6,53.1,50.6,52.9,50.6z"/>
	<path class="st0" d="M37.7,76.4c0.1,0.1,0.1,0.2,0.1,0.3C37.8,76.6,37.8,76.5,37.7,76.4z"/>
	<path class="st0" d="M23.3,80.6c-0.1-0.1-0.2-0.2-0.2-0.2c-0.2-0.1-0.3-0.2-0.5-0.3c0.2,0.1,0.3,0.2,0.5,0.3
		C23.1,80.4,23.2,80.5,23.3,80.6z"/>
	<path class="st0" d="M29.6,61.6l0.1,0.1C29.7,61.6,29.6,61.6,29.6,61.6z"/>
	<path class="st0" d="M31.9,82.5c-0.1,0.1-0.2,0.2-0.4,0.3l0,0c-1.5,1.5-3.2,2.7-5.2,3.4l0,0c2-0.7,3.7-1.9,5.2-3.4
		C31.6,82.7,31.8,82.6,31.9,82.5L31.9,82.5z"/>
	<path class="st0" d="M21.6,81.1c0.1,0,0.2,0,0.2,0C21.8,81.1,21.7,81.1,21.6,81.1z"/>
	<path class="st0" d="M37.6,78.1L37.6,78.1L37.6,78.1z"/>
	<path class="st0" d="M36.7,75.6L36.7,75.6c0.1,0,0.1,0.1,0.2,0.1C36.8,75.7,36.8,75.6,36.7,75.6z"/>
	<path class="st0" d="M35,72.6c0.5-0.9,1.1-1.7,1.8-2.5l0,0C36.1,70.9,35.5,71.7,35,72.6L35,72.6z"/>
	<path class="st0" d="M40,61.9c-0.1,0.1-0.2,0.2-0.3,0.2C39.8,62.1,39.9,62,40,61.9z"/>
	<path class="st0" d="M44.7,60.5c0.1,0,0.1,0,0.2,0C44.8,60.5,44.8,60.5,44.7,60.5z"/>
	<path class="st0" d="M41.2,61.2c-0.1,0.1-0.3,0.1-0.4,0.2C40.9,61.3,41,61.2,41.2,61.2z"/>
	<path class="st0" d="M38.2,63.5C38.3,63.5,38.3,63.5,38.2,63.5C38.3,63.5,38.3,63.5,38.2,63.5z"/>
	<path class="st0" d="M53.9,50.5c0.2,0,0.4,0,0.6,0C54.2,50.5,54,50.5,53.9,50.5z"/>
	<path class="st0" d="M45.2,59.8c-0.1,0-0.3,0-0.4,0.1C44.9,59.8,45,59.8,45.2,59.8z"/>
	<path class="st0" d="M42.3,60.6c-0.1,0-0.2,0.1-0.3,0.1C42.1,60.7,42.2,60.6,42.3,60.6z"/>
	<path class="st0" d="M43.8,60.1c-0.1,0-0.2,0-0.3,0.1C43.6,60.1,43.7,60.1,43.8,60.1z"/>
	<path class="st0" d="M28.5,61.5c0.1-0.1,0.2-0.1,0.3-0.1l0,0l0,0C28.7,61.4,28.6,61.5,28.5,61.5z"/>
	<path class="st0" d="M30,64.3c-0.2,0-0.4,0-0.6-0.1C29.6,64.3,29.8,64.3,30,64.3z"/>
	<path class="st0" d="M28.9,64c-0.1-0.1-0.3-0.2-0.4-0.3C28.6,63.8,28.7,64,28.9,64z"/>
	<path class="st0" d="M35.3,61.9c1.6-1.3,3.1-2.7,4.6-4.1l0,0C38.4,59.2,36.9,60.6,35.3,61.9C34,63,32.6,64,30.8,64.3
		c-0.2,0-0.5,0.1-0.7,0.1c0.2,0,0.4,0,0.7-0.1C32.6,64,34,63,35.3,61.9z"/>
	<path class="st0" d="M28.4,63.6c-0.1-0.1-0.2-0.3-0.3-0.4l0,0C28.2,63.4,28.3,63.5,28.4,63.6z"/>
	<path class="st0" d="M38,63.5L38,63.5L38,63.5c0.1-0.1,0.1-0.1,0.2-0.2C38.1,63.4,38,63.4,38,63.5L38,63.5z"/>
	<path class="st0" d="M38.1,63.5L38.1,63.5L38.1,63.5z"/>
	<path class="st0" d="M46.1,59.7c0.1,0,0.3,0,0.4,0C46.3,59.7,46.2,59.7,46.1,59.7z"/>
	<path class="st0" d="M42.7,61.1c-1.5,0.6-2.9,1.3-4.2,2.2l-0.1,0.1l0.1-0.1C39.8,62.4,41.2,61.7,42.7,61.1z"/>
	<path class="st0" d="M19.5,84.9c0.2,0.2,0.4,0.4,0.6,0.6l0,0C19.9,85.3,19.7,85.1,19.5,84.9z"/>
	<path class="st0" d="M62.3,65.1c-0.3-0.2-0.6-0.3-0.9-0.5l-0.2-0.1c-0.4-0.1-0.8-0.2-1.3-0.3c-0.3,0-0.5,0-0.8,0.1
		c0,0.1,0,0.2,0,0.3v0.1c0,0.2,0,0.4,0,0.6c0,0.1,0,0.2,0,0.3c0.2,0,0.4,0,0.6,0l0,0l0,0c0.7,0,1.4,0.1,2.2,0.2
		c0.2-0.2,0.4-0.4,0.7-0.7C62.5,65.2,62.4,65.1,62.3,65.1z"/>
	<path class="st0" d="M84,47c-0.8-0.5-1.5-0.8-2.3-1.1c-0.5-0.1-1-0.2-1.7-0.2h-0.1c-1,0.2-1.7,0.4-2.2,0.8
		c-0.3,0.2-0.5,0.4-0.7,0.6c0.3,0,0.5,0.1,0.8,0.2l0.2,0.1c0.2,0.1,0.4,0.2,0.6,0.3c0.3,0.1,0.6,0.2,0.9,0.2c0.2,0,0.4,0,0.7-0.1
		C81.1,47.6,82.4,47.3,84,47z"/>
	<path class="st0" d="M57.9,61.6c-0.1,0-0.3,0.1-0.4,0.1C57.6,61.7,57.7,61.7,57.9,61.6z"/>
	<path class="st0" d="M66.4,78.2c0.4,1.1,1.1,2,2.2,2.8c0.9,0.5,1.8,0.8,2.8,1c0.2,0,0.3,0,0.5,0c-0.9-1.1-1.6-2.2-2.2-3.1
		s-1-1.4-1.5-1.8c-0.4,0.1-0.8,0.2-1.3,0.2c-0.2,0-0.4,0-0.6,0c0,0.1,0,0.2,0.1,0.4V78.2z"/>
	<path class="st0" d="M60.2,61.3L60.2,61.3L60.2,61.3c0.7,0.1,1.5,0.2,2.2,0.5c0.2,0.1,0.3,0.2,0.5,0.3c-0.2-0.1-0.3-0.2-0.5-0.3
		C61.7,61.5,61,61.4,60.2,61.3z"/>
	<path class="st0" d="M64,62.6L64,62.6L64,62.6L64,62.6z"/>
	<path class="st0" d="M64.1,62.5L64.1,62.5L64.1,62.5z"/>
	<path class="st0" d="M59.6,61.3c-0.1,0-0.3,0-0.4,0C59.3,61.3,59.5,61.3,59.6,61.3z"/>
	<path class="st0" d="M58.7,61.4c-0.1,0-0.3,0-0.4,0.1C58.5,61.5,58.6,61.5,58.7,61.4z"/>
	<path class="st0" d="M85.3,42c0.2,0.1,0.3,0.2,0.5,0.4C85.6,42.2,85.5,42.1,85.3,42z"/>
	<path class="st0" d="M86,42.5c0.2,0.2,0.4,0.3,0.5,0.5C86.4,42.8,86.2,42.7,86,42.5z"/>
	<path class="st0" d="M81.2,40.4c0.3,0,0.6,0.1,0.9,0.2C81.8,40.5,81.5,40.4,81.2,40.4z"/>
	<path class="st0" d="M66.4,58.3c-0.1,0.2-0.2,0.4-0.3,0.6C66.3,58.8,66.4,58.6,66.4,58.3z"/>
	<path class="st0" d="M87.3,43.9c0.1,0.1,0.2,0.3,0.3,0.4C87.5,44.1,87.4,44,87.3,43.9z"/>
	<path class="st0" d="M86.6,43.1c0.2,0.2,0.4,0.4,0.5,0.6C87,43.5,86.8,43.3,86.6,43.1z"/>
	<path class="st0" d="M87.7,44.5c0.1,0.1,0.1,0.2,0.2,0.3C87.9,44.7,87.8,44.6,87.7,44.5z"/>
	<path class="st0" d="M82.5,40.7c0.2,0.1,0.5,0.1,0.7,0.2C82.9,40.8,82.7,40.7,82.5,40.7z"/>
	<path class="st0" d="M83.6,41c0.2,0.1,0.4,0.2,0.6,0.3C84,41.2,83.8,41.1,83.6,41z"/>
	<path class="st0" d="M84.5,41.5c0.2,0.1,0.3,0.2,0.5,0.3C84.8,41.7,84.7,41.6,84.5,41.5z"/>
	<path class="st0" d="M68.1,47.7L68.1,47.7C68.1,47.7,68.1,47.7,68.1,47.7z"/>
	<path class="st0" d="M60.8,46.7c0.4-0.8,0.4-1.6,0.1-2.1C61.2,45.1,61.1,45.9,60.8,46.7z"/>
	<path class="st0" d="M68.5,47.9C68.5,47.9,68.4,47.9,68.5,47.9C68.4,47.9,68.4,47.9,68.5,47.9z"/>
	<path class="st0" d="M67.6,46.4c0.1,0,0.2,0,0.2,0C67.7,46.3,67.7,46.4,67.6,46.4z"/>
	<path class="st0" d="M55.5,66.2c0,0.1-0.1,0.2-0.1,0.3C55.4,66.4,55.5,66.3,55.5,66.2L55.5,66.2z"/>
	<path class="st0" d="M68.4,46.3L68.4,46.3c-0.1,0-0.2,0-0.2,0C68.3,46.3,68.4,46.3,68.4,46.3L68.4,46.3z"/>
	<path class="st0" d="M69,48.2C69,48.3,69,48.3,69,48.2C69,48.3,69,48.3,69,48.2z"/>
	<path class="st0" d="M68.8,48.1C68.8,48.1,68.7,48.1,68.8,48.1C68.7,48,68.8,48.1,68.8,48.1z"/>
	<path class="st0" d="M69.5,58.9c0,0.1,0,0.1,0,0.2C69.4,59,69.5,58.9,69.5,58.9L69.5,58.9z"/>
	<path class="st0" d="M63,72.6c0.1,0,0.2-0.1,0.2-0.1c0.3-0.2,0.6-0.4,0.9-0.7c-0.3,0.2-0.6,0.5-0.9,0.7
		C63.2,72.5,63.1,72.6,63,72.6z"/>
	<path class="st0" d="M65.8,70.7L65.8,70.7L65.8,70.7z"/>
	<path class="st0" d="M62.5,73.1L62.5,73.1c0.4-0.2,0.8-0.4,1.1-0.6C63.2,72.7,62.8,72.9,62.5,73.1z"/>
	<path class="st0" d="M70.1,64c0.1-0.2,0.2-0.5,0.2-0.7c0.2-0.5,0.4-0.9,0.6-1.4l0,0c-0.2,0.5-0.4,0.9-0.6,1.4
		C70.2,63.6,70.2,63.8,70.1,64z"/>
	<path class="st0" d="M68.6,66.6c0.1-0.2,0.3-0.4,0.4-0.6s0.3-0.4,0.4-0.6c-0.1,0.2-0.3,0.4-0.4,0.6C68.8,66.2,68.7,66.4,68.6,66.6z
		"/>
	<path class="st0" d="M65.3,74.4c0.3,0,0.5,0,0.8,0l0,0C65.9,74.3,65.6,74.3,65.3,74.4L65.3,74.4z"/>
	<path class="st0" d="M67.4,68.9c0.1-0.1,0.2-0.2,0.2-0.3C67.6,68.7,67.5,68.8,67.4,68.9z"/>
	<path class="st0" d="M71.2,62.5c-0.5,1.2-1.1,2.3-1.7,3.4C70.1,64.8,70.7,63.7,71.2,62.5L71.2,62.5z"/>
	<path class="st0" d="M66.9,46.5c0.1,0,0.2-0.1,0.2-0.1C67.1,46.5,67,46.5,66.9,46.5z"/>
	<path class="st0" d="M58.3,45.2C58.3,45.3,58.3,45.3,58.3,45.2C58.3,45.3,58.3,45.3,58.3,45.2z"/>
	<path class="st0" d="M58.3,45.8C58.3,45.9,58.3,45.9,58.3,45.8C58.3,45.9,58.3,45.9,58.3,45.8z"/>
	<path class="st0" d="M58.3,45.4C58.3,45.4,58.3,45.5,58.3,45.4C58.3,45.5,58.3,45.4,58.3,45.4z"/>
	<path class="st0" d="M58.5,46.1L58.5,46.1L58.5,46.1z"/>
	<path class="st0" d="M59,46.6L59,46.6C59.1,46.7,59.1,46.6,59,46.6z"/>
	<path class="st0" d="M88,45c0.1,0.1,0.1,0.2,0.2,0.3C88.2,45.2,88.1,45.1,88,45z"/>
	<path class="st0" d="M59.4,44.9c-0.1,0-0.1,0-0.2,0C59.3,44.8,59.3,44.8,59.4,44.9z"/>
	<path class="st0" d="M58.7,44.9C58.6,44.9,58.6,45,58.7,44.9C58.6,45,58.6,44.9,58.7,44.9z"/>
	<path class="st0" d="M58.9,44.9C58.8,44.9,58.8,44.9,58.9,44.9C58.8,44.9,58.8,44.9,58.9,44.9z"/>
	<path class="st0" d="M59,44.8C59,44.8,59.1,44.8,59,44.8C59.1,44.8,59,44.8,59,44.8z"/>
	<path class="st0" d="M58.2,43.7L58.2,43.7L58.2,43.7z"/>
	<path class="st0" d="M58.4,45.1L58.4,45.1L58.4,45.1z"/>
	<path class="st0" d="M58.3,45.7C58.3,45.7,58.3,45.6,58.3,45.7C58.3,45.6,58.3,45.7,58.3,45.7z"/>
	<path class="st0" d="M59.8,45c-0.1-0.1-0.2-0.1-0.3-0.1C59.6,44.9,59.7,45,59.8,45c0.4,0.2,0.9,1.3,0.9,1.6
		C60.7,46.3,60.2,45.3,59.8,45z"/>
	<path class="st0" d="M58.8,46.4C58.8,46.4,58.7,46.4,58.8,46.4C58.7,46.4,58.8,46.4,58.8,46.4z"/>
	<path class="st0" d="M59.9,47.1c0.1,0,0.1,0,0.2,0.1C60.1,47.1,60,47.1,59.9,47.1z"/>
	<path class="st0" d="M59.4,46.8c0.1,0,0.1,0.1,0.2,0.1C59.5,46.9,59.5,46.9,59.4,46.8z"/>
	<path class="st0" d="M62.4,47.8L62.4,47.8c-0.7-0.2-1.2-0.4-1.6-0.5l0,0l0,0C61.2,47.5,61.8,47.6,62.4,47.8z"/>
	<path class="st0" d="M58.9,43.6L58.9,43.6L58.9,43.6L58.9,43.6z"/>
	<path class="st0" d="M70.9,43.7L70.9,43.7c0.4-0.4,0.8-0.7,1.2-1.1C71.7,43,71.3,43.4,70.9,43.7z"/>
	<path class="st0" d="M80.4,42.8c-0.1,0-0.2,0-0.3,0C80.2,42.8,80.3,42.8,80.4,42.8z"/>
	<path class="st0" d="M76.1,40.7c0.6-0.1,1.2-0.2,1.7-0.3C77.3,40.4,76.7,40.5,76.1,40.7z"/>
	<path class="st0" d="M77.9,40.4c0.5-0.1,1-0.1,1.5-0.1C78.9,40.3,78.4,40.3,77.9,40.4z"/>
	<path class="st0" d="M81.1,42.8c-0.1,0-0.2,0-0.3,0C81,42.8,81.1,42.8,81.1,42.8z"/>
	<path class="st0" d="M88.3,45.5c0,0.1,0.1,0.2,0.1,0.3C88.4,45.6,88.3,45.6,88.3,45.5z"/>
	<path class="st0" d="M88.5,45.9c0,0.1,0.1,0.2,0.1,0.2C88.5,46,88.5,45.9,88.5,45.9z"/>
	<path class="st0" d="M81.8,42.9c-0.1,0-0.2,0-0.2,0C81.7,42.9,81.8,42.9,81.8,42.9z"/>
	<path class="st0" d="M88.7,46.4c0,0.1,0.1,0.1,0.1,0.2C88.8,46.5,88.7,46.5,88.7,46.4z"/>
	<path class="st0" d="M80.9,40.3c-0.4,0-0.8-0.1-1.3-0.1c0,0,0,0-0.1,0C80,40.3,80.4,40.3,80.9,40.3z"/>
	<path class="st0" d="M56.4,44.7C56.4,44.7,56.5,44.7,56.4,44.7C56.5,44.7,56.4,44.7,56.4,44.7z"/>
	<path class="st0" d="M56,45.2L56,45.2L56,45.2z"/>
	<path class="st0" d="M55.7,45.9L55.7,45.9C55.7,45.8,55.7,45.8,55.7,45.9z"/>
	<path class="st0" d="M82.5,43.1L82.5,43.1c0.8,0.2,1.6,0.6,2.2,0.9C84.1,43.6,83.3,43.3,82.5,43.1L82.5,43.1z"/>
	<path class="st0" d="M56.9,44.3C57,44.3,57,44.2,56.9,44.3C57,44.2,57,44.3,56.9,44.3z"/>
	<path class="st0" d="M84.7,44c2,1,3.3,2.4,3.6,2.6l0,0l0,0C88.1,46.4,86.7,45,84.7,44z"/>
	<path class="st0" d="M57.5,43.9L57.5,43.9C57.6,43.9,57.6,43.9,57.5,43.9z"/>
	<path class="st0" d="M88.7,46.4C88.7,46.4,88.7,46.3,88.7,46.4c-0.1-0.1-0.1-0.2-0.2-0.3C88.5,46.2,88.6,46.2,88.7,46.4
		C88.7,46.3,88.7,46.4,88.7,46.4z"/>
	<path class="st0" d="M83.3,58.8L83.3,58.8L83.3,58.8L83.3,58.8L83.3,58.8L83.3,58.8z"/>
	<path class="st0" d="M93.1,87.4L93.1,87.4c0.4-0.1,0.8-0.1,1.1-0.2C93.9,87.3,93.5,87.4,93.1,87.4L93.1,87.4z"/>
	<path class="st0" d="M74.1,80.1c0.2,0.3,0.5,0.5,0.7,0.8c0.2,0.2,0.3,0.3,0.5,0.5l0,0c-0.2-0.2-0.3-0.3-0.5-0.5
		C74.6,80.6,74.4,80.4,74.1,80.1z"/>
	<path class="st0" d="M102.9,82.3c0,0-0.1,0.1-0.3,0.2C102.8,82.4,102.9,82.4,102.9,82.3c0.5-0.5,1-0.9,1.5-1.5
		C104,81.4,103.5,81.9,102.9,82.3z"/>
	<path class="st0" d="M78.5,64.5c0.1-0.3,0.2-0.7,0.4-1.1C78.8,63.8,78.6,64.2,78.5,64.5z"/>
	<path class="st0" d="M108.3,62.9L108.3,62.9L108.3,62.9z"/>
	<path class="st0" d="M100.8,52.5c0.2,0.1,0.4,0.2,0.5,0.3C101.2,52.7,101,52.6,100.8,52.5z"/>
	<path class="st0" d="M99.1,51.6c0.2,0.1,0.4,0.2,0.6,0.3C99.6,51.8,99.4,51.7,99.1,51.6z"/>
	<path class="st0" d="M109.1,67.9c0-1.4-0.2-2.9-0.6-4.5v-0.1v0.1C108.8,65,109,66.5,109.1,67.9z"/>
	<path class="st0" d="M97.5,50.9c0.2,0.1,0.5,0.2,0.7,0.3C97.9,51,97.7,51,97.5,50.9z"/>
	<path class="st0" d="M86,55.4c-0.2,0.1-0.4,0.2-0.5,0.3C85.7,55.6,85.8,55.5,86,55.4L86,55.4z"/>
	<path class="st0" d="M83.3,58.8L83.3,58.8L83.3,58.8z"/>
	<path class="st0" d="M81.7,60.1c-0.7,1-1.2,2.1-1.7,3.2c-0.1,0.2-0.2,0.4-0.2,0.6c0.1-0.2,0.2-0.4,0.2-0.6
		C80.5,62.2,81,61.1,81.7,60.1c0,0,0.2-0.2,0.4-0.4C81.9,59.9,81.7,60,81.7,60.1z"/>
	<polygon class="st0" points="83,75.8 83,75.8 85.2,74.5 	"/>
	<path class="st0" d="M78.7,71.7c-0.1-1.8,0-3.6,0.3-5.3C78.7,68.1,78.6,69.9,78.7,71.7z"/>
	<path class="st0" d="M82.5,59.1C82.5,59.2,82.5,59.2,82.5,59.1C82.5,59.2,82.5,59.2,82.5,59.1z"/>
	<path class="st0" d="M77.9,70.2c0-0.3-0.1-0.6-0.1-0.9C77.8,69.6,77.8,69.9,77.9,70.2c0.3,2.2,0.7,4.4,1.9,6.3c0,0,0,0,0.1,0
		c0,0,0,0-0.1,0C78.6,74.6,78.2,72.5,77.9,70.2z"/>
	<path class="st0" d="M83.7,57.1c0.2-0.2,0.4-0.3,0.6-0.5C84,56.8,83.9,56.9,83.7,57.1c-2.5,2-3.9,4.3-4.6,6
		C79.8,61.4,81.1,59.1,83.7,57.1z"/>
	<path class="st0" d="M78.5,64.5c-0.1,0.2-0.1,0.5-0.2,0.6c0,0.1-0.1,0.5-0.3,1.1c0.1-0.6,0.2-1.1,0.3-1.1
		C78.4,65,78.4,64.7,78.5,64.5z"/>
	<path class="st0" d="M81.1,50.8c0.2-0.1,0.4-0.1,0.7-0.2C81.5,50.6,81.2,50.7,81.1,50.8z"/>
	<path class="st0" d="M79.9,85c0.8,0.6,1.8,1,2.7,1.3C81.7,85.9,80.7,85.5,79.9,85L79.9,85z"/>
	<path class="st0" d="M79.8,51c0.1,0,0.2,0,0.3,0C80,51,79.9,51,79.8,51z"/>
	<polygon class="st0" points="85.5,66.5 85.5,66.5 89.4,64.7 	"/>
	<path class="st0" d="M82,50.5c0.2,0,0.4-0.1,0.6-0.1C82.3,50.4,82.1,50.5,82,50.5z"/>
	<path class="st0" d="M89.7,87.7L89.7,87.7L89.7,87.7L89.7,87.7z"/>
	<path class="st0" d="M91.4,87.7L91.4,87.7L91.4,87.7z"/>
	<path class="st0" d="M82.9,50.3c0.2,0,0.4-0.1,0.6-0.1C83.3,50.2,83.1,50.2,82.9,50.3z"/>
	<path class="st0" d="M88.1,87.6C88.1,87.6,88,87.6,88.1,87.6C88,87.6,88.1,87.6,88.1,87.6z"/>
	<path class="st0" d="M94.1,50c0.2,0,0.5,0.1,0.7,0.1C94.6,50.1,94.3,50,94.1,50z"/>
	<path class="st0" d="M83.9,50.1c0.2,0,0.4-0.1,0.7-0.1C84.3,50,84.1,50,83.9,50.1z"/>
	<path class="st0" d="M89.6,49.6L89.6,49.6c0.1,0,0.2,0,0.3,0C89.8,49.6,89.7,49.6,89.6,49.6z"/>
	<path class="st0" d="M90.7,49.6c0.2,0,0.5,0,0.7,0C91.2,49.6,91,49.6,90.7,49.6z"/>
	<path class="st0" d="M95.8,50.4c0.2,0.1,0.5,0.1,0.7,0.2C96.2,50.5,96,50.4,95.8,50.4z"/>
	<path class="st0" d="M92.4,49.7c0.2,0,0.5,0.1,0.7,0.1C92.9,49.8,92.6,49.8,92.4,49.7z"/>
	<path class="st0" d="M85.1,49.9c0.2,0,0.5-0.1,0.7-0.1C85.5,49.8,85.3,49.9,85.1,49.9z"/>
	<path class="st0" d="M87.8,49.6C87.7,49.6,87.7,49.6,87.8,49.6C87.7,49.6,87.7,49.6,87.8,49.6L87.8,49.6z"/>
	<path class="st0" d="M86.3,49.7c0.2,0,0.5,0,0.7-0.1C86.8,49.7,86.6,49.7,86.3,49.7z"/>
	<polygon class="st0" points="89.1,57.4 89.1,57.4 91.7,63.7 91.7,63.7 	"/>
	<path class="st0" d="M106,71c-0.1,0.6-0.2,1.1-0.4,1.7c-0.4,1.3-0.9,2.5-1.5,3.6c0.6-1.1,1.1-2.3,1.5-3.6
		C105.7,72.2,105.8,71.6,106,71z"/>
	<path class="st0" d="M99.3,82c-0.1,0.1-0.2,0.1-0.3,0.2c-0.9,0.7-1.8,1.2-2.7,1.7c0.9-0.5,1.8-1.1,2.7-1.7
		C99.1,82.1,99.2,82,99.3,82z"/>
	<path class="st0" d="M104.1,76.3c-1,1.9-2.4,3.5-4,5c-0.1,0.1-0.3,0.2-0.4,0.2c0.1-0.1,0.3-0.1,0.4-0.2
		C101.7,79.9,103,78.2,104.1,76.3z"/>
	<path class="st0" d="M91,85.8L91,85.8C90.9,85.8,90.9,85.8,91,85.8L91,85.8z"/>
	<path class="st0" d="M90.9,86c0.4,0,0.7,0,1.1,0C91.6,86,91.2,86,90.9,86L90.9,86z"/>
	<path class="st0" d="M106.1,66.1L106.1,66.1c0.2,1,0.2,2.1,0.1,3.2C106.3,68.2,106.3,67.1,106.1,66.1z"/>
	<path class="st0" d="M90.8,85.8c-0.1,0-0.1,0-0.2-0.1l0,0l0,0C90.7,85.7,90.7,85.8,90.8,85.8z"/>
	<path class="st0" d="M90.6,85.8L90.6,85.8L90.6,85.8z"/>
	<path class="st0" d="M90.6,85.8L90.6,85.8L90.6,85.8z"/>
	<path class="st0" d="M90.6,85.9L90.6,85.9L90.6,85.9z"/>
	<path class="st0" d="M108.8,72c0.2-1.2,0.3-2.5,0.3-3.9C109.1,69.5,109,70.8,108.8,72z"/>
	<path class="st0" d="M106.7,68.2c0.2,0.8,0.3,1.7,0.2,2.6C106.9,69.9,106.8,69,106.7,68.2z"/>
	<path class="st0" d="M37.4,78.2C37.4,78.3,37.4,78.3,37.4,78.2C37.4,78.3,37.4,78.3,37.4,78.2z"/>
	<path class="st0" d="M99.5,83.2c-0.1,0.1-0.3,0.2-0.4,0.2c-0.6,0.4-1.3,0.8-1.9,1.1c0.7-0.3,1.3-0.7,1.9-1.1
		C99.2,83.4,99.4,83.3,99.5,83.2L99.5,83.2c0.1-0.2,0.2-0.3,0.3-0.4C99.7,82.9,99.6,83.1,99.5,83.2L99.5,83.2z"/>
	<path class="st0" d="M90.8,85.9L90.8,85.9L90.8,85.9L90.8,85.9C90.9,86,90.9,85.9,90.8,85.9z"/>
	<path class="st0" d="M90.7,85.9L90.7,85.9L90.7,85.9C90.8,85.9,90.8,85.9,90.7,85.9C90.8,85.9,90.8,85.9,90.7,85.9L90.7,85.9z"/>
	<path class="st0" d="M106.6,73.2c0.1-0.2,0.1-0.5,0.2-0.7c0.1-0.5,0.1-1.1,0.2-1.6c0,0.5-0.1,1-0.2,1.6
		C106.7,72.7,106.6,73,106.6,73.2z"/>
	<path class="st0" d="M90.6,73.2l-3-5.9L90.6,73.2z"/>
	<polygon class="st0" points="86.7,68.6 88.8,72.3 88.8,72.3 	"/>
	<polygon class="st0" points="86.2,80.3 87.4,82 88.5,81.4 88.5,81.4 87.4,82 	"/>
	<polygon class="st0" points="89.1,76.7 89.1,76.7 91.9,75 	"/>
	<ellipse class="st0" cx="99.9" cy="84.3" rx="0" ry="0"/>
	<polygon class="st0" points="96.5,55.8 96.5,55.8 96.8,56.2 	"/>
	<path class="st0" d="M100.7,59.5L94.4,61L100.7,59.5z"/>
	<polygon class="st0" points="93.8,64.5 91,58.3 97.1,56.7 97.1,56.7 91,58.3 	"/>
	<path class="st0" d="M87.4,67l6.4-2.5L87.4,67z"/>
	<path class="st0" d="M105.3,79.8c-0.3,0.4-0.6,0.7-0.9,1C104.7,80.5,105,80.2,105.3,79.8z"/>
	<path class="st0" d="M99.9,84.3L99.9,84.3L99.9,84.3z"/>
	<polygon class="st0" points="94.4,61 96.6,66.3 91.3,68.7 91.3,68.7 96.6,66.3 	"/>
	<polygon class="st0" points="92.1,70.2 94.1,73.7 94.1,73.7 	"/>
	<path class="st0" d="M99.9,84.3L99.9,84.3L99.9,84.3z"/>
	<path class="st0" d="M95.7,74.4l-2.1-3.9L95.7,74.4z"/>
	<path class="st0" d="M93.9,81.5l-3.1-4.6L93.9,81.5z"/>
	<polygon class="st0" points="90.5,78.5 93,82 93.5,81.7 93,82 	"/>
	<path class="st0" d="M93,69.2l1.6-0.7L93,69.2z"/>
	<path class="st0" d="M71.9,86.3c-0.1,0-0.2,0-0.3,0C71.7,86.3,71.8,86.3,71.9,86.3z"/>
	<path class="st0" d="M54.2,80c-0.1,0.1-0.2,0.2-0.2,0.3C54.1,80.2,54.2,80.1,54.2,80z"/>
	<path class="st0" d="M53.3,80.8c-0.1,0.1-0.3,0.1-0.4,0.2C53.1,80.9,53.2,80.9,53.3,80.8z"/>
	<path class="st0" d="M53.8,80.4c-0.1,0.1-0.2,0.2-0.3,0.2C53.6,80.6,53.7,80.5,53.8,80.4z"/>
	<path class="st0" d="M54.9,78.7c0,0.2-0.1,0.4-0.2,0.6C54.8,79.1,54.8,78.9,54.9,78.7z"/>
	<path class="st0" d="M54.6,79.5c-0.1,0.1-0.1,0.2-0.2,0.3C54.4,79.7,54.5,79.6,54.6,79.5z"/>
	<path class="st0" d="M36.3,77.9C36.2,77.9,36.2,78,36.3,77.9C36.2,78,36.2,78,36.3,77.9C36.2,78,36.2,78,36.3,77.9
		C36.2,78,36.2,77.9,36.3,77.9z"/>
	<path class="st0" d="M37.8,77.8L37.8,77.8c0.1-0.1,0.1-0.3,0.2-0.5C37.9,77.5,37.9,77.7,37.8,77.8L37.8,77.8z"/>
	<path class="st0" d="M44.4,74.7c-0.2,0.3-0.4,0.6-0.6,0.9c-0.1,0.1-0.1,0.2-0.2,0.4c0.1-0.1,0.1-0.3,0.2-0.4
		C44,75.4,44.2,75,44.4,74.7z"/>
	<path class="st0" d="M42.5,78.6c0.4-0.6,0.6-1.3,0.8-2c0.1-0.1,0.1-0.3,0.2-0.4c-0.1,0.1-0.1,0.3-0.2,0.4
		C43.1,77.4,42.8,78.1,42.5,78.6z"/>
	<path class="st0" d="M52.8,81c-0.2,0.1-0.4,0.1-0.6,0.2C52.4,81.2,52.6,81.1,52.8,81z"/>
	<path class="st0" d="M36.6,76.8C36.6,76.9,36.6,76.9,36.6,76.8C36.6,76.9,36.6,76.9,36.6,76.8z"/>
	<path class="st0" d="M52.2,77.5c-0.1,0-0.2,0.1-0.3,0.2C52.1,77.6,52.2,77.6,52.2,77.5z"/>
	<path class="st0" d="M52,78.9c0.1,0,0.2,0.1,0.4,0.1C52.2,79,52.1,78.9,52,78.9z"/>
	<path class="st0" d="M51.4,78.3L51.4,78.3c0.1-0.5,0.2-0.9,0.4-1.3C51.6,77.3,51.5,77.8,51.4,78.3z"/>
	<path class="st0" d="M52.6,77.4c-0.1,0-0.2,0-0.2,0.1C52.4,77.5,52.5,77.4,52.6,77.4z"/>
	<path class="st0" d="M52.6,76.4c0.1-0.1,0.3-0.1,0.4-0.1C52.9,76.3,52.7,76.3,52.6,76.4z"/>
	<path class="st0" d="M51.5,78.7c0.1,0.1,0.3,0.1,0.4,0.2C51.8,78.8,51.7,78.8,51.5,78.7z"/>
	<path class="st0" d="M49.5,80.3c-0.2-0.2-0.3-0.4-0.4-0.5C49.1,79.9,49.3,80.1,49.5,80.3z"/>
	<path class="st0" d="M51.8,81.2c0.1,0,0.2,0,0.4,0C52,81.2,51.8,81.2,51.8,81.2C51.7,81.2,51.7,81.2,51.8,81.2z"/>
	<path class="st0" d="M36.8,77C36.8,77,36.7,77,36.8,77C36.7,77,36.8,77,36.8,77z"/>
	<path class="st0" d="M36.5,76.8C36.4,76.8,36.4,76.8,36.5,76.8C36.4,76.8,36.4,76.8,36.5,76.8z"/>
	<path class="st0" d="M36.1,78L36.1,78L36.1,78L36.1,78z"/>
	<path class="st0" d="M35.8,78.9C35.8,78.9,35.8,79,35.8,78.9C35.9,79,36,79,36.1,79C36,79.1,35.9,79,35.8,78.9z"/>
	<path class="st0" d="M36.9,78.4L36.9,78.4L36.9,78.4L36.9,78.4z"/>
	<path class="st0" d="M106.3,78.4c-0.2,0.3-0.3,0.5-0.4,0.7C106,78.9,106.1,78.7,106.3,78.4z"/>
	<path class="st0" d="M36.5,78.3L36.5,78.3L36.5,78.3z"/>
	<path class="st0" d="M36.8,79.2c0.1,0,0.2,0,0.3,0C37,79.2,36.9,79.2,36.8,79.2z"/>
	<path class="st0" d="M37.6,78.9c0.1-0.1,0.2-0.1,0.2-0.2C37.8,78.8,37.7,78.9,37.6,78.9z"/>
	<path class="st0" d="M39.5,71.4L39.5,71.4c-0.2,1-0.3,2-0.3,3c-0.1,0.8-0.1,1.7-0.3,2.5c0.2-0.8,0.3-1.6,0.3-2.5
		C39.3,73.4,39.3,72.4,39.5,71.4z"/>
	<path class="st0" d="M38.3,78.2c-0.1,0.2-0.2,0.3-0.3,0.4C38.1,78.5,38.2,78.4,38.3,78.2z"/>
	<path class="st0" d="M36.7,79.2c-0.2,0-0.3,0-0.5-0.1C36.4,79.2,36.6,79.2,36.7,79.2z"/>
	<path class="st0" d="M45.2,73.8L45.2,73.8L45.2,73.8C45.3,73.7,45.2,73.8,45.2,73.8z"/>
	<path class="st0" d="M37.2,79.1c0.1,0,0.2-0.1,0.2-0.1C37.4,79.1,37.3,79.1,37.2,79.1z"/>
	<path class="st0" d="M44.7,74.4c-0.1,0.1-0.2,0.2-0.2,0.3C44.5,74.6,44.6,74.5,44.7,74.4z"/>
	<path class="st0" d="M36.1,76.8L36.1,76.8C36.2,76.8,36.2,76.7,36.1,76.8C36.2,76.7,36.2,76.7,36.1,76.8
		C36.2,76.7,36.2,76.7,36.1,76.8C36.2,76.7,36.2,76.8,36.1,76.8z"/>
	<path class="st0" d="M45,73.9c-0.1,0.1-0.2,0.2-0.2,0.3C44.9,74.1,45,74,45,73.9z"/>
	<path class="st0" d="M63.7,79.7c0.2,0.5,0.4,0.9,0.7,1.3C64.1,80.6,63.9,80.1,63.7,79.7z"/>
	<path class="st0" d="M37.2,78.4C37.2,78.4,37.1,78.4,37.2,78.4C37.1,78.4,37.2,78.4,37.2,78.4z"/>
	<path class="st0" d="M74.5,84.8L74.5,84.8L74.5,84.8L74.5,84.8z"/>
	<path class="st0" d="M70.6,86.4C70.6,86.4,70.6,86.3,70.6,86.4C70.6,86.3,70.6,86.4,70.6,86.4L70.6,86.4z"/>
	<path class="st0" d="M73.3,84.9c0.1,0,0.3,0,0.4,0C73.6,84.9,73.4,84.9,73.3,84.9z"/>
	<path class="st0" d="M70.2,86.3c-0.1,0-0.3,0-0.4,0C69.9,86.3,70.1,86.3,70.2,86.3z"/>
	<path class="st0" d="M49.8,80.6c0.3,0.3,0.8,0.5,1.2,0.5c0.2,0.1,0.4,0.1,0.5,0.1c-0.2,0-0.4,0-0.5-0.1
		C50.6,81.1,50.1,80.9,49.8,80.6z"/>
	<path class="st0" d="M55,78.2c0-0.3-0.1-0.7-0.2-0.9C54.9,77.6,55,77.9,55,78.2z"/>
	<path class="st0" d="M74.1,85.7c-0.1,0-0.2,0.1-0.3,0.1C73.9,85.8,74,85.8,74.1,85.7z"/>
	<path class="st0" d="M60.9,80.6c-0.5-0.7-0.9-1.4-1.1-2.3c-0.2-0.4-0.3-0.8-0.4-1.3l0,0c0.1,0.4,0.2,0.9,0.4,1.3
		C60.1,79.2,60.4,79.9,60.9,80.6c0.9,1.6,2.2,2.9,3.7,3.9C63.1,83.5,61.9,82.2,60.9,80.6z"/>
	<path class="st0" d="M75.1,85.4L75.1,85.4L75.1,85.4L75.1,85.4L75.1,85.4L75.1,85.4z"/>
	<path class="st0" d="M68.7,86.2c-1-0.1-2-0.4-2.9-0.9C66.7,85.7,67.7,86,68.7,86.2c0.1,0,0.2,0,0.3,0c0.1,0,0.3,0,0.4,0
		c-0.1,0-0.3,0-0.4,0S68.8,86.2,68.7,86.2z"/>
	<path class="st0" d="M106.8,77.6c-0.2,0.3-0.3,0.5-0.5,0.8C106.5,78.1,106.6,77.9,106.8,77.6z"/>
	<path class="st0" d="M72.5,85c-0.1,0-0.3,0-0.4,0C72.2,85,72.4,85,72.5,85z"/>
	<path class="st0" d="M49,76.6c-0.1,0.2-0.2,0.5-0.2,0.7s-0.1,0.3-0.1,0.5c0-0.2,0.1-0.3,0.1-0.5C48.9,77.1,49,76.9,49,76.6z"/>
	<path class="st0" d="M67,83.5c1.3,0.7,2.6,1.2,4.1,1.5l0,0l0,0C69.6,84.8,68.2,84.3,67,83.5c-0.8-0.6-1.5-1.2-2.1-1.9
		C65.4,82.3,66.1,83,67,83.5z"/>
	<path class="st0" d="M63.4,79c0.1,0.2,0.2,0.5,0.3,0.7C63.6,79.4,63.5,79.2,63.4,79c-0.1-0.5-0.2-1.1-0.3-1.6l0,0
		C63.3,77.9,63.3,78.4,63.4,79L63.4,79z"/>
	<path class="st0" d="M72.9,86.1L72.9,86.1L72.9,86.1z"/>
	<path class="st0" d="M50.9,77.3c0-0.2,0-0.4,0.1-0.6c0.1-0.3,0.2-0.7,0.3-1c-0.1,0.3-0.3,0.6-0.3,1C51,76.9,50.9,77.1,50.9,77.3z"
		/>
	<path class="st0" d="M52.6,78.9c-0.1,0-0.2,0-0.3,0C52.5,79,52.5,79,52.6,78.9z"/>
	<path class="st0" d="M52.6,77.4c0.1,0,0.1,0,0.2,0C52.7,77.4,52.7,77.4,52.6,77.4z"/>
	<path class="st0" d="M53.3,78c0,0.3-0.1,0.5-0.4,0.8c-0.1,0.1-0.2,0.1-0.3,0.2c0.1,0,0.2-0.1,0.3-0.2C53.2,78.5,53.4,78.3,53.3,78z
		"/>
	<path class="st0" d="M53.6,76.3c0.1,0,0.3,0.1,0.4,0.2C53.8,76.4,53.7,76.3,53.6,76.3z"/>
	<path class="st0" d="M51.7,78c0.1-0.1,0.2-0.2,0.2-0.2S51.8,77.9,51.7,78z"/>
	<path class="st0" d="M54,76.5c0.1,0.1,0.2,0.2,0.4,0.3C54.3,76.7,54.2,76.6,54,76.5z"/>
	<path class="st0" d="M53.2,77.7c-0.1-0.1-0.2-0.1-0.3-0.2C53,77.5,53.1,77.6,53.2,77.7c0,0.1,0.1,0.1,0.1,0.2
		C53.3,77.8,53.2,77.7,53.2,77.7L53.2,77.7z"/>
	<path class="st0" d="M53.2,76.3C53.2,76.3,53.1,76.3,53.2,76.3c0,0,0.2,0,0.3,0C53.4,76.3,53.3,76.3,53.2,76.3z"/>
	<path class="st0" d="M52.6,71.9L52.6,71.9c-0.5,0.5-1.1,1-1.5,1.6l0,0c-0.3,0.3-0.5,0.6-0.7,0.9c0.2-0.3,0.5-0.6,0.7-0.9
		C51.6,72.9,52.1,72.3,52.6,71.9z"/>
	<path class="st0" d="M49.5,75.7c0,0.1-0.1,0.2-0.1,0.3c-0.1,0.2-0.2,0.4-0.3,0.7c0.1-0.2,0.2-0.5,0.3-0.7
		C49.4,75.9,49.5,75.8,49.5,75.7z"/>
	<path class="st0" d="M51.8,74.8c-0.1,0.3-0.3,0.6-0.4,0.9C51.5,75.4,51.6,75.1,51.8,74.8C51.8,74.8,51.8,74.7,51.8,74.8
		C51.8,74.7,51.8,74.8,51.8,74.8L51.8,74.8z"/>
	<polyline class="st1" points="42.3,56.1 42.3,56.1 42.3,56.1 42.3,56.1 42.3,56.1 42.3,56.1 42.3,56.1 42.3,56.1 	"/>
	<line class="st0" x1="25.8" y1="64.1" x2="25.8" y2="64.1"/>
	<path class="st1" d="M111.3,62.7c-0.2-0.7-2-7.2-6.5-11.1c-3.4-2.9-7.9-4.6-13-4.9c0-0.5-0.1-1.1-0.4-1.6c-0.8-2-3.8-7.8-11.8-7.8
		c-1.3,0-2.6,0.2-4.1,0.5c-2.5,0.5-4.7,1.8-6.8,4c-0.6,0.6-0.9,1.1-1,1.6c-1.3,0.1-2.5,0.6-3.7,1.4l0,0c-0.1-0.4-0.2-0.9-0.3-1.3
		c-0.6-1.3-1.7-2.2-3.2-2.6c-0.5-0.1-1-0.2-1.6-0.2c-1.8,0-3.6,0.8-4.8,2.2c-1.2,1.3-1.7,3-1.5,4.8c-0.5,0.1-1.1,0.1-1.6,0.2
		c-2,0.4-3.9,1.1-5.7,2.1s-3.5,2.2-5.3,3.7c-0.9,0.8-1.9,1.7-2.7,2.5c-1.3,1.2-2.5,2.3-3.8,3.4l0,0c-0.1-0.1-0.1-0.2-0.2-0.3
		c-0.9-1.7-2.6-2.6-4.7-2.6l0,0c-2,0-3.8,1-4.9,2.6c-1.2,1.7-1.4,4-0.6,5.9c0.7,1.8,1.9,3.2,3.4,4c0.4,0.3,0.8,0.4,1.1,0.5
		c0.2,0.1,0.5,0.2,0.8,0.2c-0.2,0.4-0.4,0.9-0.6,1.4c-0.3,0.5-0.4,1-0.5,1.2v0.1c-0.6,1.6-1.2,3.3-1.8,5l-0.2,0.7
		c-0.1-0.1-0.2-0.2-0.3-0.2c-0.9-0.7-2-1.1-3.2-1.1c-0.7,0-1.5,0.2-2.2,0.5c-2.1,0.9-3.4,2.6-3.6,4.8c-0.2,1.6,0.1,4,2.7,5.9
		c1.9,1.5,4.2,1.7,5.2,1.7c0.4,0,0.7,0,1-0.1c3.2-0.5,6.1-2,8.8-4.6c0.3-0.3,0.6-0.5,0.9-0.8c0.7,0.3,1.6,0.5,2.6,0.5
		c0.1,0,0.3,0,0.4,0c3.8-0.2,6.9-2.4,8.4-5.8c0.1,1.3,0.7,2.4,1.6,3.4c1.1,1.2,2.3,1.6,3.2,1.7c0.4,0.1,0.8,0.1,1.2,0.1
		c2.4,0,4.7-1.6,5.7-3.8c0.3,0.6,0.6,1.2,1,1.8c1.2,2,2.8,3.7,4.8,5c1.4,1,3.1,1.6,4.9,1.9c0.2,0,0.3,0.1,0.5,0.1
		c0.6,0.1,1.3,0.1,1.9,0.1c1.9,0,3.7-0.4,5.7-1.2c0.5-0.2,1.1-0.5,1.7-0.9l0,0c1.4,1,3,1.6,4.4,2.1c1.1,0.4,2.3,0.8,3.7,0.9
		c1.2,0.3,2.4,0.4,3.7,0.4c1.2,0,2.5-0.1,3.9-0.4c3.3-0.6,6.4-2,9.5-4.3c0.4-0.3,1.8-1.5,1.8-1.5c1.1-1,2.1-2.1,3.2-3.6
		c0.3-0.5,1.6-2.3,1.9-3.1C110.8,76.3,113.3,70.2,111.3,62.7z M62.9,74.4c-0.4,0-0.8,0-1.1-0.1l0,0c-0.7-0.1-1.4,0-2.1-0.2l0.1-0.1
		c0.1-0.1,0.3-0.1,0.5-0.1v-0.1l0,0l0,0l0,0c-0.2,0-0.3,0-0.5,0h-0.1c-0.2,0-0.4,0-0.6,0l0,0c-0.2,0-0.4-0.1-0.6-0.1h-0.1
		c-0.2-0.1-0.4-0.1-0.5-0.2c0,0-0.1,0-0.1-0.1c-0.2-0.1-0.4-0.2-0.5-0.4c-1.1-0.8-1.8-1.8-2.1-3c0-0.2-0.1-0.4-0.1-0.6
		c0-0.4,0-0.8,0-1.2c0-0.5,0.2-1.1,0.3-1.6c0-0.1,0.1-0.2,0.1-0.3l0,0l0.2-0.1c0.1-0.1,0.3-0.2,0.4-0.3c0,0.6,0,1.2,0,1.8l0,0l0,0
		l0,0l0,0c0,0.2,0,0.3,0,0.5c0,0.1,0,0.1,0,0.2s0.1,0.2,0.1,0.3c0,0.1,0,0.1,0.1,0.2c0,0.1,0.1,0.2,0.2,0.3c0,0.1,0.1,0.1,0.1,0.2
		c0,0,0,0,0,0.1l0,0c0.2,0.3,0.5,0.6,0.8,0.8c0.1,0.1,0.2,0.1,0.3,0.2c0.1,0,0.1,0.1,0.2,0.1c0.1,0.1,0.2,0.1,0.4,0.1
		c0.1,0,0.1,0,0.2,0.1c0.2,0,0.4,0.1,0.6,0.1c0,0,0,0,0.1,0l0,0l0,0c0.2,0,0.3,0,0.5,0c0.1,0,0.1,0,0.2,0c0.1,0,0.3-0.1,0.4-0.1
		c0.1,0,0.1,0,0.2-0.1c0.2-0.1,0.4-0.2,0.6-0.3l0,0c0.2-0.1,0.4-0.2,0.7-0.4c0.1,0,0.1-0.1,0.2-0.1c0.2-0.1,0.4-0.2,0.5-0.4
		c0.1-0.1,0.1-0.1,0.2-0.2c0.3-0.2,0.5-0.4,0.8-0.7c1.4-1.3,2.5-2.7,3.5-4.3c0.1-0.1,0.2-0.3,0.3-0.4c0.8-1.5,1.6-3.1,2.1-4.7
		c0-0.1,0-0.1,0-0.2l0,0c0.4-0.9,0.6-1.7,0.8-2.1c0.1-0.5,0.2-0.9,0.1-1.4c0.1-0.7,0.2-1.4,0.2-2.1c0-0.4,0-0.8,0-1.2
		s-0.1-0.8-0.2-1.2c0-0.2-0.1-0.4-0.1-0.5c-0.2-0.5-0.4-1-0.7-1.5c-0.1-0.1-0.2-0.2-0.2-0.4c-0.1-0.1-0.1-0.2-0.2-0.2
		c0,0-0.1,0-0.1-0.1c-0.1-0.1-0.1-0.1-0.2-0.1c0,0-0.1,0-0.1-0.1c-0.1,0-0.1-0.1-0.2-0.1c0,0-0.1,0-0.1-0.1c-0.1,0-0.2-0.1-0.2-0.1
		h-0.1H68c-0.4-0.4-0.8-0.7-1.2-1c0.1,0,0.2-0.1,0.3-0.1c0.1,0,0.2-0.1,0.2-0.1c0.1,0,0.3-0.1,0.4-0.1s0.2,0,0.2,0
		c0.1,0,0.3,0,0.4,0h0.1c0,0,0,0,0.1,0l0,0c0,0,0,0,0.1,0s0.1,0,0.2,0s0.2,0,0.3,0c0.1,0,0.1,0,0.2,0s0.2,0.1,0.4,0.1
		c0.1,0,0.1,0,0.2,0.1c0.2,0.1,0.4,0.1,0.5,0.2l0,0c0.4,0.2,0.9,0.2,1.1,0.7c0.2,0.3,0.4,0.6,0.6,0.9c0.5,0.9,0.8,1.8,0.9,2.7
		c0.2,1.3,0.1,2.6-0.1,3.9c-0.2,2-0.7,3.9-1.5,5.8c-0.1,0.3-0.2,0.5-0.3,0.8C71,61.8,71,62,70.9,62.1l0,0c-0.2,0.5-0.4,0.9-0.6,1.4
		c-0.1,0.2-0.2,0.5-0.2,0.7c-0.2,0.5-0.4,0.9-0.7,1.3c-0.1,0.2-0.3,0.4-0.4,0.6s-0.3,0.4-0.4,0.6c-1.2,2-2.6,3.7-4.4,5.2
		c-0.3,0.2-0.6,0.5-0.9,0.7c-0.1,0.1-0.2,0.1-0.2,0.1c-0.2,0.1-0.3,0.2-0.5,0.3c-0.1,0.1-0.1,0.1-0.2,0.2l0,0l0,0c0,0,0.1,0,0.1-0.1
		l0,0c0.4-0.2,0.8-0.4,1.1-0.6c0.4-0.2,0.8-0.5,1.1-0.8c0.4-0.3,0.7-0.6,1-0.9l0,0c0.3-0.3,0.6-0.6,0.9-1c0.2-0.3,0.5-0.5,0.7-0.8
		c0.1-0.1,0.2-0.2,0.2-0.3c0.7-0.9,1.3-1.8,1.8-2.7c0.6-1.1,1.2-2.2,1.7-3.4l0,0c0.1-0.3,0.2-0.5,0.4-0.8c0-0.1,0.1-0.2,0.1-0.3
		c0.3-0.8,0.5-1.6,0.8-2.5c0.2,0.4,0.3,0.9,0.4,1.3c0,0.1,0.1,0.2,0.1,0.4l0,0l0,0c0,0.1,0.1,0.2,0.1,0.2c0.3,0.6,0.5,1.3,0.8,1.9
		c0,0.1,0.1,0.1,0.1,0.2c0.1,0.2,0.2,0.4,0.3,0.5c0.9,0.8,0.6,1.3,0.3,2.1c-0.3,1-0.8,1.9-1.3,2.7c-0.1,0.1-0.1,0.2-0.2,0.3l0,0
		c-0.2,0.3-0.3,0.6-0.5,0.9c-0.3,0.4-0.6,0.8-0.9,1.2c-0.3,0.4-0.6,0.8-1,1.2c-0.1,0.1-0.2,0.3-0.4,0.4c-0.2,0.2-0.4,0.4-0.6,0.6
		c-0.4,0.4-0.9,0.8-1.4,1.1c-0.1,0.1-0.3,0.1-0.4,0.2c-0.4,0.2-0.9,0.3-1.4,0.3c-0.2,0-0.4,0-0.6,0l0,0c-0.3,0-0.5,0-0.8,0l0,0
		c-0.1,0-0.2,0-0.3,0c-0.3,0-0.7,0-1,0c-0.2,0-0.5,0-0.7,0C63.2,74.4,63.1,74.4,62.9,74.4z M55.9,62.5c-0.2,0.1-0.3,0.2-0.5,0.3
		c-0.1,0.1-0.2,0.1-0.3,0.2c-0.2,0.1-0.5,0.3-0.7,0.4c0,0,0,0-0.1,0c-0.3,0.2-0.5,0.3-0.8,0.5c-1.4,0.9-2.5,2.1-3.3,3.4
		c-0.3,0.4-0.5,0.8-0.7,1.3c-0.3,0.6-0.6,1.2-0.8,1.8s-0.4,1-0.5,1.4c-0.1,0.3-0.2,0.5-0.2,0.6c0-0.5,0.1-1.4,0.3-2.4
		c0-0.1,0.1-0.3,0.1-0.4c0.1-0.3,0.2-0.7,0.3-1c0.2-0.8,0.5-1.6,1-2.4c0.4-0.7,0.7-1.4,1.2-2.1c0.3-0.5,0.6-1.1,0.9-1.6
		c0.3-0.5,0.7-1,1.1-1.5c0.6-1,1.5-1.8,2.5-2.5c1.6-1.1,3.3-2,5.1-2.5l0,0c0.1,0,0.2,0,0.3-0.1c0.1,0,0.1,0,0.2,0l0,0
		c0.2-0.1,0.4-0.1,0.6-0.1c0.1,0,0.1,0,0.2,0c0.1,0,0.3,0,0.4-0.1c0.1,0,0.1,0,0.2,0c0.2,0,0.4,0,0.6,0l0,0c0.2,0,0.4,0,0.6,0
		c0.1,0,0.1,0,0.2,0c0.2,0,0.3,0,0.5,0c0.1,0,0.1,0,0.2,0c0.2,0,0.4,0,0.6,0c0,0,0,0,0.1,0c0.2,0,0.4,0,0.5,0s0.1,0,0.2,0
		s0.2,0,0.4,0c0.1,0,0.1,0,0.2,0s0.2,0,0.3,0c0.1,0,0.1,0,0.2,0s0.1,0,0.2,0s0.1,0,0.2,0c0,0,0,0,0.1,0s0.2,0,0.2,0s0,0,0,0.1l0,0
		c0,0.1,0,0.1-0.1,0.2c0,0.1-0.1,0.2-0.1,0.2c0,0.1-0.1,0.1-0.1,0.2c-0.1,0.3-0.2,0.7-0.4,1c-0.1,0.2-0.2,0.4-0.3,0.6
		c-0.1,0.2-0.2,0.4-0.3,0.6c-0.1,0.3-0.3,0.6-0.4,0.8c-0.5,0.9-1,1.8-1.5,2.7c0,0.1-0.1,0.1-0.1,0.1l0,0c0,0,0,0-0.1,0l0,0l0,0
		c-0.1,0-0.1,0-0.2-0.1c-0.3-0.2-0.6-0.3-0.9-0.5c-0.2-0.1-0.3-0.2-0.5-0.3c-0.7-0.2-1.4-0.4-2.2-0.5l0,0l0,0c-0.1,0-0.1,0-0.2,0
		c-0.1,0-0.3,0-0.4,0c-0.1,0-0.3,0-0.4,0c-0.2,0-0.3,0.1-0.5,0.1c-0.1,0-0.3,0-0.4,0.1c-0.2,0-0.3,0.1-0.5,0.1
		c-0.1,0-0.3,0.1-0.4,0.1c-0.2,0.1-0.3,0.1-0.5,0.2c-0.1,0-0.2,0.1-0.4,0.1c-0.2,0.1-0.3,0.1-0.5,0.2C56.1,62.4,56,62.4,55.9,62.5z
		 M59.7,65.7c-0.2,0-0.4,0-0.6,0c0-0.1,0-0.2,0-0.3c0-0.2,0-0.4,0-0.6v-0.1c0-0.1,0-0.2,0-0.3c0.3-0.1,0.5-0.1,0.8-0.1
		c0.5,0.1,0.9,0.2,1.3,0.3l0.2,0.1c0.3,0.1,0.6,0.3,0.9,0.5c0.1,0,0.1,0.1,0.2,0.1c-0.2,0.2-0.4,0.5-0.7,0.7
		C61.1,65.8,60.4,65.7,59.7,65.7z M76.8,54.3c0.1,0.6,0.1,1.3,0.1,1.9c0,0.5-0.1,1-0.1,1.4c0,0.2,0,0.3-0.1,0.5
		c-0.1,0.4-0.1,0.8-0.2,1.2c-0.1,0.5-0.2,0.9-0.3,1.4c-0.1-0.2-0.1-0.3-0.2-0.5s-0.1-0.3-0.2-0.5c-0.1-0.6-0.3-1.1-0.5-1.6
		c0.2-1,0.4-2,0.5-2.9c0.1-1,0.3-2.5,0.1-4.1c0.2,0.4,0.4,0.8,0.5,1.3C76.7,53,76.8,53.6,76.8,54.3z M66.8,77.3
		c0.5,0,0.9-0.1,1.3-0.2c0.5,0.3,0.9,0.9,1.5,1.8s1.3,2,2.2,3.1c-0.2,0-0.3,0-0.5,0c-0.9-0.2-1.9-0.5-2.8-1
		c-1.1-0.8-1.8-1.7-2.2-2.8l-0.1-0.5c0-0.1,0-0.2-0.1-0.4C66.4,77.3,66.6,77.3,66.8,77.3z M78.5,47.8c-0.2-0.1-0.4-0.2-0.6-0.3
		l-0.2-0.1c-0.3-0.1-0.5-0.2-0.8-0.2c0.2-0.2,0.5-0.4,0.7-0.6c0.5-0.4,1.2-0.6,2.2-0.8h0.1c0.7,0,1.3,0.1,1.7,0.2
		c0.8,0.2,1.5,0.6,2.3,1.1C82.3,47.4,81,47.7,80,48c-0.3,0.1-0.5,0.1-0.7,0.1C79.1,48.1,78.9,48,78.5,47.8z M80.9,40.3
		c0.1,0,0.2,0,0.3,0.1c0.3,0,0.6,0.1,0.9,0.2c0.1,0,0.3,0.1,0.4,0.1c0.2,0.1,0.5,0.1,0.7,0.2c0.1,0,0.3,0.1,0.4,0.2
		c0.2,0.1,0.4,0.2,0.6,0.3c0.1,0.1,0.2,0.1,0.4,0.2c0.2,0.1,0.3,0.2,0.5,0.3c0.1,0.1,0.2,0.1,0.3,0.2c0.2,0.1,0.3,0.2,0.5,0.4
		c0.1,0.1,0.2,0.1,0.2,0.2c0.2,0.2,0.4,0.3,0.5,0.5c0,0,0.1,0,0.1,0.1c0.2,0.2,0.4,0.4,0.5,0.6c0,0.1,0.1,0.1,0.1,0.2
		c0.1,0.1,0.2,0.3,0.3,0.4c0,0.1,0.1,0.1,0.1,0.2c0.1,0.1,0.1,0.2,0.2,0.3c0,0.1,0.1,0.1,0.1,0.2c0.1,0.1,0.1,0.2,0.2,0.3
		c0,0.1,0.1,0.1,0.1,0.2c0,0.1,0.1,0.2,0.1,0.3c0,0,0,0.1,0.1,0.1c0,0.1,0.1,0.2,0.1,0.2s0,0,0,0.1s0.1,0.1,0.1,0.2
		c0,0,0,0.1,0.1,0.1c0,0.1,0.1,0.1,0.1,0.2l0,0c-0.1,0-0.3,0-0.4,0c0,0,0,0-0.1,0l0,0c-0.2-0.2-1.6-1.5-3.6-2.6
		c-0.7-0.3-1.4-0.7-2.2-0.9l0,0c-0.2-0.1-0.4-0.1-0.7-0.2c-0.1,0-0.2,0-0.2,0c-0.2,0-0.3,0-0.5-0.1c-0.1,0-0.2,0-0.3,0
		c-0.1,0-0.3,0-0.4,0s-0.2,0-0.3,0c-0.1,0-0.1,0-0.2,0s-0.3,0-0.4,0c-0.3,0.1-0.7,0.1-1,0.2c-0.3,0.1-0.6,0.2-0.9,0.3
		c-0.6,0.2-1.2,0.5-1.8,0.9c-0.4,0.3-0.8,0.6-1.2,1c-0.1-0.1-0.2-0.1-0.3-0.2c-0.2-0.1-0.4-0.3-0.7-0.4c-0.2-0.1-0.8-0.4-1.5-0.4
		c-0.1,0-0.1,0-0.2,0s-0.2-0.1-0.3-0.1l0,0c-0.3-0.1-0.5-0.2-0.8-0.3l0,0c0.4-0.4,0.8-0.7,1.2-1.1c1.2-1,2.5-1.7,4.1-2l0,0
		c0.6-0.1,1.2-0.2,1.7-0.3c0,0,0,0,0.1,0c0.5-0.1,1-0.1,1.5-0.1h0.1c0,0,0,0,0.1,0C80,40.3,80.4,40.3,80.9,40.3z M55.7,45.9
		L55.7,45.9c0.1-0.3,0.2-0.5,0.3-0.6c0,0,0,0,0.1-0.1c0.1-0.2,0.2-0.3,0.4-0.5l0,0c0.1-0.1,0.3-0.3,0.5-0.4c0,0,0.1,0,0.1-0.1
		c0.2-0.1,0.3-0.2,0.5-0.3h0.1c0.2-0.1,0.4-0.1,0.6-0.2h0.1c0.2,0,0.4-0.1,0.6-0.1l0,0l0,0c0.3,0,0.5,0,0.7,0.1
		c0.6,0.2,0.9,0.4,1.2,0.8c0.4,0.6,0.3,1.3-0.1,2.1c-0.1-0.3-0.6-1.4-0.9-1.6c-0.1-0.1-0.2-0.1-0.3-0.1h-0.1c-0.1,0-0.1,0-0.2,0
		c0,0,0,0-0.1,0c0,0,0,0-0.1,0H59h-0.1h-0.1c0,0-0.1,0-0.1,0.1c0,0,0,0-0.1,0s-0.1,0.1-0.2,0.1l0,0l-0.1,0.1c0,0,0,0,0,0.1v0.1
		c0,0,0,0,0,0.1v0.1v0.1v0.1c0,0,0,0,0,0.1s0.1,0.2,0.1,0.2l0,0c0.1,0.1,0.1,0.1,0.2,0.2l0.1,0.1c0.1,0.1,0.1,0.1,0.2,0.2l0.1,0.1
		c0.1,0,0.2,0.1,0.3,0.1s0.1,0.1,0.2,0.1c0.1,0.1,0.2,0.1,0.4,0.2c0.1,0,0.1,0,0.2,0.1c0.2,0.1,0.4,0.1,0.6,0.2l0,0
		c0.4,0.1,1,0.3,1.6,0.5l0,0c0.4,0.1,0.8,0.3,1.2,0.5c0.9,0.4,1.8,1,2.7,1.9c0.4,0.4,0.6,0.8,0.9,1.2c-0.4-0.3-1.4-1-2-1.2l0,0l0,0
		l0,0l0,0c-0.2-0.1-0.4-0.2-0.6-0.3c-2.5-1.2-5.4-1.9-8.8-2.2c-0.1-0.1-0.1-0.3-0.1-0.4c0-0.2,0-0.5,0-0.7v-0.1
		C55.6,46.3,55.6,46.1,55.7,45.9z M26.3,86.2L26.3,86.2c-0.7,0.2-1.3,0.4-2.1,0.5c-0.1,0-0.2,0-0.3,0h-0.1c-0.1,0-0.2,0-0.3,0h-0.1
		c-0.1,0-0.2,0-0.3,0H23c-0.1,0-0.3,0-0.4-0.1c0,0,0,0-0.1,0c-0.2,0-0.3-0.1-0.5-0.1h-0.1c-0.1,0-0.3-0.1-0.4-0.1s-0.1,0-0.2-0.1
		s-0.2-0.1-0.4-0.2c-0.1,0-0.1-0.1-0.2-0.1c-0.2-0.1-0.3-0.2-0.5-0.3c-0.1-0.1-0.1-0.1-0.2-0.2l0,0c-0.2-0.2-0.4-0.4-0.6-0.6
		s-0.3-0.4-0.4-0.6s-0.2-0.4-0.2-0.6c-0.1-0.2-0.1-0.4-0.1-0.7v-0.1c0-0.2,0-0.3,0-0.5c0-0.1,0.1-0.3,0.1-0.4
		c0.1-0.4,0.3-0.8,0.5-1.1c0.3-0.4,0.7-0.7,1.3-0.9c0.2-0.1,0.4-0.1,0.5-0.2c0.1,0,0.1,0,0.2,0s0.2,0,0.2,0c0.1,0,0.1,0,0.2,0h0.1
		c0.2,0,0.3,0.1,0.5,0.1h0.1c0.2,0.1,0.3,0.2,0.5,0.3c0.1,0.1,0.2,0.1,0.2,0.2l0,0c0.2,0.2,0.3,0.5,0.4,0.7c0,0.1,0,0.2,0,0.3
		c0,0.3-0.1,0.5-0.2,0.8c-0.1,0.1-0.2,0.3-0.3,0.3c0,0-0.1,0-0.2,0l0,0h-0.1c-0.1,0-0.1-0.1-0.1-0.1v-0.1c0.2-0.5,0.1-0.9-0.4-1.2
		C22.1,81,22,81,21.9,81h-0.1h-0.1l0,0c-0.1,0-0.2,0-0.2,0h-0.1c-0.1,0-0.2,0.1-0.3,0.2l0,0c-0.4,0.3-0.4,0.8-0.2,1.3
		c0,0.1,0.1,0.2,0.2,0.3c0,0,0,0.1,0.1,0.1c0,0.1,0.1,0.1,0.1,0.2l0.1,0.1l0.1,0.1l0.1,0.1l0.1,0.1c0,0,0.1,0,0.1,0.1
		c0,0,0.1,0,0.1,0.1H22h0.1c0,0,0,0,0.1,0c0,0,0,0,0.1,0l0,0l0,0l0,0l0,0c0.3,0.1,0.5,0.1,0.7,0.1c0,0,0,0,0.1,0s0.3,0,0.4,0h0.1
		c0.2,0,0.4-0.1,0.5-0.1s0.1,0,0.2-0.1c0.1,0,0.2-0.1,0.3-0.2c0.1,0,0.1-0.1,0.2-0.1c0.1-0.1,0.2-0.1,0.3-0.2c0.1,0,0.1-0.1,0.2-0.1
		c0.1-0.1,0.2-0.1,0.3-0.2c0.1,0,0.1-0.1,0.2-0.1c0.1-0.1,0.2-0.2,0.3-0.3l0.1-0.1c0.1-0.1,0.3-0.3,0.4-0.4c0.3-0.4,0.6-0.8,0.9-1.3
		c0.1-0.2,0.2-0.3,0.3-0.5c0.6-1.6,1.1-3.2,1.7-4.7c0.2-0.6,0.4-1.2,0.7-1.8c0-0.1,0.1-0.2,0.1-0.3s0.1-0.2,0.1-0.3
		c0.1-0.2,0.1-0.3,0.3-0.5c0.1-0.3,0.2-0.6,0.3-0.9c0.1-0.3,0.3-0.6,0.4-0.9c0.3-0.5,0.6-1,0.9-1.4c0-0.1,0.1-0.1,0.1-0.2
		c0.3-0.4,0.6-0.8,0.9-1.1s0.6-0.7,0.9-1c0.6-0.7,1.3-1.3,2.1-1.9c0.2-0.1,0.3-0.2,0.4-0.4l0,0l0,0l0,0c-0.3,0.2-0.5,0.3-0.8,0.5
		c-0.7,0.5-1.5,0.9-2.3,1.2c-0.1,0-0.2,0.1-0.3,0.1l0,0c-0.2,0.1-0.4,0.1-0.6,0.2c-0.1,0-0.1,0-0.2,0.1c-0.1,0-0.3,0.1-0.4,0.1
		c-0.1,0-0.2,0-0.2,0c-0.1,0-0.3,0.1-0.4,0.1s-0.1,0-0.2,0c-0.2,0-0.4,0-0.6,0l0,0l0,0c-0.3,0-0.5,0-0.8-0.1c-0.1,0-0.1,0-0.2,0
		c-0.3,0-0.5-0.1-0.8-0.2c0,0-0.1,0-0.1-0.1c-0.1-0.1-0.3-0.1-0.4-0.2c-1-0.5-1.7-1.3-2.1-2.3c0-0.1-0.1-0.1-0.1-0.2v-0.1
		c-0.1-0.2-0.2-0.5-0.2-0.7c0-0.1,0-0.2,0-0.3c0-0.2,0-0.4,0-0.5s0-0.2,0.1-0.3c0-0.2,0.1-0.3,0.1-0.5c0-0.1,0.1-0.2,0.1-0.2
		c0.1-0.2,0.1-0.3,0.2-0.4c0-0.1,0.1-0.1,0.2-0.2c0.1-0.1,0.2-0.3,0.3-0.4c0.1-0.1,0.1-0.1,0.2-0.2c0.1-0.1,0.2-0.2,0.4-0.3
		c0.1-0.1,0.2-0.1,0.3-0.1c0.1-0.1,0.3-0.1,0.4-0.2c0.1,0,0.2,0,0.3,0c0.1,0,0.3-0.1,0.4-0.1l0,0c0.9,0,1.6,0.3,2.1,1.1
		c0.4,0.6,0.2,1.4-0.3,2.2c0,0-0.1,0.1-0.1,0.2l0,0c-0.2-0.1-0.1-0.3-0.1-0.5l0,0c0-0.2-0.1-0.4-0.1-0.5s-0.1-0.1-0.1-0.1
		c0-0.1-0.1-0.2-0.2-0.3l-0.1-0.1c-0.1,0-0.1-0.1-0.2-0.1s-0.1,0-0.2,0s-0.1,0-0.2,0s-0.1,0-0.2,0l0,0c-0.1,0-0.2,0.1-0.3,0.1
		c-0.4,0.2-0.6,0.7-0.5,1.3c0,0.1,0.1,0.2,0.1,0.3c0.1,0.2,0.2,0.3,0.3,0.4c0,0,0,0.1,0.1,0.1c0.1,0.1,0.2,0.2,0.4,0.3h0.1
		c0.1,0.1,0.3,0.1,0.4,0.2H30c0.2,0,0.4,0.1,0.6,0.1c0,0,0,0,0.1,0h0.1c0.2,0,0.4,0,0.7-0.1c1.8-0.3,3.2-1.3,4.5-2.4
		c1.6-1.3,3.1-2.7,4.6-4.1l0,0c0.2-0.2,0.4-0.4,0.6-0.5c0.5-0.5,1-0.9,1.5-1.4c0.4-0.3,0.7-0.6,1.1-0.9c0.8-0.6,1.6-1.2,2.4-1.7
		c0.4-0.3,0.8-0.5,1.3-0.7c0.2-0.1,0.4-0.2,0.6-0.3c1.3-0.7,2.7-1.1,3.9-1.4c0.1,0,0.2-0.1,0.3-0.1l0,0c0.3-0.1,0.7-0.1,1-0.2
		c0.1,0,0.2,0,0.3,0c0.2,0,0.4-0.1,0.6-0.1c0.1,0,0.2,0,0.4,0s0.4,0,0.6,0c0.1,0,0.1,0,0.2,0c0.3,0.1,0.5,0.2,0.8,0.2
		c3,0.2,5.6,0.9,7.8,1.9c-1.1,0-2,0.1-2.8,0.3c-0.4,0-0.7,0.1-0.9,0.2c-2.2,0.6-4.2,1.6-6.1,3c-1,0.7-2.1,1.6-2.9,2.8
		c-0.5,0-0.9,0.1-1,0.1c-0.9,0.2-1.7,0.4-2.5,0.7c-0.1,0-0.2,0-0.3,0s-0.1,0-0.2,0c-0.1,0-0.3,0-0.4,0c-0.3,0-0.6,0-0.9,0.1
		c-0.1,0-0.3,0-0.4,0.1c-0.3,0.1-0.7,0.1-1,0.2c-0.1,0-0.2,0-0.3,0.1c-0.4,0.1-0.8,0.3-1.2,0.4c-0.1,0-0.2,0.1-0.3,0.1
		c-0.3,0.1-0.6,0.3-0.9,0.4c-0.1,0.1-0.3,0.1-0.4,0.2c-0.3,0.2-0.5,0.3-0.8,0.5c-0.1,0.1-0.2,0.2-0.3,0.2c-0.4,0.3-0.7,0.6-1.1,0.9
		c-0.1,0.1-0.3,0.2-0.4,0.3c-0.1,0-0.1,0.1-0.2,0.1l0,0l0,0l0,0c0.1,0,0.1,0.1,0.2,0.1l0,0l0,0H39l0,0c0,0,0.1,0,0.1-0.1l0.1-0.1
		c1.3-0.9,2.7-1.6,4.2-2.2c0.5-0.2,1-0.4,1.5-0.5c0.2,0,0.3-0.1,0.5-0.1c0.1,0,0.1,0,0.2,0c0.1,0,0.1,0,0.2,0
		c-1.1,0.5-2.2,1.2-3.2,2c-2.3,1.8-3.7,3.6-4.5,5.8c-0.3,0.6-0.5,1.2-0.6,1.9l0,0c-0.6,0.8-1.2,1.6-1.8,2.5l0,0
		c-1.3,0.2-2.4,0.9-3.3,1.9c-2,2.3-1.9,5.7,0.1,8.1l0,0c-0.1,0.1-0.2,0.2-0.4,0.3C30,84.3,28.3,85.5,26.3,86.2z M43.5,76.3
		c-0.1,0.1-0.1,0.3-0.2,0.4c-0.2,0.7-0.4,1.4-0.8,2c-1.1,1.8-2.9,3-5.3,3.1l0,0c-0.1,0-0.2,0-0.3,0l0,0c-0.2,0-0.4,0-0.6,0h-0.1
		c-0.2,0-0.4-0.1-0.6-0.1h-0.1c-0.2-0.1-0.4-0.2-0.6-0.3c0,0,0,0-0.1,0c-0.2-0.1-0.4-0.3-0.5-0.5c-0.6-0.7-1-1.4-1-2.2
		c-0.1-0.8,0.2-1.5,0.7-2.2l0,0c0.1-0.1,0.3-0.3,0.4-0.4l0.1-0.1c0.1-0.1,0.2-0.1,0.3-0.2c0.1,0,0.1-0.1,0.2-0.1
		c0.1,0,0.2-0.1,0.3-0.1s0.1,0,0.2,0c0.1,0,0.2,0,0.3,0s0.1,0,0.2,0c0.1,0,0.1,0,0.2,0c0.1,0,0.2,0,0.3,0s0.1,0,0.2,0c0,0,0,0,0.1,0
		l0,0c0.1,0,0.1,0.1,0.2,0.1c0,0,0.1,0,0.1,0.1c0.1,0.1,0.2,0.1,0.3,0.2l0,0c0.1,0.1,0.2,0.3,0.3,0.4s0.1,0.2,0.1,0.3
		c0.1,0.2,0.1,0.5,0.1,0.7s-0.1,0.3-0.1,0.5l0,0c-0.1,0.1-0.1,0.2-0.2,0.2c0,0,0,0-0.1,0.1l-0.1,0.1h-0.1c0,0-0.1,0-0.1,0.1h-0.1H37
		l0,0l0,0c-0.1,0-0.2,0-0.3-0.1c0,0,0,0-0.1,0c-0.1-0.1-0.2-0.1-0.4-0.3l0,0l0,0l0,0l0,0h0.1c0.3-0.1,0.6-0.2,0.6-0.7
		c0-0.1,0-0.2-0.1-0.2c0,0,0,0,0-0.1l-0.1-0.1c0,0,0,0-0.1,0c0,0-0.1,0-0.1-0.1h-0.1h-0.1l0,0l0,0h-0.1l0,0c-0.5,0-0.8,0.3-0.9,0.8
		c0,0.1,0,0.2,0,0.3c0,0.2,0.1,0.5,0.2,0.7c0.1,0.1,0.1,0.2,0.2,0.3c0.1,0.1,0.2,0.1,0.2,0.1l0,0c0.1,0.1,0.2,0.1,0.3,0.1h0.1
		c0.2,0.1,0.3,0.1,0.5,0.1l0,0c0,0,0,0,0.1,0s0.2,0,0.3,0h0.1c0.1,0,0.2-0.1,0.2-0.1l0.1-0.1c0.1-0.1,0.2-0.1,0.2-0.2l0.1-0.1
		c0.1-0.1,0.2-0.2,0.3-0.4l0,0c0.3-0.4,0.5-0.9,0.6-1.4c0.2-0.8,0.3-1.6,0.3-2.5c0.1-1,0.2-2,0.3-3l0,0c0.1-0.7,0.3-1.4,0.6-2.1
		c0.1-0.2,0.2-0.5,0.3-0.7c0.7-1.6,1.9-2.8,3.3-3.9c0.5-0.4,1-0.7,1.5-1c0.9-0.5,1.9-1,2.9-1.3c-0.3,0.5-0.6,1-0.8,1.5
		c-0.1,0.2-0.2,0.4-0.3,0.6c-1.6,2.8-1.9,6-2,7.6c0,0.6,0.1,1.1,0.4,1.6l0,0l-0.1,0.1c-0.1,0-0.1,0.1-0.2,0.2
		c-0.1,0.1-0.2,0.2-0.2,0.3c0,0.1-0.1,0.1-0.1,0.2c-0.1,0.1-0.2,0.2-0.2,0.3c0,0,0,0.1-0.1,0.1c-0.2,0.3-0.4,0.6-0.6,0.9
		c-0.1,0.1-0.1,0.2-0.2,0.4C43.5,76.1,43.5,76.2,43.5,76.3z M55,78.2c0,0.2,0,0.3-0.1,0.5l0,0c0,0.2-0.1,0.4-0.2,0.6
		c0,0.1-0.1,0.1-0.1,0.2c-0.1,0.1-0.1,0.2-0.2,0.3c0,0.1-0.1,0.1-0.1,0.2c-0.1,0.1-0.2,0.2-0.2,0.3c-0.1,0.1-0.1,0.1-0.2,0.2
		c-0.1,0.1-0.2,0.2-0.3,0.2s-0.1,0.1-0.2,0.1c-0.1,0.1-0.3,0.1-0.4,0.2c0,0-0.1,0-0.1,0.1c-0.2,0.1-0.4,0.1-0.6,0.2h-0.1
		c-0.1,0-0.2,0-0.4,0h-0.1h-0.1c-0.2,0-0.4,0-0.5-0.1c-0.5,0-0.9-0.2-1.2-0.5c-0.1-0.1-0.2-0.2-0.3-0.3c-0.2-0.2-0.3-0.4-0.4-0.5
		c-0.4-0.6-0.4-1.2-0.3-1.9c0-0.2,0.1-0.3,0.1-0.5c0.1-0.2,0.1-0.5,0.2-0.7c0.1-0.2,0.2-0.5,0.3-0.7c0-0.1,0.1-0.2,0.1-0.3
		c0.2-0.5,0.5-0.9,0.8-1.4c0.2-0.3,0.5-0.6,0.7-0.9l0,0c0.5-0.6,1-1.1,1.5-1.6l0,0c0.2,0.4,0.4,0.8,0.6,1.2
		c-0.5,0.5-0.9,1.1-1.3,1.7l0,0c0,0,0,0-0.1,0.1c-0.1,0.3-0.3,0.6-0.4,0.9c-0.1,0.3-0.3,0.6-0.3,1c0,0.2-0.1,0.4-0.1,0.6
		c0,0.5,0.2,1,0.6,1.5l0,0c0.1,0.1,0.3,0.1,0.4,0.2l0,0c0.1,0,0.2,0.1,0.4,0.1l0,0l0,0c0.1,0,0.2,0,0.3,0l0,0c0.1,0,0.2-0.1,0.3-0.2
		c0.3-0.2,0.4-0.5,0.4-0.8v-0.1c0-0.1,0-0.1-0.1-0.2s-0.2-0.1-0.3-0.2h-0.1c-0.1,0-0.1,0-0.2,0l0,0l0,0c-0.1,0-0.2,0-0.2,0.1
		c0,0,0,0-0.1,0s-0.2,0.1-0.3,0.2l0,0c-0.1,0.1-0.2,0.2-0.2,0.2c-0.1,0.1-0.2,0.2-0.3,0.3l0,0c0.1-0.5,0.2-0.9,0.4-1.3
		c0.2-0.3,0.4-0.5,0.7-0.6l0,0c0.1-0.1,0.3-0.1,0.4-0.1h0.1h0.1c0.1,0,0.2,0,0.3,0l0,0c0.1,0,0.3,0.1,0.4,0.2c0,0,0.1,0,0.1,0.1
		c0.1,0.1,0.2,0.2,0.4,0.3l0,0c0.1,0.1,0.2,0.3,0.3,0.4C54.9,77.6,55,77.9,55,78.2z M75.1,85.4L75.1,85.4c-0.3,0.1-0.6,0.3-1,0.4
		c-0.1,0-0.2,0.1-0.3,0.1c-0.3,0.1-0.6,0.2-1,0.3l0,0c-0.3,0.1-0.7,0.1-1,0.2c-0.1,0-0.2,0-0.3,0c-0.3,0-0.7,0.1-1,0.1l0,0l0,0
		c-0.1,0-0.2,0-0.4,0c-0.1,0-0.3,0-0.4,0s-0.3,0-0.4,0s-0.3,0-0.4,0s-0.2,0-0.3,0c-1-0.1-2-0.4-2.9-0.9c-0.3-0.2-0.6-0.3-0.9-0.5
		l0,0c-0.1-0.1-0.2-0.1-0.3-0.2c-1.5-1-2.8-2.3-3.7-3.9c-0.5-0.7-0.9-1.4-1.1-2.3c-0.2-0.4-0.3-0.8-0.4-1.3l0,0
		c0.6,0.1,1.1,0.1,1.6,0.1c0.2,0,0.3,0,0.5,0c0.5,0,1.1,0.1,1.7,0.1l0,0c0.1,0.5,0.2,1.1,0.3,1.6c0.1,0.2,0.2,0.5,0.3,0.7
		c0.2,0.5,0.4,0.9,0.7,1.3c0.1,0.2,0.3,0.4,0.5,0.6c0.6,0.7,1.3,1.4,2.1,1.9c1.3,0.7,2.6,1.2,4.1,1.5l0,0c0.3,0,0.6,0,0.8,0
		c0.1,0,0.1,0,0.2,0s0.3,0,0.4,0c0.3,0,0.5,0,0.8,0c0.1,0,0.3,0,0.4,0c0.3,0,0.5-0.1,0.8-0.1l0,0l0,0C74.7,85,74.9,85.2,75.1,85.4
		L75.1,85.4L75.1,85.4z M108.8,72c-0.4,2.3-1.1,4-1.4,4.7c0,0.1-0.1,0.1-0.1,0.2c-0.1,0.2-0.3,0.4-0.4,0.7c-0.2,0.3-0.3,0.5-0.5,0.8
		s-0.3,0.5-0.4,0.7c-0.1,0.1-0.1,0.2-0.1,0.2c-0.1,0.2-0.3,0.4-0.4,0.6c-0.3,0.4-0.6,0.7-0.9,1c-0.5,0.5-0.9,1-1.5,1.5
		c0,0-0.1,0.1-0.3,0.2c-0.4,0.4-1.2,1-1.4,1.1c-2.1,1.6-4.5,2.9-7.1,3.5c-0.4,0.1-0.7,0.2-1.1,0.2l0,0c-0.6,0.1-1.1,0.2-1.7,0.2l0,0
		c-0.6,0.1-1.1,0.1-1.7,0.1l0,0l0,0c-0.5,0-1.1,0-1.6-0.1l0,0c-0.5-0.1-1.1-0.2-1.6-0.3l0,0c-1.1-0.1-2.1-0.4-3.1-0.8
		c-0.2-0.1-0.5-0.2-0.7-0.3c-0.9-0.4-1.9-0.8-2.7-1.3l0,0l0,0c-0.1-0.1-0.2-0.1-0.3-0.2c-1.6-0.9-2.9-2-4.2-3.3l0,0l0,0
		c-0.2-0.2-0.3-0.3-0.5-0.5c-0.3-0.2-0.5-0.5-0.7-0.8c-0.8-0.9-1.4-1.9-2-2.8c-0.3-0.5-0.7-1.1-1.1-1.5c0.4-0.3,0.7-0.6,1-0.9
		c0.1-0.1,0.2-0.2,0.3-0.3c0.2-0.2,0.5-0.5,0.8-0.8l0.1-0.2c0.9-1,1.9-2.2,2.6-3.6l0.1-0.3c0.6-0.9,1.2-2,1.6-3.3l0.1-0.2
		c0.1-0.3,0.3-0.8,0.3-1.4c0.2-0.3,0.3-0.6,0.4-0.7c0.7-1.8,1.2-3.6,1.5-5.5c0.2-1.3,0.3-2.9,0.1-4.6c-0.1-1-0.3-2-0.6-2.9
		c0.1,0,0.1,0,0.2,0s0.3,0,0.4,0s0.2,0,0.3,0c0.3,0,0.6-0.1,0.9-0.2c0.2-0.1,0.4-0.1,0.7-0.2c0.1,0,0.2,0,0.2-0.1
		c0.2,0,0.4-0.1,0.6-0.1c0.1,0,0.2-0.1,0.4-0.1c0.2,0,0.4-0.1,0.6-0.1c0.1,0,0.3-0.1,0.4-0.1c0.2,0,0.4-0.1,0.7-0.1
		c0.2,0,0.3,0,0.5-0.1c0.2,0,0.5-0.1,0.7-0.1s0.4,0,0.6-0.1c0.2,0,0.5,0,0.7-0.1c0.2,0,0.4,0,0.6,0h0.1l0,0c0.2,0,0.5,0,0.7,0
		s0.4,0,0.6,0c0.1,0,0.3,0,0.5,0l0,0c0.1,0,0.2,0,0.3,0c0.3,0,0.6,0,0.9,0c0.2,0,0.5,0,0.7,0c0.3,0,0.6,0.1,0.9,0.1
		c0.2,0,0.5,0.1,0.7,0.1c0.3,0,0.6,0.1,0.9,0.2c0.2,0,0.5,0.1,0.7,0.1c0.3,0.1,0.6,0.1,1,0.2c0.2,0.1,0.5,0.1,0.7,0.2
		c0.3,0.1,0.6,0.2,1,0.3c0.2,0.1,0.5,0.2,0.7,0.3c0.3,0.1,0.7,0.3,1,0.4c0.2,0.1,0.4,0.2,0.6,0.3c0.4,0.2,0.7,0.4,1,0.6
		c0.2,0.1,0.4,0.2,0.5,0.3c0.5,0.3,1,0.7,1.5,1.1c3.2,2.7,4.9,7.3,5.4,9V63c0,0.2,0.1,0.3,0.1,0.4v0.1c0.4,1.6,0.6,3.1,0.6,4.5v0.1
		C109.1,69.5,109,70.8,108.8,72z"/>
	<path class="st1" d="M81.7,60.1c0,0,0.2-0.2,0.4-0.4c0.1-0.1,0.2-0.3,0.4-0.4c0,0,0,0,0.1-0.1c1-1.1,2.6-2.9,3.5-3.7l0,0
		c-0.2,0.1-0.4,0.2-0.5,0.3c-0.4,0.3-0.9,0.6-1.3,0.9c-0.2,0.2-0.4,0.3-0.6,0.5c-2.5,2-3.9,4.3-4.6,6c0,0.1-0.1,0.2-0.1,0.3
		c-0.2,0.4-0.3,0.8-0.4,1.1c-0.1,0.2-0.1,0.5-0.2,0.6c0,0.1-0.1,0.5-0.3,1.1c-0.1,0.8-0.3,1.9-0.3,3c0,0.3,0,0.6,0.1,0.9
		c0.3,2.2,0.7,4.4,1.9,6.3c0,0,0,0,0.1,0c0-0.1-0.1-0.2-0.1-0.2c-0.6-1.4-0.9-3-1-4.5c-0.1-1.8,0-3.6,0.3-5.3
		c0.2-0.8,0.4-1.6,0.7-2.5c0.1-0.2,0.2-0.4,0.2-0.6C80.5,62.2,81,61.1,81.7,60.1z"/>
	<polygon class="st1" points="99.9,84.3 99.9,84.3 99.9,84.3 99.9,84.3 99.9,84.3 99.9,84.3 99.9,84.3 99.9,84.3 99.9,84.3 
		99.9,84.3 	"/>
	<path class="st1" d="M106.1,66.1L106.1,66.1c0.2,1,0.2,2.1,0.1,3.2c0,0.6-0.1,1.2-0.2,1.8c-0.1,0.6-0.2,1.1-0.4,1.7
		c-0.4,1.3-0.9,2.5-1.5,3.6c-1,1.9-2.4,3.5-4,5c-0.1,0.1-0.2,0.2-0.4,0.2c-0.1,0-0.1,0.1-0.2,0.1c0,0.1-0.1,0.2-0.1,0.3
		c-0.1,0.1-0.2,0.1-0.3,0.2c-0.9,0.7-1.8,1.2-2.7,1.7c-1.6,0.8-3.2,1.4-5,1.9c-0.1,0-0.2,0.1-0.4,0.1l0,0h-0.1l0,0
		c-0.1,0-0.1,0-0.2-0.1l0,0l0,0c0,0,0,0,0,0.1l0,0l0,0l0,0l0,0l0,0l0,0h0.1l0,0l0,0c0,0,0,0,0.1,0l0,0V86l0,0l0,0l0,0
		c0.4,0,0.7,0,1.1,0c1.8-0.2,3.6-0.7,5.2-1.4c0.7-0.3,1.3-0.7,1.9-1.1c0.1-0.1,0.3-0.2,0.4-0.2l0,0c0.1-0.2,0.2-0.3,0.3-0.4
		c0.4-0.4,0.8-0.6,1.2-1c2.7-2.3,4.7-5.1,5.5-8.6c0.1-0.2,0.1-0.5,0.2-0.7c0.1-0.5,0.1-1.1,0.2-1.6v-0.1c0-0.9-0.1-1.8-0.2-2.6
		C106.5,67.5,106.3,66.8,106.1,66.1z"/>
	<polygon class="st1" points="90.5,78.5 93,82 93.5,81.7 93.9,81.5 93.9,81.5 90.8,76.9 95.7,74.4 95.7,74.4 93.6,70.5 93,69.2 
		93,69.2 94.6,68.5 98.4,67 96,61.7 101.3,60.3 100.7,59.5 100.7,59.5 94.4,61 96.6,66.3 91.3,68.7 91.3,68.7 92.1,70.2 94.1,73.7 
		94.1,73.7 91.9,75 89.1,76.7 89.1,76.7 	"/>
	<path class="st1" d="M83.3,58.8L83.3,58.8L83.3,58.8L83.3,58.8L83.3,58.8L83.3,58.8L83.3,58.8L83.3,58.8z"/>
	<polygon class="st1" points="84.9,76 90.6,73.2 90.6,73.2 87.6,67.3 87.4,67 87.4,67 93.8,64.5 91,58.3 97.1,56.7 97.1,56.7 
		96.8,56.2 96.5,55.8 96.5,55.8 89.1,57.4 89.1,57.4 91.7,63.7 91.7,63.7 89.4,64.7 85.5,66.5 85.5,66.5 86.7,68.6 88.8,72.3 
		88.8,72.3 85.2,74.5 83,75.8 83,75.8 86.2,80.3 87.4,82 88.5,81.4 88.5,81.4 	"/>
	<line class="st0" x1="59.7" y1="65.7" x2="59.7" y2="65.7"/>
</g>
<path class="st1" d="M64,5c32.5,0,59,26.5,59,59s-26.5,59-59,59S5,96.5,5,64S31.5,5,64,5 M64,0C28.7,0,0,28.7,0,64s28.7,64,64,64
	s64-28.7,64-64S99.3,0,64,0L64,0z"/>
<path class="st1" d="M27.7,31.6c-0.5,0-1-0.2-1.4-0.5c-0.8-0.8-0.8-2-0.1-2.8C35.8,18.1,48.8,12.4,62.6,12
	c13.9-0.3,27.1,4.7,37.2,14.3c0.8,0.8,0.8,2,0.1,2.8c-0.8,0.8-2,0.8-2.8,0.1C87.7,20.4,75.5,15.6,62.7,16S38,21.7,29.2,31
	C28.8,31.4,28.3,31.6,27.7,31.6z"/>
<path class="st1" d="M64,116c-12.9,0-25.7-4.7-35.8-14.3c-0.8-0.8-0.8-2-0.1-2.8c0.8-0.8,2-0.8,2.8-0.1C50.2,117,80.6,116.2,98.8,97
	c0.8-0.8,2-0.8,2.8-0.1c0.8,0.8,0.8,2,0.1,2.8C91.5,110.6,77.8,116,64,116z"/>
</svg>
