<?xml version="1.0" encoding="utf-8"?>
<!-- Generator: Adobe Illustrator 21.1.0, SVG Export Plug-In . SVG Version: 6.00 Build 0)  -->
<svg version="1.1" id="Layer_1" xmlns="http://www.w3.org/2000/svg" xmlns:xlink="http://www.w3.org/1999/xlink" x="0px" y="0px"
	 viewBox="0 0 128 128" style="enable-background:new 0 0 128 128;" xml:space="preserve">
<style type="text/css">
	.st0{fill:#612953;}
</style>
<path class="st0" d="M64,5c32.5,0,59,26.5,59,59s-26.5,59-59,59S5,96.5,5,64S31.5,5,64,5 M64,0C28.7,0,0,28.7,0,64s28.7,64,64,64
	c35.3,0,64-28.7,64-64S99.3,0,64,0L64,0z"/>
<path class="st0" d="M16.4,81.3c-0.8,0-1.6-0.5-1.9-1.4c-8.8-27.3,6.3-56.6,33.6-65.4c1.1-0.3,2.2,0.2,2.5,1.3
	c0.3,1.1-0.2,2.2-1.3,2.5c-25.2,8.1-39.1,35.2-31,60.4c0.3,1.1-0.2,2.2-1.3,2.5C16.8,81.3,16.6,81.3,16.4,81.3z"/>
<path class="st0" d="M79.3,113.6c-0.8,0-1.6-0.5-1.9-1.4c-0.3-1.1,0.2-2.2,1.3-2.5c12.2-3.9,22.1-12.4,28-23.8
	c5.9-11.4,6.9-24.4,3-36.6c-0.3-1.1,0.2-2.2,1.3-2.5c1.1-0.3,2.2,0.2,2.5,1.3c4.3,13.2,3.1,27.3-3.2,39.7
	c-6.3,12.4-17.1,21.5-30.3,25.8C79.7,113.6,79.5,113.6,79.3,113.6z"/>
<g>
	<path class="st0" d="M64,20.7C64,20.7,64,20.7,64,20.7c1.7,0,2.5,1.1,3.3,2.4C78.1,42.6,89,62,99.9,81.5c1.5,2.7,1.1,4.1-1.5,5.6
		c-10.6,6.4-21.3,12.7-31.9,19.1c-0.8,0.5-1.6,0.7-2.5,1.1c-0.8-0.4-1.6-0.6-2.2-1C51,99.9,40.3,93.5,29.6,87.1
		c-2.5-1.5-2.9-2.9-1.5-5.5C39,62.1,49.9,42.5,60.8,23C61.5,21.7,62.4,20.7,64,20.7 M32.2,80.8c3.5-1.6,6.6-3,9.6-4.4
		c1.1-0.5,2.3-0.8,3.4-0.8c1.4,0,2.7,0.4,4.1,1.1c1.5,0.8,3.1,1.7,4.4,2.8c2.6,2.3,5.3,4.1,8.9,4.5c-0.8,1-1.4,1.8-2.4,3.3
		c-2.5-1.5-5-3-7.4-4.5c-1.8-1.1-3.5-2.4-5.4-3.4c-0.6-0.3-1.4-0.6-2.1-0.6c-0.2,0-0.4,0-0.5,0.1c-4.5,1.3-8.5,3.5-12.7,6.2
		C42.3,91,52.2,97,62.4,103c0-4.1,0.1-7.8,0-11.5c-0.1-2.3,0.8-4.1,2.4-5.5c1.1-1,2.3-1.9,3.6-2.6c3.6-1.7,6.5-4.1,8.2-8.1
		c0.8,1.2,1.4,2.1,2,3.1c-1.7,3.2-4.3,5.4-7.4,7.1c-1.4,0.8-2.8,1.6-4.1,2.6c-0.7,0.5-1.4,1.4-1.5,2.2c-0.1,4.1-0.1,8.2-0.1,12.7
		c10.2-6.1,20-12,30.2-18.1c-4-2-7.6-3.9-11.3-5.6c-2.6-1.2-4.5-3.1-5.5-5.7c-0.8-1.8-1.4-3.8-1.9-5.7c-1.3-5.3-4.6-8.7-9.8-10.3
		c-0.6-0.2-1.2-0.3-1.8-0.5c1.3-1.8,1.8-2.6,2.7-2.6c0.6,0,1.4,0.4,2.7,1c4.8,2.3,8.1,6,9.2,11.2c1.1,5.5,3.5,9.5,9,11.4
		c1.5,0.5,2.8,1.4,4.2,2.1c0.8,0.4,1.6,0.7,2.4,1.1c0.1-0.1,0.2-0.2,0.2-0.3C85.9,63.1,76,45.3,66.1,27.5c-0.2,0-0.4,0.1-0.5,0.1
		c0,0.7,0,1.3,0,2c0,6.4-0.2,12.7,0.1,19.1c0.1,3.7-1.4,6.2-4.3,8.1c-1.1,0.7-2.2,1.3-3.4,1.9c-3.7,1.8-6.1,4.7-6.9,8.7
		c-0.5,2.1-0.3,4.4-0.4,6.6c-3.4-1-3.4-1-3.1-4.6c0.5-6.2,3.7-10.6,9.1-13.6c1.5-0.8,3-1.6,4.2-2.7c0.8-0.8,1.5-2.2,1.5-3.3
		c0.1-7,0.1-14,0.1-21c0-0.4-0.1-0.8-0.3-1.6C52.1,45.1,42.2,62.8,32.2,80.8 M64,16.7C64,16.7,64,16.7,64,16.7
		c-2.9,0-5.1,1.5-6.7,4.4c-6,10.8-12.1,21.6-18.1,32.4c-4.9,8.7-9.7,17.4-14.6,26.2c-2.5,4.4-1.4,8.3,2.9,10.9
		c10.4,6.2,21.3,12.7,32.2,19.3c0.7,0.4,1.4,0.7,2,0.9c0.2,0.1,0.4,0.2,0.7,0.3c0.5,0.2,1.1,0.3,1.6,0.3c0.6,0,1.1-0.1,1.6-0.3
		c0.2-0.1,0.5-0.2,0.7-0.3c0.7-0.3,1.4-0.6,2.2-1c9.3-5.5,19.1-11.4,31.9-19.1c4.5-2.7,5.5-6.5,2.9-11C97.9,69.8,92.5,60,87,50.2
		c-5.4-9.7-10.8-19.4-16.2-29.1C70.2,20,68.3,16.7,64,16.7C64.1,16.7,64,16.7,64,16.7L64,16.7z M69.5,50.7c0.1-0.7,0.1-1.4,0.1-2.1
		c-0.1-2.2-0.1-4.5-0.1-6.7l6.8,12.3c-1.1-0.8-2.4-1.5-3.7-2.2C71.5,51.4,70.6,50.9,69.5,50.7L69.5,50.7z M51.6,54.2L58.4,42
		c0,2.5,0,5.1-0.1,7.6c0,0.2-0.2,0.5-0.3,0.6c-0.6,0.6-1.6,1.1-2.7,1.7c-0.2,0.1-0.5,0.2-0.7,0.4C53.5,52.8,52.5,53.5,51.6,54.2
		L51.6,54.2z M54.4,75c0.1-0.3,0.1-0.5,0.1-0.8c0-0.8,0.1-1.5,0.1-2.2c0-1.4,0.1-2.7,0.3-3.8c0.6-2.7,2.1-4.6,4.7-5.9
		c1.2-0.6,2.4-1.3,3.5-2c0.4,0.3,0.9,0.5,1.4,0.7l0.6,0.2c0.4,0.1,0.7,0.2,1.1,0.3c3.9,1.1,6.1,3.4,7.1,7.4c0.3,1.1,0.6,2.2,0.9,3.2
		c-0.6,0.4-1.1,1-1.3,1.7c-1.1,2.6-3,4.5-6.2,6c-0.6,0.3-1.2,0.6-1.7,0.9c-0.6-0.4-1.2-0.7-1.9-0.8c-2.3-0.3-4.2-1.3-6.7-3.5
		C55.7,75.9,55.1,75.4,54.4,75L54.4,75z M41.6,72.1l1.9-3.4c0,0.1,0,0.2,0,0.3c-0.1,1-0.1,1.8-0.1,2.7
		C42.8,71.8,42.2,71.9,41.6,72.1L41.6,72.1z M69.7,91.2c0.9-0.7,2.1-1.5,3.5-2.2c3.4-1.8,6.1-4.2,8-7c0.6,0.3,1.1,0.7,1.8,1
		c1.6,0.7,3.1,1.5,4.7,2.3l-11.1,6.6L69.6,96C69.6,94.4,69.7,92.8,69.7,91.2L69.7,91.2z M39.9,85c1.8-0.9,3.6-1.7,5.4-2.2
		c0,0,0,0,0.1,0c1,0.6,2,1.2,3,1.9c0.7,0.5,1.5,1,2.2,1.5c1.7,1.1,3.5,2.1,5.2,3.2c0.7,0.4,1.5,0.9,2.2,1.3c0.1,0.1,0.2,0.1,0.3,0.2
		c0,0.3,0,0.5,0,0.8c0,1.4,0,2.9,0,4.4l-13.7-8.2L39.9,85L39.9,85z"/>
</g>
</svg>
