<?xml version="1.0" encoding="utf-8"?>
<!-- Generator: Adobe Illustrator 21.1.0, SVG Export Plug-In . SVG Version: 6.00 Build 0)  -->
<svg version="1.1" id="Layer_1" xmlns="http://www.w3.org/2000/svg" xmlns:xlink="http://www.w3.org/1999/xlink" x="0px" y="0px"
	 viewBox="0 0 128 128" style="enable-background:new 0 0 128 128;" xml:space="preserve">
<style type="text/css">
	.st0{fill:#F9A038;}
</style>
<g>
	<path class="st0" d="M70.9,31.3L70.9,31.3 M70.9,31.3c0,3.2,0,7.2-0.1,10c1.6,0.3,3.2,0.5,4.8,0.9c2.2,0.5,4.3,1.4,6.2,2.7
		c4.6,3.4,5.2,13.3-1.2,16.5c-0.1,0.1-0.2,0.2-0.4,0.3c1.3,0.6,2.6,1,3.8,1.7c2.5,1.5,4,3.7,4.4,6.6c0.4,3,0.2,5.9-1,8.7
		c-1.5,3.6-4.4,5.7-8,6.6c-2.8,0.7-5.7,1-8.6,1.4c-0.1,0-0.3,0-0.5,0.1c0,3-0.1,6.7-0.1,10h-6c0-3.1,0-6.9,0.1-9.9
		c-1.6,0-3.1-0.1-4.8-0.1c0,3-0.1,6.8-0.1,10h-6c0-3.2,0-7.1,0.1-10.2c-4.1-0.1-8-0.1-12.1-0.2c0.4-2.4,0.8-4.7,1.2-7.1
		c1.3,0,2.7,0,4,0l0,0c1.8,0,2.6-0.8,2.6-2.6c0.1-8.6,0.2-17.1,0.3-25.7c0-2.1-1.1-3.2-3.2-3.4c-0.8-0.1-1.5-0.1-2.3-0.1
		s-1.5,0-2.4,0c0-2.1,0-4.2,0.1-6.4c4.1,0,8,0.1,12.1,0.1c0-2.8,0.1-6.7,0.1-9.9h6c0,3.1,0,6.9-0.1,9.8c1.6,0,3.1,0,4.8,0
		c0-2.8,0.1-6.7,0.1-9.8L70.9,31.3 M63,60.2c2.5,0,4.9-0.2,7.2-1c2.4-0.8,3.7-2.5,3.9-4.8c0.1-2.2-1-4-3.2-5
		c-2.5-1.1-5.1-1.3-7.7-1.3c-1,0-2,0-3,0c0,4.1-0.1,8-0.1,12C60.9,60.1,62,60.2,63,60.2 M60.1,66.2c-0.1,0-0.2,0-0.3,0
		c0,4.4-0.1,8.8-0.1,13.2c1,0,1.9,0.1,2.8,0.1c0.1,0,0.1,0,0.2,0c3.5,0,7,0,10.3-1.5c2.2-1,3.6-2.6,3.6-5.1s-1.3-4.2-3.5-5.2
		c-3.1-1.4-6.4-1.6-9.8-1.6C62.3,66.2,61.2,66.2,60.1,66.2 M70.9,27.3L70.9,27.3h-6c-0.9,0-1.7,0.3-2.4,0.8
		c-0.7-0.5-1.5-0.8-2.4-0.8h-6c-2.2,0-4,1.8-4,4v4.3c0,0.6,0,1.1,0,1.7h-1.9L42,37.2l0,0c-2.2,0-4,1.8-4,4v4.6v1.8
		c0,2.2,1.7,4,3.9,4h0.8c0.5,0,1,0,1.5,0h0.5c0.3,0,0.7,0,1,0c-0.1,7.9-0.2,15.8-0.3,23.7H44h-1.2l0,0c-1.9,0-3.6,1.4-3.9,3.3
		l-0.5,2.9l-0.7,4.2c-0.2,1.2,0.1,2.3,0.9,3.2c0.7,0.9,1.9,1.4,3,1.4l4.6,0.1h3.6v1.5v4.7c0,1.1,0.4,2.1,1.2,2.8
		c0.8,0.8,1.8,1.2,2.8,1.2h6c0.9,0,1.7-0.3,2.4-0.8c0.7,0.5,1.5,0.8,2.4,0.8h6c2.2,0,4-1.8,4-4V92c0-0.7,0-1.3,0-1.9
		c2-0.3,4-0.6,6.1-1.1c5.1-1.3,8.8-4.3,10.7-8.9c1.4-3.3,1.8-7,1.3-10.9c-0.5-3.7-2.3-6.7-5.2-8.8c1.2-1.9,1.9-4.1,2.1-6.5
		c0.4-5-1.6-9.9-5.2-12.5c-2.2-1.6-4.8-2.8-7.7-3.4c-0.6-0.1-1.1-0.2-1.6-0.3c0-0.7,0-1.5,0-2.3v-4.2c0-0.1,0-0.1,0-0.2
		C74.9,29,73.1,27.3,70.9,27.3L70.9,27.3z M70.9,35.3L70.9,35.3L70.9,35.3L70.9,35.3z M45.6,50.8L45.6,50.8L45.6,50.8L45.6,50.8z
		 M64,56.2v-3.5v-0.5c2,0,3.7,0.2,5.2,0.9c0.9,0.4,0.9,0.8,0.9,1.2s0,0.9-1.1,1.2C67.5,55.9,66,56.1,64,56.2L64,56.2z M63.8,75.5
		l0.1-5.3c3.1,0,5.5,0.2,7.7,1.2c1,0.5,1.1,0.9,1.1,1.5c0,0.5,0,0.9-1.2,1.4C69.2,75.3,66.6,75.4,63.8,75.5L63.8,75.5z M45.3,76.8
		L45.3,76.8L45.3,76.8z"/>
</g>
<path class="st0" d="M64,4c33.1,0,60,26.9,60,60s-26.9,60-60,60S4,97.1,4,64S30.9,4,64,4 M64,0C28.7,0,0,28.7,0,64s28.7,64,64,64
	s64-28.7,64-64S99.3,0,64,0L64,0z"/>
<path class="st0" d="M14,66c-1.1,0-2-0.9-2-2c0-28.7,23.3-52,52-52c1.1,0,2,0.9,2,2s-0.9,2-2,2c-26.5,0-48,21.5-48,48
	C16,65.1,15.1,66,14,66z"/>
<path class="st0" d="M64,116c-1.1,0-2-0.9-2-2s0.9-2,2-2c26.5,0,48-21.5,48-48c0-1.1,0.9-2,2-2s2,0.9,2,2C116,92.7,92.7,116,64,116z
	"/>
</svg>
