<?xml version="1.0" encoding="utf-8"?>
<!-- Generator: Adobe Illustrator 21.1.0, SVG Export Plug-In . SVG Version: 6.00 Build 0)  -->
<svg version="1.1" id="Layer_1" xmlns="http://www.w3.org/2000/svg" xmlns:xlink="http://www.w3.org/1999/xlink" x="0px" y="0px"
	 viewBox="0 0 128 128" style="enable-background:new 0 0 128 128;" xml:space="preserve">
<style type="text/css">
	.st0{fill:#F68929;}
</style>
<g>
	<path class="st0" d="M74.5,108.2c-2.4,0-4.6-0.9-6.4-2.8c-2.4-2.4-3.1-5.5-2.2-8.8c-1.1-1.4-2.3-2.8-3.4-4.2l-1.1-1.3
		c-5.5,3.1-12,3.7-17.9,1.8c-6.5-2.1-11.6-6.8-14.1-13C26.8,73,27.3,66.4,31,60.1c3.3-5.6,8.2-9.2,14.6-10.6l0-0.5c0-2.5,0-5,0-7.4
		c-2.8-2.1-4.2-4.9-3.8-8.3c0.4-3.6,2.5-6.2,5.9-7.4c4.3-1.5,9.1,0.5,11,4.6c1.9,4.1,0.5,8.9-3.3,11.2c0,2.4,0,5.2,0,8
		c1,0.2,2,0.6,2.9,0.9c3.8-3.3,7.7-6.5,11.5-9.8l6.6-5.6c1.4-1.2,2.7-2.3,4.1-3.5c-0.7-3.9,0.5-7.2,3.6-9.6
		c3.2-2.5,6.9-2.9,10.5-1.2c3.6,1.7,5.6,4.8,5.7,8.9c0.1,3.3-1.5,6.5-4.3,8.4c-2.7,1.8-6.1,2.3-9.1,1.1c-5.2,4.2-10.4,8.4-15.6,12.6
		l-4.9,3.9c7.5,7.7,8.5,19.7,2.3,28.8l0.3,0.3c1.5,1.7,3,3.5,4.5,5.2c4.6-0.6,8.9,2.3,10.1,6.8c1.2,4.8-1.6,9.5-6.3,10.9
		C76.3,108.1,75.4,108.2,74.5,108.2z M61.9,86.5c0.6,0,1.1,0.2,1.5,0.7l0.2,0.2c0.2,0.2,0.4,0.4,0.6,0.6l1.5,1.9
		c1.2,1.5,2.4,2.9,3.6,4.4c1.2,1.4,0.7,2.8,0.6,3.2c-0.6,2-0.2,3.7,1.2,5.1c1.4,1.5,3.1,1.9,5.1,1.3c2.6-0.7,4.1-3.4,3.5-6.1
		c-0.6-2.6-3.2-4.2-5.9-3.8c-0.9,0.2-2.1,0-2.8-0.8c-1.7-1.9-3.3-3.9-5-5.8l-1.3-1.5c-0.6-0.7-0.6-1.8,0-2.5
		c6.4-8.1,5.3-19.6-2.5-26.2c-0.4-0.4-0.7-0.9-0.7-1.5s0.2-1.1,0.7-1.5l0.2-0.2c0.2-0.2,0.4-0.4,0.7-0.6l5.8-4.7
		c5.3-4.3,10.5-8.5,15.8-12.8c1.1-0.9,2.2-1,3.4-0.5c1.8,0.8,4,0.6,5.7-0.6c1.7-1.1,2.6-3,2.6-5c-0.1-2.5-1.2-4.3-3.4-5.4
		c-2.2-1.1-4.3-0.8-6.3,0.7c-2,1.6-2.6,3.6-2.1,6.1c0.4,1.9-0.7,2.8-1.1,3.1c-1.5,1.3-3,2.5-4.4,3.8l-6.6,5.6
		c-3.9,3.3-7.9,6.7-11.8,10l-0.6,0.5c-0.6,0.5-1.6,0.6-2.3,0.2c0,0-0.2-0.1-0.4-0.2c-0.9-0.3-2-0.7-3.2-0.9
		c-0.4-0.1-1.1-0.2-1.1-0.2c-0.9-0.2-1.6-1-1.6-1.9c0,0,0-0.8,0-1.3c0.1-3.1,0.1-6.1,0.1-8.7c0-1.4,0.6-2.4,1.7-3.1
		c2.2-1.3,3-3.9,1.9-6.3c-1-2.3-3.7-3.4-6-2.5c-2,0.7-3,2.1-3.3,4.1c-0.2,1.9,0.5,3.5,2.3,4.7c0.7,0.5,1.5,1.3,1.5,2.5
		c0,2.7,0,5.4,0,8.1l0,2.2c0,1-0.7,1.8-1.7,2c-6,0.9-10.5,3.9-13.5,9c-3,5.1-3.4,10.6-1.2,16.3c2,5.1,6.2,9,11.6,10.7
		c5.5,1.7,11.2,0.9,16-2.3C61.1,86.6,61.5,86.5,61.9,86.5z M47.6,51.2L47.6,51.2L47.6,51.2z M45.6,40.9
		C45.6,40.9,45.6,40.9,45.6,40.9C45.6,40.9,45.6,40.9,45.6,40.9z"/>
</g>
<path class="st0" d="M64,5c32.5,0,59,26.5,59,59s-26.5,59-59,59S5,96.5,5,64S31.5,5,64,5 M64,0C28.7,0,0,28.7,0,64s28.7,64,64,64
	s64-28.7,64-64S99.3,0,64,0L64,0z"/>
<path class="st0" d="M14.8,57c-0.1,0-0.2,0-0.4,0c-1.1-0.2-1.8-1.2-1.6-2.3C15.3,41,23,29.1,34.4,21.2c11.4-7.9,25.2-10.9,38.9-8.4
	c1.1,0.2,1.8,1.2,1.6,2.3c-0.2,1.1-1.2,1.8-2.3,1.6c-12.6-2.3-25.4,0.5-35.9,7.8c-10.5,7.3-17.6,18.3-19.9,30.9
	C16.6,56.4,15.8,57,14.8,57z"/>
<path class="st0" d="M64.1,116c-3.1,0-6.3-0.3-9.4-0.9c-1.1-0.2-1.8-1.2-1.6-2.3c0.2-1.1,1.2-1.8,2.3-1.6
	c12.6,2.3,25.4-0.5,35.9-7.8c10.5-7.3,17.6-18.3,19.9-30.9c0.2-1.1,1.2-1.8,2.3-1.6c1.1,0.2,1.8,1.2,1.6,2.3
	C112.7,87,105,98.9,93.6,106.8C84.8,112.8,74.6,116,64.1,116z"/>
</svg>
