<?xml version="1.0" encoding="utf-8"?>
<!-- Generator: Adobe Illustrator 21.1.0, SVG Export Plug-In . SVG Version: 6.00 Build 0)  -->
<svg version="1.1" id="Layer_1" xmlns="http://www.w3.org/2000/svg" xmlns:xlink="http://www.w3.org/1999/xlink" x="0px" y="0px"
	 viewBox="0 0 128 128" style="enable-background:new 0 0 128 128;" xml:space="preserve">
<style type="text/css">
	.st0{fill:#39BAEB;}
</style>
<path class="st0" d="M92.1,79.1c0.3-0.6,0.5-1.3,0.4-2c-0.5-6.2-2.8-11.8-6.9-16.6c-0.5-0.6-1.1-0.9-1.8-1.2
	c-0.2-0.7-0.6-1.3-1.2-1.8c-4.7-4-10.2-6.3-16.3-6.8c0-1.8,0-3.7,0-5.5c0-1.5-0.6-2.8-1.7-3.8c-5.2-4.6-10.4-9.2-15.6-13.9l-3.1-2.7
	l-2.4-2.1l-1.3-1.2c-0.7-0.7-1.7-1-2.7-1c-0.5,0-1,0.1-1.5,0.3c-1.4,0.6-2.4,1.9-2.5,3.4l0,0.1c0,0.2,0,0.4,0,0.6l0,1.1
	c0,8.5,0,17.1,0,25.6c0,1,0.4,2.1,1.1,2.9c-0.7,0.7-1,1.7-1,2.7v20.2c0,0.6,0.1,1.2,0.4,1.7c-0.3,0.6-0.5,1.3-0.4,2.1
	c0.6,6.4,2.9,11.9,6.9,16.5c0.5,0.5,1.1,0.9,1.8,1.2c0.2,0.7,0.6,1.3,1.2,1.8c4.7,4,10.3,6.3,16.6,6.8c0.1,0,0.2,0,0.3,0
	c0.6,0,1.2-0.2,1.7-0.4c0.5,0.3,1.1,0.4,1.7,0.4c0.1,0,0.2,0,0.3,0c6.3-0.5,11.9-2.8,16.6-6.9c0.6-0.5,1-1.2,1.2-1.9
	c0.7-0.2,1.4-0.6,1.9-1.3c3.9-4.7,6.1-10.2,6.6-16.3C92.5,80.4,92.4,79.7,92.1,79.1z M82.8,63.5L82.8,63.5c3.2,3.9,5.1,8.3,5.6,13.4
	h0h-0.6H77l-0.9,0l-0.9,0c-0.7,0-1.4,0-2.1,0c-0.2,0-0.3,0-0.5,0c-0.2-0.4-0.3-0.8-0.5-1.1c-0.2-0.4-0.3-0.8-0.5-1.1
	c-0.1-0.1-0.1-0.3-0.2-0.4c1.8-1.8,3.6-3.7,5.5-5.5c1.8-1.8,3.7-3.7,5.5-5.6C82.6,63.2,82.7,63.3,82.8,63.5z M65.7,69.8
	c0-4.8,0-9.6,0-14.5c0-0.2,0-0.3,0-0.6c0.2,0,0.4,0,0.6,0.1v0c3.2,0.3,6.1,1.1,8.8,2.5c1.6,0.8,3.1,1.8,4.5,3l-10.9,11
	c0,0,0,0.1-0.1,0.1l0,0c-0.8-0.3-1.5-0.6-2.2-0.8c-0.1-0.1-0.3-0.1-0.4-0.2c-0.1,0-0.2-0.2-0.2-0.3c0,0,0,0,0-0.1c0,0,0-0.1,0-0.1
	C65.7,69.9,65.7,69.8,65.7,69.8z M39.5,24.9C39.5,24.9,39.5,24.9,39.5,24.9C39.5,24.8,39.5,24.8,39.5,24.9c0-0.1,0-0.2,0-0.4
	c0,0,0,0,0,0c0.3,0.3,0.7,0.6,1,0.9c0.9,0.8,1.8,1.6,2.7,2.4c4.1,3.6,8.2,7.2,12.2,10.8c2.2,1.9,4.3,3.8,6.5,5.7
	c0,0,0.1,0.1,0.1,0.1c0.2,0.2,0.3,0.4,0.3,0.6c0,0,0,0.1,0,0.1v0c0,2.5,0,5,0,7.5c-0.3,0.6-0.6,1.2-0.6,1.9l0,0.2c0,0.2,0,0.4,0,0.6
	l0,12.4v1.9c0,0.3,0,0.6,0,0.9c-0.4,0.1-0.8,0.3-1.2,0.4c-0.4,0.2-0.8,0.3-1.2,0.5c0,0,0,0,0,0c0,0,0,0,0-0.1l-16.9-17
	c-0.3-0.3-0.7-0.6-1.1-0.8c-0.5-0.5-1-1-1.5-1.5c-0.1-0.1-0.3-0.4-0.3-0.6C39.5,42.7,39.5,33.8,39.5,24.9z M56.4,74.2
	c0,0.1,0,0.1-0.1,0.2v0c-0.3,0.8-0.6,1.6-1,2.5c0,0,0,0,0,0c-0.2,0-0.5-0.1-0.7-0.1c0,0,0,0,0,0c-2.8,0-5.6,0-8.4,0l-3.1,0l-3.1,0
	h-0.5c0-6.6,0-13.1,0-19.6C45.2,62.9,50.8,68.5,56.4,74.2z M45.2,94.8L45.2,94.8c-3.2-3.8-5-8.3-5.6-13.3h0c0-0.2-0.1-0.4-0.1-0.6
	c0.2,0,0.4,0,0.6,0h0c2,0,4.1,0,6.1,0c2.8,0,5.6,0,8.4,0c0.1,0,0.1,0,0.1,0c0,0,0.1,0,0.1,0c0,0,0.1,0,0.1,0.1c0,0,0.1,0,0.1,0
	c0,0,0.1,0.1,0.1,0.1c0,0,0,0,0,0c0,0.1,0.1,0.2,0.1,0.3c0,0,0,0,0,0h0c0.3,0.8,0.6,1.5,0.9,2.3v0c0.1,0.1,0.1,0.3,0.2,0.4
	c-3.6,3.6-7.3,7.3-11,11C45.4,95,45.3,94.9,45.2,94.8z M61.8,87.8c0,0.2,0,0.4,0,0.7c0,3.6,0,7.1,0,10.7l0,3.8c0,0.2,0,0.3,0,0.5
	c0,0,0,0,0,0c-4.1-0.4-7.8-1.7-11.1-3.8c-0.5-0.3-0.9-0.6-1.4-1c-0.3-0.2-0.6-0.5-0.9-0.7l7-7l4-4c0,0,0.1-0.1,0.1-0.1v0
	C60.2,87.1,61,87.4,61.8,87.8L61.8,87.8z M64,84.4c-0.1,0-0.1-0.1-0.2-0.1L63.1,84l-2.7-1.1c-0.1,0-0.2,0-0.2-0.1
	c0-0.1,0-0.2-0.1-0.3c-0.1-0.3-0.2-0.6-0.3-0.8c-0.2-0.6-0.5-1.1-0.6-1.6c-0.1-0.4-0.3-0.7-0.4-1c0.1-0.2,0.2-0.3,0.2-0.5
	c0.3-0.8,0.6-1.7,0.9-2.4l0.2-0.6c0-0.1,0.1-0.2,0.1-0.3c0.1,0,0.2-0.1,0.3-0.1c0.3-0.1,0.6-0.2,0.9-0.3c0.6-0.2,1.1-0.4,1.5-0.6
	c0.4-0.1,0.7-0.3,1-0.5c0.2,0.1,0.3,0.2,0.5,0.3c0.8,0.3,1.6,0.6,2.5,0.9l0.7,0.3c0,0,0,0,0,0c0,0.1,0.1,0.2,0.1,0.3l0.7,1.6
	l0.7,1.6c0,0.1,0.1,0.1,0.1,0.2c-0.1,0.2-0.2,0.3-0.3,0.5c-0.3,0.8-0.6,1.6-0.8,2.2L68,82.4c0,0.1-0.1,0.2-0.1,0.4
	c-0.2,0.1-0.4,0.1-0.6,0.2c-0.4,0.1-0.7,0.3-1.1,0.5c-0.4,0.2-0.9,0.4-1.2,0.5C64.6,84.1,64.3,84.2,64,84.4z M71.6,102.4
	c-1.2,0.4-2.5,0.7-3.8,0.9c-0.5,0.1-1,0.1-1.5,0.2v0c-0.2,0-0.4,0-0.6,0.1c0-0.2,0-0.4,0-0.6c0,0,0,0,0,0c0-4.8,0-9.7,0-14.5
	c0-0.1,0-0.2,0-0.2c0-0.2,0.2-0.3,0.5-0.4c0,0,0,0,0.1,0c0.4-0.1,0.8-0.3,1.2-0.5c0.4-0.2,0.8-0.4,1.3-0.5c0,0,0.1,0,0.2,0l11,11.1
	c0,0,0,0,0,0c0,0,0,0,0,0C77.4,99.8,74.6,101.4,71.6,102.4z M82.8,94.9c-1.8-1.9-3.7-3.7-5.5-5.5c-1.8-1.9-3.7-3.7-5.5-5.6
	c0.2-0.4,0.3-0.9,0.5-1.3c0.1-0.4,0.3-0.7,0.4-1.1c0-0.1,0.1-0.2,0.1-0.3c0,0,0,0,0.1-0.1c0,0,0,0,0,0c0.1,0,0.1-0.1,0.2-0.1
	c0.1,0,0.1,0,0.2,0c1.3,0,2.6,0,3.8,0c3.6,0,7.2,0,10.7,0c0.2,0,0.4,0,0.7,0C88,86.2,86.1,90.8,82.8,94.9z"/>
<path class="st0" d="M64,5c32.5,0,59,26.5,59,59s-26.5,59-59,59S5,96.5,5,64S31.5,5,64,5 M64,0C28.7,0,0,28.7,0,64s28.7,64,64,64
	s64-28.7,64-64S99.3,0,64,0L64,0z"/>
<path class="st0" d="M103,97.3c-0.4,0-0.9-0.1-1.3-0.4c-0.9-0.7-1-2-0.3-2.8c8-10,11.7-22.5,10.3-35.3C110.3,46,104,34.6,94,26.6
	c-0.9-0.7-1-2-0.3-2.8c0.7-0.9,2-1,2.8-0.3c10.8,8.7,17.6,21.1,19.1,34.9c1.5,13.8-2.4,27.4-11.1,38.2C104.2,97,103.6,97.3,103,97.3
	z"/>
<path class="st0" d="M32.7,105c-0.4,0-0.9-0.1-1.3-0.4c-10.8-8.7-17.6-21.1-19.1-34.9c-1.5-13.8,2.4-27.4,11.1-38.2
	c0.7-0.9,2-1,2.8-0.3c0.9,0.7,1,2,0.3,2.8c-8,10-11.7,22.5-10.3,35.3C17.7,82,24,93.4,34,101.4c0.9,0.7,1,2,0.3,2.8
	C33.9,104.7,33.3,105,32.7,105z"/>
</svg>
