<?xml version="1.0" encoding="utf-8"?>
<!-- Generator: Adobe Illustrator 21.1.0, SVG Export Plug-In . SVG Version: 6.00 Build 0)  -->
<svg version="1.1" id="Layer_1" xmlns="http://www.w3.org/2000/svg" xmlns:xlink="http://www.w3.org/1999/xlink" x="0px" y="0px"
	 viewBox="0 0 128 128" style="enable-background:new 0 0 128 128;" xml:space="preserve">
<style type="text/css">
	.st0{fill:#1E1D1D;}
</style>
<g>
	<path class="st0" d="M62.4,33c4.2,0,8.4,0,12.6,0.1c4.2,0.1,8.3,1,11.9,3.6c7.1,5.2,8,14.5,2.1,21c-0.5,0.6-1.1,1.2-1.7,1.8
		c3.2,1.5,5.8,3.5,7.8,6.3c5.5,8.1,3.1,18.5-5.7,24.1c-4.9,3.1-10.5,4.4-16.2,4.5c-3.8,0.1-7.7,0.1-11.5,0.1c-4.5,0-9,0-13.5,0
		c-0.3,0-0.5,0-0.8,0c0,0,0,0,0,0c-0.2,0-0.4-0.1-0.8-0.1c0-5.1,0-10.1,0-15.2c-5.5,0-11,0-16.6,0c0-3,0-5.9,0-8.9
		c5.5,0,10.9,0,16.4,0c0-4.8,0-9.4,0-14.2c-5.4,0-10.9,0-16.4,0c0-3,0-5.9,0-9c5.5,0,10.9,0,16.5,0c0-4.7,0-9.3,0-14
		c0.5-0.1,0.8-0.1,1.1-0.1c0,0,0,0,0,0c0.2,0,0.3,0,0.5,0C52.9,33,57.6,33,62.4,33 M60.6,42c-0.8,0-1.6,0-2.4,0c0,5.8,0,11.3,0,17.2
		c3.6-0.2,7-0.3,10.4-0.7c2.6-0.3,5.2-0.9,7.5-1.9c3.3-1.3,4.9-4.4,4.5-7.6c-0.3-2.9-2.5-5.4-5.8-6.2c-2.7-0.7-5.4-0.8-8.1-0.8
		C64.7,41.9,62.7,42,60.6,42 M68.6,84.3c2.5,0,5,0,7.5-0.2c2.4-0.1,5-1.1,7.2-2.3c4.7-2.5,5-8.9,0.7-11.9c-2-1.4-4.5-2.4-6.9-3
		C74.4,66.2,71.7,66,69,66c-3.5,0-7.1,0.4-10.7,0.5c0,6.1,0,11.9,0,17.7C61.8,84.2,65.2,84.3,68.6,84.3 M62.4,29c-2.4,0-4.8,0-7.1,0
		c-2.4,0-4.7,0-7.1,0l-0.5,0c-0.5,0-0.9,0.1-1.2,0.1c-0.1,0-0.2,0-0.4,0c-2,0.2-3.6,1.9-3.6,4v10H30c-2.2,0-4,1.8-4,4v9
		c0,2.2,1.8,4,4,4h12.4v6.2H30c-2.2,0-4,1.8-4,4v8.9c0,2.2,1.8,4,4,4h12.6v11.2c0,2,1.5,3.7,3.4,4c0.1,0,0.2,0,0.2,0
		c0.3,0.1,0.7,0.1,1.2,0.1l0.8,0c2.2,0,4.5,0,6.7,0c2.2,0,4.5,0,6.7,0c4.6,0,8.3,0,11.6-0.1c7.2-0.2,13.1-1.9,18.2-5.2
		c5.3-3.4,8.9-8.4,10.1-14.1c1.1-5.4-0.1-10.9-3.2-15.6c-1.3-1.9-2.9-3.6-4.9-5c2.6-3.7,3.8-7.9,3.3-12.3c-0.5-5.1-3.2-9.6-7.5-12.8
		c-3.9-2.8-8.5-4.3-14.2-4.4C71.4,29,67.5,29,62.4,29L62.4,29z M62.2,46c0.5,0,1,0,1.6,0c1,0,2,0,3,0c2.1,0,4.7,0.1,7.1,0.7
		c1.6,0.4,2.6,1.4,2.8,2.7c0.1,0.8,0.1,2.7-2,3.5c-1.8,0.7-3.9,1.3-6.6,1.6c-1.9,0.3-3.8,0.4-5.9,0.5V46L62.2,46z M62.3,70.3
		c0.1,0,0.1,0,0.2,0c2.3-0.1,4.4-0.3,6.5-0.3c2.8,0,5,0.2,7.1,0.8c2.1,0.5,4.1,1.4,5.6,2.4c0.9,0.6,1.4,1.6,1.3,2.6
		c-0.1,1-0.7,1.9-1.6,2.5c-2,1.1-4,1.7-5.5,1.8c-2.1,0.1-4.4,0.2-7.3,0.2c-1.7,0-3.4,0-5.1,0c-0.4,0-0.8,0-1.2,0V70.3L62.3,70.3z"/>
</g>
<path class="st0" d="M64,5c32.5,0,59,26.5,59,59s-26.5,59-59,59S5,96.5,5,64S31.5,5,64,5 M64,0C28.7,0,0,28.7,0,64s28.7,64,64,64
	s64-28.7,64-64S99.3,0,64,0L64,0z"/>
<path class="st0" d="M16.4,81.3c-0.8,0-1.6-0.5-1.9-1.4c-8.8-27.3,6.3-56.6,33.6-65.4c1.1-0.3,2.2,0.2,2.5,1.3
	c0.3,1.1-0.2,2.2-1.3,2.5c-25.2,8.1-39.1,35.2-31,60.4c0.3,1.1-0.2,2.2-1.3,2.5C16.8,81.3,16.6,81.3,16.4,81.3z"/>
<path class="st0" d="M79.3,113.6c-0.8,0-1.6-0.5-1.9-1.4c-0.3-1.1,0.2-2.2,1.3-2.5c12.2-3.9,22.1-12.4,28-23.8
	c5.9-11.4,6.9-24.4,3-36.6c-0.3-1.1,0.2-2.2,1.3-2.5c1.1-0.3,2.2,0.2,2.5,1.3c4.3,13.2,3.1,27.3-3.2,39.7
	c-6.3,12.4-17.1,21.5-30.3,25.8C79.7,113.6,79.5,113.6,79.3,113.6z"/>
</svg>
