<?xml version="1.0" encoding="utf-8"?>
<!-- Generator: Adobe Illustrator 21.1.0, SVG Export Plug-In . SVG Version: 6.00 Build 0)  -->
<svg version="1.1" id="Layer_1" xmlns="http://www.w3.org/2000/svg" xmlns:xlink="http://www.w3.org/1999/xlink" x="0px" y="0px"
	 viewBox="0 0 128 128" style="enable-background:new 0 0 128 128;" xml:space="preserve">
<style type="text/css">
	.st0{fill:#1F75BC;}
</style>
<g>
	<path class="st0" d="M84.4,89.3c7.7-2.1,12.9-6.8,15.5-13.9c0.5-1.3,0.9-2.7,1.4-4l0.6-1.8c0.6-1.7,1.2-3.5,1.8-5.2
		c1.4-3.9,2.8-7.8,4-11.8c1.4-4.8,0-8.1-1.4-10c-2-2.7-5.5-4.3-9.1-4.2c-12.7,0.2-25.5,0.1-38,0.1c-4.8,0-9.7,0-14.5,0l-1,0
		c-1,0-1.9,0-2.9,0c-0.9,0-2.3,0.6-2.8,1.9c-1,2.9-2,5.8-3.1,8.8L34,51.6c-0.2,0.6-0.1,1.3,0.3,1.8c0.4,0.5,1,0.8,1.6,0.8h49
		l-1.5,4.2c-1.8,5.1-3.6,10.3-5.3,15.4c0,0,0,0,0,0.1c0,0,0,0-0.1,0c-11.3,0-22.7,0-34,0l-8.7,0l-1.7,0c-1.6,0-3.3,0-4.9,0
		c-0.9,0-2.5,0.6-3,2c-1,2.8-2,5.6-3,8.6L21.8,87c-0.2,0.6-0.1,1.3,0.3,1.8c0.4,0.5,1,0.8,1.6,0.8h8.8c2.4,0,4.9,0,7.3,0
		c14,0,28.1,0,42.1,0C82.9,89.6,83.7,89.5,84.4,89.3z M32.5,85.6h-6c0.9-2.6,1.8-5.2,2.7-7.7c1.5,0,3,0,4.4,0l1.7,0l8.7,0
		c11.3,0,22.6,0,34,0c0,0,0,0,0,0c2,0,3.2-0.9,3.9-2.8c1.7-5.1,3.5-10.4,5.3-15.4l1.9-5.6c0.1-0.3,0.2-0.5,0.3-0.9l0.2-0.5
		c0.2-0.6,0.1-1.3-0.3-1.8c-0.4-0.5-1-0.8-1.6-0.8H38.7c0.9-2.6,1.8-5.2,2.7-7.7c0.7,0,1.4,0,2.2,0l1.1,0c4.8,0,9.7,0,14.5,0
		c12.5,0,25.4,0.1,38.1-0.1c2.3,0,4.6,1,5.9,2.6c1.2,1.6,1.5,3.9,0.7,6.4c-1.1,3.9-2.5,7.8-3.9,11.6c-0.6,1.7-1.2,3.5-1.8,5.2
		l-0.6,1.8c-0.4,1.3-0.9,2.6-1.4,3.9c-2.2,5.9-6.4,9.6-12.8,11.4c-0.4,0.1-0.8,0.1-1.4,0.2C65.5,85.6,49,85.6,32.5,85.6z"/>
	<path class="st0" d="M36.5,71.5c5.1,0,10.1,0,15.2,0c0.9,0,2.3-0.5,2.8-1.8c1-2.8,2.1-5.6,3.1-8.5l0.8-2.1c0.2-0.6,0.1-1.3-0.2-1.8
		c-0.4-0.5-1-0.9-1.6-0.9h-4.1c-8.8,0-17.4,0-26,0c-1.2,0-2.4,0.9-2.8,1.9c-1,2.7-2,5.3-3,8l-0.8,2.2c-0.4,1,0.2,2.2,1.2,2.6l0.1,0
		c0.2,0.1,0.6,0.3,1.1,0.3C27,71.5,31.7,71.5,36.5,71.5z M27.1,60.5c8.4,0,16.7,0,25.3,0h1.2c-0.9,2.4-1.7,4.8-2.6,7.1
		c-8.8,0-17.7,0-26.5,0C25.4,65.2,26.2,62.8,27.1,60.5z"/>
	<path class="st0" d="M64,0C28.7,0,0,28.7,0,64s28.7,64,64,64s64-28.7,64-64S99.3,0,64,0z M64,123C31.5,123,5,96.5,5,64S31.5,5,64,5
		s59,26.5,59,59S96.5,123,64,123z"/>
	<path class="st0" d="M78.4,18.2c1,0.3,2.2-0.3,2.5-1.3c0.3-1.1-0.3-2.2-1.3-2.5c-27.4-8.6-56.6,6.7-65.2,34
		c-0.3,1.1,0.3,2.2,1.3,2.5c0.2,0.1,0.4,0.1,0.6,0.1c0.9,0,1.6-0.5,1.9-1.4C26.1,24.4,53.1,10.3,78.4,18.2z"/>
	<path class="st0" d="M112.3,77.1c-1.1-0.3-2.2,0.3-2.5,1.3c-7.9,25.3-34.9,39.3-60.2,31.4c-1-0.3-2.2,0.3-2.5,1.3
		c-0.3,1.1,0.3,2.2,1.3,2.5c5.2,1.6,10.4,2.4,15.5,2.4c22.1,0,42.7-14.2,49.6-36.4C113.9,78.5,113.4,77.4,112.3,77.1z"/>
</g>
</svg>
