<?xml version="1.0" encoding="utf-8"?>
<!-- Generator: Adobe Illustrator 21.1.0, SVG Export Plug-In . SVG Version: 6.00 Build 0)  -->
<svg version="1.1" id="Layer_1" xmlns="http://www.w3.org/2000/svg" xmlns:xlink="http://www.w3.org/1999/xlink" x="0px" y="0px"
	 viewBox="0 0 128 128" style="enable-background:new 0 0 128 128;" xml:space="preserve">
<style type="text/css">
	.st0{fill:url(#SVGID_1_);}
	.st1{fill:#486EB5;}
	.st2{fill:#57C09A;}
</style>
<linearGradient id="SVGID_1_" gradientUnits="userSpaceOnUse" x1="18.7452" y1="18.7452" x2="109.2549" y2="109.2548">
	<stop  offset="0" style="stop-color:#486EB5"/>
	<stop  offset="1" style="stop-color:#57C09A"/>
</linearGradient>
<path class="st0" d="M64,4c33.1,0,60,26.9,60,60s-26.9,60-60,60S4,97.1,4,64S30.9,4,64,4 M64,0C28.7,0,0,28.7,0,64s28.7,64,64,64
	c35.3,0,64-28.7,64-64S99.3,0,64,0L64,0z"/>
<path class="st1" d="M16.4,81.3c-0.8,0-1.6-0.5-1.9-1.4c-8.8-27.3,6.3-56.6,33.6-65.4c1.1-0.3,2.2,0.2,2.5,1.3
	c0.3,1.1-0.2,2.2-1.3,2.5c-25.2,8.1-39.1,35.2-31,60.4c0.3,1.1-0.2,2.2-1.3,2.5C16.8,81.3,16.6,81.3,16.4,81.3z"/>
<path class="st2" d="M79.3,113.6c-0.8,0-1.6-0.5-1.9-1.4c-0.3-1.1,0.2-2.2,1.3-2.5c12.2-3.9,22.1-12.4,28-23.8
	c5.9-11.4,6.9-24.4,3-36.6c-0.3-1.1,0.2-2.2,1.3-2.5c1.1-0.3,2.2,0.2,2.5,1.3c4.3,13.2,3.1,27.3-3.2,39.7
	c-6.3,12.4-17.1,21.5-30.3,25.8C79.7,113.6,79.5,113.6,79.3,113.6z"/>
<g>
	<path class="st1" d="M39.7,39.1c1.8,0,3.7,0,5.5,0c0.6,0,1.2,0.3,1.7,0.6c6.6,5.7,13.2,11.5,19.8,17.2c0.3,0.2,0.6,0.4,0.8,0.6
		c-0.1,0.1-0.1,0.3-0.2,0.4c-0.4,0-0.9,0-1.3,0c-2.8,0-5.7,0-8.5,0c-1.8,0-3.6,0-5.5,0c-4.4,0.1-7.7,2-9.8,5.8
		c-3.3,6,0.4,14,7.1,15.3c2.2,0.4,4.6,0.3,6.9,0.4c0.4,0,0.8,0.1,1,0.3c3.3,2.8,6.5,5.6,9.7,8.4c0.1,0.1,0.2,0.3,0.5,0.6
		c-0.5,0-0.9,0.1-1.3,0.1c-0.2,0-0.4,0-0.6,0c-4.2,0-8.4,0-12.7,0c-0.3,0-0.6,0-0.9,0c0,0,0,0,0,0c-9.7,0-17.8-6.4-19.9-15.8
		c-2.1-9.1,2.5-18.6,11-22.6c0.3-0.1,0.5-0.3,1-0.6c-2.1-1.8-4.1-3.6-6.1-5.3c-2-1.8-4.1-3.5-6.2-5.4c0.4-0.1,0.6-0.1,0.9-0.1
		C35.1,39.1,37.4,39.1,39.7,39.1 M39.7,35.1c-1.6,0-3.2,0-4.9,0l-2.1,0c-0.6,0-1,0.1-1.3,0.2c-0.1,0-0.1,0-0.2,0
		c-1.5,0.3-2.8,1.4-3.2,2.9c-0.4,1.5,0.1,3.1,1.2,4.1l2,1.7c1.4,1.2,2.8,2.4,4.2,3.7c0.6,0.6,1.3,1.1,1.9,1.7
		c-7.5,5.6-11.3,15.3-9.1,24.7c2.5,11.1,12.3,18.9,23.8,18.9H53c2.1,0,4.2,0,6.3,0c2.1,0,4.2,0,6.3,0h0.6c0.4,0,0.7,0,1.1,0
		c0.1,0,0.3,0,0.4,0c1.5-0.1,2.8-1,3.4-2.3c0.6-1.3,0.4-2.9-0.5-4.1c0-0.1-0.1-0.1-0.1-0.1c-0.2-0.2-0.5-0.6-0.9-1l-0.5-0.4
		c-3-2.6-6.2-5.4-9.3-8c-1.3-1.1-2.8-1.2-3.4-1.2c-0.8-0.1-1.7-0.1-2.5-0.1c-1.4,0-2.7-0.1-3.9-0.3c-1.9-0.4-3.4-1.6-4.3-3.6
		c-0.9-2-0.9-4.2,0-5.9c1.4-2.6,3.4-3.7,6.4-3.8c1.6,0,3.3,0,5.4,0c1.4,0,2.8,0,4.3,0c1.4,0,2.8,0,4.2,0h1.3c1.6,0,3-0.9,3.6-2.4
		l0-0.1l0.1-0.3c0.8-1.8,0.2-3.9-1.4-5c-0.1-0.1-0.3-0.2-0.4-0.3c0,0-0.1-0.1-0.1-0.1l-5.4-4.7c-4.7-4.1-9.6-8.3-14.4-12.5
		c-1.1-1-2.7-1.6-4.2-1.6C43.4,35.1,41.6,35.1,39.7,35.1L39.7,35.1z"/>
	<path class="st2" d="M60.8,39.1C60.8,39.1,60.8,39.1,60.8,39.1c5.6,0,11.2,0,16.8,0.1c3.8,0.1,7.2,1.5,10.2,3.7c4.1,3,6.8,7,7.9,12
		c0.9,4.2,0.5,8.3-1.2,12.3c-1.9,4.3-4.9,7.6-9.1,9.9c-0.3,0.1-0.6,0.2-0.8,0.4c-0.2,0.1-0.5,0.3-0.9,0.6c4.1,3.6,8.1,7.1,12.4,10.8
		c-0.6,0-1.2,0-1.6,0c-0.3,0-0.6,0-0.9,0c-2.4,0-4.8,0-7.2,0c-1.2,0-2.4,0-3.6,0c-0.6,0-1.3-0.2-1.8-0.6
		c-6.8-5.8-13.5-11.7-20.2-17.5c-0.1-0.1-0.2-0.3-0.4-0.6c0.5,0,0.9-0.1,1.3-0.1c0.3,0,0.6,0,0.9,0c2.6,0,5.3,0,7.9,0
		c1.7,0,3.5,0,5.2,0c4.4,0,7.8-1.9,9.9-5.8c3-5.6,0.2-12.8-5.8-15c-1.7-0.6-3.4-0.8-5.1-0.8c-0.6,0-1.1,0-1.7,0c-0.1,0-0.2,0-0.3,0
		c-1.3,0-2.3-0.4-3.2-1.3c-2.7-2.5-5.5-4.9-8.3-7.3c-0.2-0.2-0.4-0.3-0.8-0.6C60.6,39.2,60.7,39.1,60.8,39.1 M60.8,35.1
		c-1.1,0-1.9,0.5-2.3,0.6c0,0-0.1,0-0.1,0.1c-1.3,0.6-2.1,1.9-2.2,3.3s0.5,2.8,1.7,3.6c0.1,0.1,0.3,0.2,0.4,0.3c0,0,0.1,0.1,0.1,0.1
		c0.7,0.6,1.5,1.3,2.2,1.9c2,1.7,4.1,3.5,6,5.2c1.7,1.6,3.6,2.3,6,2.3c0.1,0,0.3,0,0.5,0c0.6,0,1.1,0,1.5,0c1.6,0,2.7,0.2,3.8,0.5
		c1.8,0.6,3.2,2.1,3.9,3.9c0.7,1.8,0.6,3.8-0.3,5.4c-1.4,2.5-3.3,3.7-6.4,3.7c-1.7,0-3.4,0-5.2,0c-1.3,0-2.6,0-3.9,0
		c-1.3,0-2.6,0-3.9,0l-0.9,0c-0.4,0-0.8,0-1.1,0.1c-0.1,0-0.3,0-0.4,0c-1.4,0.1-2.7,0.9-3.3,2.2c-0.6,1.3-0.5,2.8,0.3,4
		c0,0.1,0.1,0.1,0.1,0.2c0.2,0.3,0.5,0.7,1,1.2l2.2,1.9c5.9,5.1,12,10.4,18,15.6c1.1,1,2.8,1.6,4.3,1.6c1.2,0,2.4,0,3.6,0
		c1.5,0,3,0,4.4,0c0.9,0,1.9,0,2.8,0l0.9,0l0.7,0l0.9,0c1.7,0,3.2-1,3.7-2.6c0.6-1.6,0.1-3.3-1.1-4.4l-0.6-0.5l-7.6-6.6
		c3.4-2.5,6-5.8,7.7-9.8c2.1-4.8,2.5-9.7,1.4-14.7c-1.3-5.9-4.5-10.8-9.5-14.4c-3.9-2.9-8.1-4.4-12.5-4.4c-4.2-0.1-8.4-0.1-12.4-0.1
		C63.8,35.1,62.3,35.1,60.8,35.1C60.8,35.1,60.8,35.1,60.8,35.1L60.8,35.1z"/>
</g>
</svg>
