<?xml version="1.0" encoding="utf-8"?>
<!-- Generator: Adobe Illustrator 21.1.0, SVG Export Plug-In . SVG Version: 6.00 Build 0)  -->
<svg version="1.1" id="Layer_1" xmlns="http://www.w3.org/2000/svg" xmlns:xlink="http://www.w3.org/1999/xlink" x="0px" y="0px"
	 viewBox="0 0 128 128" style="enable-background:new 0 0 128 128;" xml:space="preserve">
<style type="text/css">
	.st0{fill:#2D2C2C;}
</style>
<path class="st0" d="M64.3,111.7C64.3,111.7,64.3,111.7,64.3,111.7c-0.4,0-0.8-0.1-1.1-0.3l-30.4-19c0,0,0,0-0.1,0c0,0,0,0,0,0
	c0,0,0,0,0,0c-0.3-0.2-0.5-0.4-0.6-0.7C32,91.5,32,91.3,32,91.2l0,0c0,0,0,0,0,0c-0.1-0.3-0.1-0.5,0-0.8l0,0c0,0,0-0.1,0-0.1
	L41.8,45c0-0.2,0.1-0.3,0.2-0.5l0,0c0,0,0,0,0,0c0,0,0-0.1,0-0.1l0,0c0,0,0,0,0,0c0,0,0,0,0,0c0,0,0,0,0,0c0-0.1,0.1-0.2,0.1-0.2
	l20.5-28c0.4-0.5,1-0.8,1.6-0.8c0,0,0,0,0,0c0.6,0,1.2,0.3,1.6,0.8l20.5,28c0.1,0.1,0.1,0.2,0.1,0.2c0,0,0,0,0,0c0,0,0,0,0,0
	c0,0,0,0,0,0l0,0c0,0,0,0.1,0,0.1c0,0,0,0,0,0l0,0c0.1,0.2,0.1,0.3,0.2,0.5l9.9,45.2c0,0,0,0.1,0,0.1l0,0c0,0.3,0,0.5,0,0.8
	c0,0,0,0,0,0l0,0c0,0.1-0.1,0.3-0.2,0.4c-0.1,0.3-0.4,0.5-0.6,0.7c0,0,0,0,0,0c0,0,0,0,0,0c0,0,0,0-0.1,0l-30.4,19
	C65.1,111.6,64.7,111.7,64.3,111.7z M71.8,92.7l-4,12.5l19.9-12.5H71.8z M40.9,92.7l19.9,12.5l-4-12.5H40.9z M61,92.7l3.3,10.5
	l3.3-10.5H61z M73.1,88.7h18.2L79.6,68.2L73.1,88.7z M59.7,88.7h9.2l8-25.3L64.3,41.1L51.6,63.4L59.7,88.7z M37.3,88.7h18.2L49,68.2
	L37.3,88.7z M81.3,63l8.6,15.2l-5.5-25.1L81.3,63z M44.2,53.1l-5.5,25.1L47.3,63L44.2,53.1z M66.3,36.5l12.3,21.7l4-12.5L66.3,23.6
	V36.5z M46,45.8l4,12.5l12.3-21.7v-13L46,45.8z"/>
<path class="st0" d="M64,5c32.5,0,59,26.5,59,59s-26.5,59-59,59S5,96.5,5,64S31.5,5,64,5 M64,0C28.7,0,0,28.7,0,64s28.7,64,64,64
	s64-28.7,64-64S99.3,0,64,0L64,0z"/>
<path class="st0" d="M16.4,81.3c-0.8,0-1.6-0.5-1.9-1.4c-4.3-13.2-3.1-27.3,3.2-39.7c6.3-12.4,17.1-21.5,30.3-25.8
	c1.1-0.3,2.2,0.2,2.5,1.3c0.3,1.1-0.2,2.2-1.3,2.5c-12.2,3.9-22.1,12.4-28,23.8c-5.9,11.4-6.9,24.4-3,36.6c0.3,1.1-0.2,2.2-1.3,2.5
	C16.8,81.3,16.6,81.3,16.4,81.3z"/>
<path class="st0" d="M79.3,113.6c-0.8,0-1.6-0.5-1.9-1.4c-0.3-1.1,0.2-2.2,1.3-2.5c12.2-3.9,22.1-12.4,28-23.8
	c5.9-11.4,6.9-24.4,3-36.6c-0.3-1.1,0.2-2.2,1.3-2.5c1.1-0.3,2.2,0.2,2.5,1.3c4.3,13.2,3.1,27.3-3.2,39.7
	c-6.3,12.4-17.1,21.5-30.3,25.8C79.7,113.6,79.5,113.6,79.3,113.6z"/>
</svg>
