<?xml version="1.0" encoding="utf-8"?>
<!-- Generator: Adobe Illustrator 21.1.0, SVG Export Plug-In . SVG Version: 6.00 Build 0)  -->
<svg version="1.1" id="Layer_1" xmlns="http://www.w3.org/2000/svg" xmlns:xlink="http://www.w3.org/1999/xlink" x="0px" y="0px"
	 viewBox="0 0 128 128" style="enable-background:new 0 0 128 128;" xml:space="preserve">
<style type="text/css">
	.st0{fill:#026990;}
</style>
<path class="st0" d="M64,5c32.5,0,59,26.5,59,59s-26.5,59-59,59S5,96.5,5,64S31.5,5,64,5 M64,0C28.7,0,0,28.7,0,64s28.7,64,64,64
	c35.3,0,64-28.7,64-64S99.3,0,64,0L64,0z"/>
<path class="st0" d="M21.4,92.1c-0.7,0-1.3-0.3-1.7-1c-15-24.5-7.3-56.5,17.2-71.5c0.9-0.6,2.2-0.3,2.8,0.7c0.6,0.9,0.3,2.2-0.7,2.8
	c-22.6,13.8-29.7,43.4-15.9,66c0.6,0.9,0.3,2.2-0.7,2.8C22.1,92,21.7,92.1,21.4,92.1z"/>
<path class="st0" d="M90.1,108.6c-0.7,0-1.3-0.3-1.7-1c-0.6-0.9-0.3-2.2,0.7-2.8c10.9-6.7,18.6-17.2,21.6-29.7
	c3-12.5,1-25.4-5.7-36.3c-0.6-0.9-0.3-2.2,0.7-2.8c0.9-0.6,2.2-0.3,2.8,0.7c7.3,11.8,9.5,25.8,6.2,39.3
	c-3.2,13.5-11.6,24.9-23.4,32.2C90.8,108.5,90.5,108.6,90.1,108.6z"/>
<g>
	<path class="st0" d="M85.7,18.4c0.4,0,0.8,0.2,1.3,0.7c1,1.1,0.7,1.9-0.2,2.8c-2.5,2.5-4.9,5.1-7.4,7.5c-1.1,1.1-1.2,1.9-0.5,3.2
		c5.6,10,2.8,21.8-8.3,27.2c-1.1,0.5-2.3,0.7-3.4,1c-1.3,0.3-1.8,1-1.8,2.4c0.1,2.9,0.1,5.8,0,8.6c0,1.5,0.4,2.2,2,2.6
		c6,1.4,10.2,5,12.9,10.6c2.6,5.3,1.9,14.9-3.6,20.6c-3.3,3.4-8.3,5.3-13.2,5.3c-2,0-3.9-0.3-5.7-1C50.4,107,46,100.6,45.9,93
		c-0.1-9.3,4.9-15.9,13.9-18.4c1.3-0.4,2.1-1,2.1-2.4c0-3.3,0-6.6-0.2-9.9c0-0.6-1.1-1.4-1.8-1.6c-5.8-1.5-10-5-12.4-10.5
		C42,38,51,24.5,62.5,24.5c0.3,0,0.6,0,0.9,0c0.2,0,0.4,0,0.6,0c3.4,0,6.5,0.7,9.3,2.6c0.6,0.4,1.1,0.6,1.6,0.6c0.7,0,1.3-0.3,1.9-1
		c2.4-2.5,4.9-4.9,7.3-7.3C84.6,18.8,85.1,18.4,85.7,18.4 M63.8,57.5c0.6,0,1.1,0,1.7-0.1c1.3-0.2,2.7-0.6,3.9-1.2
		c1.2-0.6,2.4-1.3,3.4-2.2c1-0.9,2-1.9,2.7-3.1c0.8-1.1,1.4-2.4,1.8-3.7c0.4-1.3,0.7-2.7,0.7-4.1c0-0.1,0-0.1,0-0.2
		c0-7.1-5.2-14.5-13.9-14.5c-0.1,0-0.2,0-0.3,0c-8,0.2-14.4,6.2-14.4,14c0,1.4,0.2,2.7,0.5,4.1c0.3,1.3,0.9,2.5,1.5,3.7
		c0.6,1.1,1.4,2.2,2.4,3.1c0.9,0.9,1.9,1.7,3,2.4c1.1,0.6,2.3,1.1,3.6,1.5C61.5,57.3,62.7,57.5,63.8,57.5 M63.6,107.3
		c0,0,0.1,0,0.1,0c7.8-0.1,14.5-7,14.4-14.9c0-7.6-6.7-14.6-14-14.6c0,0-0.1,0-0.1,0c-7.7,0-14.7,6.8-14.8,14.5
		C49.1,99.9,56.2,107.3,63.6,107.3 M85.7,14.4c-2.3,0-3.8,1.5-4.4,2.1c-0.8,0.9-1.7,1.7-2.6,2.5c-1.3,1.3-2.7,2.7-4.1,4.1
		c-3.1-1.8-6.5-2.7-10.6-2.7c-0.2,0-0.4,0-0.6,0c-0.3,0-0.6,0-0.9,0c-6.7,0-13.1,3.6-17,9.7c-4.2,6.5-4.9,14.7-1.7,21.8
		c2.8,6.2,7.5,10.4,14,12.4c0.1,1.6,0.1,3.1,0.1,4.8c0,0.6,0,1.3,0,1.9c-10.2,3.2-16,11.2-15.9,22c0.1,9.2,5.5,17.1,14.3,20.6
		c2.2,0.9,4.6,1.3,7.2,1.3c6.1,0,12.1-2.4,16-6.5c6.8-7,7.6-18.4,4.4-25.1c-3.1-6.4-7.9-10.6-14.4-12.5c0-2,0-4.1,0-6.4
		c0.9-0.2,1.9-0.5,3-1c6.1-2.9,10.5-7.8,12.3-13.7c1.8-5.8,1.2-12.2-1.8-18.1c1.2-1.2,2.4-2.5,3.6-3.7c1-1,2-2.1,3.1-3.2
		c3.1-3.1,2.2-6.4,0.3-8.4C88.3,14.7,86.7,14.4,85.7,14.4L85.7,14.4z M63.8,53.5c-0.8,0-1.6-0.1-2.4-0.3c-0.9-0.2-1.8-0.6-2.6-1
		c-0.8-0.5-1.5-1-2.2-1.7c-0.7-0.7-1.2-1.4-1.7-2.3c-0.5-0.8-0.9-1.8-1.1-2.7c-0.3-1-0.4-2-0.4-3c0-5.6,4.5-9.9,10.5-10.1
		c0.1,0,0.2,0,0.3,0c6.2,0,9.9,5.3,9.9,10.5l0,0.1c0,1-0.2,1.9-0.5,2.9c-0.3,0.9-0.8,1.9-1.4,2.7c-0.6,0.9-1.3,1.6-2.1,2.3
		c-0.8,0.7-1.6,1.2-2.5,1.6c-0.9,0.4-1.8,0.7-2.7,0.8C64.6,53.4,64.2,53.5,63.8,53.5L63.8,53.5z M63.6,103.3c-2.4,0-4.9-1.2-6.9-3.3
		c-2.2-2.2-3.4-5.1-3.4-7.7c0.1-5.5,5.2-10.6,10.8-10.6l0.1,0c5.1,0,10,5.2,10,10.6C74.1,98.1,69.2,103.2,63.6,103.3L63.6,103.3
		L63.6,103.3z"/>
</g>
</svg>
