<?xml version="1.0" encoding="utf-8"?>
<!-- Generator: Adobe Illustrator 21.1.0, SVG Export Plug-In . SVG Version: 6.00 Build 0)  -->
<svg version="1.1" id="Layer_1" xmlns="http://www.w3.org/2000/svg" xmlns:xlink="http://www.w3.org/1999/xlink" x="0px" y="0px"
	 viewBox="0 0 128 128" style="enable-background:new 0 0 128 128;" xml:space="preserve">
<style type="text/css">
	.st0{fill:#4C6F8C;}
	.st1{fill:#829AAF;}
</style>
<g>
	<path class="st0" d="M88.6,96.3c-0.8,0-1.5,0-2.2-0.1c-3-0.2-5.1-2.6-5.1-5.7c0-6.1,0-12.2,0-18.3l0-40l0-0.3c0-0.3,0-0.6,0-0.8
		c0.1-3.1,2.2-5.2,5.2-5.4c1.3-0.1,2.7-0.1,4.3,0c2.6,0.1,4.6,1.8,5.2,4.3c0.2,0.9,0.3,1.9,0.3,2.8c0,18.4,0,36.7,0,55.1
		c0,1.3-0.1,2.5-0.2,3.9c-0.2,2.3-2.6,4.4-5.1,4.5C90.1,96.3,89.4,96.3,88.6,96.3z M88.6,29.7c-0.7,0-1.3,0-1.9,0
		c-0.6,0-1.4,0.2-1.4,1.5c0,0.2,0,0.5,0,0.7l0,0.3l0,40c0,6.1,0,12.2,0,18.3c0,0.8,0.4,1.7,1.4,1.7c1.3,0.1,2.6,0.1,4.1,0
		c0.6,0,1.3-0.6,1.3-0.9c0.1-1.3,0.2-2.4,0.2-3.5c0-18.4,0-36.7,0-55.1c0-0.6-0.1-1.2-0.2-1.9c-0.2-0.7-0.7-1.2-1.5-1.2
		C89.9,29.7,89.2,29.7,88.6,29.7z"/>
	<path class="st1" d="M51.4,96.3c-0.6,0-1.2,0-1.8,0c-2.9-0.1-4.8-1.9-5.2-4.8c-0.2-1.1-0.2-2-0.2-2.9c0-9.7,0-19.5,0-29.2
		c0-0.9,0.1-1.9,0.4-3c0.4-1.8,1.7-3.1,3.5-3.6c2.2-0.6,4.4-0.7,6.7-0.1c2.7,0.6,4.3,2.5,4.5,5.3c0.1,0.8,0.1,1.5,0,2.2l0,0.7
		l0,13.8l0,15l0,0.3c0,0.4,0,0.8,0,1.2c-0.3,3.3-2.5,5.2-5.7,5.3C52.8,96.3,52.1,96.3,51.4,96.3z M51.6,56.2c-0.8,0-1.7,0.1-2.5,0.4
		c-0.4,0.1-0.6,0.3-0.7,0.7c-0.2,0.8-0.3,1.5-0.3,2.1c0,9.7,0,19.4,0,29.2c0,0.7,0.1,1.4,0.2,2.3c0.1,1,0.5,1.3,1.5,1.4
		c1.2,0.1,2.5,0,3.5,0c1.2,0,1.7-0.5,1.8-1.7c0-0.2,0-0.5,0-0.7l0-0.3l0-18.4l0-10.3l0-0.7c0-0.7,0-1.3,0-1.8
		c-0.1-1.1-0.4-1.4-1.4-1.7C53,56.3,52.3,56.2,51.6,56.2z"/>
	<path class="st1" d="M70.2,96.3c-0.7,0-1.4,0-2.1-0.1C65,96,63,94,62.6,90.9c0-0.3,0-0.6,0-0.9l0-0.1l0-4c0-6,0-12,0-18
		c0-1,0.1-1.9,0.4-2.6c0.8-2.2,2.4-3.4,4.4-3.6c1.8-0.1,3.3-0.2,4.9-0.1c3.3,0.2,5.3,2.5,5.3,5.9c0.1,2.7,0,5.4,0,8.1
		c0,1.1,0,2.3,0,3.4l0,2.8c0,2.7,0,5.4,0,8.1c0,1-0.3,2-0.6,2.8c-0.7,2-2.4,3.3-4.7,3.5C71.6,96.3,70.9,96.3,70.2,96.3z M70.7,65.6
		c-0.9,0-1.9,0.1-3,0.1c-0.2,0-0.6,0-0.9,1c-0.1,0.2-0.2,0.5-0.2,1.2c0,6,0,12,0,18l0,4l0,0.2c0,0.2,0,0.3,0,0.5
		c0.1,1.4,1,1.7,1.7,1.7c1.2,0.1,2.5,0.1,3.8,0c1-0.1,1.1-0.4,1.2-0.7c0.2-0.6,0.4-1.2,0.4-1.7c0-2.7,0-5.4,0-8.1l0-2.8c0,0,0,0,0,0
		c0-1.1,0-2.3,0-3.4c0-2.6,0-5.3,0-8c0-1.8-0.8-2-1.6-2C71.6,65.6,71.2,65.6,70.7,65.6z"/>
	<path class="st1" d="M33.4,96.3c-0.7,0-1.4,0-2.1-0.1l-0.1,0c-3.3-0.1-5.5-2.3-5.5-5.7c0-5,0-9.6,0-14.2c0-3.3,2.3-5.6,5.7-5.7
		c1,0,2.3-0.1,3.7,0c3,0.1,5.2,2.1,5.5,4.9l0.1,0.5c0.1,0.7,0.1,1.4,0.2,2.1c0,1.3,0,2.6,0,3.9l0,1.5v0l0,1.9c0,1.4,0,2.9,0,4.3
		c0,1.5-0.3,3.7-2.3,5.1c-0.7,0.5-1.8,1.1-3,1.2C34.8,96.3,34.1,96.3,33.4,96.3z M33.3,74.7c-0.5,0-1.2,0-1.8,0
		c-1.6,0-1.8,1-1.8,1.7c0,4.5-0.1,9.1,0,14.1c0,1.2,0.5,1.7,1.7,1.7l0.1,0c1.3,0.1,2.4,0.1,3.6,0c0.2,0,0.6-0.2,1.1-0.5
		c0.3-0.2,0.6-0.7,0.6-1.9c0-1.4,0-2.8,0-4.2l0-1.9l0-1.6c0-1.3,0-2.5,0-3.8c0-0.5-0.1-1.1-0.1-1.7L36.6,76
		c-0.1-0.8-0.6-1.3-1.7-1.3C34.4,74.7,33.9,74.7,33.3,74.7z M38.8,83.6L38.8,83.6L38.8,83.6z"/>
</g>
<path class="st1" d="M64,5c32.5,0,59,26.5,59,59s-26.5,59-59,59S5,96.5,5,64S31.5,5,64,5 M64,0C28.7,0,0,28.7,0,64s28.7,64,64,64
	c35.3,0,64-28.7,64-64S99.3,0,64,0L64,0z"/>
<path class="st1" d="M14,66.7c-1.1,0-2-0.9-2-2c-0.2-13.9,5-27,14.7-37c9.7-10,22.7-15.5,36.6-15.7c1.1,0,2,0.9,2,2s-0.9,2-2,2
	c-12.8,0.2-24.8,5.3-33.7,14.5C20.7,39.7,15.8,51.8,16,64.6C16,65.8,15.1,66.7,14,66.7C14,66.7,14,66.7,14,66.7z"/>
<path class="st1" d="M64.7,116c-1.1,0-2-0.9-2-2c0-1.1,0.9-2,2-2c26.5-0.4,47.7-22.2,47.3-48.6c0-1.1,0.9-2,2-2c1.1,0,2,0.9,2,2
	c0.2,13.9-5,27-14.7,37C91.6,110.2,78.6,115.8,64.7,116C64.7,116,64.7,116,64.7,116z"/>
</svg>
