<?xml version="1.0" encoding="utf-8"?>
<!-- Generator: Adobe Illustrator 21.1.0, SVG Export Plug-In . SVG Version: 6.00 Build 0)  -->
<svg version="1.1" id="Layer_1" xmlns="http://www.w3.org/2000/svg" xmlns:xlink="http://www.w3.org/1999/xlink" x="0px" y="0px"
	 viewBox="0 0 128 128" style="enable-background:new 0 0 128 128;" xml:space="preserve">
<style type="text/css">
	.st0{fill:#01A996;}
</style>
<g>
	<path class="st0" d="M80.4,29.3c-2.4,0-4.3,2-4.2,4.1c0,2.3,1.8,4.2,4,4.3c0,0,0,0,0.1,0c2.4,0,4.3-1.8,4.3-4.1
		c0-2.3-1.8-4.2-4-4.3C80.5,29.3,80.5,29.3,80.4,29.3z"/>
	<path class="st0" d="M85.1,96.9C85.1,96.9,85.1,96.9,85.1,96.9c2.3,0,4.2-1.9,4.2-4.2c0-2.4-1.8-4.2-4.2-4.2
		c-2.4,0-4.2,1.8-4.2,4.2C80.9,95,82.8,96.9,85.1,96.9z M85.1,92.5c0.1,0,0.2,0,0.2,0.2c0,0,0,0.1-0.1,0.1c0,0-0.1,0.1-0.1,0.1
		c-0.1,0-0.2-0.1-0.2-0.2C84.9,92.7,84.9,92.5,85.1,92.5z"/>
	<path class="st0" d="M31.5,63C31.5,63,31.5,63,31.5,63c-2.3,0-4.2,1.8-4.2,4.1c0,2.4,1.8,4.3,4.2,4.3c0,0,0,0,0,0
		c2.3,0,4.2-1.8,4.2-4.1C35.6,64.9,33.8,63,31.5,63z"/>
	<path class="st0" d="M81.6,41C81.6,41,81.5,41,81.6,41c-2,0-3.6,1.6-3.6,3.6c0,2,1.6,3.6,3.5,3.6c0,0,0,0,0,0c2,0,3.6-1.7,3.6-3.6
		C85.1,42.6,83.5,41,81.6,41z"/>
	<path class="st0" d="M40.4,57C40.4,57,40.4,57,40.4,57c-2,0-3.6,1.6-3.6,3.6c0,2,1.6,3.6,3.6,3.6c0,0,0,0,0,0c2,0,3.6-1.6,3.6-3.6
		C44.1,58.6,42.4,57,40.4,57z"/>
	<path class="st0" d="M90.9,49.5C90.9,49.5,90.9,49.5,90.9,49.5c2,0,3.6-1.6,3.6-3.6c0-1.9-1.6-3.6-3.6-3.6c0,0,0,0-0.1,0
		c-1.9,0-3.6,1.6-3.6,3.6C87.3,47.9,88.9,49.5,90.9,49.5z"/>
	<path class="st0" d="M74.9,91.8c2,0,3.6-1.6,3.6-3.6c0-1.9-1.7-3.6-3.6-3.6c0,0,0,0-0.1,0c-2,0-3.6,1.6-3.6,3.6
		C71.3,90.1,72.9,91.8,74.9,91.8C74.9,91.8,74.9,91.8,74.9,91.8z"/>
	<path class="st0" d="M40.5,51.9c0-2-1.6-3.6-3.6-3.6c0,0,0,0,0,0c-1.9,0-3.6,1.6-3.6,3.6c0,2,1.6,3.6,3.5,3.6c0,0,0,0,0,0
		C38.9,55.4,40.5,53.8,40.5,51.9z"/>
	<path class="st0" d="M69,99.2C69,99.2,69,99.2,69,99.2c2,0,3.6-1.6,3.6-3.5c0-2-1.6-3.6-3.6-3.6c0,0,0,0,0,0c-2,0-3.6,1.6-3.6,3.6
		C65.5,97.6,67,99.2,69,99.2z"/>
	<path class="st0" d="M61.5,93C61.5,93,61.5,93,61.5,93c1.7,0,3-1.4,3.1-3c0-1.7-1.4-3.1-3-3.1c0,0,0,0,0,0c-1.7,0-3,1.3-3,3
		C58.4,91.6,59.8,93,61.5,93z"/>
	<path class="st0" d="M89.7,58.4C89.7,58.4,89.8,58.4,89.7,58.4c1.7,0,3.1-1.4,3.1-3.1c0-1.7-1.3-3.1-3-3.1c0,0,0,0,0,0
		c-1.7,0-3,1.4-3,3.1C86.7,57,88.1,58.4,89.7,58.4z"/>
	<path class="st0" d="M45.7,51.2C45.7,51.2,45.7,51.2,45.7,51.2c1.7,0,3-1.3,3.1-3c0-1.8-1.3-3.1-3-3.1c0,0,0,0,0,0
		c-1.7,0-3,1.3-3.1,3C42.6,49.8,43.9,51.2,45.7,51.2z"/>
	<path class="st0" d="M49.2,60c1.7,0,3-1.4,3-3.1c0-1.7-1.3-3-3-3.1c0,0,0,0,0,0c-1.7,0-3.1,1.3-3.1,3.1C46.2,58.6,47.5,60,49.2,60
		C49.2,60,49.2,60,49.2,60z"/>
	<path class="st0" d="M44.4,43.2c1.7,0,3-1.3,3-3.1c0-1.7-1.3-3.1-3-3.1c0,0,0,0,0,0c-1.7,0-3,1.4-3.1,3
		C41.3,41.9,42.7,43.2,44.4,43.2C44.4,43.2,44.4,43.2,44.4,43.2z"/>
	<path class="st0" d="M80.4,51C80.4,51,80.4,51,80.4,51c-1.7,0-3.1,1.4-3.1,3.1c0,1.7,1.3,3,3,3.1c0,0,0,0,0,0c1.7,0,3.1-1.3,3.1-3
		C83.5,52.4,82.1,51,80.4,51z"/>
	<path class="st0" d="M67.2,85.5C67.3,85.5,67.3,85.5,67.2,85.5c1.7,0,3.1-1.4,3.1-3.1c0-1.7-1.4-3.1-3-3.1c0,0,0,0,0,0
		c-1.7,0-3.1,1.4-3.1,3.1C64.2,84.2,65.5,85.5,67.2,85.5z"/>
	<path class="st0" d="M55.2,98.1C55.2,98.1,55.2,98.1,55.2,98.1c1.7,0,3-1.3,3-3.1c0-1.7-1.3-3.1-3-3.1c0,0,0,0,0,0
		c-1.7,0-3.1,1.4-3.1,3.1C52.2,96.7,53.5,98.1,55.2,98.1z"/>
	<path class="st0" d="M97.2,61.3C97.2,61.3,97.3,61.3,97.2,61.3c1.7,0,3.1-1.4,3.1-3c0-1.7-1.4-3.1-3-3.1c0,0,0,0,0,0
		c-1.7,0-3.1,1.4-3.1,3.1C94.2,59.9,95.6,61.3,97.2,61.3z"/>
	<path class="st0" d="M56.3,81.1C56.3,81.1,56.3,81.1,56.3,81.1c-1.5,0-2.7,1.2-2.7,2.6c0,1.4,1.2,2.6,2.6,2.6c0,0,0,0,0,0
		c1.4,0,2.6-1.2,2.6-2.6C58.9,82.3,57.7,81.1,56.3,81.1z"/>
	<path class="st0" d="M53.6,44.1C53.6,44.1,53.6,44.1,53.6,44.1c-1.4,0-2.6,1.2-2.6,2.6c0,1.4,1.2,2.7,2.6,2.7c0,0,0,0,0,0
		c1.4,0,2.6-1.2,2.6-2.6C56.2,45.3,55.1,44.1,53.6,44.1z"/>
	<path class="st0" d="M62.1,78.9C62.1,78.9,62.1,78.9,62.1,78.9c1.5,0,2.6-1.2,2.6-2.6c0-1.5-1.2-2.6-2.7-2.6c0,0,0,0,0,0
		c-1.5,0-2.6,1.2-2.6,2.6C59.5,77.8,60.6,78.9,62.1,78.9z"/>
	<path class="st0" d="M47.4,88.8c0,1.5,1.2,2.6,2.7,2.6c0,0,0,0,0,0c1.4,0,2.6-1.1,2.6-2.6c0-1.5-1.2-2.6-2.6-2.6c0,0,0,0,0,0
		C48.5,86.2,47.4,87.4,47.4,88.8z"/>
	<path class="st0" d="M75,61.6c0,1.5,1.1,2.6,2.6,2.6c0,0,0,0,0,0c1.4,0,2.6-1.1,2.6-2.6c0-1.5-1.1-2.7-2.6-2.7c0,0,0,0,0,0
		C76.2,59,75,60.2,75,61.6z"/>
	<path class="st0" d="M52.4,36.1c-1.5,0-2.6,1.2-2.6,2.7c0,1.5,1.1,2.6,2.6,2.6c0,0,0,0,0,0c1.5,0,2.6-1.2,2.6-2.6
		C55,37.3,53.8,36.1,52.4,36.1z"/>
	<path class="st0" d="M87,65.5C87,65.5,87,65.5,87,65.5c1.5,0,2.6-1.1,2.6-2.5c0-1.5-1.1-2.7-2.6-2.7c0,0,0,0,0,0
		c-1.5,0-2.6,1.2-2.6,2.6C84.4,64.4,85.5,65.5,87,65.5z"/>
	<path class="st0" d="M54.6,55.4c0,1.5,1.1,2.6,2.6,2.6c0,0,0,0,0,0c1.5,0,2.7-1.1,2.7-2.6c0-1.5-1.1-2.6-2.6-2.6c0,0,0,0,0,0
		C55.8,52.9,54.6,54,54.6,55.4z"/>
	<path class="st0" d="M94.6,68.4c1.4,0,2.5-1.1,2.6-2.5c0.1-1.5-1.1-2.7-2.6-2.8c0,0,0,0-0.1,0c-1.4,0-2.5,1.1-2.6,2.5
		c-0.1,1.5,1.1,2.7,2.5,2.7C94.5,68.4,94.5,68.4,94.6,68.4z"/>
	<path class="st0" d="M61.8,55.8c0,1.3,1,2.2,2.2,2.2c0,0,0,0,0,0c1.3,0,2.2-1,2.3-2.2c0-1.3-1-2.2-2.2-2.2c0,0,0,0,0,0
		C62.8,53.6,61.8,54.6,61.8,55.8z"/>
	<path class="st0" d="M90.8,73.9c1.2,0,2.2-1.1,2.2-2.3c0-1.3-1-2.2-2.2-2.2c0,0,0,0,0,0c-1.3,0-2.2,1-2.2,2.3
		C88.6,72.8,89.6,73.9,90.8,73.9C90.8,73.9,90.8,73.9,90.8,73.9z"/>
	<path class="st0" d="M59.3,36.9C59.3,36.9,59.3,36.9,59.3,36.9c-1.3,0-2.3,1-2.3,2.2c0,1.2,1,2.3,2.2,2.3c0,0,0,0,0,0
		c1.3,0,2.2-0.9,2.2-2.2C61.4,37.9,60.5,36.9,59.3,36.9z"/>
	<path class="st0" d="M59,72.4C59,72.4,59,72.4,59,72.4c1.2,0,2.2-1,2.2-2.2c0-1.3-1-2.2-2.2-2.2c0,0,0,0,0,0c-1.3,0-2.2,1-2.2,2.2
		C56.7,71.4,57.7,72.4,59,72.4z"/>
	<path class="st0" d="M53.2,79.9C53.2,79.9,53.2,79.9,53.2,79.9c1.3,0,2.2-1,2.2-2.3c0-1.2-1-2.2-2.2-2.2c0,0,0,0,0,0
		c-1.3,0-2.3,1-2.3,2.3C50.9,78.9,51.9,79.9,53.2,79.9z"/>
	<path class="st0" d="M83.3,66.4C83.3,66.4,83.3,66.4,83.3,66.4c-1.2,0-2.3,1-2.3,2.2c0,1.2,1,2.3,2.2,2.3c0,0,0,0,0,0
		c1.3,0,2.2-1,2.2-2.2C85.5,67.4,84.6,66.5,83.3,66.4z"/>
	<path class="st0" d="M73.9,65.2c-1.3,0-2.3,1-2.3,2.2c0,1.2,1,2.2,2.3,2.3c0,0,0,0,0,0c1.3,0,2.2-1,2.2-2.3
		C76.1,66.1,75.2,65.2,73.9,65.2C73.9,65.2,73.9,65.2,73.9,65.2z"/>
	<path class="st0" d="M49.2,82.7c0-1.2-1-2.3-2.2-2.3c0,0,0,0,0,0c-1.2,0-2.2,1-2.2,2.3c0,1.3,1,2.2,2.2,2.2c0,0,0,0,0,0
		C48.2,84.9,49.1,84,49.2,82.7z"/>
	<path class="st0" d="M60.5,44.8C60.5,44.8,60.5,44.8,60.5,44.8c-1.3,0-2.3,1.1-2.3,2.3c0,1.2,1,2.2,2.3,2.2c0,0,0,0,0,0
		c1.3,0,2.2-1,2.2-2.2C62.7,45.8,61.7,44.8,60.5,44.8z"/>
	<path class="st0" d="M81,72.7c0-1.1-0.9-1.9-1.9-1.9c0,0,0,0,0,0c-1.1,0-1.9,0.9-1.9,2c0,1.1,0.8,1.9,1.9,1.9c0,0,0,0,0,0
		C80.2,74.7,81,73.8,81,72.7z"/>
	<path class="st0" d="M57.6,66.5c1,0,1.9-0.9,1.9-2c0-1.1-0.8-1.9-1.9-2c0,0,0,0,0,0c-1,0-2,0.9-1.9,2
		C55.6,65.5,56.6,66.5,57.6,66.5C57.6,66.5,57.6,66.5,57.6,66.5z"/>
	<path class="st0" d="M45.5,79c1,0,1.9-0.9,1.9-1.9c0-1.1-0.8-1.9-1.9-1.9c0,0,0,0,0,0c-1.1,0-1.9,0.8-2,1.9
		C43.5,78,44.4,79,45.5,79C45.5,79,45.5,79,45.5,79z"/>
	<path class="st0" d="M69.7,59.4c1.1,0,1.9-0.8,1.9-1.9c0-1.1-0.8-1.9-1.9-1.9c0,0,0,0,0,0c-1.1,0-2,0.8-2,1.9
		C67.7,58.5,68.6,59.4,69.7,59.4C69.7,59.4,69.7,59.4,69.7,59.4z"/>
	<path class="st0" d="M66.1,46.7C66.1,46.7,66.1,46.7,66.1,46.7c-1.1,0-1.9,0.8-1.9,1.9c0,1.1,0.8,2,1.9,2c0,0,0,0,0,0
		c1.1,0,1.9-0.9,1.9-1.9C68,47.6,67.2,46.7,66.1,46.7z"/>
	<path class="st0" d="M51.7,74C51.7,74,51.7,74,51.7,74c1,0,1.9-0.9,1.9-2c0-1.1-0.8-1.9-1.9-1.9c0,0,0,0,0,0
		c-1.1,0-1.9,0.8-1.9,1.9C49.8,73,50.7,74,51.7,74z"/>
	<path class="st0" d="M69.7,73.4C69.7,73.4,69.7,73.4,69.7,73.4c1.1,0,1.9-0.8,1.9-1.9c0-1.1-0.8-1.9-1.9-1.9c0,0,0,0,0,0
		c-1.1,0-1.9,0.8-1.9,1.9C67.8,72.5,68.6,73.4,69.7,73.4z"/>
	<path class="st0" d="M86.6,77.6C86.6,77.6,86.6,77.6,86.6,77.6c1.1,0,1.9-0.8,1.9-2c0-1-0.9-1.9-1.9-1.9c0,0,0,0,0,0
		c-1,0-1.9,0.9-1.9,2C84.7,76.7,85.5,77.6,86.6,77.6z"/>
	<path class="st0" d="M64.9,38.8C64.9,38.8,64.9,38.8,64.9,38.8c-1.1,0-1.9,0.8-2,1.9c0,1.1,0.8,2,1.9,2c0,0,0,0,0,0
		c1.1,0,1.9-0.9,1.9-1.9C66.7,39.6,65.9,38.8,64.9,38.8z"/>
	<path class="st0" d="M69.2,41.5C69.2,41.5,69.2,41.5,69.2,41.5c-0.9,0-1.7,0.7-1.7,1.7c0,0.9,0.7,1.6,1.6,1.7c0,0,0,0,0,0
		c0.9,0,1.6-0.7,1.7-1.6C70.8,42.2,70.1,41.5,69.2,41.5z"/>
	<path class="st0" d="M45.4,70.4c-0.9,0-1.6,0.7-1.6,1.6c0,1,0.7,1.7,1.6,1.7c0,0,0,0,0,0c0.9,0,1.6-0.7,1.7-1.6
		C47.1,71.2,46.3,70.5,45.4,70.4C45.4,70.4,45.4,70.4,45.4,70.4z"/>
	<path class="st0" d="M82.4,79.8C82.4,79.8,82.4,79.8,82.4,79.8c0.9,0,1.6-0.7,1.6-1.7c0-0.9-0.7-1.6-1.6-1.6c0,0,0,0,0,0
		c-0.9,0-1.7,0.7-1.7,1.7C80.7,79.1,81.5,79.8,82.4,79.8z"/>
	<path class="st0" d="M51.6,68.7C51.6,68.7,51.6,68.7,51.6,68.7c0.9,0,1.7-0.7,1.7-1.6c0-0.9-0.7-1.6-1.7-1.7c0,0,0,0,0,0
		c-0.9,0-1.6,0.7-1.6,1.6C50,67.9,50.7,68.7,51.6,68.7z"/>
	<path class="st0" d="M70.4,49.4c-0.9,0-1.6,0.7-1.7,1.6c0,0.9,0.7,1.7,1.6,1.7c0,0,0,0,0,0c1,0,1.7-0.7,1.7-1.6
		C72.1,50.1,71.4,49.4,70.4,49.4C70.4,49.4,70.4,49.4,70.4,49.4z"/>
	<path class="st0" d="M74.9,73.7C74.9,73.7,74.9,73.7,74.9,73.7c-1,0-1.7,0.7-1.7,1.6c0,0.9,0.7,1.7,1.6,1.7c0,0,0,0,0,0
		c0.9,0,1.7-0.7,1.7-1.7C76.5,74.4,75.8,73.7,74.9,73.7z"/>
	<path class="st0" d="M47.7,68c0-0.8-0.6-1.4-1.4-1.4c0,0,0,0,0,0c-0.8,0-1.5,0.6-1.5,1.4c0,0.8,0.7,1.5,1.4,1.5c0,0,0,0,0,0
		C47.1,69.4,47.7,68.8,47.7,68z"/>
	<path class="st0" d="M79.8,79.5c0-0.8-0.6-1.4-1.4-1.4c0,0,0,0,0,0c-0.8,0-1.4,0.6-1.4,1.4c0,0.8,0.7,1.4,1.4,1.4c0,0,0,0,0,0
		C79.2,80.9,79.8,80.3,79.8,79.5z"/>
	<path class="st0" d="M72.3,44.5C72.3,44.5,72.3,44.5,72.3,44.5c-0.8,0-1.4,0.6-1.4,1.4c0,0.8,0.6,1.4,1.4,1.4c0,0,0,0,0,0
		c0.8,0,1.4-0.6,1.4-1.4C73.7,45.1,73.1,44.5,72.3,44.5z"/>
	<path class="st0" d="M64,0C28.7,0,0,28.7,0,64c0,35.3,28.7,64,64,64s64-28.7,64-64C128,28.7,99.3,0,64,0z M64,123
		C31.5,123,5,96.5,5,64S31.5,5,64,5s59,26.5,59,59S96.5,123,64,123z"/>
	<path class="st0" d="M78.4,18.2c1,0.3,2.2-0.3,2.5-1.3c0.3-1.1-0.3-2.2-1.3-2.5c-27.4-8.6-56.6,6.7-65.2,34
		c-0.3,1.1,0.3,2.2,1.3,2.5c0.2,0.1,0.4,0.1,0.6,0.1c0.9,0,1.6-0.5,1.9-1.4C26.1,24.4,53.1,10.3,78.4,18.2z"/>
	<path class="st0" d="M112.3,77.1c-1.1-0.3-2.2,0.3-2.5,1.3c-7.9,25.3-34.9,39.3-60.2,31.4c-1-0.3-2.2,0.3-2.5,1.3
		c-0.3,1.1,0.3,2.2,1.3,2.5c5.2,1.6,10.4,2.4,15.5,2.4c22.1,0,42.7-14.2,49.6-36.4C113.9,78.5,113.4,77.4,112.3,77.1z"/>
</g>
</svg>
