<?xml version="1.0" encoding="utf-8"?>
<!-- Generator: Adobe Illustrator 21.1.0, SVG Export Plug-In . SVG Version: 6.00 Build 0)  -->
<svg version="1.1" id="Layer_1" xmlns="http://www.w3.org/2000/svg" xmlns:xlink="http://www.w3.org/1999/xlink" x="0px" y="0px"
	 viewBox="0 0 128 128" style="enable-background:new 0 0 128 128;" xml:space="preserve">
<style type="text/css">
	.st0{fill:none;}
	.st1{fill:#E5D420;}
	.st2{fill:#FFFFFF;}
	.st3{fill:#F18121;}
</style>
<g>
	<path class="st0" d="M76.5,44.1c-0.1,0-0.2,0-0.2,0S76.4,44.1,76.5,44.1z"/>
	<path class="st0" d="M74.5,45.1L74.5,45.1c0.4,0,0.8,0,1.2-0.1c0.1,0,0.2,0,0.3-0.1c-0.1,0-0.2,0.1-0.3,0.1
		C75.3,45.1,74.9,45.1,74.5,45.1z"/>
	<path class="st0" d="M78.1,44.3L78.1,44.3c0-0.1,0-0.2,0-0.3l0,0l0,0C78,44,78.1,44.1,78.1,44.3z"/>
	<path class="st0" d="M75,34.4L75,34.4c0,0.1,0,0.3,0,0.4C74.9,34.7,74.9,34.5,75,34.4z"/>
	<path class="st0" d="M77.2,44.1c-0.1,0-0.2,0-0.3,0C77.1,44.1,77.2,44.1,77.2,44.1z"/>
	<path class="st0" d="M74.9,43.8L74.9,43.8C75,43.9,74.9,43.9,74.9,43.8z"/>
	<path class="st0" d="M75.6,44c0.1,0,0.2,0,0.2,0C75.7,44,75.6,44,75.6,44z"/>
	<path class="st0" d="M74.1,43.5c0.1,0,0.1,0.1,0.2,0.1C74.2,43.6,74.1,43.5,74.1,43.5z"/>
	<path class="st0" d="M73.4,43.2c0.1,0,0.1,0.1,0.2,0.1C73.6,43.2,73.5,43.2,73.4,43.2z"/>
	<path class="st0" d="M70.3,37.3L70.3,37.3c0.6-0.1,1.1-0.3,1.6-0.5C71.4,37,70.9,37.2,70.3,37.3z"/>
	<path class="st0" d="M74,35.6L74,35.6C73.9,35.6,74,35.6,74,35.6z"/>
	<path class="st0" d="M27.6,51.7c0-0.1,0-0.2,0-0.3C27.5,51.5,27.6,51.6,27.6,51.7z"/>
	<path class="st0" d="M57.9,33.4c-0.3-0.1-0.6-0.3-0.9-0.4h-0.1H57C57.3,33.2,57.6,33.3,57.9,33.4z"/>
	<path class="st0" d="M56.5,33L56.5,33L56.5,33C56.4,33,56.4,33,56.5,33z"/>
	<path class="st0" d="M30.7,42.5c0.1-0.1,0.1-0.1,0.2-0.2C30.8,42.4,30.7,42.4,30.7,42.5z"/>
	<path class="st0" d="M28.2,46.5c0.3-0.8,0.7-1.6,1.2-2.3C28.9,44.9,28.5,45.7,28.2,46.5z"/>
	<path class="st0" d="M72.8,42.8L72.8,42.8c0.1,0,0.1,0.1,0.2,0.1C72.9,42.9,72.9,42.8,72.8,42.8z"/>
	<path class="st0" d="M73.8,37.1c0.4-0.6,0.8-1.2,1.1-2c0-0.1,0.1-0.2,0.1-0.4c0,0.1,0,0.3-0.1,0.4C74.6,36,74.2,36.6,73.8,37.1z"/>
	<path class="st0" d="M57.8,34.3c0.7,0.8,1.1,1.8,1.3,2.9c0,0.1,0.1,0.2,0.1,0.3l0,0c0-0.1-0.1-0.2-0.1-0.3
		C58.9,36.1,58.5,35.2,57.8,34.3z"/>
	<path class="st0" d="M64.8,34.9c0.5-0.8,0.9-1.5,1.1-2.3C65.7,33.4,65.3,34.2,64.8,34.9z"/>
	<path class="st0" d="M65.8,29.8L65.8,29.8c0.3,1,0.3,2,0.1,2.9C66.1,31.7,66.1,30.8,65.8,29.8z"/>
	<path class="st0" d="M63.9,55c0-0.3,0-0.5,0-0.7C63.8,54.5,63.8,54.7,63.9,55z"/>
	<path class="st0" d="M56.1,42.7c-0.3-0.1-0.5-0.3-0.8-0.4C55.6,42.4,55.8,42.5,56.1,42.7z"/>
	<path class="st0" d="M72.6,44.8c0.2,0,0.3,0.1,0.5,0.1C72.9,44.9,72.8,44.9,72.6,44.8L72.6,44.8z"/>
	<path class="st0" d="M55.2,42.3c-0.3-0.1-0.5-0.2-0.8-0.2C54.6,42.1,54.9,42.1,55.2,42.3z"/>
	<path class="st0" d="M54.2,42c-0.3-0.1-0.6-0.1-0.9-0.1C53.7,41.9,54,41.9,54.2,42z"/>
	<path class="st0" d="M53.6,41c0.2-0.1,0.4-0.1,0.6-0.1C54,40.9,53.8,41,53.6,41z"/>
	<path class="st0" d="M57,43.2c-0.3-0.2-0.5-0.3-0.8-0.5C56.4,42.8,56.7,43,57,43.2z"/>
	<path class="st0" d="M51.3,42.1c0.7-0.1,1.2-0.2,1.8-0.3C52.6,41.9,52.1,42,51.3,42.1L51.3,42.1z"/>
	<path class="st0" d="M52.6,41.4c0.2-0.1,0.4-0.2,0.6-0.3C53,41.2,52.8,41.3,52.6,41.4z"/>
	<path class="st0" d="M51.3,42.1c0.3-0.2,0.6-0.4,0.9-0.6C52,41.7,51.7,41.9,51.3,42.1z"/>
	<path class="st0" d="M56.1,41c-0.2,0-0.5-0.1-0.7-0.1s-0.4,0-0.5,0s-0.2,0-0.3,0c0.3,0,0.5,0,0.8,0C55.7,40.9,55.9,40.9,56.1,41z"
		/>
	<path class="st0" d="M57,48c0.3-0.2,0.6-0.5,1-0.7C57.7,47.5,57.3,47.7,57,48z"/>
	<path class="st0" d="M70.9,49.5c0.1,0.2,0.2,0.4,0.2,0.7C71.1,50,71,49.8,70.9,49.5z"/>
	<path class="st0" d="M73.3,52.7C73.3,52.7,73.3,52.8,73.3,52.7C73.3,52.8,73.3,52.7,73.3,52.7c-1-0.6-1.6-1.4-2-2.3
		C71.7,51.3,72.3,52.1,73.3,52.7z"/>
	<path class="st0" d="M74.4,45.1c-0.3,0-0.7,0-1-0.1C73.7,45.1,74.1,45.1,74.4,45.1z"/>
	<path class="st0" d="M73.5,53.1c-0.1,0-0.2-0.1-0.3-0.1C73.3,53.1,73.4,53.1,73.5,53.1L73.5,53.1L73.5,53.1z"/>
	<path class="st0" d="M59.4,48.7c-1.2,0.2-2.2,0.6-3.1,1.3C57.2,49.3,58.3,49,59.4,48.7L59.4,48.7z"/>
	<path class="st0" d="M62.8,52.8L62.8,52.8c0,1.5,0.5,2.8,1.3,3.5l0,0C63.3,55.5,62.8,54.3,62.8,52.8z"/>
	<path class="st0" d="M56.6,48.3c-1.2,1.1-1.9,2.4-1.7,3.5l0,0C54.7,50.8,55.4,49.4,56.6,48.3z"/>
	<path class="st0" d="M44.3,36.4L44.3,36.4L44.3,36.4L44.3,36.4z"/>
	<path class="st0" d="M63.1,50.7c0,0.1-0.1,0.2-0.1,0.3C63,50.9,63,50.8,63.1,50.7L63.1,50.7z"/>
	<path class="st0" d="M65.5,71.8c2.3-0.8,4.7-1.4,7.2-2c2.7-0.6,5.5-1.2,8.2-2c-2.7,0.7-5.4,1.4-8.2,2C70.2,70.3,67.8,71,65.5,71.8z
		"/>
	<path class="st0" d="M98,59.5c0.4-0.3,0.7-0.7,1.1-1.1c2.2-2.3,3.2-4.9,3.1-7.8c0.1,2.9-0.9,5.5-3.1,7.8
		C98.8,58.8,98.4,59.2,98,59.5z"/>
	<path class="st0" d="M54.7,77c0.5-0.3,0.9-0.6,1.4-0.9c0.8-0.5,1.6-0.9,2.4-1.4c-0.8,0.4-1.6,0.9-2.4,1.4
		C55.6,76.4,55.1,76.7,54.7,77z"/>
	<path class="st0" d="M101.8,47.7c0.3,1,0.4,2,0.4,3C102.2,49.7,102,48.7,101.8,47.7c-0.7-2.7-2.1-4.9-4.3-6.6
		C99.6,42.8,101.1,45,101.8,47.7z"/>
	<path class="st0" d="M44.4,36.5L44.4,36.5L44.4,36.5z"/>
	<path class="st0" d="M74.8,77c0.5,0.3,1,0.6,1.5,1c-2.2,2.1-3.9,4.4-5.5,6.8l0,0c1.6-2.4,3.4-4.7,5.5-6.8
		C75.8,77.6,75.3,77.3,74.8,77z"/>
	<path class="st0" d="M77.9,72.6c0.2,0,0.3,0.1,0.5,0.2C78.2,72.7,78,72.6,77.9,72.6z"/>
	<path class="st0" d="M53.9,78.7c-0.2-0.2-0.4-0.4-0.6-0.6l0,0C53.5,78.2,53.7,78.5,53.9,78.7z"/>
	<path class="st0" d="M76.4,72.6c0.2-0.1,0.5-0.1,0.7-0.1C76.8,72.6,76.6,72.6,76.4,72.6z"/>
	<path class="st0" d="M80.5,74.4c-0.5-0.4-1-0.8-1.5-1.2c-0.2-0.1-0.4-0.3-0.5-0.3c0.2,0.1,0.4,0.2,0.5,0.3
		C79.5,73.6,80,74,80.5,74.4z"/>
	<path class="st0" d="M95.9,48.8c0,0.8-0.2,1.6-0.5,2.4C95.8,50.4,95.9,49.6,95.9,48.8z"/>
	<path class="st0" d="M77.2,72.5L77.2,72.5c0.1,0,0.3,0,0.5,0.1C77.6,72.5,77.4,72.5,77.2,72.5z"/>
	<path class="st0" d="M87,59.9c-0.2,0.1-0.4,0.2-0.5,0.3c-0.6,0.3-1.2,0.5-1.8,0.8c0.6-0.2,1.2-0.5,1.8-0.8C86.6,60,86.8,60,87,59.9
		z"/>
	<path class="st0" d="M69.4,79.2c-0.9-0.4-1.8-0.8-2.7-1.2C67.6,78.4,68.5,78.8,69.4,79.2L69.4,79.2z"/>
	<path class="st0" d="M65.1,86.4L65.1,86.4c-0.1-0.2-0.2-0.3-0.3-0.5C64.9,86.1,65,86.2,65.1,86.4z"/>
	<path class="st0" d="M65.1,77.4L65.1,77.4c-0.1,0-0.3,0-0.4,0.1c-0.6,0.2-1.2,0.5-1.8,0.8c0.6-0.3,1.2-0.5,1.8-0.8
		C64.9,77.4,65,77.4,65.1,77.4z"/>
	<path class="st0" d="M67.4,82.6C67.4,82.6,67.4,82.5,67.4,82.6c0.4-0.7,0.9-1.4,1.3-2.1C68.3,81.1,67.9,81.9,67.4,82.6z"/>
	<path class="st0" d="M60.4,79.4L60.4,79.4c0.6-0.3,1.3-0.5,1.9-0.8C61.6,78.8,61,79.1,60.4,79.4z"/>
	<path class="st0" d="M76.9,63.3c-1.7,0.4-3.4,0.8-5.1,1.2c-0.7,0.2-1.4,0.4-2.2,0.5c0.7-0.2,1.4-0.4,2.2-0.5
		C73.5,64.1,75.2,63.7,76.9,63.3z"/>
	<path class="st0" d="M52,72.3L52,72.3c-0.6,0.4-1.3,0.8-1.9,1.2c-2,1.4-3.8,2.9-5.8,4.4l0,0c1.9-1.5,3.8-3.1,5.8-4.4
		C50.7,73.1,51.4,72.7,52,72.3z"/>
	<path class="st0" d="M64,5C31.5,5,5,31.5,5,64s26.5,59,59,59s59-26.5,59-59S96.5,5,64,5z M53.5,32c0.4-1.2,1.5-2,2.8-2
		c0.1,0,0.2,0,0.2,0h0.1c0.3,0,0.8,0,1.4,0.2c1.7,0.6,3.2,1.6,4.3,3c0.8-1.3,0.8-1.9,0.6-2.6C62.5,29.4,63,28,64,27.2
		c0.5-0.4,1.1-0.6,1.7-0.6s1.3,0.2,1.8,0.6c1.6,1.2,2,2.8,2.2,3.7V31c0.3,1,0.3,2.1,0.2,3.1c1.3-0.3,2-0.8,2.4-1.5
		c0.6-0.9,1.5-1.4,2.5-1.4c0.4,0,0.7,0.1,1.1,0.2c1.3,0.5,2.1,1.9,1.9,3.3v0.1c0,0.3-0.1,0.7-0.2,1.1c-0.6,1.7-1.6,3.2-3,4.3
		c0.7,0.4,1.4,0.7,1.9,0.7c0.2,0,0.4,0,0.6-0.1c0.3-0.1,0.6-0.1,0.8-0.1c0.6,0,1.1,0.2,1.6,0.5c0.7,0.5,1.2,1.2,1.4,2.1v0.2v0.2
		c0.2,1.4-0.6,2.8-2,3.3c-0.2,0.1-0.4,0.1-0.6,0.2c-0.6,0.2-1.4,0.5-2.2,0.7C75.5,48,75,48,74.4,48c-0.3,0-0.6,0-0.9-0.1
		c0.3,1.4,0.8,1.8,1.2,2.1c0.7,0.5,1.1,1.1,1.2,1.3c0.6,1,0.6,2.3,0,3.3c-0.6,0.8-1.5,1.3-2.5,1.3c-0.2,0-0.3,0-0.5,0
		c-1.5-0.3-2.8-0.8-4-1.8c-0.6-0.4-1.1-1-1.5-1.5c-0.3,0.5-0.6,1.1-0.7,1.3c-0.1,0.3,0,1.1,0.2,1.8c0.2,1.3-0.5,2.5-1.6,3.1
		c-0.4,0.2-0.9,0.3-1.4,0.3c-0.8,0-1.5-0.3-2.1-0.9c-1.4-1.3-2.1-3.3-2.2-5.7c0-0.4,0-0.7,0.1-1.1c-1.4,0.3-1.9,0.8-2.2,1.4
		c-0.5,1.1-1.6,1.7-2.7,1.7c-0.1,0-0.2,0-0.3,0c-1.3-0.1-2.3-1.1-2.6-2.3c-0.6-2.6,0.9-5.1,3.2-6.9c-0.7-0.4-1.4-0.7-1.9-0.7h-0.1
		c-0.1,0-0.4,0.1-0.7,0.1c-0.2,0-0.5,0.1-0.7,0.1s-0.3,0-0.5,0c-1.2,0-2.3-0.7-2.8-1.9c-0.5-1.3-0.1-2.8,1-3.6
		c1.7-1.2,3.5-1.9,5.3-1.9l0,0c0.3,0,0.6,0,0.8,0s0.3,0,0.4,0.1v-0.1c-0.2-1.1-0.7-1.8-1.5-2.3C53.6,34.8,53,33.3,53.5,32z
		 M18.3,78.7c0.3,1.1-0.2,2.2-1.3,2.5c-0.2,0.1-0.4,0.1-0.6,0.1c-0.8,0-1.6-0.5-1.9-1.4c-8.8-27.3,6.3-56.6,33.6-65.4
		c1.1-0.3,2.2,0.2,2.5,1.3s-0.2,2.2-1.3,2.5C24.1,26.4,10.2,53.5,18.3,78.7z M64.8,113.3L64.8,113.3c-1.8,0-3.4-1.2-3.8-2.9
		C57.4,98.2,51.2,88.6,41.8,81c-0.9-0.8-1.5-1.9-1.5-3.2c0-1.2,0.6-2.4,1.6-3.1c0.6-0.5,1.2-0.9,1.8-1.4c0.9-0.7,1.8-1.4,2.8-2.1
		c-5.3-1.6-10.6-3.6-15.4-7.1c-2.6-1.9-6.3-5.1-7.2-10.2c-1.2-6.4,0.8-11.9,5.8-16c4.6-3.8,9.9-4.9,14-5.5c0.2,0,0.4,0,0.6,0
		c0.5,0,1,0.1,1.4,0.2c1.4,0.5,2.5,1.8,2.7,3.3s-0.5,3-1.8,3.8c-1.2,0.7-4.5,2.9-6.1,4.1c-0.7,0.5-1.4,1.3-2.1,2.3
		c-0.8,1.1-1.3,2.5,0.1,4.8c1.7,2.8,4.3,4.8,7.7,5.9c2.8,0.9,5.7,1.7,8.7,2.5c1.3,0.4,2.7,0.7,4,1.1c0.3,0.1,1,0.3,1,0.3
		c1.1,0.4,1.9,1.2,2.4,2.2c2.7-0.9,5.6-1.8,8.6-2.5c0.6-0.1,1.2-0.3,1.9-0.4c4.2-1,8.3-1.9,11.9-3.6c2.5-1.2,4.4-2.7,5.8-4.5
		c2-2.7,1.9-4.8-0.5-7.2c-1.5-1.5-3.4-2.9-6.2-4.3c-0.4-0.2-1.1-0.6-1.8-1.4c-1.1-1.2-1.3-3-0.5-4.5c0.7-1.3,2.1-2.1,3.5-2.1
		c0.1,0,0.3,0,0.4,0c5.8,0.6,10.2,2.2,13.9,4.9c3.2,2.4,5.3,5.5,6.3,9.2C107,52,105.7,57,102,61c-3.5,3.8-7.9,5.9-11.7,7.6
		c-2.4,1-4.8,1.8-7.2,2.5c0.9,0.7,1.8,1.4,2.7,2l1.8,1.4c1,0.7,1.6,1.9,1.6,3.1s-0.5,2.4-1.5,3.2c-9.4,7.6-15.6,17.2-19.1,29.4
		C68.1,112.1,66.5,113.3,64.8,113.3z M79.9,113.5c-0.2,0.1-0.4,0.1-0.6,0.1c-0.8,0-1.6-0.5-1.9-1.4c-0.3-1.1,0.2-2.2,1.3-2.5
		c12.2-3.9,22.1-12.4,28-23.8s6.9-24.4,3-36.6c-0.3-1.1,0.2-2.2,1.3-2.5c1.1-0.3,2.2,0.2,2.5,1.3c4.3,13.2,3.1,27.3-3.2,39.7
		C103.9,100.1,93.2,109.2,79.9,113.5z"/>
	<path class="st0" d="M85.2,77.9c-8.9,7.2-14.9,15.9-18.8,26.2C70.3,93.8,76.4,85.1,85.2,77.9L85.2,77.9z"/>
	<path class="st0" d="M58.1,64.5c-0.1,0-0.1,0-0.2,0c-1.1-0.3-2.1-0.6-3.2-0.9c1.1,0.3,2.2,0.6,3.2,0.9C57.9,64.5,58,64.5,58.1,64.5
		z"/>
	<path class="st0" d="M33.8,47.5c0.2-1.1,0.6-2.3,1.3-3.4c0.1-0.2,0.3-0.4,0.5-0.6c-0.2,0.2-0.3,0.4-0.5,0.6
		C34.4,45.2,34,46.4,33.8,47.5z"/>
	<path class="st0" d="M35.2,53.2c1.4,2.4,3.3,4.2,5.5,5.6C38.5,57.4,36.6,55.6,35.2,53.2c-0.9-1.5-1.4-3-1.4-4.5
		C33.7,50.1,34.3,51.7,35.2,53.2z"/>
	<path class="st0" d="M35.9,43c0.4-0.5,0.9-1,1.3-1.5C36.8,42,36.3,42.5,35.9,43z"/>
	<path class="st0" d="M70.2,74.1c1.1,0.7,2.1,1.3,3.1,1.9C72.3,75.4,71.3,74.8,70.2,74.1L70.2,74.1z"/>
	<path class="st0" d="M54.7,63.6c-3.2-0.9-6.5-1.7-9.6-2.7c-1.5-0.5-3-1.2-4.3-2c1.3,0.8,2.8,1.5,4.3,2
		C48.2,61.9,51.4,62.7,54.7,63.6z"/>
	<path class="st0" d="M50.8,68.3L50.8,68.3L50.8,68.3c-6.2-1.7-12.2-3.6-17.4-7.4c-2.3-1.7-4.3-3.6-5.2-6.2c0.9,2.6,2.9,4.6,5.2,6.2
		C38.6,64.7,44.6,66.7,50.8,68.3L50.8,68.3z"/>
	<path class="st0" d="M43,37.4c-0.3,0.2-0.6,0.4-0.9,0.6C42.4,37.8,42.7,37.6,43,37.4z"/>
	<path class="st0" d="M43.7,36.9c-0.2,0.1-0.5,0.3-0.8,0.5C43.2,37.2,43.5,37.1,43.7,36.9z"/>
	<path class="st0" d="M85.1,36.5c0.1,0.1,0.3,0.2,0.4,0.3C85.3,36.7,85.2,36.6,85.1,36.5L85.1,36.5z"/>
	<path class="st0" d="M64.8,109.3L64.8,109.3c-2.3-7.8-5.7-14.9-10.4-21.1C59.1,94.4,62.5,101.4,64.8,109.3z"/>
	<path class="st0" d="M89.8,37.3c1.9,0.5,3.8,1.2,5.5,2.3C93.6,38.6,91.7,37.8,89.8,37.3z"/>
	<path class="st0" d="M68.5,88.5c-0.5,0.8-0.9,1.7-1.4,2.6C67.6,90.2,68,89.3,68.5,88.5L68.5,88.5z"/>
	<path class="st0" d="M65.5,106.8c0,0.1,0,0.1-0.1,0.2C65.5,106.9,65.5,106.8,65.5,106.8z"/>
	<path class="st1" d="M64,0C28.7,0,0,28.7,0,64s28.7,64,64,64s64-28.7,64-64S99.3,0,64,0z M64,123C31.5,123,5,96.5,5,64S31.5,5,64,5
		s59,26.5,59,59S96.5,123,64,123z"/>
	<path class="st1" d="M49.3,18.3c1.1-0.3,1.6-1.5,1.3-2.5c-0.3-1.1-1.5-1.6-2.5-1.3C20.8,23.3,5.7,52.6,14.5,79.9
		c0.3,0.8,1.1,1.4,1.9,1.4c0.2,0,0.4,0,0.6-0.1c1.1-0.3,1.6-1.5,1.3-2.5C10.2,53.5,24.1,26.4,49.3,18.3z"/>
	<path class="st1" d="M113.5,48.1c-0.3-1.1-1.5-1.6-2.5-1.3c-1.1,0.3-1.6,1.5-1.3,2.5c3.9,12.2,2.9,25.2-3,36.6s-15.8,19.9-28,23.8
		c-1.1,0.3-1.6,1.5-1.3,2.5c0.3,0.8,1.1,1.4,1.9,1.4c0.2,0,0.4,0,0.6-0.1c13.2-4.3,24-13.4,30.3-25.8
		C116.6,75.4,117.8,61.3,113.5,48.1z"/>
	<path class="st2" d="M69.4,79.2c-0.9-0.4-1.8-0.8-2.7-1.2c-0.4-0.2-0.8-0.4-1.2-0.5c-0.1,0-0.2-0.1-0.4-0.1c-0.1,0-0.3,0-0.4,0.1
		c-0.6,0.2-1.2,0.5-1.8,0.8c-0.3,0.1-0.5,0.2-0.8,0.3c-0.6,0.3-1.2,0.5-1.9,0.8c1.5,2.3,3,4.4,4.4,6.5c0.1,0.2,0.2,0.3,0.3,0.5
		c0,0,0-0.1,0.1-0.1c0.7-1.3,1.5-2.5,2.3-3.7c0.4-0.7,0.9-1.4,1.3-2.1C69,80,69.2,79.6,69.4,79.2z"/>
	<path class="st1" d="M105.7,46.7c-0.9-3.7-3-6.8-6.3-9.2c-3.7-2.7-8.1-4.3-13.9-4.9c-0.1,0-0.3,0-0.4,0c-1.5,0-2.8,0.8-3.5,2.1
		c-0.8,1.5-0.6,3.2,0.5,4.5c0.7,0.8,1.5,1.2,1.8,1.4c2.8,1.4,4.7,2.7,6.2,4.3c2.4,2.5,2.5,4.5,0.5,7.2c-1.4,1.9-3.3,3.4-5.8,4.5
		c-3.7,1.7-7.7,2.6-11.9,3.6c-0.6,0.1-1.2,0.3-1.9,0.4c-3.1,0.7-5.9,1.6-8.6,2.5c-0.4-1-1.3-1.8-2.4-2.2c0,0-0.6-0.2-1-0.3
		c-1.3-0.4-2.7-0.7-4-1.1c-3-0.8-5.9-1.5-8.7-2.5c-3.4-1.1-6-3.1-7.7-5.9c-1.4-2.3-0.9-3.6-0.1-4.8c0.7-1,1.4-1.8,2.1-2.3
		c1.6-1.2,4.9-3.4,6.1-4.1c1.3-0.8,2-2.3,1.8-3.8s-1.2-2.8-2.7-3.3c-0.4-0.2-0.9-0.2-1.4-0.2c-0.2,0-0.4,0-0.6,0
		c-4.1,0.6-9.4,1.7-14,5.5c-5,4.1-7,9.6-5.8,16c0.9,5.1,4.6,8.3,7.2,10.2c4.8,3.5,10.1,5.5,15.4,7.1c-0.9,0.7-1.9,1.4-2.8,2.1
		c-0.6,0.5-1.2,0.9-1.8,1.4c-1,0.7-1.5,1.9-1.6,3.1c0,1.2,0.5,2.4,1.5,3.2c9.3,7.6,15.6,17.2,19.1,29.3c0.5,1.7,2.1,2.9,3.8,2.9l0,0
		c1.8,0,3.4-1.2,3.8-2.9c3.5-12.1,9.7-21.8,19.1-29.4c1-0.8,1.5-1.9,1.5-3.2c0-1.2-0.6-2.4-1.6-3.1l-1.8-1.4c-0.9-0.7-1.8-1.4-2.7-2
		c2.4-0.7,4.8-1.5,7.2-2.5c3.8-1.6,8.2-3.8,11.7-7.6C105.8,57.2,107,52.2,105.7,46.7z M33.4,60.9c-2.3-1.7-4.3-3.6-5.2-6.2
		c-0.2-0.5-0.3-0.9-0.4-1.5c-0.1-0.5-0.1-1-0.2-1.5c0-0.1,0-0.2,0-0.3c-0.1-1.2,0-2.3,0.2-3.4c0.1-0.5,0.3-1.1,0.4-1.6
		c0.3-0.8,0.7-1.6,1.2-2.3c0.4-0.6,0.8-1.1,1.3-1.7c0.1-0.1,0.1-0.1,0.2-0.2c0.4-0.4,0.8-0.8,1.3-1.2c3.5-2.9,7.7-4,12-4.6l0,0h0.1
		c0,0,0,0,0.1,0l0,0l0,0c0,0-0.3,0.2-0.7,0.5c-0.2,0.1-0.5,0.3-0.8,0.5S42.3,37.8,42,38s-0.7,0.5-1,0.7c-1.1,0.7-2.1,1.5-2.9,2.1
		c-0.3,0.2-0.6,0.5-0.8,0.7c-0.5,0.5-0.9,1-1.3,1.5c-0.1,0.1-0.2,0.3-0.3,0.4c-0.2,0.2-0.3,0.4-0.5,0.6c-0.7,1.1-1.2,2.3-1.3,3.4
		c-0.1,0.4-0.1,0.8-0.1,1.1c0,1.5,0.5,3,1.4,4.5c1.4,2.4,3.3,4.2,5.5,5.6c1.3,0.8,2.8,1.5,4.3,2c3.2,1,6.4,1.9,9.6,2.7
		c1.1,0.3,2.2,0.6,3.2,0.9c0,0,0.1,0,0.2,0c0.1,0,0.2,0,0.2,0.1c-2.7,1.1-5.2,2.4-7.5,3.8l0,0l0,0C44.6,66.7,38.6,64.7,33.4,60.9z
		 M99.1,58.4c-0.4,0.4-0.7,0.7-1.1,1.1c-2.7,2.5-5.9,4.1-9.3,5.6c-2.6,1.1-5.2,2-7.9,2.7s-5.4,1.4-8.2,2c-2.4,0.6-4.8,1.2-7.2,2
		c-2.4,0.8-4.7,1.8-7,2.9c-0.8,0.4-1.6,0.9-2.4,1.4c-0.5,0.3-0.9,0.6-1.4,0.9s-0.9,0.7-1.4,1l0,0c0.2,0.2,0.4,0.4,0.6,0.6
		c4.8,5,7.9,11,10.9,17.2c0.8-1.6,1.5-3.2,2.4-4.8c0.4-0.9,0.9-1.7,1.4-2.6l0,0c0.7-1.3,1.5-2.5,2.3-3.7l0,0
		c1.6-2.4,3.4-4.7,5.5-6.8c-0.5-0.3-1-0.6-1.5-1c-0.5-0.3-1-0.6-1.5-0.9c-1-0.6-2-1.3-3.1-1.9l0,0c2.1-0.5,4.1-0.9,6.1-1.5l0,0
		c0.2-0.1,0.5-0.1,0.7-0.1h0.1h0.1c0.2,0,0.3,0,0.5,0.1h0.1c0.2,0,0.3,0.1,0.5,0.2c0,0,0.1,0,0.1,0.1c0.2,0.1,0.4,0.2,0.5,0.3
		c0.5,0.4,1,0.8,1.5,1.2c1.5,1.2,3.1,2.3,4.7,3.6l0,0c-8.9,7.2-14.9,15.9-18.8,26.2c-0.3,0.9-0.6,1.8-0.9,2.6c0,0.1,0,0.1-0.1,0.2
		c-0.2,0.8-0.5,1.5-0.7,2.3l0,0c-2.3-7.8-5.7-14.9-10.4-21.1c-1.9-2.5-4-4.8-6.3-7c-1.2-1.1-2.4-2.2-3.7-3.2l0,0
		c1.9-1.5,3.8-3.1,5.8-4.4c0.6-0.4,1.3-0.8,1.9-1.2l0,0c2.2-1.4,4.6-2.6,7-3.6c3.4-1.5,7-2.7,10.7-3.6c0.7-0.2,1.4-0.4,2.2-0.5
		c1.7-0.4,3.4-0.8,5.1-1.2c2.6-0.6,5.2-1.4,7.7-2.4c0.6-0.2,1.2-0.5,1.8-0.8c0.2-0.1,0.4-0.2,0.5-0.3c2.7-1.3,5-3.1,6.8-5.5
		c0.6-0.8,1.1-1.6,1.4-2.4c0.1-0.3,0.2-0.5,0.3-0.8c0.3-0.8,0.4-1.6,0.5-2.4c0.1-2.3-0.9-4.6-3-6.8s-4.6-3.7-7.2-5.1
		c-0.1,0-0.1-0.1-0.2-0.1c-0.1-0.1-0.3-0.2-0.4-0.3l0,0c1.1,0.1,2.1,0.3,3.2,0.5c0.5,0.1,1,0.2,1.5,0.4c1.9,0.5,3.8,1.2,5.5,2.3
		c0.6,0.3,1.1,0.7,1.7,1.1c0.2,0.1,0.3,0.3,0.5,0.4c2.1,1.7,3.6,3.9,4.3,6.6c0.3,1,0.4,2,0.4,3C102.3,53.5,101.3,56.1,99.1,58.4z
		 M69.4,79.2L69.4,79.2c-0.2,0.4-0.5,0.8-0.7,1.2c-0.4,0.7-0.9,1.4-1.3,2.1l0,0c-0.8,1.2-1.6,2.5-2.3,3.7c0,0,0,0.1-0.1,0.1
		c-0.1-0.2-0.2-0.3-0.3-0.5c-1.4-2.1-2.9-4.3-4.4-6.5l0,0c0.6-0.3,1.3-0.5,1.9-0.8c0.3-0.1,0.5-0.2,0.8-0.3c0.6-0.3,1.2-0.5,1.8-0.8
		c0.1,0,0.2-0.1,0.4-0.1l0,0c0.1,0,0.3,0,0.4,0.1c0.4,0.2,0.8,0.4,1.2,0.5C67.6,78.4,68.5,78.8,69.4,79.2z"/>
	<path class="st3" d="M81,43.8v-0.2v-0.2c-0.1-0.9-0.6-1.6-1.4-2.1c-0.5-0.3-1-0.5-1.6-0.5c-0.3,0-0.6,0-0.8,0.1
		C77,41,76.8,41,76.6,41c-0.6,0-1.2-0.3-1.9-0.7c1.4-1.1,2.4-2.5,3-4.3c0.2-0.5,0.2-0.9,0.2-1.1v-0.1c0.2-1.4-0.6-2.8-1.9-3.3
		c-0.4-0.1-0.7-0.2-1.1-0.2c-1,0-2,0.5-2.5,1.4C72,33.5,71.3,34,70,34.3c0.1-1.1,0.1-2.1-0.2-3.1v-0.1c-0.2-1-0.6-2.6-2.2-3.7
		c-0.5-0.4-1.2-0.6-1.8-0.6c-0.6,0-1.2,0.2-1.7,0.6c-1.1,0.8-1.5,2.1-1.1,3.4c0.2,0.7,0.2,1.3-0.6,2.6c-1.1-1.4-2.6-2.5-4.3-3
		C57.4,30,56.9,30,56.6,30h-0.1c-0.1,0-0.2,0-0.2,0c-1.3,0-2.4,0.8-2.8,2c-0.4,1.3,0.1,2.7,1.2,3.5c0.8,0.5,1.2,1.2,1.5,2.3v0.1
		c-0.1,0-0.3-0.1-0.4-0.1c-0.3,0-0.6,0-0.8,0l0,0c-1.8,0-3.6,0.6-5.3,1.9c-1.1,0.8-1.6,2.3-1,3.6c0.5,1.1,1.6,1.9,2.8,1.9
		c0.2,0,0.3,0,0.5,0c0.3,0,0.5-0.1,0.7-0.1C53,45,53.2,45,53.4,45h0.1c0.5,0,1.2,0.3,1.9,0.7c-2.3,1.8-3.8,4.3-3.2,6.9
		c0.3,1.2,1.3,2.2,2.6,2.3c0.1,0,0.2,0,0.3,0c1.1,0,2.2-0.7,2.7-1.7c0.3-0.6,0.8-1.1,2.2-1.4c0,0.4-0.1,0.7-0.1,1.1
		c0,2.3,0.8,4.3,2.2,5.7c0.6,0.6,1.3,0.9,2.1,0.9c0.5,0,0.9-0.1,1.4-0.3c1.1-0.6,1.8-1.8,1.6-3.1c-0.1-0.8-0.2-1.6-0.2-1.8
		c0.1-0.2,0.3-0.8,0.7-1.3c0.5,0.6,1,1.1,1.5,1.5c1.2,1,2.5,1.6,4,1.8c0.2,0,0.3,0,0.5,0c1,0,1.9-0.5,2.5-1.3c0.7-1,0.7-2.3,0-3.3
		c-0.2-0.3-0.5-0.9-1.2-1.3c-0.5-0.3-0.9-0.7-1.2-2.1c0.3,0,0.6,0.1,0.9,0.1c0.6,0,1.1,0,1.7-0.1c0.9-0.1,1.6-0.4,2.2-0.7
		c0.2-0.1,0.4-0.2,0.6-0.2C80.4,46.6,81.3,45.2,81,43.8z M71.9,36.8c0.7-0.3,1.4-0.7,2-1.2l0.1-0.1c0.4-0.3,0.7-0.7,1-1.1l0,0
		c0,0.1,0,0.3,0,0.4c0,0.1,0,0.3-0.1,0.4c-0.3,0.8-0.6,1.4-1.1,2c-0.6,0.7-1.3,1.3-2.1,1.7c-0.4-0.6-0.8-1.1-1.3-1.6l0,0
		C70.9,37.2,71.4,37,71.9,36.8z M64.7,35.2c0.1-0.1,0.1-0.2,0.2-0.2c0.5-0.8,0.9-1.5,1.1-2.3c0.2-0.9,0.2-1.8-0.1-2.9l0,0
		c0.7,0.5,0.9,1.4,1.1,2.1c0.1,0.5,0.2,0.9,0.2,1.4c0,0.2,0,0.4,0,0.7c0,0.5-0.2,1-0.3,1.5l0,0c-0.6-0.1-1.2-0.2-1.9-0.2l0,0
		C64.8,35.2,64.7,35.2,64.7,35.2L64.7,35.2z M55.2,42.3c-0.3-0.1-0.5-0.2-0.8-0.2h-0.1C54,42,53.7,42,53.4,42h-0.1
		c-0.1,0-0.1,0-0.2,0c-0.5,0-1,0.2-1.8,0.3l0,0l0,0c0.3-0.2,0.6-0.4,0.9-0.6c0.1-0.1,0.2-0.1,0.3-0.1c0.2-0.1,0.4-0.2,0.6-0.3
		c0.1,0,0.3-0.1,0.4-0.1c0.2-0.1,0.4-0.1,0.6-0.1c0.1,0,0.3,0,0.4,0c0.1,0,0.2,0,0.3,0c0.2,0,0.4,0,0.5,0c0.2,0,0.5,0.1,0.7,0.1
		c0.4,0.1,0.7,0.2,1.1,0.3c-0.1,0.6-0.2,1.2-0.2,1.8v0.1l0,0l0,0c-0.3-0.2-0.5-0.3-0.8-0.5c0,0,0,0-0.1,0
		C55.8,42.5,55.6,42.4,55.2,42.3L55.2,42.3z M56.3,50c-0.5,0.4-1,1-1.4,1.8l0,0c-0.3-1.1,0.5-2.4,1.7-3.5c0.1-0.1,0.3-0.2,0.4-0.4
		c0.3-0.2,0.6-0.5,1-0.7c0.1,0,0.1-0.1,0.2-0.1c0.4,0.6,0.8,1.1,1.2,1.5l0,0C58.3,49,57.2,49.3,56.3,50z M59.2,37.5
		C59.2,37.5,59.2,37.6,59.2,37.5L59.2,37.5c-0.1-0.1-0.1-0.2-0.1-0.3c-0.2-1.1-0.6-2.1-1.3-2.9c-0.4-0.5-0.9-0.9-1.5-1.3l0,0h0.1
		c0.2,0,0.3,0,0.5,0H57c0.3,0.1,0.6,0.2,0.9,0.4c1.3,0.7,2.2,1.7,2.9,2.9C60.2,36.7,59.7,37,59.2,37.5z M63.8,54.3
		c0,0.2,0,0.4,0,0.7c0,0.4,0.1,0.8,0.2,1.3l0,0c-0.8-0.8-1.2-2-1.3-3.5l0,0c0-0.6,0.1-1.2,0.2-1.8c0-0.1,0-0.2,0.1-0.3l0,0
		c0.6,0.1,1.2,0.2,1.8,0.2c0.1,0,0.1,0,0.2,0C64.2,52.5,63.8,53.2,63.8,54.3z M68.4,46.5c-0.4,0.4-0.8,0.7-1.3,0.9
		c-0.1,0-0.2,0.1-0.3,0.2c-0.1,0.1-0.3,0.1-0.4,0.1c-0.2,0.1-0.4,0.1-0.5,0.2c-0.1,0-0.1,0-0.2,0c-0.3,0-0.5,0.1-0.8,0.1
		s-0.7,0-1-0.1c-2-0.4-3.6-2.1-3.8-4.1c0-0.2-0.1-0.4-0.1-0.6c0-1.2,0.4-2.3,1.1-3.1c0.9-1.1,2.2-1.7,3.7-1.8l0,0c0.2,0,0.3,0,0.5,0
		s0.3,0,0.5,0s0.3,0.1,0.5,0.1s0.3,0.1,0.5,0.1c0.2,0.1,0.3,0.1,0.4,0.2c0.1,0.1,0.3,0.1,0.4,0.2c0.1,0.1,0.3,0.2,0.4,0.3
		s0.2,0.2,0.3,0.3c0.1,0.1,0.2,0.3,0.3,0.4c0.1,0.1,0.2,0.2,0.3,0.3c0.1,0.1,0.2,0.3,0.3,0.5c0.1,0.1,0.1,0.2,0.2,0.4
		s0.1,0.4,0.2,0.6c0,0.1,0.1,0.2,0.1,0.4s0.1,0.5,0.1,0.8c0,0.1,0,0.2,0,0.2c0,0.8-0.2,1.6-0.6,2.3C69,45.7,68.7,46.1,68.4,46.5z
		 M73.2,53c-0.9-0.2-1.7-0.6-2.3-1.1c-0.8-0.6-1.4-1.4-1.8-2.2c0.5-0.3,1-0.7,1.4-1.1c0.1-0.1,0.1-0.1,0.1-0.2v0.1
		c0.1,0.3,0.2,0.7,0.3,1c0.1,0.2,0.2,0.4,0.2,0.7c0,0.1,0,0.1,0.1,0.2c0.4,0.9,1.1,1.7,2,2.3c0,0,0,0,0.1,0.1c0,0.1,0.1,0.1,0.2,0.3
		c0,0,0,0,0,0.1C73.4,53.1,73.3,53.1,73.2,53z M78.1,44.3c-0.7,0.2-1.3,0.5-2,0.7c-0.1,0-0.2,0.1-0.3,0.1c-0.4,0.1-0.8,0.1-1.2,0.1
		l0,0h-0.1c-0.3,0-0.7,0-1-0.1c-0.1,0-0.2,0-0.3-0.1c-0.2,0-0.3-0.1-0.5-0.1l0,0c0.1-0.6,0.2-1.2,0.2-1.8c0-0.1,0-0.1,0-0.2l0,0
		c0.1,0,0.1,0.1,0.2,0.1c0.1,0.1,0.3,0.2,0.4,0.2s0.1,0.1,0.2,0.1c0.1,0.1,0.3,0.2,0.4,0.2s0.1,0.1,0.2,0.1c0.2,0.1,0.4,0.2,0.6,0.2
		H75c0.2,0.1,0.3,0.1,0.5,0.1c0.1,0,0.2,0,0.2,0c0.2,0,0.3,0,0.5,0.1c0.1,0,0.2,0,0.2,0h0.1c0.1,0,0.2,0,0.4,0c0.1,0,0.2,0,0.3,0
		c0.2,0,0.5-0.1,0.8-0.2l0,0C78,44,78.1,44.1,78.1,44.3L78.1,44.3z"/>
</g>
</svg>
