<?xml version="1.0" encoding="utf-8"?>
<!-- Generator: Adobe Illustrator 21.1.0, SVG Export Plug-In . SVG Version: 6.00 Build 0)  -->
<svg version="1.1" id="Layer_1" xmlns="http://www.w3.org/2000/svg" xmlns:xlink="http://www.w3.org/1999/xlink" x="0px" y="0px"
	 viewBox="0 0 128 128" style="enable-background:new 0 0 128 128;" xml:space="preserve">
<style type="text/css">
	.st0{fill:#F16823;}
	.st1{fill:#4D4D4E;}
</style>
<path class="st0" d="M64,5c32.5,0,59,26.5,59,59s-26.5,59-59,59S5,96.5,5,64S31.5,5,64,5 M64,0C28.7,0,0,28.7,0,64s28.7,64,64,64
	s64-28.7,64-64S99.3,0,64,0L64,0z"/>
<path class="st0" d="M16.3,51c-0.2,0-0.4,0-0.6-0.1c-1.1-0.3-1.6-1.5-1.3-2.5c8.6-27.4,37.8-42.6,65.2-34c1.1,0.3,1.6,1.5,1.3,2.5
	c-0.3,1.1-1.5,1.6-2.5,1.3c-25.3-7.9-52.2,6.2-60.2,31.4C17.9,50.5,17.1,51,16.3,51z"/>
<path class="st0" d="M64,116c-5.1,0-10.4-0.8-15.5-2.4c-1.1-0.3-1.6-1.5-1.3-2.5c0.3-1.1,1.5-1.6,2.5-1.3
	c25.3,7.9,52.2-6.2,60.2-31.4c0.3-1.1,1.5-1.6,2.5-1.3c1.1,0.3,1.6,1.5,1.3,2.5C106.6,101.8,86.1,116,64,116z"/>
<g>
	<path class="st0" d="M99.3,78C99.3,78,99.3,78,99.3,78c-2.5,0-5,0-7.5,0l-3.1,0c-1.1,0-2-0.9-2-2V49.1L65.5,70.3
		c-0.8,0.8-2,0.8-2.8,0L41.4,49V76c0,1.1-0.8,1.9-1.9,2l-0.2,0c-0.2,0-0.4,0-0.6,0l-2.8,0c-2.4,0-4.8,0-7.2,0c0,0,0,0,0,0
		c-1.4,0-2.4-0.7-2.8-2c-1.5-4.9-2.1-9.8-1.7-14.7c0.6-8.5,3.6-16.1,9-22.6c6.1-7.4,13.9-12,23-13.7c12.4-2.3,23.6,0.5,33.3,8.6
		c7.3,6.1,11.9,14,13.6,23.5c1.1,6.3,0.7,12.6-1.2,18.9C101.7,77.3,100.7,78,99.3,78z M94.2,74c1.4,0,2.8,0,4.3,0
		c1.5-5.4,1.8-10.9,0.8-16.3C97.7,49.1,93.6,42,87,36.6c-8.7-7.2-18.8-9.8-30-7.7c-8.2,1.6-15.2,5.7-20.7,12.4
		c-4.8,5.8-7.6,12.7-8.1,20.4c-0.3,4.1,0.2,8.3,1.3,12.4c2.1,0,4.2,0,6.4,0h1.5V44.2c0-0.8,0.5-1.5,1.2-1.8c0.7-0.3,1.6-0.1,2.2,0.4
		L64.1,66l23.2-23.1c0.6-0.6,1.4-0.7,2.2-0.4c0.7,0.3,1.2,1,1.2,1.8V74l1.1,0C92.6,74,93.4,74,94.2,74z"/>
	<path class="st1" d="M64,103.9c-15.8,0-28.3-9.3-34-19.2c-0.4-0.6-0.4-1.4,0-2c0.4-0.6,1-1,1.7-1h13.8v-18c0-0.8,0.5-1.5,1.2-1.8
		c0.7-0.3,1.6-0.1,2.2,0.4l15,15l15-15c0.6-0.6,1.4-0.7,2.2-0.4c0.7,0.3,1.2,1,1.2,1.8v17.9h14c0.7,0,1.4,0.4,1.7,1
		c0.4,0.6,0.3,1.4,0,2c-3.3,5.3-7.4,9.5-12.5,12.9c-5.1,3.3-10.8,5.3-16.8,6C67.1,103.8,65.5,103.9,64,103.9z M35.4,85.7
		c6.3,8.5,18.3,15.6,32.9,13.9c5.4-0.6,10.5-2.5,15.1-5.4c3.6-2.3,6.7-5.2,9.2-8.6H80.4c-1.1,0-2-0.9-2-2V68.5l-13,13
		c-0.8,0.8-2,0.8-2.8,0l-13-13v15.2c0,1.1-0.9,2-2,2H35.4z"/>
</g>
</svg>
