<?xml version="1.0" encoding="utf-8"?>
<!-- Generator: Adobe Illustrator 21.1.0, SVG Export Plug-In . SVG Version: 6.00 Build 0)  -->
<svg version="1.1" id="Layer_1" xmlns="http://www.w3.org/2000/svg" xmlns:xlink="http://www.w3.org/1999/xlink" x="0px" y="0px"
	 viewBox="0 0 128 128" style="enable-background:new 0 0 128 128;" xml:space="preserve">
<style type="text/css">
	.st0{fill:url(#SVGID_1_);}
	.st1{fill:url(#SVGID_2_);}
	.st2{fill:url(#SVGID_3_);}
	.st3{fill:url(#SVGID_4_);}
</style>
<g>
	<linearGradient id="SVGID_1_" gradientUnits="userSpaceOnUse" x1="38.4048" y1="32.3905" x2="92.3921" y2="86.3778">
		<stop  offset="0" style="stop-color:#F5A81C"/>
		<stop  offset="0.5328" style="stop-color:#2DBCAF"/>
		<stop  offset="1" style="stop-color:#6CB2E2"/>
	</linearGradient>
	<path class="st0" d="M65.3,35.8c12,0.2,23.2,3.1,33.7,8.9c0.6,0.3,0.7,0.7,0.6,1.2c-0.1,9.9-2.3,19.4-6.5,28.3
		c-3.9,8.4-9.4,15.6-16.2,21.8c-3.3,3-7,5.6-10.8,8c-0.3,0.2-0.5,0.2-0.7,0.2c-0.2,0-0.5-0.1-0.8-0.3c-13.4-8.1-23-19.4-28.8-33.9
		c-2-5.1-3.5-10.4-4.1-15.9c-0.3-2.8-0.4-5.6-0.6-8.3c0-0.3,0.3-0.9,0.6-1c7.2-4.1,14.9-6.8,23.2-8C58.4,36.3,61.9,36.1,65.3,35.8
		 M49.4,70.8c2.1,0,4.2-0.5,6.2-1.4c5.5-2.7,8.2-7.3,8.4-13.4c0.3-7.1,3.7-12.3,10.1-15.4c0.5-0.2,1-0.4,1.7-0.7
		c-0.6-0.1-0.8-0.3-1.1-0.3c-1.7-0.2-3.4-0.5-5.1-0.6c-1.4-0.1-2.8-0.1-4.2-0.1c-4.2,0-8.4,0.4-12.6,1.3c-6.4,1.3-12.4,3.5-18,6.7
		c-0.6,0.3-0.8,0.7-0.7,1.4c0.3,2.9,0.4,5.8,0.8,8.7c0.2,1.8,0.5,3.8,1.2,5.4C38.4,67.6,43.8,70.8,49.4,70.8 M82.7,86.4
		c0.6-0.8,1.1-1.5,1.7-2.3c7.9-10.8,12-22.9,12.2-36.2c0-0.5-0.1-0.9-0.6-1.1c-3.2-1.4-6.2-3-9.5-4.3c-1.7-0.7-3.5-1-5.2-1
		c-2.4,0-4.7,0.6-7,1.8c-5.7,3-8.8,9.8-7.3,16c1,4.3,3.5,7.4,7.2,9.7c5.6,3.5,8.4,8.6,8.4,15.2c0,0.7-0.1,1.5-0.1,2.2
		C82.6,86.4,82.7,86.4,82.7,86.4 M49.4,73.4c-1.9,0-3.8-0.3-5.7-1c-1.8-0.6-3.5-1.7-5.3-2.6c0.1,0.3,0.2,0.8,0.4,1.2
		c1.2,2.5,2.3,5,3.7,7.4c5.3,9.3,12.7,16.6,21.8,22.2c0.4,0.2,0.7,0.4,1.1,0.4c0.3,0,0.6-0.1,0.9-0.4c2.8-2,5.7-4,8.4-6.1
		c1.1-0.8,2.2-1.7,2.9-2.9c2.2-3.5,2.9-7.4,1.9-11.5c-1.5-6.3-7.4-11-13.9-11c0,0-0.1,0-0.1,0c-2.7,0-5.2,0.7-7.6,2
		C55.2,72.7,52.3,73.4,49.4,73.4 M65.3,31.8c-0.1,0-0.3,0-0.4,0c-1.1,0.1-2.1,0.2-3.2,0.3c-2.4,0.2-4.9,0.4-7.4,0.8
		c-8.5,1.2-16.7,4-24.6,8.4c-1.6,0.9-2.7,2.9-2.6,4.7l0,0.4c0.1,2.7,0.3,5.4,0.6,8.2c0.6,5.6,2.1,11.3,4.3,17
		c6.1,15.2,16.4,27.3,30.5,35.9c0.9,0.6,1.9,0.8,2.8,0.8c1,0,1.9-0.3,2.8-0.8c4.3-2.6,8.1-5.4,11.5-8.4c7.3-6.6,13.1-14.4,17.2-23.1
		c4.5-9.5,6.8-19.6,6.9-30c0-2.7-1.5-4.1-2.7-4.8C90,35.2,78.1,32,65.3,31.8C65.4,31.8,65.4,31.8,65.3,31.8L65.3,31.8z M38.2,49.5
		c4.9-2.6,10.1-4.4,15.4-5.5c3.7-0.7,7.4-1.1,11.1-1.2c-2.9,3.5-4.5,7.9-4.7,13c-0.2,4.8-2.2,8-6.2,10c-1.4,0.7-2.9,1-4.5,1
		c-4.2,0-8-2.5-9.7-6.2c-0.5-1.2-0.7-2.8-0.9-4.3c-0.2-1.8-0.4-3.6-0.5-5.5C38.3,50.4,38.3,49.9,38.2,49.5L38.2,49.5z M85.1,75.8
		c-1.7-4.2-4.6-7.7-8.8-10.2c-3-1.8-4.7-4.1-5.4-7.2c-1-4.4,1.2-9.4,5.3-11.5c1.7-0.9,3.4-1.4,5.1-1.4c1.2,0,2.5,0.2,3.7,0.7
		c2,0.8,4,1.7,6.1,2.7c0.5,0.2,1,0.5,1.4,0.7C92.2,59,89.7,67.8,85.1,75.8L85.1,75.8z M49.4,77.4c3.5,0,7-0.9,10.4-2.8
		c1.8-1,3.7-1.5,5.7-1.5l0.1,0c4.6,0,9,3.4,10.1,8c0.7,3,0.3,5.7-1.4,8.4c-0.4,0.6-1.4,1.4-2,1.8c-1.7,1.3-3.4,2.5-5.1,3.7
		c-0.7,0.5-1.3,0.9-2,1.4c-7.8-5-14.2-11.5-18.8-19.2C47.5,77.4,48.5,77.4,49.4,77.4L49.4,77.4z"/>
</g>
<linearGradient id="SVGID_2_" gradientUnits="userSpaceOnUse" x1="18.7452" y1="18.7452" x2="109.2548" y2="109.2548">
	<stop  offset="0" style="stop-color:#F5A81C"/>
	<stop  offset="0.5328" style="stop-color:#2DBCAF"/>
	<stop  offset="1" style="stop-color:#6CB2E2"/>
</linearGradient>
<path class="st1" d="M64,4c33.1,0,60,26.9,60,60s-26.9,60-60,60S4,97.1,4,64S30.9,4,64,4 M64,0C28.7,0,0,28.7,0,64s28.7,64,64,64
	s64-28.7,64-64S99.3,0,64,0L64,0z"/>
<linearGradient id="SVGID_3_" gradientUnits="userSpaceOnUse" x1="47.6343" y1="51.0273" x2="47.6343" y2="11.9956">
	<stop  offset="0" style="stop-color:#F5A81C"/>
	<stop  offset="0.5328" style="stop-color:#2DBCAF"/>
	<stop  offset="1" style="stop-color:#6CB2E2"/>
</linearGradient>
<path class="st2" d="M16.3,51c-0.2,0-0.4,0-0.6-0.1c-1.1-0.3-1.6-1.5-1.3-2.5c8.6-27.4,37.8-42.6,65.2-34c1.1,0.3,1.6,1.5,1.3,2.5
	c-0.3,1.1-1.5,1.6-2.5,1.3c-25.3-7.9-52.2,6.2-60.2,31.4C17.9,50.5,17.1,51,16.3,51z"/>
<linearGradient id="SVGID_4_" gradientUnits="userSpaceOnUse" x1="57.1043" y1="122.6117" x2="107.638" y2="72.0779">
	<stop  offset="0" style="stop-color:#F5A81C"/>
	<stop  offset="0.5328" style="stop-color:#2DBCAF"/>
	<stop  offset="1" style="stop-color:#6CB2E2"/>
</linearGradient>
<path class="st3" d="M64,116c-5.1,0-10.4-0.8-15.5-2.4c-1.1-0.3-1.6-1.5-1.3-2.5c0.3-1.1,1.5-1.6,2.5-1.3
	c25.3,7.9,52.2-6.2,60.2-31.4c0.3-1.1,1.5-1.6,2.5-1.3c1.1,0.3,1.6,1.5,1.3,2.5C106.6,101.8,86.1,116,64,116z"/>
</svg>
