<?xml version="1.0" encoding="utf-8"?>
<!-- Generator: Adobe Illustrator 21.1.0, SVG Export Plug-In . SVG Version: 6.00 Build 0)  -->
<svg version="1.1" id="Layer_1" xmlns="http://www.w3.org/2000/svg" xmlns:xlink="http://www.w3.org/1999/xlink" x="0px" y="0px"
	 viewBox="0 0 128 128" style="enable-background:new 0 0 128 128;" xml:space="preserve">
<style type="text/css">
	.st0{fill:#E91286;}
	.st1{fill:#CDDC2B;}
</style>
<g>
	<path class="st0" d="M31,46.9L31,46.9c0.7,0,1.5,0.1,2.3,0.4c2.4,0.8,3.7,2.5,4,5.4c0,0.2,0,0.6,0,1c0,0.3,0,0.5,0,0.8
		c0,1.9,0.2,3.6,0.5,5.1c-1.4-0.3-2.9-0.4-4.6-0.4c-5.2-0.1-6.6-1.5-7.7-4.2c-0.9-2.4-0.5-4.5,1.5-6.4C28.2,47.5,29.5,46.9,31,46.9
		 M46.6,68.3c1.5,0.3,3.1,0.5,5,0.5c6.9,0.1,7.6,3.7,7.6,6.5c0,3.1-2.5,5.6-5.7,5.8c-0.1,0-0.1,0-0.2,0c-2.9,0-6-2.8-6.3-5.7
		c0-0.4,0-0.9,0-1.4c0-0.3,0-0.6,0-1C47,71.3,46.9,69.7,46.6,68.3 M31,42.9c-2.5,0-4.8,1-6.7,2.9c-2.9,2.9-4,6.5-2.3,10.7
		c1.8,4.7,5.1,6.7,11.4,6.7c7.3,0.1,9.7,2.4,9.7,9.8c0,0.9-0.1,1.8,0,2.7c0.5,5,5.2,9.3,10.2,9.3c0.1,0,0.2,0,0.3,0
		c5.3-0.2,9.6-4.5,9.6-9.7c0-6.6-4.1-10.4-11.6-10.5c-7.5-0.1-10.2-2.7-10.2-10.3c0-0.8,0.1-1.6,0-2.3c-0.6-4.2-2.6-7.2-6.7-8.7
		C33.4,43.1,32.2,42.9,31,42.9L31,42.9z"/>
	<path class="st1" d="M75.2,47.1L75.2,47.1c2.9,0,5.3,2.3,5.7,5.3c0.4,2.9,0.7,5.2,1.2,7.1c-1.2-0.3-2.5-0.5-3.9-0.5
		c-5-0.1-6.7-0.7-7.9-2.9c-0.4-0.7-0.6-1.7-0.8-2.5c0,0,0-0.1,0-0.1c0.3-3.9,2.3-6.1,5.5-6.3C75,47.1,75.1,47.1,75.2,47.1
		 M90.7,67.9c1.8,0.4,4,0.8,6.7,1.1c3.5,0.5,5.7,3.1,5.4,6.6c-0.2,2.8-2.8,5.2-5.7,5.2c-0.1,0-0.1,0-0.2,0c-3.3-0.1-5.5-2.6-5.7-6.1
		c0-0.4,0-0.9,0-1.4c0-0.6,0-1.1,0-1.8C91.2,70.3,91,69.1,90.7,67.9 M75.2,43.1c-0.2,0-0.3,0-0.5,0c-5.3,0.3-9.1,4.2-9.3,10.7
		c0.2,0.7,0.5,2.5,1.4,4c2.4,4.6,6.8,5,11.4,5.1c5.7,0.1,8.9,3.2,9.1,8.8c0,1,0,2.1,0,3.1c0.2,5.6,4.2,9.7,9.5,9.9
		c0.1,0,0.2,0,0.4,0c5,0,9.3-4,9.6-8.9c0.4-5.7-3.2-10.1-8.9-10.9c-11.5-1.5-11.5-1.5-13-13.2C84.3,46.9,80.1,43.1,75.2,43.1
		L75.2,43.1z"/>
	<path class="st1" d="M75,69.1L75,69.1c0.7,0,1.4,0.1,2.1,0.3c2.4,0.7,3.9,2.9,3.9,5.6c0,2.6-2,5.1-4.5,5.5c-1,0.2-2.2,0.2-3.5,0.3
		c-0.7,0-1.5,0-2.3,0.1c-0.7,0-1.3,0.1-1.9,0.2c0.3-1.7,0.5-3.6,0.5-5.7C69.4,71.7,71.7,69.1,75,69.1 M59.4,90.6
		c-0.1,0.7-0.2,1.3-0.3,2c0,0.6-0.1,1.2-0.1,1.9c0,1.3-0.1,2.5-0.3,3.5c-0.5,2.7-2.8,4.8-5.5,4.8c-0.2,0-0.3,0-0.5,0
		c-3.1-0.3-5.5-2.9-5.5-5.9c0-3,2.3-5.4,5.3-5.7c0.1,0,0.3,0,0.4,0l0.2,0l0.3,0c0.1,0,0.3,0,0.4,0C56,91.1,57.8,91,59.4,90.6
		 M75,65.1c-5.4,0-9.6,4.2-9.6,10.3c0,9-2.5,11.5-11.5,11.7c-0.1,0-0.2,0-0.3,0c-0.2,0-0.3,0-0.5,0c-0.3,0-0.5,0-0.8,0
		c-5.1,0.5-8.9,4.6-8.9,9.7c-0.1,5.1,3.9,9.5,9.1,9.9c0.3,0,0.5,0,0.8,0c4.6,0,8.7-3.4,9.5-8.1c0.3-1.9,0.3-3.9,0.4-5.8
		c0.3-4.7,3.2-7.7,7.9-8c2.1-0.1,4.2,0,6.2-0.4c4.5-0.8,7.7-4.9,7.7-9.4c0-4.4-2.7-8.2-6.7-9.5C77.1,65.3,76,65.1,75,65.1L75,65.1z"
		/>
	<path class="st1" d="M75.3,25.2c0.1,0,0.3,0,0.4,0c2.7,0.1,5.1,2.8,5.2,5.6c0.1,3.3-2.2,5.8-5.6,6c-0.2,0-0.5,0-0.8,0
		c-0.2,0-0.4,0-0.6,0c-0.2,0-0.5,0-0.7,0c-0.1,0-0.3,0-0.4,0c-1.4,0-2.7,0.2-3.9,0.4c0.1-0.5,0.2-0.9,0.2-1.4
		c0.1-1.1,0.1-2.1,0.2-3.1c0-0.8,0-1.6,0.1-2.3C69.8,27.2,72.1,25.2,75.3,25.2 M59.5,46.8c-0.2,1.3-0.4,2.7-0.4,4.2
		c0,2.8-0.7,5-2,6.4c-0.9,0.9-2.2,1.4-3.7,1.4l-0.1,0c-3.2,0-5.7-2.3-5.9-5.4c-0.2-3.1,2.1-5.8,5.4-6.2c0.5-0.1,1.1-0.1,1.6-0.1
		c0.2,0,0.5,0,0.7,0c0.3,0,0.5,0,0.8,0c0.4,0,0.8,0,1.3,0C58,47,58.8,46.9,59.5,46.8 M75.3,21.2c-5.2,0-9.2,3.5-9.8,8.8
		c-0.2,1.8-0.1,3.6-0.3,5.4c-0.5,4.7-3.6,7.5-8.2,7.7c-0.4,0-0.7,0-1.1,0c-0.5,0-1,0-1.5,0c-0.7,0-1.4,0-2.1,0.1
		c-5.5,0.7-9.3,5.2-8.9,10.4c0.4,5.2,4.5,9.1,9.8,9.1c0.1,0,0.1,0,0.2,0c5.9,0,9.8-4.7,9.8-11.8c0-7,2.9-10,9.8-10.1
		c0.1,0,0.2,0,0.4,0c0.4,0,0.9,0,1.3,0c0.4,0,0.7,0,1.1,0c5.5-0.4,9.4-4.7,9.3-10.1c-0.1-5-4.2-9.3-9-9.6
		C75.8,21.2,75.5,21.2,75.3,21.2L75.3,21.2z"/>
</g>
<path class="st1" d="M64,5c32.5,0,59,26.5,59,59s-26.5,59-59,59S5,96.5,5,64S31.5,5,64,5 M64,0C28.7,0,0,28.7,0,64s28.7,64,64,64
	c35.3,0,64-28.7,64-64S99.3,0,64,0L64,0z"/>
<path class="st1" d="M14,66.7c-1.1,0-2-0.9-2-2c-0.2-13.9,5-27,14.7-37c9.7-10,22.7-15.5,36.6-15.7c1.1,0,2,0.9,2,2s-0.9,2-2,2
	c-12.8,0.2-24.8,5.3-33.7,14.5C20.7,39.7,15.8,51.8,16,64.6C16,65.8,15.1,66.7,14,66.7C14,66.7,14,66.7,14,66.7z"/>
<path class="st1" d="M64.7,116c-1.1,0-2-0.9-2-2c0-1.1,0.9-2,2-2c26.5-0.4,47.7-22.2,47.3-48.6c0-1.1,0.9-2,2-2c1.1,0,2,0.9,2,2
	c0.2,13.9-5,27-14.7,37C91.6,110.2,78.6,115.8,64.7,116C64.7,116,64.7,116,64.7,116z"/>
</svg>
