<?xml version="1.0" encoding="utf-8"?>
<!-- Generator: Adobe Illustrator 21.1.0, SVG Export Plug-In . SVG Version: 6.00 Build 0)  -->
<svg version="1.1" id="Layer_1" xmlns="http://www.w3.org/2000/svg" xmlns:xlink="http://www.w3.org/1999/xlink" x="0px" y="0px"
	 viewBox="0 0 128 128" style="enable-background:new 0 0 128 128;" xml:space="preserve">
<style type="text/css">
	.st0{fill:#0CA0DB;}
</style>
<g>
	<path class="st0" d="M78.1,102.8c-3.4,0-6.9-1-9.8-3c-4-2.7-6.8-6.8-7.6-11.4c-0.7-4-0.1-7.8,1.9-11.8c0.7-1.4,1.1-2.3,1-3.4
		c-0.1-1.8-1.2-3.2-3-3.8c-1.5-0.5-3.1,0-4.1,1.3c-0.4,0.5-0.8,1.1-1.2,1.7c-0.5,0.7-1,1.5-1.6,2.2C49.1,80,43.1,82,36.2,80.4
		c-6.9-1.6-11.4-6-13.2-12.9c-1.2-4.7-0.4-9.8,2.2-13.9c2.6-4.1,6.7-6.9,11.5-7.8c7.1-1.3,13.3,1.1,17.7,6.9
		c0.3,0.4,0.6,0.8,0.8,1.2c0.5,0.7,1,1.4,1.5,2c1,1,2.5,1.4,3.9,1c1.4-0.4,2.5-1.4,2.9-2.8c0.3-1.1,0.1-2.2-0.6-3.5
		c-1.9-3.6-2.8-6.8-2.6-10.1c0.3-8.5,6.9-15.7,15.3-16.8c9.4-1.2,18.1,5.1,19.8,14.4c0.1,0.7,0.2,1.5,0.2,2.1c0,0.3,0,0.6,0.1,0.9
		c0,0.1,0,0.1,0,0.2c0,8.7-6.7,16.4-15.2,17.4c-0.5,0.1-1.1,0.1-1.6,0.1c-0.9,0.1-1.7,0.1-2.5,0.3c-1.5,0.3-2.6,1.3-3.1,2.8
		c-0.5,1.4-0.2,2.9,0.7,4c0.7,0.9,1.8,1.3,3.6,1.5l1,0.1c1.7,0.2,3.5,0.3,5.3,0.9c6.5,2.2,10.5,7.1,11.6,14
		c1.4,9.1-4.5,17.8-13.6,19.9C80.7,102.6,79.4,102.8,78.1,102.8z M59.4,65.2c0.8,0,1.6,0.1,2.4,0.4c3.4,1.2,5.5,4,5.7,7.4
		c0.1,2.1-0.7,3.9-1.5,5.4c-1.6,3.2-2.1,6.2-1.6,9.2c0.6,3.5,2.8,6.7,5.9,8.8c3.1,2.1,7,2.8,10.5,2c7-1.6,11.7-8.4,10.5-15.4
		c-0.9-5.5-3.9-9.1-9-10.8c-1.3-0.4-2.8-0.6-4.4-0.7c-0.3,0-0.7-0.1-1-0.1c-1.8-0.2-4.3-0.7-6.2-2.9c-1.9-2.2-2.4-5.2-1.5-7.9
		c1-2.8,3.2-4.8,6.1-5.4c1-0.2,2-0.3,3-0.4c0.5,0,1-0.1,1.5-0.1c6.5-0.8,11.6-6.6,11.7-13.3c0-0.3,0-0.6-0.1-0.9
		c0-0.6-0.1-1.2-0.2-1.7c-1.3-7.2-8.1-12.1-15.4-11.1c-6.4,0.8-11.6,6.5-11.8,12.9c-0.1,2.5,0.6,5.1,2.2,8c1.1,2.1,1.4,4.3,0.9,6.3
		c-0.7,2.8-2.8,4.9-5.7,5.7c-2.8,0.8-5.8,0-7.8-2c-0.8-0.8-1.4-1.7-2-2.5c-0.2-0.4-0.5-0.7-0.7-1c-3.5-4.7-8-6.5-13.8-5.4
		c-3.7,0.7-6.8,2.8-8.8,6c-2,3.2-2.6,7-1.7,10.7c1.4,5.4,4.8,8.8,10.2,10c5.4,1.2,9.9-0.3,13.4-4.5c0.5-0.6,0.9-1.2,1.4-1.9
		c0.4-0.6,0.9-1.3,1.4-1.9C54.9,66.3,57.1,65.2,59.4,65.2z"/>
</g>
<path class="st0" d="M64,5c32.5,0,59,26.5,59,59s-26.5,59-59,59S5,96.5,5,64S31.5,5,64,5 M64,0C28.7,0,0,28.7,0,64s28.7,64,64,64
	s64-28.7,64-64S99.3,0,64,0L64,0z"/>
<path class="st0" d="M14,66c-1.1,0-2-0.9-2-2c0-28.7,23.3-52,52-52c1.1,0,2,0.9,2,2s-0.9,2-2,2c-26.5,0-48,21.5-48,48
	C16,65.1,15.1,66,14,66z"/>
<path class="st0" d="M64,116c-1.1,0-2-0.9-2-2s0.9-2,2-2c26.5,0,48-21.5,48-48c0-1.1,0.9-2,2-2s2,0.9,2,2C116,92.7,92.7,116,64,116z
	"/>
</svg>
