<?xml version="1.0" encoding="utf-8"?>
<!-- Generator: Adobe Illustrator 21.1.0, SVG Export Plug-In . SVG Version: 6.00 Build 0)  -->
<svg version="1.1" id="Layer_1" xmlns="http://www.w3.org/2000/svg" xmlns:xlink="http://www.w3.org/1999/xlink" x="0px" y="0px"
	 viewBox="0 0 128 128" style="enable-background:new 0 0 128 128;" xml:space="preserve">
<style type="text/css">
	.st0{fill:#3EBB9A;}
</style>
<path class="st0" d="M64,5c32.5,0,59,26.5,59,59s-26.5,59-59,59S5,96.5,5,64S31.5,5,64,5 M64,0C28.7,0,0,28.7,0,64s28.7,64,64,64
	c35.3,0,64-28.7,64-64S99.3,0,64,0L64,0z"/>
<path class="st0" d="M59.7,115.8c-0.1,0-0.1,0-0.2,0C31,113.3,9.7,88.1,12.2,59.5c0.1-1.1,1.1-1.9,2.2-1.8c1.1,0.1,1.9,1.1,1.8,2.2
	c-2.3,26.4,17.3,49.7,43.7,52c1.1,0.1,1.9,1.1,1.8,2.2C61.6,115,60.7,115.8,59.7,115.8z"/>
<path class="st0" d="M113.8,70.3c-0.1,0-0.1,0-0.2,0c-1.1-0.1-1.9-1.1-1.8-2.2c2.3-26.4-17.3-49.7-43.7-52c-1.1-0.1-1.9-1.1-1.8-2.2
	c0.1-1.1,1-1.9,2.2-1.8c28.6,2.5,49.8,27.7,47.3,56.3C115.7,69.5,114.8,70.3,113.8,70.3z"/>
<g>
	<path class="st0" d="M33.6,28.6c2.9,0,5.2,2.3,4.9,5.3c-0.2,2.1,0.5,3.7,2,5.1c4.3,4.2,8.5,8.5,12.7,12.7c2.6,2.6,5.1,3.8,8,3.8
		c1.7,0,3.4-0.4,5.3-1.2c3-1.3,6.2-1.9,9.2-1.9c10.9,0,21.1,7.7,22.9,19.1c0.7,4.3,0.5,19.6,0.5,22.9c0,2.8-2,4.8-4.7,4.8
		c-3.7,0-7.3,0.1-11,0.1c-2.8,0-5.6,0-8.4-0.1C63.7,99,54,90,52.7,78.4c-0.5-4.1,0.2-8,1.8-11.8c2.2-5.3,1.5-9.3-2.5-13.4
		C47.6,49,43.3,44.7,39,40.3c-1.2-1.2-2.5-1.8-4.1-1.8c-0.2,0-0.4,0-0.7,0c-0.2,0-0.4,0-0.5,0c-2.7,0-4.9-2.1-5.1-4.8
		C28.5,31,30.8,28.6,33.6,28.6C33.6,28.6,33.6,28.6,33.6,28.6 M81,89.9c1.7,0,3.4,0,5.1,0c2.3,0,3.8-1.6,3.9-4c0.1-1.8,0-3.7,0-5.5
		c0,0,0,0,0,0c0-1.3,0-2.7,0-4c0.1-9.7-7.6-14.6-14.1-14.6c-0.5,0-1.1,0-1.6,0.1c-6.9,0.9-12.3,6.7-12.4,13.7
		c0,7.2,5.1,13.4,12.2,14C76.4,89.9,78.7,89.9,81,89.9 M33.6,24.6C33.6,24.6,33.6,24.6,33.6,24.6c-2.5,0-4.9,1.1-6.6,2.8
		c-1.7,1.8-2.6,4.1-2.4,6.5c0.2,4.8,4.2,8.6,9.1,8.6c0.3,0,0.6,0,0.9,0c0.1,0,0.2,0,0.3,0c0.4,0,0.7,0,1.3,0.6c2.7,2.7,5.4,5.4,8,8
		c1.6,1.6,3.3,3.3,4.9,4.9c2.9,2.9,3.3,5.2,1.7,9c-1.9,4.5-2.6,9.1-2,13.8c1.5,13.6,12.9,24.1,26.4,24.4c2.6,0.1,5.2,0.1,8.5,0.1
		c2.5,0,5,0,7.5,0l3.5,0c5,0,8.7-3.8,8.7-8.8l0-1.3c0.1-8.4,0-18.5-0.6-22.3c-2.1-13-13.4-22.5-26.9-22.5c-3.7,0-7.3,0.7-10.8,2.2
		c-1.5,0.6-2.7,0.9-3.8,0.9c-1.2,0-2.8-0.3-5.2-2.7c-1.3-1.3-2.6-2.6-3.9-3.9c-2.9-2.9-5.9-5.9-8.8-8.8c-0.8-0.7-0.9-1.2-0.8-2
		c0.2-2.6-0.6-5-2.3-6.8C38.5,25.6,36.2,24.6,33.6,24.6L33.6,24.6z M81,85.9c-2.6,0-4.6-0.1-6.5-0.2c-4.9-0.4-8.6-4.8-8.6-10
		c0-4.9,3.8-9.1,8.9-9.7c0.3,0,0.7-0.1,1.1-0.1c2.7,0,5.4,1.1,7.3,3c1.9,1.9,2.9,4.5,2.9,7.6c0,0.9,0,1.8,0,2.7l0,0.8
		c0,0.1,0,0.3,0,0.4c0,0.6,0,1.2,0,1.7c0,1.2,0,2.4,0,3.6c0,0.1,0,0.1,0,0.1l-1.4,0C83.3,85.9,82.1,85.9,81,85.9L81,85.9z"/>
</g>
</svg>
