<?xml version="1.0" encoding="utf-8"?>
<!-- Generator: Adobe Illustrator 21.1.0, SVG Export Plug-In . SVG Version: 6.00 Build 0)  -->
<svg version="1.1" id="Layer_1" xmlns="http://www.w3.org/2000/svg" xmlns:xlink="http://www.w3.org/1999/xlink" x="0px" y="0px"
	 viewBox="0 0 128 128" style="enable-background:new 0 0 128 128;" xml:space="preserve">
<style type="text/css">
	.st0{fill:#195199;}
	.st1{fill:#5C9DD5;}
</style>
<path class="st0" d="M64,5c32.5,0,59,26.5,59,59s-26.5,59-59,59S5,96.5,5,64S31.5,5,64,5 M64,0C28.7,0,0,28.7,0,64s28.7,64,64,64
	s64-28.7,64-64S99.3,0,64,0L64,0z"/>
<path class="st0" d="M59.9,115.8c-0.1,0-0.1,0-0.2,0c-13.8-1.1-26.4-7.6-35.4-18.2c-9-10.6-13.3-24-12.2-37.9
	c0.1-1.1,1.1-1.9,2.2-1.8c1.1,0.1,1.9,1.1,1.8,2.2c-1,12.8,2.9,25.2,11.2,35c8.3,9.8,19.9,15.7,32.7,16.8c1.1,0.1,1.9,1.1,1.8,2.2
	C61.8,115,61,115.8,59.9,115.8z"/>
<path class="st0" d="M113.8,70.1c-0.1,0-0.1,0-0.2,0c-1.1-0.1-1.9-1.1-1.8-2.2c1-12.8-2.9-25.2-11.2-35
	c-8.3-9.8-19.9-15.7-32.7-16.8c-1.1-0.1-1.9-1.1-1.8-2.2s1.1-1.9,2.2-1.8c13.8,1.1,26.4,7.6,35.4,18.2c9,10.6,13.3,24,12.2,37.9
	C115.7,69.3,114.9,70.1,113.8,70.1z"/>
<g>
	<path class="st1" d="M63.8,102.8c-0.4,0-0.8-0.1-1.1-0.4c-0.5-0.4-0.9-1-0.9-1.7c0-0.1,0-0.3,0-0.4c0-0.5,0-1.1,0.1-1.7
		c0.3-1.1,0.6-2.2,0.9-3.3c0.4-1.4,0.8-2.9,1.1-4.3c0.7-2.9,0.4-5.7-0.8-8.4c-2-4.4-4.1-8.8-6.1-13.1l-2.1-4.6
		c-2.3-4.9-4.7-10.1-6.3-15.5c-0.9-3.3-1.5-6.8,0.1-10.2c2.4-5,6.2-9.3,11.5-13.1c0.4-0.3,0.7-0.4,1.1-0.5c0.1-0.1,0.3-0.1,0.5-0.2
		c0.7-0.3,1.4-0.2,2,0.2c0.6,0.4,0.9,1.1,0.8,1.8c-0.1,0.6-0.1,1.2-0.2,1.8c-0.1,1.2-0.2,2.3-0.4,3.4c-0.7,5.3-0.1,10,2,14.3
		c2.8,5.8,5.8,12.1,9.5,20c1.9,4,3.7,8.4,4.7,13.2c0.6,2.7,0.2,5.2-1,7.4c-3.1,5.4-7.3,10.2-12.5,14.4c-0.6,0.5-1.3,0.7-1.8,0.8
		c-0.1,0-0.3,0.1-0.4,0.1C64.2,102.8,64,102.8,63.8,102.8z M60.1,31.2c-3.5,2.9-6.1,6.1-7.9,9.8c-1,2.2-0.7,4.4,0.1,7.4
		c1.5,5.1,3.8,10.1,6,14.9l2.1,4.6c2,4.3,4.1,8.8,6.1,13.2c1.6,3.5,2,7.2,1.1,10.9c-0.3,1.5-0.8,3-1.2,4.5c0,0,0,0.1,0,0.1
		c3.7-3.4,6.7-7.1,9.1-11.2c0.8-1.3,1-2.8,0.6-4.6c-0.9-4.4-2.6-8.5-4.4-12.3c-3.6-7.8-6.6-14.2-9.4-19.9c-2.5-5-3.3-10.5-2.4-16.6
		C60,31.7,60.1,31.4,60.1,31.2z"/>
	<path class="st0" d="M40.4,95.1c-0.3,0-0.6-0.1-0.9-0.2l-0.3-0.2c-0.7-0.4-1.2-1.2-1-2.1c0-0.1,0-0.3,0.1-0.4
		c0-0.4,0.1-0.8,0.2-1.3c0.2-0.7,0.4-1.5,0.6-2.2c0.4-1.3,0.7-2.5,0.9-3.8c0.5-2.2,0.2-4.2-0.6-6.1c-1.4-3-2.8-5.9-4.1-8.9
		c-1-2.1-2-4.2-3-6.4c-1.9-4.1-3.7-8.1-4.7-12.5c-0.7-2.9-0.2-5.7,1.3-8.3c2-3.3,4.7-6.3,8-8.7c0.3-0.2,0.7-0.4,1-0.6
		c0.1-0.1,0.3-0.1,0.5-0.2c0.6-0.3,1.4-0.3,2,0c0.6,0.4,1,1,1,1.7c0,0.2,0,0.3,0,0.5c0,0.4,0,0.7,0,1.1c-0.4,3.2-0.8,6.2-0.3,9.2
		c0.2,1.2,0.6,2.4,1.2,3.6c1,2.2,2.1,4.4,3.1,6.6c1.6,3.3,3.2,6.7,4.7,10.1c1.3,3,2.3,6.2,3.3,9.2l0.3,0.8c0.7,2.1,0.4,4.2-0.8,6.3
		c-2.5,4.3-5.8,8.2-9.9,11.5c-0.4,0.3-0.8,0.5-1.2,0.7c-0.1,0.1-0.2,0.1-0.3,0.2C41.1,95,40.7,95.1,40.4,95.1z M36.9,39.3
		c-1.9,1.7-3.4,3.6-4.6,5.6c-1,1.7-1.3,3.4-0.8,5.3c0.9,4,2.6,7.7,4.4,11.7c1,2.1,2,4.2,3,6.3c1.4,3,2.8,6,4.1,8.9
		c1.2,2.7,1.5,5.6,0.9,8.6c-0.2,0.8-0.4,1.7-0.6,2.5c2.4-2.4,4.4-5,6-7.8c0.6-1,0.7-2.1,0.4-3.1l-0.3-0.8c-0.9-3-1.9-6-3.2-8.8
		c-1.5-3.4-3.1-6.7-4.6-10c-1.1-2.2-2.1-4.4-3.1-6.6c-0.7-1.5-1.2-3-1.5-4.5C36.6,44.1,36.7,41.7,36.9,39.3z"/>
	<path class="st0" d="M87.1,95.2c-0.4,0-0.8-0.1-1.1-0.4c-0.6-0.4-0.9-1.1-0.8-1.9c0-0.2,0-0.4,0.1-0.6c0-0.4,0.1-0.8,0.2-1.3
		c0.2-0.9,0.4-1.7,0.6-2.6c0.4-1.5,0.8-3,1.1-4.5c0.3-1.6,0.1-3.4-0.8-5.3c-1.3-2.9-2.7-5.8-4-8.7c-1-2.2-2.1-4.4-3.1-6.6
		c-2-4.2-3.7-8.1-4.6-12.4c-0.6-2.9-0.2-5.7,1.4-8.3c2-3.2,4.6-6.1,7.9-8.5c0.4-0.3,0.7-0.4,1-0.6c0.1,0,0.2-0.1,0.3-0.1
		c0.6-0.3,1.2-0.3,1.8,0l0.3,0.2c0.8,0.4,1.2,1.2,1.1,2l-0.1,0.9c-0.1,0.7-0.2,1.4-0.3,2.1c-0.4,2.7-0.6,5.4,0.1,7.9
		c0.5,1.9,1.4,3.7,2.3,5.7l0.2,0.4c1,2.3,2.1,4.6,3.2,6.9c1.7,3.6,3.4,7.4,5,11.1c1,2.3,1.5,4.8,1.9,6.8c0.3,1.4,0,3.2-0.7,4.5
		c-2.2,4.4-5.6,8.4-10.3,12.2c-0.4,0.3-0.8,0.5-1.2,0.7c-0.2,0.1-0.3,0.1-0.5,0.3C87.8,95.2,87.5,95.2,87.1,95.2z M83.9,39.3
		c-1.8,1.6-3.3,3.5-4.6,5.5c-1.1,1.7-1.4,3.4-0.9,5.3c0.9,3.9,2.5,7.6,4.3,11.6c1,2.2,2.1,4.4,3.1,6.6c1.4,2.9,2.7,5.8,4.1,8.7
		c1.2,2.7,1.6,5.3,1.1,7.7c-0.2,1.2-0.5,2.4-0.8,3.6c2.7-2.6,4.8-5.3,6.3-8.3c0.3-0.6,0.4-1.4,0.3-2c-0.3-1.9-0.8-4-1.6-6
		c-1.6-3.7-3.3-7.4-5-11c-1.1-2.3-2.1-4.6-3.2-6.9l-0.2-0.4c-0.9-2-1.8-4.1-2.5-6.2C83.5,44.8,83.6,42,83.9,39.3z"/>
</g>
</svg>
