<?xml version="1.0" encoding="utf-8"?>
<!-- Generator: Adobe Illustrator 21.1.0, SVG Export Plug-In . SVG Version: 6.00 Build 0)  -->
<svg version="1.1" id="Layer_1" xmlns="http://www.w3.org/2000/svg" xmlns:xlink="http://www.w3.org/1999/xlink" x="0px" y="0px"
	 viewBox="0 0 128 128" style="enable-background:new 0 0 128 128;" xml:space="preserve">
<style type="text/css">
	.st0{fill:#2A8AC7;}
</style>
<path class="st0" d="M64,5c32.5,0,59,26.5,59,59s-26.5,59-59,59S5,96.5,5,64S31.5,5,64,5 M64,0C28.7,0,0,28.7,0,64s28.7,64,64,64
	s64-28.7,64-64S99.3,0,64,0L64,0z"/>
<path class="st0" d="M16.4,81.3c-0.8,0-1.6-0.5-1.9-1.4c-4.3-13.2-3.1-27.3,3.2-39.7c6.3-12.4,17.1-21.5,30.3-25.8
	c1.1-0.3,2.2,0.2,2.5,1.3c0.3,1.1-0.2,2.2-1.3,2.5c-12.2,3.9-22.1,12.4-28,23.8c-5.9,11.4-6.9,24.4-3,36.6c0.3,1.1-0.2,2.2-1.3,2.5
	C16.8,81.3,16.6,81.3,16.4,81.3z"/>
<path class="st0" d="M79.3,113.6c-0.8,0-1.6-0.5-1.9-1.4c-0.3-1.1,0.2-2.2,1.3-2.5c12.2-3.9,22.1-12.4,28-23.8
	c5.9-11.4,6.9-24.4,3-36.6c-0.3-1.1,0.2-2.2,1.3-2.5c1.1-0.3,2.2,0.2,2.5,1.3c4.3,13.2,3.1,27.3-3.2,39.7
	c-6.3,12.4-17.1,21.5-30.3,25.8C79.7,113.6,79.5,113.6,79.3,113.6z"/>
<path class="st0" d="M63.9,100.1c-0.4,0-0.7-0.1-1.1-0.3L25.5,76.2c-0.9-0.6-1.2-1.8-0.6-2.8c0.6-0.9,1.8-1.2,2.8-0.6l36.3,22.9
	l35.5-22.9v-6L64.5,89c-0.7,0.4-1.5,0.4-2.2,0L25.4,65c-0.6-0.4-0.9-1-0.9-1.7V52.6c0-0.1,0-0.2,0-0.3c0-0.1,0-0.2,0.1-0.3
	c0.1-0.4,0.4-0.8,0.8-1.1c0,0,0,0,0.1-0.1l37.5-24.6c0.7-0.4,1.5-0.4,2.2,0l37.3,24.7c0.6,0.4,0.9,1,0.9,1.7c0,0.7-0.4,1.3-0.9,1.7
	L65.1,77.9c-0.7,0.4-1.5,0.4-2.1,0L28.5,56.2v6l34.9,22.7l37-23.3c0.6-0.4,1.4-0.4,2-0.1c0.6,0.4,1,1,1,1.8V74
	c0,0.7-0.3,1.3-0.9,1.7L65,99.8C64.7,100,64.3,100.1,63.9,100.1z M30.2,52.5L64,73.9l33.7-21.4L64,30.3L30.2,52.5z"/>
</svg>
