<?xml version="1.0" encoding="utf-8"?>
<!-- Generator: Adobe Illustrator 21.1.0, SVG Export Plug-In . SVG Version: 6.00 Build 0)  -->
<svg version="1.1" id="Layer_1" xmlns="http://www.w3.org/2000/svg" xmlns:xlink="http://www.w3.org/1999/xlink" x="0px" y="0px"
	 viewBox="0 0 128 128" style="enable-background:new 0 0 128 128;" xml:space="preserve">
<style type="text/css">
	.st0{fill:#1D97D4;}
</style>
<g>
	<path class="st0" d="M52.5,35.4c3.3,0,6.5,1.7,8.4,4.6c2.5,3.8,3.8,8,4.9,12.3c2.3,8.9,4.5,17.9,6.8,26.8c0.3,1.2,0.8,2.4,1.4,3.5
		c0.4,0.8,1,1.3,1.6,1.3c0.6,0,1.1-0.4,1.4-1.3c1.2-3,2.1-6.1,2.9-9.2c2.2-8.5,4.3-17.1,6.5-25.7c0.9-3.4,2.6-6.5,5-9.2
		c1.7-1.9,3.7-3,6.3-3.1c0.7,0,1.5,0,2.2,0c1.2,0,2.4,0,3.7,0c-0.7,2.8-1.3,5.3-2,8.1c-0.3,0-0.6-0.1-0.9-0.1c-2.7,0-4,1.9-4.7,4.3
		c-1.4,4.5-2.6,9-4,13.7c1.7-0.8,3.4-0.9,5-0.9c1.1,0,2.2,0.1,3.4,0.1c0.7,0,1.4,0,2.1-0.1c-0.6,2.4-1.1,4.6-1.7,6.8
		c-3.3,0-6.6,0-10,0c-0.6,2.4-1.2,4.8-1.8,7.2c-1.3,4.9-2.7,9.8-5.8,14c-2,2.7-4.9,4-7.8,4c-2.8,0-5.6-1.3-7.6-3.8
		c-2.6-3.3-3.9-7.1-4.9-11c-2.4-9.3-4.7-18.6-7.1-27.8c-0.4-1.6-1-3.2-1.7-4.7c-0.3-0.6-1-1.2-1.6-1.2c0,0,0,0,0,0
		c-0.4,0-1.2,0.7-1.4,1.3c-1.1,3.5-2.3,7-3.2,10.5c-2.1,8.1-4,16.2-6.3,24.2c-0.8,2.9-2.5,5.6-4.1,8.2c-1.7,2.8-4.3,4.2-7.6,4.3
		c-0.7,0-1.3,0-2,0c-1.1,0-2.2,0-3.5,0c0.7-2.8,1.3-5.4,2-8.1c0.2,0,0.4,0,0.7,0c2.7,0,4.1-1.7,4.8-4.1c1.4-4.5,2.7-9,4.1-13.9
		c-1.7,0.8-3.4,1-5,1c-1,0-2.1-0.1-3.1-0.1c-0.8,0-1.6,0-2.4,0.2c0.6-2.3,1-4.3,1.6-6.3c0.1-0.3,0.8-0.5,1.3-0.5c1.5,0,2.9,0,4.4,0
		c1.4,0,2.8,0,4.3,0c1-3.9,2-7.7,3.1-11.5c0.9-3.3,2.3-6.4,4.3-9.3C46.5,36.8,49.5,35.4,52.5,35.4 M102.5,60.6L102.5,60.6
		 M52.5,31.4c-4.5,0-8.6,2.3-11.3,6.2c-2.1,3.2-3.7,6.7-4.8,10.4c-0.8,2.7-1.5,5.4-2.2,8c0,0.2-0.1,0.4-0.1,0.6l-1.2,0
		c-1.8,0-3.2,0-4.5,0c-1.5,0-4.3,0.8-5.1,3.4c-0.5,1.6-0.8,3.2-1.2,4.8c-0.1,0.5-0.3,1.1-0.4,1.7c-0.3,1.3,0,2.7,1,3.7
		c0.8,0.8,1.8,1.3,2.9,1.3c0.2,0,0.4,0,0.6-0.1c0.5-0.1,1.1-0.1,1.8-0.1c0.5,0,1,0,1.4,0c0.3,0,0.7,0,1,0c-0.8,2.6-1.5,5.2-2.3,7.7
		c-0.4,1.3-0.7,1.3-1,1.3c-0.1,0-0.2,0-0.3,0c-0.1,0-0.3,0-0.4,0c-1.8,0-3.4,1.2-3.9,3l-0.7,3l-1.2,5.1c-0.3,1.2,0,2.5,0.7,3.4
		c0.8,1,1.9,1.5,3.1,1.5c0.6,0,1.2,0,1.8,0c0.6,0,1.1,0,1.7,0c0.7,0,1.4,0,2.1,0c4.7-0.1,8.5-2.4,10.9-6.3l0.1-0.2
		c1.6-2.6,3.4-5.6,4.4-9c1.4-5,2.7-10.2,4-15.1c0.8-3,1.5-6.1,2.3-9.2c0.3-1,0.6-2.1,0.9-3.1c0.8,3,1.5,6,2.3,9.1
		c1.3,5.2,2.7,10.7,4.1,16c1,4,2.5,8.6,5.7,12.5c2.7,3.4,6.6,5.3,10.7,5.3c4.2,0,8.2-2,10.9-5.6c3.7-4.9,5.2-10.4,6.5-15.3
		c0.4-1.4,0.7-2.8,1.1-4.2h6.8c1.8,0,3.4-1.3,3.9-3l1.6-6.6c0.1-0.4,0.2-0.7,0.2-1.1c0-2.2-1.8-4-4-4c0,0,0,0,0,0c0,0-0.1,0-0.1,0
		c-0.1,0-0.3,0-0.4,0c-0.5,0.1-1,0.1-1.6,0.1c-0.5,0-1,0-1.6,0c-0.4,0-0.9,0-1.3,0c0.7-2.6,1.5-5.1,2.2-7.6c0.4-1.2,0.7-1.5,0.7-1.5
		c0,0,0,0,0,0c0,0,0.1,0,0.2,0c0.1,0,0.2,0,0.3,0c0.2,0,0.4,0,0.6,0c1.8,0,3.4-1.2,3.9-3l2-8.1c0.3-1.2,0-2.5-0.7-3.4
		c-0.8-1-1.9-1.5-3.1-1.5c-0.6,0-1.3,0-1.9,0c-0.6,0-1.2,0-1.8,0c-0.9,0-1.6,0-2.4,0c-3.5,0.1-6.6,1.7-9.1,4.5
		c-2.8,3.2-4.8,6.8-5.8,10.8c-1.2,4.6-2.4,9.2-3.5,13.8c-1,3.9-2,8-3,11.9c-0.2,0.6-0.3,1.3-0.5,1.9c-0.7-2.6-1.3-5.1-1.9-7.7
		c-1.3-5-2.6-10.2-3.9-15.4c-1.2-4.4-2.6-9.2-5.4-13.5C61.6,33.9,57.2,31.4,52.5,31.4L52.5,31.4z"/>
</g>
<path class="st0" d="M64,5c32.5,0,59,26.5,59,59s-26.5,59-59,59S5,96.5,5,64S31.5,5,64,5 M64,0C28.7,0,0,28.7,0,64s28.7,64,64,64
	c35.3,0,64-28.7,64-64S99.3,0,64,0L64,0z"/>
<path class="st0" d="M14,66.7c-1.1,0-2-0.9-2-2c-0.2-13.9,5-27,14.7-37c9.7-10,22.7-15.5,36.6-15.7c0,0,0,0,0,0c1.1,0,2,0.9,2,2
	c0,1.1-0.9,2-2,2c-12.8,0.2-24.8,5.3-33.7,14.5C20.7,39.7,15.8,51.8,16,64.6C16,65.8,15.1,66.7,14,66.7C14,66.7,14,66.7,14,66.7z"/>
<path class="st0" d="M64.7,116c-1.1,0-2-0.9-2-2c0-1.1,0.9-2,2-2c26.5-0.4,47.7-22.2,47.3-48.6c0-1.1,0.9-2,2-2c1.1,0,2,0.9,2,2
	c0.2,13.9-5,27-14.7,37C91.6,110.2,78.6,115.8,64.7,116C64.7,116,64.7,116,64.7,116z"/>
</svg>
