<?xml version="1.0" encoding="utf-8"?>
<!-- Generator: Adobe Illustrator 21.1.0, SVG Export Plug-In . SVG Version: 6.00 Build 0)  -->
<svg version="1.1" id="Layer_1" xmlns="http://www.w3.org/2000/svg" xmlns:xlink="http://www.w3.org/1999/xlink" x="0px" y="0px"
	 viewBox="0 0 128 128" style="enable-background:new 0 0 128 128;" xml:space="preserve">
<style type="text/css">
	.st0{fill:#68174D;}
	.st1{fill:none;}
	.st2{fill:#FFFFFF;}
</style>
<path class="st0" d="M64,5c32.5,0,59,26.5,59,59s-26.5,59-59,59S5,96.5,5,64S31.5,5,64,5 M64,0C28.7,0,0,28.7,0,64s28.7,64,64,64
	c35.3,0,64-28.7,64-64S99.3,0,64,0L64,0z"/>
<path class="st0" d="M15.6,78.6c-0.9,0-1.7-0.6-1.9-1.5c-7.2-27.7,9.5-56.2,37.2-63.4c1.1-0.3,2.2,0.4,2.4,1.4
	c0.3,1.1-0.4,2.2-1.4,2.4c-25.6,6.7-41,32.9-34.4,58.5c0.3,1.1-0.4,2.2-1.4,2.4C15.9,78.6,15.8,78.6,15.6,78.6z"/>
<path class="st0" d="M76.6,114.4c-0.9,0-1.7-0.6-1.9-1.5c-0.3-1.1,0.4-2.2,1.4-2.4c12.4-3.2,22.8-11.1,29.3-22.2
	c6.5-11.1,8.3-24,5.1-36.4c-0.3-1.1,0.4-2.2,1.4-2.4c1.1-0.3,2.2,0.4,2.4,1.4c3.5,13.4,1.6,27.4-5.5,39.4c-7,12-18.3,20.5-31.7,24
	C76.9,114.4,76.8,114.4,76.6,114.4z"/>
<g>
	<path class="st1" d="M60.2,64.1c0-0.3,0-0.5,0.1-0.7C60.2,63.6,60.2,63.9,60.2,64.1z"/>
	<path class="st1" d="M61.5,65.6c-0.3-0.3-0.9-0.3-1.2-0.6C60.6,65.3,61.2,65.3,61.5,65.6z"/>
	<path class="st1" d="M56.8,80.3c-0.3-0.7-0.6-1.4-0.9-2.1C56.2,78.9,56.5,79.6,56.8,80.3z"/>
	<path class="st1" d="M60.5,62.8C60.6,62.8,60.6,62.8,60.5,62.8C60.6,62.8,60.6,62.8,60.5,62.8z"/>
	<path class="st1" d="M54,70.5c2.6,2.1,5.3,4.2,8.1,6.4c0-0.1,0-0.1,0-0.2c0,0.1,0,0.1,0,0.2C59.3,74.7,56.6,72.6,54,70.5
		c0-0.3,0-0.6,0-0.9c0,0,0,0,0,0c0,0,0,0,0,0c0,0,0,0,0,0C54,69.9,54,70.2,54,70.5z"/>
	<path class="st1" d="M61.1,62.5C61.2,62.5,61.2,62.5,61.1,62.5C61.2,62.5,61.2,62.5,61.1,62.5z"/>
	<path class="st1" d="M61.9,72.8c0,0.3,0.1,0.5,0.1,0.8c0,0.3,0,0.6,0.1,0.9c0-0.3,0-0.6-0.1-0.9C62,73.3,62,73,61.9,72.8z"/>
	<path class="st1" d="M86.3,62.5c0,0,0.1,0,0.1,0C86.4,62.5,86.3,62.5,86.3,62.5z"/>
	<path class="st1" d="M65.1,87L65.1,87c0.8-0.1,1.5-0.2,2.3-0.2c0.6,0,1.3-0.1,1.9-0.2c0,0,0,0,0,0c-0.6,0.1-1.3,0.1-1.9,0.2
		C66.6,86.8,65.8,86.9,65.1,87z"/>
	<path class="st1" d="M87.7,62.8C87.8,62.8,87.8,62.9,87.7,62.8C87.8,62.9,87.8,62.8,87.7,62.8z"/>
	<path class="st1" d="M62,62.5C62,62.5,62,62.5,62,62.5C62,62.5,62,62.5,62,62.5z"/>
	<path class="st1" d="M85.4,64.1c0-0.2,0-0.3,0-0.4C85.4,63.8,85.4,63.9,85.4,64.1z"/>
	<path class="st1" d="M87.4,62.6C87.5,62.6,87.5,62.6,87.4,62.6C87.5,62.6,87.5,62.6,87.4,62.6z"/>
	<path class="st1" d="M86.7,62.4C86.7,62.4,86.6,62.4,86.7,62.4C86.7,62.4,86.7,62.4,86.7,62.4C86.7,62.4,86.7,62.4,86.7,62.4z"/>
	<path class="st1" d="M87,62.5C87,62.5,87.1,62.5,87,62.5C87.1,62.5,87,62.5,87,62.5z"/>
	<path class="st1" d="M60.8,62.6C60.8,62.6,60.9,62.6,60.8,62.6C60.9,62.6,60.8,62.6,60.8,62.6z"/>
	<path class="st1" d="M56.4,65.8c-0.1-0.5-0.2-0.9-0.2-1.2l0-0.1c0-0.3,0-0.8,0-1.3c-0.1,0.2-0.2,0.4-0.3,0.5
		c-0.2,0.4-0.4,0.8-0.6,1.2C55.7,65.2,56,65.5,56.4,65.8z"/>
	<path class="st1" d="M61.6,62.4C61.6,62.4,61.6,62.4,61.6,62.4C61.6,62.4,61.6,62.4,61.6,62.4C61.6,62.4,61.6,62.4,61.6,62.4z"/>
	<path class="st1" d="M62.4,65.2c0.1-0.1,0.1-0.2,0.1-0.3C62.5,65.1,62.5,65.1,62.4,65.2L62.4,65.2z"/>
	<path class="st1" d="M62.8,63c-0.1-0.1-0.2-0.3-0.4-0.4c0,0,0,0,0,0c0,0,0,0,0,0C62.6,62.8,62.7,62.9,62.8,63z"/>
	<path class="st1" d="M86.8,65.6c0,0.1,0,0.1,0,0.2h0C86.8,65.7,86.8,65.7,86.8,65.6c1.1-0.7,1.6-1.3,1.5-1.8
		C88.4,64.4,87.9,64.9,86.8,65.6z"/>
	<path class="st1" d="M85.6,64.6c0.1,0.2,0.2,0.4,0.3,0.7l0,0C85.7,65,85.6,64.8,85.6,64.6z"/>
	<path class="st1" d="M86,62.6C86,62.6,86,62.6,86,62.6C86,62.6,86,62.6,86,62.6c-0.3,0.2-0.5,0.4-0.6,0.7
		C85.5,63,85.7,62.8,86,62.6z"/>
	<path class="st1" d="M76.9,65.7c-0.7-2.5-1.4-4.9-2.1-7.4h0C75.5,60.7,76.2,63.2,76.9,65.7z"/>
	<path class="st1" d="M70.5,66.6c-0.8,2.9-1.6,5.8-2.4,8.8l0,0C68.9,72.4,69.7,69.5,70.5,66.6z"/>
	<path class="st2" d="M22.3,56.1c-1.5,1.9-2.5,4-3.1,6.5C19.7,60.1,20.7,57.9,22.3,56.1z"/>
	<path class="st2" d="M18.6,69.3c0-0.6,0-1.2,0.1-1.8C18.7,68.1,18.7,68.7,18.6,69.3C18.6,69.3,18.6,69.3,18.6,69.3z"/>
	<path class="st2" d="M28.8,51.5c-0.3,0.1-0.7,0.3-1,0.5C28.1,51.8,28.4,51.6,28.8,51.5z"/>
	<path class="st2" d="M43.3,36.4c0.4,0,0.7,0,1.1,0C44,36.4,43.7,36.4,43.3,36.4z"/>
	<path class="st2" d="M30.3,50.9c-0.3,0.1-0.6,0.2-0.9,0.3C29.7,51.1,30,51,30.3,50.9z"/>
	<path class="st2" d="M18,58c0.3-2.9,1-5.6,2.2-8.2C19,52.4,18.3,55.2,18,58z"/>
	<path class="st2" d="M41.5,36.5c0.4,0,0.7-0.1,1.1-0.1C42.3,36.4,41.9,36.5,41.5,36.5z"/>
	<path class="st2" d="M39.7,36.7c0.4,0,0.8-0.1,1.2-0.1C40.5,36.6,40.1,36.6,39.7,36.7z"/>
	<path class="st2" d="M33.4,50.2c-0.3,0-0.6,0.1-0.9,0.2C32.8,50.3,33.1,50.2,33.4,50.2z"/>
	<path class="st2" d="M68.2,58.6c-0.2,0-0.4-0.1-0.7-0.1C67.8,58.5,68,58.5,68.2,58.6z"/>
	<path class="st2" d="M66.4,58.2c-0.2,0-0.4-0.1-0.5-0.1C66.1,58.1,66.2,58.2,66.4,58.2z"/>
	<path class="st2" d="M36.7,49.9c-0.3,0-0.6,0-0.9,0.1C36.1,49.9,36.4,49.9,36.7,49.9z"/>
	<path class="st2" d="M45.3,36.4c0.3,0,0.6,0,0.9,0C45.9,36.4,45.6,36.4,45.3,36.4z"/>
	<path class="st2" d="M31.9,50.5c-0.3,0.1-0.6,0.2-0.9,0.2C31.3,50.7,31.6,50.6,31.9,50.5z"/>
	<path class="st2" d="M35.1,50c-0.3,0-0.6,0.1-0.9,0.1C34.5,50.1,34.8,50,35.1,50z"/>
	<path class="st2" d="M38,49.9c-0.2,0-0.4,0-0.5,0c0.4,0,0.8,0,1.2,0c0.8,0,1.5,0,2.3,0.1c-0.8-0.1-1.5-0.1-2.3-0.1
		C38.4,49.9,38.2,49.9,38,49.9z"/>
	<path class="st2" d="M17.8,60.4c-0.1,1.4-0.1,2.8,0,4.1C17.7,63.1,17.7,61.7,17.8,60.4z"/>
	<path class="st2" d="M39.1,36.7c-0.6,0.1-1.2,0.2-1.8,0.3c-4.4,0.9-8.3,2.6-11.6,5.3c3.2-2.8,7.2-4.4,11.6-5.3
		C37.9,36.9,38.5,36.8,39.1,36.7z"/>
	<path class="st2" d="M18.7,66.1c0-0.2,0-0.3,0-0.5c0.1-0.7,0.1-1.3,0.2-1.9c-0.1,0.6-0.2,1.3-0.2,1.9C18.7,65.8,18.7,66,18.7,66.1z
		"/>
	<path class="st2" d="M80.3,55.7c0.6-0.4,1.1-0.9,1.6-1.4C81.4,54.8,80.9,55.3,80.3,55.7C80.3,55.7,80.3,55.7,80.3,55.7z"/>
	<path class="st2" d="M24.2,54.2c0.5-0.4,1-0.8,1.6-1.2c0.5-0.3,1-0.6,1.5-0.8c-0.5,0.3-1,0.5-1.5,0.8
		C25.2,53.4,24.7,53.8,24.2,54.2z"/>
	<path class="st2" d="M46.9,36.5c0.3,0,0.6,0,1,0C47.6,36.5,47.3,36.5,46.9,36.5z"/>
	<path class="st2" d="M64.7,36.9c-0.3,0.1-0.7,0.1-1,0.2c0,0,0,0,0,0c0,0,0,0,0,0C64,37.1,64.4,37,64.7,36.9z"/>
	<path class="st2" d="M71.7,27.8c0,0.2,0,0.5,0,0.8C71.7,28.3,71.7,28.1,71.7,27.8L71.7,27.8z"/>
	<path class="st2" d="M60.3,37.3c-0.2,0-0.4,0-0.6,0c0.1,0,0.2,0,0.4,0C60.2,37.3,60.3,37.3,60.3,37.3z"/>
	<path class="st2" d="M53.7,36.9c-0.8-0.1-1.6-0.1-2.4-0.2c-1-0.1-2-0.2-3-0.2c1,0.1,2,0.1,3,0.2C52.2,36.8,52.9,36.9,53.7,36.9z"/>
	<path class="st2" d="M59,55.1c1.8,0.8,3.5,1.7,5.3,2.4c0,0,0,0,0,0c0,0,0,0,0,0C62.5,56.8,60.7,56,59,55.1z"/>
	<path class="st2" d="M57.7,37.2c0.2,0,0.3,0,0.5,0C58.1,37.2,57.9,37.2,57.7,37.2z"/>
	<path class="st2" d="M86.4,39.7c0.3,1.1,0.4,2.3,0.4,3.5C86.8,42,86.7,40.8,86.4,39.7z"/>
	<path class="st2" d="M61.4,37.3c0.2,0,0.4,0,0.6,0C61.8,37.2,61.6,37.2,61.4,37.3z"/>
	<path class="st2" d="M55.3,37.1c0.2,0,0.4,0,0.5,0C55.6,37.1,55.5,37.1,55.3,37.1z"/>
	<path class="st2" d="M86.5,46c-0.1,0.7-0.3,1.4-0.6,2.1C86.1,47.4,86.3,46.7,86.5,46z"/>
	<path class="st2" d="M71.1,31.4c0.2-0.7,0.4-1.3,0.5-2C71.5,30,71.3,30.7,71.1,31.4z"/>
	<path class="st2" d="M83.2,53c-0.4,0.5-0.8,0.9-1.2,1.3C82.4,53.9,82.8,53.4,83.2,53z"/>
	<path class="st2" d="M71.7,26.8C71.7,26.8,71.7,26.8,71.7,26.8c0.1,0,0.1,0,0.2-0.1C71.8,26.7,71.7,26.8,71.7,26.8z"/>
	<path class="st2" d="M49.5,21.8c0.2,0,0.3-0.1,0.5-0.1C49.9,21.7,49.7,21.8,49.5,21.8z"/>
	<path class="st2" d="M51.8,21.3c0.1,0,0.1,0,0.2,0C52,21.3,51.9,21.3,51.8,21.3z"/>
	<path class="st2" d="M47.6,22.3c0.2-0.1,0.3-0.1,0.5-0.2C48,22.2,47.8,22.3,47.6,22.3z"/>
	<path class="st2" d="M53.6,21c0.2,0,0.4,0,0.6-0.1C54,20.9,53.8,20.9,53.6,21z"/>
	<path class="st2" d="M45.9,22.9C45.9,22.9,45.9,22.9,45.9,22.9c-0.7,0.2-1.4,0.5-2.1,0.8C44.5,23.4,45.2,23.1,45.9,22.9
		C45.9,22.9,45.9,22.9,45.9,22.9z"/>
	<path class="st2" d="M23.6,42.2L23.6,42.2c0.3-0.5,0.6-1,1-1.5C24.2,41.2,23.9,41.7,23.6,42.2z"/>
	<path class="st2" d="M34.9,35.5c1.2-0.3,2.4-0.5,3.7-0.6c0,0,0,0,0,0c0,0,0,0,0,0C37.3,35,36.1,35.2,34.9,35.5z"/>
	<path class="st2" d="M69.6,29.6c-0.6,2.6-1.9,4.3-4,5.1C67.7,34,69,32.2,69.6,29.6c0.2-0.8,0.2-1.6,0.2-2.3
		C69.9,28,69.8,28.8,69.6,29.6z"/>
	<path class="st2" d="M54.9,35c-0.9,0-1.7-0.1-2.6-0.1C53.2,34.9,54.1,35,54.9,35z"/>
	<path class="st2" d="M63.8,21.4c-0.5-0.2-1.1-0.3-1.6-0.4c-0.7-0.1-1.4-0.2-2.1-0.3c0.7,0.1,1.4,0.2,2.1,0.3
		C62.7,21.1,63.3,21.2,63.8,21.4z"/>
	<path class="st2" d="M52.2,34.9c-1.5,0-3-0.1-4.6-0.1C49.2,34.9,50.7,34.9,52.2,34.9z"/>
	<path class="st2" d="M42.8,34.7c0.2,0,0.3,0,0.5,0c-0.1,0-0.1,0-0.2,0C43.1,34.7,42.9,34.7,42.8,34.7z"/>
	<path class="st2" d="M55.6,20.8c0.2,0,0.3,0,0.5,0C55.9,20.7,55.8,20.7,55.6,20.8z"/>
	<path class="st2" d="M41.3,34.8c-0.2,0-0.4,0-0.6,0C40.8,34.8,41.1,34.8,41.3,34.8z"/>
	<path class="st2" d="M60.9,35.2c-0.3,0-0.7,0-1,0C60.2,35.2,60.5,35.2,60.9,35.2z"/>
	<path class="st2" d="M57.9,20.7c0.5,0,1,0,1.4,0.1C58.9,20.7,58.4,20.7,57.9,20.7z"/>
	<path class="st2" d="M69.1,25.1c0.4,0.6,0.6,1.3,0.7,2C69.7,26.4,69.4,25.8,69.1,25.1z"/>
	<path class="st2" d="M58.2,35.1c-0.4,0-0.7,0-1.1,0C57.4,35.1,57.8,35.1,58.2,35.1z"/>
	<path class="st0" d="M23.8,42.4c0.1-0.1,0.1-0.3,0.2-0.4c3-3.3,6.7-5.6,10.8-6.6c1.2-0.3,2.4-0.5,3.7-0.6c0,0,0,0,0,0
		c0.7,0,1.4-0.1,2-0.1c0.2,0,0.4,0,0.6,0c0.5,0,1,0,1.5,0c0.1,0,0.2,0,0.4,0c0.1,0,0.1,0,0.2,0c1.4,0,2.9,0,4.3,0.1
		c1.5,0,3,0.1,4.6,0.1c0,0,0,0,0,0c0,0,0,0,0.1,0c0.9,0,1.7,0,2.6,0.1c0.7,0,1.4,0.1,2.1,0.1c0.4,0,0.7,0,1.1,0c0.6,0,1.1,0,1.7,0.1
		c0.3,0,0.7,0,1,0c0.2,0,0.4,0,0.7,0c0.6,0,1.1,0,1.7,0c0.4,0,0.9-0.1,1.2-0.1c0.4-0.1,0.8-0.2,1.1-0.3c2.1-0.8,3.4-2.5,4-5.1
		c0.2-0.8,0.2-1.6,0.2-2.3c0-0.1,0-0.1,0-0.2c-0.1-0.7-0.3-1.4-0.7-2c-0.3-0.5-0.6-0.9-1-1.3c-1.2-1.2-2.7-2-4.2-2.4
		c-0.5-0.2-1.1-0.3-1.6-0.4c-0.7-0.1-1.4-0.2-2.1-0.3c-0.2,0-0.4,0-0.7,0c-0.5,0-1-0.1-1.4-0.1c0,0-0.1,0-0.1,0
		c-0.6,0-1.2,0-1.7,0.1c-0.2,0-0.3,0-0.5,0c-0.5,0-0.9,0.1-1.4,0.1c-0.2,0-0.4,0-0.6,0.1c-0.5,0.1-1.1,0.2-1.6,0.3
		c-0.1,0-0.1,0-0.2,0c-0.6,0.1-1.2,0.3-1.8,0.4c-0.2,0-0.3,0.1-0.5,0.1c-0.5,0.1-0.9,0.2-1.4,0.4c-0.2,0-0.3,0.1-0.5,0.2
		c-0.6,0.2-1.2,0.4-1.8,0.6c0,0,0,0,0,0c-0.7,0.2-1.4,0.5-2.1,0.8c-3.5,1.5-6.7,3.6-9.6,6.1c-1,0.9-2,1.8-3,2.8c-1,1-1.9,2-2.8,3
		c-1.4,1.6-2.7,3.3-3.9,5.1c-0.3,0.5-0.6,1-1,1.5c0,0,0,0,0,0C23.7,42.3,23.7,42.3,23.8,42.4z M47.1,26.7c4.1-1.4,7.5-2,10.7-2
		c1.2,0,2.5,0.1,3.7,0.3c1.7,0.3,2.9,0.8,3.7,1.7c0.5,0.5,0.8,1,0.6,2.1c-0.5,2.2-1.5,2.4-2.6,2.5c-0.5,0-1.1,0-1.6,0
		c-1.6,0-3.3-0.1-5-0.1c-1.4-0.1-2.8-0.1-4.2-0.1c-1.2,0-2.4-0.1-3.5-0.1c-1.8-0.1-3.7-0.1-5.6-0.1c-1.4,0-2.7,0-3.8,0.1
		C41.9,28.9,44.5,27.6,47.1,26.7z"/>
	<path class="st2" d="M43.9,105.6c-0.5-0.2-0.9-0.4-1.4-0.6C42.9,105.2,43.4,105.4,43.9,105.6z"/>
	<path class="st2" d="M34.4,51.5c0.2,0,0.3,0,0.5-0.1C34.7,51.4,34.5,51.5,34.4,51.5z"/>
	<path class="st2" d="M38.2,57.8c-0.1,0.2-0.3,0.4-0.4,0.5C38,58.1,38.1,57.9,38.2,57.8z"/>
	<path class="st2" d="M36,51.3c0.1,0,0.2,0,0.3,0C36.1,51.3,36.1,51.3,36,51.3z"/>
	<path class="st2" d="M44.6,52L44.6,52c-0.1,0.1-0.2,0.2-0.4,0.3C44.3,52.2,44.4,52.1,44.6,52z"/>
	<path class="st2" d="M53.4,94.4c0.3,0,0.6,0.1,0.9,0.1C54,94.5,53.7,94.4,53.4,94.4z"/>
	<path class="st2" d="M35.9,61.2c-0.5,0.9-1,1.9-1.3,2.9C34.9,63.1,35.4,62.2,35.9,61.2z"/>
	<path class="st2" d="M24.6,55.6c0.2-0.2,0.4-0.4,0.7-0.6C25.1,55.2,24.9,55.4,24.6,55.6z"/>
	<path class="st2" d="M54.7,94.5c0.3,0,0.6,0,0.9,0C55.3,94.6,55,94.5,54.7,94.5z"/>
	<path class="st2" d="M28.9,52.9c0.1-0.1,0.3-0.1,0.4-0.2C29.2,52.8,29.1,52.9,28.9,52.9z"/>
	<path class="st2" d="M32.9,51.7c0.2,0,0.4-0.1,0.5-0.1C33.3,51.6,33.1,51.7,32.9,51.7z"/>
	<path class="st2" d="M30.2,52.4c0.2-0.1,0.3-0.1,0.5-0.2C30.6,52.3,30.4,52.4,30.2,52.4z"/>
	<path class="st2" d="M31.6,52c0.2,0,0.4-0.1,0.5-0.1C31.9,51.9,31.8,52,31.6,52z"/>
	<path class="st2" d="M63.5,93.6C63.5,93.6,63.5,93.6,63.5,93.6C63.5,93.6,63.5,93.6,63.5,93.6z"/>
	<path class="st2" d="M34.6,79c-0.2-0.5-0.3-1.1-0.5-1.7c-0.2-1-0.4-1.9-0.6-2.8c0.1,0.9,0.3,1.9,0.6,2.8
		C34.3,77.9,34.4,78.5,34.6,79z"/>
	<path class="st2" d="M56.5,94.6c-0.2,0-0.3,0-0.5,0c0,0,0.1,0,0.1,0C56.2,94.6,56.3,94.6,56.5,94.6z"/>
	<path class="st2" d="M63.2,93.6c-0.1,0-0.3,0-0.4,0c0,0,0,0,0,0c0,0,0,0,0,0C62.9,93.6,63,93.6,63.2,93.6z"/>
	<path class="st2" d="M33.4,72.3c-0.1-1.6,0-3.2,0.3-4.7C33.4,69.2,33.3,70.7,33.4,72.3z"/>
	<path class="st2" d="M41.8,51.5c-0.9-0.1-1.7-0.1-2.6-0.2c-0.5,0-1.1,0-1.6,0c0.5,0,1.1,0,1.6,0C40.1,51.4,40.9,51.4,41.8,51.5z"/>
	<path class="st2" d="M71.4,99.1c1.1,0.5,2.2,1.1,3.4,1.6C73.6,100.2,72.5,99.7,71.4,99.1z"/>
	<path class="st2" d="M57.6,94.5c0.2,0,0.4,0,0.6,0C57.9,94.5,57.8,94.5,57.6,94.5z"/>
	<path class="st2" d="M59.1,94.4c0.2,0,0.4-0.1,0.6-0.1C59.5,94.3,59.3,94.3,59.1,94.4z"/>
	<path class="st2" d="M60.8,94.1c0.2,0,0.3-0.1,0.5-0.1C61.1,94,60.9,94.1,60.8,94.1z"/>
	<path class="st2" d="M23,57.7c0-0.1,0.1-0.2,0.2-0.3C23.1,57.6,23,57.6,23,57.7z"/>
	<path class="st2" d="M63.8,93.7C63.8,93.7,63.8,93.7,63.8,93.7C63.8,93.7,63.8,93.7,63.8,93.7z"/>
	<path class="st2" d="M51.7,94.1c0.4,0.1,0.9,0.2,1.3,0.2C52.5,94.3,52.1,94.2,51.7,94.1c-6.3-1.5-11.1-4.5-14.3-9.3
		C40.6,89.5,45.4,92.6,51.7,94.1z"/>
	<path class="st2" d="M59.2,107.7c-0.3,0-0.6,0.1-0.9,0.1C58.6,107.7,58.9,107.7,59.2,107.7z"/>
	<path class="st2" d="M57.1,107.8c-0.3,0-0.6,0-0.9,0C56.5,107.8,56.8,107.8,57.1,107.8z"/>
	<path class="st2" d="M52.9,107.7c-0.4,0-0.9-0.1-1.3-0.1C52,107.6,52.5,107.7,52.9,107.7z"/>
	<path class="st2" d="M55.2,107.8c-0.5,0-0.9,0-1.4,0C54.3,107.8,54.8,107.8,55.2,107.8z"/>
	<path class="st2" d="M20.4,67.7c0.1-0.9,0.3-1.9,0.4-2.8C20.6,65.9,20.5,66.8,20.4,67.7z"/>
	<path class="st2" d="M65.5,106.5c-0.3,0.1-0.6,0.2-0.9,0.2C64.9,106.6,65.2,106.6,65.5,106.5z"/>
	<path class="st2" d="M71.8,104.2C71.8,104.1,71.9,104.1,71.8,104.2c0.7-0.3,1.2-0.6,1.8-0.9C73.1,103.5,72.5,103.9,71.8,104.2
		C71.9,104.1,71.8,104.1,71.8,104.2z"/>
	<path class="st2" d="M67.6,105.8c-0.3,0.1-0.6,0.2-0.8,0.3C67.1,106,67.4,105.9,67.6,105.8z"/>
	<path class="st2" d="M63.4,107c-0.3,0.1-0.6,0.1-0.9,0.2C62.8,107.1,63.1,107.1,63.4,107z"/>
	<path class="st2" d="M61.3,107.4c-0.3,0-0.6,0.1-0.9,0.1C60.7,107.5,61,107.5,61.3,107.4z"/>
	<path class="st2" d="M30.9,97.5c-0.5-0.5-1-1-1.5-1.5C29.9,96.5,30.4,97,30.9,97.5z"/>
	<path class="st2" d="M50.6,107.4c-0.4-0.1-0.9-0.1-1.3-0.2C49.8,107.3,50.2,107.3,50.6,107.4z"/>
	<path class="st2" d="M20.4,67.7c-0.3,3.1-0.3,6.2,0.2,9.3c0.7,4.8,2.2,9.1,4.4,13c-2.2-3.9-3.7-8.2-4.4-13
		C20.1,73.9,20,70.8,20.4,67.7z"/>
	<path class="st2" d="M76.8,101.4L76.8,101.4c-0.2,0.1-0.4,0.2-0.7,0.4C76.3,101.7,76.5,101.6,76.8,101.4z"/>
	<path class="st2" d="M39.4,103.6c-0.7-0.4-1.4-0.8-2.2-1.2C38,102.8,38.7,103.2,39.4,103.6z"/>
	<path class="st2" d="M41.6,104.7c-0.5-0.2-1-0.5-1.5-0.7C40.6,104.2,41.1,104.4,41.6,104.7z"/>
	<path class="st2" d="M46.1,106.3c-0.4-0.1-0.9-0.3-1.3-0.4C45.2,106.1,45.7,106.2,46.1,106.3z"/>
	<path class="st2" d="M69.8,105c-0.2,0.1-0.5,0.2-0.7,0.3C69.3,105.2,69.5,105.1,69.8,105z"/>
	<path class="st2" d="M48.4,107c-0.4-0.1-0.9-0.2-1.3-0.3C47.5,106.7,47.9,106.9,48.4,107z"/>
	<path class="st0" d="M74.8,100.7c-1.2-0.5-2.4-1-3.4-1.6c-0.5-0.3-1-0.6-1.5-0.9c-2-1.2-3.8-2.6-5.8-4.4c-0.1-0.1-0.1-0.1-0.2-0.1
		c0,0,0,0-0.1,0c-0.1,0-0.2,0-0.3-0.1c0,0,0,0,0,0c-0.1,0-0.2,0-0.3,0c0,0,0,0,0,0c-0.1,0-0.3,0-0.4,0c0,0,0,0,0,0
		c-0.5,0.1-1,0.3-1.5,0.4c-0.2,0-0.3,0.1-0.5,0.1c-0.4,0.1-0.7,0.1-1.1,0.2c-0.2,0-0.4,0.1-0.6,0.1c-0.3,0-0.7,0.1-1,0.1
		c-0.2,0-0.4,0-0.6,0c-0.4,0-0.7,0-1.1,0c-0.1,0-0.2,0-0.4,0c0,0-0.1,0-0.1,0c-0.1,0-0.2,0-0.4,0c-0.3,0-0.6,0-0.9,0
		c-0.1,0-0.3,0-0.4,0c-0.3,0-0.6-0.1-0.9-0.1c-0.1,0-0.3,0-0.4-0.1c-0.4-0.1-0.9-0.1-1.3-0.2c-6.3-1.5-11.1-4.5-14.3-9.3
		c-0.3-0.4-0.6-0.9-0.8-1.3c-0.8-1.4-1.4-2.9-2-4.5c-0.2-0.5-0.3-1.1-0.5-1.7c-0.2-1-0.4-1.9-0.6-2.8c-0.1-0.7-0.2-1.5-0.2-2.2
		c-0.1-1.6,0-3.2,0.3-4.7c0.2-1.2,0.5-2.4,0.9-3.5c0.4-1,0.8-2,1.3-2.9c0.6-1,1.2-2,1.9-2.9c0.1-0.2,0.3-0.4,0.4-0.5
		c1-1.2,2.2-2.4,3.5-3.6c0.8-0.7,1.7-1.3,2.5-1.9c0.1-0.1,0.2-0.2,0.4-0.3l0,0c0-0.1,0-0.2-0.1-0.3c-0.9-0.1-1.8-0.1-2.7-0.2
		c-0.9-0.1-1.7-0.1-2.6-0.2c-0.5,0-1.1,0-1.6,0c0,0,0,0-0.1,0c-0.4,0-0.9,0-1.3,0c-0.1,0-0.2,0-0.3,0c-0.4,0-0.7,0-1.1,0.1
		c-0.2,0-0.3,0-0.5,0.1c-0.3,0-0.6,0.1-0.9,0.1c-0.2,0-0.4,0.1-0.5,0.1c-0.3,0.1-0.6,0.1-0.8,0.2c-0.2,0-0.4,0.1-0.5,0.1
		c-0.3,0.1-0.6,0.2-0.8,0.2c-0.2,0.1-0.3,0.1-0.5,0.2c-0.3,0.1-0.6,0.2-0.9,0.3c-0.1,0.1-0.3,0.1-0.4,0.2c-0.4,0.2-0.9,0.4-1.3,0.6
		c-0.8,0.4-1.6,0.9-2.3,1.5c-0.2,0.2-0.5,0.4-0.7,0.6c-0.6,0.5-1.1,1.2-1.5,1.9c-0.1,0.1-0.1,0.2-0.2,0.3c-0.1,0.3-0.3,0.6-0.4,0.9
		c-0.8,2.1-1.4,4.2-1.8,6.3c-0.2,0.9-0.3,1.8-0.4,2.8c-0.3,3.1-0.3,6.2,0.2,9.3c0.7,4.8,2.2,9.1,4.4,13c0.3,0.6,0.6,1.1,1,1.6
		c1,1.5,2.1,3,3.4,4.3c0.5,0.5,1,1,1.5,1.5c1.9,1.8,4,3.4,6.3,4.8c0,0,0,0,0,0c0.7,0.4,1.4,0.8,2.2,1.2c0.2,0.1,0.5,0.2,0.7,0.4
		c0.5,0.3,1,0.5,1.5,0.7c0.3,0.1,0.6,0.2,0.9,0.4c0.5,0.2,0.9,0.4,1.4,0.6c0.3,0.1,0.6,0.2,0.9,0.3c0.4,0.2,0.9,0.3,1.3,0.4
		c0.3,0.1,0.6,0.2,1,0.3c0.4,0.1,0.9,0.2,1.3,0.3c0.3,0.1,0.6,0.1,1,0.2c0.4,0.1,0.9,0.2,1.3,0.2c0.3,0.1,0.6,0.1,1,0.1
		c0.4,0.1,0.9,0.1,1.3,0.1c0.3,0,0.6,0.1,1,0.1c0.5,0,0.9,0,1.4,0c0.2,0,0.4,0,0.7,0c0.1,0,0.2,0,0.3,0c0.3,0,0.6,0,0.9,0
		c0.4,0,0.8,0,1.2-0.1c0.3,0,0.6-0.1,0.9-0.1c0.4,0,0.8-0.1,1.2-0.1c0.3,0,0.6-0.1,0.9-0.1c0.4-0.1,0.8-0.1,1.2-0.2
		c0.3-0.1,0.6-0.1,0.9-0.2c0.4-0.1,0.8-0.2,1.2-0.3c0.3-0.1,0.6-0.1,0.9-0.2c0.4-0.1,0.8-0.3,1.3-0.4c0.3-0.1,0.6-0.2,0.8-0.3
		c0.5-0.2,0.9-0.3,1.4-0.5c0.2-0.1,0.5-0.2,0.7-0.3c0.7-0.3,1.4-0.6,2.1-0.9c0,0,0,0,0.1,0c0.6-0.3,1.2-0.6,1.8-0.9
		c0.8-0.4,1.6-0.9,2.5-1.4c0.2-0.1,0.4-0.2,0.7-0.4l0,0C76.1,101.2,75.4,100.9,74.8,100.7z M55.9,103.8c-5.6,0-11.2-1.7-16.6-4.9
		C31,93.8,26,86.3,24.5,76.4c-0.8-5.4-0.2-11,1.8-16.4c0.4-1.2,1.3-2,3.2-3c1.6-0.9,3.4-1.4,5.5-1.6c-5.3,6.6-6.9,14.4-4.7,22.9
		C32.9,88.7,40,95.5,50.8,98c1.7,0.4,3.5,0.6,5.3,0.6c2.1,0,4.2-0.3,6.4-0.8c1.7,1.5,3.3,2.7,5.1,3.8
		C63.6,103.1,59.7,103.8,55.9,103.8z"/>
	<path class="st2" d="M54.5,92.2c-0.5,0-1-0.1-1.5-0.2C53.5,92.1,54,92.1,54.5,92.2z"/>
	<path class="st2" d="M56,92.2c-0.5,0-1,0-1.5-0.1C55,92.2,55.5,92.2,56,92.2z"/>
	<path class="st2" d="M52.7,91.9c-0.5-0.1-0.9-0.2-1.4-0.3C51.8,91.8,52.3,91.9,52.7,91.9z"/>
	<path class="st2" d="M61.1,91.6c-0.5,0.1-1,0.2-1.5,0.3C60.1,91.9,60.6,91.8,61.1,91.6z"/>
	<path class="st2" d="M51.1,91.6c-0.4-0.1-0.9-0.2-1.3-0.4C50.3,91.4,50.7,91.5,51.1,91.6z"/>
	<path class="st2" d="M59.4,92c-0.5,0.1-0.9,0.1-1.4,0.2C58.5,92.1,58.9,92.1,59.4,92z"/>
	<path class="st2" d="M57.8,92.2c-0.5,0-1,0.1-1.5,0.1C56.8,92.2,57.3,92.2,57.8,92.2z"/>
	<path class="st2" d="M36,75.5c0.1,0.6,0.3,1.2,0.4,1.8c0.1,0.5,0.3,1,0.5,1.5c-0.2-0.5-0.3-1-0.5-1.5C36.3,76.7,36.1,76.1,36,75.5z
		"/>
	<path class="st2" d="M35.7,71.9c0-1.2,0.1-2.4,0.3-3.6C35.8,69.5,35.7,70.7,35.7,71.9z"/>
	<path class="st2" d="M55.3,65c0.2-0.4,0.4-0.8,0.6-1.2C55.7,64.2,55.5,64.6,55.3,65L55.3,65z"/>
	<path class="st2" d="M36,68.3c0.4-2.3,1.2-4.6,2.4-6.7C37.2,63.7,36.4,66,36,68.3z"/>
	<path class="st2" d="M37.6,80.5c-0.2-0.5-0.4-0.9-0.6-1.4C37.2,79.5,37.4,80,37.6,80.5z"/>
	<path class="st2" d="M36,75.5c-0.2-1.2-0.3-2.4-0.3-3.6C35.7,73.1,35.8,74.3,36,75.5z"/>
	<path class="st2" d="M48.7,53c0.2,0,0.4,0,0.6,0.1C49.2,53,48.9,53,48.7,53z"/>
	<path class="st2" d="M39.9,59.3c0.5-0.7,1-1.3,1.6-1.9C41,58,40.4,58.7,39.9,59.3z"/>
	<path class="st2" d="M49.6,91.2c-0.4-0.2-0.9-0.3-1.3-0.5C48.7,90.8,49.2,91,49.6,91.2z"/>
	<path class="st2" d="M48,53.1c-0.2,0-0.4,0.1-0.5,0.2c-2.2,1-4.2,2.4-5.9,4.1c1.7-1.7,3.6-3.1,5.9-4.1C47.6,53.2,47.8,53.1,48,53.1
		z"/>
	<path class="st2" d="M48.1,53c0.1,0,0.3,0,0.4,0C48.4,53,48.3,53,48.1,53z"/>
	<path class="st2" d="M42.6,87.1c-0.4-0.3-0.7-0.6-1-1C41.9,86.5,42.2,86.8,42.6,87.1z"/>
	<path class="st2" d="M46.7,89.9c-0.4-0.2-0.8-0.5-1.3-0.7C45.8,89.4,46.3,89.7,46.7,89.9z"/>
	<path class="st2" d="M61.3,58.1C61.3,58.1,61.3,58.1,61.3,58.1c-0.1-0.1-0.2-0.2-0.2-0.3c-3.4-1.8-6.9-3.3-10.5-4.4
		c3.6,1.1,7.1,2.6,10.5,4.4C61.2,57.9,61.2,58,61.3,58.1z"/>
	<path class="st2" d="M38.4,81.9c-0.2-0.4-0.4-0.8-0.6-1.2C37.9,81.1,38.2,81.5,38.4,81.9z"/>
	<path class="st2" d="M43.8,88.1c-0.3-0.3-0.7-0.5-1-0.8C43.1,87.5,43.5,87.8,43.8,88.1z"/>
	<path class="st2" d="M48,90.5c-0.4-0.2-0.9-0.4-1.3-0.6C47.1,90.1,47.6,90.3,48,90.5z"/>
	<path class="st2" d="M40.4,84.8c-0.3-0.4-0.6-0.8-0.9-1.2C39.8,84,40.1,84.4,40.4,84.8z"/>
	<path class="st2" d="M41.3,85.9c-0.3-0.3-0.7-0.7-1-1.1C40.7,85.2,41,85.5,41.3,85.9z"/>
	<path class="st2" d="M39.3,83.3c-0.3-0.4-0.5-0.8-0.8-1.2C38.7,82.5,39,82.9,39.3,83.3z"/>
	<path class="st2" d="M45.2,89c-0.4-0.3-0.8-0.5-1.2-0.8C44.4,88.5,44.8,88.8,45.2,89z"/>
	<path class="st2" d="M90,95.9c-0.3,0.2-0.6,0.4-0.9,0.5C89.4,96.3,89.7,96.1,90,95.9z"/>
	<path class="st2" d="M92.8,93.9c-0.4,0.3-0.8,0.6-1.2,0.9C92,94.5,92.4,94.2,92.8,93.9z"/>
	<path class="st2" d="M70.2,90.6L70.2,90.6c1,2.1,2.6,4,4.7,5.5C72.8,94.6,71.2,92.7,70.2,90.6z"/>
	<path class="st2" d="M91.2,95.1c-0.3,0.2-0.6,0.4-0.9,0.6C90.7,95.5,91,95.3,91.2,95.1z"/>
	<path class="st2" d="M100.9,68.1c0.4-0.7,0.8-1.4,1.2-2.2c0,0,0,0,0,0C101.8,66.7,101.3,67.4,100.9,68.1
		C100.9,68.1,100.9,68.1,100.9,68.1z"/>
	<path class="st2" d="M101.4,39c-2.1-3.4-4.9-6.3-8.1-8.9c-0.7-0.6-1.5-1.1-2.2-1.6c0,0,0,0,0,0c0.7,0.5,1.5,1,2.2,1.6
		C96.5,32.7,99.3,35.6,101.4,39z"/>
	<path class="st2" d="M98.2,41.6c-0.1-0.9-0.3-1.8-0.5-2.6C97.9,39.8,98.1,40.7,98.2,41.6z"/>
	<path class="st2" d="M94.4,57c-0.9,1.4-1.9,2.8-3,4.1v0C92.5,59.7,93.5,58.4,94.4,57z"/>
	<path class="st2" d="M105.5,53.3c0,4.3-1.2,8.5-3.3,12.6C104.3,61.8,105.4,57.6,105.5,53.3z"/>
	<path class="st2" d="M98.4,45.6c0-0.1,0-0.2,0-0.3C98.4,45.3,98.4,45.4,98.4,45.6z"/>
	<path class="st2" d="M76.8,97.3c-0.1,0-0.2-0.1-0.3-0.1C76.6,97.3,76.7,97.3,76.8,97.3z"/>
	<path class="st2" d="M77.8,97.8c-0.1,0-0.2-0.1-0.2-0.1C77.6,97.7,77.7,97.7,77.8,97.8z"/>
	<path class="st2" d="M78.9,98.2c-0.1,0-0.1,0-0.2,0C78.8,98.1,78.8,98.1,78.9,98.2z"/>
	<path class="st2" d="M97.5,50.2c0.2-0.7,0.3-1.3,0.5-2C97.9,48.9,97.7,49.6,97.5,50.2z"/>
	<path class="st2" d="M80,98.4c-0.1,0-0.2,0-0.3-0.1C79.8,98.3,79.9,98.4,80,98.4z"/>
	<path class="st2" d="M92.8,93.9L92.8,93.9c-1.2-0.9-2-1.8-2.6-2.8l0,0C90.8,92.1,91.6,93,92.8,93.9z"/>
	<path class="st2" d="M85.8,97.9c-0.3,0.1-0.6,0.2-0.9,0.3C85.2,98.1,85.5,98,85.8,97.9z"/>
	<path class="st2" d="M87.2,97.4c-0.3,0.1-0.7,0.3-1,0.4C86.5,97.6,86.9,97.5,87.2,97.4z"/>
	<path class="st2" d="M80.9,98.5c-0.1,0-0.1,0-0.1,0C80.8,98.5,80.9,98.5,80.9,98.5z"/>
	<path class="st2" d="M88.7,96.7c-0.4,0.2-0.8,0.4-1.3,0.6C87.9,97.1,88.3,96.9,88.7,96.7z"/>
	<path class="st2" d="M83.2,98.5c-0.4,0-0.9,0.1-1.3,0.1C82.3,98.5,82.7,98.5,83.2,98.5z"/>
	<path class="st2" d="M84.5,98.2c-0.4,0.1-0.7,0.1-1.1,0.2C83.7,98.4,84.1,98.3,84.5,98.2z"/>
	<path class="st2" d="M97.7,38.9c-0.2-0.6-0.4-1.1-0.6-1.7C97.3,37.8,97.5,38.3,97.7,38.9z"/>
	<path class="st2" d="M90.7,67.7l0,0.4c0.1-0.2,0.1-0.4,0.2-0.6C90.8,67.6,90.7,67.6,90.7,67.7z"/>
	<path class="st2" d="M94.4,92.8c-0.2,0-0.4-0.1-0.6-0.2C94,92.7,94.2,92.8,94.4,92.8z"/>
	<path class="st2" d="M106,48.7L106,48.7c0,0,0.1,0,0.1,0C106,48.7,106,48.7,106,48.7z"/>
	<path class="st2" d="M106.3,48.6L106.3,48.6c0.6,2.8,1.4,5.5,1.8,8.3C107.7,54.1,106.9,51.4,106.3,48.6z"/>
	<path class="st2" d="M108.8,71.2c-0.2,1.8-0.5,3.5-0.9,5.3C108.3,74.8,108.6,73,108.8,71.2z"/>
	<path class="st2" d="M101.8,89c0.1-0.2,0.3-0.3,0.4-0.5c2.2-3,3.8-6.1,5-9.4c-1.1,3.3-2.8,6.5-5,9.4
		C102.1,88.7,101.9,88.8,101.8,89z"/>
	<path class="st2" d="M95.3,92.9c-0.3,0-0.5,0-0.8-0.1C94.8,92.9,95.1,92.9,95.3,92.9z"/>
	<path class="st2" d="M92.2,91.6c-0.1-0.1-0.3-0.3-0.4-0.5C91.9,91.3,92,91.5,92.2,91.6z"/>
	<path class="st2" d="M103.4,66.5c0.5-1,0.9-2,1.3-3C104.3,64.6,103.9,65.6,103.4,66.5z"/>
	<path class="st2" d="M92.9,92.2c-0.2-0.1-0.4-0.3-0.6-0.4C92.5,91.9,92.7,92.1,92.9,92.2z"/>
	<path class="st2" d="M93.6,92.6c-0.2-0.1-0.5-0.2-0.7-0.3C93.2,92.4,93.4,92.5,93.6,92.6z"/>
	<path class="st2" d="M103.4,66.5c-0.7,1.3-1.4,2.5-2.2,3.8v0C101.9,69.1,102.7,67.8,103.4,66.5z"/>
	<path class="st2" d="M106.6,54c0,1.1-0.1,2.2-0.2,3.3C106.5,56.2,106.6,55.1,106.6,54z"/>
	<path class="st2" d="M97.5,92.4c-0.2,0.1-0.3,0.1-0.5,0.2C97.2,92.6,97.4,92.5,97.5,92.4z"/>
	<path class="st2" d="M96.8,92.7c-0.2,0-0.3,0.1-0.5,0.1C96.4,92.8,96.6,92.8,96.8,92.7z"/>
	<path class="st2" d="M106,49.2c0,0.1,0,0.3,0.1,0.4c0.2,1,0.3,1.9,0.4,2.9c-0.1-1-0.2-1.9-0.4-2.9C106.1,49.5,106.1,49.3,106,49.2z
		"/>
	<path class="st2" d="M91.6,90.9c0,0,0.1,0.1,0.1,0.1C91.6,91,91.6,91,91.6,90.9L91.6,90.9z"/>
	<path class="st2" d="M97.8,92.3c0.2-0.1,0.5-0.3,0.7-0.4c0.3-0.2,0.7-0.5,1-0.7c-0.3,0.3-0.7,0.5-1,0.7
		C98.2,92.1,98,92.2,97.8,92.3z"/>
	<path class="st2" d="M108.9,68.5c0-0.5,0-0.9,0-1.4C108.9,67.6,108.9,68.1,108.9,68.5L108.9,68.5z"/>
	<path class="st2" d="M108.3,58c0.2,1.6,0.4,3.1,0.5,4.7C108.6,61.2,108.5,59.6,108.3,58z"/>
	<path class="st2" d="M96,92.9c-0.2,0-0.3,0-0.5,0C95.7,92.9,95.9,92.9,96,92.9z"/>
	<path class="st0" d="M108.9,67.1c0-1.5-0.1-2.9-0.2-4.4c-0.1-1.6-0.3-3.2-0.5-4.7c0-0.2,0-0.4-0.1-0.6c0-0.2-0.1-0.4-0.1-0.5
		c-0.4-2.8-1.2-5.5-1.8-8.3c0,0,0,0,0,0c-0.1,0-0.2,0-0.3,0.1c0,0-0.1,0-0.1,0l0,0c0,0.1,0,0.3,0.1,0.4s0,0.3,0.1,0.4
		c0.2,1,0.3,1.9,0.4,2.9c0,0.5,0.1,1,0.1,1.4c0,1.1-0.1,2.2-0.2,3.3c-0.2,1.3-0.4,2.6-0.8,3.9c-0.2,0.8-0.5,1.6-0.8,2.4
		c-0.4,1-0.8,2-1.3,3c-0.7,1.3-1.4,2.5-2.2,3.8v0c0-0.4,0-0.7,0-1c0-0.4-0.1-0.8-0.2-1.2c0,0,0,0,0,0c0.4-0.7,0.8-1.4,1.2-2.2l0,0
		c0,0,0,0,0,0c2.1-4.1,3.3-8.3,3.3-12.6c0-3.3-0.6-6.7-2-10.1c-0.6-1.5-1.3-2.9-2.1-4.2c-2.1-3.4-4.9-6.3-8.1-8.9
		c-0.7-0.6-1.5-1.1-2.2-1.6l0,0c0,0.3,0.1,0.5,0.3,0.6c2.7,2.4,4.6,5.2,5.7,8.1c0.2,0.6,0.4,1.1,0.6,1.7c0,0,0,0,0,0
		c0.3,0.9,0.4,1.7,0.5,2.6c0.2,1.2,0.2,2.4,0.2,3.7c0,0.1,0,0.2,0,0.3c-0.1,0.9-0.2,1.8-0.4,2.7c-0.1,0.6-0.3,1.3-0.5,2
		c-0.3,1.1-0.7,2.2-1.3,3.3c-0.5,1.2-1.2,2.3-1.8,3.4c-0.9,1.4-1.9,2.8-3,4.1v0c0,0,0,0,0-0.1c-1-1.6-2.8-2.6-4.7-2.6
		c-0.9,0-1.9,0.2-2.6,0.7c-1.8,1-3,3.2-2.6,5.7c-0.2,0.3-0.3,0.5-0.5,0.8l-1.9-6.7c0.6-0.9,1.1-2,1.2-3.3c0,0,0,0,0,0
		c0.6-0.4,1.1-0.9,1.6-1.4c0,0,0,0,0,0c0.4-0.4,0.8-0.9,1.2-1.3c1.2-1.5,2.1-3.2,2.7-4.9c0.2-0.7,0.4-1.4,0.6-2.1
		c0.2-0.9,0.3-1.9,0.3-2.8c0-1.2-0.1-2.3-0.4-3.5c-0.2-0.9-0.5-1.7-0.8-2.5c-0.7-1.6-1.8-3.2-3.2-4.5c-3-2.8-6.5-4.6-10.4-5.9
		c0,0,0,0,0,0c0,0-0.1,0-0.1,0c-0.1,0-0.1,0-0.2,0.1l0,0c0,0.4,0,0.7,0,1v0c0,0.2,0,0.5,0,0.8c0,0.3,0,0.5-0.1,0.8
		c-0.1,0.7-0.3,1.4-0.5,2c-0.9,2.6-3.1,4.9-6.4,5.6c-0.3,0.1-0.7,0.1-1,0.2c0,0,0,0,0,0c-0.6,0.1-1.1,0.1-1.7,0.1
		c-0.2,0-0.4,0-0.6,0c-0.4,0-0.7,0-1.1,0c-0.1,0-0.1,0-0.2,0c-0.1,0-0.2,0-0.4,0c-0.5,0-1,0-1.5,0c-0.2,0-0.3,0-0.5,0
		c-0.6,0-1.3-0.1-1.9-0.1c-0.2,0-0.4,0-0.5,0c-0.5,0-1-0.1-1.5-0.1c-0.8-0.1-1.6-0.1-2.4-0.2c-1-0.1-2-0.2-3-0.2c-0.2,0-0.3,0-0.5,0
		c-0.3,0-0.6,0-1,0c-0.3,0-0.5,0-0.8,0c-0.3,0-0.6,0-0.9,0c-0.3,0-0.5,0-0.8,0c0,0,0,0,0,0c-0.4,0-0.7,0-1.1,0c-0.2,0-0.5,0-0.7,0
		c-0.4,0-0.7,0-1.1,0.1c-0.2,0-0.4,0-0.7,0c-0.4,0-0.8,0.1-1.2,0.1c-0.2,0-0.4,0-0.6,0.1c-0.6,0.1-1.2,0.2-1.8,0.3
		c-4.4,0.9-8.3,2.6-11.6,5.3c-0.6,0.5-1.2,1-1.7,1.6c-0.8,0.9-1.6,1.8-2.3,2.9c-0.7,1-1.2,2-1.7,3C19,52.4,18.3,55.2,18,58
		c-0.1,0.6-0.1,1.1-0.1,1.7c0,0.2,0,0.4,0,0.6c-0.1,1.4-0.1,2.8,0,4.1c0.1,1.6,0.4,3.2,0.8,4.8c0,0,0,0,0,0c0-0.6,0-1.2,0.1-1.8
		c0-0.5,0-0.9,0-1.4c0-0.2,0-0.3,0-0.5c0.1-0.7,0.1-1.3,0.2-1.9c0.1-0.4,0.1-0.8,0.2-1.2c0.5-2.4,1.5-4.6,3.1-6.5
		c0.4-0.4,0.8-0.9,1.2-1.3c0.2-0.2,0.5-0.4,0.7-0.6c0.5-0.4,1-0.8,1.6-1.2c0.5-0.3,1-0.6,1.5-0.8c0.2-0.1,0.3-0.2,0.5-0.2
		c0.3-0.2,0.7-0.3,1-0.5c0.2-0.1,0.4-0.1,0.6-0.2c0.3-0.1,0.6-0.2,0.9-0.3c0.2-0.1,0.4-0.1,0.7-0.2c0.3-0.1,0.6-0.2,0.9-0.2
		c0.2-0.1,0.5-0.1,0.7-0.1c0.3-0.1,0.6-0.1,0.9-0.2c0.2,0,0.5-0.1,0.7-0.1c0.3,0,0.6-0.1,0.9-0.1c0.2,0,0.5,0,0.7-0.1
		c0.3,0,0.6,0,0.9-0.1c0.2,0,0.5,0,0.7,0c0.2,0,0.4,0,0.5,0c0.2,0,0.4,0,0.7,0c0.8,0,1.5,0,2.3,0.1c5.3,0.4,10.3,1.8,15.2,3.9
		c1,0.4,1.9,0.9,2.9,1.3c1.8,0.8,3.5,1.7,5.3,2.4c0,0,0,0,0,0c0.5,0.2,1.1,0.4,1.6,0.5c0.2,0.1,0.4,0.1,0.5,0.1
		c0.4,0.1,0.8,0.2,1.1,0.3c0.2,0,0.4,0.1,0.7,0.1c0,0,0,0,0,0c0.1,0.1,0.1,0.3,0.2,0.4c-0.5,1.9-1,3.8-1.6,5.7
		c0.4-2.3-0.7-4.3-2.3-5.3c-0.9-0.6-1.9-0.9-3.1-0.9c-0.3,0-0.5,0-0.8,0.1c0.2-0.1,0.3-0.3,0.5-0.4l0,0c-0.1-0.1-0.2-0.2-0.2-0.3
		c-3.4-1.8-6.9-3.3-10.5-4.4c-0.4-0.1-0.8-0.3-1.2-0.4c0,0,0,0,0,0c-0.2,0-0.4-0.1-0.6-0.1c0,0,0,0-0.1,0c0,0-0.1,0-0.1,0
		c-0.1,0-0.3,0-0.4,0c-0.1,0-0.1,0-0.2,0c-0.2,0-0.4,0.1-0.5,0.2c-2.2,1-4.2,2.4-5.9,4.1c-0.6,0.6-1.1,1.3-1.6,1.9
		c-0.6,0.7-1.1,1.5-1.5,2.3c-1.2,2.1-2,4.3-2.4,6.7c-0.2,1.2-0.3,2.4-0.3,3.6s0.1,2.4,0.3,3.6c0.1,0.6,0.3,1.2,0.4,1.8
		c0.1,0.5,0.3,1,0.5,1.5c0,0.1,0.1,0.2,0.1,0.3c0.2,0.5,0.4,0.9,0.6,1.4c0,0.1,0.1,0.2,0.1,0.2c0.2,0.4,0.4,0.8,0.6,1.2
		c0,0.1,0.1,0.1,0.1,0.2c0.2,0.4,0.5,0.8,0.8,1.2c0.1,0.1,0.1,0.2,0.2,0.3c0.3,0.4,0.6,0.8,0.9,1.2c0,0,0,0,0,0
		c0.3,0.4,0.6,0.7,1,1.1c0.1,0.1,0.1,0.2,0.2,0.2c0.3,0.3,0.7,0.7,1,1c0.1,0.1,0.1,0.1,0.2,0.2c0.3,0.3,0.7,0.6,1,0.8
		c0.1,0,0.1,0.1,0.2,0.1c0.4,0.3,0.8,0.5,1.2,0.8c0.1,0.1,0.2,0.1,0.3,0.2c0.4,0.3,0.8,0.5,1.3,0.7c0,0,0,0,0,0
		c0.4,0.2,0.9,0.4,1.3,0.6c0.1,0,0.2,0.1,0.3,0.1c0.4,0.2,0.9,0.4,1.3,0.5c0.1,0,0.2,0,0.2,0.1c0.4,0.1,0.8,0.3,1.3,0.4
		c0.1,0,0.1,0,0.2,0.1c0.5,0.1,0.9,0.2,1.4,0.3c0.1,0,0.2,0,0.3,0c0.5,0.1,1,0.1,1.5,0.2c0,0,0,0,0,0c0.5,0,1,0.1,1.5,0.1
		c0.1,0,0.1,0,0.2,0c0,0,0.1,0,0.1,0c0.5,0,1,0,1.5-0.1c0.1,0,0.2,0,0.2,0c0.5,0,0.9-0.1,1.4-0.2c0.1,0,0.1,0,0.2,0
		c0.5-0.1,1-0.2,1.5-0.3c0.1,0,0.1,0,0.2,0c0.5-0.1,1-0.2,1.5-0.2c0.4-0.1,0.9-0.1,1.3-0.2c1.2-0.2,2.4-0.3,3.4-0.4
		c0.9,0,1.8-0.1,2.6-0.2h0c1,2.1,2.6,4,4.7,5.5c0.3,0.2,0.5,0.4,0.8,0.6c0.3,0.2,0.6,0.4,0.9,0.5c0.1,0,0.2,0.1,0.3,0.1
		c0.2,0.1,0.5,0.2,0.7,0.3c0.1,0,0.2,0.1,0.2,0.1c0.3,0.1,0.6,0.2,0.9,0.3c0.1,0,0.1,0,0.2,0c0.3,0.1,0.5,0.1,0.8,0.2
		c0.1,0,0.2,0,0.3,0.1c0.3,0,0.6,0.1,0.8,0.1c0.1,0,0.1,0,0.1,0c0.3,0,0.6,0,0.8,0c0,0,0.1,0,0.1,0c0.4,0,0.9,0,1.3-0.1
		c0.1,0,0.1,0,0.2,0c0.4,0,0.7-0.1,1.1-0.2c0.1,0,0.3-0.1,0.4-0.1c0.3-0.1,0.6-0.2,0.9-0.3c0.1,0,0.3-0.1,0.4-0.1
		c0.3-0.1,0.7-0.3,1-0.4c0.1,0,0.2-0.1,0.2-0.1c0.4-0.2,0.8-0.4,1.3-0.6c0.1-0.1,0.2-0.1,0.3-0.2c0.3-0.2,0.6-0.4,0.9-0.5
		c0.1-0.1,0.3-0.2,0.4-0.3c0.3-0.2,0.6-0.4,0.9-0.6c0.1-0.1,0.2-0.2,0.4-0.3c0.4-0.3,0.8-0.6,1.2-0.9c0,0,0,0,0,0l0,0
		c-1.2-0.9-2-1.8-2.6-2.8l0,0h1.3l0.1-0.2l0,0c0,0,0.1,0.1,0.1,0.1c0,0,0.1,0.1,0.1,0.1c0.1,0.2,0.3,0.3,0.4,0.5
		c0.1,0.1,0.1,0.1,0.2,0.2c0.2,0.2,0.4,0.3,0.6,0.4c0,0,0,0,0.1,0c0.2,0.1,0.4,0.2,0.7,0.3c0.1,0,0.1,0,0.2,0.1
		c0.2,0.1,0.4,0.1,0.6,0.2c0.1,0,0.1,0,0.2,0c0.2,0,0.5,0.1,0.8,0.1c0,0,0,0,0,0c0.1,0,0.1,0,0.2,0c0.2,0,0.3,0,0.5,0
		c0.1,0,0.2,0,0.3,0c0.2,0,0.3-0.1,0.5-0.1c0.1,0,0.2-0.1,0.3-0.1c0.2-0.1,0.3-0.1,0.5-0.2c0.1,0,0.2-0.1,0.2-0.1
		c0.2-0.1,0.5-0.3,0.7-0.4c0.3-0.2,0.7-0.5,1-0.7c0.8-0.6,1.6-1.4,2.3-2.2c0.1-0.2,0.3-0.3,0.4-0.5c2.2-3,3.8-6.1,5-9.4
		c0.3-0.8,0.5-1.7,0.7-2.5c0.4-1.7,0.7-3.5,0.9-5.3c0.1-0.9,0.1-1.8,0.1-2.7v0C108.9,68.1,108.9,67.6,108.9,67.1z M99.9,55.2
		c0.6-1.4,1.1-2.7,1.5-4.1c0.4,4.3-0.5,8.6-2.8,13c-0.1,0.2-0.3,0.5-0.4,0.7c-0.7-0.4-1.5-0.6-2.4-0.6h0h0c-0.5,0-1.3,0.1-2.1,0.4
		C96.4,61.6,98.4,58.5,99.9,55.2z M90.7,67.7c0.1-0.1,0.1-0.1,0.2-0.2c-0.1,0.2-0.1,0.4-0.2,0.6L90.7,67.7z M61.4,51.9
		c-1.2-0.6-2.4-1.2-3.7-1.7c-6.4-2.7-12.8-4.2-19-4.3c-0.2,0-0.5,0-0.7,0c-4.8,0-8.9,0.9-12.5,2.7c2.9-4,6.9-6.5,12.7-7.6
		c1.9-0.4,4-0.6,6.3-0.6c2.1,0,4.1,0.1,6.6,0.3c0.6,0,1.1,0.1,1.7,0.1c2.4,0.2,4.8,0.4,7.4,0.4c1.4,0,2.7-0.1,4-0.2
		c5.7-0.6,9.4-4.4,10.8-8.7c1.8,0.9,3.3,2,4.6,3.2c3.3,3.1,3.3,7,3,9c-0.4,2.7-1.7,5.2-3.6,7c-0.2-0.3-0.4-0.6-0.7-0.8
		c-1.2-1.2-2.8-1.8-4.5-1.8c-2,0-3.9,0.9-5,2.3c-0.7,0.9-1.2,2-1.3,3.1c-0.6-0.1-1.1-0.3-1.6-0.5C64.3,53.2,62.9,52.6,61.4,51.9z
		 M61.6,62.4c0.1,0,0.2,0,0.4,0c0,0,0.1,0,0.1,0c0.1,0,0.2,0.1,0.3,0.2c0,0,0,0,0,0c0.2,0.1,0.3,0.2,0.4,0.4c0.3,0.5,0.3,1.1-0.2,2
		c0,0.1-0.1,0.2-0.1,0.3c0,0,0,0,0,0c1.8,3.3,3.7,6.6,5.6,10.1v0c0.8-3,1.6-5.9,2.4-8.8c0.8-2.9,1.6-5.8,2.4-8.6c0,0,0,0,0,0
		c0,0,0,0,0,0c-1.2-0.9-1.7-2.1-1.5-3.2h0c0.1-0.4,0.2-0.7,0.5-1c0.4-0.5,1.2-0.8,1.9-0.8c0.6,0,1.3,0.2,1.8,0.7
		c0.3,0.3,0.6,0.6,0.7,1c0,0.1,0,0.1,0,0.2c0,0.1,0.1,0.2,0.1,0.3c0.1,0.9-0.4,1.8-1.6,3c0,0.1,0,0.2,0.1,0.3c0,0,0,0,0,0
		c0,0,0,0,0,0c0.7,2.5,1.4,4.9,2.1,7.4c0.9,3.4,1.9,6.8,2.9,10.3c2.3-3.6,4-7.2,6.1-10.7c0,0,0,0,0,0c-0.1-0.2-0.2-0.4-0.3-0.7
		c-0.1-0.2-0.1-0.4-0.1-0.5c0-0.2,0-0.3,0-0.4c0-0.1,0-0.2,0.1-0.3c0.1-0.3,0.3-0.6,0.6-0.7c0,0,0,0,0,0c0.1-0.1,0.2-0.1,0.3-0.1
		c0,0,0.1,0,0.1,0c0.1,0,0.1,0,0.2,0c0,0,0,0,0.1,0c0,0,0,0,0.1,0c0.1,0,0.2,0,0.3,0c0,0,0.1,0,0.1,0c0.1,0,0.2,0.1,0.3,0.1
		c0,0,0.1,0,0.1,0c0.1,0,0.2,0.1,0.2,0.2c0,0,0.1,0,0.1,0.1c0.1,0.1,0.2,0.2,0.2,0.3c0.1,0.2,0.2,0.4,0.2,0.6
		c0.1,0.6-0.4,1.1-1.5,1.8c0,0.1,0,0.1,0,0.2h0c-0.1,1.6-0.2,3.2-0.3,4.9l0,0c-0.1,2.1-0.3,4.2-0.4,6.4c2.8-2.2,5.6-4.4,8.2-6.5
		c0.1-1.8,0.4-2.4,1.4-2.4c0,0,0,0,0,0c0.6,0,1,0.3,1.3,0.8c0,0.1,0,0.1,0,0.2c0,0.1,0.1,0.2,0.1,0.4c0,0,0,0,0,0
		c0,0.6-0.1,1-0.7,1.4c-0.1,0.1-0.2,0.1-0.4,0.2c-0.3,0.1-0.6,0.2-1,0.3c-2.1,5.2-4.2,10.4-6.3,15.7c-0.3,0-0.6,0-0.8,0
		c-0.3,0-0.5,0-0.8,0c0,0,0,0,0,0c-0.1,0-0.1,0-0.2,0c-0.6-0.1-1.3-0.2-1.9-0.2l0,0c-1.4-0.1-2.8-0.2-4.2-0.4
		c-1.5-0.2-2.9-0.2-4.4-0.2c-1,0-2.1,0-3.1,0c0,0,0,0,0,0c-0.2,0-0.5,0-0.7,0c0,0-0.1,0-0.1,0c-0.4,0-0.9,0-1.3,0.1
		c-0.6,0.1-1.3,0.1-1.9,0.2c0,0,0,0,0,0c-0.6,0.1-1.3,0.1-1.9,0.2c-0.8,0-1.5,0.1-2.3,0.2l0,0c0,0-0.1,0-0.1,0
		c-0.9,0.1-1.8,0.3-2.7,0.4c-0.8,0.1-1.6,0.2-2.5,0.4c-1-2.5-2-5-3-7.5c-0.3-0.7-0.6-1.4-0.9-2.1c-0.9-2.3-1.8-4.5-2.7-6.8h0v0
		c-0.4-0.1-0.7-0.1-1-0.2c-0.5-0.2-0.8-0.4-0.9-0.7c-0.1-0.2-0.1-0.5-0.1-0.8c0-0.3,0.1-0.6,0.2-0.8c0.2-0.4,0.5-0.6,1-0.6
		c0.2,0,0.3,0,0.4,0.1c0.1,0,0.2,0,0.3,0c0.1,0,0.2,0.1,0.3,0.2c0.1,0,0.1,0.1,0.2,0.1c0.1,0.1,0.1,0.2,0.2,0.3
		c0,0.1,0.1,0.1,0.1,0.1c0.1,0.2,0.1,0.4,0.1,0.6c0,0,0,0,0,0c0,0,0,0,0,0c0,0.3,0,0.5,0,0.9c2.6,2.1,5.3,4.2,8.1,6.4
		c0-0.1,0-0.1,0-0.2c0.1-0.8,0.1-1.6,0-2.3c0-0.3,0-0.6-0.1-0.9c0-0.3-0.1-0.5-0.1-0.8c0-0.3-0.1-0.5-0.1-0.8
		c-0.1-2.1-0.2-4.3-0.3-6.4c-0.3-0.3-0.9-0.3-1.2-0.6c-0.1-0.1-0.1-0.2-0.2-0.4c0-0.1,0-0.2,0-0.4c0-0.3,0-0.5,0.1-0.7
		c0-0.1,0.1-0.2,0.1-0.3c0-0.1,0.1-0.2,0.2-0.3c0,0,0,0,0.1-0.1c0.1,0,0.1-0.1,0.2-0.1c0,0,0.1,0,0.1,0c0.1,0,0.2-0.1,0.2-0.1
		c0,0,0.1,0,0.1,0C61.3,62.4,61.5,62.4,61.6,62.4C61.6,62.4,61.6,62.4,61.6,62.4C61.6,62.4,61.6,62.4,61.6,62.4z M56.2,63.3
		c-0.1,0.5,0,0.9,0,1.3l0,0.1c0,0.3,0,0.7,0.2,1.2c-0.3-0.3-0.7-0.6-1.1-0.8l0,0c0.2-0.4,0.4-0.8,0.6-1.2
		C56,63.6,56.1,63.4,56.2,63.3z M40.3,76.2c-2.1-7.4,1.6-15.8,8.4-19.1c1.8,0.5,3.7,1.2,5.7,2c-1.4,1.6-2.4,3.4-3.2,5.3
		c-2.4,0.5-4,2.6-4,5.3c0,2.9,1.4,4.3,2.9,5c0.1,0.6,0.2,1.1,0.3,1.7c0.6,2.8,1.8,5.3,3.5,7.5l1.7,4.3C48.4,88,42.3,83.2,40.3,76.2z
		 M81.8,94.5c-1.4,0-2.7-0.4-3.9-1.2c-0.8-0.6-2.2-1.6-3.2-3c0.6,0,1.2,0,1.8,0c1.6,0,2.9,0.1,4,0.2c0.9,0.1,1.7,0.2,2.6,0.2
		c0.9,0.1,1.8,0.1,2.7,0.2c0.3,0.8,0.6,1.5,1.1,2.2C85,94.1,83.3,94.5,81.8,94.5z M99,86.1c-0.6,0.9-1.6,1.7-2.7,2.5
		c-0.3,0.2-0.7,0.3-0.9,0.3c-0.5,0-0.8-0.7-1-1.3c-0.1-0.4-0.1-1.1,0.6-2.1c1.9-2.8,4-5.5,6.3-8.5c1.2-1.5,2.3-3.1,3.4-4.8
		C104,77.3,102.1,81.9,99,86.1z"/>
</g>
</svg>
