<?xml version="1.0" encoding="utf-8"?>
<!-- Generator: Adobe Illustrator 21.1.0, SVG Export Plug-In . SVG Version: 6.00 Build 0)  -->
<svg version="1.1" id="Layer_1" xmlns="http://www.w3.org/2000/svg" xmlns:xlink="http://www.w3.org/1999/xlink" x="0px" y="0px"
	 viewBox="0 0 128 128" style="enable-background:new 0 0 128 128;" xml:space="preserve">
<style type="text/css">
	.st0{fill:#41BAD3;}
	.st1{fill:#CFCFCE;}
</style>
<g id="Layer_x0020_1_3_">
	<g id="_921457168_3_">
		<path class="st0" d="M64.1,27c1.3,0,2.6,0.5,3.6,1.5l19.7,19.7l-5.4,5.4l-3.5,3.2l-7.6-7c-1.8-1.7-4.2-2.7-6.7-2.7
			c-2.5,0-4.9,0.9-6.7,2.6l-7.6,7.1l-3.5-3.2l-5.4-5.4l19.6-19.7C61.5,27.5,62.7,27,64.1,27 M64.1,23c-2.3,0-4.6,0.9-6.4,2.6
			L37.4,46c-1.2,1.2-1.2,3.1,0,4.3l6.1,6.2l4.1,3.8c0.6,0.6,1.4,0.8,2.1,0.8c0.8,0,1.5-0.3,2.1-0.8l8.2-7.6c1.1-1,2.6-1.6,4-1.6
			c1.4,0,2.8,0.5,4,1.6l8.2,7.6c0.6,0.6,1.4,0.8,2.1,0.8s1.5-0.3,2.1-0.8l4.1-3.8l6.1-6.1c1.2-1.2,1.2-3.1,0-4.3L70.4,25.7
			C68.7,23.9,66.4,23,64.1,23L64.1,23z"/>
		<path class="st1" d="M36,57.6L36,57.6L36,57.6 M64.7,57.6L64.7,57.6L64.7,57.6 M93.3,57.6L93.3,57.6L93.3,57.6 M64.1,58.1l7.6,7
			c1.8,1.7,4.2,2.7,6.7,2.7c2.5,0,4.9-0.9,6.7-2.6l7.6-7.1l4.4,4.2c0.6,0.6,1.3,1.2,1.8,1.7c0.7,0.6,1.6,1.4,2,1.9
			c-0.2,0.3-0.6,0.9-1.5,1.8L67.6,99.5c-0.9,1-2.2,1.5-3.6,1.5c-1.3,0-2.6-0.5-3.6-1.5L28.6,67.6c-1-1-1.4-1.6-1.5-1.9
			c0.4-0.5,1.5-1.4,2.2-2c0.6-0.5,1.4-1.1,2.1-1.8l4-3.7l7.6,7c1.8,1.7,4.2,2.7,6.7,2.7c2.5,0,4.9-0.9,6.7-2.6L64.1,58.1 M92.8,53.8
			c-0.8,0-1.6,0.3-2.2,0.9l-8.2,7.6c-1.1,1-2.6,1.6-4,1.6s-2.8-0.5-4-1.6l-8.2-7.6c-0.6-0.6-1.4-0.8-2.1-0.8c-0.8,0-1.5,0.3-2.1,0.8
			l-8.2,7.6c-1.1,1-2.6,1.6-4,1.6s-2.8-0.5-4-1.6l-8.2-7.6c-0.6-0.6-1.4-0.8-2.1-0.8c-0.8,0-1.5,0.3-2.1,0.8l-4.6,4.3
			c-4.2,3.9-8.7,5.7-2.9,11.5l31.9,31.9c1.8,1.8,4.1,2.6,6.4,2.6c2.3,0,4.6-0.9,6.4-2.6l31.9-31.9c5.5-5.5,1.6-7.2-2.4-11l-5-4.8
			C94.3,54.1,93.6,53.8,92.8,53.8L92.8,53.8z"/>
	</g>
</g>
<path class="st0" d="M64,5c32.5,0,59,26.5,59,59s-26.5,59-59,59S5,96.5,5,64S31.5,5,64,5 M64,0C28.7,0,0,28.7,0,64
	c0,35.3,28.7,64,64,64c35.3,0,64-28.7,64-64C128,28.7,99.3,0,64,0L64,0z"/>
<path class="st0" d="M16.4,81.3c-0.8,0-1.6-0.5-1.9-1.4c-4.3-13.2-3.1-27.3,3.2-39.7c6.3-12.4,17.1-21.5,30.3-25.8
	c1.1-0.3,2.2,0.2,2.5,1.3c0.3,1.1-0.2,2.2-1.3,2.5c-12.2,3.9-22.1,12.4-28,23.8c-5.9,11.4-6.9,24.4-3,36.6c0.3,1.1-0.2,2.2-1.3,2.5
	C16.8,81.3,16.6,81.3,16.4,81.3z"/>
<path class="st0" d="M79.3,113.6c-0.8,0-1.6-0.5-1.9-1.4c-0.3-1.1,0.2-2.2,1.3-2.5c25.2-8.1,39.1-35.2,31-60.4
	c-0.3-1.1,0.2-2.2,1.3-2.5c1.1-0.3,2.2,0.2,2.5,1.3c8.8,27.3-6.3,56.6-33.6,65.4C79.7,113.6,79.5,113.6,79.3,113.6z"/>
</svg>
