<?xml version="1.0" encoding="utf-8"?>
<!-- Generator: Adobe Illustrator 21.1.0, SVG Export Plug-In . SVG Version: 6.00 Build 0)  -->
<svg version="1.1" id="Layer_1" xmlns="http://www.w3.org/2000/svg" xmlns:xlink="http://www.w3.org/1999/xlink" x="0px" y="0px"
	 viewBox="0 0 128 128" style="enable-background:new 0 0 128 128;" xml:space="preserve">
<style type="text/css">
	.st0{fill:#886C3C;}
</style>
<g>
	<g>
		<path class="st0" d="M95.3,37.8c0,0.5,0,1,0,1.6c-1.5,0-3.1,0-4.7,0c0,4.7,0,9.4,0,14.2c-1.5,0-2.9,0-4.4,0c0,1.2,0,2.4,0,3.7
			c-2.1,0-4.1,0-6.2,0c0,1.2,0,2.3,0,3.4c-2.1,0-4.1,0-6.1,0c0,0.5,0,1,0,1.5c0,0.1,0.1,0.2,0.2,0.2c1.2,0.5,2.5,1,3.7,1.5
			c0.1,0,0.2,0.1,0.4,0.2c-1.4,0.6-2.9,1.1-4.3,1.7c0,0.4,0,0.7,0,1c0,0.3,0.1,0.4,0.4,0.4c0,0,0,0,0,0c0.9,0,1.8,0,2.6,0
			s1.8,0,2.6,0c0.1,0,0.3,0,0.5,0c0,1.1,0,2.2,0,3.4c2.1,0,4.1,0,6.2,0c0,1.2,0,2.5,0,3.7c1.5,0,2.9,0,4.4,0c0,4.7,0,9.4,0,14.2
			c1.6,0,3.1,0,4.7,0c0,0.5,0,1.1,0,1.6c0,0.1-0.1,0.2-0.2,0.2c0,0-0.1,0-0.1,0c-0.1,0-0.1,0-0.2,0c-2,0-4,0-6,0
			c-3.9,0-7.8,0-11.8,0c-0.6,0-0.7-0.1-0.6-0.7c0-0.3,0-0.6,0-1c2.7,0,5.3,0,8,0c0-3.8,0-7.7,0-11.5c-0.2,0-0.3,0-0.5,0
			c-1.2,0-2.3,0-3.5,0c-0.4,0-0.4,0-0.4-0.4c0-1,0-1.9,0-2.9c-2.1,0-4.1,0-6.2,0c0-0.4,0-0.8,0-1.2c0-0.5,0-0.5-0.5-0.5
			c-1.8,0-3.7,0-5.5,0c0,0,0,0,0,0c-0.2,0-0.3,0-0.5,0c0.1,0.8,1.1,2,2.1,2c0,0,0,0,0,0c0-0.1,0-0.1-0.1-0.1c-0.3-0.4-0.4-0.7-0.2-1
			c0.2-0.3,0.5-0.5,0.8-0.5c0.1,0,0.2,0,0.3,0c0.3,0.1,0.6,0.3,0.7,0.6c0.2,0.4,0,0.9-0.5,1.2c-0.3,0.2-0.7,0.3-1,0.3
			c-0.5,0-1.1-0.2-1.5-0.6c-0.6-0.5-1-1.1-1.4-1.8c-0.8,2.1-1.6,4.2-2.5,6.2c0,0-0.1,0-0.1,0c-0.8-2-1.6-4.1-2.4-6.2
			c-0.1,0.2-0.2,0.3-0.2,0.4c-0.3,0.9-1,1.5-1.9,1.9c-0.3,0.1-0.5,0.2-0.8,0.2c-0.6,0-1.1-0.2-1.5-0.9c-0.1-0.1-0.1-0.4,0-0.5
			c0.1-0.5,0.6-0.8,1.1-0.8c0.1,0,0.2,0,0.3,0c0.5,0.1,0.8,0.9,0.4,1.3c-0.1,0.1-0.1,0.1-0.2,0.2c0.1,0,0.1,0.1,0.2,0.1
			c0.6,0,1.7-1,1.9-2c-0.1,0-0.3,0-0.4,0c-1.7,0-3.5,0-5.2,0c-0.2,0-0.4,0-0.6,0c-0.4,0-0.4,0-0.4,0.4c0,0.4,0,0.8,0,1.2
			c-2.1,0-4.2,0-6.2,0c0,0.2,0,0.3,0,0.4c0,0.9,0,1.7,0,2.6c0,0.4,0,0.4-0.4,0.4c-0.6,0-1.2,0-1.8,0c-0.6,0-1.2,0-1.8,0
			c-0.1,0-0.3,0-0.5,0c0,0.2,0,0.3,0,0.5c0,3.3,0,6.7,0,10c0,0.2-0.1,0.4-0.1,0.6c0,0.1,0.1,0.3,0.1,0.4c0.2,0,0.3,0,0.5,0
			c1.7,0,3.3,0,5,0c0.7,0,1.4,0,2.1,0c0.4,0,0.4,0,0.4,0.4c0,0.4,0,0.8,0,1.2c-0.2,0-0.4,0-0.5,0c-2.9,0-5.9,0-8.8,0s-5.9,0-8.8,0
			c-0.1,0-0.3,0-0.4,0c-0.1,0-0.2,0-0.3-0.1c-0.1-0.1-0.1-0.4-0.1-0.5c0-0.2,0-0.4,0-0.5c0-0.2,0.1-0.3,0.1-0.5c1.6,0,3.1,0,4.6,0
			c0-4.7,0-9.4,0-14.1c1.5,0,2.9,0,4.4,0c0-1.3,0-2.5,0-3.7c2.1,0,4.1,0,6.2,0c0.2-1.1-0.1-2.2,0.1-3.4c2,0,3.9,0,5.9,0
			c0-0.5,0-1,0-1.5c-1.4-0.5-2.8-1.1-4.2-1.6c0,0,0-0.1,0-0.1c0.5-0.2,1.1-0.4,1.6-0.6c0.8-0.3,1.6-0.6,2.4-1c0.1,0,0.2-0.2,0.2-0.3
			c0-0.5,0-0.9,0-1.4c-2,0-4,0-6,0c0-1.2,0-2.3,0-3.4c-2.1,0-4.1,0-6.2,0c0-1.2,0-2.4,0-3.7c-1.5,0-2.9,0-4.4,0c0-0.2,0-0.3,0-0.4
			c0-4.4,0-8.8,0-13.2c0-0.5,0-0.5-0.5-0.5c0,0,0,0,0,0c-1.3,0-2.6,0-3.9,0c-0.1,0-0.2,0-0.3,0c0-0.5,0-1.1,0-1.6
			c6.3,0,12.5,0,18.8,0c0,0.5,0,1.1,0,1.6c-2.7,0-5.3,0-8,0c0,3.9,0,7.7,0,11.5c1.4,0,2.9,0,4.4,0c0,0.2,0,0.3,0,0.4
			c0,0.8,0,1.7,0,2.5c0,0.5,0,0.5,0.5,0.5c0,0,0,0,0,0c1.8,0,3.6,0,5.3,0c0.1,0,0.2,0,0.4,0c0,0.6,0,1.1,0,1.7c2.2,0,4.4,0,6.6,0
			c-0.3-0.8-1.2-1.9-2-1.9c0,0-0.1,0-0.1,0c0.1,0.1,0.1,0.1,0.1,0.1c0.3,0.4,0.3,0.7,0,1.1c-0.2,0.2-0.5,0.3-0.7,0.3
			c-0.3,0-0.6-0.1-0.8-0.3c-0.7-0.8-0.2-1.4,0.6-1.7c0.3-0.1,0.6-0.2,0.8-0.2c0.6,0,1.2,0.3,1.8,0.8c0.5,0.4,0.8,1,1.1,1.5
			c0,0,0.1,0.1,0.1,0.2c0.8-2,1.6-4,2.3-6c0,0,0.1,0,0.1,0c0.8,2,1.6,4,2.4,6c0.3-0.5,0.6-0.9,0.9-1.4c0.5-0.7,1.2-1.2,2.1-1.2
			c0,0,0.1,0,0.1,0c0.6,0,1.2,0.3,1.5,0.8c0,0.1,0.1,0.1,0.1,0.2c0.1,0.4-0.3,1-0.7,1.2c-0.1,0-0.2,0.1-0.4,0.1
			c-0.4,0-0.7-0.2-0.9-0.5c-0.2-0.3-0.1-0.6,0.1-0.8c0,0,0.1-0.1,0.1-0.2c0,0-0.1,0-0.1,0c-0.8,0-1.7,0.8-2,1.9c2.1,0,4.3,0,6.5,0
			c0-0.5,0-1.1,0-1.7c2.1,0,4.1,0,6.2,0c0-1.1,0-2.2,0-3.4c1.5,0,3,0,4.5,0c0-0.2,0-0.3,0-0.4c0-3.6,0-7.2,0-10.8
			c0-0.4,0-0.4-0.4-0.4c-0.6,0-1.2,0-1.8,0c-1.8,0-3.5,0-5.3,0c-0.1,0-0.1,0-0.2,0c-0.1,0-0.3,0-0.4,0c0-0.6,0-1.1,0-1.6
			C82.7,37.8,89,37.8,95.3,37.8 M62.2,61.2c-0.1,0-0.1,0-0.2-0.1c-0.5-0.2-1.1-0.5-1.7-0.7c0.3,0.7,0.6,1.3,0.8,1.9
			c-0.4,0.5-0.9,0.9-1.3,1.4c-0.4-0.3-0.8-0.6-1.2-0.9c-0.3-0.4-0.6-0.8-0.9-1.2c-0.4,0.3-0.7,0.6-1.1,1c0.3,0.3,0.5,0.6,0.8,0.8
			c0.3,0.2,0.6,0.4,1,0.6c-0.3,0-0.5,0.1-0.6,0.1c-0.5,0-0.8-0.1-1.5-0.6c-0.2,0.1-0.3,0.2-0.5,0.3c-0.2,0.1-0.4,0.2-0.5,0.2
			c-0.2,0-0.4,0-0.5,0.2c0.5,0.2,1.1,0.5,1.6,0.7c0.3-0.2,0.6-0.4,1-0.5c0.2-0.1,0.4-0.1,0.7-0.1c0.1,0,0.2,0,0.2,0
			c0.1,0,0.2,0,0.2,0c0,0,0,0.1,0,0.1c-0.7,0.3-1.4,0.7-1.8,1.4c0.4,0.3,0.8,0.6,1.2,1c0.4-1,1.1-1.7,2-2.1c0.4,0.4,0.7,0.7,1,1
			c0.1,0.1,0.1,0.2,0,0.3c-0.2,0.4-0.4,0.8-0.5,1.2c-0.1,0.2-0.1,0.3-0.2,0.5c0,0,0,0,0.1,0.1c0.4-0.2,0.8-0.3,1.1-0.5
			c0.3-0.2,0.5-0.2,0.7-0.2c0.2,0,0.4,0.2,0.7,0.5c0.3,0.3,0.7,0.7,1.1,1.1c0.5-0.6,1.1-1.2,1.6-1.7c0.7,0.3,1.3,0.6,1.9,0.8
			c0,0,0,0,0.1-0.1c-0.3-0.6-0.5-1.2-0.8-1.9c0.5-0.5,0.9-0.9,1.4-1.4c0.4,0.3,0.9,0.6,1.2,0.9c0.3,0.3,0.6,0.8,0.9,1.2
			c0.4-0.3,0.7-0.6,1.1-0.9c-0.3-0.3-0.6-0.6-0.8-0.8c-0.3-0.2-0.6-0.4-1-0.6c0.2,0,0.5-0.1,0.7-0.1c0.5,0,1,0.1,1.3,0.5
			c0.6-0.3,1.1-0.5,1.6-0.7c-0.5-0.2-0.9-0.5-1.4-0.7c0,0,0,0-0.1,0c-0.1,0-0.2,0-0.3,0.1c-0.4,0.3-0.8,0.5-1.3,0.5
			c-0.2,0-0.5,0-0.7-0.1c0.7-0.4,1.4-0.7,1.9-1.4c-0.4-0.3-0.8-0.6-1.2-1c-0.6,1.4-1.4,1.8-2.2,2.2c-0.4-0.4-0.8-0.8-1.3-1.2
			c0.3-0.6,0.5-1.2,0.8-1.8c0,0,0,0-0.1-0.1c-0.2,0.1-0.5,0.2-0.7,0.3c-0.3,0.1-0.7,0.2-1,0.4c-0.1,0-0.1,0-0.2,0
			c-0.1,0-0.2-0.1-0.3-0.1c-0.5-0.5-0.9-1-1.4-1.4c-0.1,0.1-0.2,0.1-0.2,0.2c-0.4,0.4-0.8,0.8-1.2,1.2
			C62.4,61.1,62.3,61.2,62.2,61.2 M95.3,33.8H76.4c-2.2,0-4,1.8-4,4v1.6c0,2.2,1.8,4,4,4h0.2h0.2H77l2.6,0h0.8c0,1.2,0,2.4,0,3.6H80
			c-2,0-3.7,1.5-4,3.4h-2.3c-0.3,0-0.6,0-0.9,0.1c-1-0.7-2.1-1-3.3-1c-0.1,0-0.3,0-0.4,0c-0.3,0-0.6,0.1-0.9,0.1
			c-0.2-0.4-0.3-0.8-0.5-1.1C67.1,46.9,65.6,46,64,46c-0.3,0-0.6,0-0.9,0.1l-0.1,0c-1.3,0.3-2.4,1.2-2.9,2.5l-0.4,1
			c-0.4-0.1-0.8-0.1-1.2-0.1c-0.8,0-1.6,0.2-2.4,0.5c-0.4,0.2-0.7,0.3-1.1,0.6c-0.3-0.1-0.7-0.1-1-0.1h-0.4l-1.9,0
			c-0.3-1.9-2-3.4-4-3.4h-0.4v-3.5h4c2.2,0,4-1.8,4-4v-1.6c0-2.2-1.8-4-4-4H32.7c-2.2,0-4,1.8-4,4v1.6c0,2.1,1.7,3.9,3.8,4l0.1,0
			c0.2,0,0.3,0,0.5,0c0.1,0,0.3,0,0.4,0l0,9.8c0,0.2,0,0.3,0,0.5l0,0.1c0.1,2.1,1.9,3.8,4,3.8h0.4c0.2,2.1,1.9,3.7,4,3.7h2.2
			c0.2,1.1,0.8,2.1,1.7,2.7c-0.8,0.6-1.4,1.5-1.6,2.6c0,0,0,0,0,0h-2.3c-2.1,0-3.8,1.6-4,3.7h-0.4c-2.2,0-4,1.8-4,4v10.1h-0.6
			c-1.9,0-3.6,1.4-3.9,3.3l0,0.1c0,0.2-0.1,0.5-0.1,0.9c0,0.4,0,0.7,0,1.1c0.1,2.1,1.2,3.2,2.1,3.7c0.7,0.4,1.4,0.6,2.3,0.6
			c0.1,0,0.3,0,0.5,0l8.7,0l8.8,0h0.5c2.2,0,3.9-1.7,4-3.9l0-0.4c0-0.3,0-0.6,0-0.9c0-0.5,0-2-1.2-3.2c-1.2-1.2-2.7-1.2-3.2-1.2
			h-2.1h-1.5c0-1.2,0-2.4,0-3.5c2.3,0,3.9-1.3,4.3-3.4h2.4c0.3,0,0.6,0,0.9-0.1c1,0.7,2.1,1.1,3.4,1.1c0.4,0,0.8,0,1.1-0.1l0.5,1.2
			l0.1,0.2c0.5,1.4,1.8,2.4,3.3,2.5l0.2,0c0.1,0,0.2,0,0.4,0c1.6,0,3.1-1,3.7-2.5l0.6-1.4c0.4,0.1,0.8,0.1,1.1,0.1
			c1.1,0,2.2-0.3,3.2-0.9c0.1-0.1,0.2-0.1,0.2-0.2c0.3,0.1,0.6,0.1,0.9,0.1h2.3c0.4,2,2.1,3.3,4.3,3.4h0v3.6h-4c-2.2,0-4,1.8-4,4
			c0,0.1,0,0.3,0,0.4c0,0.1,0,0.2,0,0.3c-0.1,1.4,0.3,2.6,1.1,3.6c0.9,0.9,2,1.4,3.5,1.4l3.9,0c2.6,0,5.2,0,7.8,0c1.4,0,2.8,0,4.3,0
			l1.6,0c0.1,0,0.2,0,0.3,0c0.6,0,1.2-0.1,1.7-0.3c1.5-0.7,2.5-2.1,2.6-3.7c0-0.4,0-0.9,0-1.3l0-0.4c0-2.2-1.8-4-4-4h-0.7V74.3
			c0-2.2-1.8-4-4-4h-0.4c-0.2-2.1-1.9-3.7-4-3.7h-2.3c-0.2-1.1-0.8-2-1.6-2.6c0.9-0.6,1.5-1.6,1.6-2.7h2.2c2.1,0,3.8-1.6,4-3.7h0.4
			c2.2,0,4-1.8,4-4V43.4h0.7c2.2,0,4-1.8,4-4v-1.6C99.3,35.6,97.5,33.8,95.3,33.8L95.3,33.8z"/>
	</g>
</g>
<path class="st0" d="M64,5c32.5,0,59,26.5,59,59s-26.5,59-59,59S5,96.5,5,64S31.5,5,64,5 M64,0C28.7,0,0,28.7,0,64s28.7,64,64,64
	c35.3,0,64-28.7,64-64S99.3,0,64,0L64,0z"/>
<path class="st0" d="M63.9,116c-11.6,0-22.8-3.9-32.1-11.2C20.9,96.2,14,83.9,12.4,70.1C12.2,69,13,68,14.1,67.9
	c1.1-0.1,2.1,0.7,2.2,1.8c1.5,12.7,7.9,24.1,17.9,32.1c10.1,7.9,22.6,11.5,35.4,10c1.1-0.1,2.1,0.7,2.2,1.8c0.1,1.1-0.7,2.1-1.8,2.2
	C68,115.9,66,116,63.9,116z"/>
<path class="st0" d="M113.7,60.1c-1,0-1.9-0.7-2-1.8c-1.5-12.7-7.9-24.1-17.9-32.1s-22.6-11.5-35.4-10c-1.1,0.1-2.1-0.7-2.2-1.8
	c-0.1-1.1,0.7-2.1,1.8-2.2c13.8-1.6,27.4,2.2,38.3,10.8c10.9,8.6,17.8,20.9,19.4,34.7c0.1,1.1-0.7,2.1-1.8,2.2
	C113.8,60.1,113.7,60.1,113.7,60.1z"/>
</svg>
