<?xml version="1.0" encoding="utf-8"?>
<!-- Generator: Adobe Illustrator 21.1.0, SVG Export Plug-In . SVG Version: 6.00 Build 0)  -->
<svg version="1.1" id="Layer_1" xmlns="http://www.w3.org/2000/svg" xmlns:xlink="http://www.w3.org/1999/xlink" x="0px" y="0px"
	 viewBox="0 0 128 128" style="enable-background:new 0 0 128 128;" xml:space="preserve">
<style type="text/css">
	.st0{fill:#EBB242;}
</style>
<g>
	<path class="st0" d="M91.3,95.9V80.3c0-1.1-0.9-2-2-2h-24c1.7-2.2,3.3-4.4,4.9-6.6c5.5-7.3,11.1-14.9,17-22.1
		c3.4-4.1,3.3-8.5,3.1-12.3c0-1.6-0.1-3.1,0.1-4.6c0.1-0.6-0.1-1.1-0.5-1.6c-0.4-0.4-0.9-0.7-1.5-0.7H73v-9.4c0-1.1-0.9-2-2-2H56.6
		c-1.1,0-2,0.9-2,2v9.5H40.9c-1.1,0-2,0.9-2,2v15.5c0,1.1,0.9,2,2,2h21.6c-1.7,2.3-3.4,4.6-5.1,6.8c-5.5,7.4-11.2,15-17.2,22.1
		c-3.7,4.4-3.6,9-3.6,13.3c0,1.2,0,2.5,0,3.7c0,0.5,0.2,1.1,0.5,1.5c0.4,0.4,0.9,0.6,1.5,0.6h16.1v9c0,1.1,0.9,2,2,2h14.3
		c1.1,0,2-0.9,2-2v-9.2h16.3C90.4,97.9,91.3,97,91.3,95.9z M87.3,93.9H71.1c-1.1,0-2,0.9-2,2v9.2H58.7v-9c0-1.1-0.9-2-2-2h-16
		c0-0.6,0-1.3,0-1.9c-0.1-4-0.1-7.4,2.6-10.7c6-7.2,11.7-14.9,17.3-22.3c2.3-3,4.5-6,6.8-9c0.3-0.4,0.4-0.8,0.5-1.1
		c0-0.1,0.1-0.3,0.1-0.4c0.2-0.6,0.2-1.3-0.2-1.9c-0.4-0.5-1-0.9-1.6-0.9H42.9V34.4h13.7c1.1,0,2-0.9,2-2v-9.5H69v9.4
		c0,1.1,0.9,2,2,2h15.3c0,1,0,2,0,3c0.1,3.6,0.2,6.7-2.2,9.7C78.2,54.2,72.5,61.9,67,69.2c-2.2,3-4.4,6-6.7,8.9
		c-0.4,0.5-0.4,1-0.5,1.3c0,0.1,0,0.2-0.1,0.4c-0.1,0.6,0.1,1.2,0.4,1.6s0.9,0.7,1.5,0.7h25.5V93.9z"/>
	<path class="st0" d="M64,0C28.7,0,0,28.7,0,64c0,35.3,28.7,64,64,64c35.3,0,64-28.7,64-64C128,28.7,99.3,0,64,0z M64,123
		C31.5,123,5,96.5,5,64S31.5,5,64,5s59,26.5,59,59S96.5,123,64,123z"/>
	<path class="st0" d="M50.6,15.8c-0.3-1.1-1.5-1.6-2.5-1.3C20.8,23.3,5.7,52.6,14.5,79.9c0.3,0.8,1.1,1.4,1.9,1.4
		c0.2,0,0.4,0,0.6-0.1c1.1-0.3,1.6-1.5,1.3-2.5c-8.1-25.2,5.8-52.3,31-60.4C50.3,18,50.9,16.8,50.6,15.8z"/>
	<path class="st0" d="M113.5,48.1c-0.3-1.1-1.5-1.6-2.5-1.3c-1.1,0.3-1.6,1.5-1.3,2.5c3.9,12.2,2.9,25.2-3,36.6
		c-5.9,11.4-15.8,19.9-28,23.8c-1.1,0.3-1.6,1.5-1.3,2.5c0.3,0.8,1.1,1.4,1.9,1.4c0.2,0,0.4,0,0.6-0.1c13.2-4.3,24-13.4,30.3-25.8
		C116.6,75.4,117.8,61.3,113.5,48.1z"/>
</g>
</svg>
