<svg id="Layer_1" data-name="Layer 1" xmlns="http://www.w3.org/2000/svg" xmlns:xlink="http://www.w3.org/1999/xlink" viewBox="0 0 505.24 465.77"><defs><linearGradient id="linear-gradient" x1="156.18" y1="278.02" x2="206.19" y2="278.02" gradientUnits="userSpaceOnUse"><stop offset="0" stop-color="#010101" stop-opacity="0"/><stop offset="0.95" stop-color="#010101"/></linearGradient><linearGradient id="linear-gradient-2" x1="182.68" y1="514.02" x2="355.04" y2="-88.29" gradientUnits="userSpaceOnUse"><stop offset="0" stop-color="#010101" stop-opacity="0"/><stop offset="0.47" stop-color="#010101" stop-opacity="0.47"/><stop offset="0.95" stop-color="#010101"/></linearGradient><linearGradient id="linear-gradient-3" x1="380.66" y1="248.08" x2="512.61" y2="144.54" xlink:href="#linear-gradient-2"/><linearGradient id="linear-gradient-4" x1="355.61" y1="323.24" x2="597.1" y2="192.55" xlink:href="#linear-gradient-2"/><linearGradient id="linear-gradient-5" x1="219.88" y1="345.29" x2="123.28" y2="464.62" xlink:href="#linear-gradient"/><linearGradient id="linear-gradient-6" x1="192.64" y1="133.46" x2="351.74" y2="133.46" xlink:href="#linear-gradient"/><linearGradient id="linear-gradient-7" x1="192.64" y1="150.51" x2="351.74" y2="150.51" xlink:href="#linear-gradient"/><linearGradient id="linear-gradient-8" x1="192.64" y1="167.56" x2="351.74" y2="167.56" xlink:href="#linear-gradient"/><linearGradient id="linear-gradient-9" x1="192.64" y1="184.6" x2="351.74" y2="184.6" xlink:href="#linear-gradient"/><linearGradient id="linear-gradient-10" x1="192.64" y1="201.65" x2="351.74" y2="201.65" xlink:href="#linear-gradient"/><linearGradient id="linear-gradient-11" x1="219.05" y1="56.91" x2="318.96" y2="65.91" xlink:href="#linear-gradient-2"/><linearGradient id="linear-gradient-12" x1="293.8" y1="9.07" x2="288.14" y2="99.54" gradientUnits="userSpaceOnUse"><stop offset="0" stop-color="#fff" stop-opacity="0"/><stop offset="0.95" stop-color="#fff"/></linearGradient><linearGradient id="linear-gradient-13" x1="130.78" y1="197.17" x2="361.95" y2="298.3" xlink:href="#linear-gradient"/><linearGradient id="linear-gradient-14" x1="435.9" y1="278.67" x2="315.86" y2="300.49" xlink:href="#linear-gradient-2"/><linearGradient id="linear-gradient-15" x1="409.57" y1="238.79" x2="391.28" y2="259.6" xlink:href="#linear-gradient-12"/></defs><title>Take a Note 2</title><path d="M487.68,403.9a83.67,83.67,0,0,1-19.17,10.52C456.7,419,444.12,421.05,432,424.58c-5.38,1.55-10.66,3.43-15.84,5.48C384.79,442.41,356,462,323,469.15c-61.15,13.35-120.25-17-178.7-29.87-50.08-11-90.78,15.3-111-64.28-8.45-33.13-18.91-68.21-6.12-100s30.8-61.15,43-93.1C87.6,136.27,94.05,83.7,128.33,48.88,152.07,24.77,186,13.13,219.61,9s67.64-1.48,101.48-1.34c40.76.13,84.18-2.73,119.43,17.79a101.23,101.23,0,0,1,48,68.61c7,39.19-9.62,79.82-2.15,118.94,6.93,36.42,34,66.9,39.29,103.62C530.46,349.68,514.52,384.36,487.68,403.9Z" transform="translate(-21.29 -6.7)" fill="#285cf7" opacity="0.24" style="isolation:isolate"/><path d="M421.28,75.35V397.47a30.86,30.86,0,0,1-30.84,30.88H187a30.85,30.85,0,0,1-30.84-30.88V75.35A30.84,30.84,0,0,1,187,44.51H390.44A30.86,30.86,0,0,1,421.28,75.35Z" transform="translate(-21.29 -6.7)" fill="#285cf7"/><path d="M206.19,260.55c-6.12,15-19.41,25.15-30.91,35.88-5.92,5.52-10.49,11.68-15.77,17.66a12.58,12.58,0,0,1-3.33,2.56V255.37a73.2,73.2,0,0,0,3.13-16c2,6.59,1.1,14.63,6.18,19.31,3.27,3.06,8.08,3.6,12.55,3.8A129.55,129.55,0,0,0,206.19,260.55Z" transform="translate(-21.29 -6.7)" fill="url(#linear-gradient)"/><rect x="157.29" y="65.28" width="215.29" height="322.62" fill="url(#linear-gradient-2)"/><path d="M397,69.43V391.12H208.68s-26.1-5.49-27.48-49.48,1.38-272.21,1.38-272.21Z" transform="translate(-21.29 -6.7)" fill="#fff"/><path d="M385.17,243.48c1.27,4.41,1.4,9.31,4,13.08,3.55,5.08,10.53,6.43,16.73,6.1a6.94,6.94,0,0,0,2.39-.45,5.77,5.77,0,0,0,2.12-1.9c3.81-5.12,3.74-12.26,1.86-18.36a36.56,36.56,0,0,0-15.55-20.13c-4.06-2.52-21.64-9.9-23.53-3C371.6,224.76,383.44,237.48,385.17,243.48Z" transform="translate(-21.29 -6.7)" fill="#f5c7c8"/><path d="M385.17,243.48c1.27,4.41,1.4,9.31,4,13.08,3.55,5.08,10.53,6.43,16.73,6.1a6.94,6.94,0,0,0,2.39-.45,5.77,5.77,0,0,0,2.12-1.9c3.81-5.12,3.74-12.26,1.86-18.36a36.56,36.56,0,0,0-15.55-20.13c-4.06-2.52-21.64-9.9-23.53-3C371.6,224.76,383.44,237.48,385.17,243.48Z" transform="translate(-21.29 -6.7)" fill="url(#linear-gradient-3)"/><path d="M392.3,425.78c-.68-31.5-1.47-63.68-12.26-93.29-6.13-16.83-15.38-32.48-20.38-49.68-3.94-13.55-3-27.94-2.88-42.06.06-7.48.11-15.12-2.21-22.23-2-6.21-5.83-11.9-6.66-18.38,8.74,6.37,18,13.45,21.17,23.79,1.54,5,1.48,10.38,2.31,15.56,2.68,16.76,14.36,30.41,22.68,45.2,18.28,32.52,20.56,71.42,20.38,108.72,0,8.08-.24,16.47-3.79,23.74S400.26,427.24,392.3,425.78Z" transform="translate(-21.29 -6.7)" fill="url(#linear-gradient-4)"/><path d="M201.58,267c-15.3,17.09-39,25.46-52.7,43.86-12.24,16.38-14.53,37.87-20.72,57.38-6.86,21.63-18.7,41.27-30.47,60.68-1.55,2.55-3.27,5.24-6.06,6.35-2.42,1-5.14.51-7.67,0-19.07-4-39.95-14.06-44.23-33.09C37,390,42,377.43,47.91,366.43c20.51-38.31,52.84-70.06,68.54-110.59,10.26-26.47,15.54-56.48,40.74-73.26a2.19,2.19,0,0,0,0,.51c-1.24,10.49,1,33.13-.67,49.24a6.22,6.22,0,0,0,.1,1.75v0c.71,3.23,3.5,7.3,4.78,9.75,3.9,7.3,14.66,5.69,22.5,3s18.53-4.48,22.57,2.79C209.52,255.23,205.86,262.19,201.58,267Z" transform="translate(-21.29 -6.7)" fill="#f5c7c8"/><path d="M224.66,390.81a4.49,4.49,0,0,0-.37.31H208.68s-26.1-5.49-27.48-49.48c0,0,9.39,29.6,41.57,23.27C222.77,364.91,205.72,392.7,224.66,390.81Z" transform="translate(-21.29 -6.7)" fill="#fff"/><path d="M224.66,390.81a4.49,4.49,0,0,0-.37.31H208.68s-26.1-5.49-27.48-49.48c0,0,9.39,29.6,41.57,23.27C222.77,364.91,205.72,392.7,224.66,390.81Z" transform="translate(-21.29 -6.7)" fill="url(#linear-gradient-5)"/><rect x="192.64" y="130.62" width="159.1" height="5.68" rx="2.84" fill="url(#linear-gradient-6)"/><rect x="192.64" y="147.67" width="159.1" height="5.68" rx="2.84" fill="url(#linear-gradient-7)"/><rect x="192.64" y="164.71" width="159.1" height="5.68" rx="2.84" fill="url(#linear-gradient-8)"/><rect x="192.64" y="181.76" width="159.1" height="5.68" rx="2.84" fill="url(#linear-gradient-9)"/><rect x="192.64" y="198.81" width="159.1" height="5.68" rx="2.84" fill="url(#linear-gradient-10)"/><path d="M336.32,56.45v9.28a20.43,20.43,0,0,1-20.45,20.45H261.15a20.46,20.46,0,0,1-20.48-20.45V56.45A20.47,20.47,0,0,1,261.15,36h54.72A20.44,20.44,0,0,1,336.32,56.45Z" transform="translate(-21.29 -6.7)" fill="#285cf7"/><path d="M240.82,56.21V65.5A20.44,20.44,0,0,0,261.27,86h4.11A20.44,20.44,0,0,1,244.93,65.5V56.21a20.44,20.44,0,0,1,20.45-20.45h-4.11A20.44,20.44,0,0,0,240.82,56.21Z" transform="translate(-21.29 -6.7)" fill="url(#linear-gradient-11)"/><path d="M336.32,56.45v9.28a20.43,20.43,0,0,1-20.45,20.45H265.25a20.46,20.46,0,0,1-20.48-20.45V56.45A20.47,20.47,0,0,1,265.25,36h50.62A20.44,20.44,0,0,1,336.32,56.45Z" transform="translate(-21.29 -6.7)" fill="url(#linear-gradient-12)"/><path d="M156.48,232.33a6.22,6.22,0,0,0,.1,1.75c-1.92-1.28-4.1-5.45-6-10.46-1.17-3.07-4.13-17.9-4.13-21.19,0-7.57,5.21-13.9,10.69-19.34C155.91,193.58,158.13,216.22,156.48,232.33Z" transform="translate(-21.29 -6.7)" fill="url(#linear-gradient-13)"/><path d="M487.68,403.9a83.67,83.67,0,0,1-19.17,10.52C456.7,419,444.12,421.05,432,424.58c-5.38,1.55-10.66,3.43-15.84,5.48-6.22-47.39-18.43-94.51-41.71-136-6.05-10.83-10.66-19.85-14.63-31.62s-2-43.56,1.88-44.16c6.6-1.08,10.87,6.62,13,12.95,3.57,10.32,6.8,19.77,16.48,26,4.14,2.69,9.86,4.34,13.79,1.34a11,11,0,0,0,3.67-6.52c1.75-8.11-1.82-16.75-7.77-22.54s-13.93-9-22-10.79c-4.64-1-9.66-1.68-13.19-4.85-2.82-2.55-4.23-7.09-2.15-10.25,1.85-2.83,12.85,3.6,16.15,3.12,7.29-1,7.66-2.45,15-2.38s14.9.74,21.73,3.56c7,3,12.95,8.07,18.5,13.35,8.61,8.21,16.34,10.7,23.81,20,4.71,5.89,9.25,12.07,11.77,19.21,4.51,12.78,1.92,26.84.61,40.36a207.29,207.29,0,0,0,15.64,100.87C487,402.42,487.38,403.16,487.68,403.9Z" transform="translate(-21.29 -6.7)" fill="#f5c7c8"/><path d="M410.51,277.7c6,10.07,13.52,19.11,21,28.1,2.1,2.52,5.51,5.28,8.25,3.47,2.09-1.39,2-4.46,1.48-6.91-2.23-10.44-8-19.86-15.11-27.85s-15.49-14.68-23.84-21.34c.29.23-2.95,4.73-1.59,7.14C403,264.29,408.1,273.64,410.51,277.7Z" transform="translate(-21.29 -6.7)" fill="url(#linear-gradient-14)"/><path d="M349.12,204.08s58.95,63.22,71,75.77,22,21.78,22,21.78,11.84,1.18,12.31-2.84-89.73-91.63-98.73-95.89l-9-4.26Z" transform="translate(-21.29 -6.7)" fill="#285cf7"/><path d="M454.48,298.79c-.23,2-3.29,2.72-6.29,2.92a40,40,0,0,1-6-.1s-9.95-9.21-22-21.76-71-75.78-71-75.78l-2.36-5.45,9,4.28C364.75,207.17,455,294.75,454.48,298.79Z" transform="translate(-21.29 -6.7)" fill="url(#linear-gradient-15)"/><path d="M449.27,301.14l-1.08.57a40,40,0,0,1-6-.1s-9.95-9.21-22-21.76-71-75.78-71-75.78l-2.36-5.45Z" transform="translate(-21.29 -6.7)" fill="#285cf7"/><path d="M435.21,291.18c-.69,1.33-1.71,3.09-3.14,2.65a2.79,2.79,0,0,1-1-.63L408.76,274c-.43,3.45,2.69,6.17,5.39,8.36a106.13,106.13,0,0,1,13.73,13.25c1.17,1.35,2.4,2.8,4.11,3.36s4-.26,4.27-2a2.88,2.88,0,0,1,.23-1.07,1.76,1.76,0,0,1,.79-.6l3.62-1.77a13,13,0,0,0,3.82-2.47,4.42,4.42,0,0,0,1.26-4.17C444.24,281.12,436.42,288.82,435.21,291.18Z" transform="translate(-21.29 -6.7)" fill="#fff"/><path d="M448.18,303c1.66,1.56,3.62,3.06,5.9,3.16a2.69,2.69,0,0,0,2.23-.81,2.33,2.33,0,0,0,.18-2.29,6.75,6.75,0,0,0-1.41-1.95l-2.31-2.52a6,6,0,0,0-3-2.14c-1.35-.24-4.46.79-4.74,2.37S447.28,302.09,448.18,303Z" transform="translate(-21.29 -6.7)" fill="#fff"/></svg>