<svg height="511pt" viewBox="0 0 511.99964 511" width="511pt" xmlns="http://www.w3.org/2000/svg"><path d="m256.003906.5c-140.695312 0-255.9921872 115.296875-255.9921872 255.996094 0 48.898437 13.8007812 96.296875 39.8984372 137.09375l-38.699218 98.199218c-2.398438 5.699219-1.1992192 12 3.300781 16.199219 4.199219 4.199219 10.5 5.699219 16.199219 3.300781l98.195312-39.699218c40.800781 26.097656 88.199219 40.898437 137.097656 40.898437 140.699219 0 255.996094-115.296875 255.996094-255.992187 0-140.699219-115.296875-255.996094-255.996094-255.996094zm0 0" fill="#ff641a"/><path d="m512 256.496094c0 140.695312-115.296875 255.992187-255.996094 255.992187v-511.988281c140.699219 0 255.996094 115.296875 255.996094 255.996094zm0 0" fill="#f03800"/><path d="m256.003906 61.5c-24.898437 0-44.996094 20.097656-44.996094 44.996094 0 24.898437 20.097657 45 44.996094 45 24.902344 0 45-20.101563 45-45 0-24.898438-20.097656-44.996094-45-44.996094zm0 59.996094c-8.398437 0-15-6.601563-15-15 0-8.398438 6.601563-15 15-15 8.402344 0 15 6.601562 15 15 0 8.398437-6.597656 15-15 15zm0 0" fill="#fdbf00"/><path d="m301.003906 106.496094c0 24.898437-20.097656 45-45 45v-30c8.402344 0 15-6.601563 15-15 0-8.398438-6.597656-15-15-15v-29.996094c24.902344 0 45 20.097656 45 44.996094zm0 0" fill="#ff9100"/><path d="m361.003906 226.496094v104.996094l-105 29.097656-2.996094.902344-102-30v-104.996094c0-57.898438 47.097657-105 104.996094-105 28.800782 0 55.199219 11.699218 74.097656 30.898437 19.203126 18.902344 30.902344 45.300781 30.902344 74.101563zm0 0" fill="#ffda2d"/><path d="m361.003906 226.496094v104.996094l-105 29.097656v-239.09375c28.800782 0 55.199219 11.699218 74.097656 30.898437 19.203126 18.902344 30.902344 45.300781 30.902344 74.101563zm0 0" fill="#fdbf00"/><path d="m316.003906 391.492188c0 32.996093-27 59.996093-60 59.996093-32.996094 0-59.996094-27-59.996094-59.996093 0-6.902344 1.199219-13.5 3.296876-20.101563h113.398437c2.101563 6.601563 3.300781 13.199219 3.300781 20.101563zm0 0" fill="#ffda2d"/><path d="m312.703125 371.390625c2.101563 6.601563 3.300781 13.199219 3.300781 20.101563 0 32.996093-27 59.996093-59.996094 59.996093v-80.097656zm0 0" fill="#fdbf00"/><path d="m388.902344 384.292969c-3 4.496093-7.800782 7.199219-12.898438 7.199219h-239.996094c-5.097656 0-9.902343-2.703126-12.898437-7.199219-2.703125-4.203125-2.703125-9.902344-.601563-14.402344l28.5-38.398437h209.992188l28.5 38.398437c2.101562 4.5 2.101562 10.199219-.597656 14.402344zm0 0" fill="#fdbf00"/><path d="m388.902344 384.292969c-3 4.496093-7.800782 7.199219-12.898438 7.199219h-120v-60h105l28.5 38.398437c2.097656 4.5 2.097656 10.199219-.601562 14.402344zm0 0" fill="#ff9100"/></svg>