<?xml version="1.0" encoding="iso-8859-1"?>
<!-- Generator: Adobe Illustrator 19.0.0, SVG Export Plug-In . SVG Version: 6.00 Build 0)  -->
<svg version="1.1" id="Layer_1" xmlns="http://www.w3.org/2000/svg" xmlns:xlink="http://www.w3.org/1999/xlink" x="0px" y="0px"
	 viewBox="0 0 505 505" style="enable-background:new 0 0 505 505;" xml:space="preserve">
<circle style="fill:#FFD05B;" cx="252.5" cy="252.5" r="252.5"/>
<path style="fill:#FF7058;" d="M371.8,106.3H187.5v292.4h184.3c4.9,0,8.9-4,8.9-8.9V115.1C380.7,110.2,376.7,106.3,371.8,106.3z"/>
<g>
	<path style="fill:#324A5E;" d="M129.4,398.7h58.1V106.3h-58.1c-2.8,0-5,2.3-5,5v282.4C124.3,396.5,126.6,398.7,129.4,398.7z"/>
</g>
<path style="fill:#E6E9EE;" d="M257.9,317.4c57.4-25.7,86.3-78.7,93.3-93.2c6.8-11.4,3.1-27.2-8.5-38.1c-1.7-1.6-4.5-1.3-5.9,0.6
	l-28.1,39.2c-1.4,1.9-0.8,4.6,1.3,5.7c3,1.6,6.1,2.8,9.2,3.6c-11.3,15.6-27.9,34.6-50.1,50.7c-0.8-3.3-5-9.6-6.7-12.8
	c-1.1-2.1-3.8-2.7-5.7-1.3l-39.2,28.1c-1.9,1.4-2.2,4.1-0.6,5.9C227.8,317.3,246.5,324,257.9,317.4z"/>
<g>
</g>
<g>
</g>
<g>
</g>
<g>
</g>
<g>
</g>
<g>
</g>
<g>
</g>
<g>
</g>
<g>
</g>
<g>
</g>
<g>
</g>
<g>
</g>
<g>
</g>
<g>
</g>
<g>
</g>
</svg>
