<svg id="Layer_1" data-name="Layer 1" xmlns="http://www.w3.org/2000/svg" xmlns:xlink="http://www.w3.org/1999/xlink" viewBox="0 0 1006.04 901.77"><defs><style>.cls-1,.cls-2{opacity:0.43;}.cls-1{fill:url(#linear-gradient);}.cls-2{fill:url(#linear-gradient-2);}.cls-3,.cls-4,.cls-5{opacity:0.22;}.cls-3,.cls-35,.cls-36,.cls-4,.cls-40,.cls-46,.cls-5,.cls-69{isolation:isolate;}.cls-3{fill:url(#linear-gradient-3);}.cls-4{fill:url(#linear-gradient-4);}.cls-5{fill:url(#linear-gradient-5);}.cls-24,.cls-41,.cls-6,.cls-8{fill:#16205c;}.cls-6{opacity:0.06;}.cls-7{fill:url(#linear-gradient-6);}.cls-8{opacity:0.12;}.cls-9{fill:url(#linear-gradient-7);}.cls-10{fill:url(#linear-gradient-8);}.cls-11{fill:url(#linear-gradient-9);}.cls-12{fill:url(#linear-gradient-10);}.cls-13{fill:url(#linear-gradient-11);}.cls-14{fill:url(#linear-gradient-12);}.cls-15{fill:url(#linear-gradient-13);}.cls-16{fill:url(#linear-gradient-14);}.cls-17{fill:url(#linear-gradient-15);}.cls-18{fill:url(#linear-gradient-16);}.cls-19,.cls-25{fill:none;}.cls-19{stroke-miterlimit:10;stroke-width:3.93px;stroke-dasharray:9.45 9.45;stroke:url(#linear-gradient-17);}.cls-20{fill:url(#linear-gradient-18);}.cls-21{fill:url(#linear-gradient-19);}.cls-22{fill:url(#linear-gradient-20);}.cls-23,.cls-34{fill:#f0f9fd;}.cls-23{opacity:0.29;}.cls-24,.cls-69{opacity:0.17;}.cls-26{fill:url(#linear-gradient-21);}.cls-27{fill:url(#linear-gradient-22);}.cls-28{fill:url(#linear-gradient-23);}.cls-29{fill:url(#linear-gradient-24);}.cls-30{fill:url(#linear-gradient-25);}.cls-31{fill:url(#linear-gradient-26);}.cls-32{fill:url(#linear-gradient-27);}.cls-33{fill:url(#linear-gradient-28);}.cls-35,.cls-36{opacity:0.26;}.cls-35{fill:url(#linear-gradient-29);}.cls-36{fill:url(#linear-gradient-30);}.cls-37{fill:url(#linear-gradient-31);}.cls-38{fill:#222a72;}.cls-39{fill:url(#linear-gradient-32);}.cls-40{opacity:0.44;fill:url(#linear-gradient-33);}.cls-41{opacity:0.25;}.cls-42{fill:url(#linear-gradient-34);}.cls-43{fill:url(#linear-gradient-35);}.cls-44{fill:#151f5b;}.cls-45{fill:url(#linear-gradient-36);}.cls-46{fill:#fff;opacity:0.34;}.cls-47{fill:#169099;}.cls-48{fill:#33bdd0;}.cls-49{fill:#69d7e0;}.cls-50{fill:url(#linear-gradient-37);}.cls-51{fill:url(#linear-gradient-38);}.cls-52{fill:#3a4d57;}.cls-53{fill:#52666f;}.cls-54{fill:url(#linear-gradient-39);}.cls-55{fill:url(#linear-gradient-40);}.cls-56{fill:url(#linear-gradient-41);}.cls-57{fill:url(#linear-gradient-42);}.cls-58{fill:url(#linear-gradient-43);}.cls-59{fill:url(#linear-gradient-44);}.cls-60{fill:url(#linear-gradient-45);}.cls-61{fill:url(#linear-gradient-46);}.cls-62{fill:url(#linear-gradient-47);}.cls-63{fill:url(#linear-gradient-48);}.cls-64{fill:url(#linear-gradient-49);}.cls-65{fill:url(#linear-gradient-50);}.cls-66{fill:url(#linear-gradient-51);}.cls-67{fill:url(#linear-gradient-52);}.cls-68{fill:url(#linear-gradient-53);}.cls-69{fill:url(#linear-gradient-54);}.cls-70{fill:url(#linear-gradient-55);}.cls-71{fill:url(#linear-gradient-56);}.cls-72{fill:url(#linear-gradient-57);}.cls-73{fill:url(#linear-gradient-58);}.cls-74{fill:url(#linear-gradient-59);}.cls-75{fill:url(#linear-gradient-60);}.cls-76{fill:url(#linear-gradient-61);}.cls-77{fill:url(#linear-gradient-62);}.cls-78{fill:url(#linear-gradient-63);}.cls-79{fill:url(#linear-gradient-64);}.cls-80{fill:url(#linear-gradient-65);}.cls-81{fill:url(#linear-gradient-66);}.cls-82{fill:url(#linear-gradient-67);}.cls-83{fill:url(#linear-gradient-68);}.cls-84{fill:url(#linear-gradient-69);}.cls-85{fill:url(#linear-gradient-70);}</style><linearGradient id="linear-gradient" x1="-2151.7" y1="38.96" x2="-2386.42" y2="362.98" gradientTransform="translate(2710.83)" gradientUnits="userSpaceOnUse"><stop offset="0" stop-color="#68e1fd"/><stop offset="1" stop-color="#69b9eb"/></linearGradient><linearGradient id="linear-gradient-2" x1="-2164.68" y1="43.98" x2="-2399.4" y2="368" xlink:href="#linear-gradient"/><linearGradient id="linear-gradient-3" x1="373.89" y1="801.96" x2="783.25" y2="801.96" gradientTransform="translate(0 -232)" xlink:href="#linear-gradient"/><linearGradient id="linear-gradient-4" x1="851.5" y1="553.06" x2="129.77" y2="553.06" gradientTransform="matrix(1, 0, 0, 1, 0, 0)" xlink:href="#linear-gradient"/><linearGradient id="linear-gradient-5" x1="1107.95" y1="624.25" x2="1517.31" y2="624.25" gradientTransform="translate(1688.5 1115.39) rotate(180)" xlink:href="#linear-gradient"/><linearGradient id="linear-gradient-6" x1="423.25" y1="658.01" x2="655.76" y2="658.01" gradientTransform="matrix(1, 0, 0, 1, 0, 0)" xlink:href="#linear-gradient"/><linearGradient id="linear-gradient-7" x1="658.88" y1="676.05" x2="654.14" y2="812.23" gradientTransform="matrix(1, 0, 0, 1, 0, 0)" xlink:href="#linear-gradient"/><linearGradient id="linear-gradient-8" x1="633.3" y1="629.25" x2="712.34" y2="629.25" gradientTransform="matrix(1, 0, 0, 1, 0, 0)" xlink:href="#linear-gradient"/><linearGradient id="linear-gradient-9" x1="599.07" y1="607.25" x2="659.07" y2="641.2" gradientTransform="matrix(1, 0, 0, 1, 0, 0)" xlink:href="#linear-gradient"/><linearGradient id="linear-gradient-10" x1="570.17" y1="617.48" x2="601.11" y2="741.82" gradientTransform="matrix(1, 0, 0, 1, 0, 0)" xlink:href="#linear-gradient"/><linearGradient id="linear-gradient-11" x1="634.06" y1="648.14" x2="647.87" y2="698.27" gradientTransform="matrix(1, 0, 0, 1, 0, 0)" xlink:href="#linear-gradient"/><linearGradient id="linear-gradient-12" x1="582.52" y1="660.99" x2="592.58" y2="700.66" gradientTransform="matrix(1, 0, 0, 1, 0, 0)" xlink:href="#linear-gradient"/><linearGradient id="linear-gradient-13" x1="614.12" y1="660.23" x2="635.04" y2="687.17" gradientTransform="matrix(1, 0, 0, 1, 0, 0)" xlink:href="#linear-gradient"/><linearGradient id="linear-gradient-14" x1="621.46" y1="658.88" x2="636.56" y2="683.83" gradientTransform="matrix(1, 0, 0, 1, 0, 0)" xlink:href="#linear-gradient"/><linearGradient id="linear-gradient-15" x1="545.44" y1="646.23" x2="582.87" y2="646.23" gradientTransform="matrix(1, 0, 0, 1, 0, 0)" xlink:href="#linear-gradient"/><linearGradient id="linear-gradient-16" x1="590.57" y1="673.03" x2="828" y2="789.08" gradientTransform="matrix(1, 0, 0, 1, 0, 0)" xlink:href="#linear-gradient"/><linearGradient id="linear-gradient-17" x1="201.22" y1="292.63" x2="798.11" y2="637.25" gradientTransform="translate(961.89 -37.24) rotate(89.69)" xlink:href="#linear-gradient"/><linearGradient id="linear-gradient-18" x1="37.81" y1="414.87" x2="270.32" y2="414.87" gradientTransform="matrix(1, 0, 0, 1, 0, 0)" xlink:href="#linear-gradient"/><linearGradient id="linear-gradient-19" x1="21.4" y1="495.81" x2="-178.73" y2="691.2" gradientTransform="matrix(1, 0, 0, 1, 0, 0)" xlink:href="#linear-gradient"/><linearGradient id="linear-gradient-20" x1="221.26" y1="381.45" x2="325.17" y2="381.45" gradientTransform="matrix(1, 0, 0, 1, 0, 0)" xlink:href="#linear-gradient"/><linearGradient id="linear-gradient-21" x1="714.73" y1="320.77" x2="947.25" y2="320.77" gradientTransform="matrix(1, 0, 0, 1, 0, 0)" xlink:href="#linear-gradient"/><linearGradient id="linear-gradient-22" x1="834.94" y1="355.38" x2="947.25" y2="355.38" gradientTransform="matrix(1, 0, 0, 1, 0, 0)" xlink:href="#linear-gradient"/><linearGradient id="linear-gradient-23" x1="850.42" y1="261.19" x2="960.76" y2="261.19" gradientTransform="matrix(1, 0, 0, 1, 0, 0)" xlink:href="#linear-gradient"/><linearGradient id="linear-gradient-24" x1="560.93" y1="504.17" x2="566.26" y2="518.97" gradientTransform="matrix(1, 0, 0, 1, 0, 0)" xlink:href="#linear-gradient"/><linearGradient id="linear-gradient-25" x1="522.5" y1="456.03" x2="502.07" y2="481.49" gradientTransform="matrix(1, 0, 0, 1, 0, 0)" xlink:href="#linear-gradient"/><linearGradient id="linear-gradient-26" x1="524.52" y1="459.68" x2="504.39" y2="519.79" gradientTransform="matrix(1, 0, 0, 1, 0, 0)" xlink:href="#linear-gradient"/><linearGradient id="linear-gradient-27" x1="492.08" y1="410.41" x2="524.06" y2="460.74" gradientTransform="matrix(1, 0, 0, 1, 0, 0)" xlink:href="#linear-gradient"/><linearGradient id="linear-gradient-28" x1="632.36" y1="568.57" x2="485.03" y2="568.57" gradientTransform="matrix(1, 0, 0, 1, 0, 0)" xlink:href="#linear-gradient"/><linearGradient id="linear-gradient-29" x1="561.65" y1="500.04" x2="582.86" y2="500.04" gradientUnits="userSpaceOnUse"><stop offset="0" stop-color="#69e3ff"/><stop offset="1" stop-color="#69bbed"/></linearGradient><linearGradient id="linear-gradient-30" x1="1576.15" y1="464" x2="1585.07" y2="464" gradientTransform="matrix(-1, 0, 0, 1, 2216.89, 0)" xlink:href="#linear-gradient-29"/><linearGradient id="linear-gradient-31" x1="1603.24" y1="383.9" x2="1643.9" y2="383.9" gradientTransform="matrix(-1, 0, 0, 1, 2216.89, 0)" gradientUnits="userSpaceOnUse"><stop offset="0" stop-color="#eec6d9"/><stop offset="0.42" stop-color="#f1d6d3"/><stop offset="1" stop-color="#f4eccb"/></linearGradient><linearGradient id="linear-gradient-32" x1="1633.17" y1="383.23" x2="1624.57" y2="386.79" xlink:href="#linear-gradient-31"/><linearGradient id="linear-gradient-33" x1="1606.13" y1="405.77" x2="1634.03" y2="405.77" gradientTransform="matrix(-1, 0, 0, 1, 2216.89, 0)" xlink:href="#linear-gradient-29"/><linearGradient id="linear-gradient-34" x1="493.05" y1="485.69" x2="521.56" y2="485.69" gradientTransform="matrix(1, 0, 0, 1, 0, 0)" xlink:href="#linear-gradient-31"/><linearGradient id="linear-gradient-35" x1="773.62" y1="2335.6" x2="795.96" y2="2335.6" gradientTransform="translate(0 -2178.14)" gradientUnits="userSpaceOnUse"><stop offset="0" stop-color="#183866"/><stop offset="1" stop-color="#1a7fc3"/></linearGradient><linearGradient id="linear-gradient-36" x1="870.59" y1="1117.51" x2="958.29" y2="1117.51" gradientTransform="matrix(0.99, 0.14, 0.14, -0.99, -235.79, 1163.17)" xlink:href="#linear-gradient-35"/><linearGradient id="linear-gradient-37" x1="875.99" y1="2384.54" x2="779.29" y2="2331.55" xlink:href="#linear-gradient-35"/><linearGradient id="linear-gradient-38" x1="809.53" y1="2184.89" x2="800.38" y2="2154.75" gradientTransform="translate(200.6 -2045.37) rotate(6.34)" xlink:href="#linear-gradient-31"/><linearGradient id="linear-gradient-39" x1="1366.92" y1="-643.79" x2="1386.83" y2="-643.79" gradientTransform="matrix(0.53, 0.85, -0.85, 0.53, -478.26, -617.93)" xlink:href="#linear-gradient-31"/><linearGradient id="linear-gradient-40" x1="825.06" y1="2297.98" x2="799.22" y2="2318.45" gradientTransform="translate(0 -2178.14)" xlink:href="#linear-gradient-31"/><linearGradient id="linear-gradient-41" x1="847.7" y1="2103.99" x2="853.42" y2="2115.42" gradientTransform="translate(200.6 -2045.37) rotate(6.34)" xlink:href="#linear-gradient-31"/><linearGradient id="linear-gradient-42" x1="600.26" y1="2334.64" x2="637.29" y2="2334.64" gradientTransform="translate(203.82 -2234.45) rotate(0.57)" xlink:href="#linear-gradient-31"/><linearGradient id="linear-gradient-43" x1="857.64" y1="2080.16" x2="868.13" y2="2066.8" gradientTransform="translate(200.6 -2045.37) rotate(6.34)" xlink:href="#linear-gradient-31"/><linearGradient id="linear-gradient-44" x1="849.97" y1="2140.76" x2="887.25" y2="2140.76" gradientTransform="translate(200.6 -2045.37) rotate(6.34)" xlink:href="#linear-gradient-35"/><linearGradient id="linear-gradient-45" x1="847.22" y1="2164.73" x2="866.78" y2="2164.73" gradientTransform="translate(200.6 -2045.37) rotate(6.34)" xlink:href="#linear-gradient-35"/><linearGradient id="linear-gradient-46" x1="807.48" y1="2156.64" x2="823.4" y2="2156.64" gradientTransform="translate(200.6 -2045.37) rotate(6.34)" xlink:href="#linear-gradient-35"/><linearGradient id="linear-gradient-47" x1="-4140.96" y1="1192.32" x2="-4107.61" y2="1192.32" gradientTransform="matrix(0.98, -0.2, -0.2, -0.98, 4551.9, 734.37)" xlink:href="#linear-gradient-31"/><linearGradient id="linear-gradient-48" x1="-4241.81" y1="1298.37" x2="-4205.19" y2="1298.37" gradientTransform="matrix(1, 0.08, 0.08, -1, 4296.91, 1819.46)" gradientUnits="userSpaceOnUse"><stop offset="0" stop-color="#d09bc0"/><stop offset="0.21" stop-color="#cc93ba"/><stop offset="0.54" stop-color="#c17ea9"/><stop offset="0.95" stop-color="#b05b8d"/><stop offset="0.96" stop-color="#af5a8c"/></linearGradient><linearGradient id="linear-gradient-49" x1="-4247.53" y1="1261.1" x2="-4219.87" y2="1261.1" gradientTransform="matrix(1, 0.08, 0.08, -1, 4296.91, 1819.46)" xlink:href="#linear-gradient-31"/><linearGradient id="linear-gradient-50" x1="-4181.56" y1="1266.37" x2="-4239.06" y2="1262.74" gradientTransform="matrix(1, 0.08, 0.08, -1, 4296.91, 1819.46)" gradientUnits="userSpaceOnUse"><stop offset="0" stop-color="#eec6d9"/><stop offset="0.42" stop-color="#785757"/><stop offset="1" stop-color="#f4eccb"/></linearGradient><linearGradient id="linear-gradient-51" x1="-3852.24" y1="1669.92" x2="-3817.99" y2="1669.92" gradientTransform="matrix(0.91, -0.42, -0.42, -0.91, 4413.88, 336.32)" xlink:href="#linear-gradient-48"/><linearGradient id="linear-gradient-52" x1="-4204.49" y1="1193.61" x2="-4172.07" y2="1193.61" gradientTransform="matrix(1, 0.08, 0.08, -1, 4296.91, 1819.46)" xlink:href="#linear-gradient-31"/><linearGradient id="linear-gradient-53" x1="-4178.58" y1="1171.79" x2="-4166.22" y2="1171.79" gradientTransform="matrix(1, 0.08, 0.08, -1, 4296.91, 1819.46)" xlink:href="#linear-gradient-31"/><linearGradient id="linear-gradient-54" x1="-4202.45" y1="1187.1" x2="-4177.33" y2="1187.1" xlink:href="#linear-gradient-50"/><linearGradient id="linear-gradient-55" x1="-4211.76" y1="1216.35" x2="-4191.82" y2="1216.35" gradientTransform="matrix(1, 0.08, 0.08, -1, 4296.91, 1819.46)" xlink:href="#linear-gradient-35"/><linearGradient id="linear-gradient-56" x1="-4344.67" y1="1038.85" x2="-4276.5" y2="1038.85" gradientTransform="matrix(0.99, 0.15, 0.15, -0.99, 4255.17, 1944.67)" xlink:href="#linear-gradient-35"/><linearGradient id="linear-gradient-57" x1="-4234.47" y1="1234.03" x2="-4273.22" y2="1102.33" gradientTransform="matrix(1, 0.08, 0.08, -1, 4296.91, 1819.46)" xlink:href="#linear-gradient-35"/><linearGradient id="linear-gradient-58" x1="-4252.12" y1="1289.78" x2="-4214.13" y2="1289.78" gradientTransform="matrix(1, 0.08, 0.08, -1, 4296.91, 1819.46)" xlink:href="#linear-gradient-31"/><linearGradient id="linear-gradient-59" x1="-3846.92" y1="1646.59" x2="-3812.68" y2="1646.59" gradientTransform="matrix(0.91, -0.43, -0.43, -0.91, 4419.59, 325.3)" xlink:href="#linear-gradient-48"/><linearGradient id="linear-gradient-60" x1="-4246.26" y1="1180.61" x2="-4168.09" y2="1180.61" gradientTransform="matrix(1, 0.08, 0.08, -1, 4296.91, 1819.46)" xlink:href="#linear-gradient-31"/><linearGradient id="linear-gradient-61" x1="-4345.46" y1="1039.8" x2="-4310.1" y2="1039.8" gradientTransform="matrix(0.99, 0.15, 0.15, -0.99, 4255.17, 1944.67)" xlink:href="#linear-gradient-35"/><linearGradient id="linear-gradient-62" x1="-4267.13" y1="1288.1" x2="-4221.65" y2="1288.1" xlink:href="#linear-gradient-48"/><linearGradient id="linear-gradient-63" x1="-4250.05" y1="1281.39" x2="-4247.3" y2="1307.04" xlink:href="#linear-gradient-48"/><linearGradient id="linear-gradient-64" x1="-4256.9" y1="1259.85" x2="-4252.78" y2="1298.4" xlink:href="#linear-gradient-48"/><linearGradient id="linear-gradient-65" x1="-4151.49" y1="1148.54" x2="-4118.15" y2="1148.54" gradientTransform="matrix(0.98, -0.2, -0.2, -0.98, 4551.9, 734.37)" xlink:href="#linear-gradient-31"/><linearGradient id="linear-gradient-66" x1="-4218.36" y1="1184.12" x2="-4184.79" y2="1058.8" xlink:href="#linear-gradient-50"/><linearGradient id="linear-gradient-67" x1="220.3" y1="256.65" x2="205.3" y2="247.38" gradientTransform="matrix(1, 0, 0, 1, 0, 0)" xlink:href="#linear-gradient-35"/><linearGradient id="linear-gradient-68" x1="274.09" y1="287.1" x2="224.63" y2="260" gradientUnits="userSpaceOnUse"><stop offset="0.44" stop-color="#183866"/><stop offset="1" stop-color="#1a7fc3"/></linearGradient><linearGradient id="linear-gradient-69" x1="243.47" y1="307.28" x2="193.04" y2="279.65" gradientTransform="matrix(1, 0, 0, 1, 0, 0)" xlink:href="#linear-gradient-35"/><linearGradient id="linear-gradient-70" x1="216.29" y1="287.03" x2="227.74" y2="310.72" gradientTransform="matrix(1, 0, 0, 1, 0, 0)" xlink:href="#linear-gradient-35"/></defs><title>Working with global </title><path class="cls-1" d="M386.92,237l161.75,93.5a17.67,17.67,0,0,0,26.51-15.3V148.52a54.5,54.5,0,0,0-26.83-47L383.61,4.44A17.68,17.68,0,0,0,357,19.66V185.08A60,60,0,0,0,386.92,237Z"/><path class="cls-2" d="M373.94,242l161.75,93.5a17.67,17.67,0,0,0,26.51-15.3V153.54a54.52,54.52,0,0,0-26.82-47L370.63,9.46A17.68,17.68,0,0,0,344,24.69V190.1A60,60,0,0,0,373.94,242Z"/><path class="cls-3" d="M783.25,471.35h0a27.27,27.27,0,0,1-14,23.82L450,672.5l-36.92,19.73a26.59,26.59,0,0,1-25.46-46.68L743.52,447.94A26.75,26.75,0,0,1,783.25,471.35Z"/><path class="cls-4" d="M840.35,386.28l-148,82.49-1.65.92C735.38,489,769,533,769,588.49A137.2,137.2,0,0,1,699.19,708L396.75,878.66,359.9,898.45a26.59,26.59,0,0,1-25.46-46.69l124.11-69c27.87-21.23.06-53.07-29.7-40.31L303.38,811.78A29.55,29.55,0,0,1,274,760.54l11.46-8.79,2.28-1.76a17.24,17.24,0,0,0,.07-29.63l-4.18-2.47a45.69,45.69,0,0,0-44.93-1l-77,41a22.42,22.42,0,0,1-23.17-1.75,21.65,21.65,0,0,1,2.47-36.27l148-82.49,1.65-.92c-44.69-19.31-78.26-63.29-78.26-118.8a137.21,137.21,0,0,1,69.77-119.48L584.51,227.46l36.86-19.8a26.59,26.59,0,0,1,25.45,46.7l-124.1,68.95c-27.88,21.23-.07,53.07,29.69,40.31l125.47-69.28a29.55,29.55,0,0,1,29.43,51.24l-11.46,8.79-2.27,1.76a17.23,17.23,0,0,0-.07,29.62l4.17,2.48a45.69,45.69,0,0,0,44.93,1l77-41A22.46,22.46,0,0,1,842.82,350,21.65,21.65,0,0,1,840.35,386.28Z"/><path class="cls-5" d="M171.19,589.75h0a27.28,27.28,0,0,1,14-23.82L504.46,388.6l36.92-19.73a26.59,26.59,0,0,1,25.46,46.68L210.92,613.16A26.74,26.74,0,0,1,171.19,589.75Z"/><ellipse class="cls-6" cx="209.95" cy="590.67" rx="53.69" ry="92.99" transform="translate(-381.85 797.41) rotate(-89.69)"/><ellipse class="cls-6" cx="827.42" cy="459.31" rx="53.69" ry="92.99" transform="translate(363.62 1284.23) rotate(-89.69)"/><ellipse class="cls-6" cx="605.4" cy="808.66" rx="53.69" ry="92.99" transform="translate(-206.54 1409.67) rotate(-89.69)"/><path class="cls-7" d="M715.31,658A116.3,116.3,0,1,1,599.06,541.76,115.63,115.63,0,0,1,715.31,658Z"/><path class="cls-8" d="M541,584.79c9.11.53,18.06,2.57,27,4.15a276.37,276.37,0,0,0,47.26,4.16c5.35,0,11-.23,15.51-3.1,9.73-6.19,9.1-20.38,7-31.7-.66-3.53-1.48-7.27-4-9.78-3.23-3.15-8.22-3.42-12.73-3.48-22.28-.3-44.89-.18-66.33,5.88-15.31,4.33-32.86,12.46-43,25.25C494.94,597.19,528.27,584.05,541,584.79Z"/><path class="cls-6" d="M715.32,662.39A116.24,116.24,0,0,1,608.85,773.87l-5.36.32s0,0-.08,0c-1.41.06-2.83.08-4.25.08a115.73,115.73,0,0,1-71.67-24.71c65.56,10.2,103.79-42.17,131-68.22C676.62,664,701,661.88,715.32,662.39Z"/><path class="cls-9" d="M697.22,720.32a116.3,116.3,0,0,1-75,51.63c-3.09-3.79-3.61-11.4-3.5-15.89.08-3.77.73-7.62-.28-11.25-.44-1.57-1.18-3-1.46-4.65-1.06-5.85,3.87-10.9,8.36-14.77l-.73,4.88a70.39,70.39,0,0,1,15-8c4-1.56,8.21-2.73,12.11-4.57a40,40,0,0,0,14.35-11.35l4.79,3.91a5.68,5.68,0,0,0,2.46,1.4c2.28.43,4.19-2.13,4.16-4.47s-1.26-4.43-2.15-6.59-1.41-4.77-.1-6.7c2.25,1.16,3.92,3.17,5.51,5.11L689.86,710A66,66,0,0,1,697.22,720.32Z"/><path class="cls-10" d="M684.21,620.54a15.55,15.55,0,0,0-4.05-2.53,14.15,14.15,0,0,0-4.63-.62,69.94,69.94,0,0,0-14.72,1.46c-4.95-2.77-5.63-11.8-11.3-11.78a9,9,0,0,0-3.41.94l-10.82,4.6c-.83.35-1.77.83-1.95,1.71-.28,1.33,1.29,2.22,2.59,2.61a54,54,0,0,0,18,2.24c1.88,2.82,4.9,4.64,7.25,7.08s4.07,6.16,2.5,9.17a12.05,12.05,0,0,1,12.54,8.18L671,644.79c5.16-1,10.49-.38,15.71.24l3,.36a16.81,16.81,0,0,1,5.88,1.43c1,.54,2,1.28,3,1.81,4.21,2.13,9.71.33,13.73,2.8,0,0-1.33-7.59-1.89-8.63a29.47,29.47,0,0,0-7.6-8.37C696.86,629.66,690.3,625.29,684.21,620.54Z"/><path class="cls-11" d="M611,603.46a1.25,1.25,0,0,1,.76,0l4,1.2a3.37,3.37,0,0,0-.28-4.67,5.05,5.05,0,0,0-4.92-.85,10.57,10.57,0,0,0-4.27,2.92,16.82,16.82,0,0,0-3.93,6,24.89,24.89,0,0,0-1.08,6.25l-.77,8.82a2.18,2.18,0,0,0,.35,1.72,2.14,2.14,0,0,0,1.76.38c1.3-.1,2.83-.35,3.41-1.52.35-.69.28-1.61.85-2.13.75-.71,2-.18,2.84.36l2.39,1.48a2.38,2.38,0,0,0,1.59.52c1.34-.23,1.25-2.24.51-3.38s-1.82-2.4-1.31-3.66c.32-.81,1.18-1.23,1.88-1.74a6,6,0,0,0,2.37-4.1c.72-6.31-5.87.55-7.66.16C606.9,610.66,608.84,604.28,611,603.46Z"/><path class="cls-12" d="M590.62,614l-7.51-4.53c-1.44-.87-3-1.83-3.64-3.38a9.13,9.13,0,0,0-.8-1.93,3,3,0,0,0-3.55-.7,8.76,8.76,0,0,0-3,2.5l-13.35,15.22a14.08,14.08,0,0,0-4.53,11.58c-.21,5.68.05,12.38,4.74,15.59,10.74-5.92,24.64-3.25,35.42-9.09a22.38,22.38,0,0,0-.49-8A4.46,4.46,0,0,0,592.9,629a7,7,0,0,0-2.15-1.12c-2.15-1-5.08-3.72-4.93-6.32C585.88,620.66,590.67,614,590.62,614Z"/><path class="cls-13" d="M636.23,658a68,68,0,0,0,8.19-5.59c.5.6.16,1.51-.26,2.18-2.4,3.86-6.62,6.64-7.87,11-.37,1.28-.6,2.83-1.79,3.43a3.33,3.33,0,0,1-1.4.27c-3.92.13-3.34-3.12-2.34-5.85S633.85,659.34,636.23,658Z"/><path class="cls-14" d="M593.74,662.36c-3.09.65-6.18,1.8-9.33,1.49-1.44-.14-2.9-.58-4.32-.28-1,.2-1.92.75-2.9.59s-1.56-.8-2.42-1c-2.15-.45-4.22,2.25-6.25,1.42-.92-.38-1.54-1.42-2.52-1.51l-3.8,6.47c.73,1.46,2.77,1.7,4.35,1.26s3-1.36,4.66-1.52c2.72-.26,5.16,1.62,7.84,2.21,5.3,1.17,10.81-2.81,16.05-1.41a2.59,2.59,0,0,0,2.09,0,3.41,3.41,0,0,0,.73-.87,4.39,4.39,0,0,1,3.63-1.35c1.34,0,2.66.35,4,.31a.91.91,0,0,0,1-1.35C605.21,662,597.71,661.53,593.74,662.36Z"/><path class="cls-15" d="M616.3,662a5.27,5.27,0,0,0-2.27.24,1.8,1.8,0,0,0-1.19,1.77c.11.78.89,1.34,1,2.11a5.81,5.81,0,0,0,.07,1.11,1.23,1.23,0,0,0,1,.71,4.51,4.51,0,0,0,1.27,0,1.25,1.25,0,0,1,1.18.34c.26.36.1.85,0,1.28s.13,1,.57,1a.84.84,0,0,0,.44-.2c.58-.41,1.23-1,1.1-1.68-.05-.24-.19-.45-.26-.68a.59.59,0,0,1,.15-.66.71.71,0,0,1,.33-.1l1.85-.25a.6.6,0,0,0,.33-.12.72.72,0,0,0,.1-.29l.33-2.37a1.7,1.7,0,0,0,0-.84c-.19-.48-.76-.66-1.26-.78A21.8,21.8,0,0,0,616.3,662Z"/><path class="cls-16" d="M626.68,661.34,625,659.82c-.08-.07-.19-.14-.28-.1a.21.21,0,0,0-.12.14,5.23,5.23,0,0,0-.19,3.23,13,13,0,0,1,.46,3.26,7.29,7.29,0,0,1-.7,2.5c-.11.24-.21.53-.06.73a.67.67,0,0,0,.35.19,5.11,5.11,0,0,0,1.65.24,1.27,1.27,0,0,0,.74-.17,1.5,1.5,0,0,0,.47-1.25l.23-4.24A3.82,3.82,0,0,0,626.68,661.34Z"/><path class="cls-17" d="M512.25,623.82c-1.14,3.48.43,7.22,2,10.54,2.91,6.28,5.87,12.63,10.23,18,4.78,5.88,11.07,10.39,15.83,16.27l2.42-4.34a2.79,2.79,0,0,0,3.55,2,2.85,2.85,0,0,0,1.45-3.72c4.51.43-2-7.23-2.78-8.52a85.26,85.26,0,0,0-9.11-12A84.22,84.22,0,0,0,512.25,623.82Z"/><path class="cls-18" d="M546.05,581.85c-2.3,2.43-5.18,4.63-6,7.86-.56,2.24-.06,4.64-.68,6.86-.51,1.85-1.77,3.39-2.69,5.08-4.45,8.18-.55,18.2,3.37,26.65a28.35,28.35,0,0,1-16.89-23.56c-4.24-1.71-8.66,1.76-11.91,5q-5.14,5.1-10.32,10.18a55.09,55.09,0,0,0-7.38,8.35,27.35,27.35,0,0,0,16.85,41.88c-.95,8.85-1.83,18.24,2,26.29,3.68,7.72,11.46,13.61,12.59,22.1.94,7.12-3.13,13.84-7,19.86a13.07,13.07,0,0,1-1.24,1.71,116.28,116.28,0,0,1,36-188.69C556.63,560.13,552.66,574.88,546.05,581.85Z"/><ellipse class="cls-19" cx="499.67" cy="464.94" rx="216.25" ry="374.57" transform="matrix(0.01, -1, 1, 0.01, 32.02, 962.08)"/><path class="cls-20" d="M270.32,414.88c0,1.46,0,2.92-.1,4.36A116.14,116.14,0,0,1,163.75,530.73c-1.76.15-3.55.25-5.35.31h-.08c-1.41.07-2.83.09-4.25.09a116.1,116.1,0,0,1-66.71-21q-2.53-1.77-5-3.68h0A116.14,116.14,0,0,1,38,421.94c-.14-2.33-.21-4.69-.21-7.06a116.26,116.26,0,1,1,232.51,0Z"/><path class="cls-21" d="M125.29,431.58c-.14,16-.43,32.6-7.86,46.72-3.78,7.18-9.3,13.47-12,21.11s-1.63,17.67,5.38,21.75a3.48,3.48,0,0,1-.45,1.44,114.83,114.83,0,0,1-23-12.5c-7.21-7.86-13.58-16.38-16.86-26.42a60.5,60.5,0,0,1-2.72-18.13c-.07-9.33,1.52-18.7.25-27.94s-6.29-18.8-15.11-21.84c-3,5-9.19,7-14.9,6.17-.14-2.33-.21-4.69-.21-7.06A115.89,115.89,0,0,1,68,336.68c12.87-3,25.62-1.9,23,12.74-.87,4.83-5.42,9.3-3.7,13.89,1,2.61,3.75,4.18,4.94,6.69,2.4,5-2.36,10.41-6.66,14L68.49,398.15c-2.84,2.34-5.77,4.83-7.18,8.22s-.71,8,2.51,9.75c3.46,1.91,8.61.16,11.14,3.2.93,1.11,1.23,2.63,2,3.84,2,2.92,6.09,3.11,9.61,3l31.12-1c2.42-.08,5.25,0,6.65,2A7.48,7.48,0,0,1,125.29,431.58Z"/><path class="cls-22" d="M270.32,414.88c0,1.46,0,2.92-.1,4.36a115.17,115.17,0,0,1-6.75,35l-9.82,1.69a4.06,4.06,0,0,1-1.43.07c-1.83-.36-2.17-2.86-1.69-4.65s1.36-3.75.51-5.4a5.93,5.93,0,0,0-2.22-2.05L225.67,429a17.56,17.56,0,0,1,1.24,6.24c-3.42-.35-6-3.29-7.64-6.33s-2.64-6.44-4.81-9.11c-5.05-6.21-15.37-7.57-18.15-15.07-.59-1.56-.7-3.5.39-4.77a5.31,5.31,0,0,1,2.55-1.46c5.12-1.62,11.81-1.71,14.07-6.59,1.48-3.21.1-7,0-10.51A14.47,14.47,0,0,1,220.12,369a8.53,8.53,0,0,0,3-2.31,6.55,6.55,0,0,0,.8-2.9c.79-6.88,1.25-14.8-3.6-19.73a3.74,3.74,0,0,0-2.21-1.27c-1.87-.17-3.12,2.11-2.78,3.94s1.65,3.29,2.72,4.82,1.94,3.47,1.25,5.2c-2.81-.26-6.2-.27-7.81,2.05s-.45,5.38-.28,8.16a11.49,11.49,0,0,1-6.43,10.83,11.35,11.35,0,0,1-8.91.21c-.07-.38-.13-.76-.21-1.14a7.24,7.24,0,0,0-1.44-3.36,6.81,6.81,0,0,0-2.48-1.66c-4.38-1.88-9.36-1.39-14.1-1.95s-10-2.88-11.14-7.5a2.36,2.36,0,0,1,0-1.34c.24-.71,1-1.1,1.6-1.53,3.44-2.41,3.63-8.24.34-10.86q9.25-2.62,18.36-5.8c1.85-.64,4.09-2,3.65-3.89-.21-.92-1.7-1.5-2.06-.62a22.24,22.24,0,0,0-5.29-10,16.17,16.17,0,0,1-3-3.71c-.68-1.45-.63-3.41.63-4.4s2.7-.7,4.09-.88c8.09-1,6.68-10.36,12.38-12.5a116.16,116.16,0,0,1,37.27,24,9.51,9.51,0,0,1,.16,3.5c-.55,3.89-3.37,8.42-.6,11.2l1.26-4.46,16.18,10.22A115.67,115.67,0,0,1,270.32,414.88Z"/><path class="cls-6" d="M270.22,419.24A116.24,116.24,0,0,1,163.75,530.73l-5.35.31h-.08c-1.41.07-2.83.09-4.25.09A115.73,115.73,0,0,1,82.4,506.42c65.56,10.2,103.79-42.18,131-68.22C231.53,420.88,255.91,418.74,270.22,419.24Z"/><path class="cls-23" d="M62.64,373.9c6.9,2.72,10.63,14,5,21.31a42,42,0,0,1-8.09,7.87c-5.85,4.44-14-4.87-13.19-13.44S53,370.08,62.64,373.9Z"/><path class="cls-23" d="M134.74,309.28c18.89-4.19,31.19,18.89,17.13,32.18a110.25,110.25,0,0,1-20.56,14.81c-15.07,8.73-28.22,13.66-39.17,16.31-16.86,4.08-28.86-16.27-17-28.93A115.31,115.31,0,0,1,134.74,309.28Z"/><path class="cls-24" d="M114.81,346.56c2.56,5.57,7.07,10,11.94,13.76a74.92,74.92,0,0,0,16.7,9.65c12.21,5.09,26.27,7.25,35.74,16.5,6.25,6.09,9.59,14.47,14,22a85.36,85.36,0,0,0,29.89,30.17c6-7.12,1.93-17.84-2.31-26.11l-16.49-32.19c-1.79-3.49-3.62-7.15-3.6-11.07s2.54-8.13,6.42-8.64c3.72-.48,6.95,2.37,9.6,5,2.55-14.56-1.64-31.83-14.7-38.77-5.36-2.85-11.56-3.62-17.6-4.23C169,321.12,97.83,309.63,114.81,346.56Z"/><path class="cls-25" d="M192.37,375.83A11,11,0,0,0,195.9,378a20.21,20.21,0,0,1-.16,6.72A10,10,0,0,1,192.37,375.83Z"/><path class="cls-26" d="M947.25,320.77A115.89,115.89,0,1,1,943.92,293,116.23,116.23,0,0,1,947.25,320.77Z"/><path class="cls-27" d="M947.25,320.77a116.23,116.23,0,0,1-61.32,102.48c-4.27-.43-8.36-2.86-12.1-5.22-9.51-6-20.32-15.49-17.13-26.3.63-2.11,1.8-4.2,1.43-6.37-.5-3-3.61-4.7-6.21-6.31-13-8-19.74-24.88-15.92-39.64.51-2,1.29-4.06,3-5.17s3.82-1,5.81-1a32.68,32.68,0,0,0,20.42-7.76c2.54-2.18,4.78-4.77,7.7-6.39,7.92-4.39,18.09-.41,26.7-3.21,13.86-4.53,24-38,41.16-25.64a19.27,19.27,0,0,1,3.11,2.81A116.2,116.2,0,0,1,947.25,320.77Z"/><path class="cls-6" d="M947.24,325.14A116.23,116.23,0,0,1,840.77,436.62l-5.35.32h-.08c-1.41.06-2.83.08-4.25.08a115.73,115.73,0,0,1-71.67-24.71c65.56,10.2,103.79-42.17,131-68.21C908.55,326.78,932.93,324.63,947.24,325.14Z"/><path class="cls-23" d="M748.05,277.07c6.9,2.73,10.63,14,5,21.32a42.29,42.29,0,0,1-8.09,7.87c-5.85,4.44-14-4.87-13.19-13.44S738.37,273.26,748.05,277.07Z"/><path class="cls-28" d="M905.6,242.33c-3.22,4.39-10,4.52-13.75,8.48s-3.12,10.19-2.28,15.56a17.42,17.42,0,0,0-10.05,5.47,9.46,9.46,0,0,1-2.23,17c-8.42,2.67-17.73-6.77-25.69-2.93-2.48,1.2-4.22,3.5-5.83,5.75-3.83,5.35-7.48,11-12.46,15.25s-11.65,7.19-18.13,6c1-3.73-4-6.08-7.84-6.22s-8.7-.27-10.15-3.82c-1-2.47.44-5.36,2.57-7s4.79-2.27,7.31-3.12a46,46,0,0,0,22.1-16.11,4.63,4.63,0,0,0,1.19-2.94c-.2-3-4.5-2.9-7.44-3.37-6.53-1.06-9.73-9.52-7.37-15.7S824,244.48,830.08,242s12.7-4,18.44-7.28a30.53,30.53,0,0,1,9.69-21.06c1.75-1.63,3.8-3,5.61-4.41a115.42,115.42,0,0,1,42.11,22.68C907.5,235.5,907.86,239.25,905.6,242.33Z"/><path class="cls-24" d="M878.05,231.49a20.17,20.17,0,0,1,11.08,16.95c.44,10.75-7.64,19.77-15.42,27.21-7.58,7.26-15.81,14.51-26,17.22-4,1.06-8.25,1.45-11.64,3.74-7.29,4.92-6.94,15.7-4.8,24.23s5.16,18,.81,25.66c-1.17,2-3.6,4-5.68,2.86a5.37,5.37,0,0,1-2-2.34c-11.33-20.42-22.92-41.72-24.29-65-12.31,1.79-22.21,13.87-21.57,26.29.33,6.28,3,12.46,2,18.68s-8.46,12-13.34,8c-2.16-1.76-2.87-4.72-3.31-7.47a82.52,82.52,0,0,1,65.44-94.16c8.51-1.76,16.47-.89,25-1.43C862.49,231.36,870.16,227.63,878.05,231.49Z"/><path class="cls-23" d="M814.12,218.6c24.87-3.55,37.22,12.75,23.16,26a110.25,110.25,0,0,1-20.56,14.81c-15.07,8.73-28.22,13.66-39.17,16.31-16.86,4.08-28.86-16.27-17-28.93C773.39,233.12,786.37,222.56,814.12,218.6Z"/><path class="cls-29" d="M608.9,515.49s-48.63-22-59.61-18.12-18.71,44.39-18.71,44.39l62.74,11.3Z"/><path class="cls-30" d="M473.55,438.46l4.7,44a8.3,8.3,0,0,0,2.78,5.35l35.39,30.93a7.17,7.17,0,0,0,9.82-.36l41.51-37.06a6.27,6.27,0,0,0,0-9.36L543.32,450,537,404.52a4.21,4.21,0,0,0-6.23-3.08L477,431.71A6.88,6.88,0,0,0,473.55,438.46Z"/><path class="cls-31" d="M478.73,436.53l4.7,44a8.3,8.3,0,0,0,2.78,5.35l35.39,30.93a7.18,7.18,0,0,0,9.82-.36l39.47-36a6.28,6.28,0,0,0,0-9.36L546.46,449.2l-6.34-45.5a4.2,4.2,0,0,0-6.23-3.08l-51.68,29.16A6.91,6.91,0,0,0,478.73,436.53Z"/><path class="cls-32" d="M491.79,479.33,541,452.78a2.61,2.61,0,0,0,1.34-2.6l-4.92-41.79a2.59,2.59,0,0,0-3.85-2L484.42,434a2.61,2.61,0,0,0-1.31,2.58L488,477.35A2.6,2.6,0,0,0,491.79,479.33Z"/><path class="cls-33" d="M632.36,525s-2.1,16.48-6.23,28c-1.6,4.48-3.51,8.22-5.71,10-7.9,6.31-30,13.42-56.45,9.86A343.84,343.84,0,0,0,515,570l-22.79,42.11v0l-7.2-1.67s4.33-48.42,8.28-57.37,40.26-18.42,40.26-18.42L576.5,525Z"/><path class="cls-34" d="M608,401.53s-22.92,7.42-30.45,10c-19.09,6.6-15.94,60.31-15.94,60.31S564,496.19,564,504.17c0,9.28-2.35,36.74-2.35,36.74s30.9,4,43.21-3A185.71,185.71,0,0,1,632.36,525V412.75S622.78,399.28,608,401.53Z"/><polygon class="cls-35" points="582.86 457.2 582.86 542.89 561.65 540.91 565.94 480.41 582.86 457.2"/><path class="cls-34" d="M631,497.37s19.39-36.25,18.28-43.71-16.93-40.91-16.93-40.91l-.87,12.43,0,8.07L631.06,489Z"/><path class="cls-36" d="M631.82,487.73c5.39-11,9.49-21.13,8.85-25.48-.62-4.19-3.88-12.12-8.54-22Z"/><path class="cls-37" d="M585.71,408.1l-.28-11.57s-9.35.12-10.46-1-2.09-11.08-2-12.93,1.85-6,2.09-8.37-1.6-3.45-1.48-5.42S576.94,358,576.94,358s36.19,1.36,36.68,8.62S607.84,392,607.84,392l-.4,10.24S600.85,414.13,585.71,408.1Z"/><path class="cls-38" d="M577.71,350s8.58-.74,11.82-1.94,17.63-2.77,22.61,4.71,4.34,9.42,4.34,9.42,3,6,1.3,11.91S607.84,392,607.84,392s-5.2,3.41-7.42,1.1-9.33-15.23-13.3-13.11-4.24,4.9-4.24,4.9-.46-7.94-1.29-10-3.51-3.7-2.22-8,3.14-5.44,1.75-5.9-3.66-.28-4.18-3S576.05,350.8,577.71,350Z"/><path class="cls-39" d="M586.31,381.69s2.15-1.38,2.51.33.2,4.94-1.25,5.65a2.3,2.3,0,0,1-2.37,0A12.58,12.58,0,0,1,586.31,381.69Z"/><path class="cls-40" d="M607.52,400.08l3.24,1.2s.37,7.11-5.91,9.05-16.38,1.29-22-1.34l2.85-.89S604.29,409.59,607.52,400.08Z"/><path class="cls-38" d="M485,610.42s-19.24,7.21-18.94,9.87,21.84,3.53,21.84,3.53l4.31-11.72Z"/><path class="cls-41" d="M563.64,513.67s-18,1.16-21.08,19l20.11-4.49Z"/><path class="cls-41" d="M626.13,553.06v0c-1.6,4.48-3.51,8.22-5.71,10-7.9,6.31-30,13.42-56.45,9.86A343.84,343.84,0,0,0,515,570l-22.79,42.11c.3-1.29,9.85-42.75,16.07-46.26s60.39-1.17,72.23-4.34S626.13,553.06,626.13,553.06Z"/><path class="cls-42" d="M515.06,479.1a29.83,29.83,0,0,0-8.32-2.81,2.85,2.85,0,0,0-2.19.09c-.63.41-.63,1.64.12,1.74l-9.33-.78a2.38,2.38,0,0,0-1.93.4,1.6,1.6,0,0,0-.13,1.86,4.71,4.71,0,0,0,1.4,1.41c-.26-.2-.67.08-.7.41a1.38,1.38,0,0,0,.35.9l1.25,1.82c2.65,3.87,5.7,8,10.25,9.17,3.34.84,7.08-.09,10.19,1.4a3.08,3.08,0,0,0,1.87.52c.72-.15,1.14-.88,1.45-1.55.95-2.1,2.88-6.51,2-8.83S517,480.22,515.06,479.1Z"/><path class="cls-34" d="M589,437s-21.73,77.47-34.72,79.45-38.45-15-38.45-15l5.92-18s21.91,12.87,24.28,7.62,21.25-67.89,21.25-67.89S584,413,589,437Z"/><path class="cls-43" d="M795,160.42l-3,12.41a3.9,3.9,0,0,1-.24.95,16,16,0,0,1-1.7,3.68l-5.28,8-9-9.12-2.06-2.07s.14-.64.41-1.8c5.4-20.66,9.49-31.18,12.24-36.55s5.6-6.47,6.15-6.47h.12a2.29,2.29,0,0,1,1.69,1.31h0a13,13,0,0,1,1.21,4.31C796.91,144.07,795,160.42,795,160.42Z"/><path class="cls-44" d="M823.82,254.39c-9.65,4.14-48.63,14.8-48.63,14.8s-1.79,4.38-.37,12.26-3.22,21.07-6,33.8a46.15,46.15,0,0,0-.87,12.41c.39,5.52,1.7,9,.82,9.64a67,67,0,0,1-12.26,6.79c-2.77.75-2.46,1.39-8.49,4.87s-14.72,1.52-16.45-2.29,18-14.44,19-17.21h0m0-.09c1-4.21.82-70.14,5.2-74.59,3-3,30.42-20.94,47.82-32.16l14.26-9.18s10,2.66,13,11.88,2.72,25-7,29.07Z"/><path class="cls-38" d="M852.08,258.16c-6.09,9.1-39.4,31.2-39.4,31.2S812.1,294,816.6,301s5.43,21.76,8,35.28a48.19,48.19,0,0,0,4.3,12.48c2.65,5.09,5.24,8.06,4.7,9a72.49,72.49,0,0,1-9.15,11.58c-2.33,1.85-1.85,2.29-6.21,8.17a15.81,15.81,0,0,1-13.48,5.91h-.21a6.11,6.11,0,0,1-1.2-.26,4.6,4.6,0,0,1-2-1.1c-3.21-3,11.49-21.33,11.39-24.45v-.12c-.76-4.48-27.79-68.47-25.35-74.58,1.38-3.39,15.28-24.12,26.95-41.34,8.89-13.14,16.53-24.19,16.53-24.19s10.93-1.49,17.45,6.25S861.9,243.4,852.08,258.16Z"/><path class="cls-44" d="M812.61,357.47a.13.13,0,0,0,0-.12,8.82,8.82,0,0,1,4.91-.19,6.72,6.72,0,0,0,3.87,1.09c2-.13,4.89-3.58,5.52-4.91a20,20,0,0,1,1.81-4.7c2.69,5.1,5.27,8.07,4.76,9.05a73.48,73.48,0,0,1-9.15,11.56c-2.31,1.9-1.8,2.33-6.2,8.18s-13.7,7.54-17,4.5S812.82,360.54,812.61,357.47Z"/><path class="cls-45" d="M855.12,163.63c.51-12.75.1-19.64-5.69-24.6h0a12.78,12.78,0,0,0-1.27-1H848a157.08,157.08,0,0,0-19.86-8.57,12.56,12.56,0,0,0-1.38-.37c-.49-.11-1.1-.29-1.69-.41-2.5-.54-5.1-1-7.52-1.7a35.83,35.83,0,0,0-9.07-1.49c-1.85-.24-8.73,3.39-13.48,5a8.56,8.56,0,0,0-2.75,2,17.35,17.35,0,0,0-4.65,7.75c.17,1.9.39,4.12.66,6.55l.2,1.87c.26,2.42.58,5.09.92,7.82v.53c.65,5.24,1.38,11,2.21,17,.42,2.93.81,5.84,1.14,8.62,2.12,17.2,4.61,44.14,4.61,44.14.6.56,8.49,5.52,15.74,10a37.57,37.57,0,0,0,34,3.11h.23a48.84,48.84,0,0,0,16.38-11S854.46,180.44,855.12,163.63ZM809.76,182h0c.31,2.62.58,5.39.87,8.27-.34-2.51-.63-5.31-.87-8.27Z"/><path class="cls-46" d="M797.47,226.6l-8-69.73v-.58l-.92-7.82-.2-1.89c-.28-2.44-.5-4.65-.67-6.55a17.37,17.37,0,0,1,4.66-7.72l.54,4.12a33.28,33.28,0,0,0-.77,11.89l8.76,80.53S797.54,227.27,797.47,226.6Z"/><path class="cls-47" d="M798.45,213.8a2.14,2.14,0,0,1,1,2.88,2.06,2.06,0,0,1-.72.83h0l-39.54,26.83L716.22,222.5l42.44-28.86Z"/><path class="cls-48" d="M795.89,212.52c2.51,1.28,1,2.89-1.38,4.43l-37,23.77-40.12-17.79L760,194.07Z"/><polygon class="cls-47" points="764.67 203.12 778.28 210.99 768.15 218.51 755.65 210.23 764.67 203.12"/><polygon class="cls-47" points="746.11 206.27 747.83 207.28 776.28 225.32 756.66 237.27 731.05 216.49 746.11 206.27"/><path class="cls-47" d="M737.34,230.48l-52.28-26.79c-.79-.39-2.76.11-3,.95h0a2,2,0,0,0,.61,2.06l33.5,30.3a9,9,0,0,0,5,2.26l38,5.09Z"/><path class="cls-48" d="M684.22,204.19a.65.65,0,0,1,.76-.48l41.69,11.58,30.85,25.46-34.6-4.12a11.38,11.38,0,0,1-5.72-2.77l-32.8-29.05A.62.62,0,0,1,684.22,204.19Z"/><path class="cls-49" d="M688.34,205.41a.38.38,0,0,1,.53-.14h0l35.55,10.09,28.34,23-30.36-4.26a6.9,6.9,0,0,1-3.49-1.7l-30.56-26.5a.38.38,0,0,1,0-.55h0Z"/><path class="cls-50" d="M863.8,228.65c-11.48,11.2-21.38,12-21.38,12a6.29,6.29,0,0,1-2.75-1.38c-4.43-3.39,6.64-19.3,7.73-22.07,9.91-25.12-7.52-24.62-7.1-42.61a73.23,73.23,0,0,0-.75-14.94,34.27,34.27,0,0,0-2.54-8.27,31.27,31.27,0,0,0-2-3.66c-7.61-12.14-22.5-16.8-37.86-17.12-.7,0-2.84.24-2.86.24a2.57,2.57,0,0,0-2-1.29c4.6-1.78,16.28-5.5,25.3-2.51,2.44.63,5.09,1.08,7.55,1.69,1,.23,2,.46,2.94.73A157.14,157.14,0,0,1,848,138.08h0c.49.34,1,.71,1.38,1.07,5.84,5,6.19,11.88,5.63,24.63C854.32,180.44,863.8,228.65,863.8,228.65Z"/><path class="cls-51" d="M759.51,200.86a16.37,16.37,0,0,1-1.38,5.09c-1.19,2.5-5.51,7.12-7.09,6.89s2.05-4.94,1.1-5.63-6.79,2.27-7.91,3-1.5,3.87-2.92,3.87-2.36-1.9-.93-7,2.58-7.57,4.77-9.64,11.35-5.09,11.35-5.09,7.39-8.27,14.08-15v.19a24.09,24.09,0,0,0,10.56,10h0Z"/><path class="cls-52" d="M762,199.57l-5.52-7.79-2.22,1.37c1,1.38,5.4,7.93,5.4,7.93Z"/><path class="cls-52" d="M756.59,196.82a2.62,2.62,0,1,0-2.6-2.63h0a2.62,2.62,0,0,0,2.62,2.59h0Z"/><path class="cls-53" d="M756.37,196.09a2.09,2.09,0,0,0,2-2.12v0h0a2.07,2.07,0,0,0-2-2h-.27a2.09,2.09,0,0,0-.11,4.16h.39Z"/><path class="cls-54" d="M822.36,201.38s-29.12,10.39-30.94,11.24S789,216.29,787,218.7s-6.43,3.79-7.57,3.21,2.49-4,2.38-4.67-3.2.14-5.27,1-6.79,4.58-7.84,2.9,3.68-10.18,6.48-12.39,10.19-3.28,12.87-4.14c2.33-.75,24.81-13.77,31.6-17.78l5.85,14Z"/><path class="cls-55" d="M825.21,129.81a5.42,5.42,0,0,1-.71,1.88c-1.84,3.4-6.9,8.49-12.52,8.1l-1.08-.15c-7.35-1.46-8-6.09-8.59-12.72-.24-2.53,2.75-4.66,6.58-6.31A74.78,74.78,0,0,1,823,116.48c-.58,2.75,1.8,8.81,2.15,12.07A4.1,4.1,0,0,1,825.21,129.81Z"/><path class="cls-56" d="M812,139.79l-1.07-.15c-7.36-1.44-8-6.09-8.6-12.7-.24-2.55,2.75-4.68,6.58-6.33a7.15,7.15,0,0,1,3.23,4.07,18.48,18.48,0,0,1,.51,7.1c-.22,2.07-.24,4.14-.34,6.23A6.27,6.27,0,0,1,812,139.79Z"/><path class="cls-57" d="M807.81,83.87a14,14,0,0,1,6.58-1.1c1.52.32,2.28,1.7,3.67,2,1.85.46,4,.1,5.62,1.15a8.91,8.91,0,0,1,2.75,3.48,20,20,0,0,1,2.43,10c-.27,4.69-3.57,13.17-3.57,13.17a97,97,0,0,1-5.92,9.78c-1.84,2.24-6.23,7.64-14.16,7.9s-12.16-13.41-12.39-16.2.46-4.12.29-5.5c-.29-1.93-1.06-3.73-1.16-5.69a13,13,0,0,1,1-5.6,4,4,0,0,0,.27-.68A25.49,25.49,0,0,1,807.81,83.87Z"/><path class="cls-38" d="M827.89,108.23c-1.12,2.89-2.6,9-4.87,8.36,0,0-2-6.52.59-7.27s2.28-9.75-.44-7.91a3.54,3.54,0,0,0-1.12,1.25,2,2,0,0,0-.2.38c-.66,1.37-.78,3.12-1.39,4.75-1.7-4.23-4.72-11.56-11-7.94,0,0-.53-1-.36-1.14-1.2.88-2.43,1.8-3.62,2.75a6.64,6.64,0,0,1-4.36,1.87c-1.7-.14-3-2.18-1.93-3.4h-4.6a3.39,3.39,0,0,1-3-3.7h0a4.81,4.81,0,0,1-2.19-.27A4.62,4.62,0,0,1,786.74,90a26.29,26.29,0,0,1,2-4.45c3.12-5.09,9.4-7.32,15.28-8.39a18.18,18.18,0,0,1,7-.24,7.39,7.39,0,0,1,5.51,4.15,9.6,9.6,0,0,1,8.87,2.17,19.63,19.63,0,0,1,5.68,10.9C831.86,99,830,102.75,827.89,108.23Z"/><path class="cls-58" d="M821.88,105.24c-.15.33-.44,1.16.29.73a1.11,1.11,0,0,1,.36-.13,4,4,0,0,0-.6,2,1.69,1.69,0,0,0,.12.56.55.55,0,0,0,.43.36.86.86,0,0,0,.61-.29,1.81,1.81,0,0,0,.79-1.7l.16-2.07a1.46,1.46,0,0,0,0-.51,1.3,1.3,0,0,0-.21-.52.59.59,0,0,0-.3-.26,1.06,1.06,0,0,0-.75.38A7.59,7.59,0,0,0,821.88,105.24Z"/><path class="cls-44" d="M795.72,97a7.2,7.2,0,0,1-2.28,1.19c-.66.32-1.22.2-.4,1.09s1.9.61,2.68.62H798a1.37,1.37,0,0,0,1.1-.32,1.63,1.63,0,0,0,.26-1,14.2,14.2,0,0,1,1.7-3.79.69.69,0,0,0,0-.73.67.67,0,0,0-.89-.29,5.59,5.59,0,0,0-2.92,1.38C796.7,95.72,796.28,96.38,795.72,97Z"/><path class="cls-44" d="M792.68,94.18c-.54.59-1,1.91-1.7,2.25-1.81.84-4.21-1.57-4.67-3.09a1.7,1.7,0,0,1-.08-1.07.88.88,0,0,1,.8-.64,2.74,2.74,0,0,1,.64.08,2.79,2.79,0,0,0,1.94-.3,14.29,14.29,0,0,0,2.56-1.5,6.2,6.2,0,0,1,1.7-1,1.72,1.72,0,0,1,1.8.51,1.94,1.94,0,0,1-.29,2A26.15,26.15,0,0,1,792.68,94.18Z"/><path class="cls-44" d="M827.92,108.08c-1.13,2.9-2.63,9-4.88,8.37,0,0-2-6.52.59-7.27s2.29-9.74-.44-7.91a3.76,3.76,0,0,0-1.12,1.26,7,7,0,0,1,.74-1.17,5.81,5.81,0,0,1,2.6-2.18,8,8,0,0,0,1.58-.61,5.06,5.06,0,0,0,1.7-2.49,3.4,3.4,0,0,1,2-2.11.94.94,0,0,1,.41,0C831.86,99,830,102.75,827.92,108.08Z"/><path class="cls-59" d="M850.76,160.27c-4.6,9.55-19.13,36.92-19.13,36.92s-7.92,7.35-9.8,5.84-9.44-18.2-9.44-18.2l3.68-3.63s1-1.09,9.38-17.08,13.58-24.8,17.65-26,10.77,1.39,10.68,5.51C853.8,143.65,855.38,150.73,850.76,160.27Z"/><path class="cls-60" d="M809.49,186.29s9.69,18.05,11.39,18.2,6.54-2.75,6.54-2.75l-11.35-20.57Z"/><path class="cls-61" d="M785.36,184.32a13.7,13.7,0,0,1-1.69,2.63,2.33,2.33,0,0,1-2.64.7h0a24.1,24.1,0,0,1-10.5-10v-.21c.3-2.75,3.53-4.83,3.53-4.83a5.16,5.16,0,0,0,.54.86,31,31,0,0,0,2.21,2.63,102.62,102.62,0,0,0,9.05,7.61A1.31,1.31,0,0,1,785.36,184.32Z"/><path class="cls-46" d="M758.73,257.43c-2.6,4.43-5.86,72.38-5.86,72.38l-2.29-.37h0v-.1c1-4.21.83-70.15,5.21-74.6,3-3,24.26-17,41.63-28.14l3.39,2.24S761.31,253.06,758.73,257.43Z"/><path class="cls-46" d="M790.86,283.06c0,3.4,26.69,74.09,26.69,74.09s-11,18.54-11.88,20.17-2.23,5.31-1.38,5.94l-1-.24a4.51,4.51,0,0,1-2-1.09c-3.21-3,11.49-21.34,11.37-24.46a.13.13,0,0,0,0-.12c-.75-4.48-27.79-68.47-25.33-74.58,1.38-3.39,17.44-27.16,29.12-44.39l3.73,1.59S790.76,279.63,790.86,283.06Z"/><path class="cls-46" d="M792.31,132.37l-3,3.55a21.74,21.74,0,0,0-4.15,8.08l-8.48,32h0L774,172.41h0c5.38-20.67,9.47-31.19,12.24-36.56s5.58-6.46,6.14-6.46h.1a2.3,2.3,0,0,1,1.7,1.32h0Z"/><path class="cls-62" d="M226.78,399.71l4.7,13.17s19.83,4.4,27,1.33,3.75-4.65,3.75-4.65-11.91-2.69-15.45-6A49,49,0,0,1,241,397Z"/><path class="cls-63" d="M184,172.55c.54,1.17,1.65,2,2.28,3.12a6.67,6.67,0,0,1-1,6.78c-1.34,2-3.2,3.7-4.38,5.74a14.1,14.1,0,0,1-1.64,2.74,2.53,2.53,0,0,1-2.88.76,3.65,3.65,0,0,1-1.43-2A37.73,37.73,0,0,0,163.3,173.9c-4.64-3.63-17-13.28-9-19.7,3.21-2.5,8.41-.16,12.19-.16C187.61,154.05,183,170.4,184,172.55Z"/><path class="cls-64" d="M168.43,221.47c-.6,2.85-10,2.54-13.47,2.24s-16-11.45-12.94-12.82c9.79-4.36,6.5-17.24,6.5-17.24a48.49,48.49,0,0,1,11,5c.52.3,1,.62,1.42.88,5.1,3.16,5.14,4.46,5.14,4.46s-2.24,2.56-.52,4.64a14.46,14.46,0,0,1,2.69,6.91A21.12,21.12,0,0,1,168.43,221.47Z"/><path class="cls-65" d="M168.27,215.33a3.33,3.33,0,0,1-3.08.17,11.79,11.79,0,0,1-5.54-4.54,9.91,9.91,0,0,1-1.21-2.3,15.5,15.5,0,0,1-.34-2c-.34-3.05-1.28-6.83,2.74-7.23,5.1,3.15,5.13,4.47,5.13,4.47s-2.24,2.54-.5,4.62A14.82,14.82,0,0,1,168.27,215.33Z"/><path class="cls-66" d="M267,412.93c2.6,4.27-11.46,9.33-16.14,8.7s-9.59-3.83-13-4.58-5.69.17-6.89-1.6c-.32-.54-1.24-2.1-2.45-4.27,6.65,1.43,22.72,4.43,27,1.77,2.65-1.8,3.74-3.27,3.76-4.68C263.05,410,266.08,411.57,267,412.93Z"/><path class="cls-67" d="M210.64,290.79l-5.47,3.07-7.31,4-.19.1-.18-.66-.84-2.86s-6.69-8.06-11.73-13.94c-1.59-1.84-3.08-3.48-4.14-4.6-4.35-4.56,5.05-18.94,9.17-11.76,6.05,10.66,11.92,23.89,13.53,25S210.64,290.79,210.64,290.79Z"/><path class="cls-68" d="M215.5,300.65s.59,2.23-.9,2.86l-1.5.57a2,2,0,0,1-1.19,1.44,1.28,1.28,0,0,1-1.58-.24s-.29,1.31-1.32,1.26a2.42,2.42,0,0,1-1.51-.47s0,2.26-1.53,1.87a5.21,5.21,0,0,1-3.13-2.3,10.43,10.43,0,0,1,5.74-5.24c3.24-.92,4.26-1.79,5.14-1.4A9,9,0,0,1,215.5,300.65Z"/><path class="cls-69" d="M205.17,293.86,197.85,298h0a3.67,3.67,0,0,1-.38-.56l-.84-2.86s-10.1-12-15.23-17.88a12.79,12.79,0,0,1,4.7-1.52c2,.29,16.54,17.48,19.17,18.82C205.17,293.86,205.16,293.88,205.17,293.86Z"/><path class="cls-70" d="M192.75,267.56a10,10,0,0,1-.49,1.12,12.64,12.64,0,0,1-6.24,6.48,31.4,31.4,0,0,1-4.7,1.52,3.49,3.49,0,0,1-1.11.18s-2.45-2.58-4.49-5.26a18.12,18.12,0,0,1-2.71-4.21c-.51-1.57.76-8.59,1.94-14,.12-.76.34-1.46.49-2.13.57-2.67,1-4.58,1-4.58l5.62-11.17s.55,2.33,1.41,5.51c.37,1.52.81,3.24,1.3,5l.93,3.62a93,93,0,0,0,2.95,9.06C190.44,262.92,192.75,267.56,192.75,267.56Z"/><path class="cls-44" d="M241.39,397.26a24.35,24.35,0,0,1-2.79,1.65c-3,1.55-8,3.27-12,.69l-19.73-48.14c-1.31-2.87-6.13-7.95-9.22-8.55l-47-6.39-6.55-66.08,21.89,2s5.46,14.18,10.27,28.6h0c1.57,4.7,42.83,5.55,49.92,37.58C228.4,348.79,241.39,397.26,241.39,397.26Z"/><path class="cls-38" d="M238.49,444a5,5,0,0,1-1.65,1.3L234,446.67a7.35,7.35,0,0,1-9.76-3.42h0l-.15-.34c-6.82-16.2-23.39-54.8-27.44-58.21h0c-5.11-4.31-25.76-13-37-22.18a106.8,106.8,0,0,1-19.46-21.9l-11.59-21.83s-.84-2.32-1.63-4.7a20.29,20.29,0,0,1-1.41-5.36c.39-.43,15.11-15.58,15.11-15.58l9.75,2.13s7.51,8.87,17.25,20.26c16.81,19.68,40.16,47.07,42.51,49.26a96.64,96.64,0,0,1,13.26,17.4c1.34,2.89,10.57,43.6,15.91,57A4.8,4.8,0,0,1,238.49,444Z"/><path class="cls-71" d="M179,307.44h0a9.9,9.9,0,0,1-1.17,2.29,23.41,23.41,0,0,1-1.87,2.65c-2.81,3.44-7.27,7.36-12.29,7.82a1.82,1.82,0,0,1-.57,0,9.1,9.1,0,0,1-1.65,0,16.37,16.37,0,0,1-9.21-4.8c-.56-.54-1.11-1.08-1.61-1.64-1.34-1.36-2.64-2.75-3.82-4.16a19.59,19.59,0,0,0-5.72-4.81c-3.61-1.59-9,.68-12.54,2.63l-.28.15c-1.16.64-2,1.31-2.75,1.64l-.72.53A67.1,67.1,0,0,1,128.36,299c2.58-6.19,5.51-11.48,6.81-14.23,2-4.28,1.18-14.14.48-20.05a6.35,6.35,0,0,0-2.08-4.32l-.45-.4c-.15-.14-.76-.6-1.17-.88a23.26,23.26,0,0,1-6.41-6.7,26.38,26.38,0,0,1-3.18-7.47,35.85,35.85,0,0,1-1.23-10.61,20.31,20.31,0,0,1,1-5.94,7.37,7.37,0,0,1,.81-1.67h0l0-.14c2.67-3.87,14.39-12.39,18-14.93l1.06-.75.61.39,1.87,1.29h0q1.75,1.29,3.38,2.75c3.3,2.83,7.09,8.13,16.61,5.19,3.71-1.17,2.7-6.67,1.76-9.79l-.08-.24-.15-.44c-.07-.24-.16-.49-.25-.73l-.09-.28-.12-.29-.08-.19,1.59.22c2.72.43,8.07,1.75,9.67,4.78,2.13,4,5.77,19.39,7.3,24.24a16.28,16.28,0,0,1,.6,8.39,20.78,20.78,0,0,1-2.66,6.42h0a62.34,62.34,0,0,0-4.43,8,.13.13,0,0,1,0,.12,23.09,23.09,0,0,0-1.59,6.69,31.5,31.5,0,0,0-.17,4.23c0,2.46.12,5.12.31,7.92.07,1,.15,2,.25,3l.12,1.43C177.52,294.84,179.45,305.64,179,307.44Z"/><path class="cls-46" d="M144.56,212.53l-11.89,10.35-10.58,6s-.14,0-.07-.53a12.26,12.26,0,0,1,.81-1.67h0l0-.12c2.69-3.85,14.41-12.38,18-14.92l1-.76.6.4,1.88,1.28Z"/><path class="cls-46" d="M177.49,260.63a22.78,22.78,0,0,0-1.61,6.71c-.1,1.3-.16,2.72-.15,4.23,0,2.46.1,5.12.29,7.91.09,1,.17,2,.27,3a7.63,7.63,0,0,0,.11,1.44c1.08,11,3,21.78,2.57,23.56.19-1.29-14.84-14.92-1.89-54.06.17-.52-1.25-.18-2.08.07a33.17,33.17,0,0,0-7.67,3.54s4-4.65,8.14-5.67a1.05,1.05,0,0,1,.35-.08c4.11-.8,6.9-5.79,7.66-10.14l.12-.4c.67-4.49-5.79-23.39-7.86-25.92s-9.35-4-9.35-4l-.06-.23-.16-.43-.23-.73-.12-.31-.1-.28-.09-.2,1.58.24c2.73.39,8.09,1.72,9.69,4.76,2.15,4,5.77,19.39,7.32,24.17a16.77,16.77,0,0,1,.62,8.4,20.82,20.82,0,0,1-2.71,6.38h0a63,63,0,0,0-4.45,8.09Z"/><path class="cls-72" d="M150.47,313.79c-3.48-3.59-6.44-7.58-9.55-9-5.84-2.59-16.28,5-16.28,5,2.48-10.26,8.52-20.79,10.49-25s1.16-14.26.52-20.16a6.48,6.48,0,0,0-2.06-4.32l-.46-.4c.76-4,1.53-8,2.2-12.1a32.72,32.72,0,0,1,3.45-11.43c3.59,3.49,7.53,7.44,8.15,12.47.32,2.79-.41,5.65-.21,8.45.4,6.19,5.15,11.53,5.4,17.75.21,5.52-3.15,10.46-4.6,15.77-2.21,8.19,1.42,13.43,2.84,21A6,6,0,0,1,150.47,313.79Z"/><path class="cls-73" d="M176.83,171.61c.84,3.49-.63,8.2-.5,9.74a22.28,22.28,0,0,1,.77,5.68c-.19,2.48-1.15,15.61-3.91,17.1s-17.1-2.06-19.84-4.64a30.69,30.69,0,0,1-4.78-6,6.32,6.32,0,0,1-5-2.76,30.6,30.6,0,0,1-1.63-24.84c4.35-11.16,22.78-10.09,28.9-5.06S176.83,171.61,176.83,171.61Z"/><path class="cls-74" d="M268.53,459.33c2.63,4.21-11.34,9.47-16,8.94s-9.63-3.65-13.12-4.4-5.65.28-6.89-1.6c-.34-.54-1.27-2.08-2.45-4.23,6.69,1.32,22.82,4,27.05,1.34,2.62-1.79,3.73-3.34,3.76-4.74C264.6,456.49,267.55,458,268.53,459.33Z"/><path class="cls-75" d="M209.13,294.08a27.47,27.47,0,0,1-7.9,1.79l-.11,0a39.1,39.1,0,0,1-7.8.3c-2.63-.28-42.37,6.49-45.34,6.4-6.43-.08-10.31-5.57-12.08-8.58l.53-6.77,9.59,2s42-1.27,43.57-1.66,2.82-3.28,4.91-4.54,10.39-2.86,11.1-1.42-4.34,2.71-3.79,3.84,5.49.45,7.78-.21,4.64-2.54,5.36-1.25S212.82,292.26,209.13,294.08Z"/><path class="cls-76" d="M147.79,288.87a8,8,0,0,1-.87,1.06,16.66,16.66,0,0,1-11.43,5.37h0c-.43-.84-7.36-14.24-8.22-17.73s-17.72-45.55,1.18-54.93l.45-.18a3.14,3.14,0,0,1,1.32-.29l.14.05c5.76.06,9.74,12.42,10,21.07.13,3.72.39,8.44.62,13.06.41,7.84,1.05,15.15,1.24,16C142.57,273.8,147.79,288.87,147.79,288.87Z"/><path class="cls-77" d="M171.45,163.68c-.66,3-4.27,4.45-7.31,4.89a10.47,10.47,0,0,1-1.12.19c-2.78.44-5.71,1-7.39,3.18a11.55,11.55,0,0,0-1.38,3.06,6.39,6.39,0,0,1-.55,1.39,11,11,0,0,1-.65,1.22,43.7,43.7,0,0,1-3.62,3.71,4.73,4.73,0,0,0-1.23,3.18h0l-.19-.06a2.46,2.46,0,0,0-2.56-.2,4.1,4.1,0,0,0-1.36,4.35,7.16,7.16,0,0,0,3.52,4.84,6.4,6.4,0,0,1,.84.39,10.52,10.52,0,0,1,1,3,13.08,13.08,0,0,1-4.83,12.27,11.44,11.44,0,0,1-2.82,1.61h0a14,14,0,0,1-5,1.11,15.5,15.5,0,0,1-6.33-1,15.29,15.29,0,0,1-1.85-.82c-2.85-1.55-5.41-4.82-4.42-7.8.85-2.36,3.53-3.6,4.59-5.81,1.75-3.46-.82-7.37-2.25-10.88-2.41-5.43-2.42-12.31,1.38-16.75,1.69-1.9,4.06-3.32,5.23-5.6a37.88,37.88,0,0,0,1.53-5.76,12,12,0,0,1,8.74-7.64,17.55,17.55,0,0,1,11.78,1.85,33.23,33.23,0,0,0,4.58,2.3C164.06,155.31,172.94,156.6,171.45,163.68Z"/><path class="cls-78" d="M163,168.74h0c-2.78.44-5.71,1-7.39,3.19a10.65,10.65,0,0,0-1.38,3,6.19,6.19,0,0,1-.55,1.39L136,190.81s.76-12.26,3.53-17.48,9.61-6.83,14.5-5.4A21.74,21.74,0,0,0,163,168.74Z"/><path class="cls-79" d="M147.94,184.42a2.49,2.49,0,0,0-2.56-.21,4.14,4.14,0,0,0-1.36,4.36,7.13,7.13,0,0,0,3.53,4.82,32.85,32.85,0,0,0,1.73,3.33h0A13,13,0,0,1,144.43,209a10.92,10.92,0,0,1-2.79,1.6h0l-4.82,1.13-.2-.06a15.61,15.61,0,0,1-6.35-.94,2.85,2.85,0,0,1-.56-1.06,4.32,4.32,0,0,1,1.58-4.07,27.19,27.19,0,0,0,3.41-3.2,9.19,9.19,0,0,0,1.53-5.69c0-1.93-.33-3.95-.17-6a14.43,14.43,0,0,1,7.14-11.47,36.61,36.61,0,0,1,5.78-2.34,31.36,31.36,0,0,0,3-1.27c1-.46,1.63-1.26,2.3-1.2l-.12.38a30.69,30.69,0,0,1-2.79,9.32,5.66,5.66,0,0,0-.52,1.65,3.8,3.8,0,0,0,.16,1.34c.26,1.47.52,3,.81,4.4l-3.11-6A11,11,0,0,0,147.94,184.42Z"/><path class="cls-80" d="M225.35,444.92l4.7,13.15s19.79,4.42,27,1.35,3.76-4.74,3.76-4.74-11.92-2.69-15.45-6a49.64,49.64,0,0,1-5.87-6.59Z"/><path class="cls-81" d="M209.13,294.08l-7.9,1.79-.11,0a39.1,39.1,0,0,1-7.8.3c-2.63-.28-42.37,6.49-45.34,6.4-6.43-.08-10.31-5.57-12.08-8.58l4.95.12s5.63,5.61,12.78,4.6,41.82-6.21,44.07-6.43A86.64,86.64,0,0,1,209.13,294.08Z"/><path class="cls-46" d="M241.39,397.26a24.35,24.35,0,0,1-2.79,1.65c-1.19-4.73-8.16-31.84-11.66-46.47-3.83-16.13-6.65-23.41-16.4-33S173.11,308,173.11,308l3.09-7c1.58,4.71,42.84,5.53,50,37.58C228.4,348.79,241.39,397.26,241.39,397.26Z"/><path class="cls-46" d="M147.79,288.87a8,8,0,0,1-.87,1.06s-4.91-12.84-6.63-17.71-3-31.12-3-31.12l-1.21-8.45c-1.19-8.52-7.68-10.1-7.68-10.1l.44-.17a5.12,5.12,0,0,1,1.33-.3l.16,0c5.74.13,9.79,12.44,10,21.16.1,3.73.36,8.45.6,13.06.43,7.84,1,15.14,1.26,16C142.57,273.8,147.79,288.87,147.79,288.87Z"/><path class="cls-82" d="M264.91,238.43l-5.18,39a5.89,5.89,0,0,1-4,5l-46.38,14.36a5,5,0,0,1-2,.2,6,6,0,0,1-4.89-6.87l4.74-39.42a5.89,5.89,0,0,1,4.29-5.15l49-11.68a3.53,3.53,0,0,1,3.69,1.45A4.39,4.39,0,0,1,264.91,238.43Z"/><path class="cls-83" d="M264.91,238.43l-5.18,39a5.89,5.89,0,0,1-4,5l-46.38,14.36a5,5,0,0,1-2,.2,6.34,6.34,0,0,1-1.77-5.32l4.73-39.43a5.89,5.89,0,0,1,4.29-5.16l49-11.68a3.85,3.85,0,0,1,.58-.08A4.39,4.39,0,0,1,264.91,238.43Z"/><path class="cls-84" d="M181.27,302.41l22.09-8.14,54.4-13L246,289.56a13.07,13.07,0,0,1-3.5,1.76L194.41,306.8l-10.13.3-2.53.07A2.47,2.47,0,0,1,181.27,302.41Z"/><polygon class="cls-85" points="227.84 289.74 181.75 307.17 194.41 306.8 245.15 290.14 257.76 281.22 227.84 289.74"/></svg>