<?xml version="1.0" encoding="iso-8859-1"?>
<!-- Generator: Adobe Illustrator 19.0.0, SVG Export Plug-In . SVG Version: 6.00 Build 0)  -->
<svg version="1.1" id="Capa_1" xmlns="http://www.w3.org/2000/svg" xmlns:xlink="http://www.w3.org/1999/xlink" x="0px" y="0px"
	 viewBox="0 0 512 512" style="enable-background:new 0 0 512 512;" xml:space="preserve">
<path style="fill:#5F3273;" d="M512,256c0,116.89-78.343,215.476-185.384,246.13c-1.035-4.419-4.992-7.713-9.727-7.713H195.111
	c-4.735,0-8.692,3.294-9.727,7.713C78.343,471.476,0,372.89,0,256C0,114.615,114.615,0,256,0S512,114.615,512,256z"/>
<path style="fill:#733C82;" d="M468.185,182.185c0,117.187-94.999,212.185-212.185,212.185S43.815,299.372,43.815,182.185
	c0-36.939,9.447-71.668,26.044-101.918C116.532,30.848,182.66,0,256,0s139.468,30.848,186.141,80.267
	C458.739,110.517,468.185,145.246,468.185,182.185z"/>
<path style="fill:#FF4B6E;" d="M145.289,247.393L216,318.104l-70.426,70.426c-2.965,2.964-8.042,1.184-8.505-2.983l-5.48-49.325
	c-0.258-2.324-2.093-4.159-4.417-4.417l-49.325-5.48c-4.167-0.463-5.948-5.54-2.983-8.505L145.289,247.393z M437.136,317.818
	l-70.426-70.426L296,318.104l70.426,70.426c2.965,2.964,8.042,1.184,8.505-2.983l5.48-49.325c0.258-2.324,2.093-4.159,4.417-4.417
	l49.325-5.48C438.32,325.86,440.101,320.783,437.136,317.818z"/>
<path style="fill:#CD2855;" d="M193.777,295.88L216,318.104l-70.426,70.426c-2.965,2.964-8.042,1.184-8.505-2.983l-3.296-29.662
	L193.777,295.88z M318.223,295.88L296,318.104l70.426,70.426c2.965,2.964,8.042,1.184,8.505-2.983l3.296-29.662L318.223,295.88z"/>
<path style="fill:#D49B00;" d="M288.222,438.889h-64.444v-139.63h64.444V438.889z"/>
<path style="fill:#C78B00;" d="M250,438.889h-26.222v-139.63H250V438.889z"/>
<path style="fill:#E3A600;" d="M305.407,395.185v112.033C289.419,510.344,272.904,512,256,512s-33.419-1.656-49.407-4.782V395.185
	c0-5.523,4.477-10,10-10h78.815C300.93,385.185,305.407,389.662,305.407,395.185z"/>
<path style="fill:#F2C230;" d="M326.889,416.667v85.382C304.376,508.523,280.595,512,256,512s-48.376-3.477-70.889-9.951v-85.382
	c0-5.523,4.477-10,10-10h121.778C322.412,406.667,326.889,411.144,326.889,416.667z"/>
<path style="fill:#EBB410;" d="M221.444,509.674c-12.414-1.678-24.549-4.236-36.333-7.625v-85.382c0-5.523,4.477-10,10-10h36.333
	c-5.523,0-10,4.477-10,10V509.674z"/>
<path style="fill:#E3A600;" d="M418.185,182.185c0,89.572-72.613,162.185-162.185,162.185S93.815,271.758,93.815,182.185
	S166.428,20,256,20S418.185,92.613,418.185,182.185z"/>
<path style="fill:#F2C230;" d="M391.333,182.185c0,74.742-60.591,135.333-135.333,135.333s-135.333-60.591-135.333-135.333
	S181.257,46.852,256,46.852S391.333,107.443,391.333,182.185z"/>
<path style="fill:#FFE13C;" d="M261.99,107.426l20.219,40.969c0.973,1.972,2.854,3.338,5.03,3.654l45.212,6.57
	c5.479,0.796,7.667,7.529,3.702,11.394l-32.716,31.89c-1.574,1.535-2.293,3.746-1.921,5.913l7.723,45.029
	c0.936,5.457-4.792,9.618-9.692,7.042l-40.439-21.26c-1.946-1.023-4.271-1.023-6.217,0l-40.439,21.26
	c-4.901,2.576-10.628-1.585-9.692-7.042l7.723-45.029c0.372-2.167-0.347-4.378-1.921-5.913l-32.716-31.89
	c-3.965-3.865-1.777-10.598,3.702-11.394l45.212-6.57c2.176-0.316,4.057-1.683,5.03-3.654l20.219-40.969
	C252.46,102.461,259.54,102.461,261.99,107.426z"/>
<path style="fill:#FFFF91;" d="M296,450v30c0,5.523-4.477,10-10,10h-60c-5.523,0-10-4.477-10-10v-30c0-5.523,4.477-10,10-10h60
	C291.523,440,296,444.477,296,450z"/>
<path style="fill:#C78B00;" d="M276,452v6c0,1.104-0.895,2-2,2h-36c-1.105,0-2-0.896-2-2v-6c0-1.104,0.895-2,2-2h36
	C275.105,450,276,450.896,276,452z M270,470h-28c-1.105,0-2,0.896-2,2v6c0,1.104,0.895,2,2,2h28c1.105,0,2-0.896,2-2v-6
	C272,470.896,271.105,470,270,470z"/>
<path style="fill:#FFFF91;" d="M148.733,202.728l-15.617,8.542c-0.569,0.311-1.037,0.779-1.349,1.349l-8.541,15.617
	c-1.287,2.353-4.666,2.353-5.953,0l-8.541-15.617c-0.311-0.569-0.779-1.038-1.349-1.349l-15.617-8.542
	c-2.353-1.287-2.353-4.667,0-5.953l15.617-8.542c0.569-0.312,1.037-0.779,1.349-1.349l8.541-15.617c1.287-2.353,4.666-2.353,5.953,0
	l8.541,15.617c0.311,0.569,0.779,1.037,1.349,1.349l15.617,8.542C151.086,198.062,151.086,201.441,148.733,202.728z M387.284,65.886
	l-20.55-11.239c-0.749-0.41-1.365-1.026-1.775-1.775l-11.239-20.55c-1.693-3.096-6.14-3.096-7.833,0l-11.239,20.55
	c-0.41,0.749-1.026,1.365-1.775,1.775l-20.55,11.239c-3.096,1.693-3.096,6.14,0,7.833l20.55,11.239
	c0.749,0.409,1.365,1.025,1.775,1.774l11.239,20.55c1.693,3.096,6.14,3.096,7.833,0l11.239-20.55
	c0.41-0.749,1.026-1.365,1.775-1.774l20.55-11.239C390.38,72.026,390.38,67.58,387.284,65.886z M420.182,108.658l-10.685-5.844
	c-0.389-0.213-0.71-0.533-0.923-0.923l-5.844-10.685c-0.88-1.609-3.192-1.609-4.073,0l-5.844,10.685
	c-0.213,0.39-0.533,0.71-0.923,0.923l-10.685,5.844c-1.61,0.88-1.61,3.192,0,4.073l10.685,5.843c0.389,0.213,0.71,0.533,0.923,0.923
	l5.844,10.685c0.88,1.61,3.192,1.61,4.073,0l5.844-10.685c0.213-0.39,0.533-0.709,0.923-0.923l10.685-5.843
	C421.791,111.851,421.791,109.539,420.182,108.658z"/>
<path style="fill:#FFE13C;" d="M103.115,48.233l15.617,8.541c2.353,1.287,2.353,4.666,0,5.953l-15.617,8.541
	c-0.569,0.311-1.037,0.779-1.349,1.349l-8.541,15.617c-1.287,2.353-4.666,2.353-5.953,0l-8.541-15.617
	c-0.311-0.569-0.779-1.037-1.349-1.349l-15.617-8.541c-2.353-1.287-2.353-4.666,0-5.953l15.617-8.541
	c0.569-0.311,1.037-0.779,1.349-1.349l8.541-15.617c1.287-2.353,4.666-2.353,5.953,0l8.541,15.617
	C102.078,47.454,102.546,47.922,103.115,48.233z"/>
<g>
</g>
<g>
</g>
<g>
</g>
<g>
</g>
<g>
</g>
<g>
</g>
<g>
</g>
<g>
</g>
<g>
</g>
<g>
</g>
<g>
</g>
<g>
</g>
<g>
</g>
<g>
</g>
<g>
</g>
</svg>
