<svg id="Layer_1" data-name="Layer 1" xmlns="http://www.w3.org/2000/svg" xmlns:xlink="http://www.w3.org/1999/xlink" viewBox="0 0 316.53 316.54"><defs><linearGradient id="linear-gradient" x1="114.69" y1="180.31" x2="136.52" y2="180.31" gradientUnits="userSpaceOnUse"><stop offset="0" stop-opacity="0"/><stop offset="0.95"/></linearGradient><linearGradient id="linear-gradient-2" x1="106.53" y1="106.69" x2="207.48" y2="110.24" xlink:href="#linear-gradient"/><linearGradient id="linear-gradient-3" x1="181.46" y1="180.31" x2="203.29" y2="180.31" xlink:href="#linear-gradient"/><linearGradient id="linear-gradient-4" x1="164.04" y1="147.34" x2="217.43" y2="147.34" xlink:href="#linear-gradient"/><linearGradient id="linear-gradient-5" x1="103.97" y1="147.34" x2="149.71" y2="147.34" xlink:href="#linear-gradient"/><linearGradient id="linear-gradient-6" x1="206.11" y1="129.19" x2="238.45" y2="128.43" gradientUnits="userSpaceOnUse"><stop offset="0.02" stop-color="#fff" stop-opacity="0"/><stop offset="0.32" stop-color="#fff" stop-opacity="0.39"/><stop offset="0.68" stop-color="#fff" stop-opacity="0.68"/><stop offset="1" stop-color="#fff"/></linearGradient><linearGradient id="linear-gradient-7" x1="146" y1="88.72" x2="168.06" y2="114.69" xlink:href="#linear-gradient"/><linearGradient id="linear-gradient-8" x1="121.94" y1="162" x2="123.85" y2="230.1" xlink:href="#linear-gradient-6"/><linearGradient id="linear-gradient-9" x1="118.74" y1="165.72" x2="185.19" y2="179.67" xlink:href="#linear-gradient"/><linearGradient id="linear-gradient-10" x1="174.54" y1="169.11" x2="216.26" y2="169.11" xlink:href="#linear-gradient-6"/><linearGradient id="linear-gradient-11" x1="158.43" y1="167.17" x2="159.69" y2="209.52" xlink:href="#linear-gradient-6"/><linearGradient id="linear-gradient-12" x1="134.75" y1="182.23" x2="183.02" y2="182.23" xlink:href="#linear-gradient-6"/><linearGradient id="linear-gradient-13" x1="157.28" y1="49.48" x2="158.8" y2="96.46" xlink:href="#linear-gradient-6"/><linearGradient id="linear-gradient-14" x1="116.62" y1="192.02" x2="116.37" y2="218.4" xlink:href="#linear-gradient-6"/><linearGradient id="linear-gradient-15" x1="199.79" y1="195.2" x2="201.31" y2="223.61" xlink:href="#linear-gradient-6"/><linearGradient id="linear-gradient-16" x1="112.61" y1="219.4" x2="138.48" y2="219.4" xlink:href="#linear-gradient"/><linearGradient id="linear-gradient-17" x1="109.31" y1="227.77" x2="141.4" y2="227.77" xlink:href="#linear-gradient"/><linearGradient id="linear-gradient-18" x1="179.38" y1="219.4" x2="205.25" y2="219.4" xlink:href="#linear-gradient"/><linearGradient id="linear-gradient-19" x1="176.08" y1="227.77" x2="208.17" y2="227.77" xlink:href="#linear-gradient"/><linearGradient id="linear-gradient-20" x1="139.38" y1="198.62" x2="178.53" y2="198.62" xlink:href="#linear-gradient-6"/><linearGradient id="linear-gradient-21" x1="159.61" y1="293.92" x2="158.87" y2="164.86" xlink:href="#linear-gradient-6"/><linearGradient id="linear-gradient-22" x1="126.43" y1="273.18" x2="129.47" y2="180.35" xlink:href="#linear-gradient-6"/><linearGradient id="linear-gradient-23" x1="193.45" y1="267.88" x2="192.94" y2="203.97" xlink:href="#linear-gradient-6"/><linearGradient id="linear-gradient-24" x1="320.5" y1="318.12" x2="285.12" y2="207.4" xlink:href="#linear-gradient-6"/><linearGradient id="linear-gradient-25" x1="95.45" y1="305.04" x2="142.25" y2="225.14" xlink:href="#linear-gradient-6"/></defs><title>Rocket Launch 1</title><path d="M368.36,161.55A158.27,158.27,0,1,1,210.09,3.28,157.92,157.92,0,0,1,368.36,161.55Z" transform="translate(-51.83 -3.28)" fill="#3858f9" opacity="0.18" style="isolation:isolate"/><path d="M350.09,161.56a140,140,0,1,1-140-140A139.67,139.67,0,0,1,350.09,161.56Z" transform="translate(-51.83 -3.28)" fill="#3858f9"/><rect x="114.69" y="135.82" width="21.83" height="88.99" rx="10.92" fill="url(#linear-gradient)"/><rect x="136.22" y="36.98" width="43.66" height="143.04" rx="21.83" fill="#3858f9"/><rect x="136.22" y="36.98" width="43.66" height="143.04" rx="21.83" fill="url(#linear-gradient-2)"/><rect x="181.09" y="102.84" width="21.83" height="88.99" rx="10.92" fill="#3858f9"/><rect x="181.46" y="135.82" width="21.83" height="88.99" rx="10.92" fill="url(#linear-gradient-3)"/><rect x="114.69" y="102.84" width="21.83" height="88.99" rx="10.92" fill="#3858f9"/><rect x="181.09" y="102.84" width="21.83" height="88.99" rx="10.92" fill="url(#linear-gradient-4)"/><rect x="114.69" y="102.84" width="21.83" height="88.99" rx="10.92" fill="url(#linear-gradient-5)"/><path d="M226.29,186H194.91l.34-88.38c0-10.67,6.19-20.33,15.31-25.87h0c9.93,4.53,15.66,16.15,15.73,25.15Z" transform="translate(-51.83 -3.28)" fill="#3858f9"/><path d="M226.29,186H194.91l.34-88.38c0-10.67,6.19-20.33,15.31-25.87h0c9.93,4.53,15.66,16.15,15.73,25.15Z" transform="translate(-51.83 -3.28)" fill="url(#linear-gradient-6)"/><circle cx="158.62" cy="103.57" r="7.94" fill="url(#linear-gradient-7)"/><polygon points="142.92 141.55 101.36 196.66 135.69 196.66 143.09 182.73 142.92 141.55" fill="#3858f9"/><polygon points="174.7 141.55 216.26 196.66 181.93 196.66 174.54 182.73 174.7 141.55" fill="#3858f9"/><polygon points="142.92 141.55 101.36 196.66 135.69 196.66 143.09 182.73 142.92 141.55" fill="url(#linear-gradient-8)"/><polygon points="142.92 141.55 142.92 184.91 135.69 196.66 126.81 196.66 136.52 180.92 136.52 149.4 142.92 141.55" fill="url(#linear-gradient-9)"/><polygon points="174.7 141.55 216.26 196.66 181.93 196.66 174.54 182.73 174.7 141.55" fill="url(#linear-gradient-10)"/><rect x="139.38" y="176.26" width="39.15" height="17.32" fill="#3858f9"/><rect x="139.38" y="176.26" width="39.15" height="17.32" fill="url(#linear-gradient-11)"/><rect x="134.75" y="179.53" width="48.27" height="5.38" fill="url(#linear-gradient-12)"/><rect x="135.47" y="61.6" width="44.49" height="2.48" fill="url(#linear-gradient-13)"/><rect x="95.11" y="196.66" width="42.82" height="12.97" fill="#3858f9"/><rect x="178.81" y="196.66" width="42.82" height="12.97" fill="#3858f9"/><rect x="95.11" y="196.66" width="42.82" height="12.97" fill="url(#linear-gradient-14)"/><rect x="178.81" y="196.66" width="42.82" height="12.97" fill="url(#linear-gradient-15)"/><rect x="112.61" y="213.82" width="25.87" height="11.16" fill="#3858f9"/><polygon points="141.4 230.56 109.31 230.56 112.61 224.98 138.48 224.98 141.4 230.56" fill="none" stroke="#3858f9" stroke-miterlimit="10" stroke-width="0.63"/><rect x="179.38" y="213.82" width="25.87" height="11.16" fill="#3858f9"/><polygon points="208.17 230.56 176.08 230.56 179.38 224.98 205.25 224.98 208.17 230.56" fill="none" stroke="#3858f9" stroke-miterlimit="10" stroke-width="0.63"/><rect x="112.61" y="213.82" width="25.87" height="11.16" fill="url(#linear-gradient-16)"/><polygon points="141.4 230.56 109.31 230.56 112.61 224.98 138.48 224.98 141.4 230.56" fill="url(#linear-gradient-17)"/><rect x="179.38" y="213.82" width="25.87" height="11.16" fill="url(#linear-gradient-18)"/><polygon points="208.17 230.56 176.08 230.56 179.38 224.98 205.25 224.98 208.17 230.56" fill="url(#linear-gradient-19)"/><polygon points="139.38 193.57 142.03 203.68 175.57 203.68 178.53 193.57 139.38 193.57" fill="url(#linear-gradient-20)"/><polygon points="142.03 203.68 115.31 310.63 204.09 309.8 175.57 203.68 142.03 203.68" fill="url(#linear-gradient-21)"/><polygon points="141.4 230.56 151.16 276.98 101.45 276.98 109.31 230.56 141.4 230.56" fill="url(#linear-gradient-22)"/><polygon points="176.08 230.56 167.9 276.47 219.13 276.47 208.17 230.56 176.08 230.56" fill="url(#linear-gradient-23)"/><path d="M356.33,222.17a158.65,158.65,0,0,1-100.41,90.91A26.45,26.45,0,0,1,268.16,268a27.54,27.54,0,0,1,4.1-.59,23.09,23.09,0,0,1,33.32-20.59,37.64,37.64,0,0,1,50.75-24.65Z" transform="translate(-51.83 -3.28)" fill="url(#linear-gradient-24)"/><path d="M176.44,293.79a26.38,26.38,0,0,1-9.3,20.13A158.62,158.62,0,0,1,64.5,223.67a37.64,37.64,0,0,1,53.92,23.15,23.09,23.09,0,0,1,33.32,20.59,23.86,23.86,0,0,1,3.63.5,26.41,26.41,0,0,1,21.07,25.88Z" transform="translate(-51.83 -3.28)" fill="url(#linear-gradient-25)"/></svg>