<?xml version="1.0" encoding="iso-8859-1"?>
<!-- Generator: Adobe Illustrator 19.0.0, SVG Export Plug-In . SVG Version: 6.00 Build 0)  -->
<svg version="1.1" id="Capa_1" xmlns="http://www.w3.org/2000/svg" xmlns:xlink="http://www.w3.org/1999/xlink" x="0px" y="0px"
	 viewBox="0 0 512 512" style="enable-background:new 0 0 512 512;" xml:space="preserve">
<path style="fill:#FF8C05;" d="M0,256C0,114.615,114.615,0,256,0s256,114.615,256,256S397.385,512,256,512S0,397.385,0,256z"/>
<path style="fill:#FFFF91;" d="M115.074,21.4h86.266c63.554,0,115.074,51.52,115.074,115.074v78.735v36.339v24.15
	c0,13.422-10.88,24.302-24.302,24.302l0,0c-8.911,0-17.107-4.877-21.358-12.708l-19.404-35.744H115.074
	C51.52,251.548,0,200.028,0,136.474l0,0C0,72.92,51.52,21.4,115.074,21.4z"/>
<path style="fill:#F7D139;" d="M108.107,139.108c0,11.858-9.613,21.472-21.471,21.472s-21.471-9.613-21.471-21.472
	s9.613-21.472,21.471-21.472S108.107,127.25,108.107,139.108z M158.207,117.637c-11.858,0-21.471,9.613-21.471,21.472
	s9.613,21.472,21.471,21.472s21.471-9.613,21.471-21.472S170.065,117.637,158.207,117.637z M229.778,117.637
	c-11.858,0-21.471,9.613-21.471,21.472s9.613,21.472,21.471,21.472s21.471-9.613,21.471-21.472S241.636,117.637,229.778,117.637z"/>
<path style="fill:#DC550A;" d="M414.493,400.071l-200.857,89.122c-6.126,2.719-13.023-1.767-13.023-8.469v-42.797H75.911
	c-26.185-25.922-46.801-57.455-59.899-92.649h184.601v-42.797c0-6.702,6.896-11.188,13.023-8.469l200.857,89.121
	C421.836,386.393,421.836,396.814,414.493,400.071z"/>
<path style="fill:#6CD0F5;" d="M450.555,172.072h47.353C507.029,198.367,512,226.602,512,256c0,2.921-0.067,5.825-0.164,8.722
	h-61.281v42.797c0,6.702-6.896,11.188-13.023,8.469l-200.857-89.121c-7.343-3.259-7.343-13.68,0-16.938l200.857-89.122
	c6.126-2.719,13.023,1.767,13.023,8.469V172.072z"/>
<g>
</g>
<g>
</g>
<g>
</g>
<g>
</g>
<g>
</g>
<g>
</g>
<g>
</g>
<g>
</g>
<g>
</g>
<g>
</g>
<g>
</g>
<g>
</g>
<g>
</g>
<g>
</g>
<g>
</g>
</svg>
