<?xml version="1.0" encoding="utf-8"?>
<!-- Generator: Adobe Illustrator 21.1.0, SVG Export Plug-In . SVG Version: 6.00 Build 0)  -->
<svg version="1.1" id="Layer_1" xmlns="http://www.w3.org/2000/svg" xmlns:xlink="http://www.w3.org/1999/xlink" x="0px" y="0px"
	 viewBox="0 0 128 128" style="enable-background:new 0 0 128 128;" xml:space="preserve">
<style type="text/css">
	.st0{fill:url(#SVGID_1_);}
	.st1{opacity:0.2;}
	.st2{fill:#FFFFFF;}
</style>
<g>
	<linearGradient id="SVGID_1_" gradientUnits="userSpaceOnUse" x1="11.8622" y1="11.8622" x2="116.1378" y2="116.1378">
		<stop  offset="0" style="stop-color:#EAD886"/>
		<stop  offset="1" style="stop-color:#B08E3A"/>
	</linearGradient>
	<path class="st0" d="M87.5,128h-47C18.1,128,0,109.9,0,87.5v-47C0,18.1,18.1,0,40.5,0h47C109.9,0,128,18.1,128,40.5v47
		C128,109.9,109.9,128,87.5,128z"/>
</g>
<g>
	<g class="st1">
		<polygon points="40.8,56.7 40.8,56.7 40.8,56.7 40.8,56.7 40.8,56.7 		"/>
		<path d="M18.4,92.7c-0.1,0-0.3,0-0.4,0C18.1,92.7,18.2,92.7,18.4,92.7z"/>
		<path d="M118.2,65.3c-0.2-1-2.2-7.5-6.6-11.3c-8.8-7.4-22-5-25.8-3.7c-1.6,0.5-3.1,0.4-4.5-0.3c-0.3-0.2-0.6-0.3-1-0.5
			c0.6,0.7,1.1,1.4,1.4,2.2c0.4,1.1,0.5,2.2,0.6,3.4c0.1,1.6-0.2,3.2-0.4,4.9c-0.2,0.8-0.4,1.5-0.5,2.3c-0.7,2.7-1.6,5.3-2.9,7.8
			c-0.5,0.9-1,1.8-1.5,2.7h0c-1.4,2-3,3.9-5.3,5.3c1.6,0.8,2.6,2.2,3.5,3.6c1,1.5,2,3,3.3,4.3l0,0v0c1.6,1.8,3.4,3.3,5.5,4.6h0
			c1.4,1,2.9,1.6,4.5,2.2c1.2,0.4,2.4,0.8,3.6,0.9l0,0l0,0c2.6,0.6,5.3,0.5,7.9,0.1c3.6-0.6,6.8-2.2,9.7-4.4
			c0.3-0.2,1.8-1.5,1.9-1.6c1.2-1.1,2.3-2.3,3.3-3.6c0.3-0.5,1.6-2.5,1.9-3.1C117.7,79.3,120.2,73.1,118.2,65.3z M81.7,50.6
			C81.7,50.6,81.7,50.6,81.7,50.6C81.7,50.6,81.7,50.6,81.7,50.6C81.7,50.6,81.7,50.6,81.7,50.6z M84.6,65.2
			c-1.4,3.2-1.8,6.5-1.6,9.9c0.1,1.8,0.5,3.7,1.2,5.4c0.1,0.1,0.1,0.2,0.2,0.3c0,0,0,0-0.1,0c-1.4-2.3-2-4.8-2.3-7.4
			c-0.4-3,0.5-5.9,0.5-6c0.5-1.8,1.9-5.9,6.3-9.5c0.9-0.7,1.7-1.5,2.8-2c-1.6,1.5-4.9,5.3-5.1,5.5C85.8,62.6,85.2,63.9,84.6,65.2z
			 M88.5,59.8C88.5,59.8,88.5,59.8,88.5,59.8C88.4,59.8,88.4,59.8,88.5,59.8C88.4,59.8,88.4,59.8,88.5,59.8z M93.4,87.3l-5.3-7.4
			l6.9-4.1l-3.9-6.9l7.3-3.3l-3-7.4l8.7-1.9l0.8,1l-7.3,1.9l3.3,7.3l-7.5,3l3.7,7.3l-6.7,3.4l4.3,6.3L93.4,87.3z M95.4,81l5.9-3.5
			L98,71.6l6.3-2.8l-2.6-6.3l7.4-1.7l0.7,0.9l-6.2,1.7l2.8,6.3l-6.4,2.6l3.2,6.2l-5.8,2.9l3.7,5.4l-1.1,0.6L95.4,81z M108.1,90
			C108.1,90,108.1,90,108.1,90C108.1,90,108.1,90,108.1,90C108.1,90,108.1,90,108.1,90C108.1,90,108.1,90,108.1,90
			C108.1,90,108.1,90,108.1,90z M116.2,76c-0.8,4.5-3.3,8.1-6.7,11.1c-0.6,0.5-1.4,0.9-1.9,1.6c0,0,0,0,0,0
			c-0.2,0.1-0.3,0.2-0.5,0.3c-3,1.9-6.2,3-9.8,3c0,0,0,0,0,0c0-0.1,0-0.2-0.1-0.2c-0.3,0.1-0.2-0.1-0.1-0.2c0,0,0,0,0,0
			c0.3,0.2,0.5,0.1,0.8,0.1c3.3-0.8,6.4-2.2,9.1-4.2c0.2-0.2,0.5-0.3,0.5-0.6c0.3,0,0.5-0.2,0.7-0.4c3.1-2.8,5.4-6.1,6.5-10.2
			c0.7-2.7,1.1-5.3,0.6-7.9C116.3,70.8,116.7,73.4,116.2,76z"/>
		<path d="M79.4,48.9c-0.7-0.8-1.4-1.4-2.1-2.2c-0.4-0.1-0.6-0.4-1-0.6c-0.1-0.1-0.3-0.1-0.4,0c-0.1,0.1,0,0.3,0,0.4
			c0.1,0.3,0.4,0.4,0.3,0.8c0.3,0.7,0.7,1.4,0.9,2.1c0.7,2.7,0.6,5.4-0.1,8c-0.3,1.2-0.1,2.2,0.3,3.3c0.4,1.7,1.1,3.3,2.2,4.6
			c0.2-0.2,0.3-0.4,0.4-0.6c0.8-1.8,1.3-3.7,1.5-5.6c0.2-1.5,0.3-3,0.1-4.5v0C81.5,52.4,80.9,50.5,79.4,48.9z"/>
		<path d="M82.6,50.2c0.2-0.1,0.5-0.1,0.7-0.1c1.6,0,3.1-0.5,4.4-1.3c0.8-0.5,1.7-1,1.9-2.1c0-0.1,0-0.1,0-0.2
			c0-0.2-0.1-0.5-0.3-0.5c-0.3,0-0.3,0.3-0.3,0.5c0,0.3-0.3,0.6-0.5,0.7c-1.1,0.6-2.2,0.7-3.3,0c-1.3-0.6-2.2-1.6-2.7-3
			c-0.1-0.5-0.2-0.9-0.3-1.4c0-0.4-0.2-0.5-0.5-0.3c-1,0.5-1.9,1.1-2.7,1.9c-1,1-1,1,0.3,1.6c0.2,0.1,0.4,0.2,0.5,0.3
			c1.3,0.9,2.4,1.9,2.5,3.7C82.2,50.1,82.3,50.2,82.6,50.2z"/>
		<path d="M62.1,77.6c0,0,0,0.1,0,0.1l0,0c-0.2,0.1-0.5,0.1-0.7,0.3c0.8,0.2,1.6,0.1,2.4,0.2c2,0.2,3.9,0.1,5.9,0
			c1.6,0,2.7-0.9,3.7-1.9c0.4-0.4,0.8-0.7,1.1-1.1c1-1.2,2.1-2.4,2.8-3.9l0,0c0.7-1.1,1.4-2.3,1.8-3.5c0.3-0.9,0.7-1.5-0.4-2.5
			c-0.2-0.2-0.4-0.5-0.5-0.8c-0.5-0.8-0.7-1.7-1.1-2.6c-0.1-0.7-0.3-1.3-0.6-2c-0.3,1.1-0.6,2-0.9,3l0,0c-0.1,0.1-0.1,0.2-0.1,0.3
			c-1.4,3.5-3.2,6.7-5.7,9.5c-1.5,1.7-3.1,3.1-5.2,4c0.2-0.4,0.7-0.5,1.1-0.8c2.9-2,5-4.7,6.8-7.7c0.6-1,1.3-2,1.6-3.1l0,0
			c0.3-0.7,0.7-1.4,1-2.1c1-2.5,1.8-5.1,2.1-7.8c0.3-3.1,0.4-6.2-1.7-8.8c-0.2-0.6-0.8-0.5-1.3-0.8c-1.9-1-3.8-0.8-5.5,0.5
			c-0.2,0.1-0.5,0.3-0.4,0.5c0.1,0.3,0.4,0.1,0.6,0.1c0.2-0.1,0.4-0.1,0.6-0.2c1.2-0.3,2.7,0.3,3.3,1.2c0.6,0.8,1.1,1.7,1.3,2.8
			c0.5,2.6,0.1,5.2-0.5,7.7c-0.7,2.7-1.8,5.2-3.1,7.6c-0.1,0.1-0.2,0.3-0.3,0.4c-1.1,1.9-2.5,3.6-4.1,5.1c-5.5,5.1-8.8,1.7-8.8-1
			c0-0.8,0-1.5,0-2.3l0,0c0-0.3,0.1-0.5,0.1-0.8c0-0.2,0-0.5,0-0.7c-1,1.8-1.6,3.7-1.4,5.7v0c0.1,1.9,1,3.3,2.5,4.3
			C59.5,77.5,60.8,77.7,62.1,77.6z"/>
		<path d="M74.8,90.8c-1.7-0.3-3.3-0.9-4.8-1.7c-2-1.4-3.4-3.1-4.2-5.4v0c-0.2-1-0.4-2.1-0.5-3.1c0-0.3-0.2-0.3-0.4-0.3
			c-1.3,0-2.6,0.1-4-0.4c0.1,1.2,0.2,2.2,0.7,3.1c0.3,1,0.7,1.9,1.3,2.7c1.2,2,2.7,3.6,4.7,4.8h0c1.4,1,2.9,1.5,4.5,1.7
			c0.1,0,0.2,0,0.3,0c2.5,0.4,4.9,0,7.2-1c0.8-0.4,1.7-0.8,2.3-1.7c-0.5,0.2-0.9,0.3-1.3,0.5C78.8,90.8,76.8,90.9,74.8,90.8z"/>
		<path d="M54.1,65.8c2.5-1.5,4.8-3.1,7.9-3h0l0,0c0.9,0.1,1.7,0.3,2.6,0.6c0.6,0.3,1.1,0.6,1.7,0.9c0.2,0.1,0.4,0.1,0.5-0.1
			c0.6-1.1,1.2-2.1,1.8-3.2c0.9-1.3,1.7-2.6,2.6-3.9c0.2-0.3,0.3-0.5-0.2-0.6c-2.7-0.9-5.5-0.9-8.3-0.1c-0.2,0-0.4,0-0.5,0.1
			c-2.2,0.6-4.2,1.6-6.1,3c-1.1,0.8-2.2,1.7-2.9,2.9c-0.9,1.1-1.7,2.3-2.4,3.6c-0.6,0.8-0.9,1.6-1.4,2.5c-1.6,2.8-1.9,6.3-1.9,7.4
			C48.1,74.3,49.6,68.6,54.1,65.8z"/>
		<path d="M74.6,42.8c0.5,0.2,1,0.5,1.5,0.7c0.6,0.4,1.1,0.8,1.5,1.4c0.2,0.3,0.4,0.2,0.6,0c0.7-0.9,1.5-1.6,2.4-2.3
			c1.3-1,2.8-1.4,4.4-1.6c1.2,0,2.4,0,3.5,0.4c3.8,1.1,6.4,3.8,6.8,4.1c0.1,0.1,0.3,0.3,0.5,0.2c0.2-0.2,0-0.3-0.1-0.5
			c-0.2-0.6-3.2-9.2-14.8-6.7c-2.5,0.5-4.5,1.9-6.3,3.7C74.2,42.4,74,42.6,74.6,42.8z"/>
		<path d="M49.7,66.3L49.7,66.3L49.7,66.3c0.7-1,1.3-1.9,2-2.9c-0.7,0-1.5,0.1-1.6,0.1c-2.8,0.6-5.3,1.7-7.5,3.4
			c-1.9,1.4-3.4,3.1-4.2,5.4v0c-0.9,1.9-1,3.9-1.2,5.9c-0.1,1.6-0.2,3.2-1.1,4.6c-0.8,1.3-2,1.6-3.2,0.7c-0.4-0.4-0.5-1-0.4-1.5
			c0.1-0.6,0.6-0.9,1.2-1c0.4,0,0.7,0.2,0.7,0.6c0.1,0.6-0.3,0.7-0.8,0.8c0,0-0.1,0.1-0.1,0.1c0.7,0.7,1.5,0.6,2-0.3
			c0.4-0.7,0.2-1.6-0.5-2.2c-1.1-1-2.9-0.8-4,0.5c-1.3,1.5-1.1,3.6,0.3,5.2l0,0v0c0.9,1,2.2,1.3,3.4,1.2c3.9-0.2,6.4-2.7,7.2-6
			c0.2-0.4,0.3-0.8,0.6-1.2c1-1.6,2.1-3.2,4.3-3.2c0.2,0,0.3-0.1,0.2-0.3c0-0.9,0-1.8-0.1-2.7c0.1-0.4,0.2-0.8,0.2-1.2
			C47.7,70.2,48.6,68.3,49.7,66.3z"/>
		<path d="M74.8,86.2c-0.3,0.1-0.5-0.1-0.7-0.3c-0.1-0.2-0.3-0.4-0.5-0.7c0,0.3,0,0.4,0,0.5c0,0.9,0.4,1.3,1.1,1.4
			c0.7,0,1.2-0.4,1.3-1.3c0.1-0.7,0-1.3-0.3-2c-0.6-1.8-1.7-3.3-3.1-4.5c-0.4-0.3-0.6-0.4-0.9,0.1c-0.2,0.4-0.7,0.7-1.2,0.8
			c-0.8,0.4-1.7,0.4-2.6,0.4c-0.5-0.1-1-0.2-1.4-0.3c-0.5-0.2-0.6,0-0.6,0.4c0,0.5,0.4,3.3,1.2,4.3c1.6-1.6,3.5-2.5,5.8-1.7h0l0,0
			c0.7,0.4,1.4,0.9,1.8,1.6c0.1,0.2,0.1,0.4,0.2,0.5C75,85.8,75.1,86.1,74.8,86.2z"/>
		<path d="M53.3,72.7c-0.9,0.4-1.2,1.2-1.4,2.2c0.6-0.6,1.1-1.5,2.1-0.7h0v0c0.3,0.5,0.1,0.9-0.3,1.3c-0.6,0.5-1.1,0.3-1.7,0
			c-0.7-0.7-0.8-1.5-0.6-2.4c0.2-0.8,0.6-1.5,0.9-2.3l0,0c0,0,0.1-0.1,0.1-0.1c2.1-3.1,4.9-5.1,8.4-6.2c1-0.3,2.1-0.4,3.1-0.6
			c-1.4-0.3-2.8-0.4-4.2,0c-0.1,0-0.2,0-0.3,0c-3.2,1-5.8,2.8-7.9,5.4h0c-0.8,0.9-1.5,1.9-2,3c-0.3,0.5-0.5,1.1-0.7,1.6
			c-0.4,1.3-0.3,2.5,0.8,3.5c0.5,0.6,1.1,1,1.9,1c1.8,0.6,4.1-0.8,4.5-2.8c0.2-0.8,0.1-1.6-0.5-2.2C54.9,72.5,54.1,72.4,53.3,72.7z"
			/>
		<path d="M69.9,55.1C69.9,55.1,69.9,55.1,69.9,55.1C69.9,55.1,70,55.1,69.9,55.1C70,55.1,70,55.1,69.9,55.1z"/>
		<path d="M71.7,56.1c0,0-1.2-1.6-4.3-3.2c0.3,0.2,0.6,0.4,0.9,0.6C69.6,54,70.6,55.1,71.7,56.1z"/>
		<path d="M67.8,52.1L67.8,52.1c0.7,0.3,1.9,1.1,2.4,1.5c-0.3-0.5-0.6-1-1.1-1.5c-2.4-2.4-5.1-3-6.5-3.3c-4.8-1.4-2.8-3.8-1.1-2.8
			c0.5,0.3,1,1.6,1.1,1.9c0.7-1.5,0.5-2.9-1.3-3.5c-2.2-0.6-5.2,1.3-4.8,4.2c0,0.2,0.1,0.3,0.2,0.5C60.9,49.5,64.7,50.5,67.8,52.1
			L67.8,52.1z"/>
		<path d="M68.3,53.4c-0.3-0.2-0.6-0.4-0.9-0.6c-2.4-1.2-6-2.5-11-2.9c-1.4,0-3,0.1-4.6,0.4c-1.8,0.4-3.7,1-5.7,2.1
			c-2,1.1-3.9,2.5-5.6,4c-2.7,2.3-5.1,4.8-7.9,7c-1.6,1.3-3.2,2.4-5.3,2.8c-1.6,0.3-2.6-0.1-3.2-1.2l0,0v0c0-0.1-0.1-0.3-0.1-0.4
			c-0.2-0.9,0.2-1.6,1-1.7c0.8-0.1,1.4,0.4,1.5,1.4c0,0.2-0.1,0.4,0.1,0.6c0.7-1,0.9-2,0.5-2.8c-0.5-0.9-1.4-1.3-2.4-1.3
			c-2.5,0-4.2,2.7-3.2,5.2l0,0h0c0.5,1.3,1.3,2.4,2.6,3c0.2,0.2,0.4,0.2,0.6,0.3c1.8,0.6,3.6,0.3,5.4-0.3c1.4-0.5,2.7-1.4,4-2.2l0,0
			l0,0c-0.1,0.2-0.3,0.4-0.5,0.5c-1.7,1.4-3.3,3-4.5,4.8v0h0c-0.9,1.2-1.6,2.6-2.1,4c-0.3,0.4-0.4,0.8-0.5,1.2
			c-0.9,2.6-1.9,5.2-2.8,7.7c-0.5,0.7-0.8,1.5-1.4,2.1c-1.3,1.5-2.7,2.8-4.9,2.3c0,0-1.2-0.3-1.6-1.4c-0.2-0.7-0.2-1.2,0.3-1.6
			c0.5-0.4,1-0.5,1.5-0.2c0.5,0.3,0.7,0.8,0.5,1.4c0,0.1-0.1,0.2,0,0.3c0.1,0.1,0.2,0,0.3,0c0.2-0.1,0.3-0.2,0.4-0.4
			c0.5-0.8,0.3-1.7-0.6-2.4c-0.9-0.7-1.8-0.7-2.8-0.3c-1.2,0.5-2,1.4-2.2,2.8c-0.2,1.7,0.6,2.9,1.8,3.8c1.5,1.3,3.8,1.3,4.6,1.2
			c3.4-0.5,6.2-2.3,8.6-4.6l0,0c0.8-0.6,1.4-1.3,2.1-2c0.1-0.1,0.2-0.2,0.1-0.4c-0.4-0.7-0.6-1.6-0.8-2.4l0,0l0,0
			c0-1.2,0.2-2.3,0.7-3.4c1.3-3.2,3.3-6,5.5-8.5c3.5-4,7.7-6.8,12.9-8c1.2-0.3,2.4-0.3,3.7-0.5c-0.4-0.2-0.9-0.4-1.2-0.5
			c-1-0.4-1.7-0.5-2.6-0.7h0v0c-1.7-0.3-4.2-0.1-5.5,0.2c-2.5,0.7-4.7,1.8-6.8,3.2c-0.2,0.1-0.3,0.4-0.6,0.2l0,0c0,0,0,0,0,0
			c0.2-0.2,0.5-0.4,0.7-0.6c3.7-3.2,7.8-4.6,12.7-3.6h0l0,0c1.7,0.4,2.5,1.2,3.1,0.9c0.4-0.3,0.9-0.5,1.2-0.9
			c1.1-1.3,2.3-2.3,3.6-3.3c2.8-1.9,5.8-2.9,9.2-3c1.9,0.2,3.8,0.5,5.6,1.1C70.6,55.1,69.6,54,68.3,53.4z M40.8,56.7L40.8,56.7
			L40.8,56.7C40.8,56.7,40.8,56.7,40.8,56.7C40.8,56.7,40.8,56.7,40.8,56.7C40.8,56.7,40.8,56.7,40.8,56.7z M69.9,55.1
			C70,55.1,70,55.1,69.9,55.1C70,55.1,69.9,55.1,69.9,55.1C69.9,55.1,69.9,55.1,69.9,55.1z"/>
	</g>
	<g>
		<g>
			<polygon class="st2" points="38.8,54.7 38.8,54.7 38.8,54.7 38.8,54.7 38.8,54.7 			"/>
			<path class="st2" d="M16.4,90.7c-0.1,0-0.3,0-0.4,0C16.1,90.7,16.2,90.7,16.4,90.7z"/>
			<path class="st2" d="M116.2,63.3c-0.2-1-2.2-7.5-6.6-11.3c-8.8-7.4-22-5-25.8-3.7c-1.6,0.5-3.1,0.4-4.5-0.3
				c-0.3-0.2-0.6-0.3-1-0.5c0.6,0.7,1.1,1.4,1.4,2.2c0.4,1.1,0.5,2.2,0.6,3.4c0.1,1.6-0.2,3.2-0.4,4.9c-0.2,0.8-0.4,1.5-0.5,2.3
				c-0.7,2.7-1.6,5.3-2.9,7.8c-0.5,0.9-1,1.8-1.5,2.7h0c-1.4,2-3,3.9-5.3,5.3c1.6,0.8,2.6,2.2,3.5,3.6c1,1.5,2,3,3.3,4.3l0,0v0
				c1.6,1.8,3.4,3.3,5.5,4.6h0c1.4,1,2.9,1.6,4.5,2.2c1.2,0.4,2.4,0.8,3.6,0.9l0,0l0,0c2.6,0.6,5.3,0.5,7.9,0.1
				c3.6-0.6,6.8-2.2,9.7-4.4c0.3-0.2,1.8-1.5,1.9-1.6c1.2-1.1,2.3-2.3,3.3-3.6c0.3-0.5,1.6-2.5,1.9-3.1
				C115.7,77.3,118.2,71.1,116.2,63.3z M79.7,48.6C79.7,48.6,79.7,48.6,79.7,48.6C79.7,48.6,79.7,48.6,79.7,48.6
				C79.7,48.6,79.7,48.6,79.7,48.6z M82.6,63.2c-1.4,3.2-1.8,6.5-1.6,9.9c0.1,1.8,0.5,3.7,1.2,5.4c0.1,0.1,0.1,0.2,0.2,0.3
				c0,0,0,0-0.1,0c-1.4-2.3-2-4.8-2.3-7.4c-0.4-3,0.5-5.9,0.5-6c0.5-1.8,1.9-5.9,6.3-9.5c0.9-0.7,1.7-1.5,2.8-2
				c-1.6,1.5-4.9,5.3-5.1,5.5C83.8,60.6,83.2,61.9,82.6,63.2z M86.5,57.8C86.5,57.8,86.5,57.8,86.5,57.8
				C86.4,57.8,86.4,57.8,86.5,57.8C86.4,57.8,86.4,57.8,86.5,57.8z M91.4,85.3l-5.3-7.4l6.9-4.1l-3.9-6.9l7.3-3.3l-3-7.4l8.7-1.9
				l0.8,1l-7.3,1.9l3.3,7.3l-7.5,3l3.7,7.3l-6.7,3.4l4.3,6.3L91.4,85.3z M93.4,79l5.9-3.5L96,69.6l6.3-2.8l-2.6-6.3l7.4-1.7l0.7,0.9
				l-6.2,1.7l2.8,6.3l-6.4,2.6l3.2,6.2l-5.8,2.9l3.7,5.4l-1.1,0.6L93.4,79z M106.1,88C106.1,88,106.1,88,106.1,88
				C106.1,88,106.1,88,106.1,88C106.1,88,106.1,88,106.1,88C106.1,88,106.1,88,106.1,88C106.1,88,106.1,88,106.1,88z M114.2,74
				c-0.8,4.5-3.3,8.1-6.7,11.1c-0.6,0.5-1.4,0.9-1.9,1.6c0,0,0,0,0,0c-0.2,0.1-0.3,0.2-0.5,0.3c-3,1.9-6.2,3-9.8,3c0,0,0,0,0,0
				c0-0.1,0-0.2-0.1-0.2c-0.3,0.1-0.2-0.1-0.1-0.2c0,0,0,0,0,0c0.3,0.2,0.5,0.1,0.8,0.1c3.3-0.8,6.4-2.2,9.1-4.2
				c0.2-0.2,0.5-0.3,0.5-0.6c0.3,0,0.5-0.2,0.7-0.4c3.1-2.8,5.4-6.1,6.5-10.2c0.7-2.7,1.1-5.3,0.6-7.9
				C114.3,68.8,114.7,71.4,114.2,74z"/>
			<path class="st2" d="M77.4,46.9c-0.7-0.8-1.4-1.4-2.1-2.2c-0.4-0.1-0.6-0.4-1-0.6c-0.1-0.1-0.3-0.1-0.4,0c-0.1,0.1,0,0.3,0,0.4
				c0.1,0.3,0.4,0.4,0.3,0.8c0.3,0.7,0.7,1.4,0.9,2.1c0.7,2.7,0.6,5.4-0.1,8c-0.3,1.2-0.1,2.2,0.3,3.3c0.4,1.7,1.1,3.3,2.2,4.6
				c0.2-0.2,0.3-0.4,0.4-0.6c0.8-1.8,1.3-3.7,1.5-5.6c0.2-1.5,0.3-3,0.1-4.5v0C79.5,50.4,78.9,48.5,77.4,46.9z"/>
			<path class="st2" d="M80.6,48.2c0.2-0.1,0.5-0.1,0.7-0.1c1.6,0,3.1-0.5,4.4-1.3c0.8-0.5,1.7-1,1.9-2.1c0-0.1,0-0.1,0-0.2
				c0-0.2-0.1-0.5-0.3-0.5c-0.3,0-0.3,0.3-0.3,0.5c0,0.3-0.3,0.6-0.5,0.7c-1.1,0.6-2.2,0.7-3.3,0c-1.3-0.6-2.2-1.6-2.7-3
				c-0.1-0.5-0.2-0.9-0.3-1.4c0-0.4-0.2-0.5-0.5-0.3c-1,0.5-1.9,1.1-2.7,1.9c-1,1-1,1,0.3,1.6c0.2,0.1,0.4,0.2,0.5,0.3
				c1.3,0.9,2.4,1.9,2.5,3.7C80.2,48.1,80.3,48.2,80.6,48.2z"/>
			<path class="st2" d="M60.1,75.6c0,0,0,0.1,0,0.1l0,0c-0.2,0.1-0.5,0.1-0.7,0.3c0.8,0.2,1.6,0.1,2.4,0.2c2,0.2,3.9,0.1,5.9,0
				c1.6,0,2.7-0.9,3.7-1.9c0.4-0.4,0.8-0.7,1.1-1.1c1-1.2,2.1-2.4,2.8-3.9l0,0c0.7-1.1,1.4-2.3,1.8-3.5c0.3-0.9,0.7-1.5-0.4-2.5
				c-0.2-0.2-0.4-0.5-0.5-0.8c-0.5-0.8-0.7-1.7-1.1-2.6c-0.1-0.7-0.3-1.3-0.6-2c-0.3,1.1-0.6,2-0.9,3l0,0c-0.1,0.1-0.1,0.2-0.1,0.3
				c-1.4,3.5-3.2,6.7-5.7,9.5c-1.5,1.7-3.1,3.1-5.2,4c0.2-0.4,0.7-0.5,1.1-0.8c2.9-2,5-4.7,6.8-7.7c0.6-1,1.3-2,1.6-3.1l0,0
				c0.3-0.7,0.7-1.4,1-2.1c1-2.5,1.8-5.1,2.1-7.8c0.3-3.1,0.4-6.2-1.7-8.8c-0.2-0.6-0.8-0.5-1.3-0.8c-1.9-1-3.8-0.8-5.5,0.5
				c-0.2,0.1-0.5,0.3-0.4,0.5c0.1,0.3,0.4,0.1,0.6,0.1c0.2-0.1,0.4-0.1,0.6-0.2c1.2-0.3,2.7,0.3,3.3,1.2c0.6,0.8,1.1,1.7,1.3,2.8
				c0.5,2.6,0.1,5.2-0.5,7.7c-0.7,2.7-1.8,5.2-3.1,7.6c-0.1,0.1-0.2,0.3-0.3,0.4c-1.1,1.9-2.5,3.6-4.1,5.1c-5.5,5.1-8.8,1.7-8.8-1
				c0-0.8,0-1.5,0-2.3l0,0c0-0.3,0.1-0.5,0.1-0.8c0-0.2,0-0.5,0-0.7c-1,1.8-1.6,3.7-1.4,5.7v0c0.1,1.9,1,3.3,2.5,4.3
				C57.5,75.5,58.8,75.7,60.1,75.6z"/>
			<path class="st2" d="M72.8,88.8c-1.7-0.3-3.3-0.9-4.8-1.7c-2-1.4-3.4-3.1-4.2-5.4v0c-0.2-1-0.4-2.1-0.5-3.1
				c0-0.3-0.2-0.3-0.4-0.3c-1.3,0-2.6,0.1-4-0.4c0.1,1.2,0.2,2.2,0.7,3.1c0.3,1,0.7,1.9,1.3,2.7c1.2,2,2.7,3.6,4.7,4.8h0
				c1.4,1,2.9,1.5,4.5,1.7c0.1,0,0.2,0,0.3,0c2.5,0.4,4.9,0,7.2-1c0.8-0.4,1.7-0.8,2.3-1.7c-0.5,0.2-0.9,0.3-1.3,0.5
				C76.8,88.8,74.8,88.9,72.8,88.8z"/>
			<path class="st2" d="M52.1,63.8c2.5-1.5,4.8-3.1,7.9-3h0l0,0c0.9,0.1,1.7,0.3,2.6,0.6c0.6,0.3,1.1,0.6,1.7,0.9
				c0.2,0.1,0.4,0.1,0.5-0.1c0.6-1.1,1.2-2.1,1.8-3.2c0.9-1.3,1.7-2.6,2.6-3.9c0.2-0.3,0.3-0.5-0.2-0.6c-2.7-0.9-5.5-0.9-8.3-0.1
				c-0.2,0-0.4,0-0.5,0.1c-2.2,0.6-4.2,1.6-6.1,3c-1.1,0.8-2.2,1.7-2.9,2.9c-0.9,1.1-1.7,2.3-2.4,3.6c-0.6,0.8-0.9,1.6-1.4,2.5
				c-1.6,2.8-1.9,6.3-1.9,7.4C46.1,72.3,47.6,66.6,52.1,63.8z"/>
			<path class="st2" d="M72.6,40.8c0.5,0.2,1,0.5,1.5,0.7c0.6,0.4,1.1,0.8,1.5,1.4c0.2,0.3,0.4,0.2,0.6,0c0.7-0.9,1.5-1.6,2.4-2.3
				c1.3-1,2.8-1.4,4.4-1.6c1.2,0,2.4,0,3.5,0.4c3.8,1.1,6.4,3.8,6.8,4.1c0.1,0.1,0.3,0.3,0.5,0.2c0.2-0.2,0-0.3-0.1-0.5
				c-0.2-0.6-3.2-9.2-14.8-6.7c-2.5,0.5-4.5,1.9-6.3,3.7C72.2,40.4,72,40.6,72.6,40.8z"/>
			<path class="st2" d="M47.7,64.3L47.7,64.3L47.7,64.3c0.7-1,1.3-1.9,2-2.9c-0.7,0-1.5,0.1-1.6,0.1c-2.8,0.6-5.3,1.7-7.5,3.4
				c-1.9,1.4-3.4,3.1-4.2,5.4v0c-0.9,1.9-1,3.9-1.2,5.9c-0.1,1.6-0.2,3.2-1.1,4.6c-0.8,1.3-2,1.6-3.2,0.7c-0.4-0.4-0.5-1-0.4-1.5
				c0.1-0.6,0.6-0.9,1.2-1c0.4,0,0.7,0.2,0.7,0.6c0.1,0.6-0.3,0.7-0.8,0.8c0,0-0.1,0.1-0.1,0.1c0.7,0.7,1.5,0.6,2-0.3
				c0.4-0.7,0.2-1.6-0.5-2.2c-1.1-1-2.9-0.8-4,0.5c-1.3,1.5-1.1,3.6,0.3,5.2l0,0v0c0.9,1,2.2,1.3,3.4,1.2c3.9-0.2,6.4-2.7,7.2-6
				c0.2-0.4,0.3-0.8,0.6-1.2c1-1.6,2.1-3.2,4.3-3.2c0.2,0,0.3-0.1,0.2-0.3c0-0.9,0-1.8-0.1-2.7c0.1-0.4,0.2-0.8,0.2-1.2
				C45.7,68.2,46.6,66.3,47.7,64.3z"/>
			<path class="st2" d="M72.8,84.2c-0.3,0.1-0.5-0.1-0.7-0.3c-0.1-0.2-0.3-0.4-0.5-0.7c0,0.3,0,0.4,0,0.5c0,0.9,0.4,1.3,1.1,1.4
				c0.7,0,1.2-0.4,1.3-1.3c0.1-0.7,0-1.3-0.3-2c-0.6-1.8-1.7-3.3-3.1-4.5c-0.4-0.3-0.6-0.4-0.9,0.1c-0.2,0.4-0.7,0.7-1.2,0.8
				c-0.8,0.4-1.7,0.4-2.6,0.4c-0.5-0.1-1-0.2-1.4-0.3c-0.5-0.2-0.6,0-0.6,0.4c0,0.5,0.4,3.3,1.2,4.3c1.6-1.6,3.5-2.5,5.8-1.7h0l0,0
				c0.7,0.4,1.4,0.9,1.8,1.6c0.1,0.2,0.1,0.4,0.2,0.5C73,83.8,73.1,84.1,72.8,84.2z"/>
			<path class="st2" d="M51.3,70.7c-0.9,0.4-1.2,1.2-1.4,2.2c0.6-0.6,1.1-1.5,2.1-0.7h0v0c0.3,0.5,0.1,0.9-0.3,1.3
				c-0.6,0.5-1.1,0.3-1.7,0c-0.7-0.7-0.8-1.5-0.6-2.4c0.2-0.8,0.6-1.5,0.9-2.3l0,0c0,0,0.1-0.1,0.1-0.1c2.1-3.1,4.9-5.1,8.4-6.2
				c1-0.3,2.1-0.4,3.1-0.6c-1.4-0.3-2.8-0.4-4.2,0c-0.1,0-0.2,0-0.3,0c-3.2,1-5.8,2.8-7.9,5.4h0c-0.8,0.9-1.5,1.9-2,3
				c-0.3,0.5-0.5,1.1-0.7,1.6c-0.4,1.3-0.3,2.5,0.8,3.5c0.5,0.6,1.1,1,1.9,1c1.8,0.6,4.1-0.8,4.5-2.8c0.2-0.8,0.1-1.6-0.5-2.2
				C52.9,70.5,52.1,70.4,51.3,70.7z"/>
			<path class="st2" d="M67.9,53.1C67.9,53.1,67.9,53.1,67.9,53.1C67.9,53.1,68,53.1,67.9,53.1C68,53.1,68,53.1,67.9,53.1z"/>
			<path class="st2" d="M69.7,54.1c0,0-1.2-1.6-4.3-3.2c0.3,0.2,0.6,0.4,0.9,0.6C67.6,52,68.6,53.1,69.7,54.1z"/>
			<path class="st2" d="M65.8,50.1L65.8,50.1c0.7,0.3,1.9,1.1,2.4,1.5c-0.3-0.5-0.6-1-1.1-1.5c-2.4-2.4-5.1-3-6.5-3.3
				c-4.8-1.4-2.8-3.8-1.1-2.8c0.5,0.3,1,1.6,1.1,1.9c0.7-1.5,0.5-2.9-1.3-3.5c-2.2-0.6-5.2,1.3-4.8,4.2c0,0.2,0.1,0.3,0.2,0.5
				C58.9,47.5,62.7,48.5,65.8,50.1L65.8,50.1z"/>
			<path class="st2" d="M66.3,51.4c-0.3-0.2-0.6-0.4-0.9-0.6c-2.4-1.2-6-2.5-11-2.9c-1.4,0-3,0.1-4.6,0.4c-1.8,0.4-3.7,1-5.7,2.1
				c-2,1.1-3.9,2.5-5.6,4c-2.7,2.3-5.1,4.8-7.9,7c-1.6,1.3-3.2,2.4-5.3,2.8c-1.6,0.3-2.6-0.1-3.2-1.2l0,0v0c0-0.1-0.1-0.3-0.1-0.4
				c-0.2-0.9,0.2-1.6,1-1.7c0.8-0.1,1.4,0.4,1.5,1.4c0,0.2-0.1,0.4,0.1,0.6c0.7-1,0.9-2,0.5-2.8c-0.5-0.9-1.4-1.3-2.4-1.3
				c-2.5,0-4.2,2.7-3.2,5.2l0,0h0c0.5,1.3,1.3,2.4,2.6,3c0.2,0.2,0.4,0.2,0.6,0.3c1.8,0.6,3.6,0.3,5.4-0.3c1.4-0.5,2.7-1.4,4-2.2
				l0,0l0,0c-0.1,0.2-0.3,0.4-0.5,0.5c-1.7,1.4-3.3,3-4.5,4.8v0h0c-0.9,1.2-1.6,2.6-2.1,4c-0.3,0.4-0.4,0.8-0.5,1.2
				c-0.9,2.6-1.9,5.2-2.8,7.7c-0.5,0.7-0.8,1.5-1.4,2.1c-1.3,1.5-2.7,2.8-4.9,2.3c0,0-1.2-0.3-1.6-1.4c-0.2-0.7-0.2-1.2,0.3-1.6
				c0.5-0.4,1-0.5,1.5-0.2c0.5,0.3,0.7,0.8,0.5,1.4c0,0.1-0.1,0.2,0,0.3c0.1,0.1,0.2,0,0.3,0c0.2-0.1,0.3-0.2,0.4-0.4
				c0.5-0.8,0.3-1.7-0.6-2.4c-0.9-0.7-1.8-0.7-2.8-0.3c-1.2,0.5-2,1.4-2.2,2.8c-0.2,1.7,0.6,2.9,1.8,3.8c1.5,1.3,3.8,1.3,4.6,1.2
				c3.4-0.5,6.2-2.3,8.6-4.6l0,0c0.8-0.6,1.4-1.3,2.1-2c0.1-0.1,0.2-0.2,0.1-0.4c-0.4-0.7-0.6-1.6-0.8-2.4l0,0l0,0
				c0-1.2,0.2-2.3,0.7-3.4c1.3-3.2,3.3-6,5.5-8.5c3.5-4,7.7-6.8,12.9-8c1.2-0.3,2.4-0.3,3.7-0.5c-0.4-0.2-0.9-0.4-1.2-0.5
				c-1-0.4-1.7-0.5-2.6-0.7h0v0c-1.7-0.3-4.2-0.1-5.5,0.2c-2.5,0.7-4.7,1.8-6.8,3.2c-0.2,0.1-0.3,0.4-0.6,0.2l0,0c0,0,0,0,0,0
				c0.2-0.2,0.5-0.4,0.7-0.6c3.7-3.2,7.8-4.6,12.7-3.6h0l0,0c1.7,0.4,2.5,1.2,3.1,0.9c0.4-0.3,0.9-0.5,1.2-0.9
				c1.1-1.3,2.3-2.3,3.6-3.3c2.8-1.9,5.8-2.9,9.2-3c1.9,0.2,3.8,0.5,5.6,1.1C68.6,53.1,67.6,52,66.3,51.4z M38.8,54.7L38.8,54.7
				L38.8,54.7C38.8,54.7,38.8,54.7,38.8,54.7C38.8,54.7,38.8,54.7,38.8,54.7C38.8,54.7,38.8,54.7,38.8,54.7z M67.9,53.1
				C68,53.1,68,53.1,67.9,53.1C68,53.1,67.9,53.1,67.9,53.1C67.9,53.1,67.9,53.1,67.9,53.1z"/>
		</g>
	</g>
</g>
</svg>
