<?xml version="1.0" encoding="utf-8"?>
<!-- Generator: Adobe Illustrator 21.1.0, SVG Export Plug-In . SVG Version: 6.00 Build 0)  -->
<svg version="1.1" id="Layer_1" xmlns="http://www.w3.org/2000/svg" xmlns:xlink="http://www.w3.org/1999/xlink" x="0px" y="0px"
	 viewBox="0 0 128 128" style="enable-background:new 0 0 128 128;" xml:space="preserve">
<style type="text/css">
	.st0{fill:url(#SVGID_1_);}
	.st1{opacity:0.2;}
	.st2{fill:#FFFFFF;}
</style>
<linearGradient id="SVGID_1_" gradientUnits="userSpaceOnUse" x1="11.8622" y1="11.8622" x2="116.1378" y2="116.1378">
	<stop  offset="0" style="stop-color:#7E3C6D"/>
	<stop  offset="1" style="stop-color:#612953"/>
</linearGradient>
<path class="st0" d="M87.5,128h-47C18.1,128,0,109.9,0,87.5v-47C0,18.1,18.1,0,40.5,0h47C109.9,0,128,18.1,128,40.5v47
	C128,109.9,109.9,128,87.5,128z"/>
<g>
	<g class="st1">
		<path d="M66,113.8c-0.9-0.4-1.7-0.7-2.4-1.1c-11.8-7-23.7-14.1-35.5-21.2c-2.7-1.6-3.2-3.2-1.6-6.1c12-21.5,24-43,35.9-64.5
			c0.8-1.5,1.8-2.6,3.6-2.6c1.8,0,2.8,1.2,3.6,2.7c11.9,21.4,23.9,42.9,35.8,64.3c1.6,2.9,1.2,4.5-1.6,6.2c-11.7,7-23.4,14-35.1,21
			C67.9,113,67,113.4,66,113.8z M61.8,91.6c-2.8-1.7-5.5-3.3-8.2-4.9c-2-1.2-3.9-2.6-5.9-3.8c-0.8-0.5-2-0.9-2.9-0.6
			c-4.9,1.4-9.4,3.9-14,6.8c11.3,6.7,22.2,13.3,33.4,20c0-4.5,0.1-8.6,0-12.7c-0.1-2.5,0.9-4.5,2.6-6.1c1.2-1.1,2.6-2.1,4-2.8
			c4-1.9,7.2-4.5,9-8.9c0.8,1.3,1.5,2.3,2.2,3.4c-1.9,3.5-4.7,6-8.1,7.8c-1.6,0.8-3.1,1.8-4.5,2.9c-0.7,0.6-1.6,1.6-1.6,2.4
			c-0.2,4.5-0.1,9.1-0.1,14c11.2-6.7,22-13.2,33.3-19.9c-4.4-2.2-8.4-4.3-12.4-6.2c-2.9-1.4-4.9-3.4-6.1-6.3c-0.8-2-1.5-4.1-2.1-6.3
			c-1.5-5.8-5-9.6-10.8-11.3c-0.6-0.2-1.3-0.3-2-0.5c2.4-3.4,2.4-3.4,5.9-1.8c5.3,2.5,8.9,6.6,10.1,12.3c1.2,6,3.8,10.5,9.9,12.5
			c1.6,0.5,3.1,1.5,4.6,2.3c0.9,0.4,1.7,0.8,2.6,1.2c0.1-0.1,0.2-0.2,0.3-0.4C90.2,65.1,79.3,45.5,68.3,25.9c-0.2,0-0.4,0.1-0.6,0.1
			c0,0.7,0,1.5,0,2.2c0,7-0.2,14,0.1,21c0.1,4.1-1.5,6.8-4.8,8.9c-1.2,0.8-2.4,1.5-3.7,2.1c-4,2-6.7,5.2-7.6,9.5
			c-0.5,2.4-0.4,4.9-0.5,7.3c-3.7-1.1-3.7-1.1-3.4-5.1c0.6-6.8,4.1-11.7,10-15c1.6-0.9,3.3-1.7,4.6-3c0.9-0.9,1.7-2.4,1.7-3.7
			c0.2-7.7,0.1-15.4,0.1-23.2c0-0.4-0.1-0.9-0.3-1.7C52.9,45.3,42.1,64.7,31.1,84.5c3.8-1.8,7.2-3.3,10.6-4.9
			c2.8-1.3,5.6-1.1,8.2,0.3c1.7,0.9,3.4,1.8,4.9,3.1c2.8,2.5,5.8,4.5,9.8,5C63.6,89.2,63,90.1,61.8,91.6z"/>
	</g>
	<g>
		<g>
			<path class="st2" d="M64,111.8c-0.9-0.4-1.7-0.7-2.4-1.1c-11.8-7-23.7-14.1-35.5-21.2c-2.7-1.6-3.2-3.2-1.6-6.1
				c12-21.5,24-43,35.9-64.5c0.8-1.5,1.8-2.6,3.6-2.6c1.8,0,2.8,1.2,3.6,2.7c11.9,21.4,23.9,42.9,35.8,64.3c1.6,2.9,1.2,4.5-1.6,6.2
				c-11.7,7-23.4,14-35.1,21C65.9,111,65,111.4,64,111.8z M59.8,89.6c-2.8-1.7-5.5-3.3-8.2-4.9c-2-1.2-3.9-2.6-5.9-3.8
				c-0.8-0.5-2-0.9-2.9-0.6c-4.9,1.4-9.4,3.9-14,6.8c11.3,6.7,22.2,13.3,33.4,20c0-4.5,0.1-8.6,0-12.7c-0.1-2.5,0.9-4.5,2.6-6.1
				c1.2-1.1,2.6-2.1,4-2.8c4-1.9,7.2-4.5,9-8.9c0.8,1.3,1.5,2.3,2.2,3.4c-1.9,3.5-4.7,6-8.1,7.8c-1.6,0.8-3.1,1.8-4.5,2.9
				c-0.7,0.6-1.6,1.6-1.6,2.4c-0.2,4.5-0.1,9.1-0.1,14c11.2-6.7,22-13.2,33.3-19.9c-4.4-2.2-8.4-4.3-12.4-6.2
				c-2.9-1.4-4.9-3.4-6.1-6.3c-0.8-2-1.5-4.1-2.1-6.3c-1.5-5.8-5-9.6-10.8-11.3c-0.6-0.2-1.3-0.3-2-0.5c2.4-3.4,2.4-3.4,5.9-1.8
				c5.3,2.5,8.9,6.6,10.1,12.3c1.2,6,3.8,10.5,9.9,12.5c1.6,0.5,3.1,1.5,4.6,2.3c0.9,0.4,1.7,0.8,2.6,1.2c0.1-0.1,0.2-0.2,0.3-0.4
				C88.2,63.1,77.3,43.5,66.3,23.9c-0.2,0-0.4,0.1-0.6,0.1c0,0.7,0,1.5,0,2.2c0,7-0.2,14,0.1,21c0.1,4.1-1.5,6.8-4.8,8.9
				c-1.2,0.8-2.4,1.5-3.7,2.1c-4,2-6.7,5.2-7.6,9.5c-0.5,2.4-0.4,4.9-0.5,7.3c-3.7-1.1-3.7-1.1-3.4-5.1c0.6-6.8,4.1-11.7,10-15
				c1.6-0.9,3.3-1.7,4.6-3c0.9-0.9,1.7-2.4,1.7-3.7c0.2-7.7,0.1-15.4,0.1-23.2c0-0.4-0.1-0.9-0.3-1.7C50.9,43.3,40.1,62.7,29.1,82.5
				c3.8-1.8,7.2-3.3,10.6-4.9c2.8-1.3,5.6-1.1,8.2,0.3c1.7,0.9,3.4,1.8,4.9,3.1c2.8,2.5,5.8,4.5,9.8,5C61.6,87.2,61,88.1,59.8,89.6z
				"/>
		</g>
	</g>
</g>
</svg>
