<?xml version="1.0" encoding="utf-8"?>
<!-- Generator: Adobe Illustrator 21.1.0, SVG Export Plug-In . SVG Version: 6.00 Build 0)  -->
<svg version="1.1" id="Layer_1" xmlns="http://www.w3.org/2000/svg" xmlns:xlink="http://www.w3.org/1999/xlink" x="0px" y="0px"
	 viewBox="0 0 128 128" style="enable-background:new 0 0 128 128;" xml:space="preserve">
<style type="text/css">
	.st0{fill:url(#SVGID_1_);}
	.st1{opacity:0.2;}
	.st2{fill:#FFFFFF;}
</style>
<linearGradient id="SVGID_1_" gradientUnits="userSpaceOnUse" x1="11.85" y1="116.15" x2="116.15" y2="11.85" gradientTransform="matrix(1 0 0 -1 0 128)">
	<stop  offset="0" style="stop-color:#F79226"/>
	<stop  offset="1" style="stop-color:#D77328"/>
</linearGradient>
<path class="st0" d="M87.5,128h-47C18.1,128,0,109.9,0,87.5v-47C0,18.1,18.1,0,40.5,0h47C109.9,0,128,18.1,128,40.5v47
	C128,109.9,109.9,128,87.5,128z"/>
<g>
	<g class="st1">
		<path d="M46.9,51c0-4.1,0-8.1,0-12.1c0-0.3-0.5-0.8-0.8-1c-2.7-1.9-4-4.4-3.6-7.6c0.4-3.3,2.2-5.6,5.3-6.8c3.9-1.4,8.2,0.4,10,4.2
			c1.7,3.8,0.4,8.2-3.2,10.3c-0.7,0.4-0.9,0.8-0.9,1.5c0,3.4,0,6.8-0.1,10.2c0,0.5,0,1.3,0,1.3s0.8,0.2,1.2,0.2
			c1.4,0.3,2.8,0.7,4.1,1.2c0.4,0.2,0.8,0.4,0.8,0.4s0.6-0.5,0.8-0.6c6.2-5.3,12.5-10.6,18.7-15.9c2.7-2.3,5.3-4.5,8-6.8
			c0.4-0.4,0.7-0.7,0.5-1.4c-0.9-3.8,0.2-7.1,3.2-9.5s6.3-2.8,9.8-1.1c3.4,1.7,5.2,4.5,5.3,8.3c0.2,6.6-6.8,11.3-12.9,8.7
			c-0.7-0.3-1.1-0.2-1.6,0.3c-8.5,7-16.9,13.8-25.3,20.6c-0.3,0.3-0.6,0.6-1,0.9c10.1,8.4,11.6,23.3,3.3,33.9
			c2.4,2.9,4.8,5.7,7.3,8.6C76,99,76.6,99.1,77,99c4.3-0.8,8.5,1.9,9.5,6.2c1.1,4.3-1.4,8.7-5.7,9.9c-3.2,0.9-6,0.2-8.3-2.2
			c-2.3-2.3-2.9-5.2-1.9-8.3c0.2-0.6,0.2-1-0.3-1.5c-2-2.4-4-4.9-6-7.3c-0.3-0.3-0.6-0.7-0.8-1C50,103.7,33,97.3,27.8,83.9
			c-2.8-7.3-2.4-14.4,1.6-21.1C33.4,55.9,39.4,52.2,46.9,51z"/>
	</g>
	<g>
		<g>
			<path class="st2" d="M44.9,49c0-4.1,0-8.1,0-12.1c0-0.3-0.5-0.8-0.8-1c-2.7-1.9-4-4.4-3.6-7.6c0.4-3.3,2.2-5.6,5.3-6.8
				c3.9-1.4,8.2,0.4,10,4.2c1.7,3.8,0.4,8.2-3.2,10.3c-0.7,0.4-0.9,0.8-0.9,1.5c0,3.4,0,6.8-0.1,10.2c0,0.5,0,1.3,0,1.3
				s0.8,0.2,1.2,0.2c1.4,0.3,2.8,0.7,4.1,1.2c0.4,0.2,0.8,0.4,0.8,0.4s0.6-0.5,0.8-0.6c6.2-5.3,12.5-10.6,18.7-15.9
				c2.7-2.3,5.3-4.5,8-6.8c0.4-0.4,0.7-0.7,0.5-1.4c-0.9-3.8,0.2-7.1,3.2-9.5s6.3-2.8,9.8-1.1c3.4,1.7,5.2,4.5,5.3,8.3
				c0.2,6.6-6.8,11.3-12.9,8.7c-0.7-0.3-1.1-0.2-1.6,0.3c-8.5,7-16.9,13.8-25.3,20.6c-0.3,0.3-0.6,0.6-1,0.9
				c10.1,8.4,11.6,23.3,3.3,33.9c2.4,2.9,4.8,5.7,7.3,8.6C74,97,74.6,97.1,75,97c4.3-0.8,8.5,1.9,9.5,6.2c1.1,4.3-1.4,8.7-5.7,9.9
				c-3.2,0.9-6,0.2-8.3-2.2c-2.3-2.3-2.9-5.2-1.9-8.3c0.2-0.6,0.2-1-0.3-1.5c-2-2.4-4-4.9-6-7.3c-0.3-0.3-0.6-0.7-0.8-1
				C48,101.7,31,95.3,25.8,81.9c-2.8-7.3-2.4-14.4,1.6-21.1C31.4,53.9,37.4,50.2,44.9,49z"/>
		</g>
	</g>
</g>
</svg>
