<?xml version="1.0" encoding="utf-8"?>
<!-- Generator: Adobe Illustrator 21.1.0, SVG Export Plug-In . SVG Version: 6.00 Build 0)  -->
<svg version="1.1" id="Layer_1" xmlns="http://www.w3.org/2000/svg" xmlns:xlink="http://www.w3.org/1999/xlink" x="0px" y="0px"
	 viewBox="0 0 128 128" style="enable-background:new 0 0 128 128;" xml:space="preserve">
<style type="text/css">
	.st0{fill:url(#SVGID_1_);}
	.st1{opacity:0.2;}
	.st2{fill:#FFFFFF;}
</style>
<linearGradient id="SVGID_1_" gradientUnits="userSpaceOnUse" x1="11.8622" y1="11.8622" x2="116.1378" y2="116.1378">
	<stop  offset="0" style="stop-color:#F9A038"/>
	<stop  offset="1" style="stop-color:#F47C36"/>
</linearGradient>
<path class="st0" d="M87.5,128h-47C18.1,128,0,109.9,0,87.5v-47C0,18.1,18.1,0,40.5,0h47C109.9,0,128,18.1,128,40.5v47
	C128,109.9,109.9,128,87.5,128z"/>
<g>
	<g class="st1">
		<path d="M96.3,73.4c-0.5-3.6-2.3-6.4-5.4-8.2c-1.4-0.8-3.1-1.4-4.7-2.1c0.2-0.1,0.3-0.3,0.4-0.3c7.9-4.1,7.2-16.3,1.5-20.5
			c-2.3-1.7-4.9-2.8-7.7-3.4c-2-0.4-3.9-0.7-6-1.1c0-3.5,0.1-8.5,0.1-12.4H67c0,3.8-0.1,8.7-0.1,12.1c-2.1,0-4,0-5.9,0
			c0-3.5,0-8.3,0.1-12.1h-7.4c0,4-0.1,8.8-0.1,12.3c-5.1,0-10-0.1-15-0.1c0,2.7,0,5.3-0.1,7.9c1.1,0,2,0,3,0c0.9,0,1.9,0,2.8,0.1
			c2.6,0.2,3.9,1.6,3.9,4.2c-0.1,10.6-0.2,21.3-0.3,31.9c0,2.3-1,3.3-3.3,3.3c-1.6,0-3.3,0-5,0c-0.5,3-1,5.9-1.6,8.9
			c5,0.1,10,0.1,15,0.2c0,3.8,0,8.7-0.1,12.7h7.4c0-4,0.1-8.7,0.1-12.5c2.1,0.1,4,0.1,5.9,0.2c0,3.8-0.1,8.4-0.1,12.3h7.4
			c0-4,0.1-8.7,0.1-12.4c0.3,0,0.5-0.1,0.6-0.1c3.5-0.6,7.2-0.9,10.6-1.7c4.5-1.1,8.1-3.7,9.9-8.2C96.5,80.8,96.8,77.2,96.3,73.4z
			 M61,46.3c4.6,0,9.1-0.4,13.4,1.5c2.8,1.2,4.2,3.5,4,6.3c-0.2,2.9-1.9,5-4.8,6c-4.1,1.3-8.3,1.3-12.7,1.1
			C60.9,56.2,61,51.4,61,46.3z M77.2,83.4c-4.1,1.8-8.5,1.8-12.8,1.9c-1.2,0-2.4-0.1-3.8-0.1c0.1-5.5,0.1-10.9,0.2-16.4
			c5.6,0,11.2-0.4,16.5,1.9c2.7,1.2,4.3,3.3,4.3,6.4C81.6,80.2,80,82.2,77.2,83.4z"/>
	</g>
	<g>
		<path class="st2" d="M94.3,71.4c-0.5-3.6-2.3-6.4-5.4-8.2c-1.4-0.8-3.1-1.4-4.7-2.1c0.2-0.1,0.3-0.3,0.4-0.3
			c7.9-4.1,7.2-16.3,1.5-20.5c-2.3-1.7-4.9-2.8-7.7-3.4c-2-0.4-3.9-0.7-6-1.1c0-3.5,0.1-8.5,0.1-12.4H65c0,3.8-0.1,8.7-0.1,12.1
			c-2.1,0-4,0-5.9,0c0-3.5,0-8.3,0.1-12.1h-7.4c0,4-0.1,8.8-0.1,12.3c-5.1,0-10-0.1-15-0.1c0,2.7,0,5.3-0.1,7.9c1.1,0,2,0,3,0
			c0.9,0,1.9,0,2.8,0.1c2.6,0.2,3.9,1.6,3.9,4.2c-0.1,10.6-0.2,21.3-0.3,31.9c0,2.3-1,3.3-3.3,3.3c-1.6,0-3.3,0-5,0
			c-0.5,3-1,5.9-1.6,8.9c5,0.1,10,0.1,15,0.2c0,3.8,0,8.7-0.1,12.7h7.4c0-4,0.1-8.7,0.1-12.5c2.1,0.1,4,0.1,5.9,0.2
			c0,3.8-0.1,8.4-0.1,12.3h7.4c0-4,0.1-8.7,0.1-12.4c0.3,0,0.5-0.1,0.6-0.1c3.5-0.6,7.2-0.9,10.6-1.7c4.5-1.1,8.1-3.7,9.9-8.2
			C94.5,78.8,94.8,75.2,94.3,71.4z M59,44.3c4.6,0,9.1-0.4,13.4,1.5c2.8,1.2,4.2,3.5,4,6.3c-0.2,2.9-1.9,5-4.8,6
			c-4.1,1.3-8.3,1.3-12.7,1.1C58.9,54.2,59,49.4,59,44.3z M75.2,81.4c-4.1,1.8-8.5,1.8-12.8,1.9c-1.2,0-2.4-0.1-3.8-0.1
			c0.1-5.5,0.1-10.9,0.2-16.4c5.6,0,11.2-0.4,16.5,1.9c2.7,1.2,4.3,3.3,4.3,6.4C79.6,78.2,78,80.2,75.2,81.4z"/>
	</g>
</g>
</svg>
