<?xml version="1.0" encoding="utf-8"?>
<!-- Generator: Adobe Illustrator 21.1.0, SVG Export Plug-In . SVG Version: 6.00 Build 0)  -->
<svg version="1.1" id="Layer_1" xmlns="http://www.w3.org/2000/svg" xmlns:xlink="http://www.w3.org/1999/xlink" x="0px" y="0px"
	 viewBox="0 0 128 128" style="enable-background:new 0 0 128 128;" xml:space="preserve">
<style type="text/css">
	.st0{fill:url(#SVGID_1_);}
	.st1{opacity:0.2;}
	.st2{fill:#FFFFFF;}
</style>
<linearGradient id="SVGID_1_" gradientUnits="userSpaceOnUse" x1="11.8622" y1="11.8622" x2="116.1378" y2="116.1378">
	<stop  offset="0" style="stop-color:#616264"/>
	<stop  offset="1" style="stop-color:#000000"/>
</linearGradient>
<path class="st0" d="M87.5,128h-47C18.1,128,0,109.9,0,87.5v-47C0,18.1,18.1,0,40.5,0h47C109.9,0,128,18.1,128,40.5v47
	C128,109.9,109.9,128,87.5,128z"/>
<g>
	<g class="st1">
		<path d="M45.3,102.1c0-6.1,0-11.9,0-18.1c-6.6,0-13.1,0-19.7,0c0-3.6,0-7,0-10.5c6.5,0,12.9,0,19.5,0c0-5.7,0-11.2,0-16.9
			c-6.4,0-12.9,0-19.5,0c0-3.6,0-7,0-10.6c6.5,0,12.9,0,19.6,0c0-5.6,0-11.1,0-16.6c0.6-0.1,1-0.1,1.4-0.1c10.8,0,21.6-0.1,32.4,0.1
			c5,0.1,9.9,1.2,14.1,4.3c8.4,6.2,9.5,17.2,2.5,25c-0.6,0.7-1.3,1.4-2,2.1c3.8,1.8,6.9,4.1,9.2,7.5c6.6,9.6,3.7,21.9-6.7,28.5
			c-5.9,3.7-12.5,5.2-19.2,5.4c-10.2,0.3-20.4,0.1-30.6,0.1C46.1,102.3,45.8,102.2,45.3,102.1z M59.2,69.1c0,7.2,0,14.2,0,20.9
			c7.1,0,14.2,0.3,21.1-0.1c2.9-0.2,6-1.3,8.6-2.7c5.6-3,6-10.5,0.8-14.1c-2.4-1.7-5.3-2.9-8.2-3.6C74.2,67.7,66.7,68.7,59.2,69.1z
			 M59.2,60.3c4.3-0.3,8.3-0.4,12.3-0.9c3-0.4,6.1-1.1,8.9-2.2c3.9-1.6,5.8-5.2,5.4-9.1c-0.4-3.5-2.9-6.4-6.9-7.3
			c-6.5-1.6-13.1-0.6-19.8-0.9C59.2,46.7,59.2,53.3,59.2,60.3z"/>
	</g>
	<g>
		<g>
			<path class="st2" d="M43.3,100.1c0-6.1,0-11.9,0-18.1c-6.6,0-13.1,0-19.7,0c0-3.6,0-7,0-10.5c6.5,0,12.9,0,19.5,0
				c0-5.7,0-11.2,0-16.9c-6.4,0-12.9,0-19.5,0c0-3.6,0-7,0-10.6c6.5,0,12.9,0,19.6,0c0-5.6,0-11.1,0-16.6c0.6-0.1,1-0.1,1.4-0.1
				c10.8,0,21.6-0.1,32.4,0.1c5,0.1,9.9,1.2,14.1,4.3c8.4,6.2,9.5,17.2,2.5,25c-0.6,0.7-1.3,1.4-2,2.1c3.8,1.8,6.9,4.1,9.2,7.5
				c6.6,9.6,3.7,21.9-6.7,28.5c-5.9,3.7-12.5,5.2-19.2,5.4c-10.2,0.3-20.4,0.1-30.6,0.1C44.1,100.3,43.8,100.2,43.3,100.1z
				 M57.2,67.1c0,7.2,0,14.2,0,20.9c7.1,0,14.2,0.3,21.1-0.1c2.9-0.2,6-1.3,8.6-2.7c5.6-3,6-10.5,0.8-14.1c-2.4-1.7-5.3-2.9-8.2-3.6
				C72.2,65.7,64.7,66.7,57.2,67.1z M57.2,58.3c4.3-0.3,8.3-0.4,12.3-0.9c3-0.4,6.1-1.1,8.9-2.2c3.9-1.6,5.8-5.2,5.4-9.1
				c-0.4-3.5-2.9-6.4-6.9-7.3c-6.5-1.6-13.1-0.6-19.8-0.9C57.2,44.7,57.2,51.3,57.2,58.3z"/>
		</g>
	</g>
</g>
</svg>
