<?xml version="1.0" encoding="utf-8"?>
<!-- Generator: Adobe Illustrator 21.1.0, SVG Export Plug-In . SVG Version: 6.00 Build 0)  -->
<svg version="1.1" id="Layer_1" xmlns="http://www.w3.org/2000/svg" xmlns:xlink="http://www.w3.org/1999/xlink" x="0px" y="0px"
	 viewBox="0 0 128 128" style="enable-background:new 0 0 128 128;" xml:space="preserve">
<style type="text/css">
	.st0{fill:url(#SVGID_1_);}
	.st1{opacity:0.2;}
	.st2{fill:#FFFFFF;}
</style>
<linearGradient id="SVGID_1_" gradientUnits="userSpaceOnUse" x1="11.85" y1="116.15" x2="116.15" y2="11.85" gradientTransform="matrix(1 0 0 -1 0 128)">
	<stop  offset="0" style="stop-color:#1F75BC"/>
	<stop  offset="1" style="stop-color:#175D95"/>
</linearGradient>
<path class="st0" d="M87.5,128h-47C18.1,128,0,109.9,0,87.5v-47C0,18.1,18.1,0,40.5,0h47C109.9,0,128,18.1,128,40.5v47
	C128,109.9,109.9,128,87.5,128z"/>
<g>
	<g class="st1">
		<path d="M23.9,90.3c1.4-4.1,2.7-7.9,4.1-11.8c0.1-0.4,0.9-0.7,1.3-0.7c2.3-0.1,4.7,0,7,0c15.3,0,30.5,0,45.8,0
			c1.2,0,1.8-0.4,2.1-1.5c2.5-7.5,5.2-15,7.8-22.5c0.1-0.4,0.2-0.8,0.4-1.4c-18.5,0-36.9,0-55.5,0c1.4-4.2,2.8-8.1,4.1-12
			c0.1-0.3,0.7-0.6,1.1-0.6c1.4-0.1,2.8,0,4.2,0c18.8,0,37.6,0.1,56.3-0.1c5.6-0.1,11.6,4.3,9.2,12.5c-1.8,6.1-4.1,12.1-6.2,18.2
			c-0.7,2.1-1.4,4.1-2.1,6.2c-2.6,7.2-7.9,11.6-15.2,13.6c-0.7,0.2-1.4,0.2-2.1,0.2c-20.3,0-40.5,0-60.8,0
			C25,90.3,24.5,90.3,23.9,90.3z"/>
		<path d="M59,59.1c-1.4,4-2.8,7.7-4.2,11.4c-0.1,0.3-0.7,0.5-1,0.5c-10.5,0-21,0-31.5,0c-0.1,0-0.3-0.1-0.6-0.2
			c1.3-3.7,2.6-7.3,4-10.9c0.1-0.3,0.7-0.7,1-0.7C37.4,59.1,48,59.1,59,59.1z"/>
	</g>
	<g>
		<g>
			<path class="st2" d="M21.9,88.3c1.4-4.1,2.7-7.9,4.1-11.8c0.1-0.4,0.9-0.7,1.3-0.7c2.3-0.1,4.7,0,7,0c15.3,0,30.5,0,45.8,0
				c1.2,0,1.8-0.4,2.1-1.5c2.5-7.5,5.2-15,7.8-22.5c0.1-0.4,0.2-0.8,0.4-1.4c-18.5,0-36.9,0-55.5,0c1.4-4.2,2.8-8.1,4.1-12
				c0.1-0.3,0.7-0.6,1.1-0.6c1.4-0.1,2.8,0,4.2,0c18.8,0,37.6,0.1,56.3-0.1c5.6-0.1,11.6,4.3,9.2,12.5c-1.8,6.1-4.1,12.1-6.2,18.2
				c-0.7,2.1-1.4,4.1-2.1,6.2c-2.6,7.2-7.9,11.6-15.2,13.6c-0.7,0.2-1.4,0.2-2.1,0.2c-20.3,0-40.5,0-60.8,0
				C23,88.3,22.5,88.3,21.9,88.3z"/>
			<path class="st2" d="M57,57.1c-1.4,4-2.8,7.7-4.2,11.4c-0.1,0.3-0.7,0.5-1,0.5c-10.5,0-21,0-31.5,0c-0.1,0-0.3-0.1-0.6-0.2
				c1.3-3.7,2.6-7.3,4-10.9c0.1-0.3,0.7-0.7,1-0.7C35.4,57.1,46,57.1,57,57.1z"/>
		</g>
	</g>
</g>
</svg>
