<?xml version="1.0" encoding="utf-8"?>
<!-- Generator: Adobe Illustrator 21.1.0, SVG Export Plug-In . SVG Version: 6.00 Build 0)  -->
<svg version="1.1" id="Layer_1" xmlns="http://www.w3.org/2000/svg" xmlns:xlink="http://www.w3.org/1999/xlink" x="0px" y="0px"
	 viewBox="0 0 128 128" style="enable-background:new 0 0 128 128;" xml:space="preserve">
<style type="text/css">
	.st0{fill:url(#SVGID_1_);}
	.st1{opacity:0.2;}
	.st2{fill:#FFFFFF;}
</style>
<linearGradient id="SVGID_1_" gradientUnits="userSpaceOnUse" x1="11.8622" y1="11.8622" x2="116.1378" y2="116.1378">
	<stop  offset="0" style="stop-color:#616264"/>
	<stop  offset="1" style="stop-color:#000000"/>
</linearGradient>
<path class="st0" d="M87.5,128h-47C18.1,128,0,109.9,0,87.5v-47C0,18.1,18.1,0,40.5,0h47C109.9,0,128,18.1,128,40.5v47
	C128,109.9,109.9,128,87.5,128z"/>
<g>
	<g class="st1">
		<path d="M66,119.2C66,119.2,66,119.2,66,119.2c-0.4,0-0.8-0.1-1.1-0.3L31.2,97.8c-0.3-0.2-0.6-0.5-0.7-0.8
			c-0.1-0.1-0.1-0.3-0.1-0.4c-0.1-0.3-0.1-0.5,0-0.8c0,0,0-0.1,0-0.1l11-50.2c0-0.2,0.1-0.3,0.2-0.5c0,0,0,0,0,0c0,0,0,0,0,0
			c0,0,0,0,0,0c0,0,0,0,0,0l0,0c0,0,0,0,0,0l0,0c0,0,0,0,0,0c0,0,0,0,0,0c0,0,0,0,0,0c0,0,0,0,0,0c0,0,0,0,0,0c0,0,0,0,0,0
			c0-0.1,0.1-0.2,0.2-0.3l22.7-31c0.4-0.5,1-0.8,1.6-0.8c0,0,0,0,0,0c0.6,0,1.2,0.3,1.6,0.8l22.7,31c0.2,0.2,0.3,0.5,0.4,0.8
			l11,50.2c0,0,0,0.1,0,0.1c0,0,0,0,0,0c0,0,0,0,0,0c0,0.3,0,0.6,0,0.8l0,0c0,0,0,0,0,0l0,0c0,0.1-0.1,0.2-0.1,0.4c0,0,0,0,0,0l0,0
			c-0.2,0.3-0.4,0.6-0.7,0.8l-33.7,21.1C66.8,119.1,66.4,119.2,66,119.2z M39.2,98.1l23.2,14.6l-4.6-14.6H39.2z M74.2,98.1
			l-4.6,14.6l23.2-14.6H74.2z M62,98.1l4,12.6l4-12.6H62z M75.5,94.1h20.8L83,70.5L75.5,94.1z M60.7,94.1h10.6l9-28.3L66,40.6
			L51.7,65.8L60.7,94.1z M35.7,94.1h20.8L49,70.5L35.7,94.1z M84.6,65.4L95,83.6l-6.6-30.1L84.6,65.4z M43.6,53.5L37,83.6l10.3-18.2
			L43.6,53.5z M68,36L82,60.6l4.6-14.4L68,20.9V36z M45.5,46.2L50,60.6L64,36V20.9L45.5,46.2z"/>
	</g>
	<g>
		<path class="st2" d="M64,117.2C64,117.2,64,117.2,64,117.2c-0.4,0-0.8-0.1-1.1-0.3L29.2,95.8c-0.3-0.2-0.6-0.5-0.7-0.8
			c-0.1-0.1-0.1-0.3-0.1-0.4c-0.1-0.3-0.1-0.5,0-0.8c0,0,0-0.1,0-0.1l11-50.2c0-0.2,0.1-0.3,0.2-0.5c0,0,0,0,0,0c0,0,0,0,0,0
			c0,0,0,0,0,0c0,0,0,0,0,0l0,0c0,0,0,0,0,0l0,0c0,0,0,0,0,0c0,0,0,0,0,0c0,0,0,0,0,0c0,0,0,0,0,0c0,0,0,0,0,0c0,0,0,0,0,0
			c0-0.1,0.1-0.2,0.2-0.3l22.7-31c0.4-0.5,1-0.8,1.6-0.8c0,0,0,0,0,0c0.6,0,1.2,0.3,1.6,0.8l22.7,31c0.2,0.2,0.3,0.5,0.4,0.8
			l11,50.2c0,0,0,0.1,0,0.1c0,0,0,0,0,0c0,0,0,0,0,0c0,0.3,0,0.6,0,0.8l0,0c0,0,0,0,0,0l0,0c0,0.1-0.1,0.2-0.1,0.4c0,0,0,0,0,0l0,0
			c-0.2,0.3-0.4,0.6-0.7,0.8l-33.7,21.1C64.8,117.1,64.4,117.2,64,117.2z M37.2,96.1l23.2,14.6l-4.6-14.6H37.2z M72.2,96.1
			l-4.6,14.6l23.2-14.6H72.2z M60,96.1l4,12.6l4-12.6H60z M73.5,92.1h20.8L81,68.5L73.5,92.1z M58.7,92.1h10.6l9-28.3L64,38.6
			L49.7,63.8L58.7,92.1z M33.7,92.1h20.8L47,68.5L33.7,92.1z M82.6,63.4L93,81.6l-6.6-30.1L82.6,63.4z M41.6,51.5L35,81.6l10.3-18.2
			L41.6,51.5z M66,34L80,58.6l4.6-14.4L66,18.9V34z M43.5,44.2L48,58.6L62,34V18.9L43.5,44.2z"/>
	</g>
</g>
</svg>
