<?xml version="1.0" encoding="utf-8"?>
<!-- Generator: Adobe Illustrator 21.1.0, SVG Export Plug-In . SVG Version: 6.00 Build 0)  -->
<svg version="1.1" id="Layer_1" xmlns="http://www.w3.org/2000/svg" xmlns:xlink="http://www.w3.org/1999/xlink" x="0px" y="0px"
	 viewBox="0 0 128 128" style="enable-background:new 0 0 128 128;" xml:space="preserve">
<style type="text/css">
	.st0{fill:url(#SVGID_1_);}
	.st1{opacity:0.2;}
	.st2{fill:#FFFFFF;}
</style>
<linearGradient id="SVGID_1_" gradientUnits="userSpaceOnUse" x1="11.85" y1="116.15" x2="116.15" y2="11.85" gradientTransform="matrix(1 0 0 -1 0 128)">
	<stop  offset="0" style="stop-color:#6E75B8"/>
	<stop  offset="1" style="stop-color:#495B9D"/>
</linearGradient>
<path class="st0" d="M87.5,128h-47C18.1,128,0,109.9,0,87.5v-47C0,18.1,18.1,0,40.5,0h47C109.9,0,128,18.1,128,40.5v47
	C128,109.9,109.9,128,87.5,128z"/>
<g>
	<g class="st1">
		<polygon points="67.2,89.2 67.2,111.9 95.4,72.4 		"/>
		<polygon points="94.3,65.1 67.2,20.1 67.2,52.8 		"/>
		<polygon points="67.2,55.3 67.2,83.3 94.1,67.6 		"/>
		<polygon points="37.8,65.1 64.9,20.1 64.9,52.8 		"/>
		<polygon points="64.9,55.3 64.9,83.3 38,67.6 		"/>
		<polygon points="64.8,89.2 64.8,111.9 36.7,72.4 		"/>
	</g>
	<g>
		<g>
			<g>
				<polygon class="st2" points="65.2,87.2 65.2,109.9 93.4,70.4 				"/>
			</g>
			<g>
				<polygon class="st2" points="92.3,63.1 65.2,18.1 65.2,50.8 				"/>
				<polygon class="st2" points="65.2,53.3 65.2,81.3 92.1,65.6 				"/>
			</g>
			<g>
				<polygon class="st2" points="35.8,63.1 62.9,18.1 62.9,50.8 				"/>
				<polygon class="st2" points="62.9,53.3 62.9,81.3 36,65.6 				"/>
			</g>
			<g>
				<polygon class="st2" points="62.8,87.2 62.8,109.9 34.7,70.4 				"/>
			</g>
		</g>
	</g>
</g>
</svg>
