<?xml version="1.0" encoding="utf-8"?>
<!-- Generator: Adobe Illustrator 21.1.0, SVG Export Plug-In . SVG Version: 6.00 Build 0)  -->
<svg version="1.1" id="Layer_1" xmlns="http://www.w3.org/2000/svg" xmlns:xlink="http://www.w3.org/1999/xlink" x="0px" y="0px"
	 viewBox="0 0 128 128" style="enable-background:new 0 0 128 128;" xml:space="preserve">
<style type="text/css">
	.st0{fill:url(#SVGID_1_);}
	.st1{opacity:0.2;}
	.st2{fill:#FFFFFF;}
</style>
<g>
	<linearGradient id="SVGID_1_" gradientUnits="userSpaceOnUse" x1="11.8622" y1="11.8622" x2="116.1378" y2="116.1378">
		<stop  offset="0" style="stop-color:#829AAF"/>
		<stop  offset="1" style="stop-color:#4C6F8C"/>
	</linearGradient>
	<path class="st0" d="M87.5,128h-47C18.1,128,0,109.9,0,87.5v-47C0,18.1,18.1,0,40.5,0h47C109.9,0,128,18.1,128,40.5v47
		C128,109.9,109.9,128,87.5,128z"/>
</g>
<g>
	<g class="st1">
		<path d="M91.6,65.9c0-11,0-22,0-32.9c0-0.4,0-0.8,0-1.3c0.1-2.3,1.5-3.9,3.8-4c1.6-0.1,3.1-0.1,4.7,0c1.9,0.1,3.4,1.3,3.8,3.2
			c0.2,0.9,0.3,1.8,0.3,2.7c0,21.1,0,42.2,0,63.4c0,1.4-0.1,2.8-0.3,4.2c-0.2,1.5-1.9,3-3.7,3.1c-1.7,0.1-3.4,0.1-5,0
			c-2.2-0.1-3.7-1.9-3.7-4.3c0-9.6,0-19.1,0-28.7C91.6,69.5,91.6,67.7,91.6,65.9z"/>
		<path d="M61.6,81.5c0,5.8,0,11.5,0,17.3c0,0.5,0,1,0,1.4c-0.3,2.6-1.8,4-4.3,4.1c-1.4,0-2.8,0.1-4.2,0c-2.2-0.1-3.5-1.3-3.9-3.6
			c-0.1-1-0.2-2-0.2-3c0-11.2,0-22.4,0-33.6c0-1,0.2-2,0.4-3c0.3-1.3,1.2-2.1,2.4-2.5c2.1-0.6,4.4-0.7,6.5-0.1
			c2.2,0.5,3.2,1.8,3.4,4c0.1,1,0,2.1,0,3.2C61.6,71,61.6,76.3,61.6,81.5z"/>
		<path d="M82.9,86.8c0,4.2,0,8.3,0,12.5c0,0.9-0.3,1.8-0.5,2.6c-0.5,1.6-1.8,2.3-3.4,2.4c-1.6,0.1-3.1,0.1-4.7,0
			c-2.4-0.2-3.8-1.7-4.1-4.1c0-0.3,0-0.6,0-0.9c0-8.4,0-16.9,0-25.3c0-0.7,0.1-1.5,0.3-2.2c0.5-1.4,1.5-2.5,3.1-2.6
			c1.8-0.1,3.6-0.2,5.3-0.1c2.5,0.2,3.9,1.8,4,4.6C83,78,82.9,82.4,82.9,86.8z"/>
		<path d="M40.4,92c0,2.4,0,4.7,0,7.1c0,1.6-0.3,3.1-1.7,4.1c-0.7,0.5-1.6,0.9-2.4,1c-1.5,0.2-3,0.1-4.5,0c-2.5-0.1-4.1-1.6-4.1-4.2
			c-0.1-5.4-0.1-10.9,0-16.3c0-2.6,1.7-4.2,4.3-4.3c1.4,0,2.7-0.1,4.1,0c2.1,0.1,3.9,1.3,4.1,3.6c0.1,0.9,0.2,1.9,0.2,2.8
			C40.4,87.9,40.4,90,40.4,92z"/>
	</g>
	<g>
		<g>
			<path class="st2" d="M89.6,63.9c0-11,0-22,0-32.9c0-0.4,0-0.8,0-1.3c0.1-2.3,1.5-3.9,3.8-4c1.6-0.1,3.1-0.1,4.7,0
				c1.9,0.1,3.4,1.3,3.8,3.2c0.2,0.9,0.3,1.8,0.3,2.7c0,21.1,0,42.2,0,63.4c0,1.4-0.1,2.8-0.3,4.2c-0.2,1.5-1.9,3-3.7,3.1
				c-1.7,0.1-3.4,0.1-5,0c-2.2-0.1-3.7-1.9-3.7-4.3c0-9.6,0-19.1,0-28.7C89.6,67.5,89.6,65.7,89.6,63.9z"/>
			<path class="st2" d="M59.6,79.5c0,5.8,0,11.5,0,17.3c0,0.5,0,1,0,1.4c-0.3,2.6-1.8,4-4.3,4.1c-1.4,0-2.8,0.1-4.2,0
				c-2.2-0.1-3.5-1.3-3.9-3.6c-0.1-1-0.2-2-0.2-3c0-11.2,0-22.4,0-33.6c0-1,0.2-2,0.4-3c0.3-1.3,1.2-2.1,2.4-2.5
				c2.1-0.6,4.4-0.7,6.5-0.1c2.2,0.5,3.2,1.8,3.4,4c0.1,1,0,2.1,0,3.2C59.6,69,59.6,74.3,59.6,79.5z"/>
			<path class="st2" d="M80.9,84.8c0,4.2,0,8.3,0,12.5c0,0.9-0.3,1.8-0.5,2.6c-0.5,1.6-1.8,2.3-3.4,2.4c-1.6,0.1-3.1,0.1-4.7,0
				c-2.4-0.2-3.8-1.7-4.1-4.1c0-0.3,0-0.6,0-0.9c0-8.4,0-16.9,0-25.3c0-0.7,0.1-1.5,0.3-2.2c0.5-1.4,1.5-2.5,3.1-2.6
				c1.8-0.1,3.6-0.2,5.3-0.1c2.5,0.2,3.9,1.8,4,4.6C81,76,80.9,80.4,80.9,84.8z"/>
			<path class="st2" d="M38.4,90c0,2.4,0,4.7,0,7.1c0,1.6-0.3,3.1-1.7,4.1c-0.7,0.5-1.6,0.9-2.4,1c-1.5,0.2-3,0.1-4.5,0
				c-2.5-0.1-4.1-1.6-4.1-4.2c-0.1-5.4-0.1-10.9,0-16.3c0-2.6,1.7-4.2,4.3-4.3c1.4,0,2.7-0.1,4.1,0c2.1,0.1,3.9,1.3,4.1,3.6
				c0.1,0.9,0.2,1.9,0.2,2.8C38.4,85.9,38.4,88,38.4,90z"/>
		</g>
	</g>
</g>
</svg>
