<?xml version="1.0" encoding="utf-8"?>
<!-- Generator: Adobe Illustrator 21.1.0, SVG Export Plug-In . SVG Version: 6.00 Build 0)  -->
<svg version="1.1" id="Layer_1" xmlns="http://www.w3.org/2000/svg" xmlns:xlink="http://www.w3.org/1999/xlink" x="0px" y="0px"
	 viewBox="0 0 128 128" style="enable-background:new 0 0 128 128;" xml:space="preserve">
<style type="text/css">
	.st0{fill:url(#SVGID_1_);}
	.st1{opacity:0.2;}
	.st2{fill:#FFFFFF;}
</style>
<linearGradient id="SVGID_1_" gradientUnits="userSpaceOnUse" x1="11.8622" y1="11.8622" x2="116.1378" y2="116.1378">
	<stop  offset="0" style="stop-color:#01A996"/>
	<stop  offset="1" style="stop-color:#008475"/>
</linearGradient>
<path class="st0" d="M87.5,128h-47C18.1,128,0,109.9,0,87.5v-47C0,18.1,18.1,0,40.5,0h47C109.9,0,128,18.1,128,40.5v47
	C128,109.9,109.9,128,87.5,128z"/>
<g>
	<g class="st1">
		<path d="M81.6,26.9c-0.1-2.8,2.4-5.4,5.6-5.3c2.8,0.1,5.1,2.5,5.1,5.4c0,3-2.5,5.3-5.6,5.3C83.9,32.3,81.6,29.8,81.6,26.9z"/>
		<path d="M93,97.4c3,0,5.3,2.3,5.3,5.3c0,3-2.4,5.4-5.4,5.4c-2.9,0-5.3-2.4-5.3-5.4C87.6,99.7,90,97.4,93,97.4z"/>
		<path d="M24.4,75.4c-3,0-5.3-2.4-5.3-5.5c0-2.9,2.4-5.2,5.4-5.2c3,0,5.3,2.4,5.3,5.5C29.7,73.1,27.3,75.4,24.4,75.4z"/>
		<path d="M83.9,41.2c0-2.6,2-4.6,4.6-4.6c2.5,0,4.6,2.1,4.6,4.6c0,2.5-2.1,4.6-4.6,4.6C85.9,45.8,83.9,43.7,83.9,41.2z"/>
		<path d="M35.9,57.1c2.6,0,4.6,2,4.7,4.5c0,2.5-2.1,4.6-4.6,4.6c-2.5,0-4.6-2.1-4.6-4.6C31.3,59.1,33.4,57.1,35.9,57.1z"/>
		<path d="M100.4,47.4c-2.5,0-4.6-2.1-4.6-4.6c0-2.6,2.1-4.6,4.6-4.6c2.5,0,4.6,2.1,4.6,4.6C105,45.4,103,47.4,100.4,47.4z"/>
		<path d="M79.9,101.5c-2.5,0-4.6-2.1-4.6-4.6c0-2.5,2-4.5,4.6-4.6c2.5,0,4.6,2.1,4.6,4.6C84.5,99.4,82.4,101.5,79.9,101.5z"/>
		<path d="M35.9,50.5c0,2.5-2.1,4.6-4.6,4.6c-2.5,0-4.5-2.1-4.5-4.6c0-2.5,2.1-4.6,4.6-4.6C33.9,45.8,36,47.9,35.9,50.5z"/>
		<path d="M72.4,111c-2.5,0-4.5-2-4.5-4.6c0-2.5,2-4.5,4.6-4.6c2.5,0,4.6,2.1,4.6,4.6C77,109,75,111,72.4,111z"/>
		<path d="M58.9,99.1c0-2.2,1.7-3.9,3.9-3.9c2.2,0,3.9,1.8,3.9,4c0,2.2-1.8,3.9-3.9,3.9C60.6,103.1,58.9,101.3,58.9,99.1z"/>
		<path d="M102.9,54.9c0,2.2-1.8,3.9-3.9,3.9c-2.1,0-3.9-1.8-3.9-3.9c0-2.2,1.8-4,3.9-3.9C101.1,51,102.9,52.7,102.9,54.9z"/>
		<path d="M46.4,45.7c0,2.2-1.7,3.9-3.9,3.9c-2.2,0-3.9-1.7-3.9-4c0-2.2,1.7-3.9,3.9-3.9C44.8,41.8,46.5,43.5,46.4,45.7z"/>
		<path d="M51,56.9c0,2.2-1.7,3.9-3.9,3.9c-2.2,0-3.9-1.7-3.9-3.9c0-2.2,1.7-4,3.9-3.9C49.3,53,51,54.7,51,56.9z"/>
		<path d="M37,35.5c0-2.2,1.8-3.9,3.9-3.9c2.2,0,3.9,1.8,3.9,3.9c0,2.2-1.7,3.9-3.9,3.9C38.7,39.4,37,37.7,37,35.5z"/>
		<path d="M83.1,53.3c0-2.2,1.7-3.9,3.9-3.9c2.2,0,4,1.8,3.9,4c0,2.2-1.8,3.9-3.9,3.9C84.8,57.1,83.1,55.4,83.1,53.3z"/>
		<path d="M70.2,85.7c2.1,0,3.9,1.8,3.9,3.9c0,2.2-1.8,3.9-4,3.9c-2.2,0-3.9-1.7-3.9-3.9C66.3,87.4,68.1,85.7,70.2,85.7z"/>
		<path d="M58.7,105.6c0,2.2-1.7,3.9-3.9,3.9c-2.2,0-3.9-1.7-3.9-3.9c0-2.2,1.8-4,3.9-3.9C57,101.7,58.7,103.4,58.7,105.6z"/>
		<path d="M108.5,62.5c-2.1,0-3.8-1.8-3.9-3.9c0-2.2,1.8-3.9,4-3.9c2.1,0,3.9,1.8,3.9,3.9C112.5,60.8,110.7,62.5,108.5,62.5z"/>
		<path d="M59.5,91.3c0,1.9-1.5,3.4-3.4,3.3c-1.9,0-3.4-1.5-3.4-3.3c0-1.9,1.5-3.4,3.4-3.4C58,87.9,59.5,89.4,59.5,91.3z"/>
		<path d="M52.7,40.5c1.9,0,3.3,1.5,3.3,3.3c0,1.8-1.5,3.4-3.3,3.4c-1.8,0-3.4-1.5-3.4-3.4C49.4,42,50.9,40.5,52.7,40.5z"/>
		<path d="M60.2,81.7c0-1.9,1.4-3.4,3.3-3.4c1.9,0,3.4,1.5,3.4,3.3c0,1.9-1.5,3.3-3.3,3.3C61.7,85,60.2,83.6,60.2,81.7z"/>
		<path d="M48.2,101.1c-1.9,0-3.4-1.4-3.4-3.3c0-1.9,1.5-3.3,3.3-3.4c1.9,0,3.4,1.5,3.4,3.4C51.5,99.6,50,101.1,48.2,101.1z"/>
		<path d="M86.7,63c0,1.8-1.4,3.3-3.3,3.3c-1.9,0-3.4-1.5-3.3-3.4c0-1.9,1.5-3.3,3.3-3.3C85.3,59.6,86.7,61.1,86.7,63z"/>
		<path d="M51.1,37c-1.9,0-3.4-1.4-3.4-3.3c0-1.9,1.5-3.4,3.4-3.4c1.8,0,3.3,1.5,3.4,3.4C54.5,35.5,53,37,51.1,37z"/>
		<path d="M95.4,68c-1.9,0-3.3-1.5-3.3-3.3c0-1.8,1.5-3.3,3.4-3.3c1.9,0,3.3,1.5,3.3,3.4C98.8,66.6,97.3,68,95.4,68z"/>
		<path d="M57.2,58.4c-1.8,0-3.3-1.5-3.3-3.4c0-1.8,1.6-3.3,3.4-3.3c1.9,0,3.3,1.5,3.3,3.4C60.6,57,59.1,58.4,57.2,58.4z"/>
		<path d="M105,71.6c-1.9-0.1-3.3-1.6-3.3-3.5c0.1-1.8,1.6-3.3,3.4-3.2c1.9,0.1,3.4,1.6,3.3,3.6C108.3,70.3,106.8,71.7,105,71.6z"/>
		<path d="M66,58.4c-1.6,0-2.9-1.3-2.9-2.9c0-1.6,1.3-2.8,2.9-2.8c1.6,0,2.9,1.3,2.8,2.9C68.9,57.2,67.7,58.4,66,58.4z"/>
		<path d="M97.4,75.7c0-1.6,1.2-2.9,2.8-2.9c1.6,0,2.9,1.2,2.9,2.9c0,1.6-1.4,3-2.9,3C98.7,78.6,97.4,77.3,97.4,75.7z"/>
		<path d="M62.7,34.2c0,1.6-1.2,2.8-2.9,2.8c-1.6,0-2.9-1.3-2.9-2.9c0-1.6,1.3-2.9,3-2.8C61.5,31.3,62.7,32.6,62.7,34.2z"/>
		<path d="M62.4,73.9c0,1.6-1.2,2.8-2.8,2.9c-1.7,0-2.9-1.3-2.9-2.9c0-1.6,1.3-2.9,2.9-2.9C61.2,71,62.4,72.3,62.4,73.9z"/>
		<path d="M52.2,86.3c-1.6,0-2.9-1.2-2.9-2.8c0-1.6,1.3-2.9,2.9-2.9c1.5,0,2.8,1.3,2.8,2.8C55,85,53.8,86.3,52.2,86.3z"/>
		<path d="M93.5,72c0,1.6-1.2,2.9-2.9,2.9c-1.5,0-2.9-1.4-2.9-2.9c0-1.6,1.3-2.9,2.9-2.9C92.3,69.1,93.5,70.4,93.5,72z"/>
		<path d="M78.7,67.5c1.7,0,2.8,1.2,2.9,2.8c0,1.6-1.2,2.9-2.9,2.9c-1.6,0-2.9-1.3-2.9-2.9C75.8,68.7,77,67.5,78.7,67.5z"/>
		<path d="M47,89.9c0,1.6-1.3,2.9-2.9,2.9c-1.6,0-2.9-1.3-2.9-2.9c0-1.6,1.3-2.9,2.9-2.9C45.7,87,47,88.3,47,89.9z"/>
		<path d="M61.5,47.2c-1.6,0-2.9-1.3-2.9-2.9c0-1.5,1.3-2.9,2.9-2.9c1.5,0,2.9,1.3,2.9,2.9C64.4,45.9,63.1,47.2,61.5,47.2z"/>
		<path d="M87.8,77.1c0,1.4-1.1,2.5-2.5,2.5c-1.4,0-2.4-1.1-2.4-2.5c0-1.4,1.1-2.5,2.4-2.5C86.6,74.7,87.7,75.8,87.8,77.1z"/>
		<path d="M60.2,66.6c0,1.4-1.1,2.5-2.4,2.5c-1.3,0-2.5-1.2-2.5-2.5c0-1.3,1.2-2.5,2.5-2.5C59.1,64.2,60.2,65.3,60.2,66.6z"/>
		<path d="M42.4,80.2c1.4,0,2.5,1.1,2.4,2.5c0,1.3-1.2,2.5-2.5,2.5c-1.4,0-2.5-1.2-2.5-2.6C39.9,81.2,41,80.2,42.4,80.2z"/>
		<path d="M73.2,60c-1.4,0-2.5-1-2.5-2.4c0-1.4,1-2.5,2.5-2.5c1.4,0,2.5,1.1,2.5,2.4C75.7,59,74.6,60,73.2,60z"/>
		<path d="M68.7,43.9c1.4,0,2.4,1.1,2.4,2.5c0,1.4-1.1,2.5-2.4,2.5c-1.4,0-2.5-1.1-2.5-2.5C66.2,45,67.3,43.9,68.7,43.9z"/>
		<path d="M52.7,76.2c0,1.4-1.1,2.5-2.4,2.5c-1.3,0-2.5-1.2-2.5-2.6c0-1.4,1.1-2.4,2.5-2.4C51.7,73.7,52.7,74.8,52.7,76.2z"/>
		<path d="M73.3,73.1c1.4,0,2.4,1.1,2.4,2.5c0,1.4-1.1,2.4-2.4,2.4c-1.4,0-2.5-1.1-2.5-2.5C70.9,74.1,71.9,73.1,73.3,73.1z"/>
		<path d="M97.3,80.8c0,1.4-1,2.5-2.5,2.5c-1.4,0-2.4-1.1-2.4-2.5c0-1.3,1.1-2.5,2.4-2.5C96.2,78.3,97.3,79.4,97.3,80.8z"/>
		<path d="M67.1,33.8c1.4,0,2.4,1,2.4,2.4c0,1.4-1.1,2.5-2.4,2.5c-1.4,0-2.5-1.1-2.5-2.5C64.6,34.8,65.7,33.8,67.1,33.8z"/>
		<path d="M74.7,39.3c0,1.2-1,2.1-2.2,2.1c-1.2,0-2.1-1-2.1-2.1c0-1.2,0.9-2.1,2.1-2.1C73.8,37.2,74.7,38.1,74.7,39.3z"/>
		<path d="M40.1,76.2c0-1.2,0.9-2,2.1-2c1.2,0,2.2,1,2.1,2.2c0,1.1-1,2.1-2.1,2.1C41,78.5,40.1,77.5,40.1,76.2z"/>
		<path d="M91.6,84.1c0,1.2-0.9,2.2-2.1,2.2c-1.2,0-2.2-1-2.2-2.1c0-1.2,1-2.1,2.2-2.1C90.7,82,91.6,82.9,91.6,84.1z"/>
		<path d="M52.3,69.9c0,1.2-1,2.1-2.1,2.1c-1.2,0-2.1-1-2.1-2.2c0-1.1,1-2.1,2.1-2.1C51.4,67.7,52.3,68.7,52.3,69.9z"/>
		<path d="M74.2,51.5c-1.2,0-2.1-0.9-2.1-2.1c0-1.2,0.9-2.1,2.1-2.1c1.2,0,2.1,0.9,2.1,2.1C76.3,50.7,75.4,51.5,74.2,51.5z"/>
		<path d="M79.9,78.3c1.2,0,2.1,0.9,2.1,2.1c0,1.2-1,2.2-2.2,2.2c-1.1,0-2-1-2-2.1C77.8,79.2,78.7,78.3,79.9,78.3z"/>
		<path d="M45.1,71.1c0,1-0.8,1.8-1.8,1.8c-1,0-1.9-0.9-1.9-1.9c0-1,0.9-1.8,1.9-1.8C44.4,69.3,45.1,70,45.1,71.1z"/>
		<path d="M86.2,85.8c0,1-0.8,1.8-1.8,1.8c-1,0-1.8-0.9-1.8-1.8c0-1,0.8-1.8,1.9-1.8C85.4,84,86.2,84.8,86.2,85.8z"/>
		<path d="M76.5,41.1c1.1,0,1.9,0.7,1.9,1.8c0,1-0.8,1.8-1.8,1.8c-1,0-1.8-0.7-1.8-1.8C74.8,41.9,75.5,41.1,76.5,41.1z"/>
	</g>
	<g>
		<g>
			<path class="st2" d="M79.6,24.9c-0.1-2.8,2.4-5.4,5.6-5.3c2.8,0.1,5.1,2.5,5.1,5.4c0,3-2.5,5.3-5.6,5.3
				C81.9,30.3,79.6,27.8,79.6,24.9z"/>
			<path class="st2" d="M91,95.4c3,0,5.3,2.3,5.3,5.3c0,3-2.4,5.4-5.4,5.4c-2.9,0-5.3-2.4-5.3-5.4C85.6,97.7,88,95.4,91,95.4z"/>
			<path class="st2" d="M22.4,73.4c-3,0-5.3-2.4-5.3-5.5c0-2.9,2.4-5.2,5.4-5.2c3,0,5.3,2.4,5.3,5.5C27.7,71.1,25.3,73.4,22.4,73.4z
				"/>
			<path class="st2" d="M81.9,39.2c0-2.6,2-4.6,4.6-4.6c2.5,0,4.6,2.1,4.6,4.6c0,2.5-2.1,4.6-4.6,4.6C83.9,43.8,81.9,41.7,81.9,39.2
				z"/>
			<path class="st2" d="M33.9,55.1c2.6,0,4.6,2,4.7,4.5c0,2.5-2.1,4.6-4.6,4.6c-2.5,0-4.6-2.1-4.6-4.6
				C29.3,57.1,31.4,55.1,33.9,55.1z"/>
			<path class="st2" d="M98.4,45.4c-2.5,0-4.6-2.1-4.6-4.6c0-2.6,2.1-4.6,4.6-4.6c2.5,0,4.6,2.1,4.6,4.6
				C103,43.4,101,45.4,98.4,45.4z"/>
			<path class="st2" d="M77.9,99.5c-2.5,0-4.6-2.1-4.6-4.6c0-2.5,2-4.5,4.6-4.6c2.5,0,4.6,2.1,4.6,4.6
				C82.5,97.4,80.4,99.5,77.9,99.5z"/>
			<path class="st2" d="M33.9,48.5c0,2.5-2.1,4.6-4.6,4.6c-2.5,0-4.5-2.1-4.5-4.6c0-2.5,2.1-4.6,4.6-4.6
				C31.9,43.8,34,45.9,33.9,48.5z"/>
			<path class="st2" d="M70.4,109c-2.5,0-4.5-2-4.5-4.6c0-2.5,2-4.5,4.6-4.6c2.5,0,4.6,2.1,4.6,4.6C75,107,73,109,70.4,109z"/>
			<path class="st2" d="M56.9,97.1c0-2.2,1.7-3.9,3.9-3.9c2.2,0,3.9,1.8,3.9,4c0,2.2-1.8,3.9-3.9,3.9
				C58.6,101.1,56.9,99.3,56.9,97.1z"/>
			<path class="st2" d="M100.9,52.9c0,2.2-1.8,3.9-3.9,3.9c-2.1,0-3.9-1.8-3.9-3.9c0-2.2,1.8-4,3.9-3.9
				C99.1,49,100.9,50.7,100.9,52.9z"/>
			<path class="st2" d="M44.4,43.7c0,2.2-1.7,3.9-3.9,3.9c-2.2,0-3.9-1.7-3.9-4c0-2.2,1.7-3.9,3.9-3.9
				C42.8,39.8,44.5,41.5,44.4,43.7z"/>
			<path class="st2" d="M49,54.9c0,2.2-1.7,3.9-3.9,3.9c-2.2,0-3.9-1.7-3.9-3.9c0-2.2,1.7-4,3.9-3.9C47.3,51,49,52.7,49,54.9z"/>
			<path class="st2" d="M35,33.5c0-2.2,1.8-3.9,3.9-3.9c2.2,0,3.9,1.8,3.9,3.9c0,2.2-1.7,3.9-3.9,3.9C36.7,37.4,35,35.7,35,33.5z"/>
			<path class="st2" d="M81.1,51.3c0-2.2,1.7-3.9,3.9-3.9c2.2,0,4,1.8,3.9,4c0,2.2-1.8,3.9-3.9,3.9C82.8,55.1,81.1,53.4,81.1,51.3z"
				/>
			<path class="st2" d="M68.2,83.7c2.1,0,3.9,1.8,3.9,3.9c0,2.2-1.8,3.9-4,3.9c-2.2,0-3.9-1.7-3.9-3.9
				C64.3,85.4,66.1,83.7,68.2,83.7z"/>
			<path class="st2" d="M56.7,103.6c0,2.2-1.7,3.9-3.9,3.9c-2.2,0-3.9-1.7-3.9-3.9c0-2.2,1.8-4,3.9-3.9
				C55,99.7,56.7,101.4,56.7,103.6z"/>
			<path class="st2" d="M106.5,60.5c-2.1,0-3.8-1.8-3.9-3.9c0-2.2,1.8-3.9,4-3.9c2.1,0,3.9,1.8,3.9,3.9
				C110.5,58.8,108.7,60.5,106.5,60.5z"/>
			<path class="st2" d="M57.5,89.3c0,1.9-1.5,3.4-3.4,3.3c-1.9,0-3.4-1.5-3.4-3.3c0-1.9,1.5-3.4,3.4-3.4
				C56,85.9,57.5,87.4,57.5,89.3z"/>
			<path class="st2" d="M50.7,38.5c1.9,0,3.3,1.5,3.3,3.3c0,1.8-1.5,3.4-3.3,3.4c-1.8,0-3.4-1.5-3.4-3.4
				C47.4,40,48.9,38.5,50.7,38.5z"/>
			<path class="st2" d="M58.2,79.7c0-1.9,1.4-3.4,3.3-3.4c1.9,0,3.4,1.5,3.4,3.3c0,1.9-1.5,3.3-3.3,3.3C59.7,83,58.2,81.6,58.2,79.7
				z"/>
			<path class="st2" d="M46.2,99.1c-1.9,0-3.4-1.4-3.4-3.3c0-1.9,1.5-3.3,3.3-3.4c1.9,0,3.4,1.5,3.4,3.4
				C49.5,97.6,48,99.1,46.2,99.1z"/>
			<path class="st2" d="M84.7,61c0,1.8-1.4,3.3-3.3,3.3c-1.9,0-3.4-1.5-3.3-3.4c0-1.9,1.5-3.3,3.3-3.3C83.3,57.6,84.7,59.1,84.7,61z
				"/>
			<path class="st2" d="M49.1,35c-1.9,0-3.4-1.4-3.4-3.3c0-1.9,1.5-3.4,3.4-3.4c1.8,0,3.3,1.5,3.4,3.4C52.5,33.5,51,35,49.1,35z"/>
			<path class="st2" d="M93.4,66c-1.9,0-3.3-1.5-3.3-3.3c0-1.8,1.5-3.3,3.4-3.3c1.9,0,3.3,1.5,3.3,3.4C96.8,64.6,95.3,66,93.4,66z"
				/>
			<path class="st2" d="M55.2,56.4c-1.8,0-3.3-1.5-3.3-3.4c0-1.8,1.6-3.3,3.4-3.3c1.9,0,3.3,1.5,3.3,3.4
				C58.6,55,57.1,56.4,55.2,56.4z"/>
			<path class="st2" d="M103,69.6c-1.9-0.1-3.3-1.6-3.3-3.5c0.1-1.8,1.6-3.3,3.4-3.2c1.9,0.1,3.4,1.6,3.3,3.6
				C106.3,68.3,104.8,69.7,103,69.6z"/>
			<path class="st2" d="M64,56.4c-1.6,0-2.9-1.3-2.9-2.9c0-1.6,1.3-2.8,2.9-2.8c1.6,0,2.9,1.3,2.8,2.9C66.9,55.2,65.7,56.4,64,56.4z
				"/>
			<path class="st2" d="M95.4,73.7c0-1.6,1.2-2.9,2.8-2.9c1.6,0,2.9,1.2,2.9,2.9c0,1.6-1.4,3-2.9,3C96.7,76.6,95.4,75.3,95.4,73.7z"
				/>
			<path class="st2" d="M60.7,32.2c0,1.6-1.2,2.8-2.9,2.8c-1.6,0-2.9-1.3-2.9-2.9c0-1.6,1.3-2.9,3-2.8
				C59.5,29.3,60.7,30.6,60.7,32.2z"/>
			<path class="st2" d="M60.4,71.9c0,1.6-1.2,2.8-2.8,2.9c-1.7,0-2.9-1.3-2.9-2.9c0-1.6,1.3-2.9,2.9-2.9
				C59.2,69,60.4,70.3,60.4,71.9z"/>
			<path class="st2" d="M50.2,84.3c-1.6,0-2.9-1.2-2.9-2.8c0-1.6,1.3-2.9,2.9-2.9c1.5,0,2.8,1.3,2.8,2.8C53,83,51.8,84.3,50.2,84.3z
				"/>
			<path class="st2" d="M91.5,70c0,1.6-1.2,2.9-2.9,2.9c-1.5,0-2.9-1.4-2.9-2.9c0-1.6,1.3-2.9,2.9-2.9C90.3,67.1,91.5,68.4,91.5,70z
				"/>
			<path class="st2" d="M76.7,65.5c1.7,0,2.8,1.2,2.9,2.8c0,1.6-1.2,2.9-2.9,2.9c-1.6,0-2.9-1.3-2.9-2.9
				C73.8,66.7,75,65.5,76.7,65.5z"/>
			<path class="st2" d="M45,87.9c0,1.6-1.3,2.9-2.9,2.9c-1.6,0-2.9-1.3-2.9-2.9c0-1.6,1.3-2.9,2.9-2.9C43.7,85,45,86.3,45,87.9z"/>
			<path class="st2" d="M59.5,45.2c-1.6,0-2.9-1.3-2.9-2.9c0-1.5,1.3-2.9,2.9-2.9c1.5,0,2.9,1.3,2.9,2.9
				C62.4,43.9,61.1,45.2,59.5,45.2z"/>
			<path class="st2" d="M85.8,75.1c0,1.4-1.1,2.5-2.5,2.5c-1.4,0-2.4-1.1-2.4-2.5c0-1.4,1.1-2.5,2.4-2.5
				C84.6,72.7,85.7,73.8,85.8,75.1z"/>
			<path class="st2" d="M58.2,64.6c0,1.4-1.1,2.5-2.4,2.5c-1.3,0-2.5-1.2-2.5-2.5c0-1.3,1.2-2.5,2.5-2.5
				C57.1,62.2,58.2,63.3,58.2,64.6z"/>
			<path class="st2" d="M40.4,78.2c1.4,0,2.5,1.1,2.4,2.5c0,1.3-1.2,2.5-2.5,2.5c-1.4,0-2.5-1.2-2.5-2.6
				C37.9,79.2,39,78.2,40.4,78.2z"/>
			<path class="st2" d="M71.2,58c-1.4,0-2.5-1-2.5-2.4c0-1.4,1-2.5,2.5-2.5c1.4,0,2.5,1.1,2.5,2.4C73.7,57,72.6,58,71.2,58z"/>
			<path class="st2" d="M66.7,41.9c1.4,0,2.4,1.1,2.4,2.5c0,1.4-1.1,2.5-2.4,2.5c-1.4,0-2.5-1.1-2.5-2.5
				C64.2,43,65.3,41.9,66.7,41.9z"/>
			<path class="st2" d="M50.7,74.2c0,1.4-1.1,2.5-2.4,2.5c-1.3,0-2.5-1.2-2.5-2.6c0-1.4,1.1-2.4,2.5-2.4
				C49.7,71.7,50.7,72.8,50.7,74.2z"/>
			<path class="st2" d="M71.3,71.1c1.4,0,2.4,1.1,2.4,2.5c0,1.4-1.1,2.4-2.4,2.4c-1.4,0-2.5-1.1-2.5-2.5
				C68.9,72.1,69.9,71.1,71.3,71.1z"/>
			<path class="st2" d="M95.3,78.8c0,1.4-1,2.5-2.5,2.5c-1.4,0-2.4-1.1-2.4-2.5c0-1.3,1.1-2.5,2.4-2.5
				C94.2,76.3,95.3,77.4,95.3,78.8z"/>
			<path class="st2" d="M65.1,31.8c1.4,0,2.4,1,2.4,2.4c0,1.4-1.1,2.5-2.4,2.5c-1.4,0-2.5-1.1-2.5-2.5
				C62.6,32.8,63.7,31.8,65.1,31.8z"/>
			<path class="st2" d="M72.7,37.3c0,1.2-1,2.1-2.2,2.1c-1.2,0-2.1-1-2.1-2.1c0-1.2,0.9-2.1,2.1-2.1C71.8,35.2,72.7,36.1,72.7,37.3z
				"/>
			<path class="st2" d="M38.1,74.2c0-1.2,0.9-2,2.1-2c1.2,0,2.2,1,2.1,2.2c0,1.1-1,2.1-2.1,2.1C39,76.5,38.1,75.5,38.1,74.2z"/>
			<path class="st2" d="M89.6,82.1c0,1.2-0.9,2.2-2.1,2.2c-1.2,0-2.2-1-2.2-2.1c0-1.2,1-2.1,2.2-2.1C88.7,80,89.6,80.9,89.6,82.1z"
				/>
			<path class="st2" d="M50.3,67.9c0,1.2-1,2.1-2.1,2.1c-1.2,0-2.1-1-2.1-2.2c0-1.1,1-2.1,2.1-2.1C49.4,65.7,50.3,66.7,50.3,67.9z"
				/>
			<path class="st2" d="M72.2,49.5c-1.2,0-2.1-0.9-2.1-2.1c0-1.2,0.9-2.1,2.1-2.1c1.2,0,2.1,0.9,2.1,2.1
				C74.3,48.7,73.4,49.5,72.2,49.5z"/>
			<path class="st2" d="M77.9,76.3c1.2,0,2.1,0.9,2.1,2.1c0,1.2-1,2.2-2.2,2.2c-1.1,0-2-1-2-2.1C75.8,77.2,76.7,76.3,77.9,76.3z"/>
			<path class="st2" d="M43.1,69.1c0,1-0.8,1.8-1.8,1.8c-1,0-1.9-0.9-1.9-1.9c0-1,0.9-1.8,1.9-1.8C42.4,67.3,43.1,68,43.1,69.1z"/>
			<path class="st2" d="M84.2,83.8c0,1-0.8,1.8-1.8,1.8c-1,0-1.8-0.9-1.8-1.8c0-1,0.8-1.8,1.9-1.8C83.4,82,84.2,82.8,84.2,83.8z"/>
			<path class="st2" d="M74.5,39.1c1.1,0,1.9,0.7,1.9,1.8c0,1-0.8,1.8-1.8,1.8c-1,0-1.8-0.7-1.8-1.8C72.8,39.9,73.5,39.1,74.5,39.1z
				"/>
		</g>
	</g>
</g>
</svg>
