<?xml version="1.0" encoding="utf-8"?>
<!-- Generator: Adobe Illustrator 21.1.0, SVG Export Plug-In . SVG Version: 6.00 Build 0)  -->
<svg version="1.1" id="Layer_1" xmlns="http://www.w3.org/2000/svg" xmlns:xlink="http://www.w3.org/1999/xlink" x="0px" y="0px"
	 viewBox="0 0 128 128" style="enable-background:new 0 0 128 128;" xml:space="preserve">
<style type="text/css">
	.st0{fill:url(#SVGID_1_);}
	.st1{opacity:0.2;}
	.st2{fill:#FFFFFF;}
</style>
<g>
	<linearGradient id="SVGID_1_" gradientUnits="userSpaceOnUse" x1="11.8622" y1="11.8622" x2="116.1378" y2="116.1378">
		<stop  offset="0" style="stop-color:#E5D420"/>
		<stop  offset="1" style="stop-color:#F18121"/>
	</linearGradient>
	<path class="st0" d="M87.5,128h-47C18.1,128,0,109.9,0,87.5v-47C0,18.1,18.1,0,40.5,0h47C109.9,0,128,18.1,128,40.5v47
		C128,109.9,109.9,128,87.5,128z"/>
</g>
<g>
	<g class="st1">
		<path d="M90.7,79.8c-12.4,10-20.2,22.6-24.5,37.6C61.8,102.3,54,89.8,41.6,79.8c2.3-1.8,4.5-3.7,6.9-5.3
			c7.9-5.4,16.8-8.7,26.1-10.9c5.9-1.4,11.9-2.6,17.5-5.2c3.5-1.6,6.5-3.8,8.8-6.9c3.8-5.2,3.5-10.2-1-14.8
			c-2.5-2.6-5.5-4.5-8.7-6.1c-0.3-0.1-0.5-0.3-0.7-0.5c5.2,0.6,10.1,1.9,14.3,5c2.9,2.1,4.8,4.9,5.7,8.4c1.2,4.9,0.3,9.2-3.2,12.9
			c-3.5,3.7-7.9,6-12.4,8c-6.2,2.7-12.8,4.1-19.3,5.6c-7,1.6-13.7,3.8-19.9,7.6c-1.1,0.7-2.2,1.5-3.3,2.3
			c6.3,6.1,10.1,13.6,13.8,21.4C69.8,93.6,73.6,86,80,79.8c-2.4-1.5-4.8-3-7.3-4.6c2.5-0.6,5-1.1,7.4-1.8c1.2-0.3,2.2-0.1,3.2,0.7
			C85.7,76,88.1,77.8,90.7,79.8z"/>
		<path d="M41.7,30c-2.5,1.7-5.2,3.3-7.6,5.2c-1.4,1.1-2.6,2.5-3.5,3.9c-2.4,3.6-2.2,7.3,0,10.9c2.8,4.6,6.9,7.5,11.8,9.2
			c5.1,1.7,10.3,2.9,15.4,4.3c0.3,0.1,0.6,0.2,0.9,0.3c-2.9,1.5-5.7,2.9-8.5,4.3c-0.2,0.1-0.6,0.1-0.9,0.1c-7.4-2-14.6-4.4-20.9-8.9
			c-3.2-2.3-6-5.1-6.8-9.2c-1.1-5.8,0.7-10.8,5.3-14.6c4.2-3.4,9.2-4.8,14.4-5.5C41.6,30,41.8,30,41.7,30z"/>
		<path d="M75,37.9c0,4.8-3.8,8.6-8.6,8.6c-4.7,0-8.5-3.8-8.6-8.5c0-4.7,3.7-8.5,8.5-8.6C71.2,29.4,75,33.1,75,37.9z"/>
		<path d="M60.1,81.1c2.1-0.9,4-1.8,6-2.6c0.3-0.1,0.7-0.1,1,0c1.8,0.8,3.6,1.6,5.4,2.4c-2,3.3-4,6.5-5.9,9.7
			C64.5,87.6,62.3,84.4,60.1,81.1z"/>
		<path d="M64.1,28.1c0.7-1.5,1.1-2.8,1.9-4c1.9-2.9,3.1-5.9,2-9.5c1.3,1,1.6,2.4,1.9,3.7c0.8,3.2-0.1,6.2-1.5,9.1
			c-0.1,0.3-0.5,0.6-0.8,0.7C66.6,28.2,65.5,28.1,64.1,28.1z"/>
		<path d="M71.9,29.2c1.2-0.4,2.5-1,3.8-1.3c3.3-0.8,6.3-2,8.3-5.1c-0.1,0.4-0.1,0.9-0.2,1.3C82.4,28.5,79,30.6,75,32
			c-0.2,0.1-0.7-0.1-0.9-0.3C73.4,31,72.8,30.2,71.9,29.2z"/>
		<path d="M81.6,55.6c-1.9-0.3-3.4-1.1-4.7-2.1c-2.2-1.7-3.6-4.1-4.5-6.7c-0.1-0.3,0.1-0.9,0.3-1.2c0.6-0.8,1.3-1.4,2.2-2.4
			c0.6,1.6,1.2,3,1.5,4.5c0.6,3,1.8,5.6,4.6,7.3C81.3,55,81.3,55.3,81.6,55.6z"/>
		<path d="M56.5,40.2c-1.4-0.7-2.8-1.3-4-2c-2.1-1.3-4.3-2.4-6.8-2.2c-0.9,0-1.8,0.3-3.1,0.5c2.4-1.7,4.7-2.5,7.2-2.2
			c2,0.2,3.9,1,5.8,1.5c0.7,0.2,1.1,0.6,0.9,1.5C56.3,38,56.5,38.9,56.5,40.2z"/>
		<path d="M57.8,32.4c-0.5-1.6-1.2-3.1-1.5-4.6c-0.6-3.1-2-5.6-4.9-7.5c0.4,0,0.9,0,1.2,0.1c4.3,1.4,6.6,4.7,7.9,8.8
			c0.1,0.2-0.1,0.7-0.3,0.9C59.5,30.9,58.8,31.5,57.8,32.4z"/>
		<path d="M58.1,43.7c0.9,0.9,1.7,1.8,2.6,2.8c-1,0.4-2.1,1.1-3.3,1.3c-3.6,0.7-6.7,1.9-8.5,5.6C48.1,50,52.7,45.4,58.1,43.7z"/>
		<path d="M76.3,35.6c1,0.4,2.1,0.7,2.9,1.3c3.1,1.9,6.2,3.8,10.2,2.6c0,0.2,0.1,0.4,0.1,0.6c-1.4,0.5-2.7,1.1-4.1,1.4
			c-3,0.5-5.8,0-8.5-1.5c-0.6-0.3-0.8-0.6-0.7-1.3C76.4,37.8,76.3,36.8,76.3,35.6z"/>
		<path d="M68.6,47.8c-0.5,1.2-0.9,2.4-1.6,3.5c-2.7,4.5-2.8,5-2.1,9.9c-1.4-1.4-2.2-3.6-2.2-6.2c0-2.3,0.5-4.5,1.6-6.5
			c0.2-0.3,0.7-0.6,1.2-0.7C66.4,47.8,67.3,47.8,68.6,47.8z"/>
		<path d="M62.2,28.5c-3.6-2-5.4-9.2-3.3-13.5c0,0.6,0.1,1,0.1,1.4c-0.3,2.9,1,5.1,3.1,7c0.9,0.8,1.4,1.6,0.7,2.8
			C62.5,26.9,62.4,27.7,62.2,28.5z"/>
		<path d="M44,45.4c3.8,0.1,6.5-1.3,8.7-3.9c0.2-0.3,0.8-0.4,1.1-0.3c1.1,0.2,2.1,0.6,3.2,0.9C55.6,45.3,48.1,47.5,44,45.4z"/>
		<path d="M70.7,47.1c3.2,2.5,5.8,9.5,3.4,12.9c-0.1-0.9,0-1.6-0.2-2.3c-0.4-2.2-1.5-4.1-3.2-5.5c-0.9-0.8-1.2-1.6-0.7-2.8
			C70.3,48.8,70.4,48,70.7,47.1z"/>
		<path d="M70,28.3c-0.3-5.1,2.7-10.2,6.7-11.5c-0.7,0.9-1.5,1.6-1.9,2.5c-0.6,1.5-1.1,3.1-1.1,4.7c0,1.8-0.5,3-2.2,3.6
			C71.1,27.7,70.6,28,70,28.3z"/>
		<path d="M56.4,58.6c2.2-2.1,3.1-4.6,2.9-7.4c-0.1-1.3,0.3-2.2,1.6-2.7c0.7-0.2,1.3-0.7,2-1.1C63.5,51.9,59.8,58.3,56.4,58.6z"/>
		<path d="M56.8,34.2c-3.3,1.2-9.5-2.1-11.4-6.1c0.4,0.1,0.7,0.2,0.9,0.3c1.9,1.8,4.2,2.5,6.7,2.3c1.5-0.1,2.3,0.4,2.8,1.7
			C56,33.1,56.5,33.6,56.8,34.2z"/>
		<path d="M75.8,33.6c2.6-3.7,9.5-5.4,12.8-3.4c-1.1,0.1-2.1,0.2-3.1,0.4c-2,0.5-3.5,1.7-4.8,3.2c-0.6,0.8-1.3,0.9-2.2,0.6
			C77.6,34.1,76.7,33.9,75.8,33.6z"/>
		<path d="M87.2,48c-2.3-2.4-5-3.2-8.1-3c-0.8,0.1-1.4-0.2-1.8-1c-0.3-0.8-0.8-1.5-1.3-2.3C79.4,40.3,87.2,44.6,87.2,48z"/>
		<path d="M43.3,41.5c2.6,0.2,5.1,0,7.4-1.5c0.2-0.2,0.7,0.1,1.2,0.1C49.9,43.5,47.1,43.9,43.3,41.5z"/>
		<path d="M80.4,19.1c-2.3,1.5-3.7,3.5-4.3,5.9c-0.1,0.3-0.6,0.6-1.1,1C74.4,22,76.8,18.9,80.4,19.1z"/>
		<path d="M54.4,29.1c-4,0.9-6.4-1-7-5.1c0.1-0.1,0.2-0.2,0.3-0.3c0.1,0.3,0.2,0.6,0.3,0.8c1.2,1.9,3.1,3,5.2,3.7
			C53.7,28.3,54,28.8,54.4,29.1z"/>
		<path d="M52.5,56.8c2.2-1.5,3.6-3.4,4.3-6c0.1-0.4,0.6-0.6,1-1.1C58.4,53.9,57.7,55.3,52.5,56.8z"/>
		<path d="M62.8,14.8c0.1,1.4,0.1,3,0.2,4.5c0.1,1.4,1.7,2.4,1.1,4.1C60.9,21.4,60.5,17.5,62.8,14.8z"/>
		<path d="M80.9,35.6c2.3-3.3,6-3.8,8.5-1.3c-2.7-0.5-5,0-7.2,1.3C81.9,35.8,81.4,35.6,80.9,35.6z"/>
		<path d="M68.7,52.5c3.4,1.8,3.9,5.1,1.3,8.1C71.1,57.7,69.2,55.3,68.7,52.5z"/>
		<path d="M78.3,46.4c4.1-0.5,6.3,1.2,7,5.1c-1.1-0.9-2.1-1.9-3.2-2.9C81.1,47.7,79.2,48.1,78.3,46.4z"/>
	</g>
	<g>
		<g>
			<path class="st2" d="M88.7,77.8c-12.4,10-20.2,22.6-24.5,37.6C59.8,100.3,52,87.8,39.6,77.8c2.3-1.8,4.5-3.7,6.9-5.3
				c7.9-5.4,16.8-8.7,26.1-10.9c5.9-1.4,11.9-2.6,17.5-5.2c3.5-1.6,6.5-3.8,8.8-6.9c3.8-5.2,3.5-10.2-1-14.8
				c-2.5-2.6-5.5-4.5-8.7-6.1c-0.3-0.1-0.5-0.3-0.7-0.5c5.2,0.6,10.1,1.9,14.3,5c2.9,2.1,4.8,4.9,5.7,8.4c1.2,4.9,0.3,9.2-3.2,12.9
				c-3.5,3.7-7.9,6-12.4,8c-6.2,2.7-12.8,4.1-19.3,5.6c-7,1.6-13.7,3.8-19.9,7.6c-1.1,0.7-2.2,1.5-3.3,2.3
				c6.3,6.1,10.1,13.6,13.8,21.4C67.8,91.6,71.6,84,78,77.8c-2.4-1.5-4.8-3-7.3-4.6c2.5-0.6,5-1.1,7.4-1.8c1.2-0.3,2.2-0.1,3.2,0.7
				C83.7,74,86.1,75.8,88.7,77.8z"/>
			<path class="st2" d="M39.7,28c-2.5,1.7-5.2,3.3-7.6,5.2c-1.4,1.1-2.6,2.5-3.5,3.9c-2.4,3.6-2.2,7.3,0,10.9
				c2.8,4.6,6.9,7.5,11.8,9.2c5.1,1.7,10.3,2.9,15.4,4.3c0.3,0.1,0.6,0.2,0.9,0.3c-2.9,1.5-5.7,2.9-8.5,4.3
				c-0.2,0.1-0.6,0.1-0.9,0.1c-7.4-2-14.6-4.4-20.9-8.9c-3.2-2.3-6-5.1-6.8-9.2c-1.1-5.8,0.7-10.8,5.3-14.6
				c4.2-3.4,9.2-4.8,14.4-5.5C39.6,28,39.8,28,39.7,28z"/>
			<path class="st2" d="M73,35.9c0,4.8-3.8,8.6-8.6,8.6c-4.7,0-8.5-3.8-8.6-8.5c0-4.7,3.7-8.5,8.5-8.6C69.2,27.4,73,31.1,73,35.9z"
				/>
			<path class="st2" d="M58.1,79.1c2.1-0.9,4-1.8,6-2.6c0.3-0.1,0.7-0.1,1,0c1.8,0.8,3.6,1.6,5.4,2.4c-2,3.3-4,6.5-5.9,9.7
				C62.5,85.6,60.3,82.4,58.1,79.1z"/>
			<path class="st2" d="M62.1,26.1c0.7-1.5,1.1-2.8,1.9-4c1.9-2.9,3.1-5.9,2-9.5c1.3,1,1.6,2.4,1.9,3.7c0.8,3.2-0.1,6.2-1.5,9.1
				c-0.1,0.3-0.5,0.6-0.8,0.7C64.6,26.2,63.5,26.1,62.1,26.1z"/>
			<path class="st2" d="M69.9,27.2c1.2-0.4,2.5-1,3.8-1.3c3.3-0.8,6.3-2,8.3-5.1c-0.1,0.4-0.1,0.9-0.2,1.3C80.4,26.5,77,28.6,73,30
				c-0.2,0.1-0.7-0.1-0.9-0.3C71.4,29,70.8,28.2,69.9,27.2z"/>
			<path class="st2" d="M79.6,53.6c-1.9-0.3-3.4-1.1-4.7-2.1c-2.2-1.7-3.6-4.1-4.5-6.7c-0.1-0.3,0.1-0.9,0.3-1.2
				c0.6-0.8,1.3-1.4,2.2-2.4c0.6,1.6,1.2,3,1.5,4.5c0.6,3,1.8,5.6,4.6,7.3C79.3,53,79.3,53.3,79.6,53.6z"/>
			<path class="st2" d="M54.5,38.2c-1.4-0.7-2.8-1.3-4-2c-2.1-1.3-4.3-2.4-6.8-2.2c-0.9,0-1.8,0.3-3.1,0.5c2.4-1.7,4.7-2.5,7.2-2.2
				c2,0.2,3.9,1,5.8,1.5c0.7,0.2,1.1,0.6,0.9,1.5C54.3,36,54.5,36.9,54.5,38.2z"/>
			<path class="st2" d="M55.8,30.4c-0.5-1.6-1.2-3.1-1.5-4.6c-0.6-3.1-2-5.6-4.9-7.5c0.4,0,0.9,0,1.2,0.1c4.3,1.4,6.6,4.7,7.9,8.8
				c0.1,0.2-0.1,0.7-0.3,0.9C57.5,28.9,56.8,29.5,55.8,30.4z"/>
			<path class="st2" d="M56.1,41.7c0.9,0.9,1.7,1.8,2.6,2.8c-1,0.4-2.1,1.1-3.3,1.3c-3.6,0.7-6.7,1.9-8.5,5.6
				C46.1,48,50.7,43.4,56.1,41.7z"/>
			<path class="st2" d="M74.3,33.6c1,0.4,2.1,0.7,2.9,1.3c3.1,1.9,6.2,3.8,10.2,2.6c0,0.2,0.1,0.4,0.1,0.6c-1.4,0.5-2.7,1.1-4.1,1.4
				c-3,0.5-5.8,0-8.5-1.5c-0.6-0.3-0.8-0.6-0.7-1.3C74.4,35.8,74.3,34.8,74.3,33.6z"/>
			<path class="st2" d="M66.6,45.8c-0.5,1.2-0.9,2.4-1.6,3.5c-2.7,4.5-2.8,5-2.1,9.9c-1.4-1.4-2.2-3.6-2.2-6.2
				c0-2.3,0.5-4.5,1.6-6.5c0.2-0.3,0.7-0.6,1.2-0.7C64.4,45.8,65.3,45.8,66.6,45.8z"/>
			<path class="st2" d="M60.2,26.5c-3.6-2-5.4-9.2-3.3-13.5c0,0.6,0.1,1,0.1,1.4c-0.3,2.9,1,5.1,3.1,7c0.9,0.8,1.4,1.6,0.7,2.8
				C60.5,24.9,60.4,25.7,60.2,26.5z"/>
			<path class="st2" d="M42,43.4c3.8,0.1,6.5-1.3,8.7-3.9c0.2-0.3,0.8-0.4,1.1-0.3c1.1,0.2,2.1,0.6,3.2,0.9
				C53.6,43.3,46.1,45.5,42,43.4z"/>
			<path class="st2" d="M68.7,45.1c3.2,2.5,5.8,9.5,3.4,12.9c-0.1-0.9,0-1.6-0.2-2.3c-0.4-2.2-1.5-4.1-3.2-5.5
				c-0.9-0.8-1.2-1.6-0.7-2.8C68.3,46.8,68.4,46,68.7,45.1z"/>
			<path class="st2" d="M68,26.3c-0.3-5.1,2.7-10.2,6.7-11.5c-0.7,0.9-1.5,1.6-1.9,2.5c-0.6,1.5-1.1,3.1-1.1,4.7
				c0,1.8-0.5,3-2.2,3.6C69.1,25.7,68.6,26,68,26.3z"/>
			<path class="st2" d="M54.4,56.6c2.2-2.1,3.1-4.6,2.9-7.4c-0.1-1.3,0.3-2.2,1.6-2.7c0.7-0.2,1.3-0.7,2-1.1
				C61.5,49.9,57.8,56.3,54.4,56.6z"/>
			<path class="st2" d="M54.8,32.2c-3.3,1.2-9.5-2.1-11.4-6.1c0.4,0.1,0.7,0.2,0.9,0.3c1.9,1.8,4.2,2.5,6.7,2.3
				c1.5-0.1,2.3,0.4,2.8,1.7C54,31.1,54.5,31.6,54.8,32.2z"/>
			<path class="st2" d="M73.8,31.6c2.6-3.7,9.5-5.4,12.8-3.4c-1.1,0.1-2.1,0.2-3.1,0.4c-2,0.5-3.5,1.7-4.8,3.2
				c-0.6,0.8-1.3,0.9-2.2,0.6C75.6,32.1,74.7,31.9,73.8,31.6z"/>
			<path class="st2" d="M85.2,46c-2.3-2.4-5-3.2-8.1-3c-0.8,0.1-1.4-0.2-1.8-1c-0.3-0.8-0.8-1.5-1.3-2.3
				C77.4,38.3,85.2,42.6,85.2,46z"/>
			<path class="st2" d="M41.3,39.5c2.6,0.2,5.1,0,7.4-1.5c0.2-0.2,0.7,0.1,1.2,0.1C47.9,41.5,45.1,41.9,41.3,39.5z"/>
			<path class="st2" d="M78.4,17.1c-2.3,1.5-3.7,3.5-4.3,5.9c-0.1,0.3-0.6,0.6-1.1,1C72.4,20,74.8,16.9,78.4,17.1z"/>
			<path class="st2" d="M52.4,27.1c-4,0.9-6.4-1-7-5.1c0.1-0.1,0.2-0.2,0.3-0.3c0.1,0.3,0.2,0.6,0.3,0.8c1.2,1.9,3.1,3,5.2,3.7
				C51.7,26.3,52,26.8,52.4,27.1z"/>
			<path class="st2" d="M50.5,54.8c2.2-1.5,3.6-3.4,4.3-6c0.1-0.4,0.6-0.6,1-1.1C56.4,51.9,55.7,53.3,50.5,54.8z"/>
			<path class="st2" d="M60.8,12.8c0.1,1.4,0.1,3,0.2,4.5c0.1,1.4,1.7,2.4,1.1,4.1C58.9,19.4,58.5,15.5,60.8,12.8z"/>
			<path class="st2" d="M78.9,33.6c2.3-3.3,6-3.8,8.5-1.3c-2.7-0.5-5,0-7.2,1.3C79.9,33.8,79.4,33.6,78.9,33.6z"/>
			<path class="st2" d="M66.7,50.5c3.4,1.8,3.9,5.1,1.3,8.1C69.1,55.7,67.2,53.3,66.7,50.5z"/>
			<path class="st2" d="M76.3,44.4c4.1-0.5,6.3,1.2,7,5.1c-1.1-0.9-2.1-1.9-3.2-2.9C79.1,45.7,77.2,46.1,76.3,44.4z"/>
		</g>
	</g>
</g>
</svg>
