<?xml version="1.0" encoding="utf-8"?>
<!-- Generator: Adobe Illustrator 21.1.0, SVG Export Plug-In . SVG Version: 6.00 Build 0)  -->
<svg version="1.1" id="Layer_1" xmlns="http://www.w3.org/2000/svg" xmlns:xlink="http://www.w3.org/1999/xlink" x="0px" y="0px"
	 viewBox="0 0 128 128" style="enable-background:new 0 0 128 128;" xml:space="preserve">
<style type="text/css">
	.st0{fill:url(#SVGID_1_);}
	.st1{opacity:0.2;}
	.st2{fill:#FFFFFF;}
</style>
<linearGradient id="SVGID_1_" gradientUnits="userSpaceOnUse" x1="11.8622" y1="11.8622" x2="116.1378" y2="116.1378">
	<stop  offset="0" style="stop-color:#F16823"/>
	<stop  offset="1" style="stop-color:#D44F27"/>
</linearGradient>
<path class="st0" d="M87.5,128h-47C18.1,128,0,109.9,0,87.5v-47C0,18.1,18.1,0,40.5,0h47C109.9,0,128,18.1,128,40.5v47
	C128,109.9,109.9,128,87.5,128z"/>
<g>
	<g class="st1">
		<path d="M66.1,71.7C56.4,62,46.8,52.4,37.1,42.8c0,12.5,0,24.8,0,37.3c-0.3,0-0.6,0-0.8,0c-3.9,0-7.8,0-11.7,0
			c-0.6,0-0.8-0.2-1-0.7C21.9,74,21.3,68.6,21.7,63c0.7-9.5,4-17.9,10-25.2c6.7-8.1,15.3-13.4,25.7-15.3C71.2,19.8,83.7,23,94.6,32
			c8.2,6.8,13.3,15.7,15.2,26.2c1.3,7.1,0.8,14.2-1.3,21.1c-0.2,0.6-0.4,0.8-1,0.8c-3.9,0-7.8,0-11.7,0c-0.2,0-0.5,0-0.8,0
			c0-12.4,0-24.8,0-37.2C85.3,52.5,75.7,62.1,66.1,71.7z"/>
		<path d="M28.1,89.1c6.2,0,12.3,0,18.6,0c0-7.8,0-15.6,0-23.5c6.5,6.5,12.8,12.8,19.3,19.2c6.5-6.4,12.8-12.8,19.3-19.2
			c0,7.9,0,15.6,0,23.4c6.2,0,12.4,0,18.8,0c-3.7,5.9-8.3,10.7-14,14.4c-5.7,3.7-11.9,5.9-18.7,6.7C50.8,112.5,34.9,100.9,28.1,89.1
			z"/>
	</g>
	<g>
		<g>
			<path class="st2" d="M64.1,69.7C54.4,60,44.8,50.4,35.1,40.8c0,12.5,0,24.8,0,37.3c-0.3,0-0.6,0-0.8,0c-3.9,0-7.8,0-11.7,0
				c-0.6,0-0.8-0.2-1-0.7C19.9,72,19.3,66.6,19.7,61c0.7-9.5,4-17.9,10-25.2c6.7-8.1,15.3-13.4,25.7-15.3C69.2,17.8,81.7,21,92.6,30
				c8.2,6.8,13.3,15.7,15.2,26.2c1.3,7.1,0.8,14.2-1.3,21.1c-0.2,0.6-0.4,0.8-1,0.8c-3.9,0-7.8,0-11.7,0c-0.2,0-0.5,0-0.8,0
				c0-12.4,0-24.8,0-37.2C83.3,50.5,73.7,60.1,64.1,69.7z"/>
			<path class="st2" d="M26.1,87.1c6.2,0,12.3,0,18.6,0c0-7.8,0-15.6,0-23.5c6.5,6.5,12.8,12.8,19.3,19.2
				c6.5-6.4,12.8-12.8,19.3-19.2c0,7.9,0,15.6,0,23.4c6.2,0,12.4,0,18.8,0c-3.7,5.9-8.3,10.7-14,14.4c-5.7,3.7-11.9,5.9-18.7,6.7
				C48.8,110.5,32.9,98.9,26.1,87.1z"/>
		</g>
	</g>
</g>
</svg>
