<?xml version="1.0" encoding="utf-8"?>
<!-- Generator: Adobe Illustrator 21.1.0, SVG Export Plug-In . SVG Version: 6.00 Build 0)  -->
<svg version="1.1" id="Layer_1" xmlns="http://www.w3.org/2000/svg" xmlns:xlink="http://www.w3.org/1999/xlink" x="0px" y="0px"
	 viewBox="0 0 128 128" style="enable-background:new 0 0 128 128;" xml:space="preserve">
<style type="text/css">
	.st0{fill:url(#SVGID_1_);}
	.st1{fill:#2DBCAF;}
	.st2{fill:#6CB2E2;}
	.st3{fill:#F5A81C;}
	.st4{opacity:0.2;}
	.st5{fill:#FFFFFF;}
</style>
<g>
	<linearGradient id="SVGID_1_" gradientUnits="userSpaceOnUse" x1="11.8622" y1="11.8622" x2="116.1378" y2="116.1378">
		<stop  offset="0" style="stop-color:#4A4B4C"/>
		<stop  offset="1" style="stop-color:#000000"/>
	</linearGradient>
	<path class="st0" d="M87.5,128h-47C18.1,128,0,109.9,0,87.5v-47C0,18.1,18.1,0,40.5,0h47C109.9,0,128,18.1,128,40.5v47
		C128,109.9,109.9,128,87.5,128z"/>
</g>
<path class="st1" d="M61.4,100.7c0.2,0.1,0.5,0.1,0.7,0.1c3.5,0.2,6.8-1.4,9.6-3.4c3.1-2.1,5.9-4.7,8.4-7.5c0.7-0.8,1.3-1.6,1.8-2.5
	c0.9-1.7,1-3.6,1-5.5c0-3.8-0.8-7.7-2.7-11c-1.9-3.3-4.9-6-8.5-7.2c-3.9-1.3-8.2-0.8-12.3,0.2c-4,1-7.9,2.5-12,3.1
	c-2.6,0.4-5.3,0.3-7.8-0.4c-1.1-0.3-2.6-1.5-3.6-1.6c-1.3-0.1-0.9,1.8-0.7,2.8c1.4,5.2,3.8,10.1,7.1,14.4c5.1,6.7,12.1,11.7,18,17.7
	c0.2,0.2,0.5,0.5,0.8,0.6C61.3,100.7,61.3,100.7,61.4,100.7z"/>
<path class="st2" d="M103.2,38.5c-0.1-1.2-0.5-2.4-1.3-3.3c-1.3-1.3-3.3-1.5-5-1.8c-4-0.8-7.6-3.1-11.7-3.6
	C74.2,28.4,66.3,39.2,65.4,49c-0.3,3.5,0.4,7.2,2.5,10.1c2.1,2.9,5.2,4.7,8,6.8c2.5,1.9,4.9,4.3,6.5,7s2.5,6,2.1,9.2
	c-0.1,0.6-0.2,1.3-0.1,1.9s0.5,1.3,1.1,1.4c0.9,0.2,1.7-0.6,2.2-1.4c7.4-10.3,12.5-22.3,14.8-34.8c0.6-3.2,1-6.5,0.9-9.7
	C103.2,39.3,103.2,38.9,103.2,38.5z"/>
<path class="st3" d="M63.7,27.5c-3,0.3-6,1-8.9,1.6c-5.3,1.1-10.6,2.1-15.8,3.6c-2.6,0.8-5.2,1.6-7.7,2.7c-2.5,1.1-3.3,2.3-2.9,5.1
	c0.8,5.9,1.9,11.8,3.4,17.6c0.5,1.8,1,3.6,2.2,4.9c1.2,1.4,3,2.1,4.8,2.6c3.7,1,7.6,1,11.4,0.2c3.6-0.7,7-2.2,9.6-4.8
	c2.5-2.5,4-5.9,4.9-9.3c0.9-3.4,1.3-7,2-10.5c0.5-2.5,1.2-5,2.8-7c1.7-2.2,4.3-3.6,7-3.8c-2.9-2.3-6.8-3.2-10.6-3.1
	C65.1,27.4,64.4,27.4,63.7,27.5z"/>
<g>
	<g class="st4">
		<path d="M105.9,36.1c-12-6.7-25.2-10.2-39.2-10.4l-0.1,0l-0.1,0c-1.2,0.1-2.5,0.2-3.7,0.3c-2.7,0.2-5.5,0.5-8.3,0.9
			c-9.3,1.3-18.4,4.4-27.1,9.3c-0.9,0.5-1.6,1.7-1.6,2.8l0,0.4c0.2,3,0.3,6.1,0.6,9.2c0.7,6.1,2.3,12.4,4.8,18.6
			c6.7,16.8,18,30.1,33.6,39.6c0.4,0.2,1,0.5,1.8,0.5c0.6,0,1.1-0.2,1.7-0.5c4.8-2.9,8.9-6,12.6-9.3c8.1-7.3,14.4-15.8,18.9-25.4
			c4.9-10.5,7.5-21.6,7.6-33.1C107.5,38.2,107.3,36.9,105.9,36.1z M76.3,93.1c-1.9,1.5-4,2.9-5.9,4.3c-1.2,0.9-2.4,1.7-3.7,2.6
			c0,0-0.1,0-0.1,0c-0.1,0-0.1-0.1-0.3-0.1c-10.3-6.3-18.5-14.6-24.3-24.7c-0.9-1.6-1.8-3.4-2.6-5.1c0.6,0.3,1.2,0.5,1.9,0.8
			c2.4,0.8,4.7,1.3,7.1,1.3c3.5,0,7.1-0.9,10.5-2.8c2.5-1.4,5.1-2,7.9-2l0.1,0c6.7,0,12.6,4.8,14.2,11.2c1,4.1,0.4,8.1-1.9,11.7
			C78.6,91.3,77.4,92.3,76.3,93.1z M71.4,32.8c0.6,0,1.1,0.1,1.7,0.1c-6.1,4-9.3,9.8-9.6,17.5c-0.3,6.6-3.1,11.1-8.7,13.8
			c-2,1-4.1,1.5-6.3,1.5c0,0,0,0,0,0c-5.9,0-11.3-3.4-13.6-8.7c-0.7-1.7-1-3.8-1.2-5.7c-0.3-2.1-0.4-4.3-0.6-6.4
			c-0.1-1.2-0.2-2.3-0.3-3.4c6.3-3.5,13.1-6,20-7.4c4.6-0.9,9.3-1.4,14-1.4C68.3,32.6,69.8,32.7,71.4,32.8z M77.6,63.9
			c-4-2.5-6.4-5.7-7.4-10c-1.5-6.3,1.8-13.3,7.5-16.3c2.4-1.2,4.8-1.9,7.1-1.9c1.8,0,3.5,0.3,5.3,1c2.4,0.9,4.8,2.1,7.1,3.2
			c1.1,0.5,2.2,1,3.3,1.5c-0.2,14.2-4.5,27.3-12.6,38.8C87.3,73.2,83.9,67.7,77.6,63.9z"/>
	</g>
	<g>
		<path class="st5" d="M103.9,34.1c-12-6.7-25.2-10.2-39.2-10.4l-0.1,0l-0.1,0c-1.2,0.1-2.5,0.2-3.7,0.3c-2.7,0.2-5.5,0.5-8.3,0.9
			c-9.3,1.3-18.4,4.4-27.1,9.3c-0.9,0.5-1.6,1.7-1.6,2.8l0,0.4c0.2,3,0.3,6.1,0.6,9.2c0.7,6.1,2.3,12.4,4.8,18.6
			c6.7,16.8,18,30.1,33.6,39.6c0.4,0.2,1,0.5,1.8,0.5c0.6,0,1.1-0.2,1.7-0.5c4.8-2.9,8.9-6,12.6-9.3c8.1-7.3,14.4-15.8,18.9-25.4
			c4.9-10.5,7.5-21.6,7.6-33.1C105.5,36.2,105.3,34.9,103.9,34.1z M74.3,91.1c-1.9,1.5-4,2.9-5.9,4.3c-1.2,0.9-2.4,1.7-3.7,2.6
			c0,0-0.1,0-0.1,0c-0.1,0-0.1-0.1-0.3-0.1c-10.3-6.3-18.5-14.6-24.3-24.7c-0.9-1.6-1.8-3.4-2.6-5.1c0.6,0.3,1.2,0.5,1.9,0.8
			c2.4,0.8,4.7,1.3,7.1,1.3c3.5,0,7.1-0.9,10.5-2.8c2.5-1.4,5.1-2,7.9-2l0.1,0c6.7,0,12.6,4.8,14.2,11.2c1,4.1,0.4,8.1-1.9,11.7
			C76.6,89.3,75.4,90.3,74.3,91.1z M69.4,30.8c0.6,0,1.1,0.1,1.7,0.1c-6.1,4-9.3,9.8-9.6,17.5c-0.3,6.6-3.1,11.1-8.7,13.8
			c-2,1-4.1,1.5-6.3,1.5c0,0,0,0,0,0c-5.9,0-11.3-3.4-13.6-8.7c-0.7-1.7-1-3.8-1.2-5.7c-0.3-2.1-0.4-4.3-0.6-6.4
			c-0.1-1.2-0.2-2.3-0.3-3.4c6.3-3.5,13.1-6,20-7.4c4.6-0.9,9.3-1.4,14-1.4C66.3,30.6,67.8,30.7,69.4,30.8z M75.6,61.9
			c-4-2.5-6.4-5.7-7.4-10c-1.5-6.3,1.8-13.3,7.5-16.3c2.4-1.2,4.8-1.9,7.1-1.9c1.8,0,3.5,0.3,5.3,1c2.4,0.9,4.8,2.1,7.1,3.2
			c1.1,0.5,2.2,1,3.3,1.5C98.3,53.7,94.1,66.7,86,78.3C85.3,71.2,81.9,65.7,75.6,61.9z"/>
	</g>
</g>
</svg>
