<?xml version="1.0" encoding="utf-8"?>
<!-- Generator: Adobe Illustrator 21.1.0, SVG Export Plug-In . SVG Version: 6.00 Build 0)  -->
<svg version="1.1" id="Layer_1" xmlns="http://www.w3.org/2000/svg" xmlns:xlink="http://www.w3.org/1999/xlink" x="0px" y="0px"
	 viewBox="0 0 128 128" style="enable-background:new 0 0 128 128;" xml:space="preserve">
<style type="text/css">
	.st0{fill:url(#SVGID_1_);}
	.st1{opacity:0.2;}
	.st2{fill:#FFFFFF;}
</style>
<g>
	<linearGradient id="SVGID_1_" gradientUnits="userSpaceOnUse" x1="11.8622" y1="11.8622" x2="116.1378" y2="116.1378">
		<stop  offset="0" style="stop-color:#0D8040"/>
		<stop  offset="1" style="stop-color:#165F30"/>
	</linearGradient>
	<path class="st0" d="M87.5,128h-47C18.1,128,0,109.9,0,87.5v-47C0,18.1,18.1,0,40.5,0h47C109.9,0,128,18.1,128,40.5v47
		C128,109.9,109.9,128,87.5,128z"/>
</g>
<g>
	<g class="st1">
		<path d="M51.9,40.1c-0.9,3-1.6,5.2-2.3,7.5c-4,14.3-7.9,28.7-11.8,43.1c-1.2,4.2-3.9,6.9-8.6,8.3c0.2-1.1,0.2-1.9,0.4-2.6
			c6-21.8,12.1-43.5,18.2-65.2c0.3-1.2,1.7-3.1,2.5-3.1c2.2,0,4.6-0.6,5.9,2.7C63.7,50.5,71.4,70,79,89.6c0.2,0.6,0.5,1.1,1.1,2.4
			c0.8-2.7,1.4-4.6,1.9-6.6c4.1-14.7,8.2-29.4,12.3-44.1c1.2-4.3,3.8-6.9,8.7-8.3c-0.5,1.9-0.8,3.2-1.1,4.6
			c-5.7,20.9-11.4,41.7-17.2,62.6c-0.4,1.5-0.1,4-3,3.8c-2.6-0.2-4.6-0.2-5.9-3.5c-7.2-18.8-14.7-37.5-22.1-56.3
			C53.2,43,52.7,42,51.9,40.1z"/>
		<path d="M47.1,28c-1,3.5-1.8,6.5-2.6,9.5c-5.3,19-10.6,38-15.9,57c-1.4,5.1-1.5,5.1-7,3.6C25.4,84.4,29.2,70.7,33,57
			c1.9-6.8,3.8-13.6,5.6-20.4C39.8,32.4,42.2,29.5,47.1,28z"/>
		<path d="M110.3,33.6c-3.5,12.6-6.8,25-10.3,37.3c-2.3,8.4-4.6,16.7-7,25.1c-1.1,3.8-3.4,6.3-7.9,7.7c1.8-6.7,3.4-12.8,5.1-18.9
			c4.3-15.6,8.6-31.1,12.9-46.6C104.6,33,104.6,33,110.3,33.6z"/>
	</g>
	<g>
		<g>
			<path class="st2" d="M49.9,38.1c-0.9,3-1.6,5.2-2.3,7.5c-4,14.3-7.9,28.7-11.8,43.1c-1.2,4.2-3.9,6.9-8.6,8.3
				c0.2-1.1,0.2-1.9,0.4-2.6c6-21.8,12.1-43.5,18.2-65.2c0.3-1.2,1.7-3.1,2.5-3.1c2.2,0,4.6-0.6,5.9,2.7C61.7,48.5,69.4,68,77,87.6
				c0.2,0.6,0.5,1.1,1.1,2.4c0.8-2.7,1.4-4.6,1.9-6.6c4.1-14.7,8.2-29.4,12.3-44.1c1.2-4.3,3.8-6.9,8.7-8.3
				c-0.5,1.9-0.8,3.2-1.1,4.6c-5.7,20.9-11.4,41.7-17.2,62.6c-0.4,1.5-0.1,4-3,3.8c-2.6-0.2-4.6-0.2-5.9-3.5
				c-7.2-18.8-14.7-37.5-22.1-56.3C51.2,41,50.7,40,49.9,38.1z"/>
			<path class="st2" d="M45.1,26c-1,3.5-1.8,6.5-2.6,9.5c-5.3,19-10.6,38-15.9,57c-1.4,5.1-1.5,5.1-7,3.6C23.4,82.4,27.2,68.7,31,55
				c1.9-6.8,3.8-13.6,5.6-20.4C37.8,30.4,40.2,27.5,45.1,26z"/>
			<path class="st2" d="M108.3,31.6c-3.5,12.6-6.8,25-10.3,37.3c-2.3,8.4-4.6,16.7-7,25.1c-1.1,3.8-3.4,6.3-7.9,7.7
				c1.8-6.7,3.4-12.8,5.1-18.9c4.3-15.6,8.6-31.1,12.9-46.6C102.6,31,102.6,31,108.3,31.6z"/>
		</g>
	</g>
</g>
</svg>
