<?xml version="1.0" encoding="utf-8"?>
<!-- Generator: Adobe Illustrator 21.1.0, SVG Export Plug-In . SVG Version: 6.00 Build 0)  -->
<svg version="1.1" id="Layer_1" xmlns="http://www.w3.org/2000/svg" xmlns:xlink="http://www.w3.org/1999/xlink" x="0px" y="0px"
	 viewBox="0 0 128 128" style="enable-background:new 0 0 128 128;" xml:space="preserve">
<style type="text/css">
	.st0{fill:url(#SVGID_1_);}
	.st1{opacity:0.2;}
	.st2{fill:#FFFFFF;}
</style>
<linearGradient id="SVGID_1_" gradientUnits="userSpaceOnUse" x1="11.8622" y1="11.8622" x2="116.1378" y2="116.1378">
	<stop  offset="0" style="stop-color:#3EBB9A"/>
	<stop  offset="1" style="stop-color:#038675"/>
</linearGradient>
<path class="st0" d="M87.5,128h-47C18.1,128,0,109.9,0,87.5v-47C0,18.1,18.1,0,40.5,0h47C109.9,0,128,18.1,128,40.5v47
	C128,109.9,109.9,128,87.5,128z"/>
<g>
	<g class="st1">
		<path d="M104.3,99.1c0,3-2.1,5.2-5.1,5.2c-7,0-14,0.1-21,0c-12.5-0.3-23-10.1-24.4-22.6c-0.5-4.5,0.2-8.7,1.9-12.8
			c2.4-5.8,1.6-10.1-2.8-14.5c-4.7-4.7-9.4-9.3-14-14c-1.5-1.5-3.1-2.1-5.2-1.9c-3.2,0.3-5.9-2.1-6.1-5.2c-0.1-3,2.4-5.5,5.4-5.6
			c3.2,0,5.6,2.5,5.4,5.8c-0.2,2.3,0.6,4,2.2,5.6c4.6,4.5,9.2,9.2,13.8,13.8c4.4,4.4,8.8,5.3,14.5,2.8c15-6.4,32.3,2.8,34.9,18.7
			C104.6,79,104.4,95.6,104.3,99.1z M94.2,83.8C94.2,83.8,94.2,83.8,94.2,83.8c0-1.4,0-2.9,0-4.3c0.1-11.4-9.7-16.7-17-15.7
			c-7.5,1-13.4,7.3-13.4,14.8c-0.1,7.9,5.6,14.5,13.2,15.2c4.3,0.4,8.6,0.3,12.9,0.2c2.5,0,4.1-1.7,4.2-4.3
			C94.2,87.8,94.2,85.8,94.2,83.8z"/>
	</g>
	<g>
		<g>
			<path class="st2" d="M102.3,97.1c0,3-2.1,5.2-5.1,5.2c-7,0-14,0.1-21,0c-12.5-0.3-23-10.1-24.4-22.6c-0.5-4.5,0.2-8.7,1.9-12.8
				c2.4-5.8,1.6-10.1-2.8-14.5c-4.7-4.7-9.4-9.3-14-14c-1.5-1.5-3.1-2.1-5.2-1.9c-3.2,0.3-5.9-2.1-6.1-5.2c-0.1-3,2.4-5.5,5.4-5.6
				c3.2,0,5.6,2.5,5.4,5.8c-0.2,2.3,0.6,4,2.2,5.6c4.6,4.5,9.2,9.2,13.8,13.8c4.4,4.4,8.8,5.3,14.5,2.8c15-6.4,32.3,2.8,34.9,18.7
				C102.6,77,102.4,93.6,102.3,97.1z M92.2,81.8C92.2,81.8,92.2,81.8,92.2,81.8c0-1.4,0-2.9,0-4.3c0.1-11.4-9.7-16.7-17-15.7
				c-7.5,1-13.4,7.3-13.4,14.8c-0.1,7.9,5.6,14.5,13.2,15.2c4.3,0.4,8.6,0.3,12.9,0.2c2.5,0,4.1-1.7,4.2-4.3
				C92.2,85.8,92.2,83.8,92.2,81.8z"/>
		</g>
	</g>
</g>
</svg>
