<?xml version="1.0" encoding="utf-8"?>
<!-- Generator: Adobe Illustrator 21.1.0, SVG Export Plug-In . SVG Version: 6.00 Build 0)  -->
<svg version="1.1" id="Layer_1" xmlns="http://www.w3.org/2000/svg" xmlns:xlink="http://www.w3.org/1999/xlink" x="0px" y="0px"
	 viewBox="0 0 128 128" style="enable-background:new 0 0 128 128;" xml:space="preserve">
<style type="text/css">
	.st0{fill:url(#SVGID_1_);}
	.st1{opacity:0.2;}
	.st2{fill:#FFFFFF;}
</style>
<linearGradient id="SVGID_1_" gradientUnits="userSpaceOnUse" x1="11.8622" y1="11.8622" x2="116.1378" y2="116.1378">
	<stop  offset="0" style="stop-color:#195199"/>
	<stop  offset="1" style="stop-color:#1F417E"/>
</linearGradient>
<path class="st0" d="M87.5,128h-47C18.1,128,0,109.9,0,87.5v-47C0,18.1,18.1,0,40.5,0h47C109.9,0,128,18.1,128,40.5v47
	C128,109.9,109.9,128,87.5,128z"/>
<g>
	<g class="st1">
		<path d="M64.2,19.8c-0.3,2.4-0.5,4.4-0.7,6.4c-0.9,6.7-0.3,13.2,2.8,19.3c4.1,8.3,8,16.7,11.9,25.1c2.4,5.1,4.6,10.4,5.7,16
			c0.5,2.6,0.3,5.1-1,7.5c-3.9,6.8-9,12.5-15,17.4c-0.6,0.4-1.4,0.6-2.1,0.8c0-0.7-0.1-1.5,0.1-2.2c0.8-3.2,1.8-6.4,2.5-9.6
			c0.9-4.1,0.5-8.2-1.2-12.1c-3.2-7-6.5-14-9.8-21C54.2,60.7,51,54.1,49,47c-1-3.7-1.8-7.4,0-11.1c3.1-6.5,7.9-11.4,13.7-15.5
			C63,20.2,63.4,20.1,64.2,19.8z"/>
		<path d="M35,29.7c0,0.7,0.1,1.2,0,1.7c-0.5,4.1-1.1,8.2-0.3,12.3c0.3,1.8,0.9,3.5,1.7,5.1c3.2,7,6.7,13.9,9.8,20.9
			c1.8,4,3.1,8.2,4.4,12.4c0.6,2,0.3,4-0.7,5.9c-3,5.3-7.1,9.9-11.8,13.7c-0.4,0.4-1,0.6-1.5,0.9c-0.1-0.1-0.2-0.1-0.4-0.2
			c0.1-0.6,0.1-1.3,0.3-1.9c0.6-2.5,1.4-5,1.9-7.6c0.7-3.1,0.4-6.3-1-9.2c-2.9-6.4-5.9-12.8-8.9-19.2c-2.3-4.9-4.5-9.8-5.7-15.2
			c-0.7-3.1-0.3-5.9,1.3-8.5c2.4-4.1,5.6-7.4,9.4-10.2C33.8,30.3,34.3,30.1,35,29.7z"/>
		<path d="M94.1,30.1c-0.1,1.3-0.3,2.5-0.4,3.8c-0.5,3.6-0.8,7.3,0.2,10.9c0.8,2.7,2,5.4,3.2,8c3.4,7.5,7,14.9,10.3,22.5
			c1.1,2.5,1.7,5.3,2.2,8c0.2,1.3,0,2.9-0.6,4.1c-2.9,5.8-7.2,10.4-12.3,14.5c-0.4,0.3-0.9,0.5-1.7,0.9c0.1-0.9,0.1-1.5,0.3-2.1
			c0.7-3,1.5-6,2.1-9c0.6-2.8,0-5.6-1.2-8.2c-3-6.4-6-12.8-9-19.3c-2.3-4.9-4.4-9.8-5.6-15.1c-0.7-3.1-0.1-5.9,1.5-8.5
			c2.4-3.9,5.6-7.2,9.3-9.9c0.4-0.3,0.9-0.5,1.3-0.7C93.9,29.9,94,30,94.1,30.1z"/>
	</g>
	<g>
		<g>
			<path class="st2" d="M62.2,17.8c-0.3,2.4-0.5,4.4-0.7,6.4c-0.9,6.7-0.3,13.2,2.8,19.3c4.1,8.3,8,16.7,11.9,25.1
				c2.4,5.1,4.6,10.4,5.7,16c0.5,2.6,0.3,5.1-1,7.5c-3.9,6.8-9,12.5-15,17.4c-0.6,0.4-1.4,0.6-2.1,0.8c0-0.7-0.1-1.5,0.1-2.2
				c0.8-3.2,1.8-6.4,2.5-9.6c0.9-4.1,0.5-8.2-1.2-12.1c-3.2-7-6.5-14-9.8-21C52.2,58.7,49,52.1,47,45c-1-3.7-1.8-7.4,0-11.1
				c3.1-6.5,7.9-11.4,13.7-15.5C61,18.2,61.4,18.1,62.2,17.8z"/>
			<path class="st2" d="M33,27.7c0,0.7,0.1,1.2,0,1.7c-0.5,4.1-1.1,8.2-0.3,12.3c0.3,1.8,0.9,3.5,1.7,5.1c3.2,7,6.7,13.9,9.8,20.9
				c1.8,4,3.1,8.2,4.4,12.4c0.6,2,0.3,4-0.7,5.9c-3,5.3-7.1,9.9-11.8,13.7c-0.4,0.4-1,0.6-1.5,0.9c-0.1-0.1-0.2-0.1-0.4-0.2
				c0.1-0.6,0.1-1.3,0.3-1.9c0.6-2.5,1.4-5,1.9-7.6c0.7-3.1,0.4-6.3-1-9.2c-2.9-6.4-5.9-12.8-8.9-19.2c-2.3-4.9-4.5-9.8-5.7-15.2
				c-0.7-3.1-0.3-5.9,1.3-8.5c2.4-4.1,5.6-7.4,9.4-10.2C31.8,28.3,32.3,28.1,33,27.7z"/>
			<path class="st2" d="M92.1,28.1c-0.1,1.3-0.3,2.5-0.4,3.8c-0.5,3.6-0.8,7.3,0.2,10.9c0.8,2.7,2,5.4,3.2,8
				c3.4,7.5,7,14.9,10.3,22.5c1.1,2.5,1.7,5.3,2.2,8c0.2,1.3,0,2.9-0.6,4.1c-2.9,5.8-7.2,10.4-12.3,14.5c-0.4,0.3-0.9,0.5-1.7,0.9
				c0.1-0.9,0.1-1.5,0.3-2.1c0.7-3,1.5-6,2.1-9c0.6-2.8,0-5.6-1.2-8.2c-3-6.4-6-12.8-9-19.3c-2.3-4.9-4.4-9.8-5.6-15.1
				c-0.7-3.1-0.1-5.9,1.5-8.5c2.4-3.9,5.6-7.2,9.3-9.9c0.4-0.3,0.9-0.5,1.3-0.7C91.9,27.9,92,28,92.1,28.1z"/>
		</g>
	</g>
</g>
</svg>
