<?xml version="1.0" encoding="utf-8"?>
<!-- Generator: Adobe Illustrator 21.1.0, SVG Export Plug-In . SVG Version: 6.00 Build 0)  -->
<svg version="1.1" id="Layer_1" xmlns="http://www.w3.org/2000/svg" xmlns:xlink="http://www.w3.org/1999/xlink" x="0px" y="0px"
	 viewBox="0 0 128 128" style="enable-background:new 0 0 128 128;" xml:space="preserve">
<style type="text/css">
	.st0{fill:url(#SVGID_1_);}
	.st1{opacity:0.2;}
	.st2{fill:#FFFFFF;}
</style>
<linearGradient id="SVGID_1_" gradientUnits="userSpaceOnUse" x1="11.8622" y1="11.8622" x2="116.1378" y2="116.1378">
	<stop  offset="0" style="stop-color:#2A8AC7"/>
	<stop  offset="1" style="stop-color:#1873AD"/>
</linearGradient>
<path class="st0" d="M87.5,128h-47C18.1,128,0,109.9,0,87.5v-47C0,18.1,18.1,0,40.5,0h47C109.9,0,128,18.1,128,40.5v47
	C128,109.9,109.9,128,87.5,128z"/>
<g>
	<g class="st1">
		<path d="M65.9,107c-0.4,0-0.7-0.1-1.1-0.3L23.3,80.5c-0.9-0.6-1.2-1.8-0.6-2.8c0.6-0.9,1.8-1.2,2.8-0.6l40.5,25.5l39.7-25.5v-7.2
			L66.4,94.6c-0.7,0.4-1.5,0.4-2.2,0L23.3,68c-0.6-0.4-0.9-1-0.9-1.7V54.4c0-0.1,0-0.2,0-0.3c0-0.1,0-0.2,0.1-0.3
			c0.1-0.4,0.4-0.8,0.7-1c0,0,0.1,0,0.1-0.1l41.6-27.3c0.7-0.4,1.5-0.4,2.2,0l41.4,27.4c0.6,0.4,0.9,1,0.9,1.7
			c0,0.7-0.4,1.3-0.9,1.7L67.1,82.4c-0.7,0.4-1.5,0.4-2.1,0L26.4,58v7.2l39,25.4l41.1-26c0.6-0.4,1.4-0.4,2-0.1c0.6,0.4,1,1,1,1.8
			v11.9c0,0.7-0.3,1.3-0.9,1.7L67,106.7C66.7,106.9,66.3,107,65.9,107z M28.1,54.3l37.9,24l37.8-24L66,29.4L28.1,54.3z"/>
	</g>
	<g>
		<path class="st2" d="M63.9,105c-0.4,0-0.7-0.1-1.1-0.3L21.3,78.5c-0.9-0.6-1.2-1.8-0.6-2.8c0.6-0.9,1.8-1.2,2.8-0.6l40.5,25.5
			l39.7-25.5v-7.2L64.4,92.6c-0.7,0.4-1.5,0.4-2.2,0L21.3,66c-0.6-0.4-0.9-1-0.9-1.7V52.4c0-0.1,0-0.2,0-0.3c0-0.1,0-0.2,0.1-0.3
			c0.1-0.4,0.4-0.8,0.7-1c0,0,0.1,0,0.1-0.1l41.6-27.3c0.7-0.4,1.5-0.4,2.2,0l41.4,27.4c0.6,0.4,0.9,1,0.9,1.7
			c0,0.7-0.4,1.3-0.9,1.7L65.1,80.4c-0.7,0.4-1.5,0.4-2.1,0L24.4,56v7.2l39,25.4l41.1-26c0.6-0.4,1.4-0.4,2-0.1c0.6,0.4,1,1,1,1.8
			v11.9c0,0.7-0.3,1.3-0.9,1.7L65,104.7C64.7,104.9,64.3,105,63.9,105z M26.1,52.3l37.9,24l37.8-24L64,27.4L26.1,52.3z"/>
	</g>
</g>
</svg>
