<?xml version="1.0" encoding="utf-8"?>
<!-- Generator: Adobe Illustrator 21.1.0, SVG Export Plug-In . SVG Version: 6.00 Build 0)  -->
<svg version="1.1" id="Layer_1" xmlns="http://www.w3.org/2000/svg" xmlns:xlink="http://www.w3.org/1999/xlink" x="0px" y="0px"
	 viewBox="0 0 128 128" style="enable-background:new 0 0 128 128;" xml:space="preserve">
<style type="text/css">
	.st0{fill:url(#SVGID_1_);}
	.st1{opacity:0.2;}
	.st2{fill:#FFFFFF;}
</style>
<g>
	<linearGradient id="SVGID_1_" gradientUnits="userSpaceOnUse" x1="116.1378" y1="116.1378" x2="11.8622" y2="11.8622">
		<stop  offset="0" style="stop-color:#6D1C56"/>
		<stop  offset="1" style="stop-color:#9B2F80"/>
	</linearGradient>
	<path class="st0" d="M87.5,128h-47C18.1,128,0,109.9,0,87.5v-47C0,18.1,18.1,0,40.5,0h47C109.9,0,128,18.1,128,40.5v47
		C128,109.9,109.9,128,87.5,128z"/>
</g>
<g>
	<g class="st1">
		<path d="M28.3,33.7c3.1-1.6,6.4-2.6,10.1-2.9c3.8-0.3,7.7-0.2,11.4,0c1.3,0,2.7,0.1,4,0.1c1.5,0,3.1,0.1,4.6,0.2
			c2.5,0.1,5.1,0.2,7.6,0.1c3.2-0.1,5.1-1.8,5.9-5.2c0.5-2.1,0-3.8-1.5-5.3c-1.4-1.4-3.3-2.3-5.8-2.7c-1.5-0.3-3.1-0.4-4.6-0.4
			c-3.9,0-8,0.8-12.9,2.4c-4.3,1.4-8.4,3.9-12.6,7.4C32.3,29.4,30.2,31.5,28.3,33.7z"/>
		<path d="M37.4,51.9c-4,0-7.5,0.8-10.5,2.3c-2.7,1.4-4.3,2.9-5,5c-2.5,6.6-3.2,13.3-2.2,19.9c1.8,12,7.9,21.2,18,27.3
			c11.9,7.3,24.5,7.9,37.5,2c1-0.4,1.9-1,2.9-1.6c-5-2.1-8.2-4.2-11.9-7.7c-0.1,0-0.2,0-0.3,0c-4.8,1.3-9.1,1.5-13.1,0.5
			C42,97.1,34.9,90.3,32.2,80c-2.7-10.4,0.4-19.8,8.9-27.2c0.3-0.2,0.5-0.5,0.8-0.7c-0.9-0.1-1.9-0.1-2.8-0.2
			C38.5,51.9,37.9,51.9,37.4,51.9z"/>
		<path d="M106.1,77.3c-2.6,3.4-4.9,6.5-7.1,9.7c-1.1,1.6-1.5,3.2-1.2,4.7c0.4,1.8,1.4,3.1,2.7,3.7c1.3,0.5,2.8,0.3,4.2-0.6
			c1.6-1,2.9-2.3,3.8-3.5c4.7-6.4,7.2-13.6,7.3-21.5c0-3.1-0.1-6.5-0.6-10.2c-0.2,0.8-0.4,1.6-0.6,2.4
			C112.8,67.9,109.5,72.9,106.1,77.3z"/>
		<path d="M62.7,54c1.6,0.8,3.3,1.6,5,2.3c1.4,0.6,2.8,0.9,4.3,1.1c-0.2-0.5-0.4-1.1-0.4-1.7c-0.2-1.7,0.3-3.4,1.3-4.7
			c1.1-1.4,3-2.3,4.9-2.3c1.7,0,3.3,0.6,4.5,1.8c1.2,1.2,1.9,2.5,2,3.9c3.5-2.6,5.9-6.6,6.6-11c0.7-4.8-0.9-9.5-4.4-12.7
			c-2.5-2.4-5.6-4.2-9.7-5.8c-0.1,5-3.6,10.4-10.1,11.1c-4.1,0.4-8.2,0.1-12.1-0.2c-0.6-0.1-1.3-0.1-1.9-0.2
			c-2.6-0.2-5.1-0.4-7.6-0.4c-2.6,0-5.1,0.2-7.7,0.7c-7.5,1.5-12.8,4.9-16.5,10.3c-2.4,3.5-3.7,7.8-4.2,12.9
			c1.4-3.3,3.7-5.9,6.8-7.9c4.1-2.6,9-3.8,15.1-3.7c6.6,0.1,13.2,1.6,20,4.5C60,52.7,61.3,53.4,62.7,54z"/>
		<path d="M52.2,76c-2.2-0.9-3.2-2.5-3.2-5c0-2.9,2-5.1,4.9-5.2l0.2,0c0.5,0,1.1,0.1,1.5,0.2c1.2-2.9,3.2-5.5,6-7.8
			c-4.1-2.1-7.8-3.5-11.4-4.4c-0.1,0-0.3,0-0.4,0c-0.3,0-0.6,0.1-0.8,0.2c-9.3,4.3-14.4,15.4-11.5,25.3C39,85,42.9,89.7,48.2,92.5
			c3.6,1.9,7.6,2.7,11.6,2.4L52.2,76z"/>
		<path d="M109.8,41.9c-1.1-2.8-2.7-5.5-4.9-8.1c2.5,6.1,2.3,12.9-0.8,19.7c-1.6,3.5-3.8,6.7-6.6,9.9c0.2,0.8,0.1,1.5,0,2.1
			c-0.3,1.2-0.9,2.1-1.7,2.8l-0.2,3.2l1.8-1.4c0.8-3.7,3.4-4.3,5-4.3c2,0,3.7,1.1,4.6,2.8c0.5-0.8,1-1.6,1.4-2.4
			C112.6,58.2,113,50,109.8,41.9z"/>
		<path d="M94.2,94.2c-0.2,0-0.5,0-0.7,0c-0.4,0-0.8,0-1.2-0.1c-1.3-0.2-2.7-0.3-4.1-0.4c-0.9-0.1-1.9-0.1-2.8-0.2
			c-1.3-0.1-2.7-0.2-4.5-0.2c-0.8,0-1.6,0-2.4,0c-0.7,0-1.3,0-2,0c-0.5,0-1,0-1.6,0.1c1.3,3.3,4.2,5.6,5.8,6.7
			c4.5,3.1,10.5,2.3,16.3-2C95.7,96.9,94.7,95.5,94.2,94.2C94.2,94.2,94.2,94.2,94.2,94.2z"/>
		<path d="M53.9,69.4c-0.9,0-1.4,0.6-1.4,1.6c0,1,0.2,1.4,1.2,1.7c0.3,0.1,0.7,0.1,1.1,0.2c2.4,6.1,4.9,12.1,7.4,18.3
			c1-0.2,1.9-0.3,2.8-0.4c1.9-0.3,3.8-0.6,5.7-0.7c1.9-0.1,3.8-0.5,5.7-0.5c1.5,0,2.9,0,4.4,0c1.6,0,3.3,0,4.9,0.2
			c2.4,0.2,4.7,0.3,7.1,0.7c0.2,0,0.4,0,0.7,0c0.4,0,0.8,0,1.1,0c2.4-5.9,4.7-11.8,7-17.6c1.8-0.4,2.4-0.9,2.3-2
			c-0.1-0.9-0.7-1.5-1.6-1.5c0,0,0,0,0,0c-1.1,0-1.5,0.6-1.6,2.6c-3,2.4-6,4.8-9.2,7.3c0.3-4.4,0.5-8.6,0.8-12.8
			c1.7-1.1,2-1.8,1.4-2.7c-0.3-0.5-1-0.8-1.5-0.8c-0.3,0-0.5,0.1-0.7,0.2c-0.9,0.5-0.9,1.7-0.2,3c-2.3,3.9-4.3,8-6.8,12
			c-1.9-6.8-3.8-13.5-5.6-20.1c2.1-2.1,2.3-3.5,0.9-5c-0.5-0.5-1.3-0.8-2-0.8c-0.8,0-1.7,0.3-2.1,0.9c-1.1,1.4-0.7,3.3,1.1,4.7
			c-1.7,6.4-3.5,12.9-5.4,19.5c-2.2-3.9-4.3-7.6-6.3-11.3c0.8-1.3,0.8-2.3,0-2.9C64.9,63,64.5,63,64.2,63c-0.6,0-1.2,0.2-1.4,0.7
			c-0.2,0.5-0.2,1.1-0.2,1.6c0,0.9,1,0.7,1.5,1.2c0.1,2.4,0.2,4.7,0.4,7.1c0,0.6,0.2,1.2,0.2,1.8c0.1,1.2,0.2,2.4,0,3.8
			c-3.1-2.4-6.1-4.8-9-7.1c0-0.4,0-0.7,0-1C55.6,70,55,69.4,53.9,69.4C54,69.4,54,69.4,53.9,69.4z"/>
	</g>
	<g>
		<g>
			<g>
				<path class="st2" d="M26.3,31.7c3.1-1.6,6.4-2.6,10.1-2.9c3.8-0.3,7.7-0.2,11.4,0c1.3,0,2.7,0.1,4,0.1c1.5,0,3.1,0.1,4.6,0.2
					c2.5,0.1,5.1,0.2,7.6,0.1c3.2-0.1,5.1-1.8,5.9-5.2c0.5-2.1,0-3.8-1.5-5.3c-1.4-1.4-3.3-2.3-5.8-2.7c-1.5-0.3-3.1-0.4-4.6-0.4
					c-3.9,0-8,0.8-12.9,2.4c-4.3,1.4-8.4,3.9-12.6,7.4C30.3,27.4,28.2,29.5,26.3,31.7z"/>
				<path class="st2" d="M35.4,49.9c-4,0-7.5,0.8-10.5,2.3c-2.7,1.4-4.3,2.9-5,5c-2.5,6.6-3.2,13.3-2.2,19.9
					c1.8,12,7.9,21.2,18,27.3c11.9,7.3,24.5,7.9,37.5,2c1-0.4,1.9-1,2.9-1.6c-5-2.1-8.2-4.2-11.9-7.7c-0.1,0-0.2,0-0.3,0
					c-4.8,1.3-9.1,1.5-13.1,0.5C40,95.1,32.9,88.3,30.2,78c-2.7-10.4,0.4-19.8,8.9-27.2c0.3-0.2,0.5-0.5,0.8-0.7
					c-0.9-0.1-1.9-0.1-2.8-0.2C36.5,49.9,35.9,49.9,35.4,49.9z"/>
				<path class="st2" d="M104.1,75.3c-2.6,3.4-4.9,6.5-7.1,9.7c-1.1,1.6-1.5,3.2-1.2,4.7c0.4,1.8,1.4,3.1,2.7,3.7
					c1.3,0.5,2.8,0.3,4.2-0.6c1.6-1,2.9-2.3,3.8-3.5c4.7-6.4,7.2-13.6,7.3-21.5c0-3.1-0.1-6.5-0.6-10.2c-0.2,0.8-0.4,1.6-0.6,2.4
					C110.8,65.9,107.5,70.9,104.1,75.3z"/>
				<path class="st2" d="M60.7,52c1.6,0.8,3.3,1.6,5,2.3c1.4,0.6,2.8,0.9,4.3,1.1c-0.2-0.5-0.4-1.1-0.4-1.7
					c-0.2-1.7,0.3-3.4,1.3-4.7c1.1-1.4,3-2.3,4.9-2.3c1.7,0,3.3,0.6,4.5,1.8c1.2,1.2,1.9,2.5,2,3.9c3.5-2.6,5.9-6.6,6.6-11
					c0.7-4.8-0.9-9.5-4.4-12.7c-2.5-2.4-5.6-4.2-9.7-5.8c-0.1,5-3.6,10.4-10.1,11.1c-4.1,0.4-8.2,0.1-12.1-0.2
					c-0.6-0.1-1.3-0.1-1.9-0.2c-2.6-0.2-5.1-0.4-7.6-0.4c-2.6,0-5.1,0.2-7.7,0.7c-7.5,1.5-12.8,4.9-16.5,10.3
					c-2.4,3.5-3.7,7.8-4.2,12.9c1.4-3.3,3.7-5.9,6.8-7.9c4.1-2.6,9-3.8,15.1-3.7c6.6,0.1,13.2,1.6,20,4.5C58,50.7,59.3,51.4,60.7,52
					z"/>
				<path class="st2" d="M50.2,74c-2.2-0.9-3.2-2.5-3.2-5c0-2.9,2-5.1,4.9-5.2l0.2,0c0.5,0,1.1,0.1,1.5,0.2c1.2-2.9,3.2-5.5,6-7.8
					c-4.1-2.1-7.8-3.5-11.4-4.4c-0.1,0-0.3,0-0.4,0c-0.3,0-0.6,0.1-0.8,0.2c-9.3,4.3-14.4,15.4-11.5,25.3C37,83,40.9,87.7,46.2,90.5
					c3.6,1.9,7.6,2.7,11.6,2.4L50.2,74z"/>
				<g>
					<path class="st2" d="M107.8,39.9c-1.1-2.8-2.7-5.5-4.9-8.1c2.5,6.1,2.3,12.9-0.8,19.7c-1.6,3.5-3.8,6.7-6.6,9.9
						c0.2,0.8,0.1,1.5,0,2.1c-0.3,1.2-0.9,2.1-1.7,2.8l-0.2,3.2l1.8-1.4c0.8-3.7,3.4-4.3,5-4.3c2,0,3.7,1.1,4.6,2.8
						c0.5-0.8,1-1.6,1.4-2.4C110.6,56.2,111,48,107.8,39.9z"/>
					<path class="st2" d="M92.2,92.2c-0.2,0-0.5,0-0.7,0c-0.4,0-0.8,0-1.2-0.1c-1.3-0.2-2.7-0.3-4.1-0.4c-0.9-0.1-1.9-0.1-2.8-0.2
						c-1.3-0.1-2.7-0.2-4.5-0.2c-0.8,0-1.6,0-2.4,0c-0.7,0-1.3,0-2,0c-0.5,0-1,0-1.6,0.1c1.3,3.3,4.2,5.6,5.8,6.7
						c4.5,3.1,10.5,2.3,16.3-2C93.7,94.9,92.7,93.5,92.2,92.2C92.2,92.2,92.2,92.2,92.2,92.2z"/>
				</g>
			</g>
			<path class="st2" d="M51.9,67.4c-0.9,0-1.4,0.6-1.4,1.6c0,1,0.2,1.4,1.2,1.7c0.3,0.1,0.7,0.1,1.1,0.2c2.4,6.1,4.9,12.1,7.4,18.3
				c1-0.2,1.9-0.3,2.8-0.4c1.9-0.3,3.8-0.6,5.7-0.7c1.9-0.1,3.8-0.5,5.7-0.5c1.5,0,2.9,0,4.4,0c1.6,0,3.3,0,4.9,0.2
				c2.4,0.2,4.7,0.3,7.1,0.7c0.2,0,0.4,0,0.7,0c0.4,0,0.8,0,1.1,0c2.4-5.9,4.7-11.8,7-17.6c1.8-0.4,2.4-0.9,2.3-2
				c-0.1-0.9-0.7-1.5-1.6-1.5c0,0,0,0,0,0c-1.1,0-1.5,0.6-1.6,2.6c-3,2.4-6,4.8-9.2,7.3c0.3-4.4,0.5-8.6,0.8-12.8
				c1.7-1.1,2-1.8,1.4-2.7c-0.3-0.5-1-0.8-1.5-0.8c-0.3,0-0.5,0.1-0.7,0.2c-0.9,0.5-0.9,1.7-0.2,3c-2.3,3.9-4.3,8-6.8,12
				c-1.9-6.8-3.8-13.5-5.6-20.1c2.1-2.1,2.3-3.5,0.9-5c-0.5-0.5-1.3-0.8-2-0.8c-0.8,0-1.7,0.3-2.1,0.9c-1.1,1.4-0.7,3.3,1.1,4.7
				c-1.7,6.4-3.5,12.9-5.4,19.5c-2.2-3.9-4.3-7.6-6.3-11.3c0.8-1.3,0.8-2.3,0-2.9C62.9,61,62.5,61,62.2,61c-0.6,0-1.2,0.2-1.4,0.7
				c-0.2,0.5-0.2,1.1-0.2,1.6c0,0.9,1,0.7,1.5,1.2c0.1,2.4,0.2,4.7,0.4,7.1c0,0.6,0.2,1.2,0.2,1.8c0.1,1.2,0.2,2.4,0,3.8
				c-3.1-2.4-6.1-4.8-9-7.1c0-0.4,0-0.7,0-1C53.6,68,53,67.4,51.9,67.4C52,67.4,52,67.4,51.9,67.4z"/>
		</g>
	</g>
</g>
</svg>
