<?xml version="1.0" encoding="utf-8"?>
<!-- Generator: Adobe Illustrator 21.1.0, SVG Export Plug-In . SVG Version: 6.00 Build 0)  -->
<svg version="1.1" id="Layer_1" xmlns="http://www.w3.org/2000/svg" xmlns:xlink="http://www.w3.org/1999/xlink" x="0px" y="0px"
	 viewBox="0 0 128 128" style="enable-background:new 0 0 128 128;" xml:space="preserve">
<style type="text/css">
	.st0{fill:url(#SVGID_1_);}
	.st1{opacity:0.2;}
	.st2{fill:#FFFFFF;}
</style>
<linearGradient id="SVGID_1_" gradientUnits="userSpaceOnUse" x1="11.8622" y1="11.8622" x2="116.1378" y2="116.1378">
	<stop  offset="0" style="stop-color:#41BAD3"/>
	<stop  offset="1" style="stop-color:#169CD8"/>
</linearGradient>
<path class="st0" d="M87.5,128h-47C18.1,128,0,109.9,0,87.5v-47C0,18.1,18.1,0,40.5,0h47C109.9,0,128,18.1,128,40.5v47
	C128,109.9,109.9,128,87.5,128z"/>
<g>
	<g class="st1">
		<path d="M42.8,57.4l4.6,4.3c1.4,1.3,3.5,1.3,4.9,0l9.3-8.6c2.6-2.4,6.5-2.4,9.1,0l9.3,8.6c1.4,1.3,3.5,1.3,4.9,0l4.6-4.3l7-7
			c1.3-1.3,1.3-3.5,0-4.9L73.4,22.4c-4-4-10.5-4-14.5,0L35.8,45.5c-1.4,1.4-1.4,3.5,0,4.9L42.8,57.4z"/>
		<path d="M106.9,60.8l-5.7-5.4c-1.4-1.3-3.5-1.3-4.9,0L87,64c-2.6,2.4-6.5,2.4-9.1,0l-9.3-8.6c-1.4-1.3-3.5-1.3-4.9,0L54.4,64
			c-2.6,2.4-6.5,2.4-9.1,0L36,55.4c-1.4-1.3-3.5-1.3-4.9,0l-5.2,4.9c-4.8,4.5-9.9,6.5-3.3,13.1l36.3,36.3c4,4,10.5,4,14.5,0
			l36.3-36.3C115.9,67,111.5,65.1,106.9,60.8z"/>
	</g>
	<g>
		<g>
			<path class="st2" d="M40.8,55.4l4.6,4.3c1.4,1.3,3.5,1.3,4.9,0l9.3-8.6c2.6-2.4,6.5-2.4,9.1,0l9.3,8.6c1.4,1.3,3.5,1.3,4.9,0
				l4.6-4.3l7-7c1.3-1.3,1.3-3.5,0-4.9L71.4,20.4c-4-4-10.5-4-14.5,0L33.8,43.5c-1.4,1.4-1.4,3.5,0,4.9L40.8,55.4z"/>
			<path class="st2" d="M104.9,58.8l-5.7-5.4c-1.4-1.3-3.5-1.3-4.9,0L85,62c-2.6,2.4-6.5,2.4-9.1,0l-9.3-8.6c-1.4-1.3-3.5-1.3-4.9,0
				L52.4,62c-2.6,2.4-6.5,2.4-9.1,0L34,53.4c-1.4-1.3-3.5-1.3-4.9,0l-5.2,4.9c-4.8,4.5-9.9,6.5-3.3,13.1l36.3,36.3
				c4,4,10.5,4,14.5,0l36.3-36.3C113.9,65,109.5,63.1,104.9,58.8z"/>
		</g>
	</g>
</g>
</svg>
