<?xml version="1.0" encoding="utf-8"?>
<!-- Generator: Adobe Illustrator 21.1.0, SVG Export Plug-In . SVG Version: 6.00 Build 0)  -->
<svg version="1.1" id="Layer_1" xmlns="http://www.w3.org/2000/svg" xmlns:xlink="http://www.w3.org/1999/xlink" x="0px" y="0px"
	 viewBox="0 0 128 128" style="enable-background:new 0 0 128 128;" xml:space="preserve">
<style type="text/css">
	.st0{fill:url(#SVGID_1_);}
	.st1{opacity:0.2;}
	.st2{fill:#FFFFFF;}
</style>
<g>
	<linearGradient id="SVGID_1_" gradientUnits="userSpaceOnUse" x1="11.8622" y1="11.8622" x2="116.1378" y2="116.1378">
		<stop  offset="0" style="stop-color:#AA8B54"/>
		<stop  offset="1" style="stop-color:#886C3C"/>
	</linearGradient>
	<path class="st0" d="M87.5,128h-47C18.1,128,0,109.9,0,87.5v-47C0,18.1,18.1,0,40.5,0h47C109.9,0,128,18.1,128,40.5v47
		C128,109.9,109.9,128,87.5,128z"/>
</g>
<g>
	<g class="st1">
		<path d="M24.4,99.8c2.2,0,4.3,0,6.4,0c0-6.5,0-13,0-19.6c2.1,0,4.1,0,6.1,0c0-1.7,0-3.4,0-5.1c2.9,0,5.7,0,8.5,0
			c0.3-1.6-0.1-3.1,0.2-4.7c2.7,0,5.4,0,8.2,0c0-0.7,0-1.4,0-2.1c-1.9-0.7-3.8-1.5-5.8-2.3c0,0,0-0.1,0-0.1c0.7-0.3,1.5-0.6,2.2-0.9
			c1.1-0.4,2.2-0.9,3.3-1.3c0.1-0.1,0.2-0.3,0.3-0.4c0-0.6,0-1.3,0-2c-2.8,0-5.5,0-8.3,0c0-1.6,0-3.1,0-4.7c-2.9,0-5.7,0-8.6,0
			c0-1.7,0-3.4,0-5.1c-2.1,0-4.1,0-6.1,0c0-0.2,0-0.4,0-0.6c0-6.1,0-12.2,0-18.3c0-0.7,0-0.7-0.7-0.7c-1.8,0-3.6,0-5.4,0
			c-0.1,0-0.2,0-0.4,0c0-0.7,0-1.5,0-2.2c8.7,0,17.3,0,26.1,0c0,0.7,0,1.5,0,2.2c-3.7,0-7.4,0-11.1,0c0,5.3,0,10.6,0,16
			c2,0,4,0,6.1,0c0,0.2,0,0.4,0,0.6c0,1.1,0,2.3,0,3.4c0,0.7,0,0.7,0.7,0.7c2.5,0,4.9,0,7.4,0c0.2,0,0.3,0,0.6,0c0,0.8,0,1.5,0,2.3
			c3.1,0,6.1,0,9.1,0c-0.4-1.2-1.7-2.7-2.9-2.6c0.1,0.1,0.1,0.1,0.2,0.2c0.4,0.5,0.4,1,0,1.5c-0.5,0.5-1.6,0.5-2.1,0
			c-1-1.1-0.3-2,0.8-2.4c1.4-0.6,2.5,0,3.6,0.9c0.7,0.6,1,1.4,1.5,2.1c0,0.1,0.1,0.1,0.2,0.2c1.1-2.8,2.2-5.5,3.2-8.3
			c0,0,0.1,0,0.1,0c1.2,2.7,2.2,5.6,3.3,8.4c0.4-0.7,0.8-1.3,1.2-1.9c0.7-1,1.7-1.6,2.8-1.7c0.9-0.1,1.8,0.3,2.3,1.2
			c0,0.1,0.1,0.2,0.1,0.3c0.1,0.6-0.4,1.4-1,1.6c-0.7,0.2-1.4,0-1.7-0.6c-0.2-0.4-0.1-0.8,0.2-1.2c0.1-0.1,0.1-0.1,0.2-0.2
			c-1.2-0.1-2.5,1.1-2.9,2.6c3,0,5.9,0,9,0c0-0.8,0-1.5,0-2.3c2.9,0,5.7,0,8.6,0c0-1.6,0-3.1,0-4.7c2.1,0,4.1,0,6.2,0
			c0-0.2,0-0.3,0-0.5c0-5,0-10,0-14.9c0-0.6,0-0.6-0.6-0.6c-3.2,0-6.5,0-9.7,0c-0.3,0-0.5,0-0.8,0c0-0.8,0-1.5,0-2.3
			c8.7,0,17.3,0,26.1,0c0,0.7,0,1.4,0,2.2c-2.1,0-4.3,0-6.5,0c0,6.6,0,13,0,19.6c-2.1,0-4.1,0-6.1,0c0,1.7,0,3.4,0,5.1
			c-2.9,0-5.7,0-8.6,0c0,1.6,0,3.1,0,4.7c-2.8,0-5.6,0-8.5,0c0,0.7,0,1.4,0,2c0,0.1,0.2,0.2,0.3,0.3c1.7,0.7,3.4,1.4,5.1,2
			c0.2,0.1,0.3,0.1,0.5,0.3c-2,0.8-4,1.6-6,2.4c0,0.5,0,1,0,1.4c0,0.4,0.1,0.5,0.5,0.5c2.4,0,4.8,0,7.3,0c0.2,0,0.4,0,0.7,0
			c0,1.6,0,3.1,0,4.7c2.9,0,5.7,0,8.6,0c0,1.7,0,3.4,0,5.1c2.1,0,4.1,0,6.1,0c0,6.5,0,13,0,19.6c2.2,0,4.4,0,6.6,0
			c0,0.8,0,1.5,0,2.2c0,0.1-0.1,0.2-0.3,0.3c-0.1,0-0.3,0-0.4,0c-2.8,0-5.5,0-8.3,0c-5.4,0-10.9,0-16.3-0.1c-0.8,0-0.9-0.2-0.9-1
			c0-0.4,0-0.9,0-1.4c3.7,0,7.4,0,11,0c0-5.3,0-10.6,0-15.9c-0.2,0-0.5,0-0.7,0c-1.6,0-3.2,0-4.9,0c-0.6,0-0.6,0-0.6-0.6
			c0-1.3,0-2.7,0-4c-2.8,0-5.7,0-8.6,0c0-0.6,0-1.1,0-1.6c0-0.7,0-0.7-0.7-0.7c-2.6,0-5.1,0-7.7,0c-0.2,0-0.4,0-0.7,0
			c0.2,1.2,1.6,2.8,2.9,2.8c0-0.1-0.1-0.1-0.1-0.2c-0.5-0.6-0.5-0.9-0.2-1.4c0.3-0.5,1-0.7,1.6-0.6c0.5,0.1,0.8,0.5,1,0.9
			c0.3,0.6,0,1.3-0.7,1.7c-1.1,0.7-2.5,0.5-3.5-0.4c-0.8-0.7-1.4-1.5-2-2.5c-1.1,2.9-2.3,5.7-3.4,8.6c0,0-0.1,0-0.1,0
			c-1.1-2.8-2.2-5.7-3.4-8.6c-0.1,0.2-0.3,0.4-0.3,0.5c-0.5,1.3-1.4,2.1-2.6,2.6c-1.1,0.4-2.4,0.3-3.2-1c-0.1-0.2-0.1-0.5-0.1-0.7
			c0.2-0.8,1.1-1.3,1.9-1.1c0.8,0.2,1.1,1.2,0.6,1.8c-0.1,0.1-0.2,0.2-0.3,0.3c0.8,0.5,2.6-1.1,3-2.7c-0.2,0-0.4,0-0.5,0
			c-2.7,0-5.4,0-8,0c-0.6,0-0.6,0-0.6,0.6c0,0.5,0,1.1,0,1.7c-2.9,0-5.7,0-8.6,0c0,0.2,0,0.4,0,0.5c0,1.2,0,2.4,0,3.6
			c0,0.6,0,0.6-0.6,0.6c-1.6,0-3.2,0-4.9,0c-0.2,0-0.4,0-0.7,0c0,0.2,0,0.5,0,0.7c0,4.6,0,9.2,0,13.8c0,0.3-0.1,0.6-0.1,0.9
			c0,0.2,0.1,0.4,0.1,0.6c0.2,0,0.5,0,0.7,0c3.3,0,6.5,0,9.8,0c0.6,0,0.6,0,0.6,0.6c0,0.6,0,1.1,0,1.7c-0.3,0-0.5,0-0.8,0
			c-8.1,0-16.2,0-24.3,0c-0.3,0-0.7,0.1-0.9,0c-0.1-0.1-0.1-0.5-0.1-0.8c0-0.3,0-0.5,0-0.8C24.3,100.3,24.3,100.1,24.4,99.8z
			 M71.3,68.4c0.6-0.6,1.3-1.3,2-1.9c0.6,0.4,1.2,0.8,1.6,1.3c0.5,0.5,0.8,1.1,1.2,1.7c0.5-0.4,1-0.8,1.5-1.3
			c-0.4-0.4-0.8-0.8-1.2-1.1c-0.4-0.3-0.9-0.5-1.3-0.8c1.1-0.2,2.1-0.1,2.8,0.6c0.8-0.4,1.5-0.7,2.2-0.9c-0.6-0.3-1.3-0.7-1.9-1
			c-0.1-0.1-0.4,0-0.5,0.1c-0.8,0.7-1.7,0.7-2.8,0.6c1-0.5,2-0.9,2.6-1.9c-0.5-0.4-1.1-0.9-1.6-1.3c-0.8,1.9-2,2.6-3,3
			c-0.6-0.6-1.2-1.1-1.7-1.7c0.4-0.9,0.7-1.7,1.1-2.5c0,0-0.1-0.1-0.1-0.1c-0.3,0.1-0.6,0.3-0.9,0.4c-0.5,0.2-0.9,0.3-1.4,0.5
			c-0.3,0.1-0.4,0-0.6-0.1c-0.6-0.7-1.3-1.3-1.9-2c-0.2,0.1-0.3,0.2-0.3,0.2c-0.6,0.6-1.1,1.1-1.7,1.7c-0.2,0.2-0.4,0.3-0.7,0.2
			c-0.7-0.3-1.5-0.6-2.4-1c0.4,1,0.8,1.9,1.1,2.6c-0.6,0.7-1.2,1.3-1.8,2c-0.6-0.4-1.2-0.8-1.6-1.3c-0.5-0.5-0.8-1.1-1.2-1.7
			c-0.5,0.4-1,0.9-1.6,1.3c0.4,0.4,0.8,0.8,1.2,1.1c0.4,0.3,0.9,0.5,1.4,0.8c-1.3,0.2-1.6,0.1-3-0.7c-0.2,0.1-0.5,0.3-0.7,0.4
			c-0.2,0.1-0.5,0.2-0.8,0.3c-0.3,0.1-0.6,0-0.7,0.3c0.8,0.3,1.5,0.7,2.2,1c0.4-0.2,0.8-0.6,1.3-0.7c0.5-0.1,1-0.1,1.6-0.1
			c0,0,0,0.1,0,0.1c-0.9,0.5-1.9,0.9-2.5,1.9c0.5,0.4,1.1,0.9,1.7,1.3c0.5-1.4,1.5-2.4,2.8-3c0.5,0.5,1,0.9,1.4,1.4
			c0.1,0.1,0.1,0.3,0.1,0.5c-0.2,0.6-0.5,1.1-0.7,1.7c-0.1,0.2-0.2,0.5-0.3,0.7c0,0,0.1,0.1,0.1,0.1c0.5-0.2,1-0.4,1.6-0.7
			c1.1-0.5,1.1-0.5,2,0.4c0.4,0.5,0.9,0.9,1.5,1.5c0.8-0.8,1.5-1.6,2.2-2.4c0.9,0.4,1.8,0.8,2.6,1.1c0,0,0.1-0.1,0.1-0.1
			C72.1,70.1,71.7,69.3,71.3,68.4z"/>
	</g>
	<g>
		<g>
			<path class="st2" d="M22.4,97.8c2.2,0,4.3,0,6.4,0c0-6.5,0-13,0-19.6c2.1,0,4.1,0,6.1,0c0-1.7,0-3.4,0-5.1c2.9,0,5.7,0,8.5,0
				c0.3-1.6-0.1-3.1,0.2-4.7c2.7,0,5.4,0,8.2,0c0-0.7,0-1.4,0-2.1c-1.9-0.7-3.8-1.5-5.8-2.3c0,0,0-0.1,0-0.1
				c0.7-0.3,1.5-0.6,2.2-0.9c1.1-0.4,2.2-0.9,3.3-1.3c0.1-0.1,0.2-0.3,0.3-0.4c0-0.6,0-1.3,0-2c-2.8,0-5.5,0-8.3,0
				c0-1.6,0-3.1,0-4.7c-2.9,0-5.7,0-8.6,0c0-1.7,0-3.4,0-5.1c-2.1,0-4.1,0-6.1,0c0-0.2,0-0.4,0-0.6c0-6.1,0-12.2,0-18.3
				c0-0.7,0-0.7-0.7-0.7c-1.8,0-3.6,0-5.4,0c-0.1,0-0.2,0-0.4,0c0-0.7,0-1.5,0-2.2c8.7,0,17.3,0,26.1,0c0,0.7,0,1.5,0,2.2
				c-3.7,0-7.4,0-11.1,0c0,5.3,0,10.6,0,16c2,0,4,0,6.1,0c0,0.2,0,0.4,0,0.6c0,1.1,0,2.3,0,3.4c0,0.7,0,0.7,0.7,0.7
				c2.5,0,4.9,0,7.4,0c0.2,0,0.3,0,0.6,0c0,0.8,0,1.5,0,2.3c3.1,0,6.1,0,9.1,0c-0.4-1.2-1.7-2.7-2.9-2.6c0.1,0.1,0.1,0.1,0.2,0.2
				c0.4,0.5,0.4,1,0,1.5c-0.5,0.5-1.6,0.5-2.1,0c-1-1.1-0.3-2,0.8-2.4c1.4-0.6,2.5,0,3.6,0.9c0.7,0.6,1,1.4,1.5,2.1
				c0,0.1,0.1,0.1,0.2,0.2c1.1-2.8,2.2-5.5,3.2-8.3c0,0,0.1,0,0.1,0c1.2,2.7,2.2,5.6,3.3,8.4c0.4-0.7,0.8-1.3,1.2-1.9
				c0.7-1,1.7-1.6,2.8-1.7c0.9-0.1,1.8,0.3,2.3,1.2c0,0.1,0.1,0.2,0.1,0.3c0.1,0.6-0.4,1.4-1,1.6c-0.7,0.2-1.4,0-1.7-0.6
				c-0.2-0.4-0.1-0.8,0.2-1.2c0.1-0.1,0.1-0.1,0.2-0.2c-1.2-0.1-2.5,1.1-2.9,2.6c3,0,5.9,0,9,0c0-0.8,0-1.5,0-2.3c2.9,0,5.7,0,8.6,0
				c0-1.6,0-3.1,0-4.7c2.1,0,4.1,0,6.2,0c0-0.2,0-0.3,0-0.5c0-5,0-10,0-14.9c0-0.6,0-0.6-0.6-0.6c-3.2,0-6.5,0-9.7,0
				c-0.3,0-0.5,0-0.8,0c0-0.8,0-1.5,0-2.3c8.7,0,17.3,0,26.1,0c0,0.7,0,1.4,0,2.2c-2.1,0-4.3,0-6.5,0c0,6.6,0,13,0,19.6
				c-2.1,0-4.1,0-6.1,0c0,1.7,0,3.4,0,5.1c-2.9,0-5.7,0-8.6,0c0,1.6,0,3.1,0,4.7c-2.8,0-5.6,0-8.5,0c0,0.7,0,1.4,0,2
				c0,0.1,0.2,0.2,0.3,0.3c1.7,0.7,3.4,1.4,5.1,2c0.2,0.1,0.3,0.1,0.5,0.3c-2,0.8-4,1.6-6,2.4c0,0.5,0,1,0,1.4
				c0,0.4,0.1,0.5,0.5,0.5c2.4,0,4.8,0,7.3,0c0.2,0,0.4,0,0.7,0c0,1.6,0,3.1,0,4.7c2.9,0,5.7,0,8.6,0c0,1.7,0,3.4,0,5.1
				c2.1,0,4.1,0,6.1,0c0,6.5,0,13,0,19.6c2.2,0,4.4,0,6.6,0c0,0.8,0,1.5,0,2.2c0,0.1-0.1,0.2-0.3,0.3c-0.1,0-0.3,0-0.4,0
				c-2.8,0-5.5,0-8.3,0c-5.4,0-10.9,0-16.3-0.1c-0.8,0-0.9-0.2-0.9-1c0-0.4,0-0.9,0-1.4c3.7,0,7.4,0,11,0c0-5.3,0-10.6,0-15.9
				c-0.2,0-0.5,0-0.7,0c-1.6,0-3.2,0-4.9,0c-0.6,0-0.6,0-0.6-0.6c0-1.3,0-2.7,0-4c-2.8,0-5.7,0-8.6,0c0-0.6,0-1.1,0-1.6
				c0-0.7,0-0.7-0.7-0.7c-2.6,0-5.1,0-7.7,0c-0.2,0-0.4,0-0.7,0c0.2,1.2,1.6,2.8,2.9,2.8c0-0.1-0.1-0.1-0.1-0.2
				c-0.5-0.6-0.5-0.9-0.2-1.4c0.3-0.5,1-0.7,1.6-0.6c0.5,0.1,0.8,0.5,1,0.9c0.3,0.6,0,1.3-0.7,1.7c-1.1,0.7-2.5,0.5-3.5-0.4
				c-0.8-0.7-1.4-1.5-2-2.5c-1.1,2.9-2.3,5.7-3.4,8.6c0,0-0.1,0-0.1,0c-1.1-2.8-2.2-5.7-3.4-8.6c-0.1,0.2-0.3,0.4-0.3,0.5
				c-0.5,1.3-1.4,2.1-2.6,2.6c-1.1,0.4-2.4,0.3-3.2-1c-0.1-0.2-0.1-0.5-0.1-0.7c0.2-0.8,1.1-1.3,1.9-1.1c0.8,0.2,1.1,1.2,0.6,1.8
				c-0.1,0.1-0.2,0.2-0.3,0.3c0.8,0.5,2.6-1.1,3-2.7c-0.2,0-0.4,0-0.5,0c-2.7,0-5.4,0-8,0c-0.6,0-0.6,0-0.6,0.6c0,0.5,0,1.1,0,1.7
				c-2.9,0-5.7,0-8.6,0c0,0.2,0,0.4,0,0.5c0,1.2,0,2.4,0,3.6c0,0.6,0,0.6-0.6,0.6c-1.6,0-3.2,0-4.9,0c-0.2,0-0.4,0-0.7,0
				c0,0.2,0,0.5,0,0.7c0,4.6,0,9.2,0,13.8c0,0.3-0.1,0.6-0.1,0.9c0,0.2,0.1,0.4,0.1,0.6c0.2,0,0.5,0,0.7,0c3.3,0,6.5,0,9.8,0
				c0.6,0,0.6,0,0.6,0.6c0,0.6,0,1.1,0,1.7c-0.3,0-0.5,0-0.8,0c-8.1,0-16.2,0-24.3,0c-0.3,0-0.7,0.1-0.9,0c-0.1-0.1-0.1-0.5-0.1-0.8
				c0-0.3,0-0.5,0-0.8C22.3,98.3,22.3,98.1,22.4,97.8z M69.3,66.4c0.6-0.6,1.3-1.3,2-1.9c0.6,0.4,1.2,0.8,1.6,1.3
				c0.5,0.5,0.8,1.1,1.2,1.7c0.5-0.4,1-0.8,1.5-1.3c-0.4-0.4-0.8-0.8-1.2-1.1c-0.4-0.3-0.9-0.5-1.3-0.8c1.1-0.2,2.1-0.1,2.8,0.6
				c0.8-0.4,1.5-0.7,2.2-0.9c-0.6-0.3-1.3-0.7-1.9-1c-0.1-0.1-0.4,0-0.5,0.1c-0.8,0.7-1.7,0.7-2.8,0.6c1-0.5,2-0.9,2.6-1.9
				c-0.5-0.4-1.1-0.9-1.6-1.3c-0.8,1.9-2,2.6-3,3c-0.6-0.6-1.2-1.1-1.7-1.7c0.4-0.9,0.7-1.7,1.1-2.5c0,0-0.1-0.1-0.1-0.1
				c-0.3,0.1-0.6,0.3-0.9,0.4c-0.5,0.2-0.9,0.3-1.4,0.5c-0.3,0.1-0.4,0-0.6-0.1c-0.6-0.7-1.3-1.3-1.9-2c-0.2,0.1-0.3,0.2-0.3,0.2
				c-0.6,0.6-1.1,1.1-1.7,1.7c-0.2,0.2-0.4,0.3-0.7,0.2c-0.7-0.3-1.5-0.6-2.4-1c0.4,1,0.8,1.9,1.1,2.6c-0.6,0.7-1.2,1.3-1.8,2
				c-0.6-0.4-1.2-0.8-1.6-1.3c-0.5-0.5-0.8-1.1-1.2-1.7c-0.5,0.4-1,0.9-1.6,1.3c0.4,0.4,0.8,0.8,1.2,1.1c0.4,0.3,0.9,0.5,1.4,0.8
				c-1.3,0.2-1.6,0.1-3-0.7c-0.2,0.1-0.5,0.3-0.7,0.4c-0.2,0.1-0.5,0.2-0.8,0.3c-0.3,0.1-0.6,0-0.7,0.3c0.8,0.3,1.5,0.7,2.2,1
				c0.4-0.2,0.8-0.6,1.3-0.7c0.5-0.1,1-0.1,1.6-0.1c0,0,0,0.1,0,0.1c-0.9,0.5-1.9,0.9-2.5,1.9c0.5,0.4,1.1,0.9,1.7,1.3
				c0.5-1.4,1.5-2.4,2.8-3c0.5,0.5,1,0.9,1.4,1.4c0.1,0.1,0.1,0.3,0.1,0.5c-0.2,0.6-0.5,1.1-0.7,1.7c-0.1,0.2-0.2,0.5-0.3,0.7
				c0,0,0.1,0.1,0.1,0.1c0.5-0.2,1-0.4,1.6-0.7c1.1-0.5,1.1-0.5,2,0.4c0.4,0.5,0.9,0.9,1.5,1.5c0.8-0.8,1.5-1.6,2.2-2.4
				c0.9,0.4,1.8,0.8,2.6,1.1c0,0,0.1-0.1,0.1-0.1C70.1,68.1,69.7,67.3,69.3,66.4z"/>
		</g>
	</g>
</g>
</svg>
