<?xml version="1.0" encoding="utf-8"?>
<!-- Generator: Adobe Illustrator 21.1.0, SVG Export Plug-In . SVG Version: 6.00 Build 0)  -->
<svg version="1.1" id="Layer_1" xmlns="http://www.w3.org/2000/svg" xmlns:xlink="http://www.w3.org/1999/xlink" x="0px" y="0px"
	 viewBox="0 0 128 128" style="enable-background:new 0 0 128 128;" xml:space="preserve">
<style type="text/css">
	.st0{fill:url(#SVGID_1_);}
	.st1{opacity:0.2;}
	.st2{fill:#FFFFFF;}
</style>
<linearGradient id="SVGID_1_" gradientUnits="userSpaceOnUse" x1="11.8622" y1="11.8622" x2="116.1378" y2="116.1378">
	<stop  offset="0" style="stop-color:#FFD05B"/>
	<stop  offset="1" style="stop-color:#D08A29"/>
</linearGradient>
<path class="st0" d="M87.5,128h-47C18.1,128,0,109.9,0,87.5v-47C0,18.1,18.1,0,40.5,0h47C109.9,0,128,18.1,128,40.5v47
	C128,109.9,109.9,128,87.5,128z"/>
<g>
	<g class="st1">
		<path d="M60.7,34.4c0-4.1,0-7.7,0-11.5c4.8,0,9.4,0,14.4,0c0,3.7,0,7.4,0,11.4c5.9,0,11.4,0,17.5,0c-0.6,5.5,1.4,10.8-2.8,15.9
			C81.5,60.3,73.9,71,66.1,81.4c-0.1,0.1-0.1,0.3-0.2,0.9c9.2,0,18.3,0,27.5,0c0,5.4,0,10.3,0,15.6c-6,0-12,0-18.3,0
			c0,3.9,0,7.4,0,11.2c-4.9,0-9.4,0-14.3,0c0-3.6,0-7.1,0-11c-6.1,0-11.9,0-18.1,0c0.3-5.6-1-10.9,3.1-15.9
			c8.4-10.1,16.1-20.8,24-31.3c0.1-0.2,0.2-0.5,0.4-1c-8.5,0-16.8,0-25.3,0c0-5.3,0-10.2,0-15.5C50.2,34.4,55.3,34.4,60.7,34.4z"/>
	</g>
	<g>
		<g>
			<path class="st2" d="M58.7,32.4c0-4.1,0-7.7,0-11.5c4.8,0,9.4,0,14.4,0c0,3.7,0,7.4,0,11.4c5.9,0,11.4,0,17.5,0
				c-0.6,5.5,1.4,10.8-2.8,15.9C79.5,58.3,71.9,69,64.1,79.4c-0.1,0.1-0.1,0.3-0.2,0.9c9.2,0,18.3,0,27.5,0c0,5.4,0,10.3,0,15.6
				c-6,0-12,0-18.3,0c0,3.9,0,7.4,0,11.2c-4.9,0-9.4,0-14.3,0c0-3.6,0-7.1,0-11c-6.1,0-11.9,0-18.1,0c0.3-5.6-1-10.9,3.1-15.9
				c8.4-10.1,16.1-20.8,24-31.3c0.1-0.2,0.2-0.5,0.4-1c-8.5,0-16.8,0-25.3,0c0-5.3,0-10.2,0-15.5C48.2,32.4,53.3,32.4,58.7,32.4z"/>
		</g>
	</g>
</g>
</svg>
